%TF.GenerationSoftware,KiCad,Pcbnew,10.0.3*%
%TF.CreationDate,2026-05-28T20:27:43-07:00*%
%TF.ProjectId,Encoder Board,456e636f-6465-4722-9042-6f6172642e6b,rev?*%
%TF.SameCoordinates,Original*%
%TF.FileFunction,Legend,Top*%
%TF.FilePolarity,Positive*%
%FSLAX46Y46*%
G04 Gerber Fmt 4.6, Leading zero omitted, Abs format (unit mm)*
G04 Created by KiCad (PCBNEW 10.0.3) date 2026-05-28 20:27:43*
%MOMM*%
%LPD*%
G01*
G04 APERTURE LIST*
%ADD10C,0.205000*%
%ADD11C,0.150000*%
%ADD12C,0.120000*%
G04 APERTURE END LIST*
D10*
X84102500Y-80000000D02*
G75*
G02*
X83897500Y-80000000I-102500J0D01*
G01*
X83897500Y-80000000D02*
G75*
G02*
X84102500Y-80000000I102500J0D01*
G01*
X119102500Y-66500000D02*
G75*
G02*
X118897500Y-66500000I-102500J0D01*
G01*
X118897500Y-66500000D02*
G75*
G02*
X119102500Y-66500000I102500J0D01*
G01*
X124102500Y-85000000D02*
G75*
G02*
X123897500Y-85000000I-102500J0D01*
G01*
X123897500Y-85000000D02*
G75*
G02*
X124102500Y-85000000I102500J0D01*
G01*
X124102500Y-57845000D02*
G75*
G02*
X123897500Y-57845000I-102500J0D01*
G01*
X123897500Y-57845000D02*
G75*
G02*
X124102500Y-57845000I102500J0D01*
G01*
D11*
X120369819Y-61483220D02*
X119369819Y-61483220D01*
X119369819Y-61483220D02*
X119369819Y-61102268D01*
X119369819Y-61102268D02*
X119417438Y-61007030D01*
X119417438Y-61007030D02*
X119465057Y-60959411D01*
X119465057Y-60959411D02*
X119560295Y-60911792D01*
X119560295Y-60911792D02*
X119703152Y-60911792D01*
X119703152Y-60911792D02*
X119798390Y-60959411D01*
X119798390Y-60959411D02*
X119846009Y-61007030D01*
X119846009Y-61007030D02*
X119893628Y-61102268D01*
X119893628Y-61102268D02*
X119893628Y-61483220D01*
X119369819Y-60578458D02*
X120369819Y-60340363D01*
X120369819Y-60340363D02*
X119655533Y-60149887D01*
X119655533Y-60149887D02*
X120369819Y-59959411D01*
X120369819Y-59959411D02*
X119369819Y-59721316D01*
X120369819Y-58768935D02*
X119893628Y-59102268D01*
X120369819Y-59340363D02*
X119369819Y-59340363D01*
X119369819Y-59340363D02*
X119369819Y-58959411D01*
X119369819Y-58959411D02*
X119417438Y-58864173D01*
X119417438Y-58864173D02*
X119465057Y-58816554D01*
X119465057Y-58816554D02*
X119560295Y-58768935D01*
X119560295Y-58768935D02*
X119703152Y-58768935D01*
X119703152Y-58768935D02*
X119798390Y-58816554D01*
X119798390Y-58816554D02*
X119846009Y-58864173D01*
X119846009Y-58864173D02*
X119893628Y-58959411D01*
X119893628Y-58959411D02*
X119893628Y-59340363D01*
X78789160Y-88899337D02*
X79055826Y-88899337D01*
X79170112Y-89318385D02*
X78789160Y-89318385D01*
X78789160Y-89318385D02*
X78789160Y-88518385D01*
X78789160Y-88518385D02*
X79170112Y-88518385D01*
X79512970Y-88785051D02*
X79512970Y-89318385D01*
X79512970Y-88861242D02*
X79551065Y-88823147D01*
X79551065Y-88823147D02*
X79627255Y-88785051D01*
X79627255Y-88785051D02*
X79741541Y-88785051D01*
X79741541Y-88785051D02*
X79817732Y-88823147D01*
X79817732Y-88823147D02*
X79855827Y-88899337D01*
X79855827Y-88899337D02*
X79855827Y-89318385D01*
X80579637Y-89280290D02*
X80503446Y-89318385D01*
X80503446Y-89318385D02*
X80351065Y-89318385D01*
X80351065Y-89318385D02*
X80274875Y-89280290D01*
X80274875Y-89280290D02*
X80236780Y-89242194D01*
X80236780Y-89242194D02*
X80198684Y-89166004D01*
X80198684Y-89166004D02*
X80198684Y-88937432D01*
X80198684Y-88937432D02*
X80236780Y-88861242D01*
X80236780Y-88861242D02*
X80274875Y-88823147D01*
X80274875Y-88823147D02*
X80351065Y-88785051D01*
X80351065Y-88785051D02*
X80503446Y-88785051D01*
X80503446Y-88785051D02*
X80579637Y-88823147D01*
X81036779Y-89318385D02*
X80960589Y-89280290D01*
X80960589Y-89280290D02*
X80922494Y-89242194D01*
X80922494Y-89242194D02*
X80884398Y-89166004D01*
X80884398Y-89166004D02*
X80884398Y-88937432D01*
X80884398Y-88937432D02*
X80922494Y-88861242D01*
X80922494Y-88861242D02*
X80960589Y-88823147D01*
X80960589Y-88823147D02*
X81036779Y-88785051D01*
X81036779Y-88785051D02*
X81151065Y-88785051D01*
X81151065Y-88785051D02*
X81227256Y-88823147D01*
X81227256Y-88823147D02*
X81265351Y-88861242D01*
X81265351Y-88861242D02*
X81303446Y-88937432D01*
X81303446Y-88937432D02*
X81303446Y-89166004D01*
X81303446Y-89166004D02*
X81265351Y-89242194D01*
X81265351Y-89242194D02*
X81227256Y-89280290D01*
X81227256Y-89280290D02*
X81151065Y-89318385D01*
X81151065Y-89318385D02*
X81036779Y-89318385D01*
X81989161Y-89318385D02*
X81989161Y-88518385D01*
X81989161Y-89280290D02*
X81912970Y-89318385D01*
X81912970Y-89318385D02*
X81760589Y-89318385D01*
X81760589Y-89318385D02*
X81684399Y-89280290D01*
X81684399Y-89280290D02*
X81646304Y-89242194D01*
X81646304Y-89242194D02*
X81608208Y-89166004D01*
X81608208Y-89166004D02*
X81608208Y-88937432D01*
X81608208Y-88937432D02*
X81646304Y-88861242D01*
X81646304Y-88861242D02*
X81684399Y-88823147D01*
X81684399Y-88823147D02*
X81760589Y-88785051D01*
X81760589Y-88785051D02*
X81912970Y-88785051D01*
X81912970Y-88785051D02*
X81989161Y-88823147D01*
X82674876Y-89280290D02*
X82598685Y-89318385D01*
X82598685Y-89318385D02*
X82446304Y-89318385D01*
X82446304Y-89318385D02*
X82370114Y-89280290D01*
X82370114Y-89280290D02*
X82332018Y-89204099D01*
X82332018Y-89204099D02*
X82332018Y-88899337D01*
X82332018Y-88899337D02*
X82370114Y-88823147D01*
X82370114Y-88823147D02*
X82446304Y-88785051D01*
X82446304Y-88785051D02*
X82598685Y-88785051D01*
X82598685Y-88785051D02*
X82674876Y-88823147D01*
X82674876Y-88823147D02*
X82712971Y-88899337D01*
X82712971Y-88899337D02*
X82712971Y-88975528D01*
X82712971Y-88975528D02*
X82332018Y-89051718D01*
X83055828Y-89318385D02*
X83055828Y-88785051D01*
X83055828Y-88937432D02*
X83093923Y-88861242D01*
X83093923Y-88861242D02*
X83132018Y-88823147D01*
X83132018Y-88823147D02*
X83208209Y-88785051D01*
X83208209Y-88785051D02*
X83284399Y-88785051D01*
X84046304Y-88518385D02*
X84503447Y-88518385D01*
X84274875Y-89318385D02*
X84274875Y-88518385D01*
X84770114Y-89318385D02*
X84770114Y-88785051D01*
X84770114Y-88937432D02*
X84808209Y-88861242D01*
X84808209Y-88861242D02*
X84846304Y-88823147D01*
X84846304Y-88823147D02*
X84922495Y-88785051D01*
X84922495Y-88785051D02*
X84998685Y-88785051D01*
X85265352Y-89318385D02*
X85265352Y-88785051D01*
X85265352Y-88518385D02*
X85227256Y-88556480D01*
X85227256Y-88556480D02*
X85265352Y-88594575D01*
X85265352Y-88594575D02*
X85303447Y-88556480D01*
X85303447Y-88556480D02*
X85265352Y-88518385D01*
X85265352Y-88518385D02*
X85265352Y-88594575D01*
X85989161Y-88785051D02*
X85989161Y-89432670D01*
X85989161Y-89432670D02*
X85951066Y-89508861D01*
X85951066Y-89508861D02*
X85912970Y-89546956D01*
X85912970Y-89546956D02*
X85836780Y-89585051D01*
X85836780Y-89585051D02*
X85722494Y-89585051D01*
X85722494Y-89585051D02*
X85646304Y-89546956D01*
X85989161Y-89280290D02*
X85912970Y-89318385D01*
X85912970Y-89318385D02*
X85760589Y-89318385D01*
X85760589Y-89318385D02*
X85684399Y-89280290D01*
X85684399Y-89280290D02*
X85646304Y-89242194D01*
X85646304Y-89242194D02*
X85608208Y-89166004D01*
X85608208Y-89166004D02*
X85608208Y-88937432D01*
X85608208Y-88937432D02*
X85646304Y-88861242D01*
X85646304Y-88861242D02*
X85684399Y-88823147D01*
X85684399Y-88823147D02*
X85760589Y-88785051D01*
X85760589Y-88785051D02*
X85912970Y-88785051D01*
X85912970Y-88785051D02*
X85989161Y-88823147D01*
X86712971Y-88785051D02*
X86712971Y-89432670D01*
X86712971Y-89432670D02*
X86674876Y-89508861D01*
X86674876Y-89508861D02*
X86636780Y-89546956D01*
X86636780Y-89546956D02*
X86560590Y-89585051D01*
X86560590Y-89585051D02*
X86446304Y-89585051D01*
X86446304Y-89585051D02*
X86370114Y-89546956D01*
X86712971Y-89280290D02*
X86636780Y-89318385D01*
X86636780Y-89318385D02*
X86484399Y-89318385D01*
X86484399Y-89318385D02*
X86408209Y-89280290D01*
X86408209Y-89280290D02*
X86370114Y-89242194D01*
X86370114Y-89242194D02*
X86332018Y-89166004D01*
X86332018Y-89166004D02*
X86332018Y-88937432D01*
X86332018Y-88937432D02*
X86370114Y-88861242D01*
X86370114Y-88861242D02*
X86408209Y-88823147D01*
X86408209Y-88823147D02*
X86484399Y-88785051D01*
X86484399Y-88785051D02*
X86636780Y-88785051D01*
X86636780Y-88785051D02*
X86712971Y-88823147D01*
X87398686Y-89280290D02*
X87322495Y-89318385D01*
X87322495Y-89318385D02*
X87170114Y-89318385D01*
X87170114Y-89318385D02*
X87093924Y-89280290D01*
X87093924Y-89280290D02*
X87055828Y-89204099D01*
X87055828Y-89204099D02*
X87055828Y-88899337D01*
X87055828Y-88899337D02*
X87093924Y-88823147D01*
X87093924Y-88823147D02*
X87170114Y-88785051D01*
X87170114Y-88785051D02*
X87322495Y-88785051D01*
X87322495Y-88785051D02*
X87398686Y-88823147D01*
X87398686Y-88823147D02*
X87436781Y-88899337D01*
X87436781Y-88899337D02*
X87436781Y-88975528D01*
X87436781Y-88975528D02*
X87055828Y-89051718D01*
X87779638Y-89318385D02*
X87779638Y-88785051D01*
X87779638Y-88937432D02*
X87817733Y-88861242D01*
X87817733Y-88861242D02*
X87855828Y-88823147D01*
X87855828Y-88823147D02*
X87932019Y-88785051D01*
X87932019Y-88785051D02*
X88008209Y-88785051D01*
X89151066Y-88899337D02*
X89265352Y-88937432D01*
X89265352Y-88937432D02*
X89303447Y-88975528D01*
X89303447Y-88975528D02*
X89341543Y-89051718D01*
X89341543Y-89051718D02*
X89341543Y-89166004D01*
X89341543Y-89166004D02*
X89303447Y-89242194D01*
X89303447Y-89242194D02*
X89265352Y-89280290D01*
X89265352Y-89280290D02*
X89189162Y-89318385D01*
X89189162Y-89318385D02*
X88884400Y-89318385D01*
X88884400Y-89318385D02*
X88884400Y-88518385D01*
X88884400Y-88518385D02*
X89151066Y-88518385D01*
X89151066Y-88518385D02*
X89227257Y-88556480D01*
X89227257Y-88556480D02*
X89265352Y-88594575D01*
X89265352Y-88594575D02*
X89303447Y-88670766D01*
X89303447Y-88670766D02*
X89303447Y-88746956D01*
X89303447Y-88746956D02*
X89265352Y-88823147D01*
X89265352Y-88823147D02*
X89227257Y-88861242D01*
X89227257Y-88861242D02*
X89151066Y-88899337D01*
X89151066Y-88899337D02*
X88884400Y-88899337D01*
X89798685Y-89318385D02*
X89722495Y-89280290D01*
X89722495Y-89280290D02*
X89684400Y-89242194D01*
X89684400Y-89242194D02*
X89646304Y-89166004D01*
X89646304Y-89166004D02*
X89646304Y-88937432D01*
X89646304Y-88937432D02*
X89684400Y-88861242D01*
X89684400Y-88861242D02*
X89722495Y-88823147D01*
X89722495Y-88823147D02*
X89798685Y-88785051D01*
X89798685Y-88785051D02*
X89912971Y-88785051D01*
X89912971Y-88785051D02*
X89989162Y-88823147D01*
X89989162Y-88823147D02*
X90027257Y-88861242D01*
X90027257Y-88861242D02*
X90065352Y-88937432D01*
X90065352Y-88937432D02*
X90065352Y-89166004D01*
X90065352Y-89166004D02*
X90027257Y-89242194D01*
X90027257Y-89242194D02*
X89989162Y-89280290D01*
X89989162Y-89280290D02*
X89912971Y-89318385D01*
X89912971Y-89318385D02*
X89798685Y-89318385D01*
X90751067Y-89318385D02*
X90751067Y-88899337D01*
X90751067Y-88899337D02*
X90712972Y-88823147D01*
X90712972Y-88823147D02*
X90636781Y-88785051D01*
X90636781Y-88785051D02*
X90484400Y-88785051D01*
X90484400Y-88785051D02*
X90408210Y-88823147D01*
X90751067Y-89280290D02*
X90674876Y-89318385D01*
X90674876Y-89318385D02*
X90484400Y-89318385D01*
X90484400Y-89318385D02*
X90408210Y-89280290D01*
X90408210Y-89280290D02*
X90370114Y-89204099D01*
X90370114Y-89204099D02*
X90370114Y-89127909D01*
X90370114Y-89127909D02*
X90408210Y-89051718D01*
X90408210Y-89051718D02*
X90484400Y-89013623D01*
X90484400Y-89013623D02*
X90674876Y-89013623D01*
X90674876Y-89013623D02*
X90751067Y-88975528D01*
X91132020Y-89318385D02*
X91132020Y-88785051D01*
X91132020Y-88937432D02*
X91170115Y-88861242D01*
X91170115Y-88861242D02*
X91208210Y-88823147D01*
X91208210Y-88823147D02*
X91284401Y-88785051D01*
X91284401Y-88785051D02*
X91360591Y-88785051D01*
X91970115Y-89318385D02*
X91970115Y-88518385D01*
X91970115Y-89280290D02*
X91893924Y-89318385D01*
X91893924Y-89318385D02*
X91741543Y-89318385D01*
X91741543Y-89318385D02*
X91665353Y-89280290D01*
X91665353Y-89280290D02*
X91627258Y-89242194D01*
X91627258Y-89242194D02*
X91589162Y-89166004D01*
X91589162Y-89166004D02*
X91589162Y-88937432D01*
X91589162Y-88937432D02*
X91627258Y-88861242D01*
X91627258Y-88861242D02*
X91665353Y-88823147D01*
X91665353Y-88823147D02*
X91741543Y-88785051D01*
X91741543Y-88785051D02*
X91893924Y-88785051D01*
X91893924Y-88785051D02*
X91970115Y-88823147D01*
X79246303Y-90606340D02*
X78979636Y-90225387D01*
X78789160Y-90606340D02*
X78789160Y-89806340D01*
X78789160Y-89806340D02*
X79093922Y-89806340D01*
X79093922Y-89806340D02*
X79170112Y-89844435D01*
X79170112Y-89844435D02*
X79208207Y-89882530D01*
X79208207Y-89882530D02*
X79246303Y-89958721D01*
X79246303Y-89958721D02*
X79246303Y-90073006D01*
X79246303Y-90073006D02*
X79208207Y-90149197D01*
X79208207Y-90149197D02*
X79170112Y-90187292D01*
X79170112Y-90187292D02*
X79093922Y-90225387D01*
X79093922Y-90225387D02*
X78789160Y-90225387D01*
X79893922Y-90568245D02*
X79817731Y-90606340D01*
X79817731Y-90606340D02*
X79665350Y-90606340D01*
X79665350Y-90606340D02*
X79589160Y-90568245D01*
X79589160Y-90568245D02*
X79551064Y-90492054D01*
X79551064Y-90492054D02*
X79551064Y-90187292D01*
X79551064Y-90187292D02*
X79589160Y-90111102D01*
X79589160Y-90111102D02*
X79665350Y-90073006D01*
X79665350Y-90073006D02*
X79817731Y-90073006D01*
X79817731Y-90073006D02*
X79893922Y-90111102D01*
X79893922Y-90111102D02*
X79932017Y-90187292D01*
X79932017Y-90187292D02*
X79932017Y-90263483D01*
X79932017Y-90263483D02*
X79551064Y-90339673D01*
X80198683Y-90073006D02*
X80389159Y-90606340D01*
X80389159Y-90606340D02*
X80579636Y-90073006D01*
X80884398Y-90530149D02*
X80922493Y-90568245D01*
X80922493Y-90568245D02*
X80884398Y-90606340D01*
X80884398Y-90606340D02*
X80846302Y-90568245D01*
X80846302Y-90568245D02*
X80884398Y-90530149D01*
X80884398Y-90530149D02*
X80884398Y-90606340D01*
X82293921Y-90606340D02*
X81836778Y-90606340D01*
X82065350Y-90606340D02*
X82065350Y-89806340D01*
X82065350Y-89806340D02*
X81989159Y-89920625D01*
X81989159Y-89920625D02*
X81912969Y-89996816D01*
X81912969Y-89996816D02*
X81836778Y-90034911D01*
X78789160Y-91894295D02*
X78789160Y-91094295D01*
X79246303Y-91894295D02*
X78903445Y-91437152D01*
X79246303Y-91094295D02*
X78789160Y-91551438D01*
X79932017Y-91894295D02*
X79932017Y-91475247D01*
X79932017Y-91475247D02*
X79893922Y-91399057D01*
X79893922Y-91399057D02*
X79817731Y-91360961D01*
X79817731Y-91360961D02*
X79665350Y-91360961D01*
X79665350Y-91360961D02*
X79589160Y-91399057D01*
X79932017Y-91856200D02*
X79855826Y-91894295D01*
X79855826Y-91894295D02*
X79665350Y-91894295D01*
X79665350Y-91894295D02*
X79589160Y-91856200D01*
X79589160Y-91856200D02*
X79551064Y-91780009D01*
X79551064Y-91780009D02*
X79551064Y-91703819D01*
X79551064Y-91703819D02*
X79589160Y-91627628D01*
X79589160Y-91627628D02*
X79665350Y-91589533D01*
X79665350Y-91589533D02*
X79855826Y-91589533D01*
X79855826Y-91589533D02*
X79932017Y-91551438D01*
X80312970Y-91894295D02*
X80312970Y-91360961D01*
X80312970Y-91094295D02*
X80274874Y-91132390D01*
X80274874Y-91132390D02*
X80312970Y-91170485D01*
X80312970Y-91170485D02*
X80351065Y-91132390D01*
X80351065Y-91132390D02*
X80312970Y-91094295D01*
X80312970Y-91094295D02*
X80312970Y-91170485D01*
X80808207Y-91894295D02*
X80732017Y-91856200D01*
X80732017Y-91856200D02*
X80693922Y-91780009D01*
X80693922Y-91780009D02*
X80693922Y-91094295D01*
X81455827Y-91894295D02*
X81455827Y-91475247D01*
X81455827Y-91475247D02*
X81417732Y-91399057D01*
X81417732Y-91399057D02*
X81341541Y-91360961D01*
X81341541Y-91360961D02*
X81189160Y-91360961D01*
X81189160Y-91360961D02*
X81112970Y-91399057D01*
X81455827Y-91856200D02*
X81379636Y-91894295D01*
X81379636Y-91894295D02*
X81189160Y-91894295D01*
X81189160Y-91894295D02*
X81112970Y-91856200D01*
X81112970Y-91856200D02*
X81074874Y-91780009D01*
X81074874Y-91780009D02*
X81074874Y-91703819D01*
X81074874Y-91703819D02*
X81112970Y-91627628D01*
X81112970Y-91627628D02*
X81189160Y-91589533D01*
X81189160Y-91589533D02*
X81379636Y-91589533D01*
X81379636Y-91589533D02*
X81455827Y-91551438D01*
X81798684Y-91856200D02*
X81874875Y-91894295D01*
X81874875Y-91894295D02*
X82027256Y-91894295D01*
X82027256Y-91894295D02*
X82103446Y-91856200D01*
X82103446Y-91856200D02*
X82141542Y-91780009D01*
X82141542Y-91780009D02*
X82141542Y-91741914D01*
X82141542Y-91741914D02*
X82103446Y-91665723D01*
X82103446Y-91665723D02*
X82027256Y-91627628D01*
X82027256Y-91627628D02*
X81912970Y-91627628D01*
X81912970Y-91627628D02*
X81836780Y-91589533D01*
X81836780Y-91589533D02*
X81798684Y-91513342D01*
X81798684Y-91513342D02*
X81798684Y-91475247D01*
X81798684Y-91475247D02*
X81836780Y-91399057D01*
X81836780Y-91399057D02*
X81912970Y-91360961D01*
X81912970Y-91360961D02*
X82027256Y-91360961D01*
X82027256Y-91360961D02*
X82103446Y-91399057D01*
X82484399Y-91894295D02*
X82484399Y-91094295D01*
X82827256Y-91894295D02*
X82827256Y-91475247D01*
X82827256Y-91475247D02*
X82789161Y-91399057D01*
X82789161Y-91399057D02*
X82712970Y-91360961D01*
X82712970Y-91360961D02*
X82598684Y-91360961D01*
X82598684Y-91360961D02*
X82522494Y-91399057D01*
X82522494Y-91399057D02*
X82484399Y-91437152D01*
X84274876Y-91894295D02*
X84008209Y-91513342D01*
X83817733Y-91894295D02*
X83817733Y-91094295D01*
X83817733Y-91094295D02*
X84122495Y-91094295D01*
X84122495Y-91094295D02*
X84198685Y-91132390D01*
X84198685Y-91132390D02*
X84236780Y-91170485D01*
X84236780Y-91170485D02*
X84274876Y-91246676D01*
X84274876Y-91246676D02*
X84274876Y-91360961D01*
X84274876Y-91360961D02*
X84236780Y-91437152D01*
X84236780Y-91437152D02*
X84198685Y-91475247D01*
X84198685Y-91475247D02*
X84122495Y-91513342D01*
X84122495Y-91513342D02*
X83817733Y-91513342D01*
X84960590Y-91894295D02*
X84960590Y-91475247D01*
X84960590Y-91475247D02*
X84922495Y-91399057D01*
X84922495Y-91399057D02*
X84846304Y-91360961D01*
X84846304Y-91360961D02*
X84693923Y-91360961D01*
X84693923Y-91360961D02*
X84617733Y-91399057D01*
X84960590Y-91856200D02*
X84884399Y-91894295D01*
X84884399Y-91894295D02*
X84693923Y-91894295D01*
X84693923Y-91894295D02*
X84617733Y-91856200D01*
X84617733Y-91856200D02*
X84579637Y-91780009D01*
X84579637Y-91780009D02*
X84579637Y-91703819D01*
X84579637Y-91703819D02*
X84617733Y-91627628D01*
X84617733Y-91627628D02*
X84693923Y-91589533D01*
X84693923Y-91589533D02*
X84884399Y-91589533D01*
X84884399Y-91589533D02*
X84960590Y-91551438D01*
X85455828Y-91894295D02*
X85379638Y-91856200D01*
X85379638Y-91856200D02*
X85341543Y-91818104D01*
X85341543Y-91818104D02*
X85303447Y-91741914D01*
X85303447Y-91741914D02*
X85303447Y-91513342D01*
X85303447Y-91513342D02*
X85341543Y-91437152D01*
X85341543Y-91437152D02*
X85379638Y-91399057D01*
X85379638Y-91399057D02*
X85455828Y-91360961D01*
X85455828Y-91360961D02*
X85570114Y-91360961D01*
X85570114Y-91360961D02*
X85646305Y-91399057D01*
X85646305Y-91399057D02*
X85684400Y-91437152D01*
X85684400Y-91437152D02*
X85722495Y-91513342D01*
X85722495Y-91513342D02*
X85722495Y-91741914D01*
X85722495Y-91741914D02*
X85684400Y-91818104D01*
X85684400Y-91818104D02*
X85646305Y-91856200D01*
X85646305Y-91856200D02*
X85570114Y-91894295D01*
X85570114Y-91894295D02*
X85455828Y-91894295D01*
X119193922Y-91369819D02*
X119765350Y-91369819D01*
X119479636Y-92369819D02*
X119479636Y-91369819D01*
X120670112Y-92369819D02*
X120336779Y-91893628D01*
X120098684Y-92369819D02*
X120098684Y-91369819D01*
X120098684Y-91369819D02*
X120479636Y-91369819D01*
X120479636Y-91369819D02*
X120574874Y-91417438D01*
X120574874Y-91417438D02*
X120622493Y-91465057D01*
X120622493Y-91465057D02*
X120670112Y-91560295D01*
X120670112Y-91560295D02*
X120670112Y-91703152D01*
X120670112Y-91703152D02*
X120622493Y-91798390D01*
X120622493Y-91798390D02*
X120574874Y-91846009D01*
X120574874Y-91846009D02*
X120479636Y-91893628D01*
X120479636Y-91893628D02*
X120098684Y-91893628D01*
X121098684Y-92369819D02*
X121098684Y-91369819D01*
X122098683Y-91417438D02*
X122003445Y-91369819D01*
X122003445Y-91369819D02*
X121860588Y-91369819D01*
X121860588Y-91369819D02*
X121717731Y-91417438D01*
X121717731Y-91417438D02*
X121622493Y-91512676D01*
X121622493Y-91512676D02*
X121574874Y-91607914D01*
X121574874Y-91607914D02*
X121527255Y-91798390D01*
X121527255Y-91798390D02*
X121527255Y-91941247D01*
X121527255Y-91941247D02*
X121574874Y-92131723D01*
X121574874Y-92131723D02*
X121622493Y-92226961D01*
X121622493Y-92226961D02*
X121717731Y-92322200D01*
X121717731Y-92322200D02*
X121860588Y-92369819D01*
X121860588Y-92369819D02*
X121955826Y-92369819D01*
X121955826Y-92369819D02*
X122098683Y-92322200D01*
X122098683Y-92322200D02*
X122146302Y-92274580D01*
X122146302Y-92274580D02*
X122146302Y-91941247D01*
X122146302Y-91941247D02*
X121955826Y-91941247D01*
X123098683Y-91417438D02*
X123003445Y-91369819D01*
X123003445Y-91369819D02*
X122860588Y-91369819D01*
X122860588Y-91369819D02*
X122717731Y-91417438D01*
X122717731Y-91417438D02*
X122622493Y-91512676D01*
X122622493Y-91512676D02*
X122574874Y-91607914D01*
X122574874Y-91607914D02*
X122527255Y-91798390D01*
X122527255Y-91798390D02*
X122527255Y-91941247D01*
X122527255Y-91941247D02*
X122574874Y-92131723D01*
X122574874Y-92131723D02*
X122622493Y-92226961D01*
X122622493Y-92226961D02*
X122717731Y-92322200D01*
X122717731Y-92322200D02*
X122860588Y-92369819D01*
X122860588Y-92369819D02*
X122955826Y-92369819D01*
X122955826Y-92369819D02*
X123098683Y-92322200D01*
X123098683Y-92322200D02*
X123146302Y-92274580D01*
X123146302Y-92274580D02*
X123146302Y-91941247D01*
X123146302Y-91941247D02*
X122955826Y-91941247D01*
X123574874Y-91846009D02*
X123908207Y-91846009D01*
X124051064Y-92369819D02*
X123574874Y-92369819D01*
X123574874Y-92369819D02*
X123574874Y-91369819D01*
X123574874Y-91369819D02*
X124051064Y-91369819D01*
X125051064Y-92369819D02*
X124717731Y-91893628D01*
X124479636Y-92369819D02*
X124479636Y-91369819D01*
X124479636Y-91369819D02*
X124860588Y-91369819D01*
X124860588Y-91369819D02*
X124955826Y-91417438D01*
X124955826Y-91417438D02*
X125003445Y-91465057D01*
X125003445Y-91465057D02*
X125051064Y-91560295D01*
X125051064Y-91560295D02*
X125051064Y-91703152D01*
X125051064Y-91703152D02*
X125003445Y-91798390D01*
X125003445Y-91798390D02*
X124955826Y-91846009D01*
X124955826Y-91846009D02*
X124860588Y-91893628D01*
X124860588Y-91893628D02*
X124479636Y-91893628D01*
X118869819Y-82163220D02*
X117869819Y-82163220D01*
X117869819Y-82163220D02*
X118584104Y-81829887D01*
X118584104Y-81829887D02*
X117869819Y-81496554D01*
X117869819Y-81496554D02*
X118869819Y-81496554D01*
X117869819Y-80829887D02*
X117869819Y-80639411D01*
X117869819Y-80639411D02*
X117917438Y-80544173D01*
X117917438Y-80544173D02*
X118012676Y-80448935D01*
X118012676Y-80448935D02*
X118203152Y-80401316D01*
X118203152Y-80401316D02*
X118536485Y-80401316D01*
X118536485Y-80401316D02*
X118726961Y-80448935D01*
X118726961Y-80448935D02*
X118822200Y-80544173D01*
X118822200Y-80544173D02*
X118869819Y-80639411D01*
X118869819Y-80639411D02*
X118869819Y-80829887D01*
X118869819Y-80829887D02*
X118822200Y-80925125D01*
X118822200Y-80925125D02*
X118726961Y-81020363D01*
X118726961Y-81020363D02*
X118536485Y-81067982D01*
X118536485Y-81067982D02*
X118203152Y-81067982D01*
X118203152Y-81067982D02*
X118012676Y-81020363D01*
X118012676Y-81020363D02*
X117917438Y-80925125D01*
X117917438Y-80925125D02*
X117869819Y-80829887D01*
X117869819Y-80115601D02*
X117869819Y-79544173D01*
X118869819Y-79829887D02*
X117869819Y-79829887D01*
X117869819Y-79020363D02*
X117869819Y-78829887D01*
X117869819Y-78829887D02*
X117917438Y-78734649D01*
X117917438Y-78734649D02*
X118012676Y-78639411D01*
X118012676Y-78639411D02*
X118203152Y-78591792D01*
X118203152Y-78591792D02*
X118536485Y-78591792D01*
X118536485Y-78591792D02*
X118726961Y-78639411D01*
X118726961Y-78639411D02*
X118822200Y-78734649D01*
X118822200Y-78734649D02*
X118869819Y-78829887D01*
X118869819Y-78829887D02*
X118869819Y-79020363D01*
X118869819Y-79020363D02*
X118822200Y-79115601D01*
X118822200Y-79115601D02*
X118726961Y-79210839D01*
X118726961Y-79210839D02*
X118536485Y-79258458D01*
X118536485Y-79258458D02*
X118203152Y-79258458D01*
X118203152Y-79258458D02*
X118012676Y-79210839D01*
X118012676Y-79210839D02*
X117917438Y-79115601D01*
X117917438Y-79115601D02*
X117869819Y-79020363D01*
X118869819Y-77591792D02*
X118393628Y-77925125D01*
X118869819Y-78163220D02*
X117869819Y-78163220D01*
X117869819Y-78163220D02*
X117869819Y-77782268D01*
X117869819Y-77782268D02*
X117917438Y-77687030D01*
X117917438Y-77687030D02*
X117965057Y-77639411D01*
X117965057Y-77639411D02*
X118060295Y-77591792D01*
X118060295Y-77591792D02*
X118203152Y-77591792D01*
X118203152Y-77591792D02*
X118298390Y-77639411D01*
X118298390Y-77639411D02*
X118346009Y-77687030D01*
X118346009Y-77687030D02*
X118393628Y-77782268D01*
X118393628Y-77782268D02*
X118393628Y-78163220D01*
X118774580Y-75829887D02*
X118822200Y-75877506D01*
X118822200Y-75877506D02*
X118869819Y-76020363D01*
X118869819Y-76020363D02*
X118869819Y-76115601D01*
X118869819Y-76115601D02*
X118822200Y-76258458D01*
X118822200Y-76258458D02*
X118726961Y-76353696D01*
X118726961Y-76353696D02*
X118631723Y-76401315D01*
X118631723Y-76401315D02*
X118441247Y-76448934D01*
X118441247Y-76448934D02*
X118298390Y-76448934D01*
X118298390Y-76448934D02*
X118107914Y-76401315D01*
X118107914Y-76401315D02*
X118012676Y-76353696D01*
X118012676Y-76353696D02*
X117917438Y-76258458D01*
X117917438Y-76258458D02*
X117869819Y-76115601D01*
X117869819Y-76115601D02*
X117869819Y-76020363D01*
X117869819Y-76020363D02*
X117917438Y-75877506D01*
X117917438Y-75877506D02*
X117965057Y-75829887D01*
X117869819Y-75210839D02*
X117869819Y-75020363D01*
X117869819Y-75020363D02*
X117917438Y-74925125D01*
X117917438Y-74925125D02*
X118012676Y-74829887D01*
X118012676Y-74829887D02*
X118203152Y-74782268D01*
X118203152Y-74782268D02*
X118536485Y-74782268D01*
X118536485Y-74782268D02*
X118726961Y-74829887D01*
X118726961Y-74829887D02*
X118822200Y-74925125D01*
X118822200Y-74925125D02*
X118869819Y-75020363D01*
X118869819Y-75020363D02*
X118869819Y-75210839D01*
X118869819Y-75210839D02*
X118822200Y-75306077D01*
X118822200Y-75306077D02*
X118726961Y-75401315D01*
X118726961Y-75401315D02*
X118536485Y-75448934D01*
X118536485Y-75448934D02*
X118203152Y-75448934D01*
X118203152Y-75448934D02*
X118012676Y-75401315D01*
X118012676Y-75401315D02*
X117917438Y-75306077D01*
X117917438Y-75306077D02*
X117869819Y-75210839D01*
X118869819Y-74353696D02*
X117869819Y-74353696D01*
X117869819Y-74353696D02*
X118869819Y-73782268D01*
X118869819Y-73782268D02*
X117869819Y-73782268D01*
X117869819Y-73448934D02*
X117869819Y-72877506D01*
X118869819Y-73163220D02*
X117869819Y-73163220D01*
X118869819Y-71972744D02*
X118393628Y-72306077D01*
X118869819Y-72544172D02*
X117869819Y-72544172D01*
X117869819Y-72544172D02*
X117869819Y-72163220D01*
X117869819Y-72163220D02*
X117917438Y-72067982D01*
X117917438Y-72067982D02*
X117965057Y-72020363D01*
X117965057Y-72020363D02*
X118060295Y-71972744D01*
X118060295Y-71972744D02*
X118203152Y-71972744D01*
X118203152Y-71972744D02*
X118298390Y-72020363D01*
X118298390Y-72020363D02*
X118346009Y-72067982D01*
X118346009Y-72067982D02*
X118393628Y-72163220D01*
X118393628Y-72163220D02*
X118393628Y-72544172D01*
X117869819Y-71353696D02*
X117869819Y-71163220D01*
X117869819Y-71163220D02*
X117917438Y-71067982D01*
X117917438Y-71067982D02*
X118012676Y-70972744D01*
X118012676Y-70972744D02*
X118203152Y-70925125D01*
X118203152Y-70925125D02*
X118536485Y-70925125D01*
X118536485Y-70925125D02*
X118726961Y-70972744D01*
X118726961Y-70972744D02*
X118822200Y-71067982D01*
X118822200Y-71067982D02*
X118869819Y-71163220D01*
X118869819Y-71163220D02*
X118869819Y-71353696D01*
X118869819Y-71353696D02*
X118822200Y-71448934D01*
X118822200Y-71448934D02*
X118726961Y-71544172D01*
X118726961Y-71544172D02*
X118536485Y-71591791D01*
X118536485Y-71591791D02*
X118203152Y-71591791D01*
X118203152Y-71591791D02*
X118012676Y-71544172D01*
X118012676Y-71544172D02*
X117917438Y-71448934D01*
X117917438Y-71448934D02*
X117869819Y-71353696D01*
X118869819Y-70020363D02*
X118869819Y-70496553D01*
X118869819Y-70496553D02*
X117869819Y-70496553D01*
X118869819Y-69210839D02*
X118869819Y-69687029D01*
X118869819Y-69687029D02*
X117869819Y-69687029D01*
X118346009Y-68877505D02*
X118346009Y-68544172D01*
X118869819Y-68401315D02*
X118869819Y-68877505D01*
X118869819Y-68877505D02*
X117869819Y-68877505D01*
X117869819Y-68877505D02*
X117869819Y-68401315D01*
X118869819Y-67401315D02*
X118393628Y-67734648D01*
X118869819Y-67972743D02*
X117869819Y-67972743D01*
X117869819Y-67972743D02*
X117869819Y-67591791D01*
X117869819Y-67591791D02*
X117917438Y-67496553D01*
X117917438Y-67496553D02*
X117965057Y-67448934D01*
X117965057Y-67448934D02*
X118060295Y-67401315D01*
X118060295Y-67401315D02*
X118203152Y-67401315D01*
X118203152Y-67401315D02*
X118298390Y-67448934D01*
X118298390Y-67448934D02*
X118346009Y-67496553D01*
X118346009Y-67496553D02*
X118393628Y-67591791D01*
X118393628Y-67591791D02*
X118393628Y-67972743D01*
X117869819Y-66020362D02*
X117869819Y-65829886D01*
X117869819Y-65829886D02*
X117917438Y-65734648D01*
X117917438Y-65734648D02*
X118012676Y-65639410D01*
X118012676Y-65639410D02*
X118203152Y-65591791D01*
X118203152Y-65591791D02*
X118536485Y-65591791D01*
X118536485Y-65591791D02*
X118726961Y-65639410D01*
X118726961Y-65639410D02*
X118822200Y-65734648D01*
X118822200Y-65734648D02*
X118869819Y-65829886D01*
X118869819Y-65829886D02*
X118869819Y-66020362D01*
X118869819Y-66020362D02*
X118822200Y-66115600D01*
X118822200Y-66115600D02*
X118726961Y-66210838D01*
X118726961Y-66210838D02*
X118536485Y-66258457D01*
X118536485Y-66258457D02*
X118203152Y-66258457D01*
X118203152Y-66258457D02*
X118012676Y-66210838D01*
X118012676Y-66210838D02*
X117917438Y-66115600D01*
X117917438Y-66115600D02*
X117869819Y-66020362D01*
X117869819Y-65163219D02*
X118679342Y-65163219D01*
X118679342Y-65163219D02*
X118774580Y-65115600D01*
X118774580Y-65115600D02*
X118822200Y-65067981D01*
X118822200Y-65067981D02*
X118869819Y-64972743D01*
X118869819Y-64972743D02*
X118869819Y-64782267D01*
X118869819Y-64782267D02*
X118822200Y-64687029D01*
X118822200Y-64687029D02*
X118774580Y-64639410D01*
X118774580Y-64639410D02*
X118679342Y-64591791D01*
X118679342Y-64591791D02*
X117869819Y-64591791D01*
X117869819Y-64258457D02*
X117869819Y-63687029D01*
X118869819Y-63972743D02*
X117869819Y-63972743D01*
X85153990Y-68836779D02*
X85153990Y-69170112D01*
X84630180Y-69312969D02*
X84630180Y-68836779D01*
X84630180Y-68836779D02*
X85630180Y-68836779D01*
X85630180Y-68836779D02*
X85630180Y-69312969D01*
X84630180Y-69741541D02*
X85630180Y-69741541D01*
X85630180Y-69741541D02*
X84630180Y-70312969D01*
X84630180Y-70312969D02*
X85630180Y-70312969D01*
X84725419Y-71360588D02*
X84677800Y-71312969D01*
X84677800Y-71312969D02*
X84630180Y-71170112D01*
X84630180Y-71170112D02*
X84630180Y-71074874D01*
X84630180Y-71074874D02*
X84677800Y-70932017D01*
X84677800Y-70932017D02*
X84773038Y-70836779D01*
X84773038Y-70836779D02*
X84868276Y-70789160D01*
X84868276Y-70789160D02*
X85058752Y-70741541D01*
X85058752Y-70741541D02*
X85201609Y-70741541D01*
X85201609Y-70741541D02*
X85392085Y-70789160D01*
X85392085Y-70789160D02*
X85487323Y-70836779D01*
X85487323Y-70836779D02*
X85582561Y-70932017D01*
X85582561Y-70932017D02*
X85630180Y-71074874D01*
X85630180Y-71074874D02*
X85630180Y-71170112D01*
X85630180Y-71170112D02*
X85582561Y-71312969D01*
X85582561Y-71312969D02*
X85534942Y-71360588D01*
X85630180Y-71979636D02*
X85630180Y-72170112D01*
X85630180Y-72170112D02*
X85582561Y-72265350D01*
X85582561Y-72265350D02*
X85487323Y-72360588D01*
X85487323Y-72360588D02*
X85296847Y-72408207D01*
X85296847Y-72408207D02*
X84963514Y-72408207D01*
X84963514Y-72408207D02*
X84773038Y-72360588D01*
X84773038Y-72360588D02*
X84677800Y-72265350D01*
X84677800Y-72265350D02*
X84630180Y-72170112D01*
X84630180Y-72170112D02*
X84630180Y-71979636D01*
X84630180Y-71979636D02*
X84677800Y-71884398D01*
X84677800Y-71884398D02*
X84773038Y-71789160D01*
X84773038Y-71789160D02*
X84963514Y-71741541D01*
X84963514Y-71741541D02*
X85296847Y-71741541D01*
X85296847Y-71741541D02*
X85487323Y-71789160D01*
X85487323Y-71789160D02*
X85582561Y-71884398D01*
X85582561Y-71884398D02*
X85630180Y-71979636D01*
X84630180Y-72836779D02*
X85630180Y-72836779D01*
X85630180Y-72836779D02*
X85630180Y-73074874D01*
X85630180Y-73074874D02*
X85582561Y-73217731D01*
X85582561Y-73217731D02*
X85487323Y-73312969D01*
X85487323Y-73312969D02*
X85392085Y-73360588D01*
X85392085Y-73360588D02*
X85201609Y-73408207D01*
X85201609Y-73408207D02*
X85058752Y-73408207D01*
X85058752Y-73408207D02*
X84868276Y-73360588D01*
X84868276Y-73360588D02*
X84773038Y-73312969D01*
X84773038Y-73312969D02*
X84677800Y-73217731D01*
X84677800Y-73217731D02*
X84630180Y-73074874D01*
X84630180Y-73074874D02*
X84630180Y-72836779D01*
X85153990Y-73836779D02*
X85153990Y-74170112D01*
X84630180Y-74312969D02*
X84630180Y-73836779D01*
X84630180Y-73836779D02*
X85630180Y-73836779D01*
X85630180Y-73836779D02*
X85630180Y-74312969D01*
X84630180Y-75312969D02*
X85106371Y-74979636D01*
X84630180Y-74741541D02*
X85630180Y-74741541D01*
X85630180Y-74741541D02*
X85630180Y-75122493D01*
X85630180Y-75122493D02*
X85582561Y-75217731D01*
X85582561Y-75217731D02*
X85534942Y-75265350D01*
X85534942Y-75265350D02*
X85439704Y-75312969D01*
X85439704Y-75312969D02*
X85296847Y-75312969D01*
X85296847Y-75312969D02*
X85201609Y-75265350D01*
X85201609Y-75265350D02*
X85153990Y-75217731D01*
X85153990Y-75217731D02*
X85106371Y-75122493D01*
X85106371Y-75122493D02*
X85106371Y-74741541D01*
X84630180Y-76503446D02*
X85630180Y-76503446D01*
X84630180Y-76979636D02*
X85630180Y-76979636D01*
X85630180Y-76979636D02*
X84630180Y-77551064D01*
X84630180Y-77551064D02*
X85630180Y-77551064D01*
X121661666Y-65034819D02*
X121661666Y-65749104D01*
X121661666Y-65749104D02*
X121614047Y-65891961D01*
X121614047Y-65891961D02*
X121518809Y-65987200D01*
X121518809Y-65987200D02*
X121375952Y-66034819D01*
X121375952Y-66034819D02*
X121280714Y-66034819D01*
X122090238Y-65130057D02*
X122137857Y-65082438D01*
X122137857Y-65082438D02*
X122233095Y-65034819D01*
X122233095Y-65034819D02*
X122471190Y-65034819D01*
X122471190Y-65034819D02*
X122566428Y-65082438D01*
X122566428Y-65082438D02*
X122614047Y-65130057D01*
X122614047Y-65130057D02*
X122661666Y-65225295D01*
X122661666Y-65225295D02*
X122661666Y-65320533D01*
X122661666Y-65320533D02*
X122614047Y-65463390D01*
X122614047Y-65463390D02*
X122042619Y-66034819D01*
X122042619Y-66034819D02*
X122661666Y-66034819D01*
X122166666Y-83299819D02*
X122166666Y-84014104D01*
X122166666Y-84014104D02*
X122119047Y-84156961D01*
X122119047Y-84156961D02*
X122023809Y-84252200D01*
X122023809Y-84252200D02*
X121880952Y-84299819D01*
X121880952Y-84299819D02*
X121785714Y-84299819D01*
X123071428Y-83633152D02*
X123071428Y-84299819D01*
X122833333Y-83252200D02*
X122595238Y-83966485D01*
X122595238Y-83966485D02*
X123214285Y-83966485D01*
X122166666Y-63454819D02*
X122166666Y-64169104D01*
X122166666Y-64169104D02*
X122119047Y-64311961D01*
X122119047Y-64311961D02*
X122023809Y-64407200D01*
X122023809Y-64407200D02*
X121880952Y-64454819D01*
X121880952Y-64454819D02*
X121785714Y-64454819D01*
X122547619Y-63454819D02*
X123166666Y-63454819D01*
X123166666Y-63454819D02*
X122833333Y-63835771D01*
X122833333Y-63835771D02*
X122976190Y-63835771D01*
X122976190Y-63835771D02*
X123071428Y-63883390D01*
X123071428Y-63883390D02*
X123119047Y-63931009D01*
X123119047Y-63931009D02*
X123166666Y-64026247D01*
X123166666Y-64026247D02*
X123166666Y-64264342D01*
X123166666Y-64264342D02*
X123119047Y-64359580D01*
X123119047Y-64359580D02*
X123071428Y-64407200D01*
X123071428Y-64407200D02*
X122976190Y-64454819D01*
X122976190Y-64454819D02*
X122690476Y-64454819D01*
X122690476Y-64454819D02*
X122595238Y-64407200D01*
X122595238Y-64407200D02*
X122547619Y-64359580D01*
X119761905Y-41454819D02*
X119761905Y-40454819D01*
X119761905Y-40454819D02*
X120000000Y-40454819D01*
X120000000Y-40454819D02*
X120142857Y-40502438D01*
X120142857Y-40502438D02*
X120238095Y-40597676D01*
X120238095Y-40597676D02*
X120285714Y-40692914D01*
X120285714Y-40692914D02*
X120333333Y-40883390D01*
X120333333Y-40883390D02*
X120333333Y-41026247D01*
X120333333Y-41026247D02*
X120285714Y-41216723D01*
X120285714Y-41216723D02*
X120238095Y-41311961D01*
X120238095Y-41311961D02*
X120142857Y-41407200D01*
X120142857Y-41407200D02*
X120000000Y-41454819D01*
X120000000Y-41454819D02*
X119761905Y-41454819D01*
X121285714Y-41454819D02*
X120714286Y-41454819D01*
X121000000Y-41454819D02*
X121000000Y-40454819D01*
X121000000Y-40454819D02*
X120904762Y-40597676D01*
X120904762Y-40597676D02*
X120809524Y-40692914D01*
X120809524Y-40692914D02*
X120714286Y-40740533D01*
X87880952Y-42073866D02*
X88642857Y-42073866D01*
X88261904Y-42454819D02*
X88261904Y-41692914D01*
X89023809Y-41454819D02*
X89642856Y-41454819D01*
X89642856Y-41454819D02*
X89309523Y-41835771D01*
X89309523Y-41835771D02*
X89452380Y-41835771D01*
X89452380Y-41835771D02*
X89547618Y-41883390D01*
X89547618Y-41883390D02*
X89595237Y-41931009D01*
X89595237Y-41931009D02*
X89642856Y-42026247D01*
X89642856Y-42026247D02*
X89642856Y-42264342D01*
X89642856Y-42264342D02*
X89595237Y-42359580D01*
X89595237Y-42359580D02*
X89547618Y-42407200D01*
X89547618Y-42407200D02*
X89452380Y-42454819D01*
X89452380Y-42454819D02*
X89166666Y-42454819D01*
X89166666Y-42454819D02*
X89071428Y-42407200D01*
X89071428Y-42407200D02*
X89023809Y-42359580D01*
X89928571Y-41454819D02*
X90261904Y-42454819D01*
X90261904Y-42454819D02*
X90595237Y-41454819D01*
X90833333Y-41454819D02*
X91452380Y-41454819D01*
X91452380Y-41454819D02*
X91119047Y-41835771D01*
X91119047Y-41835771D02*
X91261904Y-41835771D01*
X91261904Y-41835771D02*
X91357142Y-41883390D01*
X91357142Y-41883390D02*
X91404761Y-41931009D01*
X91404761Y-41931009D02*
X91452380Y-42026247D01*
X91452380Y-42026247D02*
X91452380Y-42264342D01*
X91452380Y-42264342D02*
X91404761Y-42359580D01*
X91404761Y-42359580D02*
X91357142Y-42407200D01*
X91357142Y-42407200D02*
X91261904Y-42454819D01*
X91261904Y-42454819D02*
X90976190Y-42454819D01*
X90976190Y-42454819D02*
X90880952Y-42407200D01*
X90880952Y-42407200D02*
X90833333Y-42359580D01*
X91642857Y-42550057D02*
X92404761Y-42550057D01*
X93166666Y-42454819D02*
X92595238Y-42454819D01*
X92880952Y-42454819D02*
X92880952Y-41454819D01*
X92880952Y-41454819D02*
X92785714Y-41597676D01*
X92785714Y-41597676D02*
X92690476Y-41692914D01*
X92690476Y-41692914D02*
X92595238Y-41740533D01*
X79133333Y-56659580D02*
X79085714Y-56707200D01*
X79085714Y-56707200D02*
X78942857Y-56754819D01*
X78942857Y-56754819D02*
X78847619Y-56754819D01*
X78847619Y-56754819D02*
X78704762Y-56707200D01*
X78704762Y-56707200D02*
X78609524Y-56611961D01*
X78609524Y-56611961D02*
X78561905Y-56516723D01*
X78561905Y-56516723D02*
X78514286Y-56326247D01*
X78514286Y-56326247D02*
X78514286Y-56183390D01*
X78514286Y-56183390D02*
X78561905Y-55992914D01*
X78561905Y-55992914D02*
X78609524Y-55897676D01*
X78609524Y-55897676D02*
X78704762Y-55802438D01*
X78704762Y-55802438D02*
X78847619Y-55754819D01*
X78847619Y-55754819D02*
X78942857Y-55754819D01*
X78942857Y-55754819D02*
X79085714Y-55802438D01*
X79085714Y-55802438D02*
X79133333Y-55850057D01*
X79990476Y-56088152D02*
X79990476Y-56754819D01*
X79752381Y-55707200D02*
X79514286Y-56421485D01*
X79514286Y-56421485D02*
X80133333Y-56421485D01*
X82133333Y-43659580D02*
X82085714Y-43707200D01*
X82085714Y-43707200D02*
X81942857Y-43754819D01*
X81942857Y-43754819D02*
X81847619Y-43754819D01*
X81847619Y-43754819D02*
X81704762Y-43707200D01*
X81704762Y-43707200D02*
X81609524Y-43611961D01*
X81609524Y-43611961D02*
X81561905Y-43516723D01*
X81561905Y-43516723D02*
X81514286Y-43326247D01*
X81514286Y-43326247D02*
X81514286Y-43183390D01*
X81514286Y-43183390D02*
X81561905Y-42992914D01*
X81561905Y-42992914D02*
X81609524Y-42897676D01*
X81609524Y-42897676D02*
X81704762Y-42802438D01*
X81704762Y-42802438D02*
X81847619Y-42754819D01*
X81847619Y-42754819D02*
X81942857Y-42754819D01*
X81942857Y-42754819D02*
X82085714Y-42802438D01*
X82085714Y-42802438D02*
X82133333Y-42850057D01*
X82466667Y-42754819D02*
X83085714Y-42754819D01*
X83085714Y-42754819D02*
X82752381Y-43135771D01*
X82752381Y-43135771D02*
X82895238Y-43135771D01*
X82895238Y-43135771D02*
X82990476Y-43183390D01*
X82990476Y-43183390D02*
X83038095Y-43231009D01*
X83038095Y-43231009D02*
X83085714Y-43326247D01*
X83085714Y-43326247D02*
X83085714Y-43564342D01*
X83085714Y-43564342D02*
X83038095Y-43659580D01*
X83038095Y-43659580D02*
X82990476Y-43707200D01*
X82990476Y-43707200D02*
X82895238Y-43754819D01*
X82895238Y-43754819D02*
X82609524Y-43754819D01*
X82609524Y-43754819D02*
X82514286Y-43707200D01*
X82514286Y-43707200D02*
X82466667Y-43659580D01*
X79133333Y-52754819D02*
X78800000Y-52278628D01*
X78561905Y-52754819D02*
X78561905Y-51754819D01*
X78561905Y-51754819D02*
X78942857Y-51754819D01*
X78942857Y-51754819D02*
X79038095Y-51802438D01*
X79038095Y-51802438D02*
X79085714Y-51850057D01*
X79085714Y-51850057D02*
X79133333Y-51945295D01*
X79133333Y-51945295D02*
X79133333Y-52088152D01*
X79133333Y-52088152D02*
X79085714Y-52183390D01*
X79085714Y-52183390D02*
X79038095Y-52231009D01*
X79038095Y-52231009D02*
X78942857Y-52278628D01*
X78942857Y-52278628D02*
X78561905Y-52278628D01*
X79514286Y-51850057D02*
X79561905Y-51802438D01*
X79561905Y-51802438D02*
X79657143Y-51754819D01*
X79657143Y-51754819D02*
X79895238Y-51754819D01*
X79895238Y-51754819D02*
X79990476Y-51802438D01*
X79990476Y-51802438D02*
X80038095Y-51850057D01*
X80038095Y-51850057D02*
X80085714Y-51945295D01*
X80085714Y-51945295D02*
X80085714Y-52040533D01*
X80085714Y-52040533D02*
X80038095Y-52183390D01*
X80038095Y-52183390D02*
X79466667Y-52754819D01*
X79466667Y-52754819D02*
X80085714Y-52754819D01*
X85738095Y-45054819D02*
X85738095Y-45864342D01*
X85738095Y-45864342D02*
X85785714Y-45959580D01*
X85785714Y-45959580D02*
X85833333Y-46007200D01*
X85833333Y-46007200D02*
X85928571Y-46054819D01*
X85928571Y-46054819D02*
X86119047Y-46054819D01*
X86119047Y-46054819D02*
X86214285Y-46007200D01*
X86214285Y-46007200D02*
X86261904Y-45959580D01*
X86261904Y-45959580D02*
X86309523Y-45864342D01*
X86309523Y-45864342D02*
X86309523Y-45054819D01*
X87309523Y-46054819D02*
X86738095Y-46054819D01*
X87023809Y-46054819D02*
X87023809Y-45054819D01*
X87023809Y-45054819D02*
X86928571Y-45197676D01*
X86928571Y-45197676D02*
X86833333Y-45292914D01*
X86833333Y-45292914D02*
X86738095Y-45340533D01*
X79133333Y-48354819D02*
X78800000Y-47878628D01*
X78561905Y-48354819D02*
X78561905Y-47354819D01*
X78561905Y-47354819D02*
X78942857Y-47354819D01*
X78942857Y-47354819D02*
X79038095Y-47402438D01*
X79038095Y-47402438D02*
X79085714Y-47450057D01*
X79085714Y-47450057D02*
X79133333Y-47545295D01*
X79133333Y-47545295D02*
X79133333Y-47688152D01*
X79133333Y-47688152D02*
X79085714Y-47783390D01*
X79085714Y-47783390D02*
X79038095Y-47831009D01*
X79038095Y-47831009D02*
X78942857Y-47878628D01*
X78942857Y-47878628D02*
X78561905Y-47878628D01*
X80085714Y-48354819D02*
X79514286Y-48354819D01*
X79800000Y-48354819D02*
X79800000Y-47354819D01*
X79800000Y-47354819D02*
X79704762Y-47497676D01*
X79704762Y-47497676D02*
X79609524Y-47592914D01*
X79609524Y-47592914D02*
X79514286Y-47640533D01*
X89880952Y-79002438D02*
X89785714Y-78954819D01*
X89785714Y-78954819D02*
X89642857Y-78954819D01*
X89642857Y-78954819D02*
X89500000Y-79002438D01*
X89500000Y-79002438D02*
X89404762Y-79097676D01*
X89404762Y-79097676D02*
X89357143Y-79192914D01*
X89357143Y-79192914D02*
X89309524Y-79383390D01*
X89309524Y-79383390D02*
X89309524Y-79526247D01*
X89309524Y-79526247D02*
X89357143Y-79716723D01*
X89357143Y-79716723D02*
X89404762Y-79811961D01*
X89404762Y-79811961D02*
X89500000Y-79907200D01*
X89500000Y-79907200D02*
X89642857Y-79954819D01*
X89642857Y-79954819D02*
X89738095Y-79954819D01*
X89738095Y-79954819D02*
X89880952Y-79907200D01*
X89880952Y-79907200D02*
X89928571Y-79859580D01*
X89928571Y-79859580D02*
X89928571Y-79526247D01*
X89928571Y-79526247D02*
X89738095Y-79526247D01*
X90357143Y-79954819D02*
X90357143Y-78954819D01*
X90357143Y-78954819D02*
X90928571Y-79954819D01*
X90928571Y-79954819D02*
X90928571Y-78954819D01*
X91404762Y-79954819D02*
X91404762Y-78954819D01*
X91404762Y-78954819D02*
X91642857Y-78954819D01*
X91642857Y-78954819D02*
X91785714Y-79002438D01*
X91785714Y-79002438D02*
X91880952Y-79097676D01*
X91880952Y-79097676D02*
X91928571Y-79192914D01*
X91928571Y-79192914D02*
X91976190Y-79383390D01*
X91976190Y-79383390D02*
X91976190Y-79526247D01*
X91976190Y-79526247D02*
X91928571Y-79716723D01*
X91928571Y-79716723D02*
X91880952Y-79811961D01*
X91880952Y-79811961D02*
X91785714Y-79907200D01*
X91785714Y-79907200D02*
X91642857Y-79954819D01*
X91642857Y-79954819D02*
X91404762Y-79954819D01*
X92166667Y-80050057D02*
X92928571Y-80050057D01*
X93690476Y-79954819D02*
X93119048Y-79954819D01*
X93404762Y-79954819D02*
X93404762Y-78954819D01*
X93404762Y-78954819D02*
X93309524Y-79097676D01*
X93309524Y-79097676D02*
X93214286Y-79192914D01*
X93214286Y-79192914D02*
X93119048Y-79240533D01*
X91333333Y-51859580D02*
X91285714Y-51907200D01*
X91285714Y-51907200D02*
X91142857Y-51954819D01*
X91142857Y-51954819D02*
X91047619Y-51954819D01*
X91047619Y-51954819D02*
X90904762Y-51907200D01*
X90904762Y-51907200D02*
X90809524Y-51811961D01*
X90809524Y-51811961D02*
X90761905Y-51716723D01*
X90761905Y-51716723D02*
X90714286Y-51526247D01*
X90714286Y-51526247D02*
X90714286Y-51383390D01*
X90714286Y-51383390D02*
X90761905Y-51192914D01*
X90761905Y-51192914D02*
X90809524Y-51097676D01*
X90809524Y-51097676D02*
X90904762Y-51002438D01*
X90904762Y-51002438D02*
X91047619Y-50954819D01*
X91047619Y-50954819D02*
X91142857Y-50954819D01*
X91142857Y-50954819D02*
X91285714Y-51002438D01*
X91285714Y-51002438D02*
X91333333Y-51050057D01*
X92285714Y-51954819D02*
X91714286Y-51954819D01*
X92000000Y-51954819D02*
X92000000Y-50954819D01*
X92000000Y-50954819D02*
X91904762Y-51097676D01*
X91904762Y-51097676D02*
X91809524Y-51192914D01*
X91809524Y-51192914D02*
X91714286Y-51240533D01*
X116789160Y-92169104D02*
X117265350Y-92169104D01*
X116693922Y-92454819D02*
X117027255Y-91454819D01*
X117027255Y-91454819D02*
X117360588Y-92454819D01*
X118217731Y-92454819D02*
X117646303Y-92454819D01*
X117932017Y-92454819D02*
X117932017Y-91454819D01*
X117932017Y-91454819D02*
X117836779Y-91597676D01*
X117836779Y-91597676D02*
X117741541Y-91692914D01*
X117741541Y-91692914D02*
X117646303Y-91740533D01*
X90333333Y-60659580D02*
X90285714Y-60707200D01*
X90285714Y-60707200D02*
X90142857Y-60754819D01*
X90142857Y-60754819D02*
X90047619Y-60754819D01*
X90047619Y-60754819D02*
X89904762Y-60707200D01*
X89904762Y-60707200D02*
X89809524Y-60611961D01*
X89809524Y-60611961D02*
X89761905Y-60516723D01*
X89761905Y-60516723D02*
X89714286Y-60326247D01*
X89714286Y-60326247D02*
X89714286Y-60183390D01*
X89714286Y-60183390D02*
X89761905Y-59992914D01*
X89761905Y-59992914D02*
X89809524Y-59897676D01*
X89809524Y-59897676D02*
X89904762Y-59802438D01*
X89904762Y-59802438D02*
X90047619Y-59754819D01*
X90047619Y-59754819D02*
X90142857Y-59754819D01*
X90142857Y-59754819D02*
X90285714Y-59802438D01*
X90285714Y-59802438D02*
X90333333Y-59850057D01*
X91238095Y-59754819D02*
X90761905Y-59754819D01*
X90761905Y-59754819D02*
X90714286Y-60231009D01*
X90714286Y-60231009D02*
X90761905Y-60183390D01*
X90761905Y-60183390D02*
X90857143Y-60135771D01*
X90857143Y-60135771D02*
X91095238Y-60135771D01*
X91095238Y-60135771D02*
X91190476Y-60183390D01*
X91190476Y-60183390D02*
X91238095Y-60231009D01*
X91238095Y-60231009D02*
X91285714Y-60326247D01*
X91285714Y-60326247D02*
X91285714Y-60564342D01*
X91285714Y-60564342D02*
X91238095Y-60659580D01*
X91238095Y-60659580D02*
X91190476Y-60707200D01*
X91190476Y-60707200D02*
X91095238Y-60754819D01*
X91095238Y-60754819D02*
X90857143Y-60754819D01*
X90857143Y-60754819D02*
X90761905Y-60707200D01*
X90761905Y-60707200D02*
X90714286Y-60659580D01*
X93333333Y-55954819D02*
X93000000Y-55478628D01*
X92761905Y-55954819D02*
X92761905Y-54954819D01*
X92761905Y-54954819D02*
X93142857Y-54954819D01*
X93142857Y-54954819D02*
X93238095Y-55002438D01*
X93238095Y-55002438D02*
X93285714Y-55050057D01*
X93285714Y-55050057D02*
X93333333Y-55145295D01*
X93333333Y-55145295D02*
X93333333Y-55288152D01*
X93333333Y-55288152D02*
X93285714Y-55383390D01*
X93285714Y-55383390D02*
X93238095Y-55431009D01*
X93238095Y-55431009D02*
X93142857Y-55478628D01*
X93142857Y-55478628D02*
X92761905Y-55478628D01*
X93666667Y-54954819D02*
X94285714Y-54954819D01*
X94285714Y-54954819D02*
X93952381Y-55335771D01*
X93952381Y-55335771D02*
X94095238Y-55335771D01*
X94095238Y-55335771D02*
X94190476Y-55383390D01*
X94190476Y-55383390D02*
X94238095Y-55431009D01*
X94238095Y-55431009D02*
X94285714Y-55526247D01*
X94285714Y-55526247D02*
X94285714Y-55764342D01*
X94285714Y-55764342D02*
X94238095Y-55859580D01*
X94238095Y-55859580D02*
X94190476Y-55907200D01*
X94190476Y-55907200D02*
X94095238Y-55954819D01*
X94095238Y-55954819D02*
X93809524Y-55954819D01*
X93809524Y-55954819D02*
X93714286Y-55907200D01*
X93714286Y-55907200D02*
X93666667Y-55859580D01*
X119380952Y-56073866D02*
X120142857Y-56073866D01*
X119761904Y-56454819D02*
X119761904Y-55692914D01*
X121095237Y-55454819D02*
X120619047Y-55454819D01*
X120619047Y-55454819D02*
X120571428Y-55931009D01*
X120571428Y-55931009D02*
X120619047Y-55883390D01*
X120619047Y-55883390D02*
X120714285Y-55835771D01*
X120714285Y-55835771D02*
X120952380Y-55835771D01*
X120952380Y-55835771D02*
X121047618Y-55883390D01*
X121047618Y-55883390D02*
X121095237Y-55931009D01*
X121095237Y-55931009D02*
X121142856Y-56026247D01*
X121142856Y-56026247D02*
X121142856Y-56264342D01*
X121142856Y-56264342D02*
X121095237Y-56359580D01*
X121095237Y-56359580D02*
X121047618Y-56407200D01*
X121047618Y-56407200D02*
X120952380Y-56454819D01*
X120952380Y-56454819D02*
X120714285Y-56454819D01*
X120714285Y-56454819D02*
X120619047Y-56407200D01*
X120619047Y-56407200D02*
X120571428Y-56359580D01*
X121428571Y-55454819D02*
X121761904Y-56454819D01*
X121761904Y-56454819D02*
X122095237Y-55454819D01*
X122190476Y-56550057D02*
X122952380Y-56550057D01*
X123142857Y-56407200D02*
X123285714Y-56454819D01*
X123285714Y-56454819D02*
X123523809Y-56454819D01*
X123523809Y-56454819D02*
X123619047Y-56407200D01*
X123619047Y-56407200D02*
X123666666Y-56359580D01*
X123666666Y-56359580D02*
X123714285Y-56264342D01*
X123714285Y-56264342D02*
X123714285Y-56169104D01*
X123714285Y-56169104D02*
X123666666Y-56073866D01*
X123666666Y-56073866D02*
X123619047Y-56026247D01*
X123619047Y-56026247D02*
X123523809Y-55978628D01*
X123523809Y-55978628D02*
X123333333Y-55931009D01*
X123333333Y-55931009D02*
X123238095Y-55883390D01*
X123238095Y-55883390D02*
X123190476Y-55835771D01*
X123190476Y-55835771D02*
X123142857Y-55740533D01*
X123142857Y-55740533D02*
X123142857Y-55645295D01*
X123142857Y-55645295D02*
X123190476Y-55550057D01*
X123190476Y-55550057D02*
X123238095Y-55502438D01*
X123238095Y-55502438D02*
X123333333Y-55454819D01*
X123333333Y-55454819D02*
X123571428Y-55454819D01*
X123571428Y-55454819D02*
X123714285Y-55502438D01*
X124666666Y-56454819D02*
X124095238Y-56454819D01*
X124380952Y-56454819D02*
X124380952Y-55454819D01*
X124380952Y-55454819D02*
X124285714Y-55597676D01*
X124285714Y-55597676D02*
X124190476Y-55692914D01*
X124190476Y-55692914D02*
X124095238Y-55740533D01*
X80896666Y-79954819D02*
X80896666Y-80669104D01*
X80896666Y-80669104D02*
X80849047Y-80811961D01*
X80849047Y-80811961D02*
X80753809Y-80907200D01*
X80753809Y-80907200D02*
X80610952Y-80954819D01*
X80610952Y-80954819D02*
X80515714Y-80954819D01*
X81896666Y-80954819D02*
X81325238Y-80954819D01*
X81610952Y-80954819D02*
X81610952Y-79954819D01*
X81610952Y-79954819D02*
X81515714Y-80097676D01*
X81515714Y-80097676D02*
X81420476Y-80192914D01*
X81420476Y-80192914D02*
X81325238Y-80240533D01*
%TO.C,J2*%
D12*
X124645000Y-66580000D02*
X124645000Y-79500000D01*
X121995000Y-69230000D02*
X121995000Y-66580000D01*
X121995000Y-66580000D02*
X124645000Y-66580000D01*
X119345000Y-79500000D02*
X124645000Y-79500000D01*
X119345000Y-69230000D02*
X121995000Y-69230000D01*
X119345000Y-69230000D02*
X119345000Y-79500000D01*
X119345000Y-67960000D02*
X119345000Y-66580000D01*
X119345000Y-66580000D02*
X120725000Y-66580000D01*
%TO.C,J4*%
X121120000Y-84845000D02*
X122500000Y-84845000D01*
X121120000Y-86225000D02*
X121120000Y-84845000D01*
X121120000Y-87495000D02*
X121120000Y-90145000D01*
X121120000Y-87495000D02*
X123880000Y-87495000D01*
X121120000Y-90145000D02*
X123880000Y-90145000D01*
X123880000Y-87495000D02*
X123880000Y-90145000D01*
%TO.C,J3*%
X121120000Y-57845000D02*
X122500000Y-57845000D01*
X121120000Y-59225000D02*
X121120000Y-57845000D01*
X121120000Y-60495000D02*
X121120000Y-63145000D01*
X121120000Y-60495000D02*
X123880000Y-60495000D01*
X121120000Y-63145000D02*
X123880000Y-63145000D01*
X123880000Y-60495000D02*
X123880000Y-63145000D01*
%TO.C,D1*%
X118850000Y-41990000D02*
X118850000Y-49000000D01*
X122150000Y-41990000D02*
X118850000Y-41990000D01*
X122150000Y-41990000D02*
X122150000Y-49000000D01*
%TO.C,+3V3_1*%
X92800000Y-44500000D02*
G75*
G02*
X90200000Y-44500000I-1300000J0D01*
G01*
X90200000Y-44500000D02*
G75*
G02*
X92800000Y-44500000I1300000J0D01*
G01*
%TO.C,C4*%
X80565000Y-56761252D02*
X80565000Y-56238748D01*
X82035000Y-56761252D02*
X82035000Y-56238748D01*
%TO.C,C3*%
X82561252Y-44165000D02*
X82038748Y-44165000D01*
X82561252Y-45635000D02*
X82038748Y-45635000D01*
%TO.C,R2*%
X80565000Y-52527064D02*
X80565000Y-52072936D01*
X82035000Y-52527064D02*
X82035000Y-52072936D01*
%TO.C,U1*%
X84440000Y-46440000D02*
X88560000Y-46440000D01*
X84440000Y-46495000D02*
X84440000Y-46440000D01*
X84440000Y-56560000D02*
X84440000Y-56505000D01*
X88560000Y-46440000D02*
X88560000Y-46495000D01*
X88560000Y-56505000D02*
X88560000Y-56560000D01*
X88560000Y-56560000D02*
X84440000Y-56560000D01*
X83900000Y-46490000D02*
X83660000Y-46160000D01*
X84140000Y-46160000D01*
X83900000Y-46490000D01*
G36*
X83900000Y-46490000D02*
G01*
X83660000Y-46160000D01*
X84140000Y-46160000D01*
X83900000Y-46490000D01*
G37*
%TO.C,R1*%
X80565000Y-47872936D02*
X80565000Y-48327064D01*
X82035000Y-47872936D02*
X82035000Y-48327064D01*
%TO.C,GND_1*%
X92800000Y-77000000D02*
G75*
G02*
X90200000Y-77000000I-1300000J0D01*
G01*
X90200000Y-77000000D02*
G75*
G02*
X92800000Y-77000000I1300000J0D01*
G01*
%TO.C,C1*%
X90865000Y-48738748D02*
X90865000Y-49261252D01*
X92335000Y-48738748D02*
X92335000Y-49261252D01*
%TO.C,A1*%
X95165000Y-42700000D02*
X94685000Y-42700000D01*
X95165000Y-42700000D02*
X95165000Y-43120000D01*
X95165000Y-45240000D02*
X95165000Y-45660000D01*
X95165000Y-47780000D02*
X95165000Y-48200000D01*
X95165000Y-50320000D02*
X95165000Y-50740000D01*
X95165000Y-52860000D02*
X95165000Y-53280000D01*
X95165000Y-55400000D02*
X95165000Y-55820000D01*
X95165000Y-57940000D02*
X95165000Y-58360000D01*
X95165000Y-60480000D02*
X95165000Y-60900000D01*
X95165000Y-63020000D02*
X95165000Y-63440000D01*
X95165000Y-65560000D02*
X95165000Y-65980000D01*
X95165000Y-68100000D02*
X95165000Y-68520000D01*
X95165000Y-70640000D02*
X95165000Y-71060000D01*
X95165000Y-73180000D02*
X95165000Y-73600000D01*
X95165000Y-75720000D02*
X95165000Y-76140000D01*
X95165000Y-78260000D02*
X95165000Y-78680000D01*
X95165000Y-80800000D02*
X95165000Y-81220000D01*
X95165000Y-83340000D02*
X95165000Y-83760000D01*
X95165000Y-85880000D02*
X95165000Y-86300000D01*
X95165000Y-88420000D02*
X95165000Y-88840000D01*
X95195324Y-40580000D02*
X94685000Y-40580000D01*
X95505000Y-40580063D02*
X95505000Y-40223000D01*
X95505000Y-42700000D02*
X95505000Y-43120000D01*
X95505000Y-45240000D02*
X95505000Y-45660000D01*
X95505000Y-47780000D02*
X95505000Y-48200000D01*
X95505000Y-50320000D02*
X95505000Y-50740000D01*
X95505000Y-52860000D02*
X95505000Y-53280000D01*
X95505000Y-55400000D02*
X95505000Y-55820000D01*
X95505000Y-57940000D02*
X95505000Y-58360000D01*
X95505000Y-60480000D02*
X95505000Y-60900000D01*
X95505000Y-63020000D02*
X95505000Y-63440000D01*
X95505000Y-65560000D02*
X95505000Y-65980000D01*
X95505000Y-68100000D02*
X95505000Y-68520000D01*
X95505000Y-70640000D02*
X95505000Y-71060000D01*
X95505000Y-73180000D02*
X95505000Y-73600000D01*
X95505000Y-75720000D02*
X95505000Y-76140000D01*
X95505000Y-78260000D02*
X95505000Y-78680000D01*
X95505000Y-80800000D02*
X95505000Y-81220000D01*
X95505000Y-83340000D02*
X95505000Y-83760000D01*
X95505000Y-85880000D02*
X95505000Y-86300000D01*
X95505000Y-88420000D02*
X95505000Y-88840000D01*
X95505000Y-90959937D02*
X95505000Y-91317000D01*
X95775000Y-40160000D02*
X98265000Y-40160000D01*
X95775000Y-91380000D02*
X99612939Y-91380000D01*
X98265000Y-40160000D02*
X98265000Y-41073520D01*
X98265000Y-40160000D02*
X99612940Y-40160000D01*
X98265000Y-43466480D02*
X98265000Y-88073520D01*
X98265000Y-90466480D02*
X98265000Y-91380000D01*
X100537061Y-40160000D02*
X101540000Y-40160000D01*
X101540000Y-40160000D02*
X110010000Y-40160000D01*
X101875000Y-40160000D02*
X101875000Y-41076000D01*
X101875000Y-43464000D02*
X101875000Y-44680000D01*
X101875000Y-44680000D02*
X102171090Y-44680000D01*
X102175000Y-91380000D02*
X100537061Y-91380000D01*
X104528910Y-44680000D02*
X107021090Y-44680000D01*
X109375000Y-91380000D02*
X102175000Y-91380000D01*
X109378910Y-44680000D02*
X109675000Y-44680000D01*
X109675000Y-40160000D02*
X109675000Y-41076000D01*
X109675000Y-43464000D02*
X109675000Y-44680000D01*
X110010000Y-40160000D02*
X111012939Y-40160000D01*
X111012939Y-91380000D02*
X109375000Y-91380000D01*
X111937061Y-40160000D02*
X113285000Y-40160000D01*
X111937061Y-91380000D02*
X115775000Y-91380000D01*
X113285000Y-40160000D02*
X113285000Y-41073520D01*
X113285000Y-43466480D02*
X113285000Y-88073520D01*
X113285000Y-90466480D02*
X113285000Y-91380000D01*
X115775000Y-40160000D02*
X113285000Y-40160000D01*
X116045000Y-40580063D02*
X116045000Y-40223000D01*
X116045000Y-42700000D02*
X116045000Y-43120000D01*
X116045000Y-45240000D02*
X116045000Y-45660000D01*
X116045000Y-47780000D02*
X116045000Y-48200000D01*
X116045000Y-50320000D02*
X116045000Y-50740000D01*
X116045000Y-52860000D02*
X116045000Y-53280000D01*
X116045000Y-55400000D02*
X116045000Y-55820000D01*
X116045000Y-57940000D02*
X116045000Y-58360000D01*
X116045000Y-60480000D02*
X116045000Y-60900000D01*
X116045000Y-63020000D02*
X116045000Y-63440000D01*
X116045000Y-65560000D02*
X116045000Y-65980000D01*
X116045000Y-68100000D02*
X116045000Y-68520000D01*
X116045000Y-70640000D02*
X116045000Y-71060000D01*
X116045000Y-73180000D02*
X116045000Y-73600000D01*
X116045000Y-75720000D02*
X116045000Y-76140000D01*
X116045000Y-78260000D02*
X116045000Y-78680000D01*
X116045000Y-80800000D02*
X116045000Y-81220000D01*
X116045000Y-83340000D02*
X116045000Y-83760000D01*
X116045000Y-85880000D02*
X116045000Y-86300000D01*
X116045000Y-88420000D02*
X116045000Y-88840000D01*
X116045000Y-90959937D02*
X116045000Y-91317000D01*
X116385000Y-42700000D02*
X116385000Y-43120000D01*
X116385000Y-45240000D02*
X116385000Y-45660000D01*
X116385000Y-47780000D02*
X116385000Y-48200000D01*
X116385000Y-50320000D02*
X116385000Y-50740000D01*
X116385000Y-52860000D02*
X116385000Y-53280000D01*
X116385000Y-55400000D02*
X116385000Y-55820000D01*
X116385000Y-57940000D02*
X116385000Y-58360000D01*
X116385000Y-60480000D02*
X116385000Y-60900000D01*
X116385000Y-63020000D02*
X116385000Y-63440000D01*
X116385000Y-65560000D02*
X116385000Y-65980000D01*
X116385000Y-68100000D02*
X116385000Y-68520000D01*
X116385000Y-70640000D02*
X116385000Y-71060000D01*
X116385000Y-73180000D02*
X116385000Y-73600000D01*
X116385000Y-75720000D02*
X116385000Y-76140000D01*
X116385000Y-78260000D02*
X116385000Y-78680000D01*
X116385000Y-80800000D02*
X116385000Y-81220000D01*
X116385000Y-83340000D02*
X116385000Y-83760000D01*
X116385000Y-85880000D02*
X116385000Y-86300000D01*
X116385000Y-88420000D02*
X116385000Y-88840000D01*
X95195324Y-40580000D02*
G75*
G02*
X95775000Y-40160000I579692J-190051D01*
G01*
X95775000Y-91380000D02*
G75*
G02*
X95195324Y-90959937I1J610002D01*
G01*
X115775000Y-40160000D02*
G75*
G02*
X116354676Y-40580063I0J-610000D01*
G01*
X116354676Y-90959937D02*
G75*
G02*
X115775000Y-91380069I-579676J189837D01*
G01*
%TO.C,C5*%
X90238748Y-57765000D02*
X90761252Y-57765000D01*
X90238748Y-59235000D02*
X90761252Y-59235000D01*
%TO.C,R3*%
X90765000Y-55527064D02*
X90765000Y-55072936D01*
X92235000Y-55527064D02*
X92235000Y-55072936D01*
%TO.C,+5V_S1*%
X123300000Y-53500000D02*
G75*
G02*
X120700000Y-53500000I-1300000J0D01*
G01*
X120700000Y-53500000D02*
G75*
G02*
X123300000Y-53500000I1300000J0D01*
G01*
%TO.C,J1*%
X78580000Y-79500000D02*
X78580000Y-66580000D01*
X81230000Y-76850000D02*
X81230000Y-79500000D01*
X81230000Y-79500000D02*
X78580000Y-79500000D01*
X83880000Y-66580000D02*
X78580000Y-66580000D01*
X83880000Y-76850000D02*
X81230000Y-76850000D01*
X83880000Y-76850000D02*
X83880000Y-66580000D01*
X83880000Y-78120000D02*
X83880000Y-79500000D01*
X83880000Y-79500000D02*
X82500000Y-79500000D01*
%TD*%
M02*
