%TF.GenerationSoftware,KiCad,Pcbnew,10.0.3*%
%TF.CreationDate,2026-05-30T01:03:29-07:00*%
%TF.ProjectId,Encoder Board,456e636f-6465-4722-9042-6f6172642e6b,rev?*%
%TF.SameCoordinates,Original*%
%TF.FileFunction,Copper,L2,Bot*%
%TF.FilePolarity,Positive*%
%FSLAX46Y46*%
G04 Gerber Fmt 4.6, Leading zero omitted, Abs format (unit mm)*
G04 Created by KiCad (PCBNEW 10.0.3) date 2026-05-30 01:03:29*
%MOMM*%
%LPD*%
G01*
G04 APERTURE LIST*
%TA.AperFunction,ComponentPad*%
%ADD10C,1.700000*%
%TD*%
%TA.AperFunction,ComponentPad*%
%ADD11R,1.700000X1.700000*%
%TD*%
%TA.AperFunction,ViaPad*%
%ADD12C,0.600000*%
%TD*%
%TA.AperFunction,Conductor*%
%ADD13C,0.400000*%
%TD*%
G04 APERTURE END LIST*
D10*
%TO.P,J7,8,Pin_8_8*%
%TO.N,GND*%
X112765000Y-73810000D03*
%TO.P,J7,7,Pin_7_7*%
%TO.N,Net-(J6-Pin_17)*%
X110225000Y-73810000D03*
%TO.P,J7,6,Pin_6_6*%
%TO.N,GND*%
X112765000Y-71270000D03*
%TO.P,J7,5,Pin_5_5*%
%TO.N,Net-(J6-Pin_16)*%
X110225000Y-71270000D03*
%TO.P,J7,4,Pin_4_4*%
%TO.N,GND*%
X112765000Y-68730000D03*
%TO.P,J7,3,Pin_3_3*%
%TO.N,Net-(J6-Pin_15)*%
X110225000Y-68730000D03*
%TO.P,J7,2,Pin_2_2*%
%TO.N,GND*%
X112765000Y-66190000D03*
D11*
%TO.P,J7,1,Pin_1_1*%
%TO.N,/TRIGGER*%
X110225000Y-66190000D03*
%TD*%
%TO.P,J6,1,Pin_1_1*%
%TO.N,unconnected-(J6-Pin_1-Pad1)*%
X102617622Y-33132806D03*
D10*
%TO.P,J6,2,Pin_2_2*%
%TO.N,Net-(D1-K)*%
X102617622Y-35672806D03*
%TO.P,J6,3,Pin_3_3*%
%TO.N,GND*%
X102617622Y-38212806D03*
%TO.P,J6,4,Pin_4_4*%
%TO.N,unconnected-(J6-Pin_4-Pad4)*%
X102617622Y-40752806D03*
%TO.P,J6,5,Pin_5_5*%
%TO.N,+3V3_Pi*%
X102617622Y-43292806D03*
%TO.P,J6,6,Pin_6_6*%
%TO.N,unconnected-(J6-Pin_6-Pad6)*%
X102617622Y-45832806D03*
%TO.P,J6,7,Pin_7_7*%
%TO.N,unconnected-(J6-Pin_7-Pad7)*%
X102617622Y-48372806D03*
%TO.P,J6,8,Pin_8_8*%
%TO.N,GND*%
X102617622Y-50912806D03*
%TO.P,J6,9,Pin_9_9*%
%TO.N,unconnected-(J6-Pin_9-Pad9)*%
X102617622Y-53452806D03*
%TO.P,J6,10,Pin_10_10*%
%TO.N,unconnected-(J6-Pin_10-Pad10)*%
X102617622Y-55992806D03*
%TO.P,J6,11,Pin_11_11*%
%TO.N,unconnected-(J6-Pin_11-Pad11)*%
X102617622Y-58532806D03*
%TO.P,J6,12,Pin_12_12*%
%TO.N,unconnected-(J6-Pin_12-Pad12)*%
X102617622Y-61072806D03*
%TO.P,J6,13,Pin_13_13*%
%TO.N,GND*%
X102617622Y-63612806D03*
%TO.P,J6,14,Pin_14_14*%
%TO.N,/TRIGGER*%
X102617622Y-66152806D03*
%TO.P,J6,15,Pin_15_15*%
%TO.N,Net-(J6-Pin_15)*%
X102617622Y-68692806D03*
%TO.P,J6,16,Pin_16_16*%
%TO.N,Net-(J6-Pin_16)*%
X102617622Y-71232806D03*
%TO.P,J6,17,Pin_17_17*%
%TO.N,Net-(J6-Pin_17)*%
X102617622Y-73772806D03*
%TO.P,J6,18,Pin_18_18*%
%TO.N,GND*%
X102617622Y-76312806D03*
%TO.P,J6,19,Pin_19_19*%
%TO.N,unconnected-(J6-Pin_19-Pad19)*%
X102617622Y-78852806D03*
%TO.P,J6,20,Pin_20_20*%
%TO.N,unconnected-(J6-Pin_20-Pad20)*%
X102617622Y-81392806D03*
%TD*%
D11*
%TO.P,J3,1,Pin_1_1*%
%TO.N,+5V_S*%
X114500000Y-39750000D03*
D10*
%TO.P,J3,2,Pin_2_2*%
%TO.N,GND*%
X111960000Y-39750000D03*
%TD*%
D11*
%TO.P,J2,1,Pin_1_1*%
%TO.N,GND*%
X71775000Y-78330000D03*
D10*
%TO.P,J2,2,Pin_2_2*%
X69235000Y-78330000D03*
%TO.P,J2,3,Pin_3_3*%
%TO.N,/INDEX_N*%
X71775000Y-75790000D03*
%TO.P,J2,4,Pin_4_4*%
%TO.N,/INDEX*%
X69235000Y-75790000D03*
%TO.P,J2,5,Pin_5_5*%
%TO.N,/A_N*%
X71775000Y-73250000D03*
%TO.P,J2,6,Pin_6_6*%
%TO.N,/A*%
X69235000Y-73250000D03*
%TO.P,J2,7,Pin_7_7*%
%TO.N,+5V_E*%
X71775000Y-70710000D03*
%TO.P,J2,8,Pin_8_8*%
X69235000Y-70710000D03*
%TO.P,J2,9,Pin_9_9*%
%TO.N,/B_N*%
X71775000Y-68170000D03*
%TO.P,J2,10,Pin_10_10*%
%TO.N,/B*%
X69235000Y-68170000D03*
%TD*%
D11*
%TO.P,J4,1,Pin_1_1*%
%TO.N,+3V3*%
X114500000Y-55725000D03*
D10*
%TO.P,J4,2,Pin_2_2*%
%TO.N,GND*%
X114500000Y-58265000D03*
%TD*%
D11*
%TO.P,J5,1,Pin_1_1*%
%TO.N,unconnected-(J5-Pin_1-Pad1)*%
X84500000Y-33340000D03*
D10*
%TO.P,J5,2,Pin_2_2*%
%TO.N,unconnected-(J5-Pin_2-Pad2)*%
X84500000Y-35880000D03*
%TO.P,J5,3,Pin_3_3*%
%TO.N,GND*%
X84500000Y-38420000D03*
%TO.P,J5,4,Pin_4_4*%
%TO.N,/A_3V3*%
X84500000Y-40960000D03*
%TO.P,J5,5,Pin_5_5*%
%TO.N,/B_3V3*%
X84500000Y-43500000D03*
%TO.P,J5,6,Pin_6_6*%
%TO.N,/INDEX_3V3*%
X84500000Y-46040000D03*
%TO.P,J5,7,Pin_7_7*%
%TO.N,unconnected-(J5-Pin_7-Pad7)*%
X84500000Y-48580000D03*
%TO.P,J5,8,Pin_8_8*%
%TO.N,GND*%
X84500000Y-51120000D03*
%TO.P,J5,9,Pin_9_9*%
%TO.N,unconnected-(J5-Pin_9-Pad9)*%
X84500000Y-53660000D03*
%TO.P,J5,10,Pin_10_10*%
%TO.N,unconnected-(J5-Pin_10-Pad10)*%
X84500000Y-56200000D03*
%TO.P,J5,11,Pin_11_11*%
%TO.N,unconnected-(J5-Pin_11-Pad11)*%
X84500000Y-58740000D03*
%TO.P,J5,12,Pin_12_12*%
%TO.N,unconnected-(J5-Pin_12-Pad12)*%
X84500000Y-61280000D03*
%TO.P,J5,13,Pin_13_13*%
%TO.N,GND*%
X84500000Y-63820000D03*
%TO.P,J5,14,Pin_14_14*%
%TO.N,unconnected-(J5-Pin_14-Pad14)*%
X84500000Y-66360000D03*
%TO.P,J5,15,Pin_15_15*%
%TO.N,unconnected-(J5-Pin_15-Pad15)*%
X84500000Y-68900000D03*
%TO.P,J5,16,Pin_16_16*%
%TO.N,unconnected-(J5-Pin_16-Pad16)*%
X84500000Y-71440000D03*
%TO.P,J5,17,Pin_17_17*%
%TO.N,unconnected-(J5-Pin_17-Pad17)*%
X84500000Y-73980000D03*
%TO.P,J5,18,Pin_18_18*%
%TO.N,GND*%
X84500000Y-76520000D03*
%TO.P,J5,19,Pin_19_19*%
%TO.N,unconnected-(J5-Pin_19-Pad19)*%
X84500000Y-79060000D03*
%TO.P,J5,20,Pin_20_20*%
%TO.N,unconnected-(J5-Pin_20-Pad20)*%
X84500000Y-81600000D03*
%TD*%
D11*
%TO.P,J1,1,Pin_1_1*%
%TO.N,GND*%
X71815000Y-61855000D03*
D10*
%TO.P,J1,2,Pin_2_2*%
X69275000Y-61855000D03*
%TO.P,J1,3,Pin_3_3*%
%TO.N,/INDEX_N*%
X71815000Y-59315000D03*
%TO.P,J1,4,Pin_4_4*%
%TO.N,/INDEX*%
X69275000Y-59315000D03*
%TO.P,J1,5,Pin_5_5*%
%TO.N,/A_N*%
X71815000Y-56775000D03*
%TO.P,J1,6,Pin_6_6*%
%TO.N,/A*%
X69275000Y-56775000D03*
%TO.P,J1,7,Pin_7_7*%
%TO.N,+5V_E*%
X71815000Y-54235000D03*
%TO.P,J1,8,Pin_8_8*%
X69275000Y-54235000D03*
%TO.P,J1,9,Pin_9_9*%
%TO.N,/B_N*%
X71815000Y-51695000D03*
%TO.P,J1,10,Pin_10_10*%
%TO.N,/B*%
X69275000Y-51695000D03*
%TD*%
D12*
%TO.N,/B_N*%
X68875000Y-66625000D03*
%TO.N,/A_N*%
X76000000Y-63500000D03*
%TO.N,/B*%
X68000000Y-66750000D03*
%TO.N,GND*%
X114250000Y-33250000D03*
X99250000Y-43250000D03*
X99250000Y-68250000D03*
X79250000Y-28250000D03*
X79250000Y-58250000D03*
X104250000Y-44500000D03*
X69500000Y-35250000D03*
X79246747Y-49247839D03*
X94250000Y-43250000D03*
X104250000Y-68000000D03*
X104250000Y-38250000D03*
X79250000Y-83250000D03*
X80000000Y-43250000D03*
X69500000Y-43250000D03*
X99250000Y-78250000D03*
X104250000Y-72500000D03*
X104250000Y-63250000D03*
X114250000Y-68250000D03*
X104250000Y-58250000D03*
X89250000Y-73250000D03*
X94250000Y-58250000D03*
X74250000Y-48250000D03*
X99250000Y-58250000D03*
X104250000Y-33250000D03*
X109250000Y-38250000D03*
X74250000Y-52500000D03*
X99250000Y-28250000D03*
X104250000Y-78250000D03*
X114250000Y-78250000D03*
X79250000Y-63250000D03*
X74250000Y-28250000D03*
X79250000Y-78250000D03*
X94250000Y-28250000D03*
X94250000Y-38250000D03*
X69250000Y-83250000D03*
X89250000Y-43250000D03*
X99250000Y-83250000D03*
X74250000Y-83250000D03*
X79250000Y-68250000D03*
X109250000Y-72500000D03*
X99250000Y-48250000D03*
X89250000Y-68250000D03*
X89250000Y-48250000D03*
X104250000Y-48250000D03*
X89250000Y-58250000D03*
X109250000Y-53250000D03*
X99250000Y-38250000D03*
X79000000Y-52750000D03*
X67000000Y-32000000D03*
X80000000Y-38250000D03*
X94250000Y-73250000D03*
X74250000Y-43250000D03*
X89250000Y-53250000D03*
X94250000Y-33250000D03*
X94250000Y-53250000D03*
X109250000Y-28250000D03*
X94250000Y-63250000D03*
X67500000Y-52000000D03*
X84250000Y-83250000D03*
X99250000Y-63250000D03*
X84250000Y-28250000D03*
X67500000Y-58250000D03*
X94250000Y-48250000D03*
X79250000Y-73250000D03*
X94250000Y-68250000D03*
X99250000Y-73250000D03*
X89250000Y-28250000D03*
X94250000Y-78250000D03*
X69250000Y-28250000D03*
X109250000Y-48250000D03*
X67000000Y-35250000D03*
X89250000Y-78250000D03*
X99250000Y-53250000D03*
X114250000Y-73250000D03*
X94250000Y-83250000D03*
X109250000Y-58250000D03*
X114250000Y-63250000D03*
X104250000Y-28250000D03*
X109250000Y-78250000D03*
X109250000Y-63250000D03*
X89250000Y-63250000D03*
X69749999Y-48248736D03*
X109250000Y-83250000D03*
X104250000Y-83250000D03*
X89250000Y-38250000D03*
X79250000Y-33250000D03*
X104250000Y-53250000D03*
X74250000Y-78250000D03*
X89250000Y-83250000D03*
X114250000Y-53250000D03*
X69250000Y-63250000D03*
%TO.N,/A*%
X75247597Y-64250000D03*
%TO.N,/A_3V3*%
X73000000Y-38750000D03*
%TO.N,/INDEX_N*%
X74500000Y-72750000D03*
X73940000Y-57190000D03*
X76487500Y-52750000D03*
%TO.N,/INDEX*%
X80000000Y-52897767D03*
X74823883Y-58073883D03*
X73750000Y-73500000D03*
%TD*%
%TO.N,/B_N*%
D13*
X68757233Y-52985000D02*
X70525000Y-52985000D01*
X66500000Y-64250000D02*
X66500000Y-55242233D01*
X68875000Y-66625000D02*
X66500000Y-64250000D01*
X70525000Y-52985000D02*
X71815000Y-51695000D01*
X66500000Y-55242233D02*
X68757233Y-52985000D01*
%TO.N,/A_N*%
X76000000Y-63500000D02*
X76000000Y-60960000D01*
X76000000Y-60960000D02*
X71815000Y-56775000D01*
%TO.N,/B*%
X65500000Y-55470000D02*
X69275000Y-51695000D01*
X68000000Y-66750000D02*
X65500000Y-64250000D01*
X65500000Y-64250000D02*
X65500000Y-55470000D01*
%TO.N,/A*%
X75247597Y-60952887D02*
X72319710Y-58025000D01*
X70525000Y-58025000D02*
X69275000Y-56775000D01*
X72319710Y-58025000D02*
X70525000Y-58025000D01*
X75247597Y-64250000D02*
X75247597Y-60952887D01*
%TO.N,/A_3V3*%
X84203000Y-40663000D02*
X84500000Y-40960000D01*
X73076264Y-38750000D02*
X74989264Y-40663000D01*
X74989264Y-40663000D02*
X84203000Y-40663000D01*
%TO.N,/INDEX_N*%
X72815000Y-59315000D02*
X71815000Y-59315000D01*
X76487500Y-54642500D02*
X76487500Y-52750000D01*
X74500000Y-72750000D02*
X74500000Y-61000000D01*
X74500000Y-61000000D02*
X72815000Y-59315000D01*
X73940000Y-57190000D02*
X76487500Y-54642500D01*
%TO.N,/INDEX*%
X73750000Y-73500000D02*
X73750000Y-61290000D01*
X73025000Y-60565000D02*
X70525000Y-60565000D01*
X74823883Y-58073883D02*
X80000000Y-52897767D01*
X70525000Y-60565000D02*
X69275000Y-59315000D01*
X73750000Y-61290000D02*
X73025000Y-60565000D01*
%TD*%
%TA.AperFunction,Conductor*%
%TO.N,GND*%
G36*
X112299075Y-71462993D02*
G01*
X112364901Y-71577007D01*
X112457993Y-71670099D01*
X112572007Y-71735925D01*
X112635591Y-71752962D01*
X112034971Y-72353581D01*
X112113711Y-72470895D01*
X112114920Y-72474729D01*
X112117844Y-72477491D01*
X112125343Y-72507778D01*
X112134727Y-72537529D01*
X112133671Y-72541408D01*
X112134638Y-72545312D01*
X112124573Y-72574844D01*
X112116383Y-72604947D01*
X112113397Y-72607640D01*
X112112100Y-72611447D01*
X112067051Y-72650483D01*
X112057440Y-72655380D01*
X112003282Y-72694727D01*
X112003282Y-72694728D01*
X112635591Y-73327037D01*
X112572007Y-73344075D01*
X112457993Y-73409901D01*
X112364901Y-73502993D01*
X112299075Y-73617007D01*
X112282037Y-73680591D01*
X111649728Y-73048282D01*
X111649727Y-73048282D01*
X111610380Y-73102440D01*
X111610376Y-73102446D01*
X111605760Y-73111505D01*
X111557781Y-73162297D01*
X111489959Y-73179087D01*
X111423826Y-73156543D01*
X111384794Y-73111493D01*
X111380051Y-73102184D01*
X111380049Y-73102181D01*
X111380048Y-73102179D01*
X111255109Y-72930213D01*
X111104786Y-72779890D01*
X110932820Y-72654951D01*
X110932115Y-72654591D01*
X110924054Y-72650485D01*
X110873259Y-72602512D01*
X110856463Y-72534692D01*
X110878999Y-72468556D01*
X110924054Y-72429515D01*
X110932816Y-72425051D01*
X110987570Y-72385270D01*
X111104786Y-72300109D01*
X111104788Y-72300106D01*
X111104792Y-72300104D01*
X111255104Y-72149792D01*
X111255106Y-72149788D01*
X111255109Y-72149786D01*
X111340890Y-72031717D01*
X111380051Y-71977816D01*
X111384793Y-71968508D01*
X111432763Y-71917711D01*
X111500583Y-71900911D01*
X111566719Y-71923445D01*
X111605763Y-71968500D01*
X111610373Y-71977547D01*
X111649728Y-72031716D01*
X112282037Y-71399408D01*
X112299075Y-71462993D01*
G37*
%TD.AperFunction*%
%TA.AperFunction,Conductor*%
G36*
X112299075Y-68922993D02*
G01*
X112364901Y-69037007D01*
X112457993Y-69130099D01*
X112572007Y-69195925D01*
X112635591Y-69212962D01*
X112034971Y-69813581D01*
X112113711Y-69930895D01*
X112114920Y-69934729D01*
X112117844Y-69937491D01*
X112125343Y-69967778D01*
X112134727Y-69997529D01*
X112133671Y-70001408D01*
X112134638Y-70005312D01*
X112124573Y-70034844D01*
X112116383Y-70064947D01*
X112113397Y-70067640D01*
X112112100Y-70071447D01*
X112067051Y-70110483D01*
X112057440Y-70115380D01*
X112003282Y-70154727D01*
X112003282Y-70154728D01*
X112635591Y-70787037D01*
X112572007Y-70804075D01*
X112457993Y-70869901D01*
X112364901Y-70962993D01*
X112299075Y-71077007D01*
X112282037Y-71140591D01*
X111649728Y-70508282D01*
X111649727Y-70508282D01*
X111610380Y-70562440D01*
X111610376Y-70562446D01*
X111605760Y-70571505D01*
X111557781Y-70622297D01*
X111489959Y-70639087D01*
X111423826Y-70616543D01*
X111384794Y-70571493D01*
X111380051Y-70562184D01*
X111380049Y-70562181D01*
X111380048Y-70562179D01*
X111255109Y-70390213D01*
X111104786Y-70239890D01*
X110932820Y-70114951D01*
X110932115Y-70114591D01*
X110924054Y-70110485D01*
X110873259Y-70062512D01*
X110856463Y-69994692D01*
X110878999Y-69928556D01*
X110924054Y-69889515D01*
X110932816Y-69885051D01*
X111008295Y-69830213D01*
X111104786Y-69760109D01*
X111104788Y-69760106D01*
X111104792Y-69760104D01*
X111255104Y-69609792D01*
X111255106Y-69609788D01*
X111255109Y-69609786D01*
X111340890Y-69491717D01*
X111380051Y-69437816D01*
X111384793Y-69428508D01*
X111432763Y-69377711D01*
X111500583Y-69360911D01*
X111566719Y-69383445D01*
X111605763Y-69428500D01*
X111610373Y-69437547D01*
X111649728Y-69491716D01*
X112282037Y-68859408D01*
X112299075Y-68922993D01*
G37*
%TD.AperFunction*%
%TA.AperFunction,Conductor*%
G36*
X112299075Y-66382993D02*
G01*
X112364901Y-66497007D01*
X112457993Y-66590099D01*
X112572007Y-66655925D01*
X112635591Y-66672962D01*
X112034971Y-67273581D01*
X112113711Y-67390895D01*
X112134727Y-67457529D01*
X112116383Y-67524947D01*
X112067051Y-67570483D01*
X112057440Y-67575380D01*
X112003282Y-67614727D01*
X112003282Y-67614728D01*
X112635591Y-68247037D01*
X112572007Y-68264075D01*
X112457993Y-68329901D01*
X112364901Y-68422993D01*
X112299075Y-68537007D01*
X112282037Y-68600591D01*
X111649728Y-67968282D01*
X111649727Y-67968282D01*
X111610380Y-68022440D01*
X111610376Y-68022446D01*
X111605760Y-68031505D01*
X111557781Y-68082297D01*
X111489959Y-68099087D01*
X111423826Y-68076543D01*
X111384794Y-68031493D01*
X111380051Y-68022184D01*
X111380049Y-68022181D01*
X111380048Y-68022179D01*
X111255109Y-67850213D01*
X111141569Y-67736673D01*
X111108084Y-67675350D01*
X111113068Y-67605658D01*
X111154940Y-67549725D01*
X111185915Y-67532810D01*
X111317331Y-67483796D01*
X111432546Y-67397546D01*
X111518796Y-67282331D01*
X111569091Y-67147483D01*
X111575500Y-67087873D01*
X111575499Y-67063979D01*
X111578330Y-67050963D01*
X111588940Y-67031525D01*
X111595179Y-67010275D01*
X111611803Y-66989643D01*
X111611808Y-66989636D01*
X111611811Y-66989634D01*
X111611818Y-66989626D01*
X112282037Y-66319408D01*
X112299075Y-66382993D01*
G37*
%TD.AperFunction*%
%TA.AperFunction,Conductor*%
G36*
X114754043Y-27250765D02*
G01*
X115002895Y-27267075D01*
X115018953Y-27269190D01*
X115259544Y-27317046D01*
X115275199Y-27321241D01*
X115507478Y-27400089D01*
X115522462Y-27406295D01*
X115628906Y-27458788D01*
X115680326Y-27506094D01*
X115698007Y-27573689D01*
X115676337Y-27640113D01*
X115622195Y-27684277D01*
X115574062Y-27694000D01*
X112694000Y-27694000D01*
X112694000Y-31250000D01*
X116250000Y-31250000D01*
X116250000Y-28312383D01*
X116252026Y-28305482D01*
X116250791Y-28298395D01*
X116261740Y-28272399D01*
X116269685Y-28245344D01*
X116275120Y-28240634D01*
X116277913Y-28234004D01*
X116301178Y-28218054D01*
X116322489Y-28199589D01*
X116329607Y-28198565D01*
X116335541Y-28194498D01*
X116363732Y-28193658D01*
X116391647Y-28189645D01*
X116398189Y-28192633D01*
X116405380Y-28192419D01*
X116429550Y-28206954D01*
X116455203Y-28218670D01*
X116460553Y-28225599D01*
X116465256Y-28228428D01*
X116485212Y-28257539D01*
X116593704Y-28477537D01*
X116599911Y-28492523D01*
X116678756Y-28724794D01*
X116682954Y-28740461D01*
X116730807Y-28981035D01*
X116732925Y-28997116D01*
X116749235Y-29245956D01*
X116749500Y-29254066D01*
X116749500Y-82245933D01*
X116749235Y-82254043D01*
X116732925Y-82502883D01*
X116730807Y-82518964D01*
X116682954Y-82759538D01*
X116678756Y-82775205D01*
X116599911Y-83007476D01*
X116593704Y-83022462D01*
X116485212Y-83242460D01*
X116437906Y-83293880D01*
X116370311Y-83311561D01*
X116303887Y-83289891D01*
X116259723Y-83235749D01*
X116250000Y-83187616D01*
X116250000Y-80194000D01*
X112694000Y-80194000D01*
X112694000Y-83750000D01*
X115687618Y-83750000D01*
X115694520Y-83752026D01*
X115701606Y-83750792D01*
X115727597Y-83761739D01*
X115754657Y-83769685D01*
X115759366Y-83775120D01*
X115765997Y-83777913D01*
X115781944Y-83801176D01*
X115800412Y-83822489D01*
X115801435Y-83829608D01*
X115805503Y-83835542D01*
X115806342Y-83863731D01*
X115810356Y-83891647D01*
X115807367Y-83898189D01*
X115807582Y-83905380D01*
X115793047Y-83929547D01*
X115781331Y-83955203D01*
X115774399Y-83960554D01*
X115771572Y-83965256D01*
X115742462Y-83985212D01*
X115522462Y-84093704D01*
X115507476Y-84099911D01*
X115275205Y-84178756D01*
X115259538Y-84182954D01*
X115018964Y-84230807D01*
X115002883Y-84232925D01*
X114754043Y-84249235D01*
X114745933Y-84249500D01*
X67004067Y-84249500D01*
X66995957Y-84249235D01*
X66973071Y-84247735D01*
X66907463Y-84223708D01*
X66865259Y-84168024D01*
X66859860Y-84098363D01*
X66892980Y-84036842D01*
X66954102Y-84002993D01*
X66981181Y-84000000D01*
X69000000Y-84000000D01*
X69000000Y-80444000D01*
X65444000Y-80444000D01*
X65444000Y-83074062D01*
X65441973Y-83080962D01*
X65443209Y-83088050D01*
X65432259Y-83114045D01*
X65424315Y-83141101D01*
X65418879Y-83145810D01*
X65416087Y-83152441D01*
X65392821Y-83168390D01*
X65371511Y-83186856D01*
X65364392Y-83187879D01*
X65358459Y-83191947D01*
X65330267Y-83192786D01*
X65302353Y-83196800D01*
X65295810Y-83193811D01*
X65288620Y-83194026D01*
X65264449Y-83179490D01*
X65238797Y-83167775D01*
X65233446Y-83160845D01*
X65228744Y-83158017D01*
X65208788Y-83128906D01*
X65156295Y-83022462D01*
X65150088Y-83007476D01*
X65071241Y-82775199D01*
X65067045Y-82759538D01*
X65019190Y-82518953D01*
X65017075Y-82502895D01*
X65000765Y-82254043D01*
X65000500Y-82245933D01*
X65000500Y-64502614D01*
X65020185Y-64435575D01*
X65072989Y-64389820D01*
X65142147Y-64379876D01*
X65205703Y-64408901D01*
X65231887Y-64440614D01*
X65235214Y-64446377D01*
X65237934Y-64451089D01*
X67195521Y-66408676D01*
X67229006Y-66469999D01*
X67229457Y-66520548D01*
X67199500Y-66671153D01*
X67199500Y-66828846D01*
X67230261Y-66983489D01*
X67230264Y-66983501D01*
X67290602Y-67129172D01*
X67290609Y-67129185D01*
X67378210Y-67260288D01*
X67378213Y-67260292D01*
X67489707Y-67371786D01*
X67489711Y-67371789D01*
X67620814Y-67459390D01*
X67620827Y-67459397D01*
X67765969Y-67519516D01*
X67766503Y-67519737D01*
X67809098Y-67528209D01*
X67873652Y-67541051D01*
X67935563Y-67573436D01*
X67970138Y-67634152D01*
X67967392Y-67700986D01*
X67917753Y-67853759D01*
X67889603Y-68031492D01*
X67884500Y-68063713D01*
X67884500Y-68276287D01*
X67917754Y-68486243D01*
X67949439Y-68583760D01*
X67983444Y-68688414D01*
X68079951Y-68877820D01*
X68204890Y-69049786D01*
X68355213Y-69200109D01*
X68527182Y-69325050D01*
X68535946Y-69329516D01*
X68586742Y-69377491D01*
X68603536Y-69445312D01*
X68580998Y-69511447D01*
X68535946Y-69550484D01*
X68527182Y-69554949D01*
X68355213Y-69679890D01*
X68204890Y-69830213D01*
X68079951Y-70002179D01*
X67983444Y-70191585D01*
X67917753Y-70393760D01*
X67891037Y-70562440D01*
X67884500Y-70603713D01*
X67884500Y-70816287D01*
X67917754Y-71026243D01*
X67949439Y-71123760D01*
X67983444Y-71228414D01*
X68079951Y-71417820D01*
X68204890Y-71589786D01*
X68355213Y-71740109D01*
X68527182Y-71865050D01*
X68535946Y-71869516D01*
X68586742Y-71917491D01*
X68603536Y-71985312D01*
X68580998Y-72051447D01*
X68535946Y-72090484D01*
X68527182Y-72094949D01*
X68355213Y-72219890D01*
X68204890Y-72370213D01*
X68079951Y-72542179D01*
X67983444Y-72731585D01*
X67917753Y-72933760D01*
X67884500Y-73143713D01*
X67884500Y-73356286D01*
X67915260Y-73550500D01*
X67917754Y-73566243D01*
X67972098Y-73733497D01*
X67983444Y-73768414D01*
X68079951Y-73957820D01*
X68204890Y-74129786D01*
X68355213Y-74280109D01*
X68527182Y-74405050D01*
X68535946Y-74409516D01*
X68586742Y-74457491D01*
X68603536Y-74525312D01*
X68580998Y-74591447D01*
X68535946Y-74630484D01*
X68527182Y-74634949D01*
X68355213Y-74759890D01*
X68204890Y-74910213D01*
X68079951Y-75082179D01*
X67983444Y-75271585D01*
X67917753Y-75473760D01*
X67884500Y-75683713D01*
X67884500Y-75896287D01*
X67917754Y-76106243D01*
X67963482Y-76246980D01*
X67983444Y-76308414D01*
X68079951Y-76497820D01*
X68204890Y-76669786D01*
X68355213Y-76820109D01*
X68527179Y-76945048D01*
X68527181Y-76945049D01*
X68527184Y-76945051D01*
X68536493Y-76949794D01*
X68587290Y-76997766D01*
X68604087Y-77065587D01*
X68581552Y-77131722D01*
X68536505Y-77170760D01*
X68527446Y-77175376D01*
X68527440Y-77175380D01*
X68473282Y-77214727D01*
X68473282Y-77214728D01*
X69105591Y-77847037D01*
X69042007Y-77864075D01*
X68927993Y-77929901D01*
X68834901Y-78022993D01*
X68769075Y-78137007D01*
X68752037Y-78200591D01*
X68119728Y-77568282D01*
X68119727Y-77568282D01*
X68080380Y-77622439D01*
X67983904Y-77811782D01*
X67918242Y-78013869D01*
X67918242Y-78013872D01*
X67885000Y-78223753D01*
X67885000Y-78436246D01*
X67918242Y-78646127D01*
X67918242Y-78646130D01*
X67983904Y-78848217D01*
X68080375Y-79037550D01*
X68119728Y-79091716D01*
X68752037Y-78459408D01*
X68769075Y-78522993D01*
X68834901Y-78637007D01*
X68927993Y-78730099D01*
X69042007Y-78795925D01*
X69105590Y-78812962D01*
X68473282Y-79445269D01*
X68473282Y-79445270D01*
X68527449Y-79484624D01*
X68716782Y-79581095D01*
X68918870Y-79646757D01*
X69128754Y-79680000D01*
X69341246Y-79680000D01*
X69551127Y-79646757D01*
X69551130Y-79646757D01*
X69753217Y-79581095D01*
X69942554Y-79484622D01*
X69996716Y-79445270D01*
X69996717Y-79445270D01*
X69364408Y-78812962D01*
X69427993Y-78795925D01*
X69542007Y-78730099D01*
X69635099Y-78637007D01*
X69700925Y-78522993D01*
X69717962Y-78459409D01*
X70387356Y-79128803D01*
X70420841Y-79190126D01*
X70419926Y-79204831D01*
X70422497Y-79204555D01*
X70431401Y-79287373D01*
X70431403Y-79287380D01*
X70481645Y-79422086D01*
X70481649Y-79422093D01*
X70567809Y-79537187D01*
X70567812Y-79537190D01*
X70682906Y-79623350D01*
X70682913Y-79623354D01*
X70817620Y-79673596D01*
X70817627Y-79673598D01*
X70877155Y-79679999D01*
X70877172Y-79680000D01*
X71525000Y-79680000D01*
X71525000Y-78763012D01*
X71582007Y-78795925D01*
X71709174Y-78830000D01*
X71840826Y-78830000D01*
X71967993Y-78795925D01*
X72025000Y-78763012D01*
X72025000Y-79680000D01*
X72672828Y-79680000D01*
X72672844Y-79679999D01*
X72732372Y-79673598D01*
X72732379Y-79673596D01*
X72867086Y-79623354D01*
X72867093Y-79623350D01*
X72982187Y-79537190D01*
X72982190Y-79537187D01*
X73068350Y-79422093D01*
X73068354Y-79422086D01*
X73118596Y-79287379D01*
X73118598Y-79287372D01*
X73124999Y-79227844D01*
X73125000Y-79227827D01*
X73125000Y-78580000D01*
X72208012Y-78580000D01*
X72240925Y-78522993D01*
X72275000Y-78395826D01*
X72275000Y-78264174D01*
X72240925Y-78137007D01*
X72208012Y-78080000D01*
X73125000Y-78080000D01*
X73125000Y-77432172D01*
X73124999Y-77432155D01*
X73118598Y-77372627D01*
X73118596Y-77372620D01*
X73068354Y-77237913D01*
X73068350Y-77237906D01*
X72982190Y-77122812D01*
X72982187Y-77122809D01*
X72867093Y-77036649D01*
X72867088Y-77036646D01*
X72735528Y-76987577D01*
X72679595Y-76945705D01*
X72655178Y-76880241D01*
X72670030Y-76811968D01*
X72691175Y-76783720D01*
X72805104Y-76669792D01*
X72807598Y-76666360D01*
X72930048Y-76497820D01*
X72930047Y-76497820D01*
X72930051Y-76497816D01*
X73017083Y-76327007D01*
X73026553Y-76308420D01*
X73026554Y-76308419D01*
X73026556Y-76308414D01*
X73026557Y-76308412D01*
X73092246Y-76106243D01*
X73125500Y-75896287D01*
X73125500Y-75683713D01*
X73092246Y-75473757D01*
X73026557Y-75271588D01*
X72930051Y-75082184D01*
X72930049Y-75082181D01*
X72930048Y-75082179D01*
X72805109Y-74910213D01*
X72654786Y-74759890D01*
X72482820Y-74634951D01*
X72482115Y-74634591D01*
X72474054Y-74630485D01*
X72423259Y-74582512D01*
X72406463Y-74514692D01*
X72428999Y-74448556D01*
X72474054Y-74409515D01*
X72482816Y-74405051D01*
X72588299Y-74328414D01*
X72654786Y-74280109D01*
X72654788Y-74280106D01*
X72654792Y-74280104D01*
X72805104Y-74129792D01*
X72807683Y-74126243D01*
X72836713Y-74086286D01*
X72910437Y-73984812D01*
X72965765Y-73942147D01*
X73035378Y-73936167D01*
X73097173Y-73968773D01*
X73113855Y-73988805D01*
X73128211Y-74010290D01*
X73239707Y-74121786D01*
X73239711Y-74121789D01*
X73370814Y-74209390D01*
X73370827Y-74209397D01*
X73516498Y-74269735D01*
X73516503Y-74269737D01*
X73624495Y-74291218D01*
X73671153Y-74300499D01*
X73671156Y-74300500D01*
X73671158Y-74300500D01*
X73828844Y-74300500D01*
X73828845Y-74300499D01*
X73983497Y-74269737D01*
X74129179Y-74209394D01*
X74260289Y-74121789D01*
X74371789Y-74010289D01*
X74459394Y-73879179D01*
X74519737Y-73733497D01*
X74539038Y-73636460D01*
X74571422Y-73574553D01*
X74632138Y-73539979D01*
X74636400Y-73539050D01*
X74733497Y-73519737D01*
X74873882Y-73461588D01*
X74879172Y-73459397D01*
X74879172Y-73459396D01*
X74879179Y-73459394D01*
X75010289Y-73371789D01*
X75121789Y-73260289D01*
X75209394Y-73129179D01*
X75269737Y-72983497D01*
X75300500Y-72828842D01*
X75300500Y-72671158D01*
X75300500Y-72671155D01*
X75300499Y-72671153D01*
X75269737Y-72516503D01*
X75233706Y-72429516D01*
X75209397Y-72370827D01*
X75209390Y-72370814D01*
X75121789Y-72239711D01*
X75121786Y-72239707D01*
X75010292Y-72128213D01*
X75010288Y-72128210D01*
X74882609Y-72042897D01*
X74837804Y-71989285D01*
X74827500Y-71939795D01*
X74827500Y-65128023D01*
X74847185Y-65060984D01*
X74899989Y-65015229D01*
X74969147Y-65005285D01*
X74998947Y-65013460D01*
X75014100Y-65019737D01*
X75168750Y-65050499D01*
X75168753Y-65050500D01*
X75168755Y-65050500D01*
X75326441Y-65050500D01*
X75326442Y-65050499D01*
X75481094Y-65019737D01*
X75626776Y-64959394D01*
X75757886Y-64871789D01*
X75869386Y-64760289D01*
X75956991Y-64629179D01*
X76017334Y-64483497D01*
X76036536Y-64386961D01*
X76068920Y-64325051D01*
X76129636Y-64290477D01*
X76133962Y-64289536D01*
X76152115Y-64285925D01*
X76233497Y-64269737D01*
X76379179Y-64209394D01*
X76510289Y-64121789D01*
X76621789Y-64010289D01*
X76709394Y-63879179D01*
X76769737Y-63733497D01*
X76780651Y-63678632D01*
X76800499Y-63578846D01*
X76800500Y-63578844D01*
X76800500Y-63421155D01*
X76800499Y-63421153D01*
X76780378Y-63320000D01*
X76769737Y-63266503D01*
X76744262Y-63205000D01*
X76709397Y-63120827D01*
X76709390Y-63120814D01*
X76621789Y-62989711D01*
X76621786Y-62989707D01*
X76510292Y-62878213D01*
X76510288Y-62878210D01*
X76382609Y-62792897D01*
X76337804Y-62739285D01*
X76327500Y-62689795D01*
X76327500Y-60916885D01*
X76320966Y-60892500D01*
X76305181Y-60833590D01*
X76262065Y-60758910D01*
X76201090Y-60697935D01*
X74575332Y-59072177D01*
X74541847Y-59010854D01*
X74546831Y-58941162D01*
X74588703Y-58885229D01*
X74654167Y-58860812D01*
X74687205Y-58862879D01*
X74745038Y-58874383D01*
X74745041Y-58874383D01*
X74902727Y-58874383D01*
X74902728Y-58874382D01*
X75057380Y-58843620D01*
X75203062Y-58783277D01*
X75334172Y-58695672D01*
X75445672Y-58584172D01*
X75533277Y-58453062D01*
X75593620Y-58307380D01*
X75624383Y-58152725D01*
X75624383Y-57995041D01*
X75624383Y-57995038D01*
X75594425Y-57844432D01*
X75600652Y-57774840D01*
X75628359Y-57732561D01*
X79658677Y-53702242D01*
X79719998Y-53668759D01*
X79770545Y-53668308D01*
X79846428Y-53683402D01*
X79921155Y-53698267D01*
X79921158Y-53698267D01*
X80078844Y-53698267D01*
X80078845Y-53698266D01*
X80233497Y-53667504D01*
X80379179Y-53607161D01*
X80510289Y-53519556D01*
X80536680Y-53493165D01*
X80568686Y-53461160D01*
X80621786Y-53408059D01*
X80621789Y-53408056D01*
X80709394Y-53276946D01*
X80769737Y-53131264D01*
X80800500Y-52976609D01*
X80800500Y-52818925D01*
X80800500Y-52818922D01*
X80800499Y-52818920D01*
X80785792Y-52744985D01*
X80769737Y-52664270D01*
X80755499Y-52629896D01*
X80709397Y-52518594D01*
X80709390Y-52518581D01*
X80621789Y-52387478D01*
X80621786Y-52387474D01*
X80510292Y-52275980D01*
X80510288Y-52275977D01*
X80379185Y-52188376D01*
X80379172Y-52188369D01*
X80233501Y-52128031D01*
X80233489Y-52128028D01*
X80078845Y-52097267D01*
X80078842Y-52097267D01*
X79921158Y-52097267D01*
X79921155Y-52097267D01*
X79766510Y-52128028D01*
X79766498Y-52128031D01*
X79620827Y-52188369D01*
X79620814Y-52188376D01*
X79489711Y-52275977D01*
X79489707Y-52275980D01*
X79378213Y-52387474D01*
X79378210Y-52387478D01*
X79290609Y-52518581D01*
X79290602Y-52518594D01*
X79230264Y-52664265D01*
X79230261Y-52664277D01*
X79199500Y-52818920D01*
X79199500Y-52976613D01*
X79229457Y-53127216D01*
X79223230Y-53196807D01*
X79195521Y-53239088D01*
X75165206Y-57269404D01*
X75160760Y-57271831D01*
X75157988Y-57276072D01*
X75130399Y-57288409D01*
X75103883Y-57302889D01*
X75097574Y-57303089D01*
X75094206Y-57304596D01*
X75071816Y-57303907D01*
X75058913Y-57304318D01*
X75056090Y-57303889D01*
X74902725Y-57273383D01*
X74855143Y-57273383D01*
X74845888Y-57271978D01*
X74822361Y-57261009D01*
X74797461Y-57253698D01*
X74791213Y-57246487D01*
X74782563Y-57242455D01*
X74768700Y-57220506D01*
X74751706Y-57200894D01*
X74749285Y-57189766D01*
X74745252Y-57183381D01*
X74745344Y-57171650D01*
X74740500Y-57149383D01*
X74740500Y-57111155D01*
X74740499Y-57111153D01*
X74710542Y-56960547D01*
X74716769Y-56890956D01*
X74744476Y-56848677D01*
X76749565Y-54843590D01*
X76792681Y-54768910D01*
X76815000Y-54685616D01*
X76815000Y-54599384D01*
X76815000Y-53560204D01*
X76834685Y-53493165D01*
X76870109Y-53457102D01*
X76997789Y-53371789D01*
X77109286Y-53260292D01*
X77109289Y-53260289D01*
X77196894Y-53129179D01*
X77257237Y-52983497D01*
X77288000Y-52828842D01*
X77288000Y-52671158D01*
X77288000Y-52671155D01*
X77287999Y-52671153D01*
X77257653Y-52518594D01*
X77257237Y-52516503D01*
X77232165Y-52455973D01*
X77196897Y-52370827D01*
X77196890Y-52370814D01*
X77109289Y-52239711D01*
X77109286Y-52239707D01*
X76997792Y-52128213D01*
X76997788Y-52128210D01*
X76866685Y-52040609D01*
X76866672Y-52040602D01*
X76721001Y-51980264D01*
X76720989Y-51980261D01*
X76566345Y-51949500D01*
X76566342Y-51949500D01*
X76408658Y-51949500D01*
X76408655Y-51949500D01*
X76254010Y-51980261D01*
X76253998Y-51980264D01*
X76108327Y-52040602D01*
X76108314Y-52040609D01*
X75977211Y-52128210D01*
X75977207Y-52128213D01*
X75865713Y-52239707D01*
X75865710Y-52239711D01*
X75778109Y-52370814D01*
X75778102Y-52370827D01*
X75717764Y-52516498D01*
X75717761Y-52516510D01*
X75687000Y-52671153D01*
X75687000Y-52828846D01*
X75717761Y-52983489D01*
X75717764Y-52983501D01*
X75778102Y-53129172D01*
X75778109Y-53129185D01*
X75865710Y-53260288D01*
X75865713Y-53260292D01*
X75977210Y-53371789D01*
X76104891Y-53457102D01*
X76149696Y-53510714D01*
X76160000Y-53560204D01*
X76160000Y-54455482D01*
X76140315Y-54522521D01*
X76123681Y-54543163D01*
X74281322Y-56385521D01*
X74219999Y-56419006D01*
X74169450Y-56419457D01*
X74018846Y-56389500D01*
X74018842Y-56389500D01*
X73861158Y-56389500D01*
X73861155Y-56389500D01*
X73706510Y-56420261D01*
X73706498Y-56420264D01*
X73560827Y-56480602D01*
X73560814Y-56480609D01*
X73429711Y-56568210D01*
X73359967Y-56637954D01*
X73298643Y-56671438D01*
X73228952Y-56666453D01*
X73173018Y-56624582D01*
X73149813Y-56569670D01*
X73135707Y-56480609D01*
X73132246Y-56458757D01*
X73066557Y-56256588D01*
X72970051Y-56067184D01*
X72970049Y-56067181D01*
X72970048Y-56067179D01*
X72845109Y-55895213D01*
X72694786Y-55744890D01*
X72522820Y-55619951D01*
X72522115Y-55619591D01*
X72514054Y-55615485D01*
X72463259Y-55567512D01*
X72446463Y-55499692D01*
X72468999Y-55433556D01*
X72514054Y-55394515D01*
X72522816Y-55390051D01*
X72590572Y-55340824D01*
X72694786Y-55265109D01*
X72694788Y-55265106D01*
X72694792Y-55265104D01*
X72845104Y-55114792D01*
X72845106Y-55114788D01*
X72845109Y-55114786D01*
X72970048Y-54942820D01*
X72970047Y-54942820D01*
X72970051Y-54942816D01*
X73066557Y-54753412D01*
X73132246Y-54551243D01*
X73165500Y-54341287D01*
X73165500Y-54128713D01*
X73132246Y-53918757D01*
X73066557Y-53716588D01*
X72970051Y-53527184D01*
X72970049Y-53527181D01*
X72970048Y-53527179D01*
X72845109Y-53355213D01*
X72694786Y-53204890D01*
X72522820Y-53079951D01*
X72522115Y-53079591D01*
X72514054Y-53075485D01*
X72463259Y-53027512D01*
X72446463Y-52959692D01*
X72468999Y-52893556D01*
X72514054Y-52854515D01*
X72522816Y-52850051D01*
X72565662Y-52818922D01*
X72694786Y-52725109D01*
X72694788Y-52725106D01*
X72694792Y-52725104D01*
X72845104Y-52574792D01*
X72845106Y-52574788D01*
X72845109Y-52574786D01*
X72970048Y-52402820D01*
X72970047Y-52402820D01*
X72970051Y-52402816D01*
X73066557Y-52213412D01*
X73132246Y-52011243D01*
X73165500Y-51801287D01*
X73165500Y-51588713D01*
X73132246Y-51378757D01*
X73066557Y-51176588D01*
X72970051Y-50987184D01*
X72962023Y-50976134D01*
X72845109Y-50815213D01*
X72694786Y-50664890D01*
X72522820Y-50539951D01*
X72333414Y-50443444D01*
X72333413Y-50443443D01*
X72333412Y-50443443D01*
X72131243Y-50377754D01*
X72131241Y-50377753D01*
X72131240Y-50377753D01*
X71969957Y-50352208D01*
X71921287Y-50344500D01*
X71708713Y-50344500D01*
X71660042Y-50352208D01*
X71498760Y-50377753D01*
X71296585Y-50443444D01*
X71107179Y-50539951D01*
X70935213Y-50664890D01*
X70784890Y-50815213D01*
X70659949Y-50987182D01*
X70655484Y-50995946D01*
X70607509Y-51046742D01*
X70539688Y-51063536D01*
X70473553Y-51040998D01*
X70434516Y-50995946D01*
X70430050Y-50987182D01*
X70305109Y-50815213D01*
X70154786Y-50664890D01*
X69982820Y-50539951D01*
X69793414Y-50443444D01*
X69793413Y-50443443D01*
X69793412Y-50443443D01*
X69591243Y-50377754D01*
X69591241Y-50377753D01*
X69591240Y-50377753D01*
X69429957Y-50352208D01*
X69381287Y-50344500D01*
X69168713Y-50344500D01*
X69120042Y-50352208D01*
X68958760Y-50377753D01*
X68756585Y-50443444D01*
X68567179Y-50539951D01*
X68395213Y-50664890D01*
X68244890Y-50815213D01*
X68119951Y-50987179D01*
X68023444Y-51176585D01*
X67957753Y-51378760D01*
X67935367Y-51520099D01*
X67924500Y-51588713D01*
X67924500Y-51801287D01*
X67957754Y-52011243D01*
X68015308Y-52188376D01*
X68023445Y-52213417D01*
X68073674Y-52311998D01*
X68086570Y-52380667D01*
X68060293Y-52445407D01*
X68050870Y-52455973D01*
X65301396Y-55205448D01*
X65301387Y-55205457D01*
X65298910Y-55207935D01*
X65237935Y-55268910D01*
X65225500Y-55290446D01*
X65216994Y-55299974D01*
X65197733Y-55311950D01*
X65181321Y-55327600D01*
X65168633Y-55330045D01*
X65157660Y-55336869D01*
X65134984Y-55336531D01*
X65112714Y-55340824D01*
X65100717Y-55336021D01*
X65087798Y-55335829D01*
X65068903Y-55323284D01*
X65047849Y-55314856D01*
X65040353Y-55304330D01*
X65029589Y-55297184D01*
X65020475Y-55276416D01*
X65007320Y-55257942D01*
X65004183Y-55239287D01*
X65001513Y-55233203D01*
X65002313Y-55228169D01*
X65000500Y-55217385D01*
X65000500Y-38671153D01*
X72199500Y-38671153D01*
X72199500Y-38828846D01*
X72230261Y-38983489D01*
X72230264Y-38983501D01*
X72290602Y-39129172D01*
X72290609Y-39129185D01*
X72378210Y-39260288D01*
X72378213Y-39260292D01*
X72489707Y-39371786D01*
X72489711Y-39371789D01*
X72620814Y-39459390D01*
X72620827Y-39459397D01*
X72737445Y-39507701D01*
X72766503Y-39519737D01*
X72893689Y-39545036D01*
X72921153Y-39550499D01*
X72921156Y-39550500D01*
X72921158Y-39550500D01*
X73078844Y-39550500D01*
X73078845Y-39550499D01*
X73233497Y-39519737D01*
X73262554Y-39507701D01*
X73332023Y-39500231D01*
X73394503Y-39531505D01*
X73397689Y-39534580D01*
X74727199Y-40864090D01*
X74788174Y-40925065D01*
X74862854Y-40968181D01*
X74946148Y-40990500D01*
X83031591Y-40990500D01*
X83098630Y-41010185D01*
X83144385Y-41062989D01*
X83154064Y-41095102D01*
X83182753Y-41276239D01*
X83248444Y-41478414D01*
X83344951Y-41667820D01*
X83469890Y-41839786D01*
X83620213Y-41990109D01*
X83792182Y-42115050D01*
X83800946Y-42119516D01*
X83851742Y-42167491D01*
X83868536Y-42235312D01*
X83845998Y-42301447D01*
X83800946Y-42340484D01*
X83792182Y-42344949D01*
X83620213Y-42469890D01*
X83469890Y-42620213D01*
X83344951Y-42792179D01*
X83248444Y-42981585D01*
X83182753Y-43183760D01*
X83149500Y-43393713D01*
X83149500Y-43606287D01*
X83159534Y-43669644D01*
X83182753Y-43816239D01*
X83248444Y-44018414D01*
X83344951Y-44207820D01*
X83469890Y-44379786D01*
X83620213Y-44530109D01*
X83792182Y-44655050D01*
X83800946Y-44659516D01*
X83851742Y-44707491D01*
X83868536Y-44775312D01*
X83845998Y-44841447D01*
X83800946Y-44880484D01*
X83792182Y-44884949D01*
X83620213Y-45009890D01*
X83469890Y-45160213D01*
X83344951Y-45332179D01*
X83248444Y-45521585D01*
X83182753Y-45723760D01*
X83149500Y-45933713D01*
X83149500Y-46146287D01*
X83159534Y-46209644D01*
X83182753Y-46356239D01*
X83248444Y-46558414D01*
X83344951Y-46747820D01*
X83469890Y-46919786D01*
X83620213Y-47070109D01*
X83792182Y-47195050D01*
X83800946Y-47199516D01*
X83851742Y-47247491D01*
X83868536Y-47315312D01*
X83845998Y-47381447D01*
X83800946Y-47420484D01*
X83792182Y-47424949D01*
X83620213Y-47549890D01*
X83469890Y-47700213D01*
X83344951Y-47872179D01*
X83248444Y-48061585D01*
X83182753Y-48263760D01*
X83149500Y-48473713D01*
X83149500Y-48686287D01*
X83159534Y-48749644D01*
X83182753Y-48896239D01*
X83248444Y-49098414D01*
X83344951Y-49287820D01*
X83469890Y-49459786D01*
X83620213Y-49610109D01*
X83792179Y-49735048D01*
X83792181Y-49735049D01*
X83792184Y-49735051D01*
X83801493Y-49739794D01*
X83852290Y-49787766D01*
X83869087Y-49855587D01*
X83846552Y-49921722D01*
X83801505Y-49960760D01*
X83792446Y-49965376D01*
X83792440Y-49965380D01*
X83738282Y-50004727D01*
X83738282Y-50004728D01*
X84370591Y-50637037D01*
X84307007Y-50654075D01*
X84192993Y-50719901D01*
X84099901Y-50812993D01*
X84034075Y-50927007D01*
X84017037Y-50990591D01*
X83384728Y-50358282D01*
X83384727Y-50358282D01*
X83345380Y-50412439D01*
X83248904Y-50601782D01*
X83183242Y-50803869D01*
X83183242Y-50803872D01*
X83150000Y-51013753D01*
X83150000Y-51226246D01*
X83183242Y-51436127D01*
X83183242Y-51436130D01*
X83248904Y-51638217D01*
X83345375Y-51827550D01*
X83384728Y-51881716D01*
X84017037Y-51249408D01*
X84034075Y-51312993D01*
X84099901Y-51427007D01*
X84192993Y-51520099D01*
X84307007Y-51585925D01*
X84370590Y-51602962D01*
X83738282Y-52235269D01*
X83738282Y-52235270D01*
X83792452Y-52274626D01*
X83792451Y-52274626D01*
X83801495Y-52279234D01*
X83852292Y-52327208D01*
X83869087Y-52395029D01*
X83846550Y-52461164D01*
X83801499Y-52500202D01*
X83792182Y-52504949D01*
X83620213Y-52629890D01*
X83469890Y-52780213D01*
X83344951Y-52952179D01*
X83248444Y-53141585D01*
X83182753Y-53343760D01*
X83159090Y-53493165D01*
X83149500Y-53553713D01*
X83149500Y-53766287D01*
X83150619Y-53773349D01*
X83182753Y-53976239D01*
X83248444Y-54178414D01*
X83344951Y-54367820D01*
X83469890Y-54539786D01*
X83620213Y-54690109D01*
X83792182Y-54815050D01*
X83800946Y-54819516D01*
X83851742Y-54867491D01*
X83868536Y-54935312D01*
X83845998Y-55001447D01*
X83800946Y-55040484D01*
X83792182Y-55044949D01*
X83620213Y-55169890D01*
X83469890Y-55320213D01*
X83344951Y-55492179D01*
X83248444Y-55681585D01*
X83182753Y-55883760D01*
X83153703Y-56067179D01*
X83149500Y-56093713D01*
X83149500Y-56306287D01*
X83150619Y-56313349D01*
X83177109Y-56480606D01*
X83182754Y-56516243D01*
X83235868Y-56679711D01*
X83248444Y-56718414D01*
X83344951Y-56907820D01*
X83469890Y-57079786D01*
X83620213Y-57230109D01*
X83792182Y-57355050D01*
X83800946Y-57359516D01*
X83851742Y-57407491D01*
X83868536Y-57475312D01*
X83845998Y-57541447D01*
X83800946Y-57580484D01*
X83792182Y-57584949D01*
X83620213Y-57709890D01*
X83469890Y-57860213D01*
X83344951Y-58032179D01*
X83248444Y-58221585D01*
X83182753Y-58423760D01*
X83157346Y-58584175D01*
X83149500Y-58633713D01*
X83149500Y-58846287D01*
X83150619Y-58853349D01*
X83178077Y-59026717D01*
X83182754Y-59056243D01*
X83187931Y-59072177D01*
X83248444Y-59258414D01*
X83344951Y-59447820D01*
X83469890Y-59619786D01*
X83620213Y-59770109D01*
X83792182Y-59895050D01*
X83800946Y-59899516D01*
X83851742Y-59947491D01*
X83868536Y-60015312D01*
X83845998Y-60081447D01*
X83800946Y-60120484D01*
X83792182Y-60124949D01*
X83620213Y-60249890D01*
X83469890Y-60400213D01*
X83344951Y-60572179D01*
X83248444Y-60761585D01*
X83182753Y-60963760D01*
X83162239Y-61093282D01*
X83149500Y-61173713D01*
X83149500Y-61386287D01*
X83182754Y-61596243D01*
X83245441Y-61789174D01*
X83248444Y-61798414D01*
X83344951Y-61987820D01*
X83469890Y-62159786D01*
X83620213Y-62310109D01*
X83792179Y-62435048D01*
X83792181Y-62435049D01*
X83792184Y-62435051D01*
X83801493Y-62439794D01*
X83852290Y-62487766D01*
X83869087Y-62555587D01*
X83846552Y-62621722D01*
X83801505Y-62660760D01*
X83792446Y-62665376D01*
X83792440Y-62665380D01*
X83738282Y-62704727D01*
X83738282Y-62704728D01*
X84370591Y-63337037D01*
X84307007Y-63354075D01*
X84192993Y-63419901D01*
X84099901Y-63512993D01*
X84034075Y-63627007D01*
X84017037Y-63690591D01*
X83384728Y-63058282D01*
X83384727Y-63058282D01*
X83345380Y-63112439D01*
X83248904Y-63301782D01*
X83183242Y-63503869D01*
X83183242Y-63503872D01*
X83150000Y-63713753D01*
X83150000Y-63926246D01*
X83183242Y-64136127D01*
X83183242Y-64136130D01*
X83248904Y-64338217D01*
X83345375Y-64527550D01*
X83384728Y-64581716D01*
X84017037Y-63949408D01*
X84034075Y-64012993D01*
X84099901Y-64127007D01*
X84192993Y-64220099D01*
X84307007Y-64285925D01*
X84370590Y-64302962D01*
X83738282Y-64935269D01*
X83738282Y-64935270D01*
X83792452Y-64974626D01*
X83792451Y-64974626D01*
X83801495Y-64979234D01*
X83852292Y-65027208D01*
X83869087Y-65095029D01*
X83846550Y-65161164D01*
X83801499Y-65200202D01*
X83792182Y-65204949D01*
X83620213Y-65329890D01*
X83469890Y-65480213D01*
X83344951Y-65652179D01*
X83248444Y-65841585D01*
X83182753Y-66043760D01*
X83171516Y-66114711D01*
X83149500Y-66253713D01*
X83149500Y-66466287D01*
X83158094Y-66520548D01*
X83181948Y-66671158D01*
X83182754Y-66676243D01*
X83241972Y-66858497D01*
X83248444Y-66878414D01*
X83344951Y-67067820D01*
X83469890Y-67239786D01*
X83620213Y-67390109D01*
X83792182Y-67515050D01*
X83800946Y-67519516D01*
X83851742Y-67567491D01*
X83868536Y-67635312D01*
X83845998Y-67701447D01*
X83800946Y-67740484D01*
X83792182Y-67744949D01*
X83620213Y-67869890D01*
X83469890Y-68020213D01*
X83344951Y-68192179D01*
X83248444Y-68381585D01*
X83182753Y-68583760D01*
X83176419Y-68623753D01*
X83149500Y-68793713D01*
X83149500Y-69006287D01*
X83156390Y-69049786D01*
X83180198Y-69200109D01*
X83182754Y-69216243D01*
X83237081Y-69383445D01*
X83248444Y-69418414D01*
X83344951Y-69607820D01*
X83469890Y-69779786D01*
X83620213Y-69930109D01*
X83792182Y-70055050D01*
X83800946Y-70059516D01*
X83851742Y-70107491D01*
X83868536Y-70175312D01*
X83845998Y-70241447D01*
X83800946Y-70280484D01*
X83792182Y-70284949D01*
X83620213Y-70409890D01*
X83469890Y-70560213D01*
X83344951Y-70732179D01*
X83248444Y-70921585D01*
X83182753Y-71123760D01*
X83176419Y-71163753D01*
X83149500Y-71333713D01*
X83149500Y-71546287D01*
X83156390Y-71589786D01*
X83180198Y-71740109D01*
X83182754Y-71756243D01*
X83237081Y-71923445D01*
X83248444Y-71958414D01*
X83344951Y-72147820D01*
X83469890Y-72319786D01*
X83620213Y-72470109D01*
X83792182Y-72595050D01*
X83800946Y-72599516D01*
X83851742Y-72647491D01*
X83868536Y-72715312D01*
X83845998Y-72781447D01*
X83800946Y-72820484D01*
X83792182Y-72824949D01*
X83620213Y-72949890D01*
X83469890Y-73100213D01*
X83344951Y-73272179D01*
X83248444Y-73461585D01*
X83182753Y-73663760D01*
X83170017Y-73744174D01*
X83149500Y-73873713D01*
X83149500Y-74086287D01*
X83156390Y-74129786D01*
X83180198Y-74280109D01*
X83182754Y-74296243D01*
X83237081Y-74463445D01*
X83248444Y-74498414D01*
X83344951Y-74687820D01*
X83469890Y-74859786D01*
X83620213Y-75010109D01*
X83792179Y-75135048D01*
X83792181Y-75135049D01*
X83792184Y-75135051D01*
X83801493Y-75139794D01*
X83852290Y-75187766D01*
X83869087Y-75255587D01*
X83846552Y-75321722D01*
X83801505Y-75360760D01*
X83792446Y-75365376D01*
X83792440Y-75365380D01*
X83738282Y-75404727D01*
X83738282Y-75404728D01*
X84370591Y-76037037D01*
X84307007Y-76054075D01*
X84192993Y-76119901D01*
X84099901Y-76212993D01*
X84034075Y-76327007D01*
X84017037Y-76390591D01*
X83384728Y-75758282D01*
X83384727Y-75758282D01*
X83345380Y-75812439D01*
X83248904Y-76001782D01*
X83183242Y-76203869D01*
X83183242Y-76203872D01*
X83150000Y-76413753D01*
X83150000Y-76626246D01*
X83183242Y-76836127D01*
X83183242Y-76836130D01*
X83248904Y-77038217D01*
X83345375Y-77227550D01*
X83384728Y-77281716D01*
X84017037Y-76649408D01*
X84034075Y-76712993D01*
X84099901Y-76827007D01*
X84192993Y-76920099D01*
X84307007Y-76985925D01*
X84370590Y-77002962D01*
X83738282Y-77635269D01*
X83738282Y-77635270D01*
X83792452Y-77674626D01*
X83792451Y-77674626D01*
X83801495Y-77679234D01*
X83852292Y-77727208D01*
X83869087Y-77795029D01*
X83846550Y-77861164D01*
X83801499Y-77900202D01*
X83792182Y-77904949D01*
X83620213Y-78029890D01*
X83469890Y-78180213D01*
X83344951Y-78352179D01*
X83248444Y-78541585D01*
X83182753Y-78743760D01*
X83174491Y-78795925D01*
X83149500Y-78953713D01*
X83149500Y-79166287D01*
X83182754Y-79376243D01*
X83217969Y-79484624D01*
X83248444Y-79578414D01*
X83344951Y-79767820D01*
X83469890Y-79939786D01*
X83620213Y-80090109D01*
X83792182Y-80215050D01*
X83800946Y-80219516D01*
X83851742Y-80267491D01*
X83868536Y-80335312D01*
X83845998Y-80401447D01*
X83800946Y-80440484D01*
X83792182Y-80444949D01*
X83620213Y-80569890D01*
X83469890Y-80720213D01*
X83344951Y-80892179D01*
X83248444Y-81081585D01*
X83182753Y-81283760D01*
X83157092Y-81445780D01*
X83149500Y-81493713D01*
X83149500Y-81706287D01*
X83150400Y-81711968D01*
X83182753Y-81916239D01*
X83248444Y-82118414D01*
X83344951Y-82307820D01*
X83469890Y-82479786D01*
X83620213Y-82630109D01*
X83792179Y-82755048D01*
X83792181Y-82755049D01*
X83792184Y-82755051D01*
X83981588Y-82851557D01*
X84183757Y-82917246D01*
X84393713Y-82950500D01*
X84393714Y-82950500D01*
X84606286Y-82950500D01*
X84606287Y-82950500D01*
X84816243Y-82917246D01*
X85018412Y-82851557D01*
X85207816Y-82755051D01*
X85269752Y-82710052D01*
X85379786Y-82630109D01*
X85379788Y-82630106D01*
X85379792Y-82630104D01*
X85530104Y-82479792D01*
X85530106Y-82479788D01*
X85530109Y-82479786D01*
X85655048Y-82307820D01*
X85655047Y-82307820D01*
X85655051Y-82307816D01*
X85751557Y-82118412D01*
X85817246Y-81916243D01*
X85850500Y-81706287D01*
X85850500Y-81493713D01*
X85817246Y-81283757D01*
X85751557Y-81081588D01*
X85655051Y-80892184D01*
X85553483Y-80752387D01*
X87059500Y-80752387D01*
X87059500Y-80927612D01*
X87093681Y-81099450D01*
X87093684Y-81099462D01*
X87160732Y-81261331D01*
X87160734Y-81261334D01*
X87160735Y-81261336D01*
X87176542Y-81284992D01*
X87176886Y-81285508D01*
X87176983Y-81285724D01*
X87177578Y-81286543D01*
X87178920Y-81288552D01*
X87258079Y-81407023D01*
X87258081Y-81407025D01*
X87276894Y-81425837D01*
X87283796Y-81432739D01*
X87286525Y-81436495D01*
X87296837Y-81445780D01*
X87381977Y-81530920D01*
X87418492Y-81555319D01*
X87425020Y-81561197D01*
X87441715Y-81570835D01*
X87445092Y-81573092D01*
X87527659Y-81628262D01*
X87527660Y-81628262D01*
X87527664Y-81628265D01*
X87575515Y-81648085D01*
X87586415Y-81654379D01*
X87606333Y-81660850D01*
X87689542Y-81695317D01*
X87748509Y-81707046D01*
X87763657Y-81711968D01*
X87783996Y-81714105D01*
X87861392Y-81729500D01*
X87930457Y-81729500D01*
X87949000Y-81731449D01*
X87967543Y-81729500D01*
X88036607Y-81729500D01*
X88036608Y-81729500D01*
X88114004Y-81714104D01*
X88134343Y-81711968D01*
X88149485Y-81707047D01*
X88208458Y-81695317D01*
X88291678Y-81660846D01*
X88311585Y-81654379D01*
X88322484Y-81648085D01*
X88370336Y-81628265D01*
X88456295Y-81570828D01*
X88472980Y-81561197D01*
X88479505Y-81555320D01*
X88516023Y-81530920D01*
X88601172Y-81445770D01*
X88611475Y-81436495D01*
X88614200Y-81432742D01*
X88639920Y-81407023D01*
X88720432Y-81286527D01*
X88721017Y-81285724D01*
X88721111Y-81285511D01*
X88737265Y-81261336D01*
X88804317Y-81099458D01*
X88838500Y-80927608D01*
X88838500Y-80752392D01*
X88838499Y-80752387D01*
X98459500Y-80752387D01*
X98459500Y-80927612D01*
X98493681Y-81099450D01*
X98493684Y-81099462D01*
X98560732Y-81261331D01*
X98560734Y-81261334D01*
X98560735Y-81261336D01*
X98576542Y-81284992D01*
X98576886Y-81285508D01*
X98576983Y-81285724D01*
X98577578Y-81286543D01*
X98578920Y-81288552D01*
X98658079Y-81407023D01*
X98658081Y-81407025D01*
X98676894Y-81425837D01*
X98683796Y-81432739D01*
X98686525Y-81436495D01*
X98696837Y-81445780D01*
X98781977Y-81530920D01*
X98818492Y-81555319D01*
X98825020Y-81561197D01*
X98841715Y-81570835D01*
X98845092Y-81573092D01*
X98927659Y-81628262D01*
X98927660Y-81628262D01*
X98927664Y-81628265D01*
X98975515Y-81648085D01*
X98986415Y-81654379D01*
X99006333Y-81660850D01*
X99089542Y-81695317D01*
X99148509Y-81707046D01*
X99163657Y-81711968D01*
X99183996Y-81714105D01*
X99261392Y-81729500D01*
X99330457Y-81729500D01*
X99349000Y-81731449D01*
X99367543Y-81729500D01*
X99436607Y-81729500D01*
X99436608Y-81729500D01*
X99514004Y-81714104D01*
X99534343Y-81711968D01*
X99549485Y-81707047D01*
X99608458Y-81695317D01*
X99691678Y-81660846D01*
X99711585Y-81654379D01*
X99722484Y-81648085D01*
X99770336Y-81628265D01*
X99856295Y-81570828D01*
X99872980Y-81561197D01*
X99879505Y-81555320D01*
X99916023Y-81530920D01*
X100001172Y-81445770D01*
X100011475Y-81436495D01*
X100014200Y-81432742D01*
X100039920Y-81407023D01*
X100120432Y-81286527D01*
X100121017Y-81285724D01*
X100121111Y-81285511D01*
X100137265Y-81261336D01*
X100204317Y-81099458D01*
X100238500Y-80927608D01*
X100238500Y-80752392D01*
X100204317Y-80580542D01*
X100176346Y-80513014D01*
X100137267Y-80418668D01*
X100137265Y-80418665D01*
X100137265Y-80418664D01*
X100121111Y-80394488D01*
X100121017Y-80394276D01*
X100120429Y-80393468D01*
X100039920Y-80272977D01*
X100039918Y-80272974D01*
X100021107Y-80254164D01*
X100014203Y-80247260D01*
X100011475Y-80243505D01*
X100001162Y-80234219D01*
X99998877Y-80231934D01*
X99916023Y-80149080D01*
X99916022Y-80149079D01*
X99916021Y-80149078D01*
X99886943Y-80129649D01*
X99886943Y-80129648D01*
X99879506Y-80124679D01*
X99872980Y-80118803D01*
X99856282Y-80109162D01*
X99852920Y-80106916D01*
X99770336Y-80051735D01*
X99770332Y-80051733D01*
X99729995Y-80035025D01*
X99722486Y-80031915D01*
X99711585Y-80025621D01*
X99691663Y-80019147D01*
X99608458Y-79984683D01*
X99608456Y-79984682D01*
X99608451Y-79984680D01*
X99556660Y-79974379D01*
X99556658Y-79974379D01*
X99549486Y-79972952D01*
X99534343Y-79968032D01*
X99514009Y-79965894D01*
X99508440Y-79964787D01*
X99508432Y-79964786D01*
X99453553Y-79953870D01*
X99436608Y-79950500D01*
X99367534Y-79950500D01*
X99349000Y-79948552D01*
X99330466Y-79950500D01*
X99261392Y-79950500D01*
X99189568Y-79964785D01*
X99189567Y-79964784D01*
X99183973Y-79965896D01*
X99163657Y-79968032D01*
X99148527Y-79972947D01*
X99141348Y-79974376D01*
X99141342Y-79974378D01*
X99089546Y-79984681D01*
X99010834Y-80017283D01*
X99010835Y-80017284D01*
X99006327Y-80019150D01*
X98986415Y-80025621D01*
X98975513Y-80031914D01*
X98968003Y-80035026D01*
X98968001Y-80035026D01*
X98927661Y-80051736D01*
X98845084Y-80106909D01*
X98845085Y-80106910D01*
X98841689Y-80109178D01*
X98825020Y-80118803D01*
X98818499Y-80124673D01*
X98811069Y-80129639D01*
X98811063Y-80129644D01*
X98781974Y-80149082D01*
X98781969Y-80149086D01*
X98699119Y-80231935D01*
X98696806Y-80234247D01*
X98686525Y-80243505D01*
X98683804Y-80247249D01*
X98658084Y-80272970D01*
X98658077Y-80272980D01*
X98578896Y-80391478D01*
X98578897Y-80391479D01*
X98577547Y-80393499D01*
X98576983Y-80394276D01*
X98576892Y-80394479D01*
X98574431Y-80398164D01*
X98574429Y-80398164D01*
X98574428Y-80398168D01*
X98560735Y-80418662D01*
X98560733Y-80418665D01*
X98493684Y-80580537D01*
X98493681Y-80580549D01*
X98459500Y-80752387D01*
X88838499Y-80752387D01*
X88804317Y-80580542D01*
X88776346Y-80513014D01*
X88737267Y-80418668D01*
X88737265Y-80418665D01*
X88737265Y-80418664D01*
X88721111Y-80394488D01*
X88721017Y-80394276D01*
X88720429Y-80393468D01*
X88639920Y-80272977D01*
X88639918Y-80272974D01*
X88621107Y-80254164D01*
X88614203Y-80247260D01*
X88611475Y-80243505D01*
X88601162Y-80234219D01*
X88598877Y-80231934D01*
X88516023Y-80149080D01*
X88516022Y-80149079D01*
X88516021Y-80149078D01*
X88486943Y-80129649D01*
X88486943Y-80129648D01*
X88479506Y-80124679D01*
X88472980Y-80118803D01*
X88456282Y-80109162D01*
X88452920Y-80106916D01*
X88370336Y-80051735D01*
X88370332Y-80051733D01*
X88329995Y-80035025D01*
X88322486Y-80031915D01*
X88311585Y-80025621D01*
X88291663Y-80019147D01*
X88208458Y-79984683D01*
X88208456Y-79984682D01*
X88208451Y-79984680D01*
X88156660Y-79974379D01*
X88156658Y-79974379D01*
X88149486Y-79972952D01*
X88134343Y-79968032D01*
X88114009Y-79965894D01*
X88108440Y-79964787D01*
X88108432Y-79964786D01*
X88053553Y-79953870D01*
X88036608Y-79950500D01*
X87967534Y-79950500D01*
X87949000Y-79948552D01*
X87930466Y-79950500D01*
X87861392Y-79950500D01*
X87789568Y-79964785D01*
X87789567Y-79964784D01*
X87783973Y-79965896D01*
X87763657Y-79968032D01*
X87748527Y-79972947D01*
X87741348Y-79974376D01*
X87741342Y-79974378D01*
X87689546Y-79984681D01*
X87610834Y-80017283D01*
X87610835Y-80017284D01*
X87606327Y-80019150D01*
X87586415Y-80025621D01*
X87575513Y-80031914D01*
X87568003Y-80035026D01*
X87568001Y-80035026D01*
X87527661Y-80051736D01*
X87445084Y-80106909D01*
X87445085Y-80106910D01*
X87441689Y-80109178D01*
X87425020Y-80118803D01*
X87418499Y-80124673D01*
X87411069Y-80129639D01*
X87411063Y-80129644D01*
X87381974Y-80149082D01*
X87381969Y-80149086D01*
X87299119Y-80231935D01*
X87296806Y-80234247D01*
X87286525Y-80243505D01*
X87283804Y-80247249D01*
X87258084Y-80272970D01*
X87258077Y-80272980D01*
X87178896Y-80391478D01*
X87178897Y-80391479D01*
X87177547Y-80393499D01*
X87176983Y-80394276D01*
X87176892Y-80394479D01*
X87174431Y-80398164D01*
X87174429Y-80398164D01*
X87174428Y-80398168D01*
X87160735Y-80418662D01*
X87160733Y-80418665D01*
X87093684Y-80580537D01*
X87093681Y-80580549D01*
X87059500Y-80752387D01*
X85553483Y-80752387D01*
X85530104Y-80720208D01*
X85379792Y-80569896D01*
X85379786Y-80569890D01*
X85207820Y-80444951D01*
X85205953Y-80444000D01*
X85199054Y-80440485D01*
X85148259Y-80392512D01*
X85131463Y-80324692D01*
X85153999Y-80258556D01*
X85199054Y-80219515D01*
X85207816Y-80215051D01*
X85298610Y-80149086D01*
X85379786Y-80090109D01*
X85379788Y-80090106D01*
X85379792Y-80090104D01*
X85530104Y-79939792D01*
X85530106Y-79939788D01*
X85530109Y-79939786D01*
X85655048Y-79767820D01*
X85655047Y-79767820D01*
X85655051Y-79767816D01*
X85751557Y-79578412D01*
X85817246Y-79376243D01*
X85850500Y-79166287D01*
X85850500Y-78953713D01*
X85817246Y-78743757D01*
X85751557Y-78541588D01*
X85655051Y-78352184D01*
X85655049Y-78352181D01*
X85655048Y-78352179D01*
X85530109Y-78180213D01*
X85379786Y-78029890D01*
X85207817Y-77904949D01*
X85198504Y-77900204D01*
X85147707Y-77852230D01*
X85130912Y-77784409D01*
X85153449Y-77718274D01*
X85198507Y-77679232D01*
X85207555Y-77674622D01*
X85261716Y-77635270D01*
X85261717Y-77635270D01*
X84629408Y-77002962D01*
X84692993Y-76985925D01*
X84807007Y-76920099D01*
X84900099Y-76827007D01*
X84965925Y-76712993D01*
X84982962Y-76649408D01*
X85615270Y-77281717D01*
X85615270Y-77281716D01*
X85654622Y-77227554D01*
X85751095Y-77038217D01*
X85816757Y-76836130D01*
X85816757Y-76836127D01*
X85850000Y-76626246D01*
X85850000Y-76413753D01*
X85819484Y-76221085D01*
X85819484Y-76221084D01*
X85816758Y-76203874D01*
X85816757Y-76203869D01*
X85751095Y-76001782D01*
X85654624Y-75812449D01*
X85615270Y-75758282D01*
X85615269Y-75758282D01*
X84982962Y-76390590D01*
X84965925Y-76327007D01*
X84900099Y-76212993D01*
X84807007Y-76119901D01*
X84692993Y-76054075D01*
X84629409Y-76037037D01*
X85261716Y-75404728D01*
X85207547Y-75365373D01*
X85207547Y-75365372D01*
X85198500Y-75360763D01*
X85147706Y-75312788D01*
X85130912Y-75244966D01*
X85153451Y-75178832D01*
X85198508Y-75139793D01*
X85207816Y-75135051D01*
X85308975Y-75061555D01*
X85379786Y-75010109D01*
X85379788Y-75010106D01*
X85379792Y-75010104D01*
X85530104Y-74859792D01*
X85530106Y-74859788D01*
X85530109Y-74859786D01*
X85655048Y-74687820D01*
X85655047Y-74687820D01*
X85655051Y-74687816D01*
X85751557Y-74498412D01*
X85817246Y-74296243D01*
X85850500Y-74086287D01*
X85850500Y-73873713D01*
X85817246Y-73663757D01*
X85751557Y-73461588D01*
X85655051Y-73272184D01*
X85655049Y-73272181D01*
X85655048Y-73272179D01*
X85530109Y-73100213D01*
X85379786Y-72949890D01*
X85207820Y-72824951D01*
X85207115Y-72824591D01*
X85199054Y-72820485D01*
X85148259Y-72772512D01*
X85131463Y-72704692D01*
X85153999Y-72638556D01*
X85199054Y-72599515D01*
X85207816Y-72595051D01*
X85268522Y-72550946D01*
X85379786Y-72470109D01*
X85379788Y-72470106D01*
X85379792Y-72470104D01*
X85530104Y-72319792D01*
X85530106Y-72319788D01*
X85530109Y-72319786D01*
X85655048Y-72147820D01*
X85655047Y-72147820D01*
X85655051Y-72147816D01*
X85751557Y-71958412D01*
X85817246Y-71756243D01*
X85850500Y-71546287D01*
X85850500Y-71333713D01*
X85817246Y-71123757D01*
X85751557Y-70921588D01*
X85655051Y-70732184D01*
X85655049Y-70732181D01*
X85655048Y-70732179D01*
X85530109Y-70560213D01*
X85379786Y-70409890D01*
X85207820Y-70284951D01*
X85207115Y-70284591D01*
X85199054Y-70280485D01*
X85148259Y-70232512D01*
X85131463Y-70164692D01*
X85153999Y-70098556D01*
X85199054Y-70059515D01*
X85207816Y-70055051D01*
X85268522Y-70010946D01*
X85379786Y-69930109D01*
X85379788Y-69930106D01*
X85379792Y-69930104D01*
X85530104Y-69779792D01*
X85530106Y-69779788D01*
X85530109Y-69779786D01*
X85655048Y-69607820D01*
X85655047Y-69607820D01*
X85655051Y-69607816D01*
X85751557Y-69418412D01*
X85817246Y-69216243D01*
X85850500Y-69006287D01*
X85850500Y-68793713D01*
X85817246Y-68583757D01*
X85751557Y-68381588D01*
X85655051Y-68192184D01*
X85655049Y-68192181D01*
X85655048Y-68192179D01*
X85530109Y-68020213D01*
X85379786Y-67869890D01*
X85207820Y-67744951D01*
X85207115Y-67744591D01*
X85199054Y-67740485D01*
X85148259Y-67692512D01*
X85131463Y-67624692D01*
X85153999Y-67558556D01*
X85199054Y-67519515D01*
X85207816Y-67515051D01*
X85280582Y-67462184D01*
X85379786Y-67390109D01*
X85379788Y-67390106D01*
X85379792Y-67390104D01*
X85530104Y-67239792D01*
X85530106Y-67239788D01*
X85530109Y-67239786D01*
X85655048Y-67067820D01*
X85655047Y-67067820D01*
X85655051Y-67067816D01*
X85751557Y-66878412D01*
X85817246Y-66676243D01*
X85850500Y-66466287D01*
X85850500Y-66253713D01*
X85817246Y-66043757D01*
X85751557Y-65841588D01*
X85655051Y-65652184D01*
X85655049Y-65652181D01*
X85655048Y-65652179D01*
X85530109Y-65480213D01*
X85379786Y-65329890D01*
X85207817Y-65204949D01*
X85198504Y-65200204D01*
X85147707Y-65152230D01*
X85130912Y-65084409D01*
X85153449Y-65018274D01*
X85198507Y-64979232D01*
X85207555Y-64974622D01*
X85261716Y-64935270D01*
X85261717Y-64935270D01*
X84629408Y-64302962D01*
X84692993Y-64285925D01*
X84807007Y-64220099D01*
X84900099Y-64127007D01*
X84965925Y-64012993D01*
X84982962Y-63949408D01*
X85615270Y-64581717D01*
X85615270Y-64581716D01*
X85654622Y-64527554D01*
X85751095Y-64338217D01*
X85816757Y-64136130D01*
X85816757Y-64136127D01*
X85850000Y-63926246D01*
X85850000Y-63713753D01*
X85819484Y-63521085D01*
X85819484Y-63521084D01*
X85816758Y-63503874D01*
X85816757Y-63503869D01*
X85751095Y-63301782D01*
X85654624Y-63112449D01*
X85615270Y-63058282D01*
X85615269Y-63058282D01*
X84982962Y-63690590D01*
X84965925Y-63627007D01*
X84900099Y-63512993D01*
X84807007Y-63419901D01*
X84692993Y-63354075D01*
X84629409Y-63337037D01*
X85261716Y-62704728D01*
X85207547Y-62665373D01*
X85207547Y-62665372D01*
X85198500Y-62660763D01*
X85147706Y-62612788D01*
X85130912Y-62544966D01*
X85153451Y-62478832D01*
X85198508Y-62439793D01*
X85207816Y-62435051D01*
X85317998Y-62355000D01*
X85379786Y-62310109D01*
X85379788Y-62310106D01*
X85379792Y-62310104D01*
X85530104Y-62159792D01*
X85530106Y-62159788D01*
X85530109Y-62159786D01*
X85655048Y-61987820D01*
X85655047Y-61987820D01*
X85655051Y-61987816D01*
X85751557Y-61798412D01*
X85817246Y-61596243D01*
X85850500Y-61386287D01*
X85850500Y-61173713D01*
X85817246Y-60963757D01*
X85751557Y-60761588D01*
X85655051Y-60572184D01*
X85655049Y-60572181D01*
X85655048Y-60572179D01*
X85530109Y-60400213D01*
X85379786Y-60249890D01*
X85207820Y-60124951D01*
X85207115Y-60124591D01*
X85199054Y-60120485D01*
X85148259Y-60072512D01*
X85131463Y-60004692D01*
X85153999Y-59938556D01*
X85199054Y-59899515D01*
X85207816Y-59895051D01*
X85292653Y-59833414D01*
X85379786Y-59770109D01*
X85379788Y-59770106D01*
X85379792Y-59770104D01*
X85530104Y-59619792D01*
X85530106Y-59619788D01*
X85530109Y-59619786D01*
X85655048Y-59447820D01*
X85655047Y-59447820D01*
X85655051Y-59447816D01*
X85751557Y-59258412D01*
X85817246Y-59056243D01*
X85850500Y-58846287D01*
X85850500Y-58633713D01*
X85817246Y-58423757D01*
X85751557Y-58221588D01*
X85655051Y-58032184D01*
X85655049Y-58032181D01*
X85655048Y-58032179D01*
X85530109Y-57860213D01*
X85379786Y-57709890D01*
X85207820Y-57584951D01*
X85207115Y-57584591D01*
X85199054Y-57580485D01*
X85148259Y-57532512D01*
X85131463Y-57464692D01*
X85153999Y-57398556D01*
X85199054Y-57359515D01*
X85207816Y-57355051D01*
X85277262Y-57304596D01*
X85379786Y-57230109D01*
X85379788Y-57230106D01*
X85379792Y-57230104D01*
X85530104Y-57079792D01*
X85530106Y-57079788D01*
X85530109Y-57079786D01*
X85655048Y-56907820D01*
X85655047Y-56907820D01*
X85655051Y-56907816D01*
X85751557Y-56718412D01*
X85817246Y-56516243D01*
X85850500Y-56306287D01*
X85850500Y-56093713D01*
X85817246Y-55883757D01*
X85751557Y-55681588D01*
X85655051Y-55492184D01*
X85655049Y-55492181D01*
X85655048Y-55492179D01*
X85530109Y-55320213D01*
X85379786Y-55169890D01*
X85207820Y-55044951D01*
X85207115Y-55044591D01*
X85199054Y-55040485D01*
X85148259Y-54992512D01*
X85131463Y-54924692D01*
X85153999Y-54858556D01*
X85199054Y-54819515D01*
X85207816Y-54815051D01*
X85260577Y-54776718D01*
X85379786Y-54690109D01*
X85379788Y-54690106D01*
X85379792Y-54690104D01*
X85530104Y-54539792D01*
X85530106Y-54539788D01*
X85530109Y-54539786D01*
X85655048Y-54367820D01*
X85655047Y-54367820D01*
X85655051Y-54367816D01*
X85751557Y-54178412D01*
X85817246Y-53976243D01*
X85850500Y-53766287D01*
X85850500Y-53553713D01*
X85817246Y-53343757D01*
X85751557Y-53141588D01*
X85655051Y-52952184D01*
X85655049Y-52952181D01*
X85655048Y-52952179D01*
X85530109Y-52780213D01*
X85379786Y-52629890D01*
X85207817Y-52504949D01*
X85198504Y-52500204D01*
X85147707Y-52452230D01*
X85130912Y-52384409D01*
X85153449Y-52318274D01*
X85198507Y-52279232D01*
X85207555Y-52274622D01*
X85261716Y-52235270D01*
X85261717Y-52235270D01*
X84629408Y-51602962D01*
X84692993Y-51585925D01*
X84807007Y-51520099D01*
X84900099Y-51427007D01*
X84965925Y-51312993D01*
X84982962Y-51249408D01*
X85615270Y-51881717D01*
X85615270Y-51881716D01*
X85654622Y-51827554D01*
X85751095Y-51638217D01*
X85816757Y-51436130D01*
X85816757Y-51436127D01*
X85850000Y-51226246D01*
X85850000Y-51013753D01*
X85819484Y-50821085D01*
X85819484Y-50821084D01*
X85816758Y-50803874D01*
X85816757Y-50803869D01*
X85751095Y-50601782D01*
X85654624Y-50412449D01*
X85615270Y-50358282D01*
X85615269Y-50358282D01*
X84982962Y-50990590D01*
X84965925Y-50927007D01*
X84900099Y-50812993D01*
X84807007Y-50719901D01*
X84692993Y-50654075D01*
X84629409Y-50637037D01*
X85261716Y-50004728D01*
X85207547Y-49965373D01*
X85207547Y-49965372D01*
X85198500Y-49960763D01*
X85147706Y-49912788D01*
X85130912Y-49844966D01*
X85153451Y-49778832D01*
X85198508Y-49739793D01*
X85207816Y-49735051D01*
X85287007Y-49677515D01*
X85379786Y-49610109D01*
X85379788Y-49610106D01*
X85379792Y-49610104D01*
X85530104Y-49459792D01*
X85530106Y-49459788D01*
X85530109Y-49459786D01*
X85655048Y-49287820D01*
X85655047Y-49287820D01*
X85655051Y-49287816D01*
X85751557Y-49098412D01*
X85817246Y-48896243D01*
X85850500Y-48686287D01*
X85850500Y-48473713D01*
X85817246Y-48263757D01*
X85751557Y-48061588D01*
X85655051Y-47872184D01*
X85655049Y-47872181D01*
X85655048Y-47872179D01*
X85530109Y-47700213D01*
X85379786Y-47549890D01*
X85207820Y-47424951D01*
X85207115Y-47424591D01*
X85199054Y-47420485D01*
X85148259Y-47372512D01*
X85131463Y-47304692D01*
X85153999Y-47238556D01*
X85199054Y-47199515D01*
X85207816Y-47195051D01*
X85248740Y-47165318D01*
X85379786Y-47070109D01*
X85379788Y-47070106D01*
X85379792Y-47070104D01*
X85530104Y-46919792D01*
X85530106Y-46919788D01*
X85530109Y-46919786D01*
X85655048Y-46747820D01*
X85655047Y-46747820D01*
X85655051Y-46747816D01*
X85751557Y-46558412D01*
X85817246Y-46356243D01*
X85850500Y-46146287D01*
X85850500Y-45933713D01*
X85817246Y-45723757D01*
X85751557Y-45521588D01*
X85655051Y-45332184D01*
X85655049Y-45332181D01*
X85655048Y-45332179D01*
X85530109Y-45160213D01*
X85379786Y-45009890D01*
X85207820Y-44884951D01*
X85207115Y-44884591D01*
X85199054Y-44880485D01*
X85148259Y-44832512D01*
X85131463Y-44764692D01*
X85153999Y-44698556D01*
X85199054Y-44659515D01*
X85207816Y-44655051D01*
X85248740Y-44625318D01*
X85379786Y-44530109D01*
X85379788Y-44530106D01*
X85379792Y-44530104D01*
X85530104Y-44379792D01*
X85530106Y-44379788D01*
X85530109Y-44379786D01*
X85655048Y-44207820D01*
X85655047Y-44207820D01*
X85655051Y-44207816D01*
X85751557Y-44018412D01*
X85817246Y-43816243D01*
X85850500Y-43606287D01*
X85850500Y-43393713D01*
X85817246Y-43183757D01*
X85751557Y-42981588D01*
X85655051Y-42792184D01*
X85655049Y-42792181D01*
X85655048Y-42792179D01*
X85530109Y-42620213D01*
X85379786Y-42469890D01*
X85207820Y-42344951D01*
X85207115Y-42344591D01*
X85199054Y-42340485D01*
X85148259Y-42292512D01*
X85131463Y-42224692D01*
X85153999Y-42158556D01*
X85199054Y-42119515D01*
X85207816Y-42115051D01*
X85248740Y-42085318D01*
X85379786Y-41990109D01*
X85379788Y-41990106D01*
X85379792Y-41990104D01*
X85530104Y-41839792D01*
X85530106Y-41839788D01*
X85530109Y-41839786D01*
X85655048Y-41667820D01*
X85655047Y-41667820D01*
X85655051Y-41667816D01*
X85751557Y-41478412D01*
X85817246Y-41276243D01*
X85850500Y-41066287D01*
X85850500Y-40853713D01*
X85817246Y-40643757D01*
X85751557Y-40441588D01*
X85655051Y-40252184D01*
X85655049Y-40252181D01*
X85655048Y-40252179D01*
X85530109Y-40080213D01*
X85379786Y-39929890D01*
X85207817Y-39804949D01*
X85198504Y-39800204D01*
X85147707Y-39752230D01*
X85130912Y-39684409D01*
X85153449Y-39618274D01*
X85198507Y-39579232D01*
X85207555Y-39574622D01*
X85261716Y-39535270D01*
X85261717Y-39535270D01*
X84629408Y-38902962D01*
X84692993Y-38885925D01*
X84807007Y-38820099D01*
X84900099Y-38727007D01*
X84965925Y-38612993D01*
X84982962Y-38549408D01*
X85615270Y-39181717D01*
X85615270Y-39181716D01*
X85654622Y-39127554D01*
X85751095Y-38938217D01*
X85816757Y-38736130D01*
X85816757Y-38736127D01*
X85850000Y-38526246D01*
X85850000Y-38313753D01*
X85819484Y-38121085D01*
X85819484Y-38121084D01*
X85816758Y-38103874D01*
X85816757Y-38103869D01*
X85751095Y-37901782D01*
X85654624Y-37712449D01*
X85615270Y-37658282D01*
X85615269Y-37658282D01*
X84982962Y-38290590D01*
X84965925Y-38227007D01*
X84900099Y-38112993D01*
X84807007Y-38019901D01*
X84692993Y-37954075D01*
X84629409Y-37937037D01*
X85261716Y-37304728D01*
X85207547Y-37265373D01*
X85207547Y-37265372D01*
X85198500Y-37260763D01*
X85147706Y-37212788D01*
X85130912Y-37144966D01*
X85153451Y-37078832D01*
X85198508Y-37039793D01*
X85207816Y-37035051D01*
X85287007Y-36977515D01*
X85379786Y-36910109D01*
X85379788Y-36910106D01*
X85379792Y-36910104D01*
X85530104Y-36759792D01*
X85530106Y-36759788D01*
X85530109Y-36759786D01*
X85655048Y-36587820D01*
X85655047Y-36587820D01*
X85655051Y-36587816D01*
X85751557Y-36398412D01*
X85817246Y-36196243D01*
X85850500Y-35986287D01*
X85850500Y-35773713D01*
X85817246Y-35563757D01*
X85751557Y-35361588D01*
X85655051Y-35172184D01*
X85655049Y-35172181D01*
X85655048Y-35172179D01*
X85530109Y-35000213D01*
X85416569Y-34886673D01*
X85383084Y-34825350D01*
X85388068Y-34755658D01*
X85429940Y-34699725D01*
X85460915Y-34682810D01*
X85592331Y-34633796D01*
X85707546Y-34547546D01*
X85793796Y-34432331D01*
X85844091Y-34297483D01*
X85850500Y-34237873D01*
X85850499Y-33752387D01*
X87059500Y-33752387D01*
X87059500Y-33927612D01*
X87093681Y-34099450D01*
X87093684Y-34099462D01*
X87160732Y-34261331D01*
X87160734Y-34261334D01*
X87160735Y-34261336D01*
X87176542Y-34284992D01*
X87176886Y-34285508D01*
X87176983Y-34285724D01*
X87177578Y-34286543D01*
X87178920Y-34288552D01*
X87258079Y-34407023D01*
X87258081Y-34407025D01*
X87276894Y-34425837D01*
X87283796Y-34432739D01*
X87286525Y-34436495D01*
X87296837Y-34445780D01*
X87381977Y-34530920D01*
X87418492Y-34555319D01*
X87425020Y-34561197D01*
X87441715Y-34570835D01*
X87445092Y-34573092D01*
X87527659Y-34628262D01*
X87527660Y-34628262D01*
X87527664Y-34628265D01*
X87575515Y-34648085D01*
X87586415Y-34654379D01*
X87606333Y-34660850D01*
X87689542Y-34695317D01*
X87748509Y-34707046D01*
X87763657Y-34711968D01*
X87783996Y-34714105D01*
X87861392Y-34729500D01*
X87930457Y-34729500D01*
X87949000Y-34731449D01*
X87967543Y-34729500D01*
X88036607Y-34729500D01*
X88036608Y-34729500D01*
X88114004Y-34714104D01*
X88134343Y-34711968D01*
X88149485Y-34707047D01*
X88208458Y-34695317D01*
X88291678Y-34660846D01*
X88311585Y-34654379D01*
X88322484Y-34648085D01*
X88370336Y-34628265D01*
X88456295Y-34570828D01*
X88472980Y-34561197D01*
X88479505Y-34555320D01*
X88516023Y-34530920D01*
X88601172Y-34445770D01*
X88611475Y-34436495D01*
X88614200Y-34432742D01*
X88639920Y-34407023D01*
X88720432Y-34286527D01*
X88721017Y-34285724D01*
X88721111Y-34285511D01*
X88737265Y-34261336D01*
X88804317Y-34099458D01*
X88838500Y-33927608D01*
X88838500Y-33752392D01*
X88838499Y-33752387D01*
X98459500Y-33752387D01*
X98459500Y-33927612D01*
X98493681Y-34099450D01*
X98493684Y-34099462D01*
X98560732Y-34261331D01*
X98560734Y-34261334D01*
X98560735Y-34261336D01*
X98576542Y-34284992D01*
X98576886Y-34285508D01*
X98576983Y-34285724D01*
X98577578Y-34286543D01*
X98578920Y-34288552D01*
X98658079Y-34407023D01*
X98658081Y-34407025D01*
X98676894Y-34425837D01*
X98683796Y-34432739D01*
X98686525Y-34436495D01*
X98696837Y-34445780D01*
X98781977Y-34530920D01*
X98818492Y-34555319D01*
X98825020Y-34561197D01*
X98841715Y-34570835D01*
X98845092Y-34573092D01*
X98927659Y-34628262D01*
X98927660Y-34628262D01*
X98927664Y-34628265D01*
X98975515Y-34648085D01*
X98986415Y-34654379D01*
X99006333Y-34660850D01*
X99089542Y-34695317D01*
X99148509Y-34707046D01*
X99163657Y-34711968D01*
X99183996Y-34714105D01*
X99261392Y-34729500D01*
X99330457Y-34729500D01*
X99349000Y-34731449D01*
X99367543Y-34729500D01*
X99436607Y-34729500D01*
X99436608Y-34729500D01*
X99514004Y-34714104D01*
X99534343Y-34711968D01*
X99549485Y-34707047D01*
X99608458Y-34695317D01*
X99691678Y-34660846D01*
X99711585Y-34654379D01*
X99722484Y-34648085D01*
X99770336Y-34628265D01*
X99856295Y-34570828D01*
X99872980Y-34561197D01*
X99879505Y-34555320D01*
X99916023Y-34530920D01*
X100001172Y-34445770D01*
X100011475Y-34436495D01*
X100014200Y-34432742D01*
X100039920Y-34407023D01*
X100120432Y-34286527D01*
X100121017Y-34285724D01*
X100121111Y-34285511D01*
X100137265Y-34261336D01*
X100204317Y-34099458D01*
X100238500Y-33927608D01*
X100238500Y-33752392D01*
X100204317Y-33580542D01*
X100137265Y-33418664D01*
X100121111Y-33394488D01*
X100121017Y-33394276D01*
X100120429Y-33393468D01*
X100039920Y-33272977D01*
X100039918Y-33272974D01*
X100021107Y-33254164D01*
X100014203Y-33247260D01*
X100011475Y-33243505D01*
X100001162Y-33234219D01*
X99998877Y-33231934D01*
X99916023Y-33149080D01*
X99916022Y-33149079D01*
X99916021Y-33149078D01*
X99886943Y-33129649D01*
X99886943Y-33129648D01*
X99879506Y-33124679D01*
X99872980Y-33118803D01*
X99856282Y-33109162D01*
X99852920Y-33106916D01*
X99770336Y-33051735D01*
X99770332Y-33051733D01*
X99729995Y-33035025D01*
X99722486Y-33031915D01*
X99711585Y-33025621D01*
X99691663Y-33019147D01*
X99608458Y-32984683D01*
X99608456Y-32984682D01*
X99608451Y-32984680D01*
X99556660Y-32974379D01*
X99556658Y-32974379D01*
X99549486Y-32972952D01*
X99534343Y-32968032D01*
X99514009Y-32965894D01*
X99508440Y-32964787D01*
X99508432Y-32964786D01*
X99453553Y-32953870D01*
X99436608Y-32950500D01*
X99367534Y-32950500D01*
X99349000Y-32948552D01*
X99330466Y-32950500D01*
X99261392Y-32950500D01*
X99189568Y-32964785D01*
X99189567Y-32964784D01*
X99183973Y-32965896D01*
X99163657Y-32968032D01*
X99148527Y-32972947D01*
X99141348Y-32974376D01*
X99141342Y-32974378D01*
X99089546Y-32984681D01*
X99010834Y-33017283D01*
X99010835Y-33017284D01*
X99006327Y-33019150D01*
X98986415Y-33025621D01*
X98975513Y-33031914D01*
X98968003Y-33035026D01*
X98968001Y-33035026D01*
X98927661Y-33051736D01*
X98845084Y-33106909D01*
X98845085Y-33106910D01*
X98841689Y-33109178D01*
X98825020Y-33118803D01*
X98818499Y-33124673D01*
X98811069Y-33129639D01*
X98811063Y-33129644D01*
X98781974Y-33149082D01*
X98781969Y-33149086D01*
X98699119Y-33231935D01*
X98696806Y-33234247D01*
X98686525Y-33243505D01*
X98683804Y-33247249D01*
X98658084Y-33272970D01*
X98658077Y-33272980D01*
X98578896Y-33391478D01*
X98578897Y-33391479D01*
X98577547Y-33393499D01*
X98576983Y-33394276D01*
X98576892Y-33394479D01*
X98574431Y-33398164D01*
X98574429Y-33398164D01*
X98574428Y-33398168D01*
X98560735Y-33418662D01*
X98560733Y-33418665D01*
X98493684Y-33580537D01*
X98493681Y-33580549D01*
X98459500Y-33752387D01*
X88838499Y-33752387D01*
X88804317Y-33580542D01*
X88737265Y-33418664D01*
X88721111Y-33394488D01*
X88721017Y-33394276D01*
X88720429Y-33393468D01*
X88639920Y-33272977D01*
X88639918Y-33272974D01*
X88621107Y-33254164D01*
X88614203Y-33247260D01*
X88611475Y-33243505D01*
X88601162Y-33234219D01*
X88598877Y-33231934D01*
X88516023Y-33149080D01*
X88516022Y-33149079D01*
X88516021Y-33149078D01*
X88486943Y-33129649D01*
X88486943Y-33129648D01*
X88479506Y-33124679D01*
X88472980Y-33118803D01*
X88456282Y-33109162D01*
X88452920Y-33106916D01*
X88370336Y-33051735D01*
X88370332Y-33051733D01*
X88329995Y-33035025D01*
X88322486Y-33031915D01*
X88311585Y-33025621D01*
X88291663Y-33019147D01*
X88208458Y-32984683D01*
X88208456Y-32984682D01*
X88208451Y-32984680D01*
X88156660Y-32974379D01*
X88156658Y-32974379D01*
X88149486Y-32972952D01*
X88134343Y-32968032D01*
X88114009Y-32965894D01*
X88108440Y-32964787D01*
X88108432Y-32964786D01*
X88053553Y-32953870D01*
X88036608Y-32950500D01*
X87967534Y-32950500D01*
X87949000Y-32948552D01*
X87930466Y-32950500D01*
X87861392Y-32950500D01*
X87789568Y-32964785D01*
X87789567Y-32964784D01*
X87783973Y-32965896D01*
X87763657Y-32968032D01*
X87748527Y-32972947D01*
X87741348Y-32974376D01*
X87741342Y-32974378D01*
X87689546Y-32984681D01*
X87610834Y-33017283D01*
X87610835Y-33017284D01*
X87606327Y-33019150D01*
X87586415Y-33025621D01*
X87575513Y-33031914D01*
X87568003Y-33035026D01*
X87568001Y-33035026D01*
X87527661Y-33051736D01*
X87445084Y-33106909D01*
X87445085Y-33106910D01*
X87441689Y-33109178D01*
X87425020Y-33118803D01*
X87418499Y-33124673D01*
X87411069Y-33129639D01*
X87411063Y-33129644D01*
X87381974Y-33149082D01*
X87381969Y-33149086D01*
X87299119Y-33231935D01*
X87296806Y-33234247D01*
X87286525Y-33243505D01*
X87283804Y-33247249D01*
X87258084Y-33272970D01*
X87258077Y-33272980D01*
X87178896Y-33391478D01*
X87178897Y-33391479D01*
X87177547Y-33393499D01*
X87176983Y-33394276D01*
X87176892Y-33394479D01*
X87174431Y-33398164D01*
X87174429Y-33398164D01*
X87174428Y-33398168D01*
X87160735Y-33418662D01*
X87160733Y-33418665D01*
X87093684Y-33580537D01*
X87093681Y-33580549D01*
X87059500Y-33752387D01*
X85850499Y-33752387D01*
X85850499Y-33276342D01*
X85850499Y-32442129D01*
X85850498Y-32442123D01*
X85850497Y-32442116D01*
X85844091Y-32382517D01*
X85844091Y-32382516D01*
X85803970Y-32274945D01*
X85793796Y-32247669D01*
X85793793Y-32247664D01*
X85784269Y-32234941D01*
X101267122Y-32234941D01*
X101267122Y-34030676D01*
X101267123Y-34030682D01*
X101273530Y-34090289D01*
X101323824Y-34225134D01*
X101323828Y-34225141D01*
X101410074Y-34340350D01*
X101410077Y-34340353D01*
X101525286Y-34426599D01*
X101525293Y-34426603D01*
X101656704Y-34475616D01*
X101712638Y-34517487D01*
X101737055Y-34582951D01*
X101722204Y-34651224D01*
X101701053Y-34679479D01*
X101587511Y-34793021D01*
X101462573Y-34964985D01*
X101366066Y-35154391D01*
X101300375Y-35356566D01*
X101267122Y-35566519D01*
X101267122Y-35779092D01*
X101300375Y-35989045D01*
X101366066Y-36191220D01*
X101462573Y-36380626D01*
X101587512Y-36552592D01*
X101737835Y-36702915D01*
X101909801Y-36827854D01*
X101909803Y-36827855D01*
X101909806Y-36827857D01*
X101919115Y-36832600D01*
X101969912Y-36880572D01*
X101986709Y-36948393D01*
X101964174Y-37014528D01*
X101919127Y-37053566D01*
X101910068Y-37058182D01*
X101910062Y-37058186D01*
X101855904Y-37097533D01*
X101855904Y-37097534D01*
X102488213Y-37729843D01*
X102424629Y-37746881D01*
X102310615Y-37812707D01*
X102217523Y-37905799D01*
X102151697Y-38019813D01*
X102134659Y-38083397D01*
X101502350Y-37451088D01*
X101502349Y-37451088D01*
X101463002Y-37505245D01*
X101366526Y-37694588D01*
X101300864Y-37896675D01*
X101300864Y-37896678D01*
X101267622Y-38106559D01*
X101267622Y-38319052D01*
X101300864Y-38528933D01*
X101300864Y-38528936D01*
X101366526Y-38731023D01*
X101462997Y-38920356D01*
X101502350Y-38974522D01*
X102134659Y-38342214D01*
X102151697Y-38405799D01*
X102217523Y-38519813D01*
X102310615Y-38612905D01*
X102424629Y-38678731D01*
X102488212Y-38695768D01*
X101855904Y-39328075D01*
X101855904Y-39328076D01*
X101910074Y-39367432D01*
X101910073Y-39367432D01*
X101919117Y-39372040D01*
X101969914Y-39420014D01*
X101986709Y-39487835D01*
X101964172Y-39553970D01*
X101919121Y-39593008D01*
X101909804Y-39597755D01*
X101737835Y-39722696D01*
X101587512Y-39873019D01*
X101462573Y-40044985D01*
X101366066Y-40234391D01*
X101300375Y-40436566D01*
X101288473Y-40511716D01*
X101267122Y-40646519D01*
X101267122Y-40859093D01*
X101268100Y-40865269D01*
X101299938Y-41066287D01*
X101300376Y-41069049D01*
X101310594Y-41100498D01*
X101366066Y-41271220D01*
X101462573Y-41460626D01*
X101587512Y-41632592D01*
X101737835Y-41782915D01*
X101909804Y-41907856D01*
X101918568Y-41912322D01*
X101969364Y-41960297D01*
X101986158Y-42028118D01*
X101963620Y-42094253D01*
X101918568Y-42133290D01*
X101909804Y-42137755D01*
X101737835Y-42262696D01*
X101587512Y-42413019D01*
X101462573Y-42584985D01*
X101366066Y-42774391D01*
X101300375Y-42976566D01*
X101267122Y-43186519D01*
X101267122Y-43399092D01*
X101300375Y-43609045D01*
X101366066Y-43811220D01*
X101462573Y-44000626D01*
X101587512Y-44172592D01*
X101737835Y-44322915D01*
X101909804Y-44447856D01*
X101918568Y-44452322D01*
X101969364Y-44500297D01*
X101986158Y-44568118D01*
X101963620Y-44634253D01*
X101918568Y-44673290D01*
X101909804Y-44677755D01*
X101737835Y-44802696D01*
X101587512Y-44953019D01*
X101462573Y-45124985D01*
X101366066Y-45314391D01*
X101300375Y-45516566D01*
X101267122Y-45726519D01*
X101267122Y-45939092D01*
X101300375Y-46149045D01*
X101366066Y-46351220D01*
X101462573Y-46540626D01*
X101587512Y-46712592D01*
X101737835Y-46862915D01*
X101909804Y-46987856D01*
X101918568Y-46992322D01*
X101969364Y-47040297D01*
X101986158Y-47108118D01*
X101963620Y-47174253D01*
X101918568Y-47213290D01*
X101909804Y-47217755D01*
X101737835Y-47342696D01*
X101587512Y-47493019D01*
X101462573Y-47664985D01*
X101366066Y-47854391D01*
X101300375Y-48056566D01*
X101267122Y-48266519D01*
X101267122Y-48479092D01*
X101300375Y-48689045D01*
X101366066Y-48891220D01*
X101462573Y-49080626D01*
X101587512Y-49252592D01*
X101737835Y-49402915D01*
X101909801Y-49527854D01*
X101909803Y-49527855D01*
X101909806Y-49527857D01*
X101919115Y-49532600D01*
X101969912Y-49580572D01*
X101986709Y-49648393D01*
X101964174Y-49714528D01*
X101919127Y-49753566D01*
X101910068Y-49758182D01*
X101910062Y-49758186D01*
X101855904Y-49797533D01*
X101855904Y-49797534D01*
X102488213Y-50429843D01*
X102424629Y-50446881D01*
X102310615Y-50512707D01*
X102217523Y-50605799D01*
X102151697Y-50719813D01*
X102134659Y-50783397D01*
X101502350Y-50151088D01*
X101502349Y-50151088D01*
X101463002Y-50205245D01*
X101366526Y-50394588D01*
X101300864Y-50596675D01*
X101300864Y-50596678D01*
X101267622Y-50806559D01*
X101267622Y-51019052D01*
X101300864Y-51228933D01*
X101300864Y-51228936D01*
X101366526Y-51431023D01*
X101462997Y-51620356D01*
X101502350Y-51674522D01*
X102134659Y-51042214D01*
X102151697Y-51105799D01*
X102217523Y-51219813D01*
X102310615Y-51312905D01*
X102424629Y-51378731D01*
X102488212Y-51395768D01*
X101855904Y-52028075D01*
X101855904Y-52028076D01*
X101910074Y-52067432D01*
X101910073Y-52067432D01*
X101919117Y-52072040D01*
X101969914Y-52120014D01*
X101986709Y-52187835D01*
X101964172Y-52253970D01*
X101919121Y-52293008D01*
X101909804Y-52297755D01*
X101737835Y-52422696D01*
X101587512Y-52573019D01*
X101462573Y-52744985D01*
X101366066Y-52934391D01*
X101300375Y-53136566D01*
X101267122Y-53346519D01*
X101267122Y-53559092D01*
X101299938Y-53766287D01*
X101300376Y-53769049D01*
X101349020Y-53918760D01*
X101366066Y-53971220D01*
X101462573Y-54160626D01*
X101587512Y-54332592D01*
X101737835Y-54482915D01*
X101909804Y-54607856D01*
X101918568Y-54612322D01*
X101969364Y-54660297D01*
X101986158Y-54728118D01*
X101963620Y-54794253D01*
X101918568Y-54833290D01*
X101909804Y-54837755D01*
X101737835Y-54962696D01*
X101587512Y-55113019D01*
X101462573Y-55284985D01*
X101366066Y-55474391D01*
X101300375Y-55676566D01*
X101299580Y-55681588D01*
X101267122Y-55886519D01*
X101267122Y-56099093D01*
X101271501Y-56126742D01*
X101299938Y-56306287D01*
X101300376Y-56309049D01*
X101356119Y-56480609D01*
X101366066Y-56511220D01*
X101462573Y-56700626D01*
X101587512Y-56872592D01*
X101737835Y-57022915D01*
X101909804Y-57147856D01*
X101918568Y-57152322D01*
X101969364Y-57200297D01*
X101986158Y-57268118D01*
X101963620Y-57334253D01*
X101918568Y-57373290D01*
X101909804Y-57377755D01*
X101737835Y-57502696D01*
X101587512Y-57653019D01*
X101462573Y-57824985D01*
X101366066Y-58014391D01*
X101300375Y-58216566D01*
X101267122Y-58426519D01*
X101267122Y-58639092D01*
X101299938Y-58846287D01*
X101300376Y-58849049D01*
X101349020Y-58998760D01*
X101366066Y-59051220D01*
X101462573Y-59240626D01*
X101587512Y-59412592D01*
X101737835Y-59562915D01*
X101909804Y-59687856D01*
X101918568Y-59692322D01*
X101969364Y-59740297D01*
X101986158Y-59808118D01*
X101963620Y-59874253D01*
X101918568Y-59913290D01*
X101909804Y-59917755D01*
X101737835Y-60042696D01*
X101587512Y-60193019D01*
X101462573Y-60364985D01*
X101366066Y-60554391D01*
X101300375Y-60756566D01*
X101267122Y-60966519D01*
X101267122Y-61179092D01*
X101299938Y-61386287D01*
X101300376Y-61389049D01*
X101352020Y-61547993D01*
X101366066Y-61591220D01*
X101462573Y-61780626D01*
X101587512Y-61952592D01*
X101737835Y-62102915D01*
X101909801Y-62227854D01*
X101909803Y-62227855D01*
X101909806Y-62227857D01*
X101919115Y-62232600D01*
X101969912Y-62280572D01*
X101986709Y-62348393D01*
X101964174Y-62414528D01*
X101919127Y-62453566D01*
X101910068Y-62458182D01*
X101910062Y-62458186D01*
X101855904Y-62497533D01*
X101855904Y-62497534D01*
X102488213Y-63129843D01*
X102424629Y-63146881D01*
X102310615Y-63212707D01*
X102217523Y-63305799D01*
X102151697Y-63419813D01*
X102134659Y-63483397D01*
X101502350Y-62851088D01*
X101502349Y-62851088D01*
X101463002Y-62905245D01*
X101366526Y-63094588D01*
X101300864Y-63296675D01*
X101300864Y-63296678D01*
X101267622Y-63506559D01*
X101267622Y-63719052D01*
X101300864Y-63928933D01*
X101300864Y-63928936D01*
X101366526Y-64131023D01*
X101462997Y-64320356D01*
X101502350Y-64374522D01*
X102134659Y-63742214D01*
X102151697Y-63805799D01*
X102217523Y-63919813D01*
X102310615Y-64012905D01*
X102424629Y-64078731D01*
X102488212Y-64095768D01*
X101855904Y-64728075D01*
X101855904Y-64728076D01*
X101910074Y-64767432D01*
X101910073Y-64767432D01*
X101919117Y-64772040D01*
X101969914Y-64820014D01*
X101986709Y-64887835D01*
X101964172Y-64953970D01*
X101919121Y-64993008D01*
X101909804Y-64997755D01*
X101737835Y-65122696D01*
X101587512Y-65273019D01*
X101462573Y-65444985D01*
X101366066Y-65634391D01*
X101300375Y-65836566D01*
X101273981Y-66003211D01*
X101267122Y-66046519D01*
X101267122Y-66259093D01*
X101277156Y-66322450D01*
X101299938Y-66466287D01*
X101300376Y-66469049D01*
X101325430Y-66546158D01*
X101366066Y-66671220D01*
X101462573Y-66860626D01*
X101587512Y-67032592D01*
X101737835Y-67182915D01*
X101909804Y-67307856D01*
X101918568Y-67312322D01*
X101969364Y-67360297D01*
X101986158Y-67428118D01*
X101963620Y-67494253D01*
X101918568Y-67533290D01*
X101909804Y-67537755D01*
X101737835Y-67662696D01*
X101587512Y-67813019D01*
X101462573Y-67984985D01*
X101366066Y-68174391D01*
X101300375Y-68376566D01*
X101293022Y-68422993D01*
X101267122Y-68586519D01*
X101267122Y-68799093D01*
X101273013Y-68836286D01*
X101299938Y-69006287D01*
X101300376Y-69009049D01*
X101362455Y-69200109D01*
X101366066Y-69211220D01*
X101462573Y-69400626D01*
X101587512Y-69572592D01*
X101737835Y-69722915D01*
X101909804Y-69847856D01*
X101918568Y-69852322D01*
X101969364Y-69900297D01*
X101986158Y-69968118D01*
X101963620Y-70034253D01*
X101918568Y-70073290D01*
X101909804Y-70077755D01*
X101737835Y-70202696D01*
X101587512Y-70353019D01*
X101462573Y-70524985D01*
X101366066Y-70714391D01*
X101300375Y-70916566D01*
X101293022Y-70962993D01*
X101267122Y-71126519D01*
X101267122Y-71339093D01*
X101273013Y-71376286D01*
X101299938Y-71546287D01*
X101300376Y-71549049D01*
X101362455Y-71740109D01*
X101366066Y-71751220D01*
X101462573Y-71940626D01*
X101587512Y-72112592D01*
X101737835Y-72262915D01*
X101909804Y-72387856D01*
X101918568Y-72392322D01*
X101969364Y-72440297D01*
X101986158Y-72508118D01*
X101963620Y-72574253D01*
X101918568Y-72613290D01*
X101909804Y-72617755D01*
X101737835Y-72742696D01*
X101587512Y-72893019D01*
X101462573Y-73064985D01*
X101366066Y-73254391D01*
X101300375Y-73456566D01*
X101283005Y-73566239D01*
X101267122Y-73666519D01*
X101267122Y-73879093D01*
X101273013Y-73916286D01*
X101299938Y-74086287D01*
X101300376Y-74089049D01*
X101362455Y-74280109D01*
X101366066Y-74291220D01*
X101462573Y-74480626D01*
X101587512Y-74652592D01*
X101737835Y-74802915D01*
X101909801Y-74927854D01*
X101909803Y-74927855D01*
X101909806Y-74927857D01*
X101919115Y-74932600D01*
X101969912Y-74980572D01*
X101986709Y-75048393D01*
X101964174Y-75114528D01*
X101919127Y-75153566D01*
X101910068Y-75158182D01*
X101910062Y-75158186D01*
X101855904Y-75197533D01*
X101855904Y-75197534D01*
X102488213Y-75829843D01*
X102424629Y-75846881D01*
X102310615Y-75912707D01*
X102217523Y-76005799D01*
X102151697Y-76119813D01*
X102134659Y-76183397D01*
X101502350Y-75551088D01*
X101502349Y-75551088D01*
X101463002Y-75605245D01*
X101366526Y-75794588D01*
X101300864Y-75996675D01*
X101300864Y-75996678D01*
X101267622Y-76206559D01*
X101267622Y-76419052D01*
X101300864Y-76628933D01*
X101300864Y-76628936D01*
X101366526Y-76831023D01*
X101462997Y-77020356D01*
X101502350Y-77074522D01*
X102134659Y-76442214D01*
X102151697Y-76505799D01*
X102217523Y-76619813D01*
X102310615Y-76712905D01*
X102424629Y-76778731D01*
X102488212Y-76795768D01*
X101855904Y-77428075D01*
X101855904Y-77428076D01*
X101910074Y-77467432D01*
X101910073Y-77467432D01*
X101919117Y-77472040D01*
X101969914Y-77520014D01*
X101986709Y-77587835D01*
X101964172Y-77653970D01*
X101919121Y-77693008D01*
X101909804Y-77697755D01*
X101737835Y-77822696D01*
X101587512Y-77973019D01*
X101462573Y-78144985D01*
X101366066Y-78334391D01*
X101300375Y-78536566D01*
X101267122Y-78746519D01*
X101267122Y-78959092D01*
X101299938Y-79166287D01*
X101300376Y-79169049D01*
X101338824Y-79287380D01*
X101366066Y-79371220D01*
X101462573Y-79560626D01*
X101587512Y-79732592D01*
X101737835Y-79882915D01*
X101909804Y-80007856D01*
X101918568Y-80012322D01*
X101969364Y-80060297D01*
X101986158Y-80128118D01*
X101963620Y-80194253D01*
X101918568Y-80233290D01*
X101909804Y-80237755D01*
X101737835Y-80362696D01*
X101587512Y-80513019D01*
X101462573Y-80684985D01*
X101366066Y-80874391D01*
X101300375Y-81076566D01*
X101296749Y-81099462D01*
X101267122Y-81286519D01*
X101267122Y-81499093D01*
X101272163Y-81530920D01*
X101299938Y-81706287D01*
X101300376Y-81709049D01*
X101307654Y-81731449D01*
X101366066Y-81911220D01*
X101462573Y-82100626D01*
X101587512Y-82272592D01*
X101737835Y-82422915D01*
X101909801Y-82547854D01*
X101909803Y-82547855D01*
X101909806Y-82547857D01*
X102099210Y-82644363D01*
X102301379Y-82710052D01*
X102511335Y-82743306D01*
X102511336Y-82743306D01*
X102723908Y-82743306D01*
X102723909Y-82743306D01*
X102933865Y-82710052D01*
X103136034Y-82644363D01*
X103325438Y-82547857D01*
X103387340Y-82502883D01*
X103497408Y-82422915D01*
X103497410Y-82422912D01*
X103497414Y-82422910D01*
X103647726Y-82272598D01*
X103647728Y-82272594D01*
X103647731Y-82272592D01*
X103772670Y-82100626D01*
X103772669Y-82100626D01*
X103772673Y-82100622D01*
X103869179Y-81911218D01*
X103934868Y-81709049D01*
X103968122Y-81499093D01*
X103968122Y-81286519D01*
X103934868Y-81076563D01*
X103869179Y-80874394D01*
X103772673Y-80684990D01*
X103772671Y-80684987D01*
X103772670Y-80684985D01*
X103647731Y-80513019D01*
X103497408Y-80362696D01*
X103325442Y-80237757D01*
X103324737Y-80237397D01*
X103316676Y-80233291D01*
X103265881Y-80185318D01*
X103249085Y-80117498D01*
X103271621Y-80051362D01*
X103316676Y-80012321D01*
X103325438Y-80007857D01*
X103350348Y-79989759D01*
X103497408Y-79882915D01*
X103497410Y-79882912D01*
X103497414Y-79882910D01*
X103647726Y-79732598D01*
X103647728Y-79732594D01*
X103647731Y-79732592D01*
X103772670Y-79560626D01*
X103772669Y-79560626D01*
X103772673Y-79560622D01*
X103869179Y-79371218D01*
X103934868Y-79169049D01*
X103968122Y-78959093D01*
X103968122Y-78746519D01*
X103934868Y-78536563D01*
X103869179Y-78334394D01*
X103772673Y-78144990D01*
X103772671Y-78144987D01*
X103772670Y-78144985D01*
X103647731Y-77973019D01*
X103497408Y-77822696D01*
X103325439Y-77697755D01*
X103316126Y-77693010D01*
X103265329Y-77645036D01*
X103248534Y-77577215D01*
X103271071Y-77511080D01*
X103316129Y-77472038D01*
X103325177Y-77467428D01*
X103379338Y-77428076D01*
X103379339Y-77428076D01*
X102747030Y-76795768D01*
X102810615Y-76778731D01*
X102924629Y-76712905D01*
X103017721Y-76619813D01*
X103083547Y-76505799D01*
X103100584Y-76442215D01*
X103732892Y-77074523D01*
X103732892Y-77074522D01*
X103772244Y-77020360D01*
X103868717Y-76831023D01*
X103934379Y-76628936D01*
X103934379Y-76628933D01*
X103967622Y-76419052D01*
X103967622Y-76206559D01*
X103934379Y-75996678D01*
X103934379Y-75996675D01*
X103868717Y-75794588D01*
X103772246Y-75605255D01*
X103732892Y-75551088D01*
X103732891Y-75551088D01*
X103100584Y-76183396D01*
X103083547Y-76119813D01*
X103017721Y-76005799D01*
X102924629Y-75912707D01*
X102810615Y-75846881D01*
X102747031Y-75829843D01*
X103379338Y-75197534D01*
X103325169Y-75158179D01*
X103325169Y-75158178D01*
X103316122Y-75153569D01*
X103265328Y-75105594D01*
X103248534Y-75037772D01*
X103271073Y-74971638D01*
X103316130Y-74932599D01*
X103325438Y-74927857D01*
X103446214Y-74840109D01*
X103497408Y-74802915D01*
X103497410Y-74802912D01*
X103497414Y-74802910D01*
X103647726Y-74652598D01*
X103647728Y-74652594D01*
X103647731Y-74652592D01*
X103772670Y-74480626D01*
X103772669Y-74480626D01*
X103772673Y-74480622D01*
X103869179Y-74291218D01*
X103934868Y-74089049D01*
X103968122Y-73879093D01*
X103968122Y-73666519D01*
X103934868Y-73456563D01*
X103869179Y-73254394D01*
X103772673Y-73064990D01*
X103772671Y-73064987D01*
X103772670Y-73064985D01*
X103647731Y-72893019D01*
X103497408Y-72742696D01*
X103325442Y-72617757D01*
X103324737Y-72617397D01*
X103316676Y-72613291D01*
X103265881Y-72565318D01*
X103249085Y-72497498D01*
X103271621Y-72431362D01*
X103316676Y-72392321D01*
X103325438Y-72387857D01*
X103372615Y-72353581D01*
X103497408Y-72262915D01*
X103497410Y-72262912D01*
X103497414Y-72262910D01*
X103647726Y-72112598D01*
X103647728Y-72112594D01*
X103647731Y-72112592D01*
X103772670Y-71940626D01*
X103772669Y-71940626D01*
X103772673Y-71940622D01*
X103869179Y-71751218D01*
X103934868Y-71549049D01*
X103968122Y-71339093D01*
X103968122Y-71126519D01*
X103934868Y-70916563D01*
X103869179Y-70714394D01*
X103772673Y-70524990D01*
X103772671Y-70524987D01*
X103772670Y-70524985D01*
X103647731Y-70353019D01*
X103497408Y-70202696D01*
X103325442Y-70077757D01*
X103324737Y-70077397D01*
X103316676Y-70073291D01*
X103265881Y-70025318D01*
X103249085Y-69957498D01*
X103271621Y-69891362D01*
X103316676Y-69852321D01*
X103325438Y-69847857D01*
X103372615Y-69813581D01*
X103497408Y-69722915D01*
X103497410Y-69722912D01*
X103497414Y-69722910D01*
X103647726Y-69572598D01*
X103647728Y-69572594D01*
X103647731Y-69572592D01*
X103772670Y-69400626D01*
X103772669Y-69400626D01*
X103772673Y-69400622D01*
X103869179Y-69211218D01*
X103934868Y-69009049D01*
X103968122Y-68799093D01*
X103968122Y-68586519D01*
X103934868Y-68376563D01*
X103869179Y-68174394D01*
X103772673Y-67984990D01*
X103772671Y-67984987D01*
X103772670Y-67984985D01*
X103647731Y-67813019D01*
X103497408Y-67662696D01*
X103325442Y-67537757D01*
X103324737Y-67537397D01*
X103316676Y-67533291D01*
X103265881Y-67485318D01*
X103249085Y-67417498D01*
X103271621Y-67351362D01*
X103316676Y-67312321D01*
X103325438Y-67307857D01*
X103390912Y-67260288D01*
X103497408Y-67182915D01*
X103497410Y-67182912D01*
X103497414Y-67182910D01*
X103647726Y-67032598D01*
X103647728Y-67032594D01*
X103647731Y-67032592D01*
X103772670Y-66860626D01*
X103772669Y-66860626D01*
X103772673Y-66860622D01*
X103869179Y-66671218D01*
X103934868Y-66469049D01*
X103968122Y-66259093D01*
X103968122Y-66046519D01*
X103934868Y-65836563D01*
X103869179Y-65634394D01*
X103772673Y-65444990D01*
X103772671Y-65444987D01*
X103772670Y-65444985D01*
X103712154Y-65361691D01*
X103661619Y-65292135D01*
X108874500Y-65292135D01*
X108874500Y-67087870D01*
X108874501Y-67087876D01*
X108880908Y-67147483D01*
X108931202Y-67282328D01*
X108931206Y-67282335D01*
X109017452Y-67397544D01*
X109017455Y-67397547D01*
X109132664Y-67483793D01*
X109132671Y-67483797D01*
X109264082Y-67532810D01*
X109320016Y-67574681D01*
X109344433Y-67640145D01*
X109329582Y-67708418D01*
X109308431Y-67736673D01*
X109194889Y-67850215D01*
X109069951Y-68022179D01*
X108973444Y-68211585D01*
X108907753Y-68413760D01*
X108874500Y-68623713D01*
X108874500Y-68836286D01*
X108907735Y-69046127D01*
X108907754Y-69046243D01*
X108962989Y-69216239D01*
X108973444Y-69248414D01*
X109069951Y-69437820D01*
X109194890Y-69609786D01*
X109345213Y-69760109D01*
X109517182Y-69885050D01*
X109525946Y-69889516D01*
X109576742Y-69937491D01*
X109593536Y-70005312D01*
X109570998Y-70071447D01*
X109525946Y-70110484D01*
X109517182Y-70114949D01*
X109345213Y-70239890D01*
X109194890Y-70390213D01*
X109069951Y-70562179D01*
X108973444Y-70751585D01*
X108907753Y-70953760D01*
X108874500Y-71163713D01*
X108874500Y-71376286D01*
X108907735Y-71586127D01*
X108907754Y-71586243D01*
X108962989Y-71756239D01*
X108973444Y-71788414D01*
X109069951Y-71977820D01*
X109194890Y-72149786D01*
X109345213Y-72300109D01*
X109517182Y-72425050D01*
X109525946Y-72429516D01*
X109576742Y-72477491D01*
X109593536Y-72545312D01*
X109570998Y-72611447D01*
X109525946Y-72650484D01*
X109517182Y-72654949D01*
X109345213Y-72779890D01*
X109194890Y-72930213D01*
X109069951Y-73102179D01*
X108973444Y-73291585D01*
X108907753Y-73493760D01*
X108874500Y-73703713D01*
X108874500Y-73916286D01*
X108907735Y-74126127D01*
X108907754Y-74126243D01*
X108964373Y-74300499D01*
X108973444Y-74328414D01*
X109069951Y-74517820D01*
X109194890Y-74689786D01*
X109345213Y-74840109D01*
X109517179Y-74965048D01*
X109517181Y-74965049D01*
X109517184Y-74965051D01*
X109706588Y-75061557D01*
X109908757Y-75127246D01*
X110118713Y-75160500D01*
X110118714Y-75160500D01*
X110331286Y-75160500D01*
X110331287Y-75160500D01*
X110541243Y-75127246D01*
X110743412Y-75061557D01*
X110932816Y-74965051D01*
X111008295Y-74910213D01*
X111104786Y-74840109D01*
X111104788Y-74840106D01*
X111104792Y-74840104D01*
X111255104Y-74689792D01*
X111255106Y-74689788D01*
X111255109Y-74689786D01*
X111340890Y-74571717D01*
X111380051Y-74517816D01*
X111384793Y-74508508D01*
X111432763Y-74457711D01*
X111500583Y-74440911D01*
X111566719Y-74463445D01*
X111605763Y-74508500D01*
X111610373Y-74517547D01*
X111649728Y-74571716D01*
X112282037Y-73939408D01*
X112299075Y-74002993D01*
X112364901Y-74117007D01*
X112457993Y-74210099D01*
X112572007Y-74275925D01*
X112635590Y-74292962D01*
X112003282Y-74925269D01*
X112003282Y-74925270D01*
X112057449Y-74964624D01*
X112246782Y-75061095D01*
X112448870Y-75126757D01*
X112658754Y-75160000D01*
X112871246Y-75160000D01*
X113081127Y-75126757D01*
X113081130Y-75126757D01*
X113283217Y-75061095D01*
X113472554Y-74964622D01*
X113526716Y-74925270D01*
X113526717Y-74925270D01*
X112894408Y-74292962D01*
X112957993Y-74275925D01*
X113072007Y-74210099D01*
X113165099Y-74117007D01*
X113230925Y-74002993D01*
X113247962Y-73939408D01*
X113880270Y-74571717D01*
X113880270Y-74571716D01*
X113919622Y-74517554D01*
X114016095Y-74328217D01*
X114081757Y-74126130D01*
X114081757Y-74126127D01*
X114115000Y-73916246D01*
X114115000Y-73703753D01*
X114081757Y-73493872D01*
X114081757Y-73493869D01*
X114016095Y-73291782D01*
X113919624Y-73102449D01*
X113880270Y-73048282D01*
X113880269Y-73048282D01*
X113247962Y-73680590D01*
X113230925Y-73617007D01*
X113165099Y-73502993D01*
X113072007Y-73409901D01*
X112957993Y-73344075D01*
X112894409Y-73327037D01*
X113526716Y-72694728D01*
X113472550Y-72655375D01*
X113462954Y-72650486D01*
X113412157Y-72602512D01*
X113395361Y-72534692D01*
X113417897Y-72468556D01*
X113462954Y-72429514D01*
X113472554Y-72424622D01*
X113526716Y-72385270D01*
X113526717Y-72385270D01*
X112894408Y-71752962D01*
X112957993Y-71735925D01*
X113072007Y-71670099D01*
X113165099Y-71577007D01*
X113230925Y-71462993D01*
X113247962Y-71399408D01*
X113880270Y-72031717D01*
X113880270Y-72031716D01*
X113919622Y-71977554D01*
X114016095Y-71788217D01*
X114081757Y-71586130D01*
X114081757Y-71586127D01*
X114115000Y-71376246D01*
X114115000Y-71163753D01*
X114081757Y-70953872D01*
X114081757Y-70953869D01*
X114016095Y-70751782D01*
X113919624Y-70562449D01*
X113880270Y-70508282D01*
X113880269Y-70508282D01*
X113247962Y-71140590D01*
X113230925Y-71077007D01*
X113165099Y-70962993D01*
X113072007Y-70869901D01*
X112957993Y-70804075D01*
X112894409Y-70787037D01*
X113526716Y-70154728D01*
X113472550Y-70115375D01*
X113462954Y-70110486D01*
X113412157Y-70062512D01*
X113395361Y-69994692D01*
X113417897Y-69928556D01*
X113462954Y-69889514D01*
X113472554Y-69884622D01*
X113526716Y-69845270D01*
X113526717Y-69845270D01*
X112894408Y-69212962D01*
X112957993Y-69195925D01*
X113072007Y-69130099D01*
X113165099Y-69037007D01*
X113230925Y-68922993D01*
X113247962Y-68859408D01*
X113880270Y-69491717D01*
X113880270Y-69491716D01*
X113919622Y-69437554D01*
X114016095Y-69248217D01*
X114081757Y-69046130D01*
X114081757Y-69046127D01*
X114115000Y-68836246D01*
X114115000Y-68623753D01*
X114081757Y-68413872D01*
X114081757Y-68413869D01*
X114016095Y-68211782D01*
X113919624Y-68022449D01*
X113880270Y-67968282D01*
X113880269Y-67968282D01*
X113247962Y-68600590D01*
X113230925Y-68537007D01*
X113165099Y-68422993D01*
X113072007Y-68329901D01*
X112957993Y-68264075D01*
X112894409Y-68247037D01*
X113526716Y-67614728D01*
X113472550Y-67575375D01*
X113462954Y-67570486D01*
X113412157Y-67522512D01*
X113395361Y-67454692D01*
X113417897Y-67388556D01*
X113462954Y-67349514D01*
X113472554Y-67344622D01*
X113526716Y-67305270D01*
X113526717Y-67305270D01*
X112894408Y-66672962D01*
X112957993Y-66655925D01*
X113072007Y-66590099D01*
X113165099Y-66497007D01*
X113230925Y-66382993D01*
X113247962Y-66319408D01*
X113880270Y-66951717D01*
X113880270Y-66951716D01*
X113919622Y-66897554D01*
X114016095Y-66708217D01*
X114081757Y-66506130D01*
X114081757Y-66506127D01*
X114115000Y-66296246D01*
X114115000Y-66083753D01*
X114081757Y-65873872D01*
X114081757Y-65873869D01*
X114016095Y-65671782D01*
X113919624Y-65482449D01*
X113880270Y-65428282D01*
X113880269Y-65428282D01*
X113247962Y-66060590D01*
X113230925Y-65997007D01*
X113165099Y-65882993D01*
X113072007Y-65789901D01*
X112957993Y-65724075D01*
X112894409Y-65707037D01*
X113526716Y-65074728D01*
X113472550Y-65035375D01*
X113283217Y-64938904D01*
X113081129Y-64873242D01*
X112871246Y-64840000D01*
X112658754Y-64840000D01*
X112448872Y-64873242D01*
X112448869Y-64873242D01*
X112246782Y-64938904D01*
X112057439Y-65035380D01*
X112003282Y-65074727D01*
X112003282Y-65074728D01*
X112635591Y-65707037D01*
X112572007Y-65724075D01*
X112457993Y-65789901D01*
X112364901Y-65882993D01*
X112299075Y-65997007D01*
X112282037Y-66060591D01*
X111611818Y-65390372D01*
X111578333Y-65329049D01*
X111578330Y-65329036D01*
X111575499Y-65316015D01*
X111575499Y-65292128D01*
X111569091Y-65232517D01*
X111539146Y-65152230D01*
X111518798Y-65097673D01*
X111518793Y-65097664D01*
X111432547Y-64982455D01*
X111432544Y-64982452D01*
X111317335Y-64896206D01*
X111317328Y-64896202D01*
X111182482Y-64845908D01*
X111182483Y-64845908D01*
X111122883Y-64839501D01*
X111122881Y-64839500D01*
X111122873Y-64839500D01*
X111122864Y-64839500D01*
X109327129Y-64839500D01*
X109327123Y-64839501D01*
X109267516Y-64845908D01*
X109132671Y-64896202D01*
X109132664Y-64896206D01*
X109017455Y-64982452D01*
X109017452Y-64982455D01*
X108931206Y-65097664D01*
X108931202Y-65097671D01*
X108880908Y-65232517D01*
X108874501Y-65292116D01*
X108874500Y-65292135D01*
X103661619Y-65292135D01*
X103647731Y-65273019D01*
X103497408Y-65122696D01*
X103325439Y-64997755D01*
X103316126Y-64993010D01*
X103265329Y-64945036D01*
X103248534Y-64877215D01*
X103271071Y-64811080D01*
X103316129Y-64772038D01*
X103325177Y-64767428D01*
X103379338Y-64728076D01*
X103379339Y-64728076D01*
X102747030Y-64095768D01*
X102810615Y-64078731D01*
X102924629Y-64012905D01*
X103017721Y-63919813D01*
X103083547Y-63805799D01*
X103100584Y-63742215D01*
X103732892Y-64374523D01*
X103732892Y-64374522D01*
X103772244Y-64320360D01*
X103868717Y-64131023D01*
X103934379Y-63928936D01*
X103934379Y-63928933D01*
X103967622Y-63719052D01*
X103967622Y-63506559D01*
X103934379Y-63296678D01*
X103934379Y-63296675D01*
X103868717Y-63094588D01*
X103772246Y-62905255D01*
X103732892Y-62851088D01*
X103732891Y-62851088D01*
X103100584Y-63483396D01*
X103083547Y-63419813D01*
X103017721Y-63305799D01*
X102924629Y-63212707D01*
X102810615Y-63146881D01*
X102747031Y-63129843D01*
X103379338Y-62497534D01*
X103325169Y-62458179D01*
X103325169Y-62458178D01*
X103316122Y-62453569D01*
X103265328Y-62405594D01*
X103248534Y-62337772D01*
X103271073Y-62271638D01*
X103316130Y-62232599D01*
X103325438Y-62227857D01*
X103419130Y-62159786D01*
X103497408Y-62102915D01*
X103497410Y-62102912D01*
X103497414Y-62102910D01*
X103647726Y-61952598D01*
X103647728Y-61952594D01*
X103647731Y-61952592D01*
X103772670Y-61780626D01*
X103772669Y-61780626D01*
X103772673Y-61780622D01*
X103869179Y-61591218D01*
X103934868Y-61389049D01*
X103968122Y-61179093D01*
X103968122Y-60966519D01*
X103934868Y-60756563D01*
X103869179Y-60554394D01*
X103772673Y-60364990D01*
X103772671Y-60364987D01*
X103772670Y-60364985D01*
X103647731Y-60193019D01*
X103497408Y-60042696D01*
X103325442Y-59917757D01*
X103324737Y-59917397D01*
X103316676Y-59913291D01*
X103265881Y-59865318D01*
X103249085Y-59797498D01*
X103271621Y-59731362D01*
X103316676Y-59692321D01*
X103325438Y-59687857D01*
X103403367Y-59631239D01*
X103497408Y-59562915D01*
X103497410Y-59562912D01*
X103497414Y-59562910D01*
X103647726Y-59412598D01*
X103772673Y-59240622D01*
X103869179Y-59051218D01*
X103934868Y-58849049D01*
X103968122Y-58639093D01*
X103968122Y-58426519D01*
X103934868Y-58216563D01*
X103869179Y-58014394D01*
X103772673Y-57824990D01*
X103772671Y-57824987D01*
X103772670Y-57824985D01*
X103647731Y-57653019D01*
X103497408Y-57502696D01*
X103325442Y-57377757D01*
X103324737Y-57377397D01*
X103316676Y-57373291D01*
X103265881Y-57325318D01*
X103249085Y-57257498D01*
X103271621Y-57191362D01*
X103316676Y-57152321D01*
X103325438Y-57147857D01*
X103403367Y-57091239D01*
X103497408Y-57022915D01*
X103497410Y-57022912D01*
X103497414Y-57022910D01*
X103647726Y-56872598D01*
X103647728Y-56872594D01*
X103647731Y-56872592D01*
X103772670Y-56700626D01*
X103772669Y-56700626D01*
X103772673Y-56700622D01*
X103869179Y-56511218D01*
X103934868Y-56309049D01*
X103968122Y-56099093D01*
X103968122Y-55886519D01*
X103934868Y-55676563D01*
X103869179Y-55474394D01*
X103772673Y-55284990D01*
X103772671Y-55284987D01*
X103772670Y-55284985D01*
X103647731Y-55113019D01*
X103497412Y-54962700D01*
X103497407Y-54962696D01*
X103445189Y-54924758D01*
X103445166Y-54924742D01*
X103325438Y-54837755D01*
X103308949Y-54829353D01*
X103305781Y-54827135D01*
X113149500Y-54827135D01*
X113149500Y-56622870D01*
X113149501Y-56622876D01*
X113155908Y-56682483D01*
X113206202Y-56817328D01*
X113206206Y-56817335D01*
X113292452Y-56932544D01*
X113292455Y-56932547D01*
X113407664Y-57018793D01*
X113407671Y-57018797D01*
X113452618Y-57035561D01*
X113542517Y-57069091D01*
X113602127Y-57075500D01*
X113612685Y-57075499D01*
X113679723Y-57095179D01*
X113700372Y-57111818D01*
X114370591Y-57782037D01*
X114307007Y-57799075D01*
X114192993Y-57864901D01*
X114099901Y-57957993D01*
X114034075Y-58072007D01*
X114017037Y-58135591D01*
X113384728Y-57503282D01*
X113384727Y-57503282D01*
X113345380Y-57557439D01*
X113248904Y-57746782D01*
X113183242Y-57948869D01*
X113183242Y-57948872D01*
X113150000Y-58158753D01*
X113150000Y-58371246D01*
X113183242Y-58581127D01*
X113183242Y-58581130D01*
X113248904Y-58783217D01*
X113345375Y-58972550D01*
X113384728Y-59026716D01*
X114017037Y-58394408D01*
X114034075Y-58457993D01*
X114099901Y-58572007D01*
X114192993Y-58665099D01*
X114307007Y-58730925D01*
X114370590Y-58747962D01*
X113738282Y-59380269D01*
X113738282Y-59380270D01*
X113792449Y-59419624D01*
X113981782Y-59516095D01*
X114183870Y-59581757D01*
X114393754Y-59615000D01*
X114606246Y-59615000D01*
X114816127Y-59581757D01*
X114816130Y-59581757D01*
X115018217Y-59516095D01*
X115207554Y-59419622D01*
X115261716Y-59380270D01*
X115261717Y-59380270D01*
X114629408Y-58747962D01*
X114692993Y-58730925D01*
X114807007Y-58665099D01*
X114900099Y-58572007D01*
X114965925Y-58457993D01*
X114982962Y-58394409D01*
X115615270Y-59026717D01*
X115615270Y-59026716D01*
X115654622Y-58972554D01*
X115751095Y-58783217D01*
X115816757Y-58581130D01*
X115816757Y-58581127D01*
X115850000Y-58371246D01*
X115850000Y-58158753D01*
X115816757Y-57948872D01*
X115816757Y-57948869D01*
X115751095Y-57746782D01*
X115654624Y-57557449D01*
X115615270Y-57503282D01*
X115615269Y-57503282D01*
X114982962Y-58135590D01*
X114965925Y-58072007D01*
X114900099Y-57957993D01*
X114807007Y-57864901D01*
X114692993Y-57799075D01*
X114629409Y-57782037D01*
X115299627Y-57111818D01*
X115360950Y-57078333D01*
X115387307Y-57075499D01*
X115397872Y-57075499D01*
X115457483Y-57069091D01*
X115592331Y-57018796D01*
X115707546Y-56932546D01*
X115793796Y-56817331D01*
X115844091Y-56682483D01*
X115850500Y-56622873D01*
X115850499Y-54827128D01*
X115844091Y-54767517D01*
X115838830Y-54753412D01*
X115793797Y-54632671D01*
X115793793Y-54632664D01*
X115707547Y-54517455D01*
X115707544Y-54517452D01*
X115592335Y-54431206D01*
X115592328Y-54431202D01*
X115457482Y-54380908D01*
X115457483Y-54380908D01*
X115397883Y-54374501D01*
X115397881Y-54374500D01*
X115397873Y-54374500D01*
X115397864Y-54374500D01*
X113602129Y-54374500D01*
X113602123Y-54374501D01*
X113542516Y-54380908D01*
X113407671Y-54431202D01*
X113407664Y-54431206D01*
X113292455Y-54517452D01*
X113292452Y-54517455D01*
X113206206Y-54632664D01*
X113206202Y-54632671D01*
X113155908Y-54767517D01*
X113149501Y-54827116D01*
X113149501Y-54827123D01*
X113149500Y-54827135D01*
X103305781Y-54827135D01*
X103301844Y-54824378D01*
X103285231Y-54803592D01*
X103265881Y-54785318D01*
X103263751Y-54776718D01*
X103258221Y-54769799D01*
X103255482Y-54743328D01*
X103249085Y-54717498D01*
X103251941Y-54709113D01*
X103251030Y-54700301D01*
X103263038Y-54676549D01*
X103271621Y-54651362D01*
X103279009Y-54644959D01*
X103282555Y-54637947D01*
X103296699Y-54629631D01*
X103316676Y-54612321D01*
X103325438Y-54607857D01*
X103403367Y-54551239D01*
X103497408Y-54482915D01*
X103497410Y-54482912D01*
X103497414Y-54482910D01*
X103647726Y-54332598D01*
X103647728Y-54332594D01*
X103647731Y-54332592D01*
X103772670Y-54160626D01*
X103772669Y-54160626D01*
X103772673Y-54160622D01*
X103869179Y-53971218D01*
X103934868Y-53769049D01*
X103968122Y-53559093D01*
X103968122Y-53346519D01*
X103934868Y-53136563D01*
X103869179Y-52934394D01*
X103772673Y-52744990D01*
X103772671Y-52744987D01*
X103772670Y-52744985D01*
X103647731Y-52573019D01*
X103497408Y-52422696D01*
X103325439Y-52297755D01*
X103316126Y-52293010D01*
X103265329Y-52245036D01*
X103248534Y-52177215D01*
X103271071Y-52111080D01*
X103316129Y-52072038D01*
X103325177Y-52067428D01*
X103379338Y-52028076D01*
X103379339Y-52028076D01*
X102747030Y-51395768D01*
X102810615Y-51378731D01*
X102924629Y-51312905D01*
X103017721Y-51219813D01*
X103083547Y-51105799D01*
X103100584Y-51042215D01*
X103732892Y-51674523D01*
X103732892Y-51674522D01*
X103772244Y-51620360D01*
X103868717Y-51431023D01*
X103934379Y-51228936D01*
X103934379Y-51228933D01*
X103967622Y-51019052D01*
X103967622Y-50806559D01*
X103934379Y-50596678D01*
X103934379Y-50596675D01*
X103868717Y-50394588D01*
X103772246Y-50205255D01*
X103732892Y-50151088D01*
X103732891Y-50151088D01*
X103100584Y-50783396D01*
X103083547Y-50719813D01*
X103017721Y-50605799D01*
X102924629Y-50512707D01*
X102810615Y-50446881D01*
X102747031Y-50429843D01*
X103379338Y-49797534D01*
X103325169Y-49758179D01*
X103325169Y-49758178D01*
X103316122Y-49753569D01*
X103265328Y-49705594D01*
X103248534Y-49637772D01*
X103271073Y-49571638D01*
X103316130Y-49532599D01*
X103325438Y-49527857D01*
X103419130Y-49459786D01*
X103497408Y-49402915D01*
X103497410Y-49402912D01*
X103497414Y-49402910D01*
X103647726Y-49252598D01*
X103647728Y-49252594D01*
X103647731Y-49252592D01*
X103772670Y-49080626D01*
X103772669Y-49080626D01*
X103772673Y-49080622D01*
X103869179Y-48891218D01*
X103934868Y-48689049D01*
X103968122Y-48479093D01*
X103968122Y-48266519D01*
X103934868Y-48056563D01*
X103869179Y-47854394D01*
X103772673Y-47664990D01*
X103772671Y-47664987D01*
X103772670Y-47664985D01*
X103647731Y-47493019D01*
X103497408Y-47342696D01*
X103325442Y-47217757D01*
X103324737Y-47217397D01*
X103316676Y-47213291D01*
X103265881Y-47165318D01*
X103249085Y-47097498D01*
X103271621Y-47031362D01*
X103316676Y-46992321D01*
X103325438Y-46987857D01*
X103347411Y-46971892D01*
X103497408Y-46862915D01*
X103497410Y-46862912D01*
X103497414Y-46862910D01*
X103647726Y-46712598D01*
X103647728Y-46712594D01*
X103647731Y-46712592D01*
X103772670Y-46540626D01*
X103772669Y-46540626D01*
X103772673Y-46540622D01*
X103869179Y-46351218D01*
X103934868Y-46149049D01*
X103968122Y-45939093D01*
X103968122Y-45726519D01*
X103934868Y-45516563D01*
X103869179Y-45314394D01*
X103772673Y-45124990D01*
X103772671Y-45124987D01*
X103772670Y-45124985D01*
X103647731Y-44953019D01*
X103497408Y-44802696D01*
X103325442Y-44677757D01*
X103324737Y-44677397D01*
X103316676Y-44673291D01*
X103265881Y-44625318D01*
X103249085Y-44557498D01*
X103271621Y-44491362D01*
X103316676Y-44452321D01*
X103325438Y-44447857D01*
X103347411Y-44431892D01*
X103497408Y-44322915D01*
X103497410Y-44322912D01*
X103497414Y-44322910D01*
X103647726Y-44172598D01*
X103647728Y-44172594D01*
X103647731Y-44172592D01*
X103772670Y-44000626D01*
X103772669Y-44000626D01*
X103772673Y-44000622D01*
X103869179Y-43811218D01*
X103934868Y-43609049D01*
X103968122Y-43399093D01*
X103968122Y-43186519D01*
X103934868Y-42976563D01*
X103869179Y-42774394D01*
X103772673Y-42584990D01*
X103772671Y-42584987D01*
X103772670Y-42584985D01*
X103647731Y-42413019D01*
X103497408Y-42262696D01*
X103325442Y-42137757D01*
X103324737Y-42137397D01*
X103316676Y-42133291D01*
X103265881Y-42085318D01*
X103249085Y-42017498D01*
X103271621Y-41951362D01*
X103316676Y-41912321D01*
X103325438Y-41907857D01*
X103347411Y-41891892D01*
X103497408Y-41782915D01*
X103497410Y-41782912D01*
X103497414Y-41782910D01*
X103647726Y-41632598D01*
X103647728Y-41632594D01*
X103647731Y-41632592D01*
X103772670Y-41460626D01*
X103772669Y-41460626D01*
X103772673Y-41460622D01*
X103869179Y-41271218D01*
X103934868Y-41069049D01*
X103968122Y-40859093D01*
X103968122Y-40646519D01*
X103934868Y-40436563D01*
X103869179Y-40234394D01*
X103772673Y-40044990D01*
X103772671Y-40044987D01*
X103772670Y-40044985D01*
X103647731Y-39873019D01*
X103497408Y-39722696D01*
X103388751Y-39643753D01*
X110610000Y-39643753D01*
X110610000Y-39856246D01*
X110643242Y-40066127D01*
X110643242Y-40066130D01*
X110708904Y-40268217D01*
X110805375Y-40457550D01*
X110844728Y-40511716D01*
X111477037Y-39879408D01*
X111494075Y-39942993D01*
X111559901Y-40057007D01*
X111652993Y-40150099D01*
X111767007Y-40215925D01*
X111830590Y-40232962D01*
X111198282Y-40865269D01*
X111198282Y-40865270D01*
X111252449Y-40904624D01*
X111441782Y-41001095D01*
X111643870Y-41066757D01*
X111853754Y-41100000D01*
X112066246Y-41100000D01*
X112276127Y-41066757D01*
X112276130Y-41066757D01*
X112478217Y-41001095D01*
X112667554Y-40904622D01*
X112721716Y-40865270D01*
X112721717Y-40865270D01*
X112089408Y-40232962D01*
X112152993Y-40215925D01*
X112267007Y-40150099D01*
X112360099Y-40057007D01*
X112425925Y-39942993D01*
X112442962Y-39879408D01*
X113113181Y-40549628D01*
X113146666Y-40610951D01*
X113149500Y-40637300D01*
X113149500Y-40647865D01*
X113149501Y-40647876D01*
X113155908Y-40707483D01*
X113206202Y-40842328D01*
X113206206Y-40842335D01*
X113292452Y-40957544D01*
X113292455Y-40957547D01*
X113407664Y-41043793D01*
X113407671Y-41043797D01*
X113542517Y-41094091D01*
X113542516Y-41094091D01*
X113549444Y-41094835D01*
X113602127Y-41100500D01*
X115397872Y-41100499D01*
X115457483Y-41094091D01*
X115592331Y-41043796D01*
X115707546Y-40957546D01*
X115793796Y-40842331D01*
X115844091Y-40707483D01*
X115850500Y-40647873D01*
X115850499Y-38852128D01*
X115844091Y-38792517D01*
X115837018Y-38773554D01*
X115793797Y-38657671D01*
X115793793Y-38657664D01*
X115707547Y-38542455D01*
X115707544Y-38542452D01*
X115592335Y-38456206D01*
X115592328Y-38456202D01*
X115457482Y-38405908D01*
X115457483Y-38405908D01*
X115397883Y-38399501D01*
X115397881Y-38399500D01*
X115397873Y-38399500D01*
X115397864Y-38399500D01*
X113602129Y-38399500D01*
X113602123Y-38399501D01*
X113542516Y-38405908D01*
X113407671Y-38456202D01*
X113407664Y-38456206D01*
X113292455Y-38542452D01*
X113292452Y-38542455D01*
X113206206Y-38657664D01*
X113206202Y-38657671D01*
X113155908Y-38792517D01*
X113152003Y-38828842D01*
X113149501Y-38852123D01*
X113149500Y-38852135D01*
X113149500Y-38862690D01*
X113129815Y-38929729D01*
X113113181Y-38950371D01*
X112442962Y-39620590D01*
X112425925Y-39557007D01*
X112360099Y-39442993D01*
X112267007Y-39349901D01*
X112152993Y-39284075D01*
X112089409Y-39267037D01*
X112721716Y-38634728D01*
X112667550Y-38595375D01*
X112478217Y-38498904D01*
X112276129Y-38433242D01*
X112066246Y-38400000D01*
X111853754Y-38400000D01*
X111643872Y-38433242D01*
X111643869Y-38433242D01*
X111441782Y-38498904D01*
X111252439Y-38595380D01*
X111198282Y-38634727D01*
X111198282Y-38634728D01*
X111830591Y-39267037D01*
X111767007Y-39284075D01*
X111652993Y-39349901D01*
X111559901Y-39442993D01*
X111494075Y-39557007D01*
X111477037Y-39620591D01*
X110844728Y-38988282D01*
X110844727Y-38988282D01*
X110805380Y-39042439D01*
X110708904Y-39231782D01*
X110643242Y-39433869D01*
X110643242Y-39433872D01*
X110610000Y-39643753D01*
X103388751Y-39643753D01*
X103325439Y-39597755D01*
X103316126Y-39593010D01*
X103265329Y-39545036D01*
X103248534Y-39477215D01*
X103271071Y-39411080D01*
X103316129Y-39372038D01*
X103325177Y-39367428D01*
X103379338Y-39328076D01*
X103379339Y-39328076D01*
X102747030Y-38695768D01*
X102810615Y-38678731D01*
X102924629Y-38612905D01*
X103017721Y-38519813D01*
X103083547Y-38405799D01*
X103100584Y-38342215D01*
X103732892Y-38974523D01*
X103732892Y-38974522D01*
X103772244Y-38920360D01*
X103868717Y-38731022D01*
X103897101Y-38643669D01*
X103934379Y-38528936D01*
X103934379Y-38528933D01*
X103967622Y-38319052D01*
X103967622Y-38106559D01*
X103934379Y-37896678D01*
X103934379Y-37896675D01*
X103868717Y-37694588D01*
X103772246Y-37505255D01*
X103732892Y-37451088D01*
X103732891Y-37451088D01*
X103100584Y-38083396D01*
X103083547Y-38019813D01*
X103017721Y-37905799D01*
X102924629Y-37812707D01*
X102810615Y-37746881D01*
X102747031Y-37729843D01*
X103379338Y-37097534D01*
X103325169Y-37058179D01*
X103325169Y-37058178D01*
X103316122Y-37053569D01*
X103265328Y-37005594D01*
X103248534Y-36937772D01*
X103271073Y-36871638D01*
X103316130Y-36832599D01*
X103325438Y-36827857D01*
X103419130Y-36759786D01*
X103497408Y-36702915D01*
X103497410Y-36702912D01*
X103497414Y-36702910D01*
X103647726Y-36552598D01*
X103647728Y-36552594D01*
X103647731Y-36552592D01*
X103772670Y-36380626D01*
X103772669Y-36380626D01*
X103772673Y-36380622D01*
X103869179Y-36191218D01*
X103934868Y-35989049D01*
X103968122Y-35779093D01*
X103968122Y-35566519D01*
X103934868Y-35356563D01*
X103869179Y-35154394D01*
X103772673Y-34964990D01*
X103772671Y-34964987D01*
X103772670Y-34964985D01*
X103647731Y-34793019D01*
X103534191Y-34679479D01*
X103500706Y-34618156D01*
X103505690Y-34548464D01*
X103547562Y-34492531D01*
X103578537Y-34475616D01*
X103709953Y-34426602D01*
X103825168Y-34340352D01*
X103911418Y-34225137D01*
X103961713Y-34090289D01*
X103968122Y-34030679D01*
X103968121Y-32234934D01*
X103961713Y-32175323D01*
X103945724Y-32132455D01*
X103911419Y-32040477D01*
X103911415Y-32040470D01*
X103825169Y-31925261D01*
X103825166Y-31925258D01*
X103709957Y-31839012D01*
X103709950Y-31839008D01*
X103575104Y-31788714D01*
X103575105Y-31788714D01*
X103515505Y-31782307D01*
X103515503Y-31782306D01*
X103515495Y-31782306D01*
X103515486Y-31782306D01*
X101719751Y-31782306D01*
X101719745Y-31782307D01*
X101660138Y-31788714D01*
X101525293Y-31839008D01*
X101525286Y-31839012D01*
X101410077Y-31925258D01*
X101410074Y-31925261D01*
X101323828Y-32040470D01*
X101323824Y-32040477D01*
X101273530Y-32175323D01*
X101267123Y-32234922D01*
X101267123Y-32234929D01*
X101267122Y-32234941D01*
X85784269Y-32234941D01*
X85707547Y-32132455D01*
X85707544Y-32132452D01*
X85592335Y-32046206D01*
X85592328Y-32046202D01*
X85457482Y-31995908D01*
X85457483Y-31995908D01*
X85397883Y-31989501D01*
X85397881Y-31989500D01*
X85397873Y-31989500D01*
X85397864Y-31989500D01*
X83602129Y-31989500D01*
X83602123Y-31989501D01*
X83542516Y-31995908D01*
X83407671Y-32046202D01*
X83407664Y-32046206D01*
X83292455Y-32132452D01*
X83292452Y-32132455D01*
X83206206Y-32247664D01*
X83206202Y-32247671D01*
X83155908Y-32382517D01*
X83149501Y-32442116D01*
X83149501Y-32442123D01*
X83149500Y-32442135D01*
X83149500Y-34237870D01*
X83149501Y-34237876D01*
X83155908Y-34297483D01*
X83206202Y-34432328D01*
X83206206Y-34432335D01*
X83292452Y-34547544D01*
X83292455Y-34547547D01*
X83407664Y-34633793D01*
X83407671Y-34633797D01*
X83539082Y-34682810D01*
X83595016Y-34724681D01*
X83619433Y-34790145D01*
X83604582Y-34858418D01*
X83583431Y-34886673D01*
X83469889Y-35000215D01*
X83344951Y-35172179D01*
X83248444Y-35361585D01*
X83182753Y-35563760D01*
X83149500Y-35773713D01*
X83149500Y-35986287D01*
X83159534Y-36049644D01*
X83182753Y-36196239D01*
X83248444Y-36398414D01*
X83344951Y-36587820D01*
X83469890Y-36759786D01*
X83620213Y-36910109D01*
X83792179Y-37035048D01*
X83792181Y-37035049D01*
X83792184Y-37035051D01*
X83801493Y-37039794D01*
X83852290Y-37087766D01*
X83869087Y-37155587D01*
X83846552Y-37221722D01*
X83801505Y-37260760D01*
X83792446Y-37265376D01*
X83792440Y-37265380D01*
X83738282Y-37304727D01*
X83738282Y-37304728D01*
X84370591Y-37937037D01*
X84307007Y-37954075D01*
X84192993Y-38019901D01*
X84099901Y-38112993D01*
X84034075Y-38227007D01*
X84017037Y-38290591D01*
X83384728Y-37658282D01*
X83384727Y-37658282D01*
X83345380Y-37712439D01*
X83248904Y-37901782D01*
X83183242Y-38103869D01*
X83183242Y-38103872D01*
X83150000Y-38313753D01*
X83150000Y-38526246D01*
X83183242Y-38736127D01*
X83183242Y-38736130D01*
X83248904Y-38938217D01*
X83345375Y-39127550D01*
X83384728Y-39181716D01*
X84017037Y-38549408D01*
X84034075Y-38612993D01*
X84099901Y-38727007D01*
X84192993Y-38820099D01*
X84307007Y-38885925D01*
X84370590Y-38902962D01*
X83738282Y-39535269D01*
X83738282Y-39535270D01*
X83792452Y-39574626D01*
X83792451Y-39574626D01*
X83801495Y-39579234D01*
X83852292Y-39627208D01*
X83869087Y-39695029D01*
X83846550Y-39761164D01*
X83801499Y-39800202D01*
X83792182Y-39804949D01*
X83620213Y-39929890D01*
X83469890Y-40080213D01*
X83344951Y-40252179D01*
X83336995Y-40267795D01*
X83289021Y-40318591D01*
X83226510Y-40335500D01*
X75176281Y-40335500D01*
X75109242Y-40315815D01*
X75088600Y-40299181D01*
X73817131Y-39027712D01*
X73783646Y-38966389D01*
X73783195Y-38915839D01*
X73800500Y-38828844D01*
X73800500Y-38671155D01*
X73800499Y-38671153D01*
X73795032Y-38643669D01*
X73769737Y-38516503D01*
X73757030Y-38485826D01*
X73709394Y-38370820D01*
X73621789Y-38239711D01*
X73621786Y-38239707D01*
X73510292Y-38128213D01*
X73510288Y-38128210D01*
X73379185Y-38040609D01*
X73379172Y-38040602D01*
X73233501Y-37980264D01*
X73233489Y-37980261D01*
X73078845Y-37949500D01*
X73078842Y-37949500D01*
X72921158Y-37949500D01*
X72921155Y-37949500D01*
X72766510Y-37980261D01*
X72766498Y-37980264D01*
X72620827Y-38040602D01*
X72620814Y-38040609D01*
X72489711Y-38128210D01*
X72489707Y-38128213D01*
X72378213Y-38239707D01*
X72378210Y-38239711D01*
X72290609Y-38370814D01*
X72290602Y-38370827D01*
X72230264Y-38516498D01*
X72230261Y-38516510D01*
X72199500Y-38671153D01*
X65000500Y-38671153D01*
X65000500Y-29254066D01*
X65000765Y-29245956D01*
X65009094Y-29118880D01*
X65017075Y-28997102D01*
X65019190Y-28981048D01*
X65067047Y-28740451D01*
X65071240Y-28724804D01*
X65150091Y-28492515D01*
X65156291Y-28477544D01*
X65208788Y-28371092D01*
X65256094Y-28319673D01*
X65323689Y-28301992D01*
X65390113Y-28323662D01*
X65434277Y-28377804D01*
X65444000Y-28425937D01*
X65444000Y-31250000D01*
X69000000Y-31250000D01*
X69000000Y-27694000D01*
X66175938Y-27694000D01*
X66169037Y-27691973D01*
X66161951Y-27693209D01*
X66135954Y-27682259D01*
X66108899Y-27674315D01*
X66104189Y-27668880D01*
X66097560Y-27666088D01*
X66081610Y-27642822D01*
X66063144Y-27621511D01*
X66062120Y-27614392D01*
X66058053Y-27608459D01*
X66057213Y-27580267D01*
X66053200Y-27552353D01*
X66056188Y-27545810D01*
X66055974Y-27538621D01*
X66070507Y-27514453D01*
X66082225Y-27488797D01*
X66089156Y-27483445D01*
X66091983Y-27478745D01*
X66121091Y-27458789D01*
X66227549Y-27406289D01*
X66242515Y-27400091D01*
X66474804Y-27321240D01*
X66490451Y-27317047D01*
X66731048Y-27269190D01*
X66747102Y-27267075D01*
X66995957Y-27250765D01*
X67004067Y-27250500D01*
X114745933Y-27250500D01*
X114754043Y-27250765D01*
G37*
%TD.AperFunction*%
%TA.AperFunction,Conductor*%
G36*
X70576444Y-76443999D02*
G01*
X70615486Y-76489056D01*
X70619951Y-76497820D01*
X70744890Y-76669786D01*
X70858818Y-76783714D01*
X70892303Y-76845037D01*
X70887319Y-76914729D01*
X70845447Y-76970662D01*
X70814471Y-76987577D01*
X70682912Y-77036646D01*
X70682906Y-77036649D01*
X70567812Y-77122809D01*
X70567809Y-77122812D01*
X70481649Y-77237906D01*
X70481645Y-77237913D01*
X70431403Y-77372619D01*
X70431401Y-77372626D01*
X70422497Y-77455444D01*
X70419434Y-77455114D01*
X70420336Y-77472094D01*
X70387356Y-77531195D01*
X69717962Y-78200590D01*
X69700925Y-78137007D01*
X69635099Y-78022993D01*
X69542007Y-77929901D01*
X69427993Y-77864075D01*
X69364409Y-77847037D01*
X69996716Y-77214728D01*
X69942547Y-77175373D01*
X69942547Y-77175372D01*
X69933500Y-77170763D01*
X69882706Y-77122788D01*
X69865912Y-77054966D01*
X69888451Y-76988832D01*
X69933508Y-76949793D01*
X69942816Y-76945051D01*
X70041224Y-76873554D01*
X70114786Y-76820109D01*
X70114788Y-76820106D01*
X70114792Y-76820104D01*
X70265104Y-76669792D01*
X70265106Y-76669788D01*
X70265109Y-76669786D01*
X70390048Y-76497820D01*
X70390047Y-76497820D01*
X70390051Y-76497816D01*
X70394514Y-76489054D01*
X70442488Y-76438259D01*
X70510308Y-76421463D01*
X70576444Y-76443999D01*
G37*
%TD.AperFunction*%
%TA.AperFunction,Conductor*%
G36*
X67852227Y-54431087D02*
G01*
X67875172Y-54432728D01*
X67885251Y-54440273D01*
X67897382Y-54443648D01*
X67912692Y-54460815D01*
X67931106Y-54474600D01*
X67936618Y-54487643D01*
X67943886Y-54495793D01*
X67954312Y-54529512D01*
X67957754Y-54551243D01*
X68020166Y-54743328D01*
X68023444Y-54753414D01*
X68119951Y-54942820D01*
X68244890Y-55114786D01*
X68395213Y-55265109D01*
X68567182Y-55390050D01*
X68575946Y-55394516D01*
X68626742Y-55442491D01*
X68643536Y-55510312D01*
X68620998Y-55576447D01*
X68575946Y-55615484D01*
X68567182Y-55619949D01*
X68395213Y-55744890D01*
X68244890Y-55895213D01*
X68119951Y-56067179D01*
X68023444Y-56256585D01*
X67957753Y-56458760D01*
X67931760Y-56622873D01*
X67924500Y-56668713D01*
X67924500Y-56881287D01*
X67932618Y-56932544D01*
X67955260Y-57075500D01*
X67957754Y-57091243D01*
X68021817Y-57288409D01*
X68023444Y-57293414D01*
X68119951Y-57482820D01*
X68244890Y-57654786D01*
X68395213Y-57805109D01*
X68567182Y-57930050D01*
X68575946Y-57934516D01*
X68626742Y-57982491D01*
X68643536Y-58050312D01*
X68620998Y-58116447D01*
X68575946Y-58155484D01*
X68567182Y-58159949D01*
X68395213Y-58284890D01*
X68244890Y-58435213D01*
X68119951Y-58607179D01*
X68023444Y-58796585D01*
X67957753Y-58998760D01*
X67948649Y-59056243D01*
X67924500Y-59208713D01*
X67924500Y-59421287D01*
X67957754Y-59631243D01*
X68015224Y-59808118D01*
X68023444Y-59833414D01*
X68119951Y-60022820D01*
X68244890Y-60194786D01*
X68395213Y-60345109D01*
X68567179Y-60470048D01*
X68567181Y-60470049D01*
X68567184Y-60470051D01*
X68576493Y-60474794D01*
X68627290Y-60522766D01*
X68644087Y-60590587D01*
X68621552Y-60656722D01*
X68576505Y-60695760D01*
X68567446Y-60700376D01*
X68567440Y-60700380D01*
X68513282Y-60739727D01*
X68513282Y-60739728D01*
X69145591Y-61372037D01*
X69082007Y-61389075D01*
X68967993Y-61454901D01*
X68874901Y-61547993D01*
X68809075Y-61662007D01*
X68792037Y-61725591D01*
X68159728Y-61093282D01*
X68159727Y-61093282D01*
X68120380Y-61147439D01*
X68023904Y-61336782D01*
X67958242Y-61538869D01*
X67958242Y-61538872D01*
X67925000Y-61748753D01*
X67925000Y-61961246D01*
X67958242Y-62171127D01*
X67958242Y-62171130D01*
X68023904Y-62373217D01*
X68120375Y-62562550D01*
X68159728Y-62616716D01*
X68792037Y-61984408D01*
X68809075Y-62047993D01*
X68874901Y-62162007D01*
X68967993Y-62255099D01*
X69082007Y-62320925D01*
X69145590Y-62337962D01*
X68513282Y-62970269D01*
X68513282Y-62970270D01*
X68567449Y-63009624D01*
X68756782Y-63106095D01*
X68958870Y-63171757D01*
X69168754Y-63205000D01*
X69381246Y-63205000D01*
X69591127Y-63171757D01*
X69591130Y-63171757D01*
X69793217Y-63106095D01*
X69982554Y-63009622D01*
X70036716Y-62970270D01*
X70036717Y-62970270D01*
X69404408Y-62337962D01*
X69467993Y-62320925D01*
X69582007Y-62255099D01*
X69675099Y-62162007D01*
X69740925Y-62047993D01*
X69757962Y-61984408D01*
X70427356Y-62653803D01*
X70460841Y-62715126D01*
X70459926Y-62729831D01*
X70462497Y-62729555D01*
X70471401Y-62812373D01*
X70471403Y-62812380D01*
X70521645Y-62947086D01*
X70521649Y-62947093D01*
X70607809Y-63062187D01*
X70607812Y-63062190D01*
X70722906Y-63148350D01*
X70722913Y-63148354D01*
X70857620Y-63198596D01*
X70857627Y-63198598D01*
X70917155Y-63204999D01*
X70917172Y-63205000D01*
X71565000Y-63205000D01*
X71565000Y-62288012D01*
X71622007Y-62320925D01*
X71749174Y-62355000D01*
X71880826Y-62355000D01*
X72007993Y-62320925D01*
X72065000Y-62288012D01*
X72065000Y-63205000D01*
X72712828Y-63205000D01*
X72712844Y-63204999D01*
X72772372Y-63198598D01*
X72772379Y-63198596D01*
X72907086Y-63148354D01*
X72907093Y-63148350D01*
X73022187Y-63062190D01*
X73022190Y-63062187D01*
X73108350Y-62947093D01*
X73108354Y-62947086D01*
X73158596Y-62812379D01*
X73158598Y-62812372D01*
X73164999Y-62752844D01*
X73165000Y-62752827D01*
X73165000Y-62105000D01*
X72248012Y-62105000D01*
X72280925Y-62047993D01*
X72315000Y-61920826D01*
X72315000Y-61789174D01*
X72280925Y-61662007D01*
X72248012Y-61605000D01*
X73165000Y-61605000D01*
X73165000Y-61467517D01*
X73171238Y-61446271D01*
X73172818Y-61424183D01*
X73180890Y-61413399D01*
X73184685Y-61400478D01*
X73201418Y-61385978D01*
X73214690Y-61368250D01*
X73227310Y-61363542D01*
X73237489Y-61354723D01*
X73259406Y-61351571D01*
X73280154Y-61343833D01*
X73293314Y-61346695D01*
X73306647Y-61344779D01*
X73326790Y-61353978D01*
X73348427Y-61358685D01*
X73366152Y-61371953D01*
X73370203Y-61373804D01*
X73376681Y-61379836D01*
X73386181Y-61389336D01*
X73419666Y-61450659D01*
X73422500Y-61477017D01*
X73422500Y-72689795D01*
X73402815Y-72756834D01*
X73367390Y-72792897D01*
X73239922Y-72878068D01*
X73173245Y-72898946D01*
X73105865Y-72880461D01*
X73059175Y-72828482D01*
X73053105Y-72813294D01*
X73026557Y-72731588D01*
X72930051Y-72542184D01*
X72930049Y-72542181D01*
X72930048Y-72542179D01*
X72805109Y-72370213D01*
X72654786Y-72219890D01*
X72482820Y-72094951D01*
X72482115Y-72094591D01*
X72474054Y-72090485D01*
X72423259Y-72042512D01*
X72406463Y-71974692D01*
X72428999Y-71908556D01*
X72474054Y-71869515D01*
X72482816Y-71865051D01*
X72588299Y-71788414D01*
X72654786Y-71740109D01*
X72654788Y-71740106D01*
X72654792Y-71740104D01*
X72805104Y-71589792D01*
X72805106Y-71589788D01*
X72805109Y-71589786D01*
X72930048Y-71417820D01*
X72930047Y-71417820D01*
X72930051Y-71417816D01*
X73026557Y-71228412D01*
X73092246Y-71026243D01*
X73125500Y-70816287D01*
X73125500Y-70603713D01*
X73092246Y-70393757D01*
X73026557Y-70191588D01*
X72930051Y-70002184D01*
X72930049Y-70002181D01*
X72930048Y-70002179D01*
X72805109Y-69830213D01*
X72654786Y-69679890D01*
X72482820Y-69554951D01*
X72482115Y-69554591D01*
X72474054Y-69550485D01*
X72423259Y-69502512D01*
X72406463Y-69434692D01*
X72428999Y-69368556D01*
X72474054Y-69329515D01*
X72482816Y-69325051D01*
X72588299Y-69248414D01*
X72654786Y-69200109D01*
X72654788Y-69200106D01*
X72654792Y-69200104D01*
X72805104Y-69049792D01*
X72805106Y-69049788D01*
X72805109Y-69049786D01*
X72930048Y-68877820D01*
X72930047Y-68877820D01*
X72930051Y-68877816D01*
X73026557Y-68688412D01*
X73092246Y-68486243D01*
X73125500Y-68276287D01*
X73125500Y-68063713D01*
X73092246Y-67853757D01*
X73026557Y-67651588D01*
X72930051Y-67462184D01*
X72930049Y-67462181D01*
X72930048Y-67462179D01*
X72805109Y-67290213D01*
X72654786Y-67139890D01*
X72482820Y-67014951D01*
X72293414Y-66918444D01*
X72293413Y-66918443D01*
X72293412Y-66918443D01*
X72091243Y-66852754D01*
X72091241Y-66852753D01*
X72091240Y-66852753D01*
X71929957Y-66827208D01*
X71881287Y-66819500D01*
X71668713Y-66819500D01*
X71620042Y-66827208D01*
X71458760Y-66852753D01*
X71256585Y-66918444D01*
X71067179Y-67014951D01*
X70895213Y-67139890D01*
X70744890Y-67290213D01*
X70619949Y-67462182D01*
X70615484Y-67470946D01*
X70567509Y-67521742D01*
X70499688Y-67538536D01*
X70433553Y-67515998D01*
X70394516Y-67470946D01*
X70390050Y-67462182D01*
X70265109Y-67290213D01*
X70114786Y-67139890D01*
X69942820Y-67014951D01*
X69753413Y-66918443D01*
X69744927Y-66915686D01*
X69687253Y-66876247D01*
X69660056Y-66811888D01*
X69661630Y-66773566D01*
X69675500Y-66703842D01*
X69675500Y-66546158D01*
X69675500Y-66546155D01*
X69675499Y-66546153D01*
X69660161Y-66469045D01*
X69644737Y-66391503D01*
X69605281Y-66296246D01*
X69584397Y-66245827D01*
X69584390Y-66245814D01*
X69496789Y-66114711D01*
X69496786Y-66114707D01*
X69385292Y-66003213D01*
X69385288Y-66003210D01*
X69254185Y-65915609D01*
X69254172Y-65915602D01*
X69108501Y-65855264D01*
X69108489Y-65855261D01*
X68953845Y-65824500D01*
X68953842Y-65824500D01*
X68796158Y-65824500D01*
X68796153Y-65824500D01*
X68645548Y-65854457D01*
X68575956Y-65848230D01*
X68533676Y-65820521D01*
X66863819Y-64150664D01*
X66830334Y-64089341D01*
X66827500Y-64062983D01*
X66827500Y-55429250D01*
X66847185Y-55362211D01*
X66863819Y-55341569D01*
X67293831Y-54911557D01*
X67744160Y-54461227D01*
X67755207Y-54455195D01*
X67763317Y-54445562D01*
X67785294Y-54438766D01*
X67805481Y-54427744D01*
X67818039Y-54428642D01*
X67830068Y-54424923D01*
X67852227Y-54431087D01*
G37*
%TD.AperFunction*%
%TD*%
M02*
