%TF.GenerationSoftware,KiCad,Pcbnew,10.0.3*%
%TF.CreationDate,2026-05-28T20:27:43-07:00*%
%TF.ProjectId,Encoder Board,456e636f-6465-4722-9042-6f6172642e6b,rev?*%
%TF.SameCoordinates,Original*%
%TF.FileFunction,Copper,L1,Top*%
%TF.FilePolarity,Positive*%
%FSLAX46Y46*%
G04 Gerber Fmt 4.6, Leading zero omitted, Abs format (unit mm)*
G04 Created by KiCad (PCBNEW 10.0.3) date 2026-05-28 20:27:43*
%MOMM*%
%LPD*%
G01*
G04 APERTURE LIST*
G04 Aperture macros list*
%AMRoundRect*
0 Rectangle with rounded corners*
0 $1 Rounding radius*
0 $2 $3 $4 $5 $6 $7 $8 $9 X,Y pos of 4 corners*
0 Add a 4 corners polygon primitive as box body*
4,1,4,$2,$3,$4,$5,$6,$7,$8,$9,$2,$3,0*
0 Add four circle primitives for the rounded corners*
1,1,$1+$1,$2,$3*
1,1,$1+$1,$4,$5*
1,1,$1+$1,$6,$7*
1,1,$1+$1,$8,$9*
0 Add four rect primitives between the rounded corners*
20,1,$1+$1,$2,$3,$4,$5,0*
20,1,$1+$1,$4,$5,$6,$7,0*
20,1,$1+$1,$6,$7,$8,$9,0*
20,1,$1+$1,$8,$9,$2,$3,0*%
%AMFreePoly0*
4,1,37,0.800000,0.796148,0.878414,0.796148,1.032228,0.765552,1.177117,0.705537,1.307515,0.618408,1.418408,0.507515,1.505537,0.377117,1.565552,0.232228,1.596148,0.078414,1.596148,-0.078414,1.565552,-0.232228,1.505537,-0.377117,1.418408,-0.507515,1.307515,-0.618408,1.177117,-0.705537,1.032228,-0.765552,0.878414,-0.796148,0.800000,-0.796148,0.800000,-0.800000,-1.400000,-0.800000,
-1.403843,-0.796157,-1.439018,-0.796157,-1.511114,-0.766294,-1.566294,-0.711114,-1.596157,-0.639018,-1.596157,-0.603843,-1.600000,-0.600000,-1.600000,0.600000,-1.596157,0.603843,-1.596157,0.639018,-1.566294,0.711114,-1.511114,0.766294,-1.439018,0.796157,-1.403843,0.796157,-1.400000,0.800000,0.800000,0.800000,0.800000,0.796148,0.800000,0.796148,$1*%
%AMFreePoly1*
4,1,37,1.403843,0.796157,1.439018,0.796157,1.511114,0.766294,1.566294,0.711114,1.596157,0.639018,1.596157,0.603843,1.600000,0.600000,1.600000,-0.600000,1.596157,-0.603843,1.596157,-0.639018,1.566294,-0.711114,1.511114,-0.766294,1.439018,-0.796157,1.403843,-0.796157,1.400000,-0.800000,-0.800000,-0.800000,-0.800000,-0.796148,-0.878414,-0.796148,-1.032228,-0.765552,-1.177117,-0.705537,
-1.307515,-0.618408,-1.418408,-0.507515,-1.505537,-0.377117,-1.565552,-0.232228,-1.596148,-0.078414,-1.596148,0.078414,-1.565552,0.232228,-1.505537,0.377117,-1.418408,0.507515,-1.307515,0.618408,-1.177117,0.705537,-1.032228,0.765552,-0.878414,0.796148,-0.800000,0.796148,-0.800000,0.800000,1.400000,0.800000,1.403843,0.796157,1.403843,0.796157,$1*%
%AMFreePoly2*
4,1,37,0.603843,0.796157,0.639018,0.796157,0.711114,0.766294,0.766294,0.711114,0.796157,0.639018,0.796157,0.603843,0.800000,0.600000,0.800000,-0.600000,0.796157,-0.603843,0.796157,-0.639018,0.766294,-0.711114,0.711114,-0.766294,0.639018,-0.796157,0.603843,-0.796157,0.600000,-0.800000,0.000000,-0.800000,0.000000,-0.796148,-0.078414,-0.796148,-0.232228,-0.765552,-0.377117,-0.705537,
-0.507515,-0.618408,-0.618408,-0.507515,-0.705537,-0.377117,-0.765552,-0.232228,-0.796148,-0.078414,-0.796148,0.078414,-0.765552,0.232228,-0.705537,0.377117,-0.618408,0.507515,-0.507515,0.618408,-0.377117,0.705537,-0.232228,0.765552,-0.078414,0.796148,0.000000,0.796148,0.000000,0.800000,0.600000,0.800000,0.603843,0.796157,0.603843,0.796157,$1*%
%AMFreePoly3*
4,1,37,0.000000,0.796148,0.078414,0.796148,0.232228,0.765552,0.377117,0.705537,0.507515,0.618408,0.618408,0.507515,0.705537,0.377117,0.765552,0.232228,0.796148,0.078414,0.796148,-0.078414,0.765552,-0.232228,0.705537,-0.377117,0.618408,-0.507515,0.507515,-0.618408,0.377117,-0.705537,0.232228,-0.765552,0.078414,-0.796148,0.000000,-0.796148,0.000000,-0.800000,-0.600000,-0.800000,
-0.603843,-0.796157,-0.639018,-0.796157,-0.711114,-0.766294,-0.766294,-0.711114,-0.796157,-0.639018,-0.796157,-0.603843,-0.800000,-0.600000,-0.800000,0.600000,-0.796157,0.603843,-0.796157,0.639018,-0.766294,0.711114,-0.711114,0.766294,-0.639018,0.796157,-0.603843,0.796157,-0.600000,0.800000,0.000000,0.800000,0.000000,0.796148,0.000000,0.796148,$1*%
G04 Aperture macros list end*
%TA.AperFunction,EtchedComponent*%
%ADD10C,0.000000*%
%TD*%
%TA.AperFunction,ComponentPad*%
%ADD11R,1.700000X1.700000*%
%TD*%
%TA.AperFunction,ComponentPad*%
%ADD12C,1.700000*%
%TD*%
%TA.AperFunction,SMDPad,CuDef*%
%ADD13RoundRect,0.250000X-0.650000X1.500000X-0.650000X-1.500000X0.650000X-1.500000X0.650000X1.500000X0*%
%TD*%
%TA.AperFunction,SMDPad,CuDef*%
%ADD14C,2.000000*%
%TD*%
%TA.AperFunction,SMDPad,CuDef*%
%ADD15RoundRect,0.250000X0.475000X-0.337500X0.475000X0.337500X-0.475000X0.337500X-0.475000X-0.337500X0*%
%TD*%
%TA.AperFunction,SMDPad,CuDef*%
%ADD16RoundRect,0.250000X0.337500X0.475000X-0.337500X0.475000X-0.337500X-0.475000X0.337500X-0.475000X0*%
%TD*%
%TA.AperFunction,SMDPad,CuDef*%
%ADD17RoundRect,0.250000X0.450000X-0.350000X0.450000X0.350000X-0.450000X0.350000X-0.450000X-0.350000X0*%
%TD*%
%TA.AperFunction,SMDPad,CuDef*%
%ADD18C,0.500000*%
%TD*%
%TA.AperFunction,SMDPad,CuDef*%
%ADD19RoundRect,0.150000X-0.825000X-0.150000X0.825000X-0.150000X0.825000X0.150000X-0.825000X0.150000X0*%
%TD*%
%TA.AperFunction,SMDPad,CuDef*%
%ADD20RoundRect,0.250000X-0.450000X0.350000X-0.450000X-0.350000X0.450000X-0.350000X0.450000X0.350000X0*%
%TD*%
%TA.AperFunction,SMDPad,CuDef*%
%ADD21RoundRect,0.250000X-0.475000X0.337500X-0.475000X-0.337500X0.475000X-0.337500X0.475000X0.337500X0*%
%TD*%
%TA.AperFunction,SMDPad,CuDef*%
%ADD22FreePoly0,0.000000*%
%TD*%
%TA.AperFunction,ComponentPad*%
%ADD23RoundRect,0.200000X-0.600000X-0.600000X0.600000X-0.600000X0.600000X0.600000X-0.600000X0.600000X0*%
%TD*%
%TA.AperFunction,SMDPad,CuDef*%
%ADD24RoundRect,0.800000X-0.800000X-0.000010X0.800000X-0.000010X0.800000X0.000010X-0.800000X0.000010X0*%
%TD*%
%TA.AperFunction,ComponentPad*%
%ADD25C,1.600000*%
%TD*%
%TA.AperFunction,SMDPad,CuDef*%
%ADD26FreePoly1,0.000000*%
%TD*%
%TA.AperFunction,ComponentPad*%
%ADD27FreePoly2,0.000000*%
%TD*%
%TA.AperFunction,ComponentPad*%
%ADD28FreePoly3,0.000000*%
%TD*%
%TA.AperFunction,SMDPad,CuDef*%
%ADD29RoundRect,0.250000X-0.337500X-0.475000X0.337500X-0.475000X0.337500X0.475000X-0.337500X0.475000X0*%
%TD*%
%TA.AperFunction,ViaPad*%
%ADD30C,0.610000*%
%TD*%
%TA.AperFunction,ViaPad*%
%ADD31C,1.200000*%
%TD*%
%TA.AperFunction,ViaPad*%
%ADD32C,0.600000*%
%TD*%
%TA.AperFunction,Conductor*%
%ADD33C,0.152400*%
%TD*%
%TA.AperFunction,Conductor*%
%ADD34C,0.300000*%
%TD*%
%TA.AperFunction,Conductor*%
%ADD35C,0.200000*%
%TD*%
G04 APERTURE END LIST*
D10*
%TA.AperFunction,EtchedComponent*%
%TO.C,NT1*%
G36*
X118700000Y-59650000D02*
G01*
X117700000Y-59650000D01*
X117700000Y-59150000D01*
X118700000Y-59150000D01*
X118700000Y-59650000D01*
G37*
%TD.AperFunction*%
%TD*%
D11*
%TO.P,J2,1,Pin_1_1*%
%TO.N,GND*%
X120725000Y-67960000D03*
D12*
%TO.P,J2,2,Pin_2_2*%
X123265000Y-67960000D03*
%TO.P,J2,3,Pin_3_3*%
%TO.N,/INDEX_N*%
X120725000Y-70500000D03*
%TO.P,J2,4,Pin_4_4*%
%TO.N,/INDEX*%
X123265000Y-70500000D03*
%TO.P,J2,5,Pin_5_5*%
%TO.N,/A_N*%
X120725000Y-73040000D03*
%TO.P,J2,6,Pin_6_6*%
%TO.N,/A*%
X123265000Y-73040000D03*
%TO.P,J2,7,Pin_7_7*%
%TO.N,+5V_E*%
X120725000Y-75580000D03*
%TO.P,J2,8,Pin_8_8*%
X123265000Y-75580000D03*
%TO.P,J2,9,Pin_9_9*%
%TO.N,/B_N*%
X120725000Y-78120000D03*
%TO.P,J2,10,Pin_10_10*%
%TO.N,/B*%
X123265000Y-78120000D03*
%TD*%
D11*
%TO.P,J4,1,Pin_1_1*%
%TO.N,/TRIGGER*%
X122500000Y-86225000D03*
D12*
%TO.P,J4,2,Pin_2_2*%
%TO.N,GND*%
X122500000Y-88765000D03*
%TD*%
D11*
%TO.P,J3,1,Pin_1_1*%
%TO.N,+5V_S*%
X122500000Y-59225000D03*
D12*
%TO.P,J3,2,Pin_2_2*%
%TO.N,GND*%
X122500000Y-61765000D03*
%TD*%
D13*
%TO.P,D1,1,K_1*%
%TO.N,Net-(A1-VSYS)*%
X120500000Y-44000000D03*
%TO.P,D1,2,A_2*%
%TO.N,+5V_S*%
X120500000Y-49000000D03*
%TD*%
D14*
%TO.P,+3V3_1,1,1_1*%
%TO.N,+3V3*%
X91500000Y-44500000D03*
%TD*%
D15*
%TO.P,C4,1*%
%TO.N,/B_N*%
X81300000Y-57537500D03*
%TO.P,C4,2*%
%TO.N,Net-(C4-Pad2)*%
X81300000Y-55462500D03*
%TD*%
D16*
%TO.P,C3,1*%
%TO.N,/A_N*%
X83337500Y-44900000D03*
%TO.P,C3,2*%
%TO.N,Net-(C3-Pad2)*%
X81262500Y-44900000D03*
%TD*%
D17*
%TO.P,R2,1*%
%TO.N,Net-(C4-Pad2)*%
X81300000Y-53300000D03*
%TO.P,R2,2*%
%TO.N,/B*%
X81300000Y-51300000D03*
%TD*%
D18*
%TO.P,NT1,1,1_1*%
%TO.N,GND*%
X118700000Y-59400000D03*
%TO.P,NT1,2,2_2*%
%TO.N,Net-(A1-AGND)*%
X117700000Y-59400000D03*
%TD*%
D19*
%TO.P,U1,1,1B_1*%
%TO.N,/A_N*%
X84025000Y-47055000D03*
%TO.P,U1,2,1A_2*%
%TO.N,/A*%
X84025000Y-48325000D03*
%TO.P,U1,3,1Y_3*%
%TO.N,/A_3V3*%
X84025000Y-49595000D03*
%TO.P,U1,4,G_4*%
%TO.N,+3V3*%
X84025000Y-50865000D03*
%TO.P,U1,5,2Y_5*%
%TO.N,/B_3V3*%
X84025000Y-52135000D03*
%TO.P,U1,6,2A_6*%
%TO.N,/B*%
X84025000Y-53405000D03*
%TO.P,U1,7,2B_7*%
%TO.N,/B_N*%
X84025000Y-54675000D03*
%TO.P,U1,8,GND_8*%
%TO.N,GND*%
X84025000Y-55945000D03*
%TO.P,U1,9,3B_9*%
%TO.N,/INDEX_N*%
X88975000Y-55945000D03*
%TO.P,U1,10,3A_10*%
%TO.N,/INDEX*%
X88975000Y-54675000D03*
%TO.P,U1,11,3Y_11*%
%TO.N,/INDEX_3V3*%
X88975000Y-53405000D03*
%TO.P,U1,12,~{G}_12*%
%TO.N,GND*%
X88975000Y-52135000D03*
%TO.P,U1,13,4Y_13*%
%TO.N,unconnected-(U1-4Y-Pad13)*%
X88975000Y-50865000D03*
%TO.P,U1,14,4A_14*%
%TO.N,unconnected-(U1-4A-Pad14)*%
X88975000Y-49595000D03*
%TO.P,U1,15,4B_15*%
%TO.N,unconnected-(U1-4B-Pad15)*%
X88975000Y-48325000D03*
%TO.P,U1,16,VDD_16*%
%TO.N,+3V3*%
X88975000Y-47055000D03*
%TD*%
D20*
%TO.P,R1,1*%
%TO.N,Net-(C3-Pad2)*%
X81300000Y-47100000D03*
%TO.P,R1,2*%
%TO.N,/A*%
X81300000Y-49100000D03*
%TD*%
D14*
%TO.P,GND_1,1,1_1*%
%TO.N,GND*%
X91500000Y-77000000D03*
%TD*%
D21*
%TO.P,C1,1*%
%TO.N,+3V3*%
X91600000Y-47962500D03*
%TO.P,C1,2*%
%TO.N,GND*%
X91600000Y-50037500D03*
%TD*%
D22*
%TO.P,A1,1,GPIO0_1*%
%TO.N,unconnected-(A1-GPIO0-Pad1)_1*%
X96085000Y-41640000D03*
D23*
%TO.N,unconnected-(A1-GPIO0-Pad1)*%
X96885000Y-41640000D03*
D24*
%TO.P,A1,2,GPIO1_2*%
%TO.N,unconnected-(A1-GPIO1-Pad2)*%
X96085000Y-44180000D03*
D25*
%TO.N,unconnected-(A1-GPIO1-Pad2)_1*%
X96885000Y-44180000D03*
D26*
%TO.P,A1,3,GND_3*%
%TO.N,GND*%
X96085000Y-46720000D03*
D27*
X96885000Y-46720000D03*
D24*
%TO.P,A1,4,GPIO2_4*%
%TO.N,/A_3V3*%
X96085000Y-49260000D03*
D25*
X96885000Y-49260000D03*
D24*
%TO.P,A1,5,GPIO3_5*%
%TO.N,/B_3V3*%
X96085000Y-51800000D03*
D25*
X96885000Y-51800000D03*
D24*
%TO.P,A1,6,GPIO4_6*%
%TO.N,/INDEX_3V3*%
X96085000Y-54340000D03*
D25*
X96885000Y-54340000D03*
D24*
%TO.P,A1,7,GPIO5_7*%
%TO.N,unconnected-(A1-GPIO5-Pad7)_1*%
X96085000Y-56880000D03*
D25*
%TO.N,unconnected-(A1-GPIO5-Pad7)*%
X96885000Y-56880000D03*
D26*
%TO.P,A1,8,GND_8*%
%TO.N,GND*%
X96085000Y-59420000D03*
D27*
X96885000Y-59420000D03*
D24*
%TO.P,A1,9,GPIO6_9*%
%TO.N,unconnected-(A1-GPIO6-Pad9)_1*%
X96085000Y-61960000D03*
D25*
%TO.N,unconnected-(A1-GPIO6-Pad9)*%
X96885000Y-61960000D03*
D24*
%TO.P,A1,10,GPIO7_10*%
%TO.N,unconnected-(A1-GPIO7-Pad10)_1*%
X96085000Y-64500000D03*
D25*
%TO.N,unconnected-(A1-GPIO7-Pad10)*%
X96885000Y-64500000D03*
D24*
%TO.P,A1,11,GPIO8_11*%
%TO.N,unconnected-(A1-GPIO8-Pad11)_1*%
X96085000Y-67040000D03*
D25*
%TO.N,unconnected-(A1-GPIO8-Pad11)*%
X96885000Y-67040000D03*
D24*
%TO.P,A1,12,GPIO9_12*%
%TO.N,unconnected-(A1-GPIO9-Pad12)*%
X96085000Y-69580000D03*
D25*
%TO.N,unconnected-(A1-GPIO9-Pad12)_1*%
X96885000Y-69580000D03*
D26*
%TO.P,A1,13,GND_13*%
%TO.N,GND*%
X96085000Y-72120000D03*
D27*
X96885000Y-72120000D03*
D24*
%TO.P,A1,14,GPIO10_14*%
%TO.N,unconnected-(A1-GPIO10-Pad14)_1*%
X96085000Y-74660000D03*
D25*
%TO.N,unconnected-(A1-GPIO10-Pad14)*%
X96885000Y-74660000D03*
D24*
%TO.P,A1,15,GPIO11_15*%
%TO.N,unconnected-(A1-GPIO11-Pad15)_1*%
X96085000Y-77200000D03*
D25*
%TO.N,unconnected-(A1-GPIO11-Pad15)*%
X96885000Y-77200000D03*
D24*
%TO.P,A1,16,GPIO12_16*%
%TO.N,unconnected-(A1-GPIO12-Pad16)*%
X96085000Y-79740000D03*
D25*
%TO.N,unconnected-(A1-GPIO12-Pad16)_1*%
X96885000Y-79740000D03*
D24*
%TO.P,A1,17,GPIO13_17*%
%TO.N,unconnected-(A1-GPIO13-Pad17)*%
X96085000Y-82280000D03*
D25*
%TO.N,unconnected-(A1-GPIO13-Pad17)_1*%
X96885000Y-82280000D03*
D26*
%TO.P,A1,18,GND_18*%
%TO.N,GND*%
X96085000Y-84820000D03*
D27*
X96885000Y-84820000D03*
D24*
%TO.P,A1,19,GPIO14_19*%
%TO.N,unconnected-(A1-GPIO14-Pad19)_1*%
X96085000Y-87360000D03*
D25*
%TO.N,unconnected-(A1-GPIO14-Pad19)*%
X96885000Y-87360000D03*
D24*
%TO.P,A1,20,GPIO15_20*%
%TO.N,unconnected-(A1-GPIO15-Pad20)_1*%
X96085000Y-89900000D03*
D25*
%TO.N,unconnected-(A1-GPIO15-Pad20)*%
X96885000Y-89900000D03*
%TO.P,A1,21,GPIO16_21*%
%TO.N,unconnected-(A1-GPIO16-Pad21)*%
X114665000Y-89900000D03*
D24*
%TO.N,unconnected-(A1-GPIO16-Pad21)_1*%
X115465000Y-89900000D03*
D25*
%TO.P,A1,22,GPIO17_22*%
%TO.N,unconnected-(A1-GPIO17-Pad22)_1*%
X114665000Y-87360000D03*
D24*
%TO.N,unconnected-(A1-GPIO17-Pad22)*%
X115465000Y-87360000D03*
D28*
%TO.P,A1,23,GND_23*%
%TO.N,GND*%
X114665000Y-84820000D03*
D22*
X115465000Y-84820000D03*
D25*
%TO.P,A1,24,GPIO18_24*%
%TO.N,unconnected-(A1-GPIO18-Pad24)*%
X114665000Y-82280000D03*
D24*
%TO.N,unconnected-(A1-GPIO18-Pad24)_1*%
X115465000Y-82280000D03*
D25*
%TO.P,A1,25,GPIO19_25*%
%TO.N,unconnected-(A1-GPIO19-Pad25)_1*%
X114665000Y-79740000D03*
D24*
%TO.N,unconnected-(A1-GPIO19-Pad25)*%
X115465000Y-79740000D03*
D25*
%TO.P,A1,26,GPIO20_26*%
%TO.N,unconnected-(A1-GPIO20-Pad26)*%
X114665000Y-77200000D03*
D24*
%TO.N,unconnected-(A1-GPIO20-Pad26)_1*%
X115465000Y-77200000D03*
D25*
%TO.P,A1,27,GPIO21_27*%
%TO.N,/TRIGGER*%
X114665000Y-74660000D03*
D24*
X115465000Y-74660000D03*
D28*
%TO.P,A1,28,GND_28*%
%TO.N,GND*%
X114665000Y-72120000D03*
D22*
X115465000Y-72120000D03*
D25*
%TO.P,A1,29,GPIO22_29*%
%TO.N,unconnected-(A1-GPIO22-Pad29)*%
X114665000Y-69580000D03*
D24*
%TO.N,unconnected-(A1-GPIO22-Pad29)_1*%
X115465000Y-69580000D03*
D25*
%TO.P,A1,30,RUN_30*%
%TO.N,unconnected-(A1-RUN-Pad30)*%
X114665000Y-67040000D03*
D24*
%TO.N,unconnected-(A1-RUN-Pad30)_1*%
X115465000Y-67040000D03*
D25*
%TO.P,A1,31,GPIO26_ADC0_31*%
%TO.N,unconnected-(A1-GPIO26_ADC0-Pad31)_1*%
X114665000Y-64500000D03*
D24*
%TO.N,unconnected-(A1-GPIO26_ADC0-Pad31)*%
X115465000Y-64500000D03*
D25*
%TO.P,A1,32,GPIO27_ADC1_32*%
%TO.N,unconnected-(A1-GPIO27_ADC1-Pad32)*%
X114665000Y-61960000D03*
D24*
%TO.N,unconnected-(A1-GPIO27_ADC1-Pad32)_1*%
X115465000Y-61960000D03*
D28*
%TO.P,A1,33,AGND_33*%
%TO.N,Net-(A1-AGND)*%
X114665000Y-59420000D03*
D22*
X115465000Y-59420000D03*
D25*
%TO.P,A1,34,GPIO28_ADC2_34*%
%TO.N,unconnected-(A1-GPIO28_ADC2-Pad34)*%
X114665000Y-56880000D03*
D24*
%TO.N,unconnected-(A1-GPIO28_ADC2-Pad34)_1*%
X115465000Y-56880000D03*
D25*
%TO.P,A1,35,ADC_VREF_35*%
%TO.N,unconnected-(A1-ADC_VREF-Pad35)_1*%
X114665000Y-54340000D03*
D24*
%TO.N,unconnected-(A1-ADC_VREF-Pad35)*%
X115465000Y-54340000D03*
D25*
%TO.P,A1,36,3V3_36*%
%TO.N,+3V3*%
X114665000Y-51800000D03*
D24*
X115465000Y-51800000D03*
D25*
%TO.P,A1,37,3V3_EN_37*%
%TO.N,unconnected-(A1-3V3_EN-Pad37)*%
X114665000Y-49260000D03*
D24*
%TO.N,unconnected-(A1-3V3_EN-Pad37)_1*%
X115465000Y-49260000D03*
D28*
%TO.P,A1,38,GND_38*%
%TO.N,GND*%
X114665000Y-46720000D03*
D22*
X115465000Y-46720000D03*
D25*
%TO.P,A1,39,VSYS_39*%
%TO.N,Net-(A1-VSYS)*%
X114665000Y-44180000D03*
D24*
X115465000Y-44180000D03*
D25*
%TO.P,A1,40,VBUS_40*%
%TO.N,unconnected-(A1-VBUS-Pad40)*%
X114665000Y-41640000D03*
D24*
%TO.N,unconnected-(A1-VBUS-Pad40)_1*%
X115465000Y-41640000D03*
%TD*%
D29*
%TO.P,C5,1*%
%TO.N,/INDEX_N*%
X89462500Y-58500000D03*
%TO.P,C5,2*%
%TO.N,Net-(C5-Pad2)*%
X91537500Y-58500000D03*
%TD*%
D17*
%TO.P,R3,1*%
%TO.N,Net-(C5-Pad2)*%
X91500000Y-56300000D03*
%TO.P,R3,2*%
%TO.N,/INDEX*%
X91500000Y-54300000D03*
%TD*%
D14*
%TO.P,+5V_S1,1,1_1*%
%TO.N,+5V_S*%
X122000000Y-53500000D03*
%TD*%
D11*
%TO.P,J1,1,Pin_1_1*%
%TO.N,GND*%
X82500000Y-78120000D03*
D12*
%TO.P,J1,2,Pin_2_2*%
X79960000Y-78120000D03*
%TO.P,J1,3,Pin_3_3*%
%TO.N,/INDEX_N*%
X82500000Y-75580000D03*
%TO.P,J1,4,Pin_4_4*%
%TO.N,/INDEX*%
X79960000Y-75580000D03*
%TO.P,J1,5,Pin_5_5*%
%TO.N,/A_N*%
X82500000Y-73040000D03*
%TO.P,J1,6,Pin_6_6*%
%TO.N,/A*%
X79960000Y-73040000D03*
%TO.P,J1,7,Pin_7_7*%
%TO.N,+5V_E*%
X82500000Y-70500000D03*
%TO.P,J1,8,Pin_8_8*%
X79960000Y-70500000D03*
%TO.P,J1,9,Pin_9_9*%
%TO.N,/B_N*%
X82500000Y-67960000D03*
%TO.P,J1,10,Pin_10_10*%
%TO.N,/B*%
X79960000Y-67960000D03*
%TD*%
D30*
%TO.N,GND*%
X117500000Y-72500000D03*
X118986319Y-71986319D03*
%TO.N,/INDEX_N*%
X89250000Y-74250000D03*
D31*
%TO.N,+5V_E*%
X111500000Y-78500000D03*
X103000000Y-72000000D03*
D30*
%TO.N,/INDEX_N*%
X105000000Y-71000000D03*
%TO.N,/INDEX*%
X105000000Y-69000000D03*
%TO.N,/B*%
X106000000Y-67500000D03*
%TO.N,/INDEX*%
X88000000Y-74500000D03*
%TO.N,/B_N*%
X106500000Y-68140000D03*
D32*
%TO.N,+3V3*%
X85900000Y-50300000D03*
X86900000Y-48100000D03*
%TO.N,GND*%
X91600000Y-50037500D03*
X91600000Y-52300000D03*
X91600000Y-46500000D03*
%TD*%
%TO.N,GND*%
D33*
X119500000Y-69185000D02*
X120725000Y-67960000D01*
X119500000Y-71472638D02*
X119500000Y-69185000D01*
X118986319Y-71986319D02*
X119500000Y-71472638D01*
X116345000Y-73000000D02*
X115465000Y-72120000D01*
X117000000Y-73000000D02*
X116345000Y-73000000D01*
X117500000Y-72500000D02*
X117000000Y-73000000D01*
%TO.N,+5V_E*%
D34*
X109500000Y-78500000D02*
X111500000Y-78500000D01*
X103000000Y-72000000D02*
X109500000Y-78500000D01*
%TO.N,/INDEX_N*%
D35*
X92500000Y-71000000D02*
X105000000Y-71000000D01*
X89250000Y-74250000D02*
X92500000Y-71000000D01*
%TO.N,/INDEX*%
X94020000Y-68480000D02*
X88000000Y-74500000D01*
X99000000Y-69000000D02*
X98480000Y-68480000D01*
X98480000Y-68480000D02*
X94020000Y-68480000D01*
X105000000Y-69000000D02*
X99000000Y-69000000D01*
%TO.N,/B_N*%
X118000000Y-76000000D02*
X120120000Y-78120000D01*
X118000000Y-74500000D02*
X118000000Y-76000000D01*
X117060000Y-73560000D02*
X118000000Y-74500000D01*
X113000000Y-71000000D02*
X113000000Y-72500000D01*
X110140000Y-68140000D02*
X113000000Y-71000000D01*
X120120000Y-78120000D02*
X120725000Y-78120000D01*
X106500000Y-68140000D02*
X110140000Y-68140000D01*
X113000000Y-72500000D02*
X114060000Y-73560000D01*
X114060000Y-73560000D02*
X117060000Y-73560000D01*
%TO.N,/TRIGGER*%
X119000000Y-82725000D02*
X122500000Y-86225000D01*
X115660000Y-74660000D02*
X119000000Y-78000000D01*
X119000000Y-78000000D02*
X119000000Y-82725000D01*
X115465000Y-74660000D02*
X115660000Y-74660000D01*
%TO.N,+5V_S*%
D33*
X122500000Y-54000000D02*
X122000000Y-53500000D01*
X122500000Y-59225000D02*
X122500000Y-54000000D01*
D35*
X122000000Y-53000000D02*
X120500000Y-51500000D01*
X122000000Y-53500000D02*
X122000000Y-53000000D01*
X120500000Y-51500000D02*
X120500000Y-49000000D01*
%TO.N,Net-(A1-VSYS)*%
X115645000Y-44000000D02*
X115465000Y-44180000D01*
X120500000Y-44000000D02*
X115645000Y-44000000D01*
%TO.N,+3V3*%
X108729779Y-46079000D02*
X108733779Y-46075000D01*
X92500000Y-45500000D02*
X97579180Y-45500000D01*
X86900000Y-48100000D02*
X87945000Y-47055000D01*
X85335000Y-50865000D02*
X85900000Y-50300000D01*
X103883779Y-46075000D02*
X107666221Y-46075000D01*
X91600000Y-47962500D02*
X90692500Y-47055000D01*
X97579180Y-45500000D02*
X98154180Y-46075000D01*
X108733779Y-46075000D02*
X109740000Y-46075000D01*
X98154180Y-46075000D02*
X102816221Y-46075000D01*
X90915000Y-45115000D02*
X88975000Y-47055000D01*
X90692500Y-47055000D02*
X88975000Y-47055000D01*
X107670221Y-46079000D02*
X108729779Y-46079000D01*
X84025000Y-50865000D02*
X85335000Y-50865000D01*
X87945000Y-47055000D02*
X88975000Y-47055000D01*
X102820221Y-46079000D02*
X103879779Y-46079000D01*
X109740000Y-46075000D02*
X115465000Y-51800000D01*
X107666221Y-46075000D02*
X107670221Y-46079000D01*
X91500000Y-44500000D02*
X92500000Y-45500000D01*
X103879779Y-46079000D02*
X103883779Y-46075000D01*
X102816221Y-46075000D02*
X102820221Y-46079000D01*
%TO.N,/B_N*%
X81500000Y-57737500D02*
X81300000Y-57537500D01*
X81300000Y-57537500D02*
X82325000Y-56512500D01*
X82725000Y-54675000D02*
X84025000Y-54675000D01*
X82325000Y-55075000D02*
X82725000Y-54675000D01*
X81300000Y-66760000D02*
X81300000Y-57537500D01*
X82325000Y-56512500D02*
X82325000Y-55075000D01*
X82500000Y-67960000D02*
X81300000Y-66760000D01*
%TO.N,Net-(C4-Pad2)*%
X81300000Y-53300000D02*
X81300000Y-55462500D01*
%TO.N,/A_N*%
X83337500Y-44900000D02*
X83337500Y-43937500D01*
X81110000Y-74430000D02*
X82500000Y-73040000D01*
X83337500Y-43937500D02*
X82700000Y-43300000D01*
X78100000Y-73600000D02*
X78930000Y-74430000D01*
X78930000Y-74430000D02*
X81110000Y-74430000D01*
X82700000Y-43300000D02*
X80300000Y-43300000D01*
X83737500Y-44337500D02*
X83737500Y-45100000D01*
X80300000Y-43300000D02*
X78100000Y-45500000D01*
X83337500Y-46367500D02*
X84025000Y-47055000D01*
X83337500Y-44900000D02*
X83337500Y-46367500D01*
X78100000Y-45500000D02*
X78100000Y-73600000D01*
%TO.N,Net-(C3-Pad2)*%
X81262500Y-47062500D02*
X81300000Y-47100000D01*
X81662500Y-47062500D02*
X81700000Y-47100000D01*
X81262500Y-44900000D02*
X81262500Y-47062500D01*
%TO.N,/B*%
X81300000Y-51300000D02*
X83405000Y-53405000D01*
X79960000Y-67960000D02*
X79960000Y-52640000D01*
X79960000Y-52640000D02*
X81300000Y-51300000D01*
X83405000Y-53405000D02*
X84025000Y-53405000D01*
%TO.N,Net-(A1-AGND)*%
X115465000Y-59420000D02*
X117680000Y-59420000D01*
X117680000Y-59420000D02*
X117700000Y-59400000D01*
%TO.N,/A*%
X78500000Y-50700000D02*
X78500000Y-71580000D01*
X78500000Y-71580000D02*
X79960000Y-73040000D01*
X81300000Y-49100000D02*
X82075000Y-48325000D01*
X82075000Y-48325000D02*
X84025000Y-48325000D01*
X83955000Y-48395000D02*
X84025000Y-48325000D01*
X80100000Y-49100000D02*
X78500000Y-50700000D01*
X81300000Y-49100000D02*
X80100000Y-49100000D01*
%TO.N,/A_3V3*%
X84025000Y-49595000D02*
X84625000Y-48995000D01*
X95820000Y-48995000D02*
X96085000Y-49260000D01*
X84625000Y-48995000D02*
X95820000Y-48995000D01*
%TO.N,/B_3V3*%
X95750000Y-51465000D02*
X96085000Y-51800000D01*
X84025000Y-52135000D02*
X84695000Y-51465000D01*
X84695000Y-51465000D02*
X95750000Y-51465000D01*
%TO.N,/INDEX_N*%
X82500000Y-75580000D02*
X89462500Y-68617500D01*
X89462500Y-58500000D02*
X89462500Y-56432500D01*
X89462500Y-68617500D02*
X89462500Y-58500000D01*
X89462500Y-56432500D02*
X88975000Y-55945000D01*
%TO.N,/INDEX*%
X89862500Y-69843846D02*
X89862500Y-62137500D01*
X92900000Y-55270000D02*
X91930000Y-54300000D01*
X92900000Y-59100000D02*
X92900000Y-55270000D01*
X82976346Y-76730000D02*
X89862500Y-69843846D01*
X89862500Y-62137500D02*
X92900000Y-59100000D01*
X91930000Y-54300000D02*
X91500000Y-54300000D01*
X91500000Y-54300000D02*
X89350000Y-54300000D01*
X81110000Y-76730000D02*
X82976346Y-76730000D01*
X89350000Y-54300000D02*
X88975000Y-54675000D01*
X79960000Y-75580000D02*
X81110000Y-76730000D01*
%TO.N,/INDEX_3V3*%
X88975000Y-53405000D02*
X89275000Y-53105000D01*
X94850000Y-53105000D02*
X96085000Y-54340000D01*
X88975000Y-53405000D02*
X89280000Y-53100000D01*
X89275000Y-53105000D02*
X94850000Y-53105000D01*
%TO.N,+5V_E*%
X79960000Y-70500000D02*
X82500000Y-70500000D01*
%TO.N,Net-(C5-Pad2)*%
X91500000Y-58462500D02*
X91537500Y-58500000D01*
X91500000Y-56300000D02*
X91500000Y-58462500D01*
X92025000Y-56625000D02*
X92025000Y-56395000D01*
%TO.N,/B*%
X122115000Y-76970000D02*
X123265000Y-78120000D01*
X119970000Y-76970000D02*
X122115000Y-76970000D01*
X118500000Y-75500000D02*
X119970000Y-76970000D01*
X114000000Y-71000000D02*
X117000000Y-71000000D01*
X110500000Y-67500000D02*
X114000000Y-71000000D01*
X106000000Y-67500000D02*
X110500000Y-67500000D01*
X118500000Y-72500000D02*
X118500000Y-75500000D01*
X117000000Y-71000000D02*
X118500000Y-72500000D01*
%TD*%
%TA.AperFunction,Conductor*%
%TO.N,GND*%
G36*
X80912324Y-76857140D02*
G01*
X80921974Y-76863708D01*
X80981132Y-76922866D01*
X81040257Y-76947355D01*
X81064747Y-76957500D01*
X81064748Y-76957500D01*
X81064751Y-76957500D01*
X81076726Y-76959883D01*
X81075937Y-76963848D01*
X81121354Y-76977185D01*
X81167109Y-77029989D01*
X81177053Y-77099147D01*
X81170497Y-77124834D01*
X81156402Y-77162622D01*
X81156401Y-77162626D01*
X81147497Y-77245444D01*
X81144434Y-77245114D01*
X81145336Y-77262094D01*
X81112356Y-77321195D01*
X80442962Y-77990590D01*
X80425925Y-77927007D01*
X80360099Y-77812993D01*
X80267007Y-77719901D01*
X80152993Y-77654075D01*
X80089409Y-77637037D01*
X80721716Y-77004728D01*
X80718934Y-76969378D01*
X80733298Y-76901001D01*
X80782349Y-76851243D01*
X80850514Y-76835904D01*
X80912324Y-76857140D01*
G37*
%TD.AperFunction*%
%TA.AperFunction,Conductor*%
G36*
X117563944Y-71889685D02*
G01*
X117584586Y-71906319D01*
X118236181Y-72557914D01*
X118269666Y-72619237D01*
X118272500Y-72645595D01*
X118272500Y-74151404D01*
X118252815Y-74218443D01*
X118200011Y-74264198D01*
X118130853Y-74274142D01*
X118067297Y-74245117D01*
X118060819Y-74239085D01*
X117188869Y-73367136D01*
X117188868Y-73367135D01*
X117124700Y-73340555D01*
X117070298Y-73296714D01*
X117048234Y-73230419D01*
X117065514Y-73162720D01*
X117093491Y-73130141D01*
X117132065Y-73098484D01*
X117243485Y-72987064D01*
X117306291Y-72910536D01*
X117306295Y-72910530D01*
X117393832Y-72779521D01*
X117393844Y-72779501D01*
X117440509Y-72692198D01*
X117500814Y-72546612D01*
X117529556Y-72451860D01*
X117529559Y-72451849D01*
X117545839Y-72370000D01*
X115589000Y-72370000D01*
X115521961Y-72350315D01*
X115476206Y-72297511D01*
X115465000Y-72246000D01*
X115465000Y-71994000D01*
X115484685Y-71926961D01*
X115537489Y-71881206D01*
X115589000Y-71870000D01*
X117496905Y-71870000D01*
X117563944Y-71889685D01*
G37*
%TD.AperFunction*%
%TA.AperFunction,Conductor*%
G36*
X87459989Y-51712185D02*
G01*
X87505744Y-51764989D01*
X87515688Y-51834147D01*
X87512027Y-51851094D01*
X87502899Y-51882511D01*
X87502704Y-51884998D01*
X87502705Y-51885000D01*
X90447295Y-51885000D01*
X90447295Y-51884998D01*
X90447100Y-51882511D01*
X90437973Y-51851094D01*
X90438174Y-51781224D01*
X90476116Y-51722555D01*
X90539755Y-51693712D01*
X90557050Y-51692500D01*
X93860500Y-51692500D01*
X93927539Y-51712185D01*
X93973294Y-51764989D01*
X93984500Y-51816500D01*
X93984500Y-51856785D01*
X93999364Y-52026687D01*
X93999366Y-52026697D01*
X94058258Y-52246488D01*
X94058261Y-52246497D01*
X94154431Y-52452732D01*
X94154432Y-52452734D01*
X94284954Y-52639141D01*
X94311632Y-52665819D01*
X94345117Y-52727142D01*
X94340133Y-52796834D01*
X94298261Y-52852767D01*
X94232797Y-52877184D01*
X94223951Y-52877500D01*
X90422154Y-52877500D01*
X90355115Y-52857815D01*
X90309360Y-52805011D01*
X90299416Y-52735853D01*
X90315422Y-52690379D01*
X90401281Y-52545198D01*
X90447100Y-52387486D01*
X90447295Y-52385001D01*
X90447295Y-52385000D01*
X87502705Y-52385000D01*
X87502704Y-52385001D01*
X87502899Y-52387486D01*
X87548718Y-52545198D01*
X87632314Y-52686552D01*
X87637100Y-52692722D01*
X87634640Y-52694629D01*
X87661210Y-52743288D01*
X87656226Y-52812980D01*
X87635162Y-52845781D01*
X87636699Y-52846974D01*
X87631915Y-52853140D01*
X87548255Y-52994603D01*
X87548254Y-52994606D01*
X87502402Y-53152426D01*
X87502401Y-53152432D01*
X87499500Y-53189298D01*
X87499500Y-53620701D01*
X87502401Y-53657567D01*
X87502402Y-53657573D01*
X87548254Y-53815393D01*
X87548255Y-53815396D01*
X87548256Y-53815398D01*
X87580159Y-53869343D01*
X87631917Y-53956862D01*
X87636702Y-53963031D01*
X87634256Y-53964927D01*
X87660857Y-54013642D01*
X87655873Y-54083334D01*
X87635069Y-54115703D01*
X87636702Y-54116969D01*
X87631917Y-54123137D01*
X87548255Y-54264603D01*
X87548254Y-54264606D01*
X87502402Y-54422426D01*
X87502401Y-54422432D01*
X87499500Y-54459298D01*
X87499500Y-54890701D01*
X87502401Y-54927567D01*
X87502402Y-54927573D01*
X87548254Y-55085393D01*
X87548255Y-55085396D01*
X87631917Y-55226862D01*
X87636702Y-55233031D01*
X87634256Y-55234927D01*
X87660857Y-55283642D01*
X87655873Y-55353334D01*
X87635069Y-55385703D01*
X87636702Y-55386969D01*
X87631917Y-55393137D01*
X87548255Y-55534603D01*
X87548254Y-55534606D01*
X87502402Y-55692426D01*
X87502401Y-55692432D01*
X87499500Y-55729298D01*
X87499500Y-56160701D01*
X87502401Y-56197567D01*
X87502402Y-56197573D01*
X87548254Y-56355393D01*
X87548255Y-56355396D01*
X87548256Y-56355398D01*
X87580159Y-56409343D01*
X87631917Y-56496862D01*
X87631923Y-56496870D01*
X87748129Y-56613076D01*
X87748133Y-56613079D01*
X87748135Y-56613081D01*
X87889602Y-56696744D01*
X87889609Y-56696746D01*
X88047426Y-56742597D01*
X88047429Y-56742597D01*
X88047431Y-56742598D01*
X88084306Y-56745500D01*
X89111000Y-56745500D01*
X89178039Y-56765185D01*
X89223794Y-56817989D01*
X89235000Y-56869500D01*
X89235000Y-57150500D01*
X89215315Y-57217539D01*
X89162511Y-57263294D01*
X89111003Y-57274500D01*
X89075000Y-57274500D01*
X89074980Y-57274501D01*
X88972203Y-57285000D01*
X88972200Y-57285001D01*
X88805668Y-57340185D01*
X88805663Y-57340187D01*
X88656342Y-57432289D01*
X88532289Y-57556342D01*
X88440187Y-57705663D01*
X88440186Y-57705666D01*
X88385001Y-57872203D01*
X88385001Y-57872204D01*
X88385000Y-57872204D01*
X88374500Y-57974983D01*
X88374500Y-59025001D01*
X88374501Y-59025019D01*
X88385000Y-59127796D01*
X88385001Y-59127799D01*
X88440185Y-59294331D01*
X88440187Y-59294336D01*
X88475069Y-59350888D01*
X88532288Y-59443656D01*
X88656344Y-59567712D01*
X88805666Y-59659814D01*
X88972203Y-59714999D01*
X89074991Y-59725500D01*
X89110999Y-59725499D01*
X89178037Y-59745182D01*
X89223793Y-59797985D01*
X89235000Y-59849499D01*
X89235000Y-68471903D01*
X89215315Y-68538942D01*
X89198681Y-68559584D01*
X83824898Y-73933366D01*
X83763575Y-73966851D01*
X83693883Y-73961867D01*
X83637950Y-73919995D01*
X83613533Y-73854531D01*
X83628385Y-73786258D01*
X83636895Y-73772804D01*
X83655051Y-73747816D01*
X83751557Y-73558412D01*
X83817246Y-73356243D01*
X83850500Y-73146287D01*
X83850500Y-72933713D01*
X83817246Y-72723757D01*
X83751557Y-72521588D01*
X83655051Y-72332184D01*
X83655049Y-72332181D01*
X83655048Y-72332179D01*
X83530109Y-72160213D01*
X83379786Y-72009890D01*
X83207820Y-71884951D01*
X83207115Y-71884591D01*
X83199054Y-71880485D01*
X83148259Y-71832512D01*
X83131463Y-71764692D01*
X83153999Y-71698556D01*
X83199054Y-71659515D01*
X83207816Y-71655051D01*
X83314485Y-71577552D01*
X83379786Y-71530109D01*
X83379788Y-71530106D01*
X83379792Y-71530104D01*
X83530104Y-71379792D01*
X83530106Y-71379788D01*
X83530109Y-71379786D01*
X83655048Y-71207820D01*
X83655047Y-71207820D01*
X83655051Y-71207816D01*
X83751557Y-71018412D01*
X83817246Y-70816243D01*
X83850500Y-70606287D01*
X83850500Y-70393713D01*
X83817246Y-70183757D01*
X83751557Y-69981588D01*
X83655051Y-69792184D01*
X83655049Y-69792181D01*
X83655048Y-69792179D01*
X83530109Y-69620213D01*
X83379786Y-69469890D01*
X83207820Y-69344951D01*
X83207115Y-69344591D01*
X83199054Y-69340485D01*
X83148259Y-69292512D01*
X83131463Y-69224692D01*
X83153999Y-69158556D01*
X83199054Y-69119515D01*
X83207816Y-69115051D01*
X83256970Y-69079339D01*
X83379786Y-68990109D01*
X83379788Y-68990106D01*
X83379792Y-68990104D01*
X83530104Y-68839792D01*
X83530106Y-68839788D01*
X83530109Y-68839786D01*
X83655048Y-68667820D01*
X83655047Y-68667820D01*
X83655051Y-68667816D01*
X83751557Y-68478412D01*
X83817246Y-68276243D01*
X83850500Y-68066287D01*
X83850500Y-67853713D01*
X83817246Y-67643757D01*
X83751557Y-67441588D01*
X83655051Y-67252184D01*
X83655049Y-67252181D01*
X83655048Y-67252179D01*
X83530109Y-67080213D01*
X83379786Y-66929890D01*
X83207820Y-66804951D01*
X83018414Y-66708444D01*
X83018413Y-66708443D01*
X83018412Y-66708443D01*
X82816243Y-66642754D01*
X82816241Y-66642753D01*
X82816240Y-66642753D01*
X82654957Y-66617208D01*
X82606287Y-66609500D01*
X82393713Y-66609500D01*
X82345042Y-66617208D01*
X82183760Y-66642753D01*
X81981582Y-66708445D01*
X81789314Y-66806410D01*
X81765022Y-66810971D01*
X81741866Y-66819609D01*
X81731286Y-66817307D01*
X81720645Y-66819306D01*
X81697743Y-66810010D01*
X81673593Y-66804757D01*
X81660320Y-66794821D01*
X81655905Y-66793029D01*
X81645339Y-66783606D01*
X81563819Y-66702086D01*
X81530334Y-66640763D01*
X81527500Y-66614405D01*
X81527500Y-58749499D01*
X81547185Y-58682460D01*
X81599989Y-58636705D01*
X81651500Y-58625499D01*
X81825002Y-58625499D01*
X81825008Y-58625499D01*
X81927797Y-58614999D01*
X82094334Y-58559814D01*
X82243656Y-58467712D01*
X82367712Y-58343656D01*
X82459814Y-58194334D01*
X82514999Y-58027797D01*
X82525500Y-57925009D01*
X82525499Y-57149992D01*
X82521076Y-57106697D01*
X82514999Y-57047203D01*
X82514998Y-57047200D01*
X82489196Y-56969336D01*
X82459814Y-56880666D01*
X82459810Y-56880660D01*
X82459809Y-56880657D01*
X82442141Y-56852013D01*
X82423700Y-56784621D01*
X82444622Y-56717957D01*
X82446942Y-56714610D01*
X82452838Y-56706395D01*
X82517866Y-56641368D01*
X82542908Y-56580909D01*
X82551252Y-56569285D01*
X82567966Y-56556242D01*
X82581266Y-56539737D01*
X82594957Y-56535179D01*
X82606335Y-56526301D01*
X82627446Y-56524365D01*
X82647560Y-56517670D01*
X82661543Y-56521238D01*
X82675913Y-56519921D01*
X82694718Y-56529705D01*
X82715260Y-56534948D01*
X82736487Y-56551437D01*
X82737895Y-56552170D01*
X82738267Y-56552820D01*
X82739670Y-56553910D01*
X82798438Y-56612678D01*
X82798447Y-56612685D01*
X82939803Y-56696282D01*
X82939806Y-56696283D01*
X83097504Y-56742099D01*
X83097510Y-56742100D01*
X83134350Y-56744999D01*
X83134366Y-56745000D01*
X83775000Y-56745000D01*
X84275000Y-56745000D01*
X84915634Y-56745000D01*
X84915649Y-56744999D01*
X84952489Y-56742100D01*
X84952495Y-56742099D01*
X85110193Y-56696283D01*
X85110196Y-56696282D01*
X85251552Y-56612685D01*
X85251561Y-56612678D01*
X85367678Y-56496561D01*
X85367685Y-56496552D01*
X85451281Y-56355198D01*
X85497100Y-56197486D01*
X85497295Y-56195001D01*
X85497295Y-56195000D01*
X84275000Y-56195000D01*
X84275000Y-56745000D01*
X83775000Y-56745000D01*
X83775000Y-56069000D01*
X83794685Y-56001961D01*
X83847489Y-55956206D01*
X83899000Y-55945000D01*
X84025000Y-55945000D01*
X84025000Y-55819000D01*
X84044685Y-55751961D01*
X84097489Y-55706206D01*
X84149000Y-55695000D01*
X85497295Y-55695000D01*
X85497295Y-55694998D01*
X85497100Y-55692513D01*
X85451281Y-55534801D01*
X85367685Y-55393447D01*
X85362900Y-55387278D01*
X85365366Y-55385364D01*
X85338802Y-55336776D01*
X85343749Y-55267082D01*
X85364856Y-55234232D01*
X85363301Y-55233026D01*
X85368077Y-55226868D01*
X85368081Y-55226865D01*
X85451744Y-55085398D01*
X85497598Y-54927569D01*
X85500500Y-54890694D01*
X85500500Y-54459306D01*
X85497598Y-54422431D01*
X85486723Y-54385001D01*
X85462125Y-54300335D01*
X85451744Y-54264602D01*
X85368081Y-54123135D01*
X85368078Y-54123132D01*
X85363298Y-54116969D01*
X85365750Y-54115066D01*
X85339155Y-54066421D01*
X85344104Y-53996726D01*
X85364940Y-53964304D01*
X85363298Y-53963031D01*
X85368075Y-53956870D01*
X85368081Y-53956865D01*
X85451744Y-53815398D01*
X85494407Y-53668553D01*
X85497597Y-53657573D01*
X85497598Y-53657567D01*
X85499715Y-53630666D01*
X85500500Y-53620694D01*
X85500500Y-53189306D01*
X85497598Y-53152431D01*
X85496494Y-53148632D01*
X85454413Y-53003789D01*
X85451744Y-52994602D01*
X85368081Y-52853135D01*
X85368078Y-52853132D01*
X85363298Y-52846969D01*
X85365750Y-52845066D01*
X85339155Y-52796421D01*
X85344104Y-52726726D01*
X85364940Y-52694304D01*
X85363298Y-52693031D01*
X85368075Y-52686870D01*
X85368081Y-52686865D01*
X85451744Y-52545398D01*
X85485505Y-52429191D01*
X85497597Y-52387573D01*
X85497598Y-52387567D01*
X85500500Y-52350694D01*
X85500500Y-51919306D01*
X85497598Y-51882431D01*
X85488494Y-51851094D01*
X85488693Y-51781227D01*
X85526634Y-51722556D01*
X85590272Y-51693712D01*
X85607570Y-51692500D01*
X87392950Y-51692500D01*
X87459989Y-51712185D01*
G37*
%TD.AperFunction*%
%TA.AperFunction,Conductor*%
G36*
X114199075Y-72312993D02*
G01*
X114264901Y-72427007D01*
X114357993Y-72520099D01*
X114472007Y-72585925D01*
X114535590Y-72602962D01*
X114067824Y-73070729D01*
X114006501Y-73104214D01*
X113936809Y-73099230D01*
X113892462Y-73070729D01*
X113714271Y-72892538D01*
X113680786Y-72831215D01*
X113685770Y-72761523D01*
X113714271Y-72717176D01*
X114182037Y-72249409D01*
X114199075Y-72312993D01*
G37*
%TD.AperFunction*%
%TA.AperFunction,Conductor*%
G36*
X110421444Y-67747185D02*
G01*
X110442086Y-67763819D01*
X113807135Y-71128868D01*
X113871132Y-71192865D01*
X113954747Y-71227500D01*
X114074691Y-71227500D01*
X114141730Y-71247185D01*
X114162372Y-71263819D01*
X114535590Y-71637037D01*
X114472007Y-71654075D01*
X114357993Y-71719901D01*
X114264901Y-71812993D01*
X114199075Y-71927007D01*
X114182037Y-71990590D01*
X113421862Y-71230415D01*
X113375691Y-71239599D01*
X113306099Y-71233372D01*
X113250922Y-71190508D01*
X113227678Y-71124618D01*
X113227500Y-71117982D01*
X113227500Y-70954748D01*
X113227499Y-70954745D01*
X113204616Y-70899500D01*
X113204615Y-70899498D01*
X113192866Y-70871132D01*
X111731492Y-69409758D01*
X110260915Y-67939181D01*
X110250302Y-67919744D01*
X110235802Y-67903011D01*
X110233885Y-67889679D01*
X110227430Y-67877858D01*
X110229009Y-67855771D01*
X110225858Y-67833853D01*
X110231453Y-67821601D01*
X110232414Y-67808166D01*
X110245684Y-67790439D01*
X110254883Y-67770297D01*
X110266214Y-67763014D01*
X110274286Y-67752233D01*
X110295031Y-67744495D01*
X110313661Y-67732523D01*
X110335579Y-67729371D01*
X110339750Y-67727816D01*
X110348596Y-67727500D01*
X110354405Y-67727500D01*
X110421444Y-67747185D01*
G37*
%TD.AperFunction*%
%TA.AperFunction,Conductor*%
G36*
X97547779Y-45806180D02*
G01*
X97592127Y-45834681D01*
X97770318Y-46012872D01*
X97803803Y-46074195D01*
X97798819Y-46143887D01*
X97770318Y-46188234D01*
X97488552Y-46469999D01*
X97488553Y-46470000D01*
X98190000Y-46470000D01*
X98190000Y-46426500D01*
X98209685Y-46359461D01*
X98262489Y-46313706D01*
X98314000Y-46302500D01*
X102742645Y-46302500D01*
X102766835Y-46304882D01*
X102774967Y-46306499D01*
X102774968Y-46306500D01*
X102774969Y-46306500D01*
X103925031Y-46306500D01*
X103925032Y-46306500D01*
X103925032Y-46306499D01*
X103933165Y-46304882D01*
X103957355Y-46302500D01*
X107592645Y-46302500D01*
X107616835Y-46304882D01*
X107624967Y-46306499D01*
X107624968Y-46306500D01*
X107624969Y-46306500D01*
X108775031Y-46306500D01*
X108775032Y-46306500D01*
X108775032Y-46306499D01*
X108783165Y-46304882D01*
X108807355Y-46302500D01*
X109594405Y-46302500D01*
X109661444Y-46322185D01*
X109682086Y-46338819D01*
X113908024Y-50564758D01*
X113941509Y-50626081D01*
X113936525Y-50695773D01*
X113894653Y-50751706D01*
X113891469Y-50754012D01*
X113825859Y-50799954D01*
X113664954Y-50960859D01*
X113606781Y-51043934D01*
X113606782Y-51043935D01*
X113606132Y-51044863D01*
X113552713Y-51118390D01*
X113547535Y-51128550D01*
X113542560Y-51135656D01*
X113542558Y-51135656D01*
X113534433Y-51147262D01*
X113496838Y-51227882D01*
X113495920Y-51229849D01*
X113459780Y-51300781D01*
X113452735Y-51322458D01*
X113449532Y-51329329D01*
X113449529Y-51329338D01*
X113438261Y-51353503D01*
X113438261Y-51353504D01*
X113418459Y-51427404D01*
X113418458Y-51427403D01*
X113417614Y-51430551D01*
X113396523Y-51495466D01*
X113391175Y-51529224D01*
X113389492Y-51535507D01*
X113389492Y-51535511D01*
X113379366Y-51573304D01*
X113379364Y-51573313D01*
X113373783Y-51637106D01*
X113372728Y-51645697D01*
X113364500Y-51697643D01*
X113364500Y-51697648D01*
X113364500Y-51902352D01*
X113373406Y-51958582D01*
X113379365Y-52026692D01*
X113391171Y-52070756D01*
X113392188Y-52077175D01*
X113392190Y-52077181D01*
X113396521Y-52104525D01*
X113396522Y-52104530D01*
X113396523Y-52104534D01*
X113398115Y-52109433D01*
X113416617Y-52166378D01*
X113418460Y-52172600D01*
X113438260Y-52246494D01*
X113449529Y-52270662D01*
X113452733Y-52277532D01*
X113459780Y-52299219D01*
X113495930Y-52370169D01*
X113496844Y-52372128D01*
X113534432Y-52452734D01*
X113542562Y-52464346D01*
X113547535Y-52471448D01*
X113552713Y-52481610D01*
X113606164Y-52555180D01*
X113606793Y-52556078D01*
X113664953Y-52639140D01*
X113825858Y-52800045D01*
X113901686Y-52853140D01*
X113909800Y-52858821D01*
X113983390Y-52912287D01*
X113993547Y-52917462D01*
X114000648Y-52922434D01*
X114000652Y-52922436D01*
X114012266Y-52930568D01*
X114012270Y-52930570D01*
X114070272Y-52957617D01*
X114080927Y-52966999D01*
X114094131Y-52972224D01*
X114106629Y-52989629D01*
X114122712Y-53003789D01*
X114126604Y-53017444D01*
X114134886Y-53028977D01*
X114135990Y-53050375D01*
X114141864Y-53070982D01*
X114137755Y-53084573D01*
X114138488Y-53098754D01*
X114127848Y-53117352D01*
X114121649Y-53137864D01*
X114110167Y-53148259D01*
X114103794Y-53159401D01*
X114079369Y-53176145D01*
X114075126Y-53179988D01*
X114072711Y-53181244D01*
X114012266Y-53209432D01*
X113994002Y-53222219D01*
X113986792Y-53225973D01*
X113986591Y-53226012D01*
X113985847Y-53226460D01*
X113983397Y-53227708D01*
X113983394Y-53227710D01*
X113910696Y-53280526D01*
X113908939Y-53281779D01*
X113825859Y-53339954D01*
X113664954Y-53500859D01*
X113606781Y-53583934D01*
X113606782Y-53583935D01*
X113606132Y-53584863D01*
X113552713Y-53658390D01*
X113547535Y-53668550D01*
X113542560Y-53675656D01*
X113542558Y-53675656D01*
X113534433Y-53687262D01*
X113496838Y-53767882D01*
X113495920Y-53769849D01*
X113459780Y-53840781D01*
X113452735Y-53862458D01*
X113449532Y-53869329D01*
X113449529Y-53869338D01*
X113438261Y-53893503D01*
X113438261Y-53893504D01*
X113418459Y-53967404D01*
X113418458Y-53967403D01*
X113417614Y-53970551D01*
X113396523Y-54035466D01*
X113391175Y-54069224D01*
X113389492Y-54075507D01*
X113389492Y-54075511D01*
X113379366Y-54113304D01*
X113379364Y-54113313D01*
X113373783Y-54177106D01*
X113372728Y-54185697D01*
X113364500Y-54237643D01*
X113364500Y-54237648D01*
X113364500Y-54442352D01*
X113373406Y-54498582D01*
X113379365Y-54566692D01*
X113391171Y-54610756D01*
X113392188Y-54617175D01*
X113392190Y-54617181D01*
X113396521Y-54644525D01*
X113396522Y-54644530D01*
X113416617Y-54706378D01*
X113418460Y-54712600D01*
X113438260Y-54786494D01*
X113449529Y-54810662D01*
X113452733Y-54817532D01*
X113459780Y-54839219D01*
X113495930Y-54910169D01*
X113496844Y-54912128D01*
X113534432Y-54992734D01*
X113542562Y-55004346D01*
X113547535Y-55011448D01*
X113552713Y-55021610D01*
X113606164Y-55095180D01*
X113606793Y-55096078D01*
X113664953Y-55179140D01*
X113825858Y-55340045D01*
X113893314Y-55387278D01*
X113909800Y-55398821D01*
X113983390Y-55452287D01*
X113993547Y-55457462D01*
X114000648Y-55462434D01*
X114000652Y-55462436D01*
X114012266Y-55470568D01*
X114012270Y-55470570D01*
X114070272Y-55497617D01*
X114080927Y-55506999D01*
X114094131Y-55512224D01*
X114106629Y-55529629D01*
X114122712Y-55543789D01*
X114126604Y-55557444D01*
X114134886Y-55568977D01*
X114135990Y-55590375D01*
X114141864Y-55610982D01*
X114137755Y-55624573D01*
X114138488Y-55638754D01*
X114127848Y-55657352D01*
X114121649Y-55677864D01*
X114110167Y-55688259D01*
X114103794Y-55699401D01*
X114079369Y-55716145D01*
X114075126Y-55719988D01*
X114072711Y-55721244D01*
X114012266Y-55749432D01*
X113994002Y-55762219D01*
X113986792Y-55765973D01*
X113986591Y-55766012D01*
X113985847Y-55766460D01*
X113983397Y-55767708D01*
X113983394Y-55767710D01*
X113910696Y-55820526D01*
X113908939Y-55821779D01*
X113825859Y-55879954D01*
X113664954Y-56040859D01*
X113606781Y-56123934D01*
X113606782Y-56123935D01*
X113606132Y-56124863D01*
X113552713Y-56198390D01*
X113547535Y-56208550D01*
X113542560Y-56215656D01*
X113542558Y-56215656D01*
X113534433Y-56227262D01*
X113496838Y-56307882D01*
X113495920Y-56309849D01*
X113459780Y-56380781D01*
X113452735Y-56402458D01*
X113449532Y-56409329D01*
X113449529Y-56409338D01*
X113438261Y-56433503D01*
X113438261Y-56433504D01*
X113418459Y-56507404D01*
X113418458Y-56507403D01*
X113417614Y-56510551D01*
X113396523Y-56575466D01*
X113391175Y-56609224D01*
X113389492Y-56615507D01*
X113389492Y-56615511D01*
X113379366Y-56653304D01*
X113379364Y-56653313D01*
X113373783Y-56717106D01*
X113372728Y-56725697D01*
X113364500Y-56777643D01*
X113364500Y-56777648D01*
X113364500Y-56982352D01*
X113373406Y-57038582D01*
X113379365Y-57106692D01*
X113391171Y-57150756D01*
X113392188Y-57157175D01*
X113392190Y-57157181D01*
X113396521Y-57184525D01*
X113396522Y-57184530D01*
X113416617Y-57246378D01*
X113418460Y-57252600D01*
X113438260Y-57326494D01*
X113449529Y-57350662D01*
X113452733Y-57357532D01*
X113459780Y-57379219D01*
X113495930Y-57450169D01*
X113496844Y-57452128D01*
X113534432Y-57532734D01*
X113542562Y-57544346D01*
X113547535Y-57551448D01*
X113552713Y-57561610D01*
X113606164Y-57635180D01*
X113606793Y-57636078D01*
X113664953Y-57719140D01*
X113825857Y-57880044D01*
X113825860Y-57880046D01*
X113825861Y-57880047D01*
X113891843Y-57926248D01*
X113935469Y-57980824D01*
X113942663Y-58050322D01*
X113911141Y-58112677D01*
X113851391Y-58147970D01*
X113831780Y-58152975D01*
X113831766Y-58152980D01*
X113758280Y-58183419D01*
X113758252Y-58183431D01*
X113709451Y-58206779D01*
X113709446Y-58206782D01*
X113594268Y-58293005D01*
X113594256Y-58293015D01*
X113538019Y-58349252D01*
X113501843Y-58389524D01*
X113501837Y-58389532D01*
X113428426Y-58513263D01*
X113397978Y-58586774D01*
X113397970Y-58586795D01*
X113379976Y-58637800D01*
X113359500Y-58780219D01*
X113359500Y-60059784D01*
X113362395Y-60113814D01*
X113362396Y-60113818D01*
X113397976Y-60253221D01*
X113397980Y-60253233D01*
X113428419Y-60326719D01*
X113428431Y-60326747D01*
X113451779Y-60375548D01*
X113451781Y-60375551D01*
X113538006Y-60490733D01*
X113538010Y-60490737D01*
X113538015Y-60490743D01*
X113594252Y-60546980D01*
X113594261Y-60546988D01*
X113594267Y-60546994D01*
X113625999Y-60575498D01*
X113634524Y-60583156D01*
X113634532Y-60583162D01*
X113758263Y-60656573D01*
X113758262Y-60656573D01*
X113765329Y-60659500D01*
X113831774Y-60687022D01*
X113844898Y-60691652D01*
X113859660Y-60696860D01*
X113916332Y-60737726D01*
X113941913Y-60802745D01*
X113928281Y-60871272D01*
X113889531Y-60915370D01*
X113825858Y-60959955D01*
X113664954Y-61120859D01*
X113606781Y-61203934D01*
X113606782Y-61203935D01*
X113606132Y-61204863D01*
X113552713Y-61278390D01*
X113547535Y-61288550D01*
X113542560Y-61295656D01*
X113542558Y-61295656D01*
X113534433Y-61307262D01*
X113496838Y-61387882D01*
X113495920Y-61389849D01*
X113459780Y-61460781D01*
X113452735Y-61482458D01*
X113449532Y-61489329D01*
X113449529Y-61489338D01*
X113438261Y-61513503D01*
X113438261Y-61513504D01*
X113418459Y-61587404D01*
X113418458Y-61587403D01*
X113417614Y-61590551D01*
X113396523Y-61655466D01*
X113391175Y-61689224D01*
X113389492Y-61695507D01*
X113389492Y-61695511D01*
X113379366Y-61733304D01*
X113379364Y-61733313D01*
X113373783Y-61797106D01*
X113372728Y-61805697D01*
X113364500Y-61857643D01*
X113364500Y-62062351D01*
X113372728Y-62114301D01*
X113372728Y-62114302D01*
X113373401Y-62118554D01*
X113373406Y-62118582D01*
X113379365Y-62186692D01*
X113391171Y-62230756D01*
X113392188Y-62237175D01*
X113392190Y-62237181D01*
X113396521Y-62264525D01*
X113396522Y-62264530D01*
X113396523Y-62264534D01*
X113414347Y-62319391D01*
X113416617Y-62326378D01*
X113418460Y-62332600D01*
X113438260Y-62406494D01*
X113449529Y-62430662D01*
X113452733Y-62437532D01*
X113459780Y-62459219D01*
X113495930Y-62530169D01*
X113496844Y-62532128D01*
X113534432Y-62612734D01*
X113542562Y-62624346D01*
X113547535Y-62631448D01*
X113552713Y-62641610D01*
X113606164Y-62715180D01*
X113606793Y-62716078D01*
X113664953Y-62799140D01*
X113825858Y-62960045D01*
X113825861Y-62960047D01*
X113909800Y-63018821D01*
X113983390Y-63072287D01*
X113993547Y-63077462D01*
X114000648Y-63082434D01*
X114000652Y-63082436D01*
X114012266Y-63090568D01*
X114012270Y-63090570D01*
X114070272Y-63117617D01*
X114080927Y-63126999D01*
X114094131Y-63132224D01*
X114106629Y-63149629D01*
X114122712Y-63163789D01*
X114126604Y-63177444D01*
X114134886Y-63188977D01*
X114135990Y-63210375D01*
X114141864Y-63230982D01*
X114137755Y-63244573D01*
X114138488Y-63258754D01*
X114127848Y-63277352D01*
X114121649Y-63297864D01*
X114110167Y-63308259D01*
X114103794Y-63319401D01*
X114079369Y-63336145D01*
X114075126Y-63339988D01*
X114072711Y-63341244D01*
X114012266Y-63369432D01*
X113994002Y-63382219D01*
X113986792Y-63385973D01*
X113986591Y-63386012D01*
X113985847Y-63386460D01*
X113983397Y-63387708D01*
X113983394Y-63387710D01*
X113910696Y-63440526D01*
X113908939Y-63441779D01*
X113825859Y-63499954D01*
X113664954Y-63660859D01*
X113606781Y-63743934D01*
X113606782Y-63743935D01*
X113606132Y-63744863D01*
X113552713Y-63818390D01*
X113547535Y-63828550D01*
X113542560Y-63835656D01*
X113542558Y-63835656D01*
X113534433Y-63847262D01*
X113496838Y-63927882D01*
X113495920Y-63929849D01*
X113459780Y-64000781D01*
X113452735Y-64022458D01*
X113449532Y-64029329D01*
X113449529Y-64029338D01*
X113438261Y-64053503D01*
X113438261Y-64053504D01*
X113418459Y-64127404D01*
X113418458Y-64127403D01*
X113417614Y-64130551D01*
X113396523Y-64195466D01*
X113391175Y-64229224D01*
X113389492Y-64235507D01*
X113389492Y-64235511D01*
X113379366Y-64273304D01*
X113379364Y-64273313D01*
X113373783Y-64337106D01*
X113372728Y-64345697D01*
X113364500Y-64397643D01*
X113364500Y-64397648D01*
X113364500Y-64602352D01*
X113373406Y-64658582D01*
X113379365Y-64726692D01*
X113391171Y-64770756D01*
X113392188Y-64777175D01*
X113392190Y-64777181D01*
X113396521Y-64804525D01*
X113396522Y-64804530D01*
X113416617Y-64866378D01*
X113418460Y-64872600D01*
X113438260Y-64946494D01*
X113449529Y-64970662D01*
X113452733Y-64977532D01*
X113459780Y-64999219D01*
X113495930Y-65070169D01*
X113496844Y-65072128D01*
X113534432Y-65152734D01*
X113542562Y-65164346D01*
X113547535Y-65171448D01*
X113552713Y-65181610D01*
X113606164Y-65255180D01*
X113606793Y-65256078D01*
X113664953Y-65339140D01*
X113825858Y-65500045D01*
X113825861Y-65500047D01*
X113909800Y-65558821D01*
X113983390Y-65612287D01*
X113993547Y-65617462D01*
X114000648Y-65622434D01*
X114000652Y-65622436D01*
X114012266Y-65630568D01*
X114012270Y-65630570D01*
X114070272Y-65657617D01*
X114080927Y-65666999D01*
X114094131Y-65672224D01*
X114106629Y-65689629D01*
X114122712Y-65703789D01*
X114126604Y-65717444D01*
X114134886Y-65728977D01*
X114135990Y-65750375D01*
X114141864Y-65770982D01*
X114137755Y-65784573D01*
X114138488Y-65798754D01*
X114127848Y-65817352D01*
X114121649Y-65837864D01*
X114110167Y-65848259D01*
X114103794Y-65859401D01*
X114079369Y-65876145D01*
X114075126Y-65879988D01*
X114072711Y-65881244D01*
X114012266Y-65909432D01*
X113994002Y-65922219D01*
X113986792Y-65925973D01*
X113986591Y-65926012D01*
X113985847Y-65926460D01*
X113983397Y-65927708D01*
X113983394Y-65927710D01*
X113910696Y-65980526D01*
X113908939Y-65981779D01*
X113825859Y-66039954D01*
X113664954Y-66200859D01*
X113606781Y-66283934D01*
X113606782Y-66283935D01*
X113606132Y-66284863D01*
X113552713Y-66358390D01*
X113547535Y-66368550D01*
X113542560Y-66375656D01*
X113542558Y-66375656D01*
X113534433Y-66387262D01*
X113496838Y-66467882D01*
X113495920Y-66469849D01*
X113459780Y-66540781D01*
X113452735Y-66562458D01*
X113449532Y-66569329D01*
X113449529Y-66569338D01*
X113438261Y-66593503D01*
X113438261Y-66593504D01*
X113418459Y-66667404D01*
X113418458Y-66667403D01*
X113417614Y-66670551D01*
X113396523Y-66735466D01*
X113391175Y-66769224D01*
X113389492Y-66775507D01*
X113389492Y-66775511D01*
X113379366Y-66813304D01*
X113379364Y-66813313D01*
X113373783Y-66877106D01*
X113372728Y-66885697D01*
X113364500Y-66937643D01*
X113364500Y-67142351D01*
X113372728Y-67194301D01*
X113372728Y-67194302D01*
X113372989Y-67195953D01*
X113373406Y-67198582D01*
X113379365Y-67266692D01*
X113391171Y-67310756D01*
X113392188Y-67317175D01*
X113392190Y-67317181D01*
X113396521Y-67344525D01*
X113396522Y-67344530D01*
X113416617Y-67406378D01*
X113418460Y-67412600D01*
X113438260Y-67486494D01*
X113449529Y-67510662D01*
X113452733Y-67517532D01*
X113459780Y-67539219D01*
X113495930Y-67610169D01*
X113496844Y-67612128D01*
X113534432Y-67692734D01*
X113542562Y-67704346D01*
X113547535Y-67711448D01*
X113552713Y-67721610D01*
X113606164Y-67795180D01*
X113606793Y-67796078D01*
X113664953Y-67879140D01*
X113825858Y-68040045D01*
X113863334Y-68066286D01*
X113909800Y-68098821D01*
X113983390Y-68152287D01*
X113993547Y-68157462D01*
X114000648Y-68162434D01*
X114000652Y-68162436D01*
X114012266Y-68170568D01*
X114012270Y-68170570D01*
X114070272Y-68197617D01*
X114080927Y-68206999D01*
X114094131Y-68212224D01*
X114106629Y-68229629D01*
X114122712Y-68243789D01*
X114126604Y-68257444D01*
X114134886Y-68268977D01*
X114135990Y-68290375D01*
X114141864Y-68310982D01*
X114137755Y-68324573D01*
X114138488Y-68338754D01*
X114127848Y-68357352D01*
X114121649Y-68377864D01*
X114110167Y-68388259D01*
X114103794Y-68399401D01*
X114079369Y-68416145D01*
X114075126Y-68419988D01*
X114072711Y-68421244D01*
X114012266Y-68449432D01*
X113994002Y-68462219D01*
X113986792Y-68465973D01*
X113986591Y-68466012D01*
X113985847Y-68466460D01*
X113983397Y-68467708D01*
X113983394Y-68467710D01*
X113910696Y-68520526D01*
X113908939Y-68521779D01*
X113825859Y-68579954D01*
X113664954Y-68740859D01*
X113606781Y-68823934D01*
X113606782Y-68823935D01*
X113606132Y-68824863D01*
X113552713Y-68898390D01*
X113547535Y-68908550D01*
X113542560Y-68915656D01*
X113542558Y-68915656D01*
X113534433Y-68927262D01*
X113496838Y-69007882D01*
X113495920Y-69009849D01*
X113459780Y-69080781D01*
X113452735Y-69102458D01*
X113449532Y-69109329D01*
X113449529Y-69109338D01*
X113438261Y-69133503D01*
X113438261Y-69133504D01*
X113418459Y-69207404D01*
X113418458Y-69207403D01*
X113417614Y-69210551D01*
X113396523Y-69275466D01*
X113391175Y-69309224D01*
X113389492Y-69315507D01*
X113389492Y-69315511D01*
X113379366Y-69353304D01*
X113379364Y-69353313D01*
X113373783Y-69417106D01*
X113372728Y-69425697D01*
X113364500Y-69477643D01*
X113364500Y-69477648D01*
X113364500Y-69682352D01*
X113369485Y-69713824D01*
X113372627Y-69733661D01*
X113363671Y-69802955D01*
X113318674Y-69856406D01*
X113251923Y-69877045D01*
X113184609Y-69858319D01*
X113162472Y-69840739D01*
X110628870Y-67307136D01*
X110545253Y-67272500D01*
X106860487Y-67272500D01*
X106793448Y-67252815D01*
X106747693Y-67200011D01*
X106745926Y-67195953D01*
X106723723Y-67142351D01*
X106713824Y-67118453D01*
X106713822Y-67118450D01*
X106713820Y-67118446D01*
X106625672Y-66986524D01*
X106625669Y-66986520D01*
X106513479Y-66874330D01*
X106513475Y-66874327D01*
X106381553Y-66786179D01*
X106381543Y-66786174D01*
X106234956Y-66725455D01*
X106234948Y-66725453D01*
X106079338Y-66694500D01*
X106079335Y-66694500D01*
X105920665Y-66694500D01*
X105920662Y-66694500D01*
X105765051Y-66725453D01*
X105765043Y-66725455D01*
X105618456Y-66786174D01*
X105618446Y-66786179D01*
X105486524Y-66874327D01*
X105486520Y-66874330D01*
X105374330Y-66986520D01*
X105374327Y-66986524D01*
X105286179Y-67118446D01*
X105286174Y-67118456D01*
X105225455Y-67265043D01*
X105225453Y-67265051D01*
X105194500Y-67420660D01*
X105194500Y-67579339D01*
X105225453Y-67734948D01*
X105225455Y-67734956D01*
X105286174Y-67881543D01*
X105286179Y-67881553D01*
X105374327Y-68013475D01*
X105374330Y-68013479D01*
X105393945Y-68033094D01*
X105427430Y-68094417D01*
X105422446Y-68164109D01*
X105380574Y-68220042D01*
X105315110Y-68244459D01*
X105258812Y-68235336D01*
X105234960Y-68225456D01*
X105234948Y-68225453D01*
X105079338Y-68194500D01*
X105079335Y-68194500D01*
X104920665Y-68194500D01*
X104920662Y-68194500D01*
X104765051Y-68225453D01*
X104765043Y-68225455D01*
X104618456Y-68286174D01*
X104618446Y-68286179D01*
X104486524Y-68374327D01*
X104486520Y-68374330D01*
X104374330Y-68486520D01*
X104374327Y-68486524D01*
X104286179Y-68618446D01*
X104286174Y-68618456D01*
X104254074Y-68695953D01*
X104210233Y-68750356D01*
X104143939Y-68772421D01*
X104139513Y-68772500D01*
X99145595Y-68772500D01*
X99078556Y-68752815D01*
X99057914Y-68736181D01*
X98608870Y-68287136D01*
X98608865Y-68287134D01*
X98525253Y-68252500D01*
X97811049Y-68252500D01*
X97744010Y-68232815D01*
X97698255Y-68180011D01*
X97688311Y-68110853D01*
X97717336Y-68047297D01*
X97723368Y-68040819D01*
X97885044Y-67879142D01*
X97885045Y-67879141D01*
X97885047Y-67879139D01*
X97943821Y-67795199D01*
X97997287Y-67721610D01*
X98002465Y-67711446D01*
X98015568Y-67692734D01*
X98054067Y-67610172D01*
X98090220Y-67539219D01*
X98097266Y-67517532D01*
X98111739Y-67486496D01*
X98111742Y-67486488D01*
X98131534Y-67412617D01*
X98132377Y-67409471D01*
X98153477Y-67344534D01*
X98158825Y-67310766D01*
X98170635Y-67266692D01*
X98176215Y-67202892D01*
X98177270Y-67194306D01*
X98179617Y-67179494D01*
X98185500Y-67142352D01*
X98185500Y-66937648D01*
X98176593Y-66881417D01*
X98170635Y-66813308D01*
X98158825Y-66769233D01*
X98153477Y-66735466D01*
X98133378Y-66673609D01*
X98131535Y-66667386D01*
X98131336Y-66666645D01*
X98117874Y-66616401D01*
X98111742Y-66593513D01*
X98111740Y-66593510D01*
X98111739Y-66593504D01*
X98097266Y-66562467D01*
X98090220Y-66540781D01*
X98054067Y-66469827D01*
X98015568Y-66387266D01*
X98007436Y-66375652D01*
X98007436Y-66375651D01*
X98002462Y-66368548D01*
X97997287Y-66358390D01*
X97943821Y-66284800D01*
X97943215Y-66283935D01*
X97943205Y-66283920D01*
X97885045Y-66200858D01*
X97724140Y-66039953D01*
X97641078Y-65981793D01*
X97640180Y-65981164D01*
X97566610Y-65927713D01*
X97556448Y-65922535D01*
X97549346Y-65917562D01*
X97537736Y-65909433D01*
X97537727Y-65909429D01*
X97479723Y-65882380D01*
X97469066Y-65872996D01*
X97455866Y-65867773D01*
X97443368Y-65850369D01*
X97427285Y-65836208D01*
X97423393Y-65822552D01*
X97415112Y-65811021D01*
X97414007Y-65789621D01*
X97408134Y-65769014D01*
X97412241Y-65755423D01*
X97411510Y-65741244D01*
X97422149Y-65722644D01*
X97428350Y-65702133D01*
X97439830Y-65691737D01*
X97446204Y-65680597D01*
X97470623Y-65663856D01*
X97474872Y-65660010D01*
X97477252Y-65658770D01*
X97537734Y-65630568D01*
X97556002Y-65617775D01*
X97563207Y-65614025D01*
X97563416Y-65613983D01*
X97564180Y-65613524D01*
X97566610Y-65612287D01*
X97639358Y-65559432D01*
X97641047Y-65558227D01*
X97724139Y-65500047D01*
X97885047Y-65339139D01*
X97943821Y-65255199D01*
X97997287Y-65181610D01*
X98002465Y-65171446D01*
X98015568Y-65152734D01*
X98054067Y-65070172D01*
X98090220Y-64999219D01*
X98097266Y-64977532D01*
X98111739Y-64946496D01*
X98111742Y-64946488D01*
X98131534Y-64872617D01*
X98132377Y-64869471D01*
X98153477Y-64804534D01*
X98158825Y-64770766D01*
X98170635Y-64726692D01*
X98176215Y-64662892D01*
X98177270Y-64654306D01*
X98185500Y-64602350D01*
X98185500Y-64397649D01*
X98177270Y-64345691D01*
X98177270Y-64345690D01*
X98176592Y-64341414D01*
X98170635Y-64273308D01*
X98158825Y-64229233D01*
X98153477Y-64195466D01*
X98133378Y-64133609D01*
X98131535Y-64127386D01*
X98111742Y-64053513D01*
X98111740Y-64053510D01*
X98111739Y-64053504D01*
X98097266Y-64022467D01*
X98090220Y-64000781D01*
X98054067Y-63929827D01*
X98015568Y-63847266D01*
X98007436Y-63835652D01*
X98007436Y-63835651D01*
X98002462Y-63828548D01*
X97997287Y-63818390D01*
X97943821Y-63744800D01*
X97943215Y-63743935D01*
X97943205Y-63743920D01*
X97885045Y-63660858D01*
X97724140Y-63499953D01*
X97641078Y-63441793D01*
X97640180Y-63441164D01*
X97566610Y-63387713D01*
X97556448Y-63382535D01*
X97549346Y-63377562D01*
X97537736Y-63369433D01*
X97537727Y-63369429D01*
X97479723Y-63342380D01*
X97469066Y-63332996D01*
X97455866Y-63327773D01*
X97443368Y-63310369D01*
X97427285Y-63296208D01*
X97423393Y-63282552D01*
X97415112Y-63271021D01*
X97414007Y-63249621D01*
X97408134Y-63229014D01*
X97412241Y-63215423D01*
X97411510Y-63201244D01*
X97422149Y-63182644D01*
X97428350Y-63162133D01*
X97439830Y-63151737D01*
X97446204Y-63140597D01*
X97470623Y-63123856D01*
X97474872Y-63120010D01*
X97477252Y-63118770D01*
X97537734Y-63090568D01*
X97556002Y-63077775D01*
X97563207Y-63074025D01*
X97563416Y-63073983D01*
X97564180Y-63073524D01*
X97566610Y-63072287D01*
X97639358Y-63019432D01*
X97641047Y-63018227D01*
X97724139Y-62960047D01*
X97885047Y-62799139D01*
X97943821Y-62715199D01*
X97997287Y-62641610D01*
X98002465Y-62631446D01*
X98015568Y-62612734D01*
X98054067Y-62530172D01*
X98090220Y-62459219D01*
X98097266Y-62437532D01*
X98111739Y-62406496D01*
X98111742Y-62406488D01*
X98131534Y-62332617D01*
X98132377Y-62329471D01*
X98153477Y-62264534D01*
X98158825Y-62230766D01*
X98170635Y-62186692D01*
X98176215Y-62122892D01*
X98177270Y-62114306D01*
X98182526Y-62081130D01*
X98185500Y-62062352D01*
X98185500Y-61857648D01*
X98176593Y-61801417D01*
X98170635Y-61733308D01*
X98158825Y-61689233D01*
X98153477Y-61655466D01*
X98133378Y-61593609D01*
X98131535Y-61587386D01*
X98111742Y-61513513D01*
X98111740Y-61513510D01*
X98111739Y-61513504D01*
X98097266Y-61482467D01*
X98090220Y-61460781D01*
X98054067Y-61389827D01*
X98015568Y-61307266D01*
X98007436Y-61295652D01*
X98007436Y-61295651D01*
X98002462Y-61288548D01*
X97997287Y-61278390D01*
X97943821Y-61204800D01*
X97943215Y-61203935D01*
X97943205Y-61203920D01*
X97885045Y-61120858D01*
X97724143Y-60959956D01*
X97657620Y-60913376D01*
X97613996Y-60858799D01*
X97606803Y-60789300D01*
X97638325Y-60726946D01*
X97698082Y-60691652D01*
X97718025Y-60686562D01*
X97718035Y-60686559D01*
X97774582Y-60663135D01*
X97431446Y-60319999D01*
X105825000Y-60319999D01*
X105825000Y-61220000D01*
X105827138Y-61285541D01*
X105827138Y-61285544D01*
X105827139Y-61285545D01*
X105861068Y-61412167D01*
X105926612Y-61525694D01*
X106019306Y-61618388D01*
X106132833Y-61683932D01*
X106259455Y-61717861D01*
X106325000Y-61720000D01*
X107225000Y-61720000D01*
X107290545Y-61717861D01*
X107417167Y-61683933D01*
X107530694Y-61618388D01*
X107623388Y-61525694D01*
X107688933Y-61412167D01*
X107722861Y-61285545D01*
X107725000Y-61220000D01*
X107725000Y-60320000D01*
X107722861Y-60254455D01*
X107688933Y-60127833D01*
X107623388Y-60014306D01*
X107530694Y-59921612D01*
X107417167Y-59856067D01*
X107290545Y-59822139D01*
X107225000Y-59820000D01*
X106775000Y-59820000D01*
X106325000Y-59820000D01*
X106259458Y-59822138D01*
X106132832Y-59856068D01*
X106019307Y-59921611D01*
X106019304Y-59921613D01*
X105926613Y-60014304D01*
X105926611Y-60014307D01*
X105861068Y-60127832D01*
X105827138Y-60254458D01*
X105825000Y-60319999D01*
X97431446Y-60319999D01*
X97014409Y-59902962D01*
X97077993Y-59885925D01*
X97192007Y-59820099D01*
X97285099Y-59727007D01*
X97318012Y-59670000D01*
X97488552Y-59670000D01*
X98128135Y-60309582D01*
X98128136Y-60309582D01*
X98144317Y-60270522D01*
X98144317Y-60270521D01*
X98151553Y-60253051D01*
X98169544Y-60202053D01*
X98189999Y-60059780D01*
X98190000Y-60059779D01*
X98190000Y-59670000D01*
X97488552Y-59670000D01*
X97318012Y-59670000D01*
X97350925Y-59612993D01*
X97385000Y-59485826D01*
X97385000Y-59354174D01*
X97350925Y-59227007D01*
X97318011Y-59169999D01*
X97488552Y-59169999D01*
X97488553Y-59170000D01*
X98190000Y-59170000D01*
X98190000Y-58780214D01*
X98187106Y-58726237D01*
X98187106Y-58726235D01*
X98151558Y-58586960D01*
X98128136Y-58530415D01*
X98128135Y-58530415D01*
X97488552Y-59169999D01*
X97318011Y-59169999D01*
X97285099Y-59112993D01*
X97192007Y-59019901D01*
X97077993Y-58954075D01*
X97014409Y-58937037D01*
X97774583Y-58176863D01*
X97774583Y-58176862D01*
X97718052Y-58153447D01*
X97718024Y-58153436D01*
X97689834Y-58143491D01*
X97633163Y-58102624D01*
X97607582Y-58037605D01*
X97621214Y-57969078D01*
X97659965Y-57924980D01*
X97724139Y-57880047D01*
X97885047Y-57719139D01*
X97943821Y-57635199D01*
X97997287Y-57561610D01*
X98002465Y-57551446D01*
X98015568Y-57532734D01*
X98054067Y-57450172D01*
X98090220Y-57379219D01*
X98097266Y-57357532D01*
X98111739Y-57326496D01*
X98111742Y-57326488D01*
X98131534Y-57252617D01*
X98132377Y-57249471D01*
X98153477Y-57184534D01*
X98158825Y-57150766D01*
X98170635Y-57106692D01*
X98176215Y-57042892D01*
X98177270Y-57034306D01*
X98185500Y-56982350D01*
X98185500Y-56777649D01*
X98180328Y-56745000D01*
X98176681Y-56721974D01*
X98176592Y-56721414D01*
X98170635Y-56653308D01*
X98158825Y-56609233D01*
X98153477Y-56575466D01*
X98133378Y-56513609D01*
X98131535Y-56507386D01*
X98111742Y-56433513D01*
X98111740Y-56433510D01*
X98111739Y-56433504D01*
X98097266Y-56402467D01*
X98090220Y-56380781D01*
X98054067Y-56309827D01*
X98015568Y-56227266D01*
X98007436Y-56215652D01*
X98007436Y-56215651D01*
X98002462Y-56208548D01*
X97997287Y-56198390D01*
X97943821Y-56124800D01*
X97943215Y-56123935D01*
X97943205Y-56123920D01*
X97885045Y-56040858D01*
X97724140Y-55879953D01*
X97641078Y-55821793D01*
X97640180Y-55821164D01*
X97566610Y-55767713D01*
X97556448Y-55762535D01*
X97549346Y-55757562D01*
X97537736Y-55749433D01*
X97537727Y-55749429D01*
X97479723Y-55722380D01*
X97469066Y-55712996D01*
X97455866Y-55707773D01*
X97443368Y-55690369D01*
X97427285Y-55676208D01*
X97423393Y-55662552D01*
X97415112Y-55651021D01*
X97414007Y-55629621D01*
X97408134Y-55609014D01*
X97412241Y-55595423D01*
X97411510Y-55581244D01*
X97422149Y-55562644D01*
X97428350Y-55542133D01*
X97439830Y-55531737D01*
X97446204Y-55520597D01*
X97470623Y-55503856D01*
X97474872Y-55500010D01*
X97477252Y-55498770D01*
X97537734Y-55470568D01*
X97556002Y-55457775D01*
X97563207Y-55454025D01*
X97563416Y-55453983D01*
X97564180Y-55453524D01*
X97566610Y-55452287D01*
X97639358Y-55399432D01*
X97641047Y-55398227D01*
X97724139Y-55340047D01*
X97885047Y-55179139D01*
X97943821Y-55095199D01*
X97997287Y-55021610D01*
X98002465Y-55011446D01*
X98015568Y-54992734D01*
X98054067Y-54910172D01*
X98090220Y-54839219D01*
X98097266Y-54817532D01*
X98111739Y-54786496D01*
X98111742Y-54786488D01*
X98131534Y-54712617D01*
X98132377Y-54709471D01*
X98153477Y-54644534D01*
X98158825Y-54610766D01*
X98170635Y-54566692D01*
X98176215Y-54502892D01*
X98177270Y-54494306D01*
X98178693Y-54485327D01*
X98185500Y-54442352D01*
X98185500Y-54237648D01*
X98176593Y-54181417D01*
X98170635Y-54113308D01*
X98158825Y-54069233D01*
X98153477Y-54035466D01*
X98133378Y-53973609D01*
X98131535Y-53967386D01*
X98111742Y-53893513D01*
X98111740Y-53893510D01*
X98111739Y-53893504D01*
X98097266Y-53862467D01*
X98090220Y-53840781D01*
X98054067Y-53769827D01*
X98015568Y-53687266D01*
X98007436Y-53675652D01*
X98007436Y-53675651D01*
X98002462Y-53668548D01*
X97997287Y-53658390D01*
X97943821Y-53584800D01*
X97943215Y-53583935D01*
X97943205Y-53583920D01*
X97885045Y-53500858D01*
X97724140Y-53339953D01*
X97641078Y-53281793D01*
X97640180Y-53281164D01*
X97566610Y-53227713D01*
X97556448Y-53222535D01*
X97549346Y-53217562D01*
X97537736Y-53209433D01*
X97537727Y-53209429D01*
X97479723Y-53182380D01*
X97469066Y-53172996D01*
X97455866Y-53167773D01*
X97443368Y-53150369D01*
X97427285Y-53136208D01*
X97423393Y-53122552D01*
X97415112Y-53111021D01*
X97414007Y-53089621D01*
X97408134Y-53069014D01*
X97412241Y-53055423D01*
X97411510Y-53041244D01*
X97422149Y-53022644D01*
X97428350Y-53002133D01*
X97439830Y-52991737D01*
X97446204Y-52980597D01*
X97470623Y-52963856D01*
X97474872Y-52960010D01*
X97477252Y-52958770D01*
X97537734Y-52930568D01*
X97556002Y-52917775D01*
X97563207Y-52914025D01*
X97563416Y-52913983D01*
X97564180Y-52913524D01*
X97566610Y-52912287D01*
X97639358Y-52859432D01*
X97641047Y-52858227D01*
X97724139Y-52800047D01*
X97885047Y-52639139D01*
X97943821Y-52555199D01*
X97997287Y-52481610D01*
X98002465Y-52471446D01*
X98015568Y-52452734D01*
X98054067Y-52370172D01*
X98090220Y-52299219D01*
X98097266Y-52277532D01*
X98111739Y-52246496D01*
X98111742Y-52246488D01*
X98131534Y-52172617D01*
X98132377Y-52169471D01*
X98153477Y-52104534D01*
X98158825Y-52070766D01*
X98170635Y-52026692D01*
X98176215Y-51962892D01*
X98177270Y-51954306D01*
X98182816Y-51919298D01*
X98185500Y-51902352D01*
X98185500Y-51697648D01*
X98176593Y-51641417D01*
X98170635Y-51573308D01*
X98158825Y-51529233D01*
X98153477Y-51495466D01*
X98133378Y-51433609D01*
X98131535Y-51427386D01*
X98111742Y-51353513D01*
X98111740Y-51353510D01*
X98111739Y-51353504D01*
X98097266Y-51322467D01*
X98090220Y-51300781D01*
X98054067Y-51229827D01*
X98015568Y-51147266D01*
X98007436Y-51135652D01*
X98007436Y-51135651D01*
X98002462Y-51128548D01*
X97997287Y-51118390D01*
X97943821Y-51044800D01*
X97943215Y-51043935D01*
X97943205Y-51043920D01*
X97885045Y-50960858D01*
X97724140Y-50799953D01*
X97641078Y-50741793D01*
X97640180Y-50741164D01*
X97566610Y-50687713D01*
X97556448Y-50682535D01*
X97549346Y-50677562D01*
X97537736Y-50669433D01*
X97537727Y-50669429D01*
X97479723Y-50642380D01*
X97469066Y-50632996D01*
X97455866Y-50627773D01*
X97443368Y-50610369D01*
X97427285Y-50596208D01*
X97423393Y-50582552D01*
X97415112Y-50571021D01*
X97414007Y-50549621D01*
X97408134Y-50529014D01*
X97412241Y-50515423D01*
X97411510Y-50501244D01*
X97422149Y-50482644D01*
X97428350Y-50462133D01*
X97439830Y-50451737D01*
X97446204Y-50440597D01*
X97470623Y-50423856D01*
X97474872Y-50420010D01*
X97477252Y-50418770D01*
X97537734Y-50390568D01*
X97556002Y-50377775D01*
X97563207Y-50374025D01*
X97563416Y-50373983D01*
X97564180Y-50373524D01*
X97566610Y-50372287D01*
X97639358Y-50319432D01*
X97641047Y-50318227D01*
X97724139Y-50260047D01*
X97885047Y-50099139D01*
X97943821Y-50015199D01*
X97997287Y-49941610D01*
X98002465Y-49931446D01*
X98015568Y-49912734D01*
X98016144Y-49911500D01*
X98020303Y-49902579D01*
X98054067Y-49830172D01*
X98090220Y-49759219D01*
X98097266Y-49737532D01*
X98111739Y-49706496D01*
X98111742Y-49706488D01*
X98131534Y-49632617D01*
X98132377Y-49629471D01*
X98153477Y-49564534D01*
X98158825Y-49530766D01*
X98170635Y-49486692D01*
X98176215Y-49422892D01*
X98177270Y-49414306D01*
X98185500Y-49362350D01*
X98185500Y-49157649D01*
X98177270Y-49105691D01*
X98177270Y-49105690D01*
X98176592Y-49101414D01*
X98170635Y-49033308D01*
X98158825Y-48989233D01*
X98153477Y-48955466D01*
X98133378Y-48893609D01*
X98131535Y-48887386D01*
X98111742Y-48813513D01*
X98111740Y-48813510D01*
X98111739Y-48813504D01*
X98097266Y-48782467D01*
X98090220Y-48760781D01*
X98054067Y-48689827D01*
X98015568Y-48607266D01*
X98007436Y-48595652D01*
X98007436Y-48595651D01*
X98002462Y-48588548D01*
X97997287Y-48578390D01*
X97943821Y-48504800D01*
X97943215Y-48503935D01*
X97943205Y-48503920D01*
X97885045Y-48420858D01*
X97724143Y-48259956D01*
X97657620Y-48213376D01*
X97613996Y-48158799D01*
X97606803Y-48089300D01*
X97638325Y-48026946D01*
X97698082Y-47991652D01*
X97718025Y-47986562D01*
X97718035Y-47986559D01*
X97774582Y-47963135D01*
X97631446Y-47819999D01*
X102325000Y-47819999D01*
X102325000Y-55220000D01*
X102327138Y-55285541D01*
X102327138Y-55285544D01*
X102327139Y-55285545D01*
X102361068Y-55412167D01*
X102426612Y-55525694D01*
X102519306Y-55618388D01*
X102632833Y-55683932D01*
X102759455Y-55717861D01*
X102825000Y-55720000D01*
X103725000Y-55720000D01*
X103790545Y-55717861D01*
X103917167Y-55683932D01*
X104030694Y-55618388D01*
X104123388Y-55525694D01*
X104188932Y-55412167D01*
X104222861Y-55285545D01*
X104225000Y-55220000D01*
X104225000Y-51520000D01*
X104225000Y-47820000D01*
X104222861Y-47754455D01*
X104188933Y-47627833D01*
X104123388Y-47514306D01*
X104030694Y-47421612D01*
X103917167Y-47356067D01*
X103790545Y-47322139D01*
X103725000Y-47320000D01*
X102825000Y-47320000D01*
X102759455Y-47322139D01*
X102632833Y-47356067D01*
X102632831Y-47356067D01*
X102632831Y-47356068D01*
X102519306Y-47421612D01*
X102519303Y-47421614D01*
X102426614Y-47514303D01*
X102426612Y-47514306D01*
X102375522Y-47602797D01*
X102361067Y-47627833D01*
X102344410Y-47690000D01*
X102327139Y-47754455D01*
X102325000Y-47819999D01*
X97631446Y-47819999D01*
X97014409Y-47202962D01*
X97077993Y-47185925D01*
X97192007Y-47120099D01*
X97285099Y-47027007D01*
X97318012Y-46970000D01*
X97488552Y-46970000D01*
X98128135Y-47609582D01*
X98128137Y-47609582D01*
X98151552Y-47553053D01*
X98169544Y-47502053D01*
X98189999Y-47359780D01*
X98190000Y-47359779D01*
X98190000Y-46970000D01*
X97488552Y-46970000D01*
X97318012Y-46970000D01*
X97350925Y-46912993D01*
X97385000Y-46785826D01*
X97385000Y-46654174D01*
X97350925Y-46527007D01*
X97285099Y-46412993D01*
X97192007Y-46319901D01*
X97077993Y-46254075D01*
X97014408Y-46237037D01*
X97416765Y-45834681D01*
X97478088Y-45801196D01*
X97547779Y-45806180D01*
G37*
%TD.AperFunction*%
%TA.AperFunction,Conductor*%
G36*
X122799075Y-68152993D02*
G01*
X122864901Y-68267007D01*
X122957993Y-68360099D01*
X123072007Y-68425925D01*
X123135590Y-68442962D01*
X122503282Y-69075269D01*
X122503282Y-69075270D01*
X122557452Y-69114626D01*
X122557451Y-69114626D01*
X122566495Y-69119234D01*
X122617292Y-69167208D01*
X122634087Y-69235029D01*
X122611550Y-69301164D01*
X122566499Y-69340202D01*
X122557182Y-69344949D01*
X122385213Y-69469890D01*
X122234890Y-69620213D01*
X122109949Y-69792182D01*
X122105484Y-69800946D01*
X122057509Y-69851742D01*
X121989688Y-69868536D01*
X121923553Y-69845998D01*
X121884516Y-69800946D01*
X121880050Y-69792182D01*
X121755109Y-69620213D01*
X121641181Y-69506285D01*
X121607696Y-69444962D01*
X121612680Y-69375270D01*
X121654552Y-69319337D01*
X121685529Y-69302422D01*
X121817086Y-69253354D01*
X121817093Y-69253350D01*
X121932187Y-69167190D01*
X121932190Y-69167187D01*
X122018350Y-69052093D01*
X122018354Y-69052086D01*
X122068598Y-68917375D01*
X122077501Y-68834556D01*
X122080550Y-68834883D01*
X122079642Y-68817984D01*
X122112642Y-68758802D01*
X122782037Y-68089408D01*
X122799075Y-68152993D01*
G37*
%TD.AperFunction*%
%TA.AperFunction,Conductor*%
G36*
X93929665Y-49242185D02*
G01*
X93975420Y-49294989D01*
X93986154Y-49335692D01*
X93999364Y-49486687D01*
X93999366Y-49486697D01*
X94058258Y-49706488D01*
X94058261Y-49706497D01*
X94154431Y-49912732D01*
X94154432Y-49912734D01*
X94284954Y-50099141D01*
X94445858Y-50260045D01*
X94445861Y-50260047D01*
X94632266Y-50390568D01*
X94690275Y-50417618D01*
X94742714Y-50463791D01*
X94761866Y-50530984D01*
X94741650Y-50597865D01*
X94690275Y-50642382D01*
X94632267Y-50669431D01*
X94632265Y-50669432D01*
X94445858Y-50799954D01*
X94284954Y-50960858D01*
X94154433Y-51147263D01*
X94152092Y-51152283D01*
X94145739Y-51165906D01*
X94099570Y-51218344D01*
X94033359Y-51237500D01*
X92542546Y-51237500D01*
X92475507Y-51217815D01*
X92429752Y-51165011D01*
X92419808Y-51095853D01*
X92448833Y-51032297D01*
X92477449Y-51007961D01*
X92543345Y-50967315D01*
X92667315Y-50843345D01*
X92759356Y-50694124D01*
X92759358Y-50694119D01*
X92814505Y-50527697D01*
X92814506Y-50527690D01*
X92824999Y-50424986D01*
X92825000Y-50424973D01*
X92825000Y-50287500D01*
X91724000Y-50287500D01*
X91656961Y-50267815D01*
X91611206Y-50215011D01*
X91600000Y-50163500D01*
X91600000Y-49911500D01*
X91619685Y-49844461D01*
X91672489Y-49798706D01*
X91724000Y-49787500D01*
X92824999Y-49787500D01*
X92824999Y-49650028D01*
X92824998Y-49650013D01*
X92814506Y-49547304D01*
X92760890Y-49385505D01*
X92758488Y-49315676D01*
X92794219Y-49255634D01*
X92856740Y-49224441D01*
X92878596Y-49222500D01*
X93862626Y-49222500D01*
X93929665Y-49242185D01*
G37*
%TD.AperFunction*%
%TA.AperFunction,Conductor*%
G36*
X92442421Y-45726860D02*
G01*
X92442768Y-45725117D01*
X92454747Y-45727500D01*
X92454748Y-45727500D01*
X92545253Y-45727500D01*
X94147280Y-45727500D01*
X94214319Y-45747185D01*
X94260074Y-45799989D01*
X94270018Y-45869147D01*
X94244771Y-45926453D01*
X94245526Y-45927013D01*
X94243704Y-45929469D01*
X94156167Y-46060478D01*
X94156155Y-46060498D01*
X94109490Y-46147801D01*
X94049185Y-46293387D01*
X94020443Y-46388139D01*
X94020440Y-46388150D01*
X94004160Y-46469999D01*
X94004161Y-46470000D01*
X96451988Y-46470000D01*
X96419075Y-46527007D01*
X96385000Y-46654174D01*
X96385000Y-46785826D01*
X96419075Y-46912993D01*
X96451988Y-46970000D01*
X94004160Y-46970000D01*
X94020440Y-47051849D01*
X94020443Y-47051860D01*
X94049185Y-47146612D01*
X94109490Y-47292198D01*
X94156155Y-47379501D01*
X94156167Y-47379521D01*
X94243704Y-47510530D01*
X94243708Y-47510536D01*
X94306514Y-47587064D01*
X94417935Y-47698485D01*
X94494463Y-47761291D01*
X94494469Y-47761295D01*
X94625478Y-47848832D01*
X94625506Y-47848849D01*
X94690268Y-47883465D01*
X94740112Y-47932427D01*
X94755573Y-48000565D01*
X94731741Y-48066244D01*
X94684221Y-48105204D01*
X94675426Y-48109306D01*
X94632264Y-48129433D01*
X94445858Y-48259954D01*
X94284954Y-48420858D01*
X94154430Y-48607268D01*
X94154428Y-48607272D01*
X94113099Y-48695904D01*
X94066927Y-48748344D01*
X94000717Y-48767500D01*
X92882436Y-48767500D01*
X92815397Y-48747815D01*
X92769642Y-48695011D01*
X92759698Y-48625853D01*
X92764727Y-48604504D01*
X92814999Y-48452797D01*
X92825500Y-48350009D01*
X92825499Y-47574992D01*
X92814999Y-47472203D01*
X92759814Y-47305666D01*
X92667712Y-47156344D01*
X92543656Y-47032288D01*
X92450888Y-46975069D01*
X92394336Y-46940187D01*
X92394331Y-46940185D01*
X92392862Y-46939698D01*
X92227797Y-46885001D01*
X92227795Y-46885000D01*
X92125010Y-46874500D01*
X91074998Y-46874500D01*
X91074980Y-46874501D01*
X90972203Y-46885000D01*
X90972202Y-46885001D01*
X90948684Y-46892794D01*
X90878856Y-46895194D01*
X90831875Y-46868398D01*
X90831526Y-46868922D01*
X90824137Y-46863985D01*
X90821998Y-46862765D01*
X90821368Y-46862135D01*
X90737753Y-46827500D01*
X90547983Y-46827500D01*
X90480944Y-46807815D01*
X90435189Y-46755011D01*
X90428907Y-46738095D01*
X90401745Y-46644606D01*
X90401744Y-46644603D01*
X90401744Y-46644602D01*
X90318081Y-46503135D01*
X90318079Y-46503133D01*
X90318076Y-46503129D01*
X90201870Y-46386923D01*
X90201862Y-46386917D01*
X90190504Y-46380200D01*
X90142821Y-46329131D01*
X90130317Y-46260390D01*
X90156962Y-46195800D01*
X90165935Y-46185796D01*
X90554595Y-45797136D01*
X90615916Y-45763653D01*
X90685608Y-45768637D01*
X90709127Y-45781260D01*
X90709411Y-45780797D01*
X90713558Y-45783338D01*
X90713565Y-45783341D01*
X90713567Y-45783343D01*
X90784207Y-45819336D01*
X90924003Y-45890566D01*
X90924005Y-45890566D01*
X90924008Y-45890568D01*
X91030212Y-45925076D01*
X91148631Y-45963553D01*
X91381903Y-46000500D01*
X91381908Y-46000500D01*
X91618097Y-46000500D01*
X91851368Y-45963553D01*
X91907046Y-45945462D01*
X92075992Y-45890568D01*
X92286433Y-45783343D01*
X92340318Y-45744192D01*
X92406122Y-45720711D01*
X92442421Y-45726860D01*
G37*
%TD.AperFunction*%
%TA.AperFunction,Conductor*%
G36*
X125442539Y-39020184D02*
G01*
X125488294Y-39072988D01*
X125499500Y-39124499D01*
X125499500Y-92875500D01*
X125479815Y-92942539D01*
X125427011Y-92988294D01*
X125375500Y-92999500D01*
X77624499Y-92999500D01*
X77557460Y-92979815D01*
X77511705Y-92927011D01*
X77500499Y-92875500D01*
X77500499Y-45454747D01*
X77872500Y-45454747D01*
X77872500Y-73554747D01*
X77872500Y-73645253D01*
X77905720Y-73725453D01*
X77907136Y-73728870D01*
X78329671Y-74151404D01*
X78737135Y-74558868D01*
X78801132Y-74622865D01*
X78817203Y-74629521D01*
X78832771Y-74643318D01*
X78840725Y-74656003D01*
X78852385Y-74665399D01*
X78858911Y-74685005D01*
X78869889Y-74702513D01*
X78869722Y-74717485D01*
X78874451Y-74731692D01*
X78869341Y-74751713D01*
X78869111Y-74772378D01*
X78860875Y-74784884D01*
X78857173Y-74799392D01*
X78850849Y-74809005D01*
X78804950Y-74872180D01*
X78708444Y-75061585D01*
X78642753Y-75263760D01*
X78618626Y-75416094D01*
X78609500Y-75473713D01*
X78609500Y-75686287D01*
X78614555Y-75718205D01*
X78641477Y-75888185D01*
X78642754Y-75896243D01*
X78704401Y-76085973D01*
X78708444Y-76098414D01*
X78804951Y-76287820D01*
X78929890Y-76459786D01*
X79080213Y-76610109D01*
X79252179Y-76735048D01*
X79252181Y-76735049D01*
X79252184Y-76735051D01*
X79261493Y-76739794D01*
X79312290Y-76787766D01*
X79329087Y-76855587D01*
X79306552Y-76921722D01*
X79261505Y-76960760D01*
X79252446Y-76965376D01*
X79252440Y-76965380D01*
X79198282Y-77004727D01*
X79198282Y-77004728D01*
X79830591Y-77637037D01*
X79767007Y-77654075D01*
X79652993Y-77719901D01*
X79559901Y-77812993D01*
X79494075Y-77927007D01*
X79477037Y-77990591D01*
X78844728Y-77358282D01*
X78844727Y-77358282D01*
X78805380Y-77412439D01*
X78708904Y-77601782D01*
X78643242Y-77803869D01*
X78643242Y-77803872D01*
X78610000Y-78013753D01*
X78610000Y-78226246D01*
X78643242Y-78436127D01*
X78643242Y-78436130D01*
X78708904Y-78638217D01*
X78805375Y-78827550D01*
X78844728Y-78881716D01*
X79477037Y-78249408D01*
X79494075Y-78312993D01*
X79559901Y-78427007D01*
X79652993Y-78520099D01*
X79767007Y-78585925D01*
X79830590Y-78602962D01*
X79198282Y-79235269D01*
X79198282Y-79235270D01*
X79252449Y-79274624D01*
X79441782Y-79371095D01*
X79643870Y-79436757D01*
X79853754Y-79470000D01*
X80066246Y-79470000D01*
X80276127Y-79436757D01*
X80276130Y-79436757D01*
X80478217Y-79371095D01*
X80667554Y-79274622D01*
X80721716Y-79235270D01*
X80721717Y-79235270D01*
X80089408Y-78602962D01*
X80152993Y-78585925D01*
X80267007Y-78520099D01*
X80360099Y-78427007D01*
X80425925Y-78312993D01*
X80442962Y-78249408D01*
X81112356Y-78918803D01*
X81145841Y-78980126D01*
X81144926Y-78994831D01*
X81147497Y-78994555D01*
X81156401Y-79077373D01*
X81156403Y-79077380D01*
X81206645Y-79212086D01*
X81206649Y-79212093D01*
X81292809Y-79327187D01*
X81292812Y-79327190D01*
X81407906Y-79413350D01*
X81407913Y-79413354D01*
X81542620Y-79463596D01*
X81542627Y-79463598D01*
X81602155Y-79469999D01*
X81602172Y-79470000D01*
X82250000Y-79470000D01*
X82250000Y-78553012D01*
X82307007Y-78585925D01*
X82434174Y-78620000D01*
X82565826Y-78620000D01*
X82692993Y-78585925D01*
X82750000Y-78553012D01*
X82750000Y-79470000D01*
X83397828Y-79470000D01*
X83397844Y-79469999D01*
X83457372Y-79463598D01*
X83457379Y-79463596D01*
X83592086Y-79413354D01*
X83592093Y-79413350D01*
X83707187Y-79327190D01*
X83707190Y-79327187D01*
X83793350Y-79212093D01*
X83793354Y-79212086D01*
X83843596Y-79077379D01*
X83843598Y-79077372D01*
X83849999Y-79017844D01*
X83850000Y-79017827D01*
X83850000Y-78370000D01*
X82933012Y-78370000D01*
X82965925Y-78312993D01*
X82990131Y-78222658D01*
X90630893Y-78222658D01*
X90713828Y-78282914D01*
X90924197Y-78390102D01*
X91148752Y-78463065D01*
X91148751Y-78463065D01*
X91381948Y-78500000D01*
X91618052Y-78500000D01*
X91851247Y-78463065D01*
X92075802Y-78390102D01*
X92286163Y-78282918D01*
X92286169Y-78282914D01*
X92369104Y-78222658D01*
X92369105Y-78222658D01*
X91500000Y-77353554D01*
X90630893Y-78222658D01*
X82990131Y-78222658D01*
X83000000Y-78185826D01*
X83000000Y-78054174D01*
X82965925Y-77927007D01*
X82933012Y-77870000D01*
X83850000Y-77870000D01*
X83850000Y-77222172D01*
X83849999Y-77222155D01*
X83843598Y-77162627D01*
X83843596Y-77162620D01*
X83793354Y-77027913D01*
X83793350Y-77027906D01*
X83736069Y-76951389D01*
X83736067Y-76951387D01*
X83707187Y-76912809D01*
X83665961Y-76881947D01*
X90000000Y-76881947D01*
X90000000Y-77118052D01*
X90036934Y-77351247D01*
X90109897Y-77575802D01*
X90217087Y-77786174D01*
X90277338Y-77869104D01*
X90277340Y-77869105D01*
X91146446Y-77000000D01*
X91146445Y-76999999D01*
X91853554Y-76999999D01*
X91853554Y-77000000D01*
X92722658Y-77869105D01*
X92722658Y-77869104D01*
X92782914Y-77786169D01*
X92782918Y-77786163D01*
X92890102Y-77575802D01*
X92963065Y-77351247D01*
X93000000Y-77118052D01*
X93000000Y-76881947D01*
X92963065Y-76648752D01*
X92890102Y-76424197D01*
X92782914Y-76213828D01*
X92722658Y-76130894D01*
X92722658Y-76130893D01*
X91853554Y-76999999D01*
X91146445Y-76999999D01*
X90277340Y-76130894D01*
X90217084Y-76213830D01*
X90109897Y-76424197D01*
X90036934Y-76648752D01*
X90000000Y-76881947D01*
X83665961Y-76881947D01*
X83592093Y-76826649D01*
X83592086Y-76826645D01*
X83488339Y-76787950D01*
X83432405Y-76746079D01*
X83407988Y-76680614D01*
X83422840Y-76612341D01*
X83443988Y-76584090D01*
X84250738Y-75777340D01*
X90630894Y-75777340D01*
X91500000Y-76646446D01*
X91500001Y-76646446D01*
X92369105Y-75777340D01*
X92369104Y-75777338D01*
X92286174Y-75717087D01*
X92075802Y-75609897D01*
X91851247Y-75536934D01*
X91851248Y-75536934D01*
X91618052Y-75500000D01*
X91381948Y-75500000D01*
X91148752Y-75536934D01*
X90924197Y-75609897D01*
X90713830Y-75717084D01*
X90630894Y-75777340D01*
X84250738Y-75777340D01*
X90055365Y-69972714D01*
X90090000Y-69889099D01*
X90090000Y-62283095D01*
X90109685Y-62216056D01*
X90126319Y-62195414D01*
X91588472Y-60733261D01*
X93092866Y-59228868D01*
X93127500Y-59145252D01*
X93127500Y-59054747D01*
X93127500Y-55224747D01*
X93092865Y-55141132D01*
X93028868Y-55077135D01*
X92736818Y-54785085D01*
X92703333Y-54723762D01*
X92700499Y-54697413D01*
X92700499Y-53899992D01*
X92699356Y-53888807D01*
X92689999Y-53797203D01*
X92689998Y-53797200D01*
X92657792Y-53700009D01*
X92634814Y-53630666D01*
X92628668Y-53620701D01*
X92567540Y-53521596D01*
X92549100Y-53454204D01*
X92570023Y-53387540D01*
X92623665Y-53342771D01*
X92673079Y-53332500D01*
X94164639Y-53332500D01*
X94231678Y-53352185D01*
X94277433Y-53404989D01*
X94287377Y-53474147D01*
X94266214Y-53527623D01*
X94154432Y-53687265D01*
X94154431Y-53687267D01*
X94058261Y-53893502D01*
X94058258Y-53893511D01*
X93999366Y-54113302D01*
X93999364Y-54113312D01*
X93984500Y-54283214D01*
X93984500Y-54396785D01*
X93999364Y-54566687D01*
X93999366Y-54566697D01*
X94058258Y-54786488D01*
X94058261Y-54786497D01*
X94154431Y-54992732D01*
X94154432Y-54992734D01*
X94284954Y-55179141D01*
X94445858Y-55340045D01*
X94492693Y-55372839D01*
X94632266Y-55470568D01*
X94690275Y-55497618D01*
X94742714Y-55543791D01*
X94761866Y-55610984D01*
X94741650Y-55677865D01*
X94690275Y-55722382D01*
X94632267Y-55749431D01*
X94632265Y-55749432D01*
X94445858Y-55879954D01*
X94284954Y-56040858D01*
X94154432Y-56227265D01*
X94154431Y-56227267D01*
X94058261Y-56433502D01*
X94058258Y-56433511D01*
X93999366Y-56653302D01*
X93999364Y-56653312D01*
X93984500Y-56823214D01*
X93984500Y-56936785D01*
X93999364Y-57106687D01*
X93999366Y-57106697D01*
X94058258Y-57326488D01*
X94058261Y-57326497D01*
X94154431Y-57532732D01*
X94154432Y-57532734D01*
X94284954Y-57719141D01*
X94445858Y-57880045D01*
X94445861Y-57880047D01*
X94632266Y-58010568D01*
X94684219Y-58034794D01*
X94736659Y-58080966D01*
X94755811Y-58148159D01*
X94735596Y-58215041D01*
X94690269Y-58256534D01*
X94625499Y-58291155D01*
X94625478Y-58291167D01*
X94494469Y-58378704D01*
X94494463Y-58378708D01*
X94417935Y-58441514D01*
X94306514Y-58552935D01*
X94243708Y-58629463D01*
X94243704Y-58629469D01*
X94156167Y-58760478D01*
X94156155Y-58760498D01*
X94109490Y-58847801D01*
X94049185Y-58993387D01*
X94020443Y-59088139D01*
X94020440Y-59088150D01*
X94004160Y-59169999D01*
X94004161Y-59170000D01*
X96451988Y-59170000D01*
X96419075Y-59227007D01*
X96385000Y-59354174D01*
X96385000Y-59485826D01*
X96419075Y-59612993D01*
X96451988Y-59670000D01*
X94004160Y-59670000D01*
X94020440Y-59751849D01*
X94020443Y-59751860D01*
X94049185Y-59846612D01*
X94109490Y-59992198D01*
X94156155Y-60079501D01*
X94156167Y-60079521D01*
X94243704Y-60210530D01*
X94243708Y-60210536D01*
X94306514Y-60287064D01*
X94417935Y-60398485D01*
X94494463Y-60461291D01*
X94494469Y-60461295D01*
X94625478Y-60548832D01*
X94625506Y-60548849D01*
X94690268Y-60583465D01*
X94740112Y-60632427D01*
X94755573Y-60700565D01*
X94731741Y-60766244D01*
X94684221Y-60805205D01*
X94632264Y-60829433D01*
X94445858Y-60959954D01*
X94284954Y-61120858D01*
X94154432Y-61307265D01*
X94154431Y-61307267D01*
X94058261Y-61513502D01*
X94058258Y-61513511D01*
X93999366Y-61733302D01*
X93999364Y-61733312D01*
X93984500Y-61903214D01*
X93984500Y-62016785D01*
X93999364Y-62186687D01*
X93999366Y-62186697D01*
X94058258Y-62406488D01*
X94058261Y-62406497D01*
X94154431Y-62612732D01*
X94154432Y-62612734D01*
X94284954Y-62799141D01*
X94445858Y-62960045D01*
X94445861Y-62960047D01*
X94632266Y-63090568D01*
X94690275Y-63117618D01*
X94742714Y-63163791D01*
X94761866Y-63230984D01*
X94741650Y-63297865D01*
X94690275Y-63342382D01*
X94632267Y-63369431D01*
X94632265Y-63369432D01*
X94445858Y-63499954D01*
X94284954Y-63660858D01*
X94154432Y-63847265D01*
X94154431Y-63847267D01*
X94058261Y-64053502D01*
X94058258Y-64053511D01*
X93999366Y-64273302D01*
X93999364Y-64273312D01*
X93984500Y-64443214D01*
X93984500Y-64556785D01*
X93999364Y-64726687D01*
X93999366Y-64726697D01*
X94058258Y-64946488D01*
X94058261Y-64946497D01*
X94154431Y-65152732D01*
X94154432Y-65152734D01*
X94284954Y-65339141D01*
X94445858Y-65500045D01*
X94445861Y-65500047D01*
X94632266Y-65630568D01*
X94690275Y-65657618D01*
X94742714Y-65703791D01*
X94761866Y-65770984D01*
X94741650Y-65837865D01*
X94690275Y-65882382D01*
X94632267Y-65909431D01*
X94632265Y-65909432D01*
X94445858Y-66039954D01*
X94284954Y-66200858D01*
X94154432Y-66387265D01*
X94154431Y-66387267D01*
X94058261Y-66593502D01*
X94058258Y-66593511D01*
X93999366Y-66813302D01*
X93999364Y-66813312D01*
X93984500Y-66983214D01*
X93984500Y-67096785D01*
X93999364Y-67266687D01*
X93999366Y-67266697D01*
X94058258Y-67486488D01*
X94058261Y-67486497D01*
X94154431Y-67692732D01*
X94154432Y-67692734D01*
X94284954Y-67879141D01*
X94446632Y-68040819D01*
X94480117Y-68102142D01*
X94475133Y-68171834D01*
X94433261Y-68227767D01*
X94367797Y-68252184D01*
X94358951Y-68252500D01*
X93974747Y-68252500D01*
X93950257Y-68262644D01*
X93940371Y-68266739D01*
X93891132Y-68287133D01*
X88447589Y-73730676D01*
X88386266Y-73764161D01*
X88316574Y-73759177D01*
X88312456Y-73757556D01*
X88234960Y-73725456D01*
X88234948Y-73725453D01*
X88079338Y-73694500D01*
X88079335Y-73694500D01*
X87920665Y-73694500D01*
X87920662Y-73694500D01*
X87765051Y-73725453D01*
X87765043Y-73725455D01*
X87618456Y-73786174D01*
X87618446Y-73786179D01*
X87486524Y-73874327D01*
X87486520Y-73874330D01*
X87374330Y-73986520D01*
X87374327Y-73986524D01*
X87286179Y-74118446D01*
X87286174Y-74118456D01*
X87225455Y-74265043D01*
X87225453Y-74265051D01*
X87194500Y-74420660D01*
X87194500Y-74579339D01*
X87225453Y-74734948D01*
X87225455Y-74734956D01*
X87286174Y-74881543D01*
X87286179Y-74881553D01*
X87374327Y-75013475D01*
X87374330Y-75013479D01*
X87486520Y-75125669D01*
X87486524Y-75125672D01*
X87618446Y-75213820D01*
X87618450Y-75213822D01*
X87618453Y-75213824D01*
X87765044Y-75274545D01*
X87920660Y-75305499D01*
X87920663Y-75305500D01*
X87920665Y-75305500D01*
X88079337Y-75305500D01*
X88079338Y-75305499D01*
X88234956Y-75274545D01*
X88381547Y-75213824D01*
X88513476Y-75125672D01*
X88625672Y-75013476D01*
X88654653Y-74970101D01*
X88708262Y-74925297D01*
X88777587Y-74916588D01*
X88826646Y-74935890D01*
X88868446Y-74963820D01*
X88868450Y-74963822D01*
X88868453Y-74963824D01*
X89015044Y-75024545D01*
X89170660Y-75055499D01*
X89170663Y-75055500D01*
X89170665Y-75055500D01*
X89329337Y-75055500D01*
X89329338Y-75055499D01*
X89484956Y-75024545D01*
X89631547Y-74963824D01*
X89763476Y-74875672D01*
X89875672Y-74763476D01*
X89963824Y-74631547D01*
X90024545Y-74484956D01*
X90055500Y-74329335D01*
X90055500Y-74170665D01*
X90055500Y-74170662D01*
X90055499Y-74170660D01*
X90024546Y-74015051D01*
X90024545Y-74015044D01*
X89992441Y-73937541D01*
X89984973Y-73868074D01*
X90016247Y-73805595D01*
X90019293Y-73802438D01*
X92557914Y-71263819D01*
X92619237Y-71230334D01*
X92645595Y-71227500D01*
X94079852Y-71227500D01*
X94146891Y-71247185D01*
X94192646Y-71299989D01*
X94202590Y-71369147D01*
X94182954Y-71420391D01*
X94156167Y-71460480D01*
X94156155Y-71460498D01*
X94109490Y-71547801D01*
X94049185Y-71693387D01*
X94020443Y-71788139D01*
X94020440Y-71788150D01*
X94004160Y-71869999D01*
X94004161Y-71870000D01*
X96451988Y-71870000D01*
X96419075Y-71927007D01*
X96385000Y-72054174D01*
X96385000Y-72185826D01*
X96419075Y-72312993D01*
X96451988Y-72370000D01*
X94004160Y-72370000D01*
X94020440Y-72451849D01*
X94020443Y-72451860D01*
X94049185Y-72546612D01*
X94109490Y-72692198D01*
X94156155Y-72779501D01*
X94156167Y-72779521D01*
X94243704Y-72910530D01*
X94243708Y-72910536D01*
X94306514Y-72987064D01*
X94417935Y-73098485D01*
X94494463Y-73161291D01*
X94494469Y-73161295D01*
X94625478Y-73248832D01*
X94625506Y-73248849D01*
X94690268Y-73283465D01*
X94740112Y-73332427D01*
X94755573Y-73400565D01*
X94731741Y-73466244D01*
X94684221Y-73505204D01*
X94632266Y-73529432D01*
X94632264Y-73529433D01*
X94445858Y-73659954D01*
X94284954Y-73820858D01*
X94154432Y-74007265D01*
X94154431Y-74007267D01*
X94058261Y-74213502D01*
X94058258Y-74213511D01*
X93999366Y-74433302D01*
X93999364Y-74433312D01*
X93984500Y-74603214D01*
X93984500Y-74716785D01*
X93999364Y-74886687D01*
X93999366Y-74886697D01*
X94058258Y-75106488D01*
X94058261Y-75106497D01*
X94154431Y-75312732D01*
X94154432Y-75312734D01*
X94284954Y-75499141D01*
X94445858Y-75660045D01*
X94483336Y-75686287D01*
X94632266Y-75790568D01*
X94690275Y-75817618D01*
X94742714Y-75863791D01*
X94761866Y-75930984D01*
X94741650Y-75997865D01*
X94690275Y-76042382D01*
X94632267Y-76069431D01*
X94632265Y-76069432D01*
X94445858Y-76199954D01*
X94284954Y-76360858D01*
X94154432Y-76547265D01*
X94154431Y-76547267D01*
X94058261Y-76753502D01*
X94058258Y-76753511D01*
X93999366Y-76973302D01*
X93999364Y-76973312D01*
X93984500Y-77143214D01*
X93984500Y-77256785D01*
X93999364Y-77426687D01*
X93999366Y-77426697D01*
X94058258Y-77646488D01*
X94058261Y-77646497D01*
X94154431Y-77852732D01*
X94154432Y-77852734D01*
X94284954Y-78039141D01*
X94445858Y-78200045D01*
X94483336Y-78226287D01*
X94632266Y-78330568D01*
X94690275Y-78357618D01*
X94742714Y-78403791D01*
X94761866Y-78470984D01*
X94741650Y-78537865D01*
X94690275Y-78582381D01*
X94673272Y-78590310D01*
X94632267Y-78609431D01*
X94632265Y-78609432D01*
X94445858Y-78739954D01*
X94284954Y-78900858D01*
X94154432Y-79087265D01*
X94154431Y-79087267D01*
X94058261Y-79293502D01*
X94058258Y-79293511D01*
X93999366Y-79513302D01*
X93999364Y-79513312D01*
X93984500Y-79683214D01*
X93984500Y-79796785D01*
X93999364Y-79966687D01*
X93999366Y-79966697D01*
X94058258Y-80186488D01*
X94058261Y-80186497D01*
X94154431Y-80392732D01*
X94154432Y-80392734D01*
X94284954Y-80579141D01*
X94445858Y-80740045D01*
X94445861Y-80740047D01*
X94632266Y-80870568D01*
X94690275Y-80897618D01*
X94742714Y-80943791D01*
X94761866Y-81010984D01*
X94741650Y-81077865D01*
X94690275Y-81122382D01*
X94632267Y-81149431D01*
X94632265Y-81149432D01*
X94445858Y-81279954D01*
X94284954Y-81440858D01*
X94154432Y-81627265D01*
X94154431Y-81627267D01*
X94058261Y-81833502D01*
X94058258Y-81833511D01*
X93999366Y-82053302D01*
X93999364Y-82053312D01*
X93984500Y-82223214D01*
X93984500Y-82336785D01*
X93999364Y-82506687D01*
X93999366Y-82506697D01*
X94058258Y-82726488D01*
X94058261Y-82726497D01*
X94154431Y-82932732D01*
X94154432Y-82932734D01*
X94284954Y-83119141D01*
X94445858Y-83280045D01*
X94445861Y-83280047D01*
X94632266Y-83410568D01*
X94684219Y-83434794D01*
X94736659Y-83480966D01*
X94755811Y-83548159D01*
X94735596Y-83615041D01*
X94690269Y-83656534D01*
X94625499Y-83691155D01*
X94625478Y-83691167D01*
X94494469Y-83778704D01*
X94494463Y-83778708D01*
X94417935Y-83841514D01*
X94306514Y-83952935D01*
X94243708Y-84029463D01*
X94243704Y-84029469D01*
X94156167Y-84160478D01*
X94156155Y-84160498D01*
X94109490Y-84247801D01*
X94049185Y-84393387D01*
X94020443Y-84488139D01*
X94020440Y-84488150D01*
X94004160Y-84569999D01*
X94004161Y-84570000D01*
X96451988Y-84570000D01*
X96419075Y-84627007D01*
X96385000Y-84754174D01*
X96385000Y-84885826D01*
X96419075Y-85012993D01*
X96451988Y-85070000D01*
X94004160Y-85070000D01*
X94020440Y-85151849D01*
X94020443Y-85151860D01*
X94049185Y-85246612D01*
X94109490Y-85392198D01*
X94156155Y-85479501D01*
X94156167Y-85479521D01*
X94243704Y-85610530D01*
X94243708Y-85610536D01*
X94306514Y-85687064D01*
X94417935Y-85798485D01*
X94494463Y-85861291D01*
X94494469Y-85861295D01*
X94625478Y-85948832D01*
X94625506Y-85948849D01*
X94690268Y-85983465D01*
X94740112Y-86032427D01*
X94755573Y-86100565D01*
X94731741Y-86166244D01*
X94684221Y-86205205D01*
X94632264Y-86229433D01*
X94445858Y-86359954D01*
X94284954Y-86520858D01*
X94154432Y-86707265D01*
X94154431Y-86707267D01*
X94058261Y-86913502D01*
X94058258Y-86913511D01*
X93999366Y-87133302D01*
X93999364Y-87133312D01*
X93984500Y-87303214D01*
X93984500Y-87416785D01*
X93999364Y-87586687D01*
X93999366Y-87586697D01*
X94058258Y-87806488D01*
X94058261Y-87806497D01*
X94154431Y-88012732D01*
X94154432Y-88012734D01*
X94284954Y-88199141D01*
X94445858Y-88360045D01*
X94445861Y-88360047D01*
X94632266Y-88490568D01*
X94690275Y-88517618D01*
X94742714Y-88563791D01*
X94761866Y-88630984D01*
X94741650Y-88697865D01*
X94690275Y-88742382D01*
X94632267Y-88769431D01*
X94632265Y-88769432D01*
X94445858Y-88899954D01*
X94284954Y-89060858D01*
X94154432Y-89247265D01*
X94154431Y-89247267D01*
X94058261Y-89453502D01*
X94058258Y-89453511D01*
X93999366Y-89673302D01*
X93999364Y-89673312D01*
X93984500Y-89843214D01*
X93984500Y-89956785D01*
X93999364Y-90126687D01*
X93999366Y-90126697D01*
X94058258Y-90346488D01*
X94058261Y-90346497D01*
X94154431Y-90552732D01*
X94154432Y-90552734D01*
X94284954Y-90739141D01*
X94445858Y-90900045D01*
X94445861Y-90900047D01*
X94632266Y-91030568D01*
X94838504Y-91126739D01*
X95058308Y-91185635D01*
X95228214Y-91200499D01*
X95228215Y-91200500D01*
X95228216Y-91200500D01*
X96987350Y-91200500D01*
X96987352Y-91200500D01*
X97039308Y-91192270D01*
X97043582Y-91191592D01*
X97111692Y-91185635D01*
X97155766Y-91173825D01*
X97189534Y-91168477D01*
X97251404Y-91148373D01*
X97257617Y-91146534D01*
X97331490Y-91126741D01*
X97331492Y-91126739D01*
X97331496Y-91126739D01*
X97362532Y-91112266D01*
X97384219Y-91105220D01*
X97455172Y-91069067D01*
X97537734Y-91030568D01*
X97556446Y-91017465D01*
X97566610Y-91012287D01*
X97640199Y-90958821D01*
X97724139Y-90900047D01*
X97885047Y-90739139D01*
X97943821Y-90655199D01*
X97997287Y-90581610D01*
X98002465Y-90571446D01*
X98015568Y-90552734D01*
X98054067Y-90470172D01*
X98090220Y-90399219D01*
X98097266Y-90377532D01*
X98111739Y-90346496D01*
X98111742Y-90346488D01*
X98131534Y-90272617D01*
X98132377Y-90269471D01*
X98153477Y-90204534D01*
X98158825Y-90170766D01*
X98170635Y-90126692D01*
X98176215Y-90062892D01*
X98177270Y-90054306D01*
X98185500Y-90002350D01*
X98185500Y-89797649D01*
X98177270Y-89745691D01*
X98177270Y-89745690D01*
X98176592Y-89741414D01*
X98170635Y-89673308D01*
X98158825Y-89629233D01*
X98153477Y-89595466D01*
X98133378Y-89533609D01*
X98131535Y-89527386D01*
X98131355Y-89526716D01*
X98128072Y-89514462D01*
X98111742Y-89453513D01*
X98111740Y-89453510D01*
X98111739Y-89453504D01*
X98097266Y-89422467D01*
X98090220Y-89400781D01*
X98054067Y-89329827D01*
X98015568Y-89247266D01*
X98007436Y-89235652D01*
X98007436Y-89235651D01*
X98002462Y-89228548D01*
X97997287Y-89218390D01*
X97943821Y-89144800D01*
X97943215Y-89143935D01*
X97943205Y-89143920D01*
X97885045Y-89060858D01*
X97724140Y-88899953D01*
X97641078Y-88841793D01*
X97640180Y-88841164D01*
X97566610Y-88787713D01*
X97556448Y-88782535D01*
X97549346Y-88777562D01*
X97537736Y-88769433D01*
X97528227Y-88764999D01*
X97479723Y-88742380D01*
X97469066Y-88732996D01*
X97455866Y-88727773D01*
X97443368Y-88710369D01*
X97427285Y-88696208D01*
X97423393Y-88682552D01*
X97415112Y-88671021D01*
X97414007Y-88649621D01*
X97408134Y-88629014D01*
X97412241Y-88615423D01*
X97411510Y-88601244D01*
X97422149Y-88582644D01*
X97428350Y-88562133D01*
X97439830Y-88551737D01*
X97446204Y-88540597D01*
X97470623Y-88523856D01*
X97474872Y-88520010D01*
X97477252Y-88518770D01*
X97537734Y-88490568D01*
X97556002Y-88477775D01*
X97563207Y-88474025D01*
X97563416Y-88473983D01*
X97564180Y-88473524D01*
X97566610Y-88472287D01*
X97639358Y-88419432D01*
X97641047Y-88418227D01*
X97724139Y-88360047D01*
X97885047Y-88199139D01*
X97943821Y-88115199D01*
X97997287Y-88041610D01*
X98002465Y-88031446D01*
X98015568Y-88012734D01*
X98054067Y-87930172D01*
X98090220Y-87859219D01*
X98097266Y-87837532D01*
X98111739Y-87806496D01*
X98111742Y-87806488D01*
X98131534Y-87732617D01*
X98132377Y-87729471D01*
X98153477Y-87664534D01*
X98158825Y-87630766D01*
X98170635Y-87586692D01*
X98176215Y-87522892D01*
X98177270Y-87514306D01*
X98185500Y-87462350D01*
X98185500Y-87257649D01*
X98177270Y-87205691D01*
X98177270Y-87205690D01*
X98176592Y-87201414D01*
X98170635Y-87133308D01*
X98164361Y-87109895D01*
X98675000Y-87109895D01*
X102187057Y-89837343D01*
X102227931Y-89894007D01*
X102235000Y-89935277D01*
X102235000Y-91269966D01*
X102235476Y-91313635D01*
X102235476Y-91313641D01*
X102243083Y-91400590D01*
X102258238Y-91486537D01*
X102258241Y-91486550D01*
X102280824Y-91570834D01*
X102280825Y-91570837D01*
X102310674Y-91652851D01*
X102310675Y-91652854D01*
X102310680Y-91652866D01*
X102347567Y-91731969D01*
X102391207Y-91807556D01*
X102391211Y-91807562D01*
X102391218Y-91807573D01*
X102441269Y-91879053D01*
X102481820Y-91927379D01*
X102497371Y-91945912D01*
X102559088Y-92007629D01*
X102586886Y-92030954D01*
X102625946Y-92063730D01*
X102697426Y-92113781D01*
X102697433Y-92113785D01*
X102697444Y-92113793D01*
X102773031Y-92157433D01*
X102852134Y-92194320D01*
X102934151Y-92224171D01*
X102934161Y-92224173D01*
X102934162Y-92224174D01*
X102934165Y-92224175D01*
X102953131Y-92229256D01*
X103018457Y-92246761D01*
X103104412Y-92261917D01*
X103191360Y-92269524D01*
X103235000Y-92270000D01*
X103278640Y-92269524D01*
X103365588Y-92261917D01*
X103451543Y-92246761D01*
X103535849Y-92224171D01*
X103617866Y-92194320D01*
X103696969Y-92157433D01*
X103772556Y-92113793D01*
X103844052Y-92063731D01*
X103910912Y-92007629D01*
X103972629Y-91945912D01*
X104028731Y-91879052D01*
X104068065Y-91822876D01*
X104122641Y-91779252D01*
X104169640Y-91770000D01*
X104840360Y-91770000D01*
X104907399Y-91789685D01*
X104941935Y-91822877D01*
X104981269Y-91879053D01*
X105021820Y-91927379D01*
X105037371Y-91945912D01*
X105099088Y-92007629D01*
X105126886Y-92030954D01*
X105165946Y-92063730D01*
X105237426Y-92113781D01*
X105237433Y-92113785D01*
X105237444Y-92113793D01*
X105313031Y-92157433D01*
X105392134Y-92194320D01*
X105474151Y-92224171D01*
X105474161Y-92224173D01*
X105474162Y-92224174D01*
X105474165Y-92224175D01*
X105493131Y-92229256D01*
X105558457Y-92246761D01*
X105644412Y-92261917D01*
X105731360Y-92269524D01*
X105775000Y-92270000D01*
X105818640Y-92269524D01*
X105905588Y-92261917D01*
X105991543Y-92246761D01*
X106075849Y-92224171D01*
X106157866Y-92194320D01*
X106236969Y-92157433D01*
X106312556Y-92113793D01*
X106384052Y-92063731D01*
X106450912Y-92007629D01*
X106512629Y-91945912D01*
X106568731Y-91879052D01*
X106608065Y-91822876D01*
X106662641Y-91779252D01*
X106709640Y-91770000D01*
X107380562Y-91770000D01*
X107447601Y-91789685D01*
X107482132Y-91822870D01*
X107521409Y-91878958D01*
X107521416Y-91878968D01*
X107577509Y-91945813D01*
X107577513Y-91945817D01*
X107577514Y-91945818D01*
X107639231Y-92007531D01*
X107706092Y-92063630D01*
X107777589Y-92113689D01*
X107853176Y-92157326D01*
X107932279Y-92194209D01*
X107932289Y-92194212D01*
X107932292Y-92194214D01*
X108014278Y-92224051D01*
X108014281Y-92224052D01*
X108014295Y-92224057D01*
X108098601Y-92246643D01*
X108184555Y-92261795D01*
X108184558Y-92261795D01*
X108184561Y-92261796D01*
X108271477Y-92269397D01*
X108271487Y-92269397D01*
X108271502Y-92269399D01*
X108315141Y-92269925D01*
X108358780Y-92269448D01*
X108445727Y-92261837D01*
X108531679Y-92246679D01*
X108615983Y-92224087D01*
X108697998Y-92194233D01*
X108777099Y-92157346D01*
X108852684Y-92113705D01*
X108893648Y-92085020D01*
X108924155Y-92063659D01*
X108924162Y-92063653D01*
X108924177Y-92063643D01*
X108991036Y-92007540D01*
X109052751Y-91945824D01*
X109108853Y-91878965D01*
X109158914Y-91807470D01*
X109202553Y-91731884D01*
X109239440Y-91652783D01*
X109269292Y-91570768D01*
X109291882Y-91486464D01*
X109307040Y-91400511D01*
X109314648Y-91313564D01*
X109315141Y-91269925D01*
X109315141Y-89935168D01*
X109334826Y-89868129D01*
X109363082Y-89837235D01*
X112875000Y-87109895D01*
X112875000Y-85459785D01*
X113360000Y-85459785D01*
X113362893Y-85513762D01*
X113362893Y-85513764D01*
X113398438Y-85653030D01*
X113398440Y-85653037D01*
X113421863Y-85709583D01*
X114061447Y-85070000D01*
X113360000Y-85070000D01*
X113360000Y-85459785D01*
X112875000Y-85459785D01*
X112875000Y-84180219D01*
X113360000Y-84180219D01*
X113360000Y-84570000D01*
X114061447Y-84570000D01*
X114061447Y-84569999D01*
X113421862Y-83930415D01*
X113398449Y-83986940D01*
X113380455Y-84037946D01*
X113360000Y-84180219D01*
X112875000Y-84180219D01*
X112875000Y-82770000D01*
X98675000Y-82770000D01*
X98675000Y-87109895D01*
X98164361Y-87109895D01*
X98158825Y-87089233D01*
X98153477Y-87055466D01*
X98133378Y-86993609D01*
X98131535Y-86987386D01*
X98111742Y-86913513D01*
X98111740Y-86913510D01*
X98111739Y-86913504D01*
X98097266Y-86882467D01*
X98090220Y-86860781D01*
X98054067Y-86789827D01*
X98015568Y-86707266D01*
X98007436Y-86695652D01*
X98007436Y-86695651D01*
X98002462Y-86688548D01*
X97997287Y-86678390D01*
X97943821Y-86604800D01*
X97943215Y-86603935D01*
X97943205Y-86603920D01*
X97885045Y-86520858D01*
X97724143Y-86359956D01*
X97657620Y-86313376D01*
X97613996Y-86258799D01*
X97606803Y-86189300D01*
X97638325Y-86126946D01*
X97698082Y-86091652D01*
X97718025Y-86086562D01*
X97718035Y-86086559D01*
X97774582Y-86063135D01*
X97014409Y-85302962D01*
X97077993Y-85285925D01*
X97192007Y-85220099D01*
X97285099Y-85127007D01*
X97318012Y-85070000D01*
X97488552Y-85070000D01*
X98128135Y-85709582D01*
X98128137Y-85709582D01*
X98151552Y-85653053D01*
X98169544Y-85602053D01*
X98189999Y-85459780D01*
X98190000Y-85459779D01*
X98190000Y-85070000D01*
X97488552Y-85070000D01*
X97318012Y-85070000D01*
X97350925Y-85012993D01*
X97385000Y-84885826D01*
X97385000Y-84754174D01*
X97350925Y-84627007D01*
X97318011Y-84569999D01*
X97488552Y-84569999D01*
X97488553Y-84570000D01*
X98190000Y-84570000D01*
X98190000Y-84180214D01*
X98187106Y-84126237D01*
X98187106Y-84126235D01*
X98151558Y-83986960D01*
X98128136Y-83930415D01*
X98128135Y-83930415D01*
X97488552Y-84569999D01*
X97318011Y-84569999D01*
X97285099Y-84512993D01*
X97192007Y-84419901D01*
X97077993Y-84354075D01*
X97014409Y-84337037D01*
X97774583Y-83576863D01*
X97774583Y-83576862D01*
X97718052Y-83553447D01*
X97718024Y-83553436D01*
X97689834Y-83543491D01*
X97633163Y-83502624D01*
X97607582Y-83437605D01*
X97621214Y-83369078D01*
X97659965Y-83324980D01*
X97724139Y-83280047D01*
X97885047Y-83119139D01*
X97943821Y-83035199D01*
X97997287Y-82961610D01*
X98002465Y-82951446D01*
X98015568Y-82932734D01*
X98054067Y-82850172D01*
X98090220Y-82779219D01*
X98097266Y-82757532D01*
X98111739Y-82726496D01*
X98131539Y-82652600D01*
X98133378Y-82646389D01*
X98138454Y-82630767D01*
X98153477Y-82584534D01*
X98157810Y-82557171D01*
X98160505Y-82544496D01*
X98170635Y-82506692D01*
X98176215Y-82442892D01*
X98177270Y-82434306D01*
X98185500Y-82382350D01*
X98185500Y-82177649D01*
X98177270Y-82125691D01*
X98177270Y-82125690D01*
X98176592Y-82121414D01*
X98170635Y-82053308D01*
X98158825Y-82009233D01*
X98153477Y-81975466D01*
X98133378Y-81913609D01*
X98131535Y-81907386D01*
X98111742Y-81833513D01*
X98111740Y-81833510D01*
X98111739Y-81833504D01*
X98097266Y-81802467D01*
X98090220Y-81780781D01*
X98054067Y-81709827D01*
X98015568Y-81627266D01*
X98007436Y-81615652D01*
X98007436Y-81615651D01*
X98002462Y-81608548D01*
X97997287Y-81598390D01*
X97943821Y-81524800D01*
X97943215Y-81523935D01*
X97943205Y-81523920D01*
X97885045Y-81440858D01*
X97724140Y-81279953D01*
X97641078Y-81221793D01*
X97640180Y-81221164D01*
X97566610Y-81167713D01*
X97556448Y-81162535D01*
X97549346Y-81157562D01*
X97537736Y-81149433D01*
X97537727Y-81149429D01*
X97479723Y-81122380D01*
X97469066Y-81112996D01*
X97455866Y-81107773D01*
X97443368Y-81090369D01*
X97427285Y-81076208D01*
X97423393Y-81062552D01*
X97415112Y-81051021D01*
X97414007Y-81029621D01*
X97408134Y-81009014D01*
X97412241Y-80995423D01*
X97411510Y-80981244D01*
X97422149Y-80962644D01*
X97428350Y-80942133D01*
X97439830Y-80931737D01*
X97446204Y-80920597D01*
X97470623Y-80903856D01*
X97474872Y-80900010D01*
X97477252Y-80898770D01*
X97537734Y-80870568D01*
X97556002Y-80857775D01*
X97563207Y-80854025D01*
X97563416Y-80853983D01*
X97564180Y-80853524D01*
X97566610Y-80852287D01*
X97639358Y-80799432D01*
X97641047Y-80798227D01*
X97724139Y-80740047D01*
X97885047Y-80579139D01*
X97943821Y-80495199D01*
X97997287Y-80421610D01*
X98002465Y-80411446D01*
X98015568Y-80392734D01*
X98054067Y-80310172D01*
X98090220Y-80239219D01*
X98097266Y-80217532D01*
X98111739Y-80186496D01*
X98111742Y-80186488D01*
X98131534Y-80112617D01*
X98132377Y-80109471D01*
X98153477Y-80044534D01*
X98158825Y-80010766D01*
X98170635Y-79966692D01*
X98176215Y-79902892D01*
X98177270Y-79894306D01*
X98185500Y-79842350D01*
X98185500Y-79637649D01*
X98177270Y-79585691D01*
X98177270Y-79585690D01*
X98176592Y-79581414D01*
X98170635Y-79513308D01*
X98158825Y-79469233D01*
X98153477Y-79435466D01*
X98133378Y-79373609D01*
X98131535Y-79367386D01*
X98111742Y-79293513D01*
X98111740Y-79293510D01*
X98111739Y-79293504D01*
X98097266Y-79262467D01*
X98090220Y-79240781D01*
X98054067Y-79169827D01*
X98015568Y-79087266D01*
X98007436Y-79075652D01*
X98007436Y-79075651D01*
X98002462Y-79068548D01*
X97997287Y-79058390D01*
X97943821Y-78984800D01*
X97943215Y-78983935D01*
X97943205Y-78983920D01*
X97885045Y-78900858D01*
X97724140Y-78739953D01*
X97641078Y-78681793D01*
X97640180Y-78681164D01*
X97566610Y-78627713D01*
X97556448Y-78622535D01*
X97549346Y-78617562D01*
X97537736Y-78609433D01*
X97537727Y-78609429D01*
X97479723Y-78582380D01*
X97469066Y-78572996D01*
X97455866Y-78567773D01*
X97443368Y-78550369D01*
X97427285Y-78536208D01*
X97423393Y-78522552D01*
X97415112Y-78511021D01*
X97414007Y-78489621D01*
X97408134Y-78469014D01*
X97412241Y-78455423D01*
X97411510Y-78441244D01*
X97422149Y-78422644D01*
X97428350Y-78402133D01*
X97439830Y-78391737D01*
X97446204Y-78380597D01*
X97470623Y-78363856D01*
X97474872Y-78360010D01*
X97477252Y-78358770D01*
X97537734Y-78330568D01*
X97556002Y-78317775D01*
X97563207Y-78314025D01*
X97563416Y-78313983D01*
X97564180Y-78313524D01*
X97566610Y-78312287D01*
X97639358Y-78259432D01*
X97641047Y-78258227D01*
X97724139Y-78200047D01*
X97885047Y-78039139D01*
X97943821Y-77955199D01*
X97997287Y-77881610D01*
X98002465Y-77871446D01*
X98015568Y-77852734D01*
X98054067Y-77770172D01*
X98090220Y-77699219D01*
X98097266Y-77677532D01*
X98111739Y-77646496D01*
X98111742Y-77646488D01*
X98131534Y-77572617D01*
X98132377Y-77569471D01*
X98153477Y-77504534D01*
X98158825Y-77470766D01*
X98170635Y-77426692D01*
X98176215Y-77362892D01*
X98177270Y-77354306D01*
X98179617Y-77339494D01*
X98185500Y-77302352D01*
X98185500Y-77097648D01*
X98176593Y-77041417D01*
X98170635Y-76973308D01*
X98158825Y-76929233D01*
X98153477Y-76895466D01*
X98133378Y-76833609D01*
X98131535Y-76827386D01*
X98131336Y-76826645D01*
X98120969Y-76787950D01*
X98111742Y-76753513D01*
X98111740Y-76753510D01*
X98111739Y-76753504D01*
X98097266Y-76722467D01*
X98090220Y-76700781D01*
X98054067Y-76629827D01*
X98015568Y-76547266D01*
X98007436Y-76535652D01*
X98007436Y-76535651D01*
X98002462Y-76528548D01*
X97997287Y-76518390D01*
X97943821Y-76444800D01*
X97943215Y-76443935D01*
X97943205Y-76443920D01*
X97885045Y-76360858D01*
X97724140Y-76199953D01*
X97641078Y-76141793D01*
X97640180Y-76141164D01*
X97566610Y-76087713D01*
X97556448Y-76082535D01*
X97549346Y-76077562D01*
X97537736Y-76069433D01*
X97479724Y-76042381D01*
X97469066Y-76032996D01*
X97455866Y-76027773D01*
X97443368Y-76010369D01*
X97427285Y-75996208D01*
X97423393Y-75982552D01*
X97415112Y-75971021D01*
X97414007Y-75949621D01*
X97408134Y-75929014D01*
X97412241Y-75915423D01*
X97411510Y-75901244D01*
X97422149Y-75882644D01*
X97428350Y-75862133D01*
X97439830Y-75851737D01*
X97446204Y-75840597D01*
X97470623Y-75823856D01*
X97474872Y-75820010D01*
X97477252Y-75818770D01*
X97537734Y-75790568D01*
X97556002Y-75777775D01*
X97563207Y-75774025D01*
X97563416Y-75773983D01*
X97564180Y-75773524D01*
X97566610Y-75772287D01*
X97639358Y-75719432D01*
X97641047Y-75718227D01*
X97724139Y-75660047D01*
X97885047Y-75499139D01*
X97943821Y-75415199D01*
X97997287Y-75341610D01*
X98002465Y-75331446D01*
X98015568Y-75312734D01*
X98054067Y-75230172D01*
X98090220Y-75159219D01*
X98097266Y-75137532D01*
X98111739Y-75106496D01*
X98111742Y-75106488D01*
X98131534Y-75032617D01*
X98132377Y-75029471D01*
X98153477Y-74964534D01*
X98158825Y-74930766D01*
X98170635Y-74886692D01*
X98176215Y-74822892D01*
X98177270Y-74814306D01*
X98179617Y-74799494D01*
X98185500Y-74762352D01*
X98185500Y-74557648D01*
X98176593Y-74501417D01*
X98170635Y-74433308D01*
X98158825Y-74389233D01*
X98153477Y-74355466D01*
X98133378Y-74293609D01*
X98131535Y-74287386D01*
X98111742Y-74213513D01*
X98111740Y-74213510D01*
X98111739Y-74213504D01*
X98097266Y-74182467D01*
X98090220Y-74160781D01*
X98054067Y-74089827D01*
X98015568Y-74007266D01*
X98007436Y-73995652D01*
X98007436Y-73995651D01*
X98002462Y-73988548D01*
X97997287Y-73978390D01*
X97943821Y-73904800D01*
X97918105Y-73868074D01*
X97885045Y-73820858D01*
X97724143Y-73659956D01*
X97716869Y-73654863D01*
X97657620Y-73613376D01*
X97613996Y-73558799D01*
X97606803Y-73489300D01*
X97638325Y-73426946D01*
X97698082Y-73391652D01*
X97718025Y-73386562D01*
X97718035Y-73386559D01*
X97774582Y-73363135D01*
X97014409Y-72602962D01*
X97077993Y-72585925D01*
X97192007Y-72520099D01*
X97285099Y-72427007D01*
X97318012Y-72370000D01*
X97488552Y-72370000D01*
X98128135Y-73009582D01*
X98128137Y-73009582D01*
X98151552Y-72953053D01*
X98169544Y-72902053D01*
X98189999Y-72759780D01*
X98190000Y-72759779D01*
X98190000Y-72370000D01*
X97488552Y-72370000D01*
X97318012Y-72370000D01*
X97350925Y-72312993D01*
X97385000Y-72185826D01*
X97385000Y-72054174D01*
X97350925Y-71927007D01*
X97285099Y-71812993D01*
X97192007Y-71719901D01*
X97077993Y-71654075D01*
X97014409Y-71637037D01*
X97387628Y-71263819D01*
X97448951Y-71230334D01*
X97475309Y-71227500D01*
X97831690Y-71227500D01*
X97898729Y-71247185D01*
X97944484Y-71299989D01*
X97954428Y-71369147D01*
X97925403Y-71432703D01*
X97919371Y-71439181D01*
X97488552Y-71869999D01*
X97488553Y-71870000D01*
X98190000Y-71870000D01*
X98190000Y-71480214D01*
X98187106Y-71426237D01*
X98187106Y-71426232D01*
X98175859Y-71382165D01*
X98178353Y-71312340D01*
X98218201Y-71254948D01*
X98282753Y-71228210D01*
X98296007Y-71227500D01*
X101957597Y-71227500D01*
X102024636Y-71247185D01*
X102070391Y-71299989D01*
X102080335Y-71369147D01*
X102060324Y-71418449D01*
X102061314Y-71419056D01*
X102058772Y-71423203D01*
X101980128Y-71577552D01*
X101926597Y-71742302D01*
X101899500Y-71913389D01*
X101899500Y-72086610D01*
X101926548Y-72257389D01*
X101926598Y-72257701D01*
X101980127Y-72422445D01*
X102058768Y-72576788D01*
X102160586Y-72716928D01*
X102283072Y-72839414D01*
X102423212Y-72941232D01*
X102577555Y-73019873D01*
X102742299Y-73073402D01*
X102913389Y-73100500D01*
X102913390Y-73100500D01*
X103086610Y-73100500D01*
X103086611Y-73100500D01*
X103257701Y-73073402D01*
X103422445Y-73019873D01*
X103477965Y-72991583D01*
X103546634Y-72978687D01*
X103611375Y-73004963D01*
X103621942Y-73014387D01*
X106448153Y-75840597D01*
X109277942Y-78670386D01*
X109277944Y-78670389D01*
X109329611Y-78722056D01*
X109374607Y-78748034D01*
X109392889Y-78758589D01*
X109463466Y-78777500D01*
X109536534Y-78777500D01*
X110342940Y-78777500D01*
X110409979Y-78797185D01*
X110455734Y-78849989D01*
X110460871Y-78863181D01*
X110480128Y-78922449D01*
X110549394Y-79058390D01*
X110558768Y-79076788D01*
X110660586Y-79216928D01*
X110783072Y-79339414D01*
X110923212Y-79441232D01*
X111077555Y-79519873D01*
X111242299Y-79573402D01*
X111413389Y-79600500D01*
X111413390Y-79600500D01*
X111586610Y-79600500D01*
X111586611Y-79600500D01*
X111757701Y-79573402D01*
X111922445Y-79519873D01*
X112076788Y-79441232D01*
X112216928Y-79339414D01*
X112339414Y-79216928D01*
X112441232Y-79076788D01*
X112519873Y-78922445D01*
X112573402Y-78757701D01*
X112600500Y-78586611D01*
X112600500Y-78413389D01*
X112573402Y-78242299D01*
X112519873Y-78077555D01*
X112441232Y-77923212D01*
X112339414Y-77783072D01*
X112216928Y-77660586D01*
X112076788Y-77558768D01*
X111922445Y-77480127D01*
X111757701Y-77426598D01*
X111757699Y-77426597D01*
X111757698Y-77426597D01*
X111626271Y-77405781D01*
X111586611Y-77399500D01*
X111413389Y-77399500D01*
X111373728Y-77405781D01*
X111242302Y-77426597D01*
X111077552Y-77480128D01*
X110923211Y-77558768D01*
X110843256Y-77616859D01*
X110783072Y-77660586D01*
X110783070Y-77660588D01*
X110783069Y-77660588D01*
X110660588Y-77783069D01*
X110660588Y-77783070D01*
X110660586Y-77783072D01*
X110638847Y-77812993D01*
X110558768Y-77923211D01*
X110480128Y-78077550D01*
X110460871Y-78136819D01*
X110421433Y-78194494D01*
X110357074Y-78221692D01*
X110342940Y-78222500D01*
X109666306Y-78222500D01*
X109599267Y-78202815D01*
X109578625Y-78186181D01*
X104014387Y-72621942D01*
X103980902Y-72560619D01*
X103985886Y-72490927D01*
X103991584Y-72477965D01*
X104002063Y-72457400D01*
X104019873Y-72422445D01*
X104073402Y-72257701D01*
X104100500Y-72086611D01*
X104100500Y-71913389D01*
X104073402Y-71742299D01*
X104019873Y-71577555D01*
X103941232Y-71423212D01*
X103941230Y-71423210D01*
X103941227Y-71423203D01*
X103938686Y-71419056D01*
X103939914Y-71418303D01*
X103937852Y-71412524D01*
X103929609Y-71403011D01*
X103926335Y-71380243D01*
X103918605Y-71358577D01*
X103921456Y-71346314D01*
X103919665Y-71333853D01*
X103929220Y-71312929D01*
X103934431Y-71290523D01*
X103943460Y-71281748D01*
X103948690Y-71270297D01*
X103968040Y-71257861D01*
X103984538Y-71241829D01*
X103998284Y-71238425D01*
X104007468Y-71232523D01*
X104042403Y-71227500D01*
X104139513Y-71227500D01*
X104206552Y-71247185D01*
X104252307Y-71299989D01*
X104254074Y-71304047D01*
X104286174Y-71381543D01*
X104286179Y-71381553D01*
X104374327Y-71513475D01*
X104374330Y-71513479D01*
X104486520Y-71625669D01*
X104486524Y-71625672D01*
X104618446Y-71713820D01*
X104618450Y-71713822D01*
X104618453Y-71713824D01*
X104765044Y-71774545D01*
X104920660Y-71805499D01*
X104920663Y-71805500D01*
X104920665Y-71805500D01*
X105079337Y-71805500D01*
X105183446Y-71784790D01*
X105223508Y-71776822D01*
X105293100Y-71783049D01*
X105348277Y-71825912D01*
X105371522Y-71891801D01*
X105371700Y-71898439D01*
X105371700Y-72257400D01*
X105373622Y-72296800D01*
X105381722Y-72316355D01*
X105403778Y-72369603D01*
X105459496Y-72425321D01*
X105459497Y-72425321D01*
X105459498Y-72425322D01*
X105532300Y-72455478D01*
X105571700Y-72457400D01*
X105571715Y-72457400D01*
X107146485Y-72457400D01*
X107146500Y-72457400D01*
X107185900Y-72455478D01*
X107258702Y-72425323D01*
X107314423Y-72369602D01*
X107344578Y-72296800D01*
X107346500Y-72257400D01*
X107346500Y-71456146D01*
X107907019Y-71456146D01*
X107907019Y-71456153D01*
X107921254Y-71625672D01*
X107923222Y-71649107D01*
X107959191Y-71774545D01*
X107976596Y-71835245D01*
X108065106Y-72007468D01*
X108065107Y-72007470D01*
X108154298Y-72120000D01*
X108185387Y-72159225D01*
X108332851Y-72284726D01*
X108332854Y-72284728D01*
X108332857Y-72284730D01*
X108412635Y-72329316D01*
X108501882Y-72379195D01*
X108686044Y-72439033D01*
X108878321Y-72461960D01*
X109071390Y-72447105D01*
X109257896Y-72395031D01*
X109430736Y-72307724D01*
X109583325Y-72188507D01*
X109709853Y-72041923D01*
X109717425Y-72028595D01*
X109799027Y-71884949D01*
X109805500Y-71873555D01*
X109866622Y-71689816D01*
X109890891Y-71497703D01*
X109891278Y-71470000D01*
X109872382Y-71277285D01*
X109816414Y-71091910D01*
X109816413Y-71091908D01*
X109816413Y-71091907D01*
X109747153Y-70961650D01*
X109725506Y-70920937D01*
X109603120Y-70770877D01*
X109453919Y-70647447D01*
X109283584Y-70555348D01*
X109283583Y-70555347D01*
X109283580Y-70555346D01*
X109098609Y-70498087D01*
X108906029Y-70477846D01*
X108906027Y-70477846D01*
X108832670Y-70484522D01*
X108713182Y-70495396D01*
X108527426Y-70550067D01*
X108527422Y-70550069D01*
X108355831Y-70639773D01*
X108355819Y-70639781D01*
X108204910Y-70761115D01*
X108204909Y-70761116D01*
X108080444Y-70909446D01*
X108080442Y-70909449D01*
X107987154Y-71079139D01*
X107928602Y-71263718D01*
X107928602Y-71263719D01*
X107907019Y-71456146D01*
X107346500Y-71456146D01*
X107346500Y-70682600D01*
X107344578Y-70643200D01*
X107336607Y-70623957D01*
X107314425Y-70570403D01*
X107314423Y-70570398D01*
X107258702Y-70514677D01*
X107258698Y-70514675D01*
X107258696Y-70514674D01*
X107185901Y-70484522D01*
X107185903Y-70484522D01*
X107177457Y-70484110D01*
X107146500Y-70482600D01*
X107146489Y-70482600D01*
X105673110Y-70482600D01*
X105606071Y-70462915D01*
X105585433Y-70446285D01*
X105513476Y-70374328D01*
X105513475Y-70374327D01*
X105513474Y-70374326D01*
X105381553Y-70286179D01*
X105381543Y-70286174D01*
X105234956Y-70225455D01*
X105234948Y-70225453D01*
X105079338Y-70194500D01*
X105079335Y-70194500D01*
X104920665Y-70194500D01*
X104920662Y-70194500D01*
X104765051Y-70225453D01*
X104765043Y-70225455D01*
X104618456Y-70286174D01*
X104618446Y-70286179D01*
X104486524Y-70374327D01*
X104486520Y-70374330D01*
X104374330Y-70486520D01*
X104374327Y-70486524D01*
X104286179Y-70618446D01*
X104286174Y-70618456D01*
X104254074Y-70695953D01*
X104210233Y-70750356D01*
X104143939Y-70772421D01*
X104139513Y-70772500D01*
X97831049Y-70772500D01*
X97764010Y-70752815D01*
X97718255Y-70700011D01*
X97708311Y-70630853D01*
X97737336Y-70567297D01*
X97743368Y-70560819D01*
X97885044Y-70419142D01*
X97885045Y-70419141D01*
X97885047Y-70419139D01*
X97943821Y-70335199D01*
X97997287Y-70261610D01*
X98002465Y-70251446D01*
X98015568Y-70232734D01*
X98054067Y-70150172D01*
X98090220Y-70079219D01*
X98097266Y-70057532D01*
X98111739Y-70026496D01*
X98111742Y-70026488D01*
X98131534Y-69952617D01*
X98132377Y-69949471D01*
X98153477Y-69884534D01*
X98158825Y-69850766D01*
X98170635Y-69806692D01*
X98176215Y-69742892D01*
X98177270Y-69734306D01*
X98177373Y-69733661D01*
X98185500Y-69682352D01*
X98185500Y-69477648D01*
X98176593Y-69421417D01*
X98170635Y-69353308D01*
X98158825Y-69309233D01*
X98153477Y-69275466D01*
X98133378Y-69213609D01*
X98131535Y-69207386D01*
X98111742Y-69133513D01*
X98111740Y-69133510D01*
X98111739Y-69133504D01*
X98097266Y-69102467D01*
X98090220Y-69080781D01*
X98054067Y-69009827D01*
X98015568Y-68927266D01*
X98007436Y-68915652D01*
X98000779Y-68905042D01*
X97999619Y-68902968D01*
X97997287Y-68898390D01*
X97996301Y-68897033D01*
X97993494Y-68892012D01*
X97986257Y-68860277D01*
X97977755Y-68828849D01*
X97978532Y-68826396D01*
X97977961Y-68823891D01*
X97989028Y-68793285D01*
X97998869Y-68762245D01*
X98000847Y-68760603D01*
X98001722Y-68758186D01*
X98027583Y-68738419D01*
X98052639Y-68717630D01*
X98055576Y-68717023D01*
X98057234Y-68715757D01*
X98064644Y-68715152D01*
X98101727Y-68707500D01*
X98334405Y-68707500D01*
X98401444Y-68727185D01*
X98422086Y-68743819D01*
X98807135Y-69128868D01*
X98871132Y-69192865D01*
X98954747Y-69227500D01*
X104139513Y-69227500D01*
X104206552Y-69247185D01*
X104252307Y-69299989D01*
X104254074Y-69304047D01*
X104286174Y-69381543D01*
X104286179Y-69381553D01*
X104374327Y-69513475D01*
X104374330Y-69513479D01*
X104486520Y-69625669D01*
X104486524Y-69625672D01*
X104618446Y-69713820D01*
X104618450Y-69713822D01*
X104618453Y-69713824D01*
X104765044Y-69774545D01*
X104920660Y-69805499D01*
X104920663Y-69805500D01*
X104920665Y-69805500D01*
X105079337Y-69805500D01*
X105079338Y-69805499D01*
X105234956Y-69774545D01*
X105381547Y-69713824D01*
X105513476Y-69625672D01*
X105625672Y-69513476D01*
X105713824Y-69381547D01*
X105774545Y-69234956D01*
X105805500Y-69079335D01*
X105805500Y-68920665D01*
X105805500Y-68920662D01*
X105800600Y-68896029D01*
X105806827Y-68826437D01*
X105849690Y-68771260D01*
X105915580Y-68748015D01*
X105983577Y-68764083D01*
X105991108Y-68768735D01*
X106118446Y-68853820D01*
X106118450Y-68853822D01*
X106118453Y-68853824D01*
X106265044Y-68914545D01*
X106417794Y-68944929D01*
X106420660Y-68945499D01*
X106420663Y-68945500D01*
X106420665Y-68945500D01*
X106579337Y-68945500D01*
X106579338Y-68945499D01*
X106734956Y-68914545D01*
X106881547Y-68853824D01*
X107013476Y-68765672D01*
X107125672Y-68653476D01*
X107213824Y-68521547D01*
X107245926Y-68444046D01*
X107289767Y-68389644D01*
X107356061Y-68367579D01*
X107360487Y-68367500D01*
X109994405Y-68367500D01*
X110061444Y-68387185D01*
X110082086Y-68403819D01*
X112115276Y-70437009D01*
X112148761Y-70498332D01*
X112143777Y-70568024D01*
X112101905Y-70623957D01*
X112036441Y-70648374D01*
X111968618Y-70633767D01*
X111940282Y-70618446D01*
X111823584Y-70555348D01*
X111823583Y-70555347D01*
X111823580Y-70555346D01*
X111638609Y-70498087D01*
X111446029Y-70477846D01*
X111446027Y-70477846D01*
X111372670Y-70484522D01*
X111253182Y-70495396D01*
X111067426Y-70550067D01*
X111067422Y-70550069D01*
X110895831Y-70639773D01*
X110895819Y-70639781D01*
X110744910Y-70761115D01*
X110744909Y-70761116D01*
X110620444Y-70909446D01*
X110620442Y-70909449D01*
X110527154Y-71079139D01*
X110468602Y-71263718D01*
X110468602Y-71263719D01*
X110447019Y-71456146D01*
X110447019Y-71456153D01*
X110461254Y-71625672D01*
X110463222Y-71649107D01*
X110499191Y-71774545D01*
X110516596Y-71835245D01*
X110605106Y-72007468D01*
X110605107Y-72007470D01*
X110694298Y-72120000D01*
X110725387Y-72159225D01*
X110872851Y-72284726D01*
X110872854Y-72284728D01*
X110872857Y-72284730D01*
X110952635Y-72329316D01*
X111041882Y-72379195D01*
X111226044Y-72439033D01*
X111418321Y-72461960D01*
X111611390Y-72447105D01*
X111797896Y-72395031D01*
X111970736Y-72307724D01*
X112123325Y-72188507D01*
X112249853Y-72041923D01*
X112257425Y-72028595D01*
X112339027Y-71884949D01*
X112345500Y-71873555D01*
X112406622Y-71689816D01*
X112430891Y-71497703D01*
X112431278Y-71470000D01*
X112412382Y-71277285D01*
X112356414Y-71091910D01*
X112356413Y-71091908D01*
X112356413Y-71091907D01*
X112287153Y-70961650D01*
X112276136Y-70940930D01*
X112262044Y-70872499D01*
X112287186Y-70807309D01*
X112343581Y-70766061D01*
X112413323Y-70761851D01*
X112473303Y-70795036D01*
X112736181Y-71057914D01*
X112769666Y-71119237D01*
X112772500Y-71145595D01*
X112772500Y-72454747D01*
X112772500Y-72545253D01*
X112792788Y-72594233D01*
X112807136Y-72628870D01*
X113744359Y-73566092D01*
X113746188Y-73569442D01*
X113749425Y-73571469D01*
X113762803Y-73599869D01*
X113777844Y-73627415D01*
X113777571Y-73631222D01*
X113779199Y-73634677D01*
X113775099Y-73665797D01*
X113772860Y-73697106D01*
X113770426Y-73701262D01*
X113770073Y-73703948D01*
X113761740Y-73716102D01*
X113751344Y-73733863D01*
X113748008Y-73737805D01*
X113664953Y-73820861D01*
X113606178Y-73904800D01*
X113602845Y-73909386D01*
X113602831Y-73909404D01*
X113552710Y-73978394D01*
X113552708Y-73978397D01*
X113551460Y-73980847D01*
X113542563Y-73995651D01*
X113534433Y-74007262D01*
X113496838Y-74087882D01*
X113495920Y-74089849D01*
X113459780Y-74160781D01*
X113452735Y-74182458D01*
X113449532Y-74189329D01*
X113449529Y-74189338D01*
X113438261Y-74213503D01*
X113438261Y-74213504D01*
X113418459Y-74287404D01*
X113418458Y-74287403D01*
X113417614Y-74290551D01*
X113396523Y-74355466D01*
X113391175Y-74389224D01*
X113389492Y-74395507D01*
X113389492Y-74395511D01*
X113379366Y-74433304D01*
X113379364Y-74433313D01*
X113373783Y-74497106D01*
X113372728Y-74505697D01*
X113364500Y-74557643D01*
X113364500Y-74557648D01*
X113364500Y-74762352D01*
X113373406Y-74818582D01*
X113379365Y-74886692D01*
X113391171Y-74930756D01*
X113392188Y-74937175D01*
X113392190Y-74937181D01*
X113396521Y-74964525D01*
X113396522Y-74964530D01*
X113396523Y-74964534D01*
X113412425Y-75013475D01*
X113416617Y-75026378D01*
X113418460Y-75032600D01*
X113438260Y-75106494D01*
X113449529Y-75130662D01*
X113452733Y-75137532D01*
X113459780Y-75159219D01*
X113495930Y-75230169D01*
X113496844Y-75232128D01*
X113534432Y-75312734D01*
X113542562Y-75324346D01*
X113547535Y-75331448D01*
X113552713Y-75341610D01*
X113606164Y-75415180D01*
X113606793Y-75416078D01*
X113664953Y-75499140D01*
X113825858Y-75660045D01*
X113907323Y-75717087D01*
X113909800Y-75718821D01*
X113983390Y-75772287D01*
X113993547Y-75777462D01*
X114000648Y-75782434D01*
X114000652Y-75782436D01*
X114012266Y-75790568D01*
X114012270Y-75790570D01*
X114070272Y-75817617D01*
X114080927Y-75826999D01*
X114094131Y-75832224D01*
X114106629Y-75849629D01*
X114122712Y-75863789D01*
X114126604Y-75877444D01*
X114134886Y-75888977D01*
X114135990Y-75910375D01*
X114141864Y-75930982D01*
X114137755Y-75944573D01*
X114138488Y-75958754D01*
X114127848Y-75977352D01*
X114121649Y-75997864D01*
X114110167Y-76008259D01*
X114103794Y-76019401D01*
X114079369Y-76036145D01*
X114075126Y-76039988D01*
X114072711Y-76041244D01*
X114012266Y-76069432D01*
X113994002Y-76082219D01*
X113986792Y-76085973D01*
X113986591Y-76086012D01*
X113985847Y-76086460D01*
X113983397Y-76087708D01*
X113983394Y-76087710D01*
X113910696Y-76140526D01*
X113908939Y-76141779D01*
X113825859Y-76199954D01*
X113664954Y-76360859D01*
X113606781Y-76443934D01*
X113606782Y-76443935D01*
X113606132Y-76444863D01*
X113552713Y-76518390D01*
X113547535Y-76528550D01*
X113542560Y-76535656D01*
X113542558Y-76535656D01*
X113534433Y-76547262D01*
X113496838Y-76627882D01*
X113495920Y-76629849D01*
X113459780Y-76700781D01*
X113452735Y-76722458D01*
X113449532Y-76729329D01*
X113449529Y-76729338D01*
X113438261Y-76753503D01*
X113438261Y-76753504D01*
X113418459Y-76827404D01*
X113418458Y-76827403D01*
X113417614Y-76830551D01*
X113396523Y-76895466D01*
X113391175Y-76929224D01*
X113389492Y-76935507D01*
X113389492Y-76935511D01*
X113379366Y-76973304D01*
X113379364Y-76973313D01*
X113373783Y-77037106D01*
X113372728Y-77045697D01*
X113364500Y-77097643D01*
X113364500Y-77097648D01*
X113364500Y-77302352D01*
X113373406Y-77358582D01*
X113379365Y-77426692D01*
X113391171Y-77470756D01*
X113392188Y-77477175D01*
X113392190Y-77477181D01*
X113396521Y-77504525D01*
X113396522Y-77504530D01*
X113416617Y-77566378D01*
X113418460Y-77572600D01*
X113438260Y-77646494D01*
X113449529Y-77670662D01*
X113452733Y-77677532D01*
X113459780Y-77699219D01*
X113495930Y-77770169D01*
X113496844Y-77772128D01*
X113534432Y-77852734D01*
X113542562Y-77864346D01*
X113547535Y-77871448D01*
X113552713Y-77881610D01*
X113606164Y-77955180D01*
X113606793Y-77956078D01*
X113664953Y-78039140D01*
X113825858Y-78200045D01*
X113863334Y-78226286D01*
X113909800Y-78258821D01*
X113983390Y-78312287D01*
X113993547Y-78317462D01*
X114000648Y-78322434D01*
X114000652Y-78322436D01*
X114012266Y-78330568D01*
X114012270Y-78330570D01*
X114070272Y-78357617D01*
X114080927Y-78366999D01*
X114094131Y-78372224D01*
X114106629Y-78389629D01*
X114122712Y-78403789D01*
X114126604Y-78417444D01*
X114134886Y-78428977D01*
X114135990Y-78450375D01*
X114141864Y-78470982D01*
X114137755Y-78484573D01*
X114138488Y-78498754D01*
X114127848Y-78517352D01*
X114121649Y-78537864D01*
X114110167Y-78548259D01*
X114103794Y-78559401D01*
X114079369Y-78576145D01*
X114075126Y-78579988D01*
X114072711Y-78581244D01*
X114012266Y-78609432D01*
X113994002Y-78622219D01*
X113986792Y-78625973D01*
X113986591Y-78626012D01*
X113985847Y-78626460D01*
X113983397Y-78627708D01*
X113983394Y-78627710D01*
X113910696Y-78680526D01*
X113908939Y-78681779D01*
X113825859Y-78739954D01*
X113664954Y-78900859D01*
X113606781Y-78983934D01*
X113606782Y-78983935D01*
X113606132Y-78984863D01*
X113552713Y-79058390D01*
X113547535Y-79068550D01*
X113542560Y-79075656D01*
X113542558Y-79075656D01*
X113534433Y-79087262D01*
X113496838Y-79167882D01*
X113495920Y-79169849D01*
X113459780Y-79240781D01*
X113452735Y-79262458D01*
X113449532Y-79269329D01*
X113449529Y-79269338D01*
X113438261Y-79293503D01*
X113438261Y-79293504D01*
X113418459Y-79367404D01*
X113418458Y-79367403D01*
X113417614Y-79370551D01*
X113396523Y-79435466D01*
X113391175Y-79469224D01*
X113389492Y-79475507D01*
X113389492Y-79475511D01*
X113379366Y-79513304D01*
X113379364Y-79513313D01*
X113373783Y-79577106D01*
X113372728Y-79585697D01*
X113364500Y-79637643D01*
X113364500Y-79637648D01*
X113364500Y-79842352D01*
X113373406Y-79898582D01*
X113379365Y-79966692D01*
X113391171Y-80010756D01*
X113392188Y-80017175D01*
X113392190Y-80017181D01*
X113396521Y-80044525D01*
X113396522Y-80044530D01*
X113416617Y-80106378D01*
X113418460Y-80112600D01*
X113438260Y-80186494D01*
X113449529Y-80210662D01*
X113452733Y-80217532D01*
X113459780Y-80239219D01*
X113495930Y-80310169D01*
X113496844Y-80312128D01*
X113534432Y-80392734D01*
X113542562Y-80404346D01*
X113547535Y-80411448D01*
X113552713Y-80421610D01*
X113606164Y-80495180D01*
X113606793Y-80496078D01*
X113664953Y-80579140D01*
X113825858Y-80740045D01*
X113825861Y-80740047D01*
X113909800Y-80798821D01*
X113983390Y-80852287D01*
X113993547Y-80857462D01*
X114000648Y-80862434D01*
X114000652Y-80862436D01*
X114012266Y-80870568D01*
X114012270Y-80870570D01*
X114070272Y-80897617D01*
X114080927Y-80906999D01*
X114094131Y-80912224D01*
X114106629Y-80929629D01*
X114122712Y-80943789D01*
X114126604Y-80957444D01*
X114134886Y-80968977D01*
X114135990Y-80990375D01*
X114141864Y-81010982D01*
X114137755Y-81024573D01*
X114138488Y-81038754D01*
X114127848Y-81057352D01*
X114121649Y-81077864D01*
X114110167Y-81088259D01*
X114103794Y-81099401D01*
X114079369Y-81116145D01*
X114075126Y-81119988D01*
X114072711Y-81121244D01*
X114012266Y-81149432D01*
X113994002Y-81162219D01*
X113986792Y-81165973D01*
X113986591Y-81166012D01*
X113985847Y-81166460D01*
X113983397Y-81167708D01*
X113983394Y-81167710D01*
X113910696Y-81220526D01*
X113908939Y-81221779D01*
X113825859Y-81279954D01*
X113664954Y-81440859D01*
X113606781Y-81523934D01*
X113606782Y-81523935D01*
X113606132Y-81524863D01*
X113552713Y-81598390D01*
X113547535Y-81608550D01*
X113542560Y-81615656D01*
X113542558Y-81615656D01*
X113534433Y-81627262D01*
X113496838Y-81707882D01*
X113495920Y-81709849D01*
X113459780Y-81780781D01*
X113452735Y-81802458D01*
X113449532Y-81809329D01*
X113449529Y-81809338D01*
X113438261Y-81833503D01*
X113438261Y-81833504D01*
X113418459Y-81907404D01*
X113418458Y-81907403D01*
X113417614Y-81910551D01*
X113396523Y-81975466D01*
X113391175Y-82009224D01*
X113389492Y-82015507D01*
X113389492Y-82015511D01*
X113379366Y-82053304D01*
X113379364Y-82053313D01*
X113373783Y-82117106D01*
X113372728Y-82125697D01*
X113364500Y-82177643D01*
X113364500Y-82177648D01*
X113364500Y-82382352D01*
X113373406Y-82438582D01*
X113379365Y-82506692D01*
X113391171Y-82550756D01*
X113392188Y-82557175D01*
X113392190Y-82557181D01*
X113396521Y-82584525D01*
X113396522Y-82584530D01*
X113416617Y-82646378D01*
X113418460Y-82652600D01*
X113438260Y-82726494D01*
X113449529Y-82750662D01*
X113452733Y-82757532D01*
X113459780Y-82779219D01*
X113495930Y-82850169D01*
X113496844Y-82852128D01*
X113534432Y-82932734D01*
X113542562Y-82944346D01*
X113547535Y-82951448D01*
X113552713Y-82961610D01*
X113606164Y-83035180D01*
X113606793Y-83036078D01*
X113664953Y-83119140D01*
X113825858Y-83280045D01*
X113892379Y-83326623D01*
X113936004Y-83381199D01*
X113943198Y-83450698D01*
X113911676Y-83513052D01*
X113851922Y-83548346D01*
X113831970Y-83553438D01*
X113831956Y-83553442D01*
X113775415Y-83576862D01*
X114535590Y-84337037D01*
X114472007Y-84354075D01*
X114357993Y-84419901D01*
X114264901Y-84512993D01*
X114199075Y-84627007D01*
X114165000Y-84754174D01*
X114165000Y-84885826D01*
X114199075Y-85012993D01*
X114264901Y-85127007D01*
X114357993Y-85220099D01*
X114472007Y-85285925D01*
X114535589Y-85302962D01*
X113775415Y-86063135D01*
X113775415Y-86063136D01*
X113831947Y-86086553D01*
X113860159Y-86096505D01*
X113916832Y-86137370D01*
X113942415Y-86202388D01*
X113928786Y-86270915D01*
X113890035Y-86315016D01*
X113825859Y-86359954D01*
X113664954Y-86520859D01*
X113606781Y-86603934D01*
X113606782Y-86603935D01*
X113606132Y-86604863D01*
X113552713Y-86678390D01*
X113547535Y-86688550D01*
X113542560Y-86695656D01*
X113542558Y-86695656D01*
X113534433Y-86707262D01*
X113496838Y-86787882D01*
X113495920Y-86789849D01*
X113459780Y-86860781D01*
X113452735Y-86882458D01*
X113449532Y-86889329D01*
X113449529Y-86889338D01*
X113438261Y-86913503D01*
X113438261Y-86913504D01*
X113418459Y-86987404D01*
X113418458Y-86987403D01*
X113417614Y-86990551D01*
X113396523Y-87055466D01*
X113391175Y-87089224D01*
X113389492Y-87095507D01*
X113389492Y-87095511D01*
X113379366Y-87133304D01*
X113379364Y-87133313D01*
X113373783Y-87197106D01*
X113372942Y-87203954D01*
X113372941Y-87204301D01*
X113372837Y-87205007D01*
X113364500Y-87257648D01*
X113364500Y-87462352D01*
X113373406Y-87518582D01*
X113379365Y-87586692D01*
X113391171Y-87630756D01*
X113392188Y-87637175D01*
X113392190Y-87637181D01*
X113396521Y-87664525D01*
X113396522Y-87664530D01*
X113416617Y-87726378D01*
X113418460Y-87732600D01*
X113438260Y-87806494D01*
X113449529Y-87830662D01*
X113452733Y-87837532D01*
X113459780Y-87859219D01*
X113495930Y-87930169D01*
X113496844Y-87932128D01*
X113534432Y-88012734D01*
X113542562Y-88024346D01*
X113547535Y-88031448D01*
X113552713Y-88041610D01*
X113606164Y-88115180D01*
X113606793Y-88116078D01*
X113664953Y-88199140D01*
X113825858Y-88360045D01*
X113825861Y-88360047D01*
X113909800Y-88418821D01*
X113983390Y-88472287D01*
X113993547Y-88477462D01*
X114000648Y-88482434D01*
X114000652Y-88482436D01*
X114012266Y-88490568D01*
X114012270Y-88490570D01*
X114070272Y-88517617D01*
X114080927Y-88526999D01*
X114094131Y-88532224D01*
X114106629Y-88549629D01*
X114122712Y-88563789D01*
X114126604Y-88577444D01*
X114134886Y-88588977D01*
X114135990Y-88610375D01*
X114141864Y-88630982D01*
X114137755Y-88644573D01*
X114138488Y-88658754D01*
X114127848Y-88677352D01*
X114121649Y-88697864D01*
X114110167Y-88708259D01*
X114103794Y-88719401D01*
X114079369Y-88736145D01*
X114075126Y-88739988D01*
X114072711Y-88741244D01*
X114012266Y-88769432D01*
X113994002Y-88782219D01*
X113986792Y-88785973D01*
X113986591Y-88786012D01*
X113985847Y-88786460D01*
X113983397Y-88787708D01*
X113983394Y-88787710D01*
X113910696Y-88840526D01*
X113908939Y-88841779D01*
X113825859Y-88899954D01*
X113664954Y-89060859D01*
X113606781Y-89143934D01*
X113606782Y-89143935D01*
X113606132Y-89144863D01*
X113552713Y-89218390D01*
X113547535Y-89228550D01*
X113542560Y-89235656D01*
X113542558Y-89235656D01*
X113534433Y-89247262D01*
X113496838Y-89327882D01*
X113495920Y-89329849D01*
X113459780Y-89400781D01*
X113452735Y-89422458D01*
X113449532Y-89429329D01*
X113449529Y-89429338D01*
X113438261Y-89453503D01*
X113438261Y-89453504D01*
X113418459Y-89527404D01*
X113418458Y-89527403D01*
X113417614Y-89530551D01*
X113396523Y-89595466D01*
X113391175Y-89629224D01*
X113389492Y-89635507D01*
X113389492Y-89635511D01*
X113379366Y-89673304D01*
X113379364Y-89673313D01*
X113373783Y-89737106D01*
X113372728Y-89745697D01*
X113364500Y-89797643D01*
X113364500Y-89797648D01*
X113364500Y-90002352D01*
X113373406Y-90058582D01*
X113379365Y-90126692D01*
X113391171Y-90170756D01*
X113392188Y-90177175D01*
X113392190Y-90177181D01*
X113396521Y-90204525D01*
X113396522Y-90204530D01*
X113416617Y-90266378D01*
X113418460Y-90272600D01*
X113438260Y-90346494D01*
X113449529Y-90370662D01*
X113452733Y-90377532D01*
X113459780Y-90399219D01*
X113495930Y-90470169D01*
X113496844Y-90472128D01*
X113534432Y-90552734D01*
X113542562Y-90564346D01*
X113547535Y-90571448D01*
X113552713Y-90581610D01*
X113606164Y-90655180D01*
X113606793Y-90656078D01*
X113664953Y-90739140D01*
X113825858Y-90900045D01*
X113908904Y-90958194D01*
X113909800Y-90958821D01*
X113983390Y-91012287D01*
X113993547Y-91017462D01*
X114000648Y-91022434D01*
X114000652Y-91022436D01*
X114012265Y-91030567D01*
X114012266Y-91030568D01*
X114094827Y-91069067D01*
X114165781Y-91105220D01*
X114187467Y-91112266D01*
X114218504Y-91126739D01*
X114218510Y-91126740D01*
X114218513Y-91126742D01*
X114292386Y-91146535D01*
X114295528Y-91147377D01*
X114360466Y-91168477D01*
X114394233Y-91173825D01*
X114438308Y-91185635D01*
X114502103Y-91191215D01*
X114510690Y-91192269D01*
X114562648Y-91200500D01*
X114562649Y-91200500D01*
X116321785Y-91200500D01*
X116321785Y-91200499D01*
X116491692Y-91185635D01*
X116711496Y-91126739D01*
X116917734Y-91030568D01*
X117104139Y-90900047D01*
X117265047Y-90739139D01*
X117395568Y-90552734D01*
X117491739Y-90346496D01*
X117550635Y-90126692D01*
X117565500Y-89956784D01*
X117565500Y-89843216D01*
X117550635Y-89673308D01*
X117496842Y-89472550D01*
X117491741Y-89453511D01*
X117491738Y-89453503D01*
X117395568Y-89247266D01*
X117279237Y-89081127D01*
X117265045Y-89060858D01*
X117104141Y-88899954D01*
X116917734Y-88769432D01*
X116917732Y-88769431D01*
X116859722Y-88742380D01*
X116807285Y-88696210D01*
X116788133Y-88629016D01*
X116808349Y-88562135D01*
X116808351Y-88562133D01*
X116859725Y-88517618D01*
X116917734Y-88490568D01*
X117104139Y-88360047D01*
X117265047Y-88199139D01*
X117395568Y-88012734D01*
X117491739Y-87806496D01*
X117550635Y-87586692D01*
X117565500Y-87416784D01*
X117565500Y-87303216D01*
X117550635Y-87133308D01*
X117505916Y-86966415D01*
X117491741Y-86913511D01*
X117491738Y-86913503D01*
X117395568Y-86707266D01*
X117265047Y-86520861D01*
X117265045Y-86520858D01*
X117104141Y-86359954D01*
X116917734Y-86229432D01*
X116917732Y-86229431D01*
X116865779Y-86205205D01*
X116813340Y-86159032D01*
X116794188Y-86091839D01*
X116814404Y-86024958D01*
X116859732Y-85983464D01*
X116924500Y-85948844D01*
X116924521Y-85948832D01*
X117055530Y-85861295D01*
X117055536Y-85861291D01*
X117132064Y-85798485D01*
X117243485Y-85687064D01*
X117306291Y-85610536D01*
X117306295Y-85610530D01*
X117393832Y-85479521D01*
X117393844Y-85479501D01*
X117440509Y-85392198D01*
X117500814Y-85246612D01*
X117529556Y-85151860D01*
X117529559Y-85151849D01*
X117545839Y-85070000D01*
X115098012Y-85070000D01*
X115130925Y-85012993D01*
X115165000Y-84885826D01*
X115165000Y-84754174D01*
X115130925Y-84627007D01*
X115098012Y-84570000D01*
X117545839Y-84570000D01*
X117545839Y-84569999D01*
X117529559Y-84488150D01*
X117529556Y-84488139D01*
X117500814Y-84393387D01*
X117440509Y-84247801D01*
X117393844Y-84160498D01*
X117393832Y-84160478D01*
X117306295Y-84029469D01*
X117306291Y-84029463D01*
X117243485Y-83952935D01*
X117132064Y-83841514D01*
X117055536Y-83778708D01*
X117055530Y-83778704D01*
X116924521Y-83691167D01*
X116924501Y-83691155D01*
X116859730Y-83656534D01*
X116809886Y-83607571D01*
X116794426Y-83539434D01*
X116818258Y-83473754D01*
X116865777Y-83434795D01*
X116917734Y-83410568D01*
X117104139Y-83280047D01*
X117265047Y-83119139D01*
X117395568Y-82932734D01*
X117491739Y-82726496D01*
X117550635Y-82506692D01*
X117565500Y-82336784D01*
X117565500Y-82223216D01*
X117550635Y-82053308D01*
X117505916Y-81886415D01*
X117491741Y-81833511D01*
X117491738Y-81833503D01*
X117395568Y-81627266D01*
X117265047Y-81440861D01*
X117265045Y-81440858D01*
X117104141Y-81279954D01*
X116917734Y-81149432D01*
X116917728Y-81149429D01*
X116859725Y-81122382D01*
X116807285Y-81076210D01*
X116788133Y-81009017D01*
X116808348Y-80942135D01*
X116859725Y-80897618D01*
X116917734Y-80870568D01*
X117104139Y-80740047D01*
X117265047Y-80579139D01*
X117395568Y-80392734D01*
X117491739Y-80186496D01*
X117550635Y-79966692D01*
X117565500Y-79796784D01*
X117565500Y-79683216D01*
X117550635Y-79513308D01*
X117505916Y-79346415D01*
X117491741Y-79293511D01*
X117491738Y-79293503D01*
X117395568Y-79087266D01*
X117265047Y-78900861D01*
X117265045Y-78900858D01*
X117104141Y-78739954D01*
X116917734Y-78609432D01*
X116917728Y-78609429D01*
X116890038Y-78596517D01*
X116859724Y-78582381D01*
X116807285Y-78536210D01*
X116788133Y-78469017D01*
X116808348Y-78402135D01*
X116859725Y-78357618D01*
X116917734Y-78330568D01*
X117104139Y-78200047D01*
X117265047Y-78039139D01*
X117395568Y-77852734D01*
X117491739Y-77646496D01*
X117550635Y-77426692D01*
X117565500Y-77256784D01*
X117565500Y-77186595D01*
X117585185Y-77119556D01*
X117637989Y-77073801D01*
X117707147Y-77063857D01*
X117770703Y-77092882D01*
X117777181Y-77098914D01*
X118736181Y-78057914D01*
X118769666Y-78119237D01*
X118772500Y-78145595D01*
X118772500Y-82679747D01*
X118772500Y-82770253D01*
X118806418Y-82852138D01*
X118807136Y-82853870D01*
X121120256Y-85166989D01*
X121153741Y-85228312D01*
X121155865Y-85267923D01*
X121149501Y-85327123D01*
X121149500Y-85327130D01*
X121149500Y-87122870D01*
X121149501Y-87122876D01*
X121155908Y-87182483D01*
X121206202Y-87317328D01*
X121206206Y-87317335D01*
X121292452Y-87432544D01*
X121292455Y-87432547D01*
X121407664Y-87518793D01*
X121407671Y-87518797D01*
X121418672Y-87522900D01*
X121542517Y-87569091D01*
X121602127Y-87575500D01*
X121612685Y-87575499D01*
X121679723Y-87595179D01*
X121700372Y-87611818D01*
X122370591Y-88282037D01*
X122307007Y-88299075D01*
X122192993Y-88364901D01*
X122099901Y-88457993D01*
X122034075Y-88572007D01*
X122017037Y-88635591D01*
X121384728Y-88003282D01*
X121384727Y-88003282D01*
X121345380Y-88057439D01*
X121248904Y-88246782D01*
X121183242Y-88448869D01*
X121183242Y-88448872D01*
X121150000Y-88658753D01*
X121150000Y-88871246D01*
X121183242Y-89081127D01*
X121183242Y-89081130D01*
X121248904Y-89283217D01*
X121345375Y-89472550D01*
X121384728Y-89526716D01*
X122017037Y-88894408D01*
X122034075Y-88957993D01*
X122099901Y-89072007D01*
X122192993Y-89165099D01*
X122307007Y-89230925D01*
X122370590Y-89247962D01*
X121738282Y-89880269D01*
X121738282Y-89880270D01*
X121792449Y-89919624D01*
X121981782Y-90016095D01*
X122183870Y-90081757D01*
X122393754Y-90115000D01*
X122606246Y-90115000D01*
X122816127Y-90081757D01*
X122816130Y-90081757D01*
X123018217Y-90016095D01*
X123207554Y-89919622D01*
X123261716Y-89880270D01*
X123261717Y-89880270D01*
X122629408Y-89247962D01*
X122692993Y-89230925D01*
X122807007Y-89165099D01*
X122900099Y-89072007D01*
X122965925Y-88957993D01*
X122982962Y-88894408D01*
X123615270Y-89526717D01*
X123615270Y-89526716D01*
X123654622Y-89472554D01*
X123751095Y-89283217D01*
X123816757Y-89081130D01*
X123816757Y-89081127D01*
X123850000Y-88871246D01*
X123850000Y-88658753D01*
X123816757Y-88448872D01*
X123816757Y-88448869D01*
X123751095Y-88246782D01*
X123654624Y-88057449D01*
X123615270Y-88003282D01*
X123615269Y-88003282D01*
X122982962Y-88635590D01*
X122965925Y-88572007D01*
X122900099Y-88457993D01*
X122807007Y-88364901D01*
X122692993Y-88299075D01*
X122629409Y-88282037D01*
X123299627Y-87611818D01*
X123360950Y-87578333D01*
X123387307Y-87575499D01*
X123397872Y-87575499D01*
X123457483Y-87569091D01*
X123592331Y-87518796D01*
X123707546Y-87432546D01*
X123793796Y-87317331D01*
X123844091Y-87182483D01*
X123850500Y-87122873D01*
X123850499Y-85327128D01*
X123844091Y-85267517D01*
X123829468Y-85228312D01*
X123793797Y-85132671D01*
X123793793Y-85132664D01*
X123707547Y-85017455D01*
X123707544Y-85017452D01*
X123592335Y-84931206D01*
X123592328Y-84931202D01*
X123457482Y-84880908D01*
X123457483Y-84880908D01*
X123397883Y-84874501D01*
X123397881Y-84874500D01*
X123397873Y-84874500D01*
X123397864Y-84874500D01*
X121602129Y-84874500D01*
X121602123Y-84874501D01*
X121542923Y-84880865D01*
X121474164Y-84868458D01*
X121441989Y-84845256D01*
X119263819Y-82667086D01*
X119230334Y-82605763D01*
X119227500Y-82579405D01*
X119227500Y-78664381D01*
X119247185Y-78597342D01*
X119299989Y-78551587D01*
X119369147Y-78541643D01*
X119432703Y-78570668D01*
X119469431Y-78626064D01*
X119473443Y-78638412D01*
X119569951Y-78827820D01*
X119694890Y-78999786D01*
X119845213Y-79150109D01*
X120017179Y-79275048D01*
X120017181Y-79275049D01*
X120017184Y-79275051D01*
X120206588Y-79371557D01*
X120408757Y-79437246D01*
X120618713Y-79470500D01*
X120618714Y-79470500D01*
X120831286Y-79470500D01*
X120831287Y-79470500D01*
X121041243Y-79437246D01*
X121243412Y-79371557D01*
X121432816Y-79275051D01*
X121487572Y-79235269D01*
X121604786Y-79150109D01*
X121604788Y-79150106D01*
X121604792Y-79150104D01*
X121755104Y-78999792D01*
X121755106Y-78999788D01*
X121755109Y-78999786D01*
X121880048Y-78827820D01*
X121880047Y-78827820D01*
X121880051Y-78827816D01*
X121884514Y-78819054D01*
X121932488Y-78768259D01*
X122000308Y-78751463D01*
X122066444Y-78773999D01*
X122105486Y-78819056D01*
X122109951Y-78827820D01*
X122234890Y-78999786D01*
X122385213Y-79150109D01*
X122557179Y-79275048D01*
X122557181Y-79275049D01*
X122557184Y-79275051D01*
X122746588Y-79371557D01*
X122948757Y-79437246D01*
X123158713Y-79470500D01*
X123158714Y-79470500D01*
X123371286Y-79470500D01*
X123371287Y-79470500D01*
X123581243Y-79437246D01*
X123783412Y-79371557D01*
X123972816Y-79275051D01*
X124027572Y-79235269D01*
X124144786Y-79150109D01*
X124144788Y-79150106D01*
X124144792Y-79150104D01*
X124295104Y-78999792D01*
X124295106Y-78999788D01*
X124295109Y-78999786D01*
X124420048Y-78827820D01*
X124420047Y-78827820D01*
X124420051Y-78827816D01*
X124516557Y-78638412D01*
X124582246Y-78436243D01*
X124615500Y-78226287D01*
X124615500Y-78013713D01*
X124582246Y-77803757D01*
X124516557Y-77601588D01*
X124420051Y-77412184D01*
X124420049Y-77412181D01*
X124420048Y-77412179D01*
X124295109Y-77240213D01*
X124144786Y-77089890D01*
X123972820Y-76964951D01*
X123970655Y-76963848D01*
X123964054Y-76960485D01*
X123913259Y-76912512D01*
X123896463Y-76844692D01*
X123918999Y-76778556D01*
X123964054Y-76739515D01*
X123972816Y-76735051D01*
X124019985Y-76700781D01*
X124144786Y-76610109D01*
X124144788Y-76610106D01*
X124144792Y-76610104D01*
X124295104Y-76459792D01*
X124295106Y-76459788D01*
X124295109Y-76459786D01*
X124420048Y-76287820D01*
X124420047Y-76287820D01*
X124420051Y-76287816D01*
X124516557Y-76098412D01*
X124582246Y-75896243D01*
X124615500Y-75686287D01*
X124615500Y-75473713D01*
X124582246Y-75263757D01*
X124516557Y-75061588D01*
X124420051Y-74872184D01*
X124420049Y-74872181D01*
X124420048Y-74872179D01*
X124295109Y-74700213D01*
X124144786Y-74549890D01*
X123972820Y-74424951D01*
X123972115Y-74424591D01*
X123964054Y-74420485D01*
X123913259Y-74372512D01*
X123896463Y-74304692D01*
X123918999Y-74238556D01*
X123964054Y-74199515D01*
X123972816Y-74195051D01*
X124019985Y-74160781D01*
X124144786Y-74070109D01*
X124144788Y-74070106D01*
X124144792Y-74070104D01*
X124295104Y-73919792D01*
X124295106Y-73919788D01*
X124295109Y-73919786D01*
X124411797Y-73759177D01*
X124420051Y-73747816D01*
X124516557Y-73558412D01*
X124582246Y-73356243D01*
X124615500Y-73146287D01*
X124615500Y-72933713D01*
X124582246Y-72723757D01*
X124516557Y-72521588D01*
X124420051Y-72332184D01*
X124420049Y-72332181D01*
X124420048Y-72332179D01*
X124295109Y-72160213D01*
X124144786Y-72009890D01*
X123972820Y-71884951D01*
X123972115Y-71884591D01*
X123964054Y-71880485D01*
X123913259Y-71832512D01*
X123896463Y-71764692D01*
X123918999Y-71698556D01*
X123964054Y-71659515D01*
X123972816Y-71655051D01*
X124079485Y-71577552D01*
X124144786Y-71530109D01*
X124144788Y-71530106D01*
X124144792Y-71530104D01*
X124295104Y-71379792D01*
X124295106Y-71379788D01*
X124295109Y-71379786D01*
X124420048Y-71207820D01*
X124420047Y-71207820D01*
X124420051Y-71207816D01*
X124516557Y-71018412D01*
X124582246Y-70816243D01*
X124615500Y-70606287D01*
X124615500Y-70393713D01*
X124582246Y-70183757D01*
X124516557Y-69981588D01*
X124420051Y-69792184D01*
X124420049Y-69792181D01*
X124420048Y-69792179D01*
X124295109Y-69620213D01*
X124144786Y-69469890D01*
X123972817Y-69344949D01*
X123963504Y-69340204D01*
X123912707Y-69292230D01*
X123895912Y-69224409D01*
X123918449Y-69158274D01*
X123963507Y-69119232D01*
X123972555Y-69114622D01*
X124026716Y-69075270D01*
X124026717Y-69075270D01*
X123394408Y-68442962D01*
X123457993Y-68425925D01*
X123572007Y-68360099D01*
X123665099Y-68267007D01*
X123730925Y-68152993D01*
X123747962Y-68089408D01*
X124380270Y-68721717D01*
X124380270Y-68721716D01*
X124419622Y-68667554D01*
X124516095Y-68478217D01*
X124581757Y-68276130D01*
X124581757Y-68276127D01*
X124615000Y-68066246D01*
X124615000Y-67853753D01*
X124581757Y-67643872D01*
X124581757Y-67643869D01*
X124516095Y-67441782D01*
X124419624Y-67252449D01*
X124380270Y-67198282D01*
X124380269Y-67198282D01*
X123747962Y-67830590D01*
X123730925Y-67767007D01*
X123665099Y-67652993D01*
X123572007Y-67559901D01*
X123457993Y-67494075D01*
X123394409Y-67477037D01*
X124026716Y-66844728D01*
X123972550Y-66805375D01*
X123783217Y-66708904D01*
X123581129Y-66643242D01*
X123371246Y-66610000D01*
X123158754Y-66610000D01*
X122948872Y-66643242D01*
X122948869Y-66643242D01*
X122746782Y-66708904D01*
X122557439Y-66805380D01*
X122503282Y-66844727D01*
X122503282Y-66844728D01*
X123135591Y-67477037D01*
X123072007Y-67494075D01*
X122957993Y-67559901D01*
X122864901Y-67652993D01*
X122799075Y-67767007D01*
X122782037Y-67830591D01*
X122112642Y-67161196D01*
X122079319Y-67100609D01*
X122040527Y-66927364D01*
X122018354Y-66867913D01*
X122018350Y-66867906D01*
X121932190Y-66752812D01*
X121932187Y-66752809D01*
X121817093Y-66666649D01*
X121817086Y-66666645D01*
X121682379Y-66616403D01*
X121682372Y-66616401D01*
X121622844Y-66610000D01*
X120975000Y-66610000D01*
X120975000Y-67526988D01*
X120917993Y-67494075D01*
X120790826Y-67460000D01*
X120659174Y-67460000D01*
X120532007Y-67494075D01*
X120475000Y-67526988D01*
X120475000Y-66610000D01*
X119827155Y-66610000D01*
X119767627Y-66616401D01*
X119767620Y-66616403D01*
X119632913Y-66666645D01*
X119632906Y-66666649D01*
X119517812Y-66752809D01*
X119517809Y-66752812D01*
X119431649Y-66867906D01*
X119431645Y-66867913D01*
X119381403Y-67002620D01*
X119381401Y-67002627D01*
X119375000Y-67062155D01*
X119375000Y-67710000D01*
X120291988Y-67710000D01*
X120259075Y-67767007D01*
X120225000Y-67894174D01*
X120225000Y-68025826D01*
X120259075Y-68152993D01*
X120291988Y-68210000D01*
X119375000Y-68210000D01*
X119375000Y-68857844D01*
X119381401Y-68917372D01*
X119381403Y-68917379D01*
X119431645Y-69052086D01*
X119431649Y-69052093D01*
X119517809Y-69167187D01*
X119517812Y-69167190D01*
X119632906Y-69253350D01*
X119632913Y-69253354D01*
X119764470Y-69302422D01*
X119820404Y-69344293D01*
X119844821Y-69409758D01*
X119829969Y-69478031D01*
X119808819Y-69506285D01*
X119694889Y-69620215D01*
X119569951Y-69792179D01*
X119473444Y-69981585D01*
X119407753Y-70183760D01*
X119391532Y-70286176D01*
X119374500Y-70393713D01*
X119374500Y-70606287D01*
X119381019Y-70647446D01*
X119406311Y-70807136D01*
X119407754Y-70816243D01*
X119452757Y-70954748D01*
X119473444Y-71018414D01*
X119569951Y-71207820D01*
X119694890Y-71379786D01*
X119845213Y-71530109D01*
X120017182Y-71655050D01*
X120025946Y-71659516D01*
X120076742Y-71707491D01*
X120093536Y-71775312D01*
X120070998Y-71841447D01*
X120025946Y-71880484D01*
X120017182Y-71884949D01*
X119845213Y-72009890D01*
X119694890Y-72160213D01*
X119569951Y-72332179D01*
X119473444Y-72521585D01*
X119407753Y-72723760D01*
X119379514Y-72902053D01*
X119374500Y-72933713D01*
X119374500Y-73146287D01*
X119376877Y-73161295D01*
X119407753Y-73356239D01*
X119407753Y-73356241D01*
X119407754Y-73356243D01*
X119472252Y-73554747D01*
X119473444Y-73558414D01*
X119569951Y-73747820D01*
X119694890Y-73919786D01*
X119845213Y-74070109D01*
X120017182Y-74195050D01*
X120025946Y-74199516D01*
X120076742Y-74247491D01*
X120093536Y-74315312D01*
X120070998Y-74381447D01*
X120025946Y-74420484D01*
X120017182Y-74424949D01*
X119845213Y-74549890D01*
X119694890Y-74700213D01*
X119569951Y-74872179D01*
X119473444Y-75061585D01*
X119407753Y-75263760D01*
X119383626Y-75416094D01*
X119374500Y-75473713D01*
X119374500Y-75686287D01*
X119383768Y-75744801D01*
X119374812Y-75814095D01*
X119329815Y-75867546D01*
X119263063Y-75888185D01*
X119195750Y-75869459D01*
X119173613Y-75851879D01*
X118763819Y-75442085D01*
X118730334Y-75380762D01*
X118727500Y-75354404D01*
X118727500Y-72454748D01*
X118727500Y-72454747D01*
X118692865Y-72371132D01*
X118628868Y-72307135D01*
X117899285Y-71577552D01*
X117128870Y-70807136D01*
X117128867Y-70807134D01*
X117118370Y-70802786D01*
X117063969Y-70758943D01*
X117041907Y-70692648D01*
X117059189Y-70624949D01*
X117094706Y-70586651D01*
X117104139Y-70580047D01*
X117265047Y-70419139D01*
X117395568Y-70232734D01*
X117491739Y-70026496D01*
X117550635Y-69806692D01*
X117565500Y-69636784D01*
X117565500Y-69523216D01*
X117550635Y-69353308D01*
X117496025Y-69149500D01*
X117491741Y-69133511D01*
X117491740Y-69133507D01*
X117491739Y-69133504D01*
X117395568Y-68927266D01*
X117265047Y-68740861D01*
X117265045Y-68740858D01*
X117104141Y-68579954D01*
X116917734Y-68449432D01*
X116917728Y-68449429D01*
X116859725Y-68422382D01*
X116807285Y-68376210D01*
X116788133Y-68309017D01*
X116808348Y-68242135D01*
X116859725Y-68197618D01*
X116917734Y-68170568D01*
X117104139Y-68040047D01*
X117265047Y-67879139D01*
X117395568Y-67692734D01*
X117491739Y-67486496D01*
X117550635Y-67266692D01*
X117565500Y-67096784D01*
X117565500Y-66983216D01*
X117550635Y-66813308D01*
X117496025Y-66609500D01*
X117491741Y-66593511D01*
X117491738Y-66593503D01*
X117395568Y-66387266D01*
X117265047Y-66200861D01*
X117265045Y-66200858D01*
X117104141Y-66039954D01*
X116917734Y-65909432D01*
X116917728Y-65909429D01*
X116859725Y-65882382D01*
X116807285Y-65836210D01*
X116788133Y-65769017D01*
X116808348Y-65702135D01*
X116859725Y-65657618D01*
X116917734Y-65630568D01*
X117104139Y-65500047D01*
X117265047Y-65339139D01*
X117395568Y-65152734D01*
X117491739Y-64946496D01*
X117550635Y-64726692D01*
X117565500Y-64556784D01*
X117565500Y-64443216D01*
X117550635Y-64273308D01*
X117505916Y-64106415D01*
X117491741Y-64053511D01*
X117491738Y-64053503D01*
X117395568Y-63847266D01*
X117265047Y-63660861D01*
X117265045Y-63660858D01*
X117104141Y-63499954D01*
X116917734Y-63369432D01*
X116917728Y-63369429D01*
X116859725Y-63342382D01*
X116807285Y-63296210D01*
X116788133Y-63229017D01*
X116808348Y-63162135D01*
X116859725Y-63117618D01*
X116917734Y-63090568D01*
X117104139Y-62960047D01*
X117265047Y-62799139D01*
X117395568Y-62612734D01*
X117491739Y-62406496D01*
X117550635Y-62186692D01*
X117565500Y-62016784D01*
X117565500Y-61903216D01*
X117550635Y-61733308D01*
X117529777Y-61655465D01*
X117491741Y-61513511D01*
X117491738Y-61513503D01*
X117395568Y-61307266D01*
X117265047Y-61120861D01*
X117265045Y-61120858D01*
X117104141Y-60959954D01*
X116917734Y-60829432D01*
X116917732Y-60829431D01*
X116866343Y-60805468D01*
X116813904Y-60759295D01*
X116794752Y-60692102D01*
X116814968Y-60625221D01*
X116860293Y-60583729D01*
X116924783Y-60549259D01*
X117055811Y-60461709D01*
X117132412Y-60398843D01*
X117243843Y-60287412D01*
X117306709Y-60210811D01*
X117334629Y-60169024D01*
X117388240Y-60124221D01*
X117457565Y-60115512D01*
X117475079Y-60120485D01*
X117475260Y-60119890D01*
X117481082Y-60121656D01*
X117481087Y-60121658D01*
X117481091Y-60121658D01*
X117481092Y-60121659D01*
X117626079Y-60150500D01*
X117626082Y-60150500D01*
X117773920Y-60150500D01*
X117906028Y-60124221D01*
X117918913Y-60121658D01*
X118055495Y-60065084D01*
X118131560Y-60014259D01*
X118198235Y-59993382D01*
X118265615Y-60011866D01*
X118269339Y-60014260D01*
X118344730Y-60064634D01*
X118344745Y-60064642D01*
X118481232Y-60121177D01*
X118481240Y-60121179D01*
X118626126Y-60149999D01*
X118626129Y-60150000D01*
X118773871Y-60150000D01*
X118773873Y-60149999D01*
X118918760Y-60121179D01*
X118918775Y-60121175D01*
X119024024Y-60077578D01*
X119024024Y-60077577D01*
X118610904Y-59664457D01*
X118577419Y-59603134D01*
X118582403Y-59533442D01*
X118610904Y-59489094D01*
X118699999Y-59399999D01*
X119053554Y-59399999D01*
X119053554Y-59400001D01*
X119377577Y-59724024D01*
X119377578Y-59724024D01*
X119421175Y-59618775D01*
X119421179Y-59618760D01*
X119449999Y-59473873D01*
X119450000Y-59473871D01*
X119450000Y-59326128D01*
X119449999Y-59326126D01*
X119421179Y-59181240D01*
X119421178Y-59181236D01*
X119377577Y-59075975D01*
X119053554Y-59399999D01*
X118699999Y-59399999D01*
X118610904Y-59310904D01*
X118577419Y-59249581D01*
X118582403Y-59179889D01*
X118610904Y-59135542D01*
X119024024Y-58722421D01*
X118918767Y-58678822D01*
X118918759Y-58678820D01*
X118773872Y-58650000D01*
X118626128Y-58650000D01*
X118481240Y-58678820D01*
X118481232Y-58678822D01*
X118344745Y-58735357D01*
X118344737Y-58735361D01*
X118269340Y-58785740D01*
X118202663Y-58806617D01*
X118135283Y-58788132D01*
X118131560Y-58785740D01*
X118055499Y-58734918D01*
X118055488Y-58734912D01*
X117918917Y-58678343D01*
X117918907Y-58678340D01*
X117773920Y-58649500D01*
X117773918Y-58649500D01*
X117626082Y-58649500D01*
X117626080Y-58649500D01*
X117481093Y-58678340D01*
X117481090Y-58678341D01*
X117481088Y-58678341D01*
X117481087Y-58678342D01*
X117464247Y-58685317D01*
X117394780Y-58692785D01*
X117332301Y-58661509D01*
X117313695Y-58639644D01*
X117306717Y-58629201D01*
X117306712Y-58629194D01*
X117306709Y-58629189D01*
X117243843Y-58552588D01*
X117132412Y-58441157D01*
X117055811Y-58378291D01*
X117055804Y-58378286D01*
X117055793Y-58378278D01*
X116924799Y-58290751D01*
X116924788Y-58290744D01*
X116924783Y-58290741D01*
X116860293Y-58256270D01*
X116810450Y-58207308D01*
X116794990Y-58139171D01*
X116818822Y-58073491D01*
X116866341Y-58034532D01*
X116917734Y-58010568D01*
X117104139Y-57880047D01*
X117265047Y-57719139D01*
X117395568Y-57532734D01*
X117491739Y-57326496D01*
X117550635Y-57106692D01*
X117565500Y-56936784D01*
X117565500Y-56823216D01*
X117550635Y-56653308D01*
X117500780Y-56467247D01*
X117491741Y-56433511D01*
X117491738Y-56433503D01*
X117395568Y-56227266D01*
X117265047Y-56040861D01*
X117265045Y-56040858D01*
X117104141Y-55879954D01*
X116917734Y-55749432D01*
X116917728Y-55749429D01*
X116859725Y-55722382D01*
X116807285Y-55676210D01*
X116788133Y-55609017D01*
X116808348Y-55542135D01*
X116859725Y-55497618D01*
X116917734Y-55470568D01*
X117104139Y-55340047D01*
X117265047Y-55179139D01*
X117395568Y-54992734D01*
X117491739Y-54786496D01*
X117550635Y-54566692D01*
X117565500Y-54396784D01*
X117565500Y-54283216D01*
X117550635Y-54113308D01*
X117493479Y-53899998D01*
X117491741Y-53893511D01*
X117491738Y-53893503D01*
X117395568Y-53687266D01*
X117265047Y-53500861D01*
X117265045Y-53500858D01*
X117104141Y-53339954D01*
X116917734Y-53209432D01*
X116917728Y-53209429D01*
X116859725Y-53182382D01*
X116807285Y-53136210D01*
X116788133Y-53069017D01*
X116808348Y-53002135D01*
X116859725Y-52957618D01*
X116917734Y-52930568D01*
X117104139Y-52800047D01*
X117265047Y-52639139D01*
X117395568Y-52452734D01*
X117491739Y-52246496D01*
X117550635Y-52026692D01*
X117565500Y-51856784D01*
X117565500Y-51743216D01*
X117550635Y-51573308D01*
X117497365Y-51374499D01*
X117491741Y-51353511D01*
X117491738Y-51353503D01*
X117395568Y-51147266D01*
X117265047Y-50960861D01*
X117265045Y-50960858D01*
X117104141Y-50799954D01*
X116917734Y-50669432D01*
X116917728Y-50669429D01*
X116859725Y-50642382D01*
X116807285Y-50596210D01*
X116788133Y-50529017D01*
X116808348Y-50462135D01*
X116859725Y-50417618D01*
X116917734Y-50390568D01*
X117104139Y-50260047D01*
X117265047Y-50099139D01*
X117395568Y-49912734D01*
X117491739Y-49706496D01*
X117550635Y-49486692D01*
X117565500Y-49316784D01*
X117565500Y-49203216D01*
X117550635Y-49033308D01*
X117498342Y-48838147D01*
X117491741Y-48813511D01*
X117491738Y-48813503D01*
X117395568Y-48607266D01*
X117271914Y-48430668D01*
X117265045Y-48420858D01*
X117104141Y-48259954D01*
X116917734Y-48129432D01*
X116917732Y-48129431D01*
X116874574Y-48109306D01*
X116865778Y-48105204D01*
X116813340Y-48059032D01*
X116794188Y-47991839D01*
X116814404Y-47924958D01*
X116859732Y-47883464D01*
X116924500Y-47848844D01*
X116924521Y-47848832D01*
X117055530Y-47761295D01*
X117055536Y-47761291D01*
X117132064Y-47698485D01*
X117243485Y-47587064D01*
X117306289Y-47510538D01*
X117346751Y-47449983D01*
X119099500Y-47449983D01*
X119099500Y-50550001D01*
X119099501Y-50550018D01*
X119110000Y-50652796D01*
X119110001Y-50652799D01*
X119139491Y-50741793D01*
X119165186Y-50819334D01*
X119257288Y-50968656D01*
X119381344Y-51092712D01*
X119530666Y-51184814D01*
X119697203Y-51239999D01*
X119799991Y-51250500D01*
X120148500Y-51250499D01*
X120215539Y-51270183D01*
X120261294Y-51322987D01*
X120272500Y-51374499D01*
X120272500Y-51454747D01*
X120272500Y-51545253D01*
X120288191Y-51583135D01*
X120307136Y-51628870D01*
X120940438Y-52262171D01*
X120973923Y-52323494D01*
X120968939Y-52393185D01*
X120940439Y-52437532D01*
X120855486Y-52522486D01*
X120855485Y-52522488D01*
X120855483Y-52522490D01*
X120802986Y-52594746D01*
X120716657Y-52713566D01*
X120609433Y-52924003D01*
X120536446Y-53148631D01*
X120499500Y-53381902D01*
X120499500Y-53618097D01*
X120536446Y-53851368D01*
X120609433Y-54075996D01*
X120710449Y-54274249D01*
X120716657Y-54286433D01*
X120855483Y-54477510D01*
X121022490Y-54644517D01*
X121213567Y-54783343D01*
X121267168Y-54810654D01*
X121424003Y-54890566D01*
X121424005Y-54890566D01*
X121424008Y-54890568D01*
X121490406Y-54912142D01*
X121648631Y-54963553D01*
X121881903Y-55000500D01*
X121881908Y-55000500D01*
X122118090Y-55000500D01*
X122118092Y-55000500D01*
X122152903Y-54994986D01*
X122222194Y-55003940D01*
X122275647Y-55048936D01*
X122296287Y-55115687D01*
X122296300Y-55117459D01*
X122296300Y-57750500D01*
X122276615Y-57817539D01*
X122223811Y-57863294D01*
X122172300Y-57874500D01*
X121602129Y-57874500D01*
X121602123Y-57874501D01*
X121542516Y-57880908D01*
X121407671Y-57931202D01*
X121407664Y-57931206D01*
X121292455Y-58017452D01*
X121292452Y-58017455D01*
X121206206Y-58132664D01*
X121206202Y-58132671D01*
X121155908Y-58267517D01*
X121149501Y-58327116D01*
X121149501Y-58327123D01*
X121149500Y-58327135D01*
X121149500Y-60122870D01*
X121149501Y-60122876D01*
X121155908Y-60182483D01*
X121206202Y-60317328D01*
X121206206Y-60317335D01*
X121292452Y-60432544D01*
X121292455Y-60432547D01*
X121407664Y-60518793D01*
X121407671Y-60518797D01*
X121452618Y-60535561D01*
X121542517Y-60569091D01*
X121602127Y-60575500D01*
X121612685Y-60575499D01*
X121679723Y-60595179D01*
X121700372Y-60611818D01*
X122370591Y-61282037D01*
X122307007Y-61299075D01*
X122192993Y-61364901D01*
X122099901Y-61457993D01*
X122034075Y-61572007D01*
X122017037Y-61635591D01*
X121384728Y-61003282D01*
X121384727Y-61003282D01*
X121345380Y-61057439D01*
X121248904Y-61246782D01*
X121183242Y-61448869D01*
X121183242Y-61448872D01*
X121150000Y-61658753D01*
X121150000Y-61871246D01*
X121183242Y-62081127D01*
X121183242Y-62081130D01*
X121248904Y-62283217D01*
X121345375Y-62472550D01*
X121384728Y-62526716D01*
X122017037Y-61894408D01*
X122034075Y-61957993D01*
X122099901Y-62072007D01*
X122192993Y-62165099D01*
X122307007Y-62230925D01*
X122370590Y-62247962D01*
X121738282Y-62880269D01*
X121738282Y-62880270D01*
X121792449Y-62919624D01*
X121981782Y-63016095D01*
X122183870Y-63081757D01*
X122393754Y-63115000D01*
X122606246Y-63115000D01*
X122816127Y-63081757D01*
X122816130Y-63081757D01*
X123018217Y-63016095D01*
X123207554Y-62919622D01*
X123261716Y-62880270D01*
X123261717Y-62880270D01*
X122629408Y-62247962D01*
X122692993Y-62230925D01*
X122807007Y-62165099D01*
X122900099Y-62072007D01*
X122965925Y-61957993D01*
X122982962Y-61894409D01*
X123615270Y-62526717D01*
X123615270Y-62526716D01*
X123654622Y-62472554D01*
X123751095Y-62283217D01*
X123816757Y-62081130D01*
X123816757Y-62081127D01*
X123850000Y-61871246D01*
X123850000Y-61658753D01*
X123816757Y-61448872D01*
X123816757Y-61448869D01*
X123751095Y-61246782D01*
X123654624Y-61057449D01*
X123615270Y-61003282D01*
X123615269Y-61003282D01*
X122982962Y-61635590D01*
X122965925Y-61572007D01*
X122900099Y-61457993D01*
X122807007Y-61364901D01*
X122692993Y-61299075D01*
X122629409Y-61282037D01*
X123299627Y-60611818D01*
X123360950Y-60578333D01*
X123387307Y-60575499D01*
X123397872Y-60575499D01*
X123457483Y-60569091D01*
X123592331Y-60518796D01*
X123707546Y-60432546D01*
X123793796Y-60317331D01*
X123844091Y-60182483D01*
X123850500Y-60122873D01*
X123850499Y-58327128D01*
X123844091Y-58267517D01*
X123835330Y-58244028D01*
X123793797Y-58132671D01*
X123793793Y-58132664D01*
X123707547Y-58017455D01*
X123707544Y-58017452D01*
X123592335Y-57931206D01*
X123592328Y-57931202D01*
X123457482Y-57880908D01*
X123457483Y-57880908D01*
X123397883Y-57874501D01*
X123397881Y-57874500D01*
X123397873Y-57874500D01*
X123397865Y-57874500D01*
X122827700Y-57874500D01*
X122760661Y-57854815D01*
X122714906Y-57802011D01*
X122703700Y-57750500D01*
X122703700Y-54901484D01*
X122723385Y-54834445D01*
X122771404Y-54791000D01*
X122786433Y-54783343D01*
X122977510Y-54644517D01*
X123144517Y-54477510D01*
X123283343Y-54286433D01*
X123390568Y-54075992D01*
X123463553Y-53851368D01*
X123489544Y-53687267D01*
X123500500Y-53618097D01*
X123500500Y-53381902D01*
X123463553Y-53148631D01*
X123416955Y-53005220D01*
X123390568Y-52924008D01*
X123390566Y-52924005D01*
X123390566Y-52924003D01*
X123312097Y-52770000D01*
X123283343Y-52713567D01*
X123144517Y-52522490D01*
X122977510Y-52355483D01*
X122786433Y-52216657D01*
X122700000Y-52172617D01*
X122575996Y-52109433D01*
X122351368Y-52036446D01*
X122118097Y-51999500D01*
X122118092Y-51999500D01*
X121881908Y-51999500D01*
X121881903Y-51999500D01*
X121648628Y-52036447D01*
X121501675Y-52084194D01*
X121431834Y-52086189D01*
X121375677Y-52053944D01*
X120783913Y-51462180D01*
X120750428Y-51400857D01*
X120755412Y-51331165D01*
X120797284Y-51275232D01*
X120862748Y-51250815D01*
X120871594Y-51250499D01*
X121200002Y-51250499D01*
X121200008Y-51250499D01*
X121302797Y-51239999D01*
X121469334Y-51184814D01*
X121618656Y-51092712D01*
X121742712Y-50968656D01*
X121834814Y-50819334D01*
X121889999Y-50652797D01*
X121900500Y-50550009D01*
X121900499Y-47449992D01*
X121889999Y-47347203D01*
X121834814Y-47180666D01*
X121742712Y-47031344D01*
X121618656Y-46907288D01*
X121508426Y-46839298D01*
X121469336Y-46815187D01*
X121469331Y-46815185D01*
X121430842Y-46802431D01*
X121302797Y-46760001D01*
X121302795Y-46760000D01*
X121200010Y-46749500D01*
X119799998Y-46749500D01*
X119799981Y-46749501D01*
X119697203Y-46760000D01*
X119697200Y-46760001D01*
X119530668Y-46815185D01*
X119530663Y-46815187D01*
X119381342Y-46907289D01*
X119257289Y-47031342D01*
X119165187Y-47180663D01*
X119165185Y-47180668D01*
X119153780Y-47215086D01*
X119110001Y-47347203D01*
X119110001Y-47347204D01*
X119110000Y-47347204D01*
X119099500Y-47449983D01*
X117346751Y-47449983D01*
X117393834Y-47379518D01*
X117393844Y-47379501D01*
X117440509Y-47292198D01*
X117500814Y-47146612D01*
X117529556Y-47051860D01*
X117529559Y-47051849D01*
X117545839Y-46970000D01*
X115098012Y-46970000D01*
X115130925Y-46912993D01*
X115165000Y-46785826D01*
X115165000Y-46654174D01*
X115130925Y-46527007D01*
X115098012Y-46470000D01*
X117545839Y-46470000D01*
X117545839Y-46469999D01*
X117529559Y-46388150D01*
X117529556Y-46388139D01*
X117500814Y-46293387D01*
X117440509Y-46147801D01*
X117393844Y-46060498D01*
X117393832Y-46060478D01*
X117306295Y-45929469D01*
X117306291Y-45929463D01*
X117243485Y-45852935D01*
X117132064Y-45741514D01*
X117055536Y-45678708D01*
X117055530Y-45678704D01*
X116924521Y-45591167D01*
X116924501Y-45591155D01*
X116859730Y-45556534D01*
X116809886Y-45507571D01*
X116794426Y-45439434D01*
X116818258Y-45373754D01*
X116865777Y-45334795D01*
X116917734Y-45310568D01*
X117104139Y-45180047D01*
X117265047Y-45019139D01*
X117395568Y-44832734D01*
X117491739Y-44626496D01*
X117550635Y-44406692D01*
X117556409Y-44340692D01*
X117581861Y-44275624D01*
X117638452Y-44234645D01*
X117679937Y-44227500D01*
X118975501Y-44227500D01*
X119042540Y-44247185D01*
X119088295Y-44299989D01*
X119099501Y-44351500D01*
X119099501Y-45550018D01*
X119110000Y-45652796D01*
X119110001Y-45652799D01*
X119165185Y-45819331D01*
X119165187Y-45819336D01*
X119178352Y-45840680D01*
X119257288Y-45968656D01*
X119381344Y-46092712D01*
X119530666Y-46184814D01*
X119697203Y-46239999D01*
X119799991Y-46250500D01*
X121200008Y-46250499D01*
X121302797Y-46239999D01*
X121469334Y-46184814D01*
X121618656Y-46092712D01*
X121742712Y-45968656D01*
X121834814Y-45819334D01*
X121889999Y-45652797D01*
X121900500Y-45550009D01*
X121900499Y-42449992D01*
X121889999Y-42347203D01*
X121834814Y-42180666D01*
X121742712Y-42031344D01*
X121618656Y-41907288D01*
X121469334Y-41815186D01*
X121302797Y-41760001D01*
X121302795Y-41760000D01*
X121200010Y-41749500D01*
X119799998Y-41749500D01*
X119799981Y-41749501D01*
X119697203Y-41760000D01*
X119697200Y-41760001D01*
X119530668Y-41815185D01*
X119530663Y-41815187D01*
X119381342Y-41907289D01*
X119257289Y-42031342D01*
X119165187Y-42180663D01*
X119165185Y-42180668D01*
X119145296Y-42240690D01*
X119110001Y-42347203D01*
X119110001Y-42347204D01*
X119110000Y-42347204D01*
X119099500Y-42449983D01*
X119099500Y-43648500D01*
X119079815Y-43715539D01*
X119027011Y-43761294D01*
X118975500Y-43772500D01*
X117588920Y-43772500D01*
X117521881Y-43752815D01*
X117476538Y-43700905D01*
X117433148Y-43607857D01*
X117395568Y-43527266D01*
X117265047Y-43340861D01*
X117265045Y-43340858D01*
X117104141Y-43179954D01*
X116917734Y-43049432D01*
X116917728Y-43049429D01*
X116889886Y-43036446D01*
X116859724Y-43022381D01*
X116807285Y-42976210D01*
X116788133Y-42909017D01*
X116808348Y-42842135D01*
X116859725Y-42797618D01*
X116917734Y-42770568D01*
X117104139Y-42640047D01*
X117265047Y-42479139D01*
X117395568Y-42292734D01*
X117491739Y-42086496D01*
X117550635Y-41866692D01*
X117565500Y-41696784D01*
X117565500Y-41583216D01*
X117550635Y-41413308D01*
X117491739Y-41193504D01*
X117395568Y-40987266D01*
X117265047Y-40800861D01*
X117265045Y-40800858D01*
X117104141Y-40639954D01*
X116917734Y-40509432D01*
X116917732Y-40509431D01*
X116711497Y-40413261D01*
X116711488Y-40413258D01*
X116491697Y-40354366D01*
X116491687Y-40354364D01*
X116321785Y-40339500D01*
X116321784Y-40339500D01*
X114767352Y-40339500D01*
X114562648Y-40339500D01*
X114562644Y-40339500D01*
X114510697Y-40347728D01*
X114510695Y-40347728D01*
X114506410Y-40348406D01*
X114438308Y-40354365D01*
X114394245Y-40366170D01*
X114387841Y-40367185D01*
X114387824Y-40367189D01*
X114360463Y-40371523D01*
X114360459Y-40371524D01*
X114298627Y-40391615D01*
X114292404Y-40393459D01*
X114218504Y-40413261D01*
X114218503Y-40413261D01*
X114194338Y-40424529D01*
X114194337Y-40424528D01*
X114187456Y-40427736D01*
X114165781Y-40434780D01*
X114094886Y-40470901D01*
X114092900Y-40471828D01*
X114092882Y-40471838D01*
X114012262Y-40509433D01*
X114000655Y-40517559D01*
X114000656Y-40517560D01*
X113993549Y-40522535D01*
X113983390Y-40527713D01*
X113909870Y-40581126D01*
X113908939Y-40581779D01*
X113825859Y-40639954D01*
X113664954Y-40800859D01*
X113606781Y-40883934D01*
X113606782Y-40883935D01*
X113606132Y-40884863D01*
X113552713Y-40958390D01*
X113547535Y-40968550D01*
X113542560Y-40975656D01*
X113542558Y-40975656D01*
X113534433Y-40987262D01*
X113496838Y-41067882D01*
X113495920Y-41069849D01*
X113459780Y-41140781D01*
X113452735Y-41162458D01*
X113449532Y-41169329D01*
X113449529Y-41169338D01*
X113438261Y-41193503D01*
X113438261Y-41193504D01*
X113418459Y-41267404D01*
X113418458Y-41267403D01*
X113417614Y-41270551D01*
X113396523Y-41335466D01*
X113391175Y-41369224D01*
X113389492Y-41375507D01*
X113389492Y-41375511D01*
X113379366Y-41413304D01*
X113379364Y-41413313D01*
X113373783Y-41477106D01*
X113372942Y-41483954D01*
X113372941Y-41484301D01*
X113372837Y-41485007D01*
X113364500Y-41537648D01*
X113364500Y-41742352D01*
X113373406Y-41798582D01*
X113379365Y-41866692D01*
X113391171Y-41910756D01*
X113392188Y-41917175D01*
X113392190Y-41917181D01*
X113396521Y-41944525D01*
X113396522Y-41944530D01*
X113416617Y-42006378D01*
X113418460Y-42012600D01*
X113438260Y-42086494D01*
X113449529Y-42110662D01*
X113450231Y-42112167D01*
X113452733Y-42117532D01*
X113459780Y-42139219D01*
X113495930Y-42210169D01*
X113496844Y-42212128D01*
X113534432Y-42292734D01*
X113542562Y-42304346D01*
X113547535Y-42311448D01*
X113552713Y-42321610D01*
X113606164Y-42395180D01*
X113606793Y-42396078D01*
X113664953Y-42479140D01*
X113825858Y-42640045D01*
X113825861Y-42640047D01*
X113909800Y-42698821D01*
X113983390Y-42752287D01*
X113993547Y-42757462D01*
X114000648Y-42762434D01*
X114000652Y-42762436D01*
X114012266Y-42770568D01*
X114012270Y-42770570D01*
X114070272Y-42797617D01*
X114080927Y-42806999D01*
X114094131Y-42812224D01*
X114106629Y-42829629D01*
X114122712Y-42843789D01*
X114126604Y-42857444D01*
X114134886Y-42868977D01*
X114135990Y-42890375D01*
X114141864Y-42910982D01*
X114137755Y-42924573D01*
X114138488Y-42938754D01*
X114127848Y-42957352D01*
X114121649Y-42977864D01*
X114110167Y-42988259D01*
X114103794Y-42999401D01*
X114079369Y-43016145D01*
X114075126Y-43019988D01*
X114072711Y-43021244D01*
X114012266Y-43049432D01*
X113994002Y-43062219D01*
X113986792Y-43065973D01*
X113986591Y-43066012D01*
X113985847Y-43066460D01*
X113983397Y-43067708D01*
X113983394Y-43067710D01*
X113910696Y-43120526D01*
X113908939Y-43121779D01*
X113825859Y-43179954D01*
X113664954Y-43340859D01*
X113606781Y-43423934D01*
X113606782Y-43423935D01*
X113606132Y-43424863D01*
X113552713Y-43498390D01*
X113547535Y-43508550D01*
X113542560Y-43515656D01*
X113542558Y-43515656D01*
X113534433Y-43527262D01*
X113496838Y-43607882D01*
X113495920Y-43609849D01*
X113459780Y-43680781D01*
X113452735Y-43702458D01*
X113449532Y-43709329D01*
X113449529Y-43709338D01*
X113438261Y-43733503D01*
X113438261Y-43733504D01*
X113418459Y-43807404D01*
X113418458Y-43807403D01*
X113417614Y-43810551D01*
X113396523Y-43875466D01*
X113391175Y-43909224D01*
X113389492Y-43915507D01*
X113389492Y-43915511D01*
X113379366Y-43953304D01*
X113379364Y-43953313D01*
X113373783Y-44017106D01*
X113372728Y-44025697D01*
X113364500Y-44077643D01*
X113364500Y-44077648D01*
X113364500Y-44282352D01*
X113373406Y-44338582D01*
X113379365Y-44406692D01*
X113391171Y-44450756D01*
X113392188Y-44457175D01*
X113392190Y-44457181D01*
X113396521Y-44484525D01*
X113396522Y-44484530D01*
X113416617Y-44546378D01*
X113418460Y-44552600D01*
X113438260Y-44626494D01*
X113449529Y-44650662D01*
X113452733Y-44657532D01*
X113459780Y-44679219D01*
X113495930Y-44750169D01*
X113496844Y-44752128D01*
X113534432Y-44832734D01*
X113542562Y-44844346D01*
X113547535Y-44851448D01*
X113552713Y-44861610D01*
X113606164Y-44935180D01*
X113606793Y-44936078D01*
X113664953Y-45019140D01*
X113825858Y-45180045D01*
X113892379Y-45226623D01*
X113936004Y-45281199D01*
X113943198Y-45350698D01*
X113911676Y-45413052D01*
X113851922Y-45448346D01*
X113831970Y-45453438D01*
X113831956Y-45453442D01*
X113775415Y-45476862D01*
X114535590Y-46237037D01*
X114472007Y-46254075D01*
X114357993Y-46319901D01*
X114264901Y-46412993D01*
X114199075Y-46527007D01*
X114165000Y-46654174D01*
X114165000Y-46785826D01*
X114199075Y-46912993D01*
X114264901Y-47027007D01*
X114357993Y-47120099D01*
X114472007Y-47185925D01*
X114535589Y-47202962D01*
X113775415Y-47963135D01*
X113775415Y-47963136D01*
X113831947Y-47986553D01*
X113860159Y-47996505D01*
X113916832Y-48037370D01*
X113942415Y-48102388D01*
X113928786Y-48170915D01*
X113890035Y-48215016D01*
X113825859Y-48259954D01*
X113664954Y-48420859D01*
X113606781Y-48503934D01*
X113606782Y-48503935D01*
X113606132Y-48504863D01*
X113552713Y-48578390D01*
X113547535Y-48588550D01*
X113542560Y-48595656D01*
X113542558Y-48595656D01*
X113534433Y-48607262D01*
X113496838Y-48687882D01*
X113495920Y-48689849D01*
X113459780Y-48760781D01*
X113452735Y-48782458D01*
X113449532Y-48789329D01*
X113449529Y-48789338D01*
X113438261Y-48813503D01*
X113438261Y-48813504D01*
X113418459Y-48887404D01*
X113418458Y-48887403D01*
X113417614Y-48890551D01*
X113396523Y-48955466D01*
X113391175Y-48989224D01*
X113389492Y-48995507D01*
X113389492Y-48995511D01*
X113379366Y-49033304D01*
X113379364Y-49033313D01*
X113373783Y-49097106D01*
X113372723Y-49105731D01*
X113372468Y-49107338D01*
X113342520Y-49170464D01*
X113283198Y-49207378D01*
X113213336Y-49206361D01*
X113162319Y-49175586D01*
X111346519Y-47359785D01*
X113360000Y-47359785D01*
X113362893Y-47413762D01*
X113362893Y-47413764D01*
X113398438Y-47553030D01*
X113398440Y-47553037D01*
X113421863Y-47609583D01*
X114061447Y-46970000D01*
X113360000Y-46970000D01*
X113360000Y-47359785D01*
X111346519Y-47359785D01*
X110993053Y-47006319D01*
X110066953Y-46080219D01*
X113360000Y-46080219D01*
X113360000Y-46470000D01*
X114061447Y-46470000D01*
X114061447Y-46469999D01*
X113421862Y-45830415D01*
X113398449Y-45886940D01*
X113380455Y-45937946D01*
X113360000Y-46080219D01*
X110066953Y-46080219D01*
X109868870Y-45882136D01*
X109837512Y-45869147D01*
X109785253Y-45847500D01*
X109043559Y-45847500D01*
X108976520Y-45827815D01*
X108930765Y-45775011D01*
X108920821Y-45705853D01*
X108949846Y-45642297D01*
X108955878Y-45635819D01*
X109000542Y-45591155D01*
X109058483Y-45533214D01*
X109162614Y-45389890D01*
X109243042Y-45232042D01*
X109297786Y-45063555D01*
X109325500Y-44888579D01*
X109325500Y-44711421D01*
X109297786Y-44536445D01*
X109255626Y-44406687D01*
X109243043Y-44367960D01*
X109243042Y-44367957D01*
X109194251Y-44272200D01*
X109162614Y-44210110D01*
X109058483Y-44066786D01*
X108933214Y-43941517D01*
X108789890Y-43837386D01*
X108779883Y-43832287D01*
X108632042Y-43756957D01*
X108632039Y-43756956D01*
X108463556Y-43702214D01*
X108354872Y-43685000D01*
X108288579Y-43674500D01*
X108111421Y-43674500D01*
X108071765Y-43680781D01*
X107936443Y-43702214D01*
X107767960Y-43756956D01*
X107767957Y-43756957D01*
X107610109Y-43837386D01*
X107557697Y-43875466D01*
X107466786Y-43941517D01*
X107466784Y-43941519D01*
X107466783Y-43941519D01*
X107341519Y-44066783D01*
X107341519Y-44066784D01*
X107341517Y-44066786D01*
X107333625Y-44077649D01*
X107237386Y-44210109D01*
X107156957Y-44367957D01*
X107156956Y-44367960D01*
X107102214Y-44536443D01*
X107074500Y-44711421D01*
X107074500Y-44888578D01*
X107102214Y-45063556D01*
X107156956Y-45232039D01*
X107156957Y-45232042D01*
X107235097Y-45385397D01*
X107237386Y-45389890D01*
X107341517Y-45533214D01*
X107341519Y-45533216D01*
X107444122Y-45635819D01*
X107477607Y-45697142D01*
X107472623Y-45766834D01*
X107430751Y-45822767D01*
X107365287Y-45847184D01*
X107356441Y-45847500D01*
X106596634Y-45847500D01*
X106529595Y-45827815D01*
X106483840Y-45775011D01*
X106473896Y-45705853D01*
X106502921Y-45642297D01*
X106524881Y-45624165D01*
X106524245Y-45623336D01*
X106530686Y-45618392D01*
X106530694Y-45618388D01*
X106623388Y-45525694D01*
X106688933Y-45412167D01*
X106722861Y-45285545D01*
X106725000Y-45220000D01*
X106725000Y-44320000D01*
X106722861Y-44254455D01*
X106688933Y-44127833D01*
X106623388Y-44014306D01*
X106530694Y-43921612D01*
X106417167Y-43856067D01*
X106290545Y-43822139D01*
X106225000Y-43820000D01*
X105775000Y-43820000D01*
X105325000Y-43820000D01*
X105259458Y-43822138D01*
X105132832Y-43856068D01*
X105019307Y-43921611D01*
X105019304Y-43921613D01*
X104926613Y-44014304D01*
X104926611Y-44014307D01*
X104861068Y-44127832D01*
X104827138Y-44254458D01*
X104825000Y-44319999D01*
X104825000Y-45220000D01*
X104827138Y-45285541D01*
X104827138Y-45285544D01*
X104827139Y-45285545D01*
X104861068Y-45412167D01*
X104926612Y-45525694D01*
X105019306Y-45618388D01*
X105019308Y-45618389D01*
X105025757Y-45623338D01*
X105024195Y-45625373D01*
X105063580Y-45666678D01*
X105076804Y-45735285D01*
X105050837Y-45800150D01*
X104993923Y-45840680D01*
X104953365Y-45847500D01*
X104193559Y-45847500D01*
X104126520Y-45827815D01*
X104080765Y-45775011D01*
X104070821Y-45705853D01*
X104099846Y-45642297D01*
X104105878Y-45635819D01*
X104150542Y-45591155D01*
X104208483Y-45533214D01*
X104312614Y-45389890D01*
X104393042Y-45232042D01*
X104447786Y-45063555D01*
X104475500Y-44888579D01*
X104475500Y-44711421D01*
X104447786Y-44536445D01*
X104405626Y-44406687D01*
X104393043Y-44367960D01*
X104393042Y-44367957D01*
X104344251Y-44272200D01*
X104312614Y-44210110D01*
X104208483Y-44066786D01*
X104083214Y-43941517D01*
X103939890Y-43837386D01*
X103929883Y-43832287D01*
X103782042Y-43756957D01*
X103782039Y-43756956D01*
X103613556Y-43702214D01*
X103504872Y-43685000D01*
X103438579Y-43674500D01*
X103261421Y-43674500D01*
X103221765Y-43680781D01*
X103086443Y-43702214D01*
X102917960Y-43756956D01*
X102917957Y-43756957D01*
X102760109Y-43837386D01*
X102707697Y-43875466D01*
X102616786Y-43941517D01*
X102616784Y-43941519D01*
X102616783Y-43941519D01*
X102491519Y-44066783D01*
X102491519Y-44066784D01*
X102491517Y-44066786D01*
X102483625Y-44077649D01*
X102387386Y-44210109D01*
X102306957Y-44367957D01*
X102306956Y-44367960D01*
X102252214Y-44536443D01*
X102224500Y-44711421D01*
X102224500Y-44888578D01*
X102252214Y-45063556D01*
X102306956Y-45232039D01*
X102306957Y-45232042D01*
X102385097Y-45385397D01*
X102387386Y-45389890D01*
X102491517Y-45533214D01*
X102491519Y-45533216D01*
X102594122Y-45635819D01*
X102627607Y-45697142D01*
X102622623Y-45766834D01*
X102580751Y-45822767D01*
X102515287Y-45847184D01*
X102506441Y-45847500D01*
X98299776Y-45847500D01*
X98232737Y-45827815D01*
X98212095Y-45811181D01*
X97740231Y-45339317D01*
X97706746Y-45277994D01*
X97711730Y-45208302D01*
X97740229Y-45163956D01*
X97885047Y-45019139D01*
X97943821Y-44935199D01*
X97997287Y-44861610D01*
X98002465Y-44851446D01*
X98015568Y-44832734D01*
X98054067Y-44750172D01*
X98090220Y-44679219D01*
X98097266Y-44657532D01*
X98111739Y-44626496D01*
X98111742Y-44626488D01*
X98131534Y-44552617D01*
X98132377Y-44549471D01*
X98153477Y-44484534D01*
X98158825Y-44450766D01*
X98170635Y-44406692D01*
X98176215Y-44342892D01*
X98177270Y-44334306D01*
X98179537Y-44319999D01*
X98185500Y-44282352D01*
X98185500Y-44077648D01*
X98176593Y-44021417D01*
X98170635Y-43953308D01*
X98158825Y-43909233D01*
X98153477Y-43875466D01*
X98133378Y-43813609D01*
X98131535Y-43807386D01*
X98111742Y-43733513D01*
X98111740Y-43733510D01*
X98111739Y-43733504D01*
X98097266Y-43702467D01*
X98090220Y-43680781D01*
X98054067Y-43609827D01*
X98015568Y-43527266D01*
X98007436Y-43515652D01*
X98007436Y-43515651D01*
X98002462Y-43508548D01*
X97997287Y-43498390D01*
X97943821Y-43424800D01*
X97943215Y-43423935D01*
X97943205Y-43423920D01*
X97885045Y-43340858D01*
X97724142Y-43179955D01*
X97715297Y-43173762D01*
X97653515Y-43130502D01*
X97609891Y-43075927D01*
X97602697Y-43006429D01*
X97634219Y-42944074D01*
X97687747Y-42910543D01*
X97774606Y-42883478D01*
X97920185Y-42795472D01*
X98040472Y-42675185D01*
X98128478Y-42529606D01*
X98179086Y-42367196D01*
X98185500Y-42296616D01*
X98185500Y-41775650D01*
X98185621Y-41770163D01*
X98185768Y-41766830D01*
X98190500Y-41718793D01*
X98190500Y-41667648D01*
X101749500Y-41667648D01*
X101749500Y-41872351D01*
X101781522Y-42074534D01*
X101844781Y-42269223D01*
X101884513Y-42347200D01*
X101936888Y-42449991D01*
X101937715Y-42451613D01*
X102058028Y-42617213D01*
X102202786Y-42761971D01*
X102317371Y-42845220D01*
X102368390Y-42882287D01*
X102451381Y-42924573D01*
X102550776Y-42975218D01*
X102550778Y-42975218D01*
X102550781Y-42975220D01*
X102655137Y-43009127D01*
X102745465Y-43038477D01*
X102814613Y-43049429D01*
X102947648Y-43070500D01*
X102947649Y-43070500D01*
X103152351Y-43070500D01*
X103152352Y-43070500D01*
X103354534Y-43038477D01*
X103549219Y-42975220D01*
X103731610Y-42882287D01*
X103840524Y-42803157D01*
X103897213Y-42761971D01*
X103897215Y-42761968D01*
X103897219Y-42761966D01*
X104041966Y-42617219D01*
X104149843Y-42468736D01*
X104205170Y-42426072D01*
X104254206Y-42417689D01*
X104259452Y-42417860D01*
X104259455Y-42417861D01*
X104325000Y-42420000D01*
X104325001Y-42420000D01*
X105225000Y-42420000D01*
X105290545Y-42417861D01*
X105417167Y-42383933D01*
X105530694Y-42318388D01*
X105623388Y-42225694D01*
X105663283Y-42156594D01*
X105713850Y-42108378D01*
X105782457Y-42095155D01*
X105847322Y-42121124D01*
X105878057Y-42156594D01*
X105926609Y-42240690D01*
X105926611Y-42240693D01*
X105926612Y-42240694D01*
X106019306Y-42333388D01*
X106132833Y-42398932D01*
X106259455Y-42432861D01*
X106325000Y-42435000D01*
X107225000Y-42435000D01*
X107290545Y-42432861D01*
X107290556Y-42432858D01*
X107291616Y-42432701D01*
X107292343Y-42432802D01*
X107297653Y-42432629D01*
X107297682Y-42433545D01*
X107360819Y-42442332D01*
X107410134Y-42482471D01*
X107492293Y-42595553D01*
X107508034Y-42617219D01*
X107652786Y-42761971D01*
X107767371Y-42845220D01*
X107818390Y-42882287D01*
X107901381Y-42924573D01*
X108000776Y-42975218D01*
X108000778Y-42975218D01*
X108000781Y-42975220D01*
X108105137Y-43009127D01*
X108195465Y-43038477D01*
X108264613Y-43049429D01*
X108397648Y-43070500D01*
X108397649Y-43070500D01*
X108602351Y-43070500D01*
X108602352Y-43070500D01*
X108804534Y-43038477D01*
X108999219Y-42975220D01*
X109181610Y-42882287D01*
X109290524Y-42803157D01*
X109347213Y-42761971D01*
X109347215Y-42761968D01*
X109347219Y-42761966D01*
X109491966Y-42617219D01*
X109491968Y-42617215D01*
X109491971Y-42617213D01*
X109555620Y-42529606D01*
X109612287Y-42451610D01*
X109705220Y-42269219D01*
X109768477Y-42074534D01*
X109800500Y-41872352D01*
X109800500Y-41667648D01*
X109768477Y-41465466D01*
X109751531Y-41413313D01*
X109705218Y-41270776D01*
X109653532Y-41169338D01*
X109612287Y-41088390D01*
X109597387Y-41067882D01*
X109491971Y-40922786D01*
X109347213Y-40778028D01*
X109181613Y-40657715D01*
X109181612Y-40657714D01*
X109181610Y-40657713D01*
X109087036Y-40609525D01*
X108999223Y-40564781D01*
X108804534Y-40501522D01*
X108617050Y-40471828D01*
X108602352Y-40469500D01*
X108397648Y-40469500D01*
X108388607Y-40470932D01*
X108195465Y-40501522D01*
X108000776Y-40564781D01*
X107818386Y-40657715D01*
X107749659Y-40707648D01*
X107683853Y-40731128D01*
X107615799Y-40715302D01*
X107589093Y-40695011D01*
X107530696Y-40636614D01*
X107530694Y-40636612D01*
X107417167Y-40571067D01*
X107290545Y-40537139D01*
X107225000Y-40535000D01*
X106775000Y-40535000D01*
X106325000Y-40535000D01*
X106259458Y-40537138D01*
X106132832Y-40571068D01*
X106019307Y-40636611D01*
X106019304Y-40636613D01*
X105926613Y-40729304D01*
X105926609Y-40729309D01*
X105886717Y-40798405D01*
X105836150Y-40846621D01*
X105767543Y-40859843D01*
X105702678Y-40833875D01*
X105671943Y-40798405D01*
X105634334Y-40733265D01*
X105623388Y-40714306D01*
X105530694Y-40621612D01*
X105417167Y-40556067D01*
X105290545Y-40522139D01*
X105225000Y-40520000D01*
X104775000Y-40520000D01*
X104325000Y-40520000D01*
X104259458Y-40522138D01*
X104132832Y-40556068D01*
X104019307Y-40621610D01*
X103952218Y-40688700D01*
X103890894Y-40722184D01*
X103821203Y-40717199D01*
X103791656Y-40701338D01*
X103731610Y-40657713D01*
X103690197Y-40636612D01*
X103549223Y-40564781D01*
X103354534Y-40501522D01*
X103167050Y-40471828D01*
X103152352Y-40469500D01*
X102947648Y-40469500D01*
X102938607Y-40470932D01*
X102745465Y-40501522D01*
X102550776Y-40564781D01*
X102368386Y-40657715D01*
X102202786Y-40778028D01*
X102058028Y-40922786D01*
X101937715Y-41088386D01*
X101844781Y-41270776D01*
X101781522Y-41465465D01*
X101749500Y-41667648D01*
X98190500Y-41667648D01*
X98190500Y-41561207D01*
X98186097Y-41516501D01*
X98185500Y-41504348D01*
X98185500Y-40983386D01*
X98184152Y-40968553D01*
X98179086Y-40912804D01*
X98128478Y-40750394D01*
X98040472Y-40604815D01*
X98040470Y-40604813D01*
X98040469Y-40604811D01*
X97920188Y-40484530D01*
X97899176Y-40471828D01*
X97774606Y-40396522D01*
X97612196Y-40345914D01*
X97612194Y-40345913D01*
X97612192Y-40345913D01*
X97562778Y-40341423D01*
X97541616Y-40339500D01*
X97541613Y-40339500D01*
X97020650Y-40339500D01*
X97008497Y-40338903D01*
X96963793Y-40334500D01*
X94645218Y-40334500D01*
X94645216Y-40334500D01*
X94591185Y-40337395D01*
X94591181Y-40337396D01*
X94451778Y-40372976D01*
X94451766Y-40372980D01*
X94378280Y-40403419D01*
X94378252Y-40403431D01*
X94329451Y-40426779D01*
X94329446Y-40426782D01*
X94214268Y-40513005D01*
X94214256Y-40513015D01*
X94158019Y-40569252D01*
X94121843Y-40609524D01*
X94121837Y-40609532D01*
X94048426Y-40733263D01*
X94017978Y-40806774D01*
X94017970Y-40806795D01*
X93999976Y-40857800D01*
X93979500Y-41000219D01*
X93979500Y-42279784D01*
X93982395Y-42333814D01*
X93982396Y-42333818D01*
X94017976Y-42473221D01*
X94017980Y-42473233D01*
X94048419Y-42546719D01*
X94048431Y-42546747D01*
X94071779Y-42595548D01*
X94071782Y-42595553D01*
X94114893Y-42653142D01*
X94158006Y-42710733D01*
X94158010Y-42710737D01*
X94158015Y-42710743D01*
X94214252Y-42766980D01*
X94214261Y-42766988D01*
X94214267Y-42766994D01*
X94245970Y-42795472D01*
X94254524Y-42803156D01*
X94254532Y-42803162D01*
X94378263Y-42876573D01*
X94378262Y-42876573D01*
X94392050Y-42882284D01*
X94451774Y-42907022D01*
X94479662Y-42916860D01*
X94536332Y-42957725D01*
X94561913Y-43022743D01*
X94548283Y-43091271D01*
X94509531Y-43135371D01*
X94445856Y-43179956D01*
X94284954Y-43340858D01*
X94154432Y-43527265D01*
X94154431Y-43527267D01*
X94058261Y-43733502D01*
X94058258Y-43733511D01*
X93999366Y-43953302D01*
X93999364Y-43953312D01*
X93984500Y-44123214D01*
X93984500Y-44236785D01*
X93999364Y-44406687D01*
X93999366Y-44406697D01*
X94058258Y-44626488D01*
X94058261Y-44626497D01*
X94154431Y-44832732D01*
X94154432Y-44832734D01*
X94284954Y-45019141D01*
X94326632Y-45060819D01*
X94360117Y-45122142D01*
X94355133Y-45191834D01*
X94313261Y-45247767D01*
X94247797Y-45272184D01*
X94238951Y-45272500D01*
X92992792Y-45272500D01*
X92925753Y-45252815D01*
X92879998Y-45200011D01*
X92870054Y-45130853D01*
X92882308Y-45092204D01*
X92890565Y-45075998D01*
X92890566Y-45075996D01*
X92890568Y-45075992D01*
X92963553Y-44851368D01*
X92979269Y-44752142D01*
X93000500Y-44618097D01*
X93000500Y-44381902D01*
X92963553Y-44148631D01*
X92902859Y-43961836D01*
X92890568Y-43924008D01*
X92890566Y-43924005D01*
X92890566Y-43924003D01*
X92803341Y-43752815D01*
X92783343Y-43713567D01*
X92644517Y-43522490D01*
X92477510Y-43355483D01*
X92286433Y-43216657D01*
X92075996Y-43109433D01*
X91851368Y-43036446D01*
X91618097Y-42999500D01*
X91618092Y-42999500D01*
X91381908Y-42999500D01*
X91381903Y-42999500D01*
X91148631Y-43036446D01*
X90924003Y-43109433D01*
X90713566Y-43216657D01*
X90604550Y-43295862D01*
X90522490Y-43355483D01*
X90522488Y-43355485D01*
X90522487Y-43355485D01*
X90355485Y-43522487D01*
X90355485Y-43522488D01*
X90355483Y-43522490D01*
X90316076Y-43576729D01*
X90216657Y-43713566D01*
X90109433Y-43924003D01*
X90036446Y-44148631D01*
X89999500Y-44381902D01*
X89999500Y-44618097D01*
X90036446Y-44851368D01*
X90109433Y-45075996D01*
X90216659Y-45286437D01*
X90240746Y-45319590D01*
X90264226Y-45385397D01*
X90248400Y-45453450D01*
X90228109Y-45480156D01*
X89490086Y-46218181D01*
X89428763Y-46251666D01*
X89402405Y-46254500D01*
X88084298Y-46254500D01*
X88047432Y-46257401D01*
X88047426Y-46257402D01*
X87889606Y-46303254D01*
X87889603Y-46303255D01*
X87748137Y-46386917D01*
X87748129Y-46386923D01*
X87631923Y-46503129D01*
X87631917Y-46503137D01*
X87548255Y-46644603D01*
X87548254Y-46644606D01*
X87502402Y-46802426D01*
X87502401Y-46802432D01*
X87499500Y-46839298D01*
X87499500Y-47127404D01*
X87490855Y-47156844D01*
X87484332Y-47186831D01*
X87480577Y-47191846D01*
X87479815Y-47194443D01*
X87463181Y-47215086D01*
X87343762Y-47334504D01*
X87282439Y-47367988D01*
X87212747Y-47363004D01*
X87208629Y-47361383D01*
X87133501Y-47330264D01*
X87133489Y-47330261D01*
X86978845Y-47299500D01*
X86978842Y-47299500D01*
X86821158Y-47299500D01*
X86821155Y-47299500D01*
X86666510Y-47330261D01*
X86666498Y-47330264D01*
X86520827Y-47390602D01*
X86520814Y-47390609D01*
X86389711Y-47478210D01*
X86389707Y-47478213D01*
X86278213Y-47589707D01*
X86278210Y-47589711D01*
X86190609Y-47720814D01*
X86190602Y-47720827D01*
X86130264Y-47866498D01*
X86130261Y-47866510D01*
X86099500Y-48021153D01*
X86099500Y-48178846D01*
X86130261Y-48333489D01*
X86130264Y-48333501D01*
X86190602Y-48479172D01*
X86190609Y-48479185D01*
X86254370Y-48574609D01*
X86275248Y-48641286D01*
X86256764Y-48708667D01*
X86204785Y-48755357D01*
X86151268Y-48767500D01*
X85607570Y-48767500D01*
X85540531Y-48747815D01*
X85494776Y-48695011D01*
X85484832Y-48625853D01*
X85488494Y-48608904D01*
X85488968Y-48607272D01*
X85497598Y-48577569D01*
X85500500Y-48540694D01*
X85500500Y-48109306D01*
X85497598Y-48072431D01*
X85495800Y-48066244D01*
X85451745Y-47914606D01*
X85451744Y-47914603D01*
X85451744Y-47914602D01*
X85368081Y-47773135D01*
X85368078Y-47773132D01*
X85363298Y-47766969D01*
X85365750Y-47765066D01*
X85339155Y-47716421D01*
X85344104Y-47646726D01*
X85364940Y-47614304D01*
X85363298Y-47613031D01*
X85368075Y-47606870D01*
X85368081Y-47606865D01*
X85451744Y-47465398D01*
X85489773Y-47334504D01*
X85497597Y-47307573D01*
X85497598Y-47307567D01*
X85500500Y-47270694D01*
X85500500Y-46839306D01*
X85497598Y-46802431D01*
X85482220Y-46749501D01*
X85451745Y-46644606D01*
X85451744Y-46644603D01*
X85451744Y-46644602D01*
X85368081Y-46503135D01*
X85368079Y-46503133D01*
X85368076Y-46503129D01*
X85251870Y-46386923D01*
X85251862Y-46386917D01*
X85110396Y-46303255D01*
X85110393Y-46303254D01*
X84952573Y-46257402D01*
X84952567Y-46257401D01*
X84915701Y-46254500D01*
X84915694Y-46254500D01*
X84115936Y-46254500D01*
X84048897Y-46234815D01*
X84003142Y-46182011D01*
X83993198Y-46112853D01*
X84022223Y-46049297D01*
X84050840Y-46024961D01*
X84143656Y-45967712D01*
X84267712Y-45843656D01*
X84359814Y-45694334D01*
X84414999Y-45527797D01*
X84425500Y-45425009D01*
X84425499Y-44374992D01*
X84424780Y-44367958D01*
X84414999Y-44272203D01*
X84414998Y-44272200D01*
X84406709Y-44247185D01*
X84359814Y-44105666D01*
X84267712Y-43956344D01*
X84143656Y-43832288D01*
X83994334Y-43740186D01*
X83827797Y-43685001D01*
X83827795Y-43685000D01*
X83725016Y-43674500D01*
X83725009Y-43674500D01*
X83447595Y-43674500D01*
X83380556Y-43654815D01*
X83359914Y-43638181D01*
X82828870Y-43107136D01*
X82828865Y-43107134D01*
X82745253Y-43072500D01*
X80345253Y-43072500D01*
X80254747Y-43072500D01*
X80254745Y-43072500D01*
X80254743Y-43072501D01*
X80171134Y-43107131D01*
X80171132Y-43107133D01*
X78445537Y-44832730D01*
X77971132Y-45307135D01*
X77907135Y-45371132D01*
X77890137Y-45412168D01*
X77873041Y-45453442D01*
X77872500Y-45454747D01*
X77500499Y-45454747D01*
X77500499Y-39124499D01*
X77520184Y-39057460D01*
X77572988Y-39011705D01*
X77624499Y-39000499D01*
X125375500Y-39000499D01*
X125442539Y-39020184D01*
G37*
%TD.AperFunction*%
%TD*%
M02*
