M48
; DRILL file KiCad 10.0.3 date 2026-05-30T01:03:25
; FORMAT={-:-/ absolute / metric / decimal}
; #@! TF.CreationDate,2026-05-30T01:03:25-07:00
; #@! TF.GenerationSoftware,Kicad,Pcbnew,10.0.3
; #@! TF.FileFunction,Plated,1,2,PTH
FMAT,2
METRIC
; #@! TA.AperFunction,Plated,PTH,ViaDrill
T1C0.300
; #@! TA.AperFunction,Plated,PTH,ComponentDrill
T2C1.000
%
G90
G05
T1
X67.0Y-32.0
X67.0Y-35.25
X67.5Y-52.0
X67.5Y-58.25
X68.0Y-66.75
X68.875Y-66.625
X69.25Y-28.25
X69.25Y-63.25
X69.25Y-83.25
X69.5Y-35.25
X69.5Y-43.25
X69.75Y-48.249
X73.0Y-38.75
X73.75Y-73.5
X73.94Y-57.19
X74.25Y-28.25
X74.25Y-43.25
X74.25Y-48.25
X74.25Y-52.5
X74.25Y-78.25
X74.25Y-83.25
X74.5Y-72.75
X74.824Y-58.074
X75.248Y-64.25
X76.0Y-63.5
X76.487Y-52.75
X79.0Y-52.75
X79.247Y-49.248
X79.25Y-28.25
X79.25Y-33.25
X79.25Y-58.25
X79.25Y-63.25
X79.25Y-68.25
X79.25Y-73.25
X79.25Y-78.25
X79.25Y-83.25
X80.0Y-38.25
X80.0Y-43.25
X80.0Y-52.898
X84.25Y-28.25
X84.25Y-83.25
X89.25Y-28.25
X89.25Y-38.25
X89.25Y-43.25
X89.25Y-48.25
X89.25Y-53.25
X89.25Y-58.25
X89.25Y-63.25
X89.25Y-68.25
X89.25Y-73.25
X89.25Y-78.25
X89.25Y-83.25
X94.25Y-28.25
X94.25Y-33.25
X94.25Y-38.25
X94.25Y-43.25
X94.25Y-48.25
X94.25Y-53.25
X94.25Y-58.25
X94.25Y-63.25
X94.25Y-68.25
X94.25Y-73.25
X94.25Y-78.25
X94.25Y-83.25
X99.25Y-28.25
X99.25Y-38.25
X99.25Y-43.25
X99.25Y-48.25
X99.25Y-53.25
X99.25Y-58.25
X99.25Y-63.25
X99.25Y-68.25
X99.25Y-73.25
X99.25Y-78.25
X99.25Y-83.25
X104.25Y-28.25
X104.25Y-33.25
X104.25Y-38.25
X104.25Y-44.5
X104.25Y-48.25
X104.25Y-53.25
X104.25Y-58.25
X104.25Y-63.25
X104.25Y-68.0
X104.25Y-72.5
X104.25Y-78.25
X104.25Y-83.25
X109.25Y-28.25
X109.25Y-38.25
X109.25Y-48.25
X109.25Y-53.25
X109.25Y-58.25
X109.25Y-63.25
X109.25Y-72.5
X109.25Y-78.25
X109.25Y-83.25
X114.25Y-33.25
X114.25Y-53.25
X114.25Y-63.25
X114.25Y-68.25
X114.25Y-73.25
X114.25Y-78.25
T2
X69.235Y-68.17
X69.235Y-70.71
X69.235Y-73.25
X69.235Y-75.79
X69.235Y-78.33
X69.275Y-51.695
X69.275Y-54.235
X69.275Y-56.775
X69.275Y-59.315
X69.275Y-61.855
X71.775Y-68.17
X71.775Y-70.71
X71.775Y-73.25
X71.775Y-75.79
X71.775Y-78.33
X71.815Y-51.695
X71.815Y-54.235
X71.815Y-56.775
X71.815Y-59.315
X71.815Y-61.855
X84.5Y-33.34
X84.5Y-35.88
X84.5Y-38.42
X84.5Y-40.96
X84.5Y-43.5
X84.5Y-46.04
X84.5Y-48.58
X84.5Y-51.12
X84.5Y-53.66
X84.5Y-56.2
X84.5Y-58.74
X84.5Y-61.28
X84.5Y-63.82
X84.5Y-66.36
X84.5Y-68.9
X84.5Y-71.44
X84.5Y-73.98
X84.5Y-76.52
X84.5Y-79.06
X84.5Y-81.6
X102.618Y-33.133
X102.618Y-35.673
X102.618Y-38.213
X102.618Y-40.753
X102.618Y-43.293
X102.618Y-45.833
X102.618Y-48.373
X102.618Y-50.913
X102.618Y-53.453
X102.618Y-55.993
X102.618Y-58.533
X102.618Y-61.073
X102.618Y-63.613
X102.618Y-66.153
X102.618Y-68.693
X102.618Y-71.233
X102.618Y-73.773
X102.618Y-76.313
X102.618Y-78.853
X102.618Y-81.393
X110.225Y-66.19
X110.225Y-68.73
X110.225Y-71.27
X110.225Y-73.81
X111.96Y-39.75
X112.765Y-66.19
X112.765Y-68.73
X112.765Y-71.27
X112.765Y-73.81
X114.5Y-39.75
X114.5Y-55.725
X114.5Y-58.265
M30
