%TF.GenerationSoftware,KiCad,Pcbnew,10.0.3*%
%TF.CreationDate,2026-05-27T18:24:21-07:00*%
%TF.ProjectId,Encoder Board,456e636f-6465-4722-9042-6f6172642e6b,rev?*%
%TF.SameCoordinates,Original*%
%TF.FileFunction,Legend,Top*%
%TF.FilePolarity,Positive*%
%FSLAX46Y46*%
G04 Gerber Fmt 4.6, Leading zero omitted, Abs format (unit mm)*
G04 Created by KiCad (PCBNEW 10.0.3) date 2026-05-27 18:24:21*
%MOMM*%
%LPD*%
G01*
G04 APERTURE LIST*
%ADD10C,0.150000*%
%ADD11C,0.120000*%
G04 APERTURE END LIST*
D10*
X117811660Y-90704104D02*
X118287850Y-90704104D01*
X117716422Y-90989819D02*
X118049755Y-89989819D01*
X118049755Y-89989819D02*
X118383088Y-90989819D01*
X119240231Y-90989819D02*
X118668803Y-90989819D01*
X118954517Y-90989819D02*
X118954517Y-89989819D01*
X118954517Y-89989819D02*
X118859279Y-90132676D01*
X118859279Y-90132676D02*
X118764041Y-90227914D01*
X118764041Y-90227914D02*
X118668803Y-90275533D01*
X87380952Y-87002438D02*
X87285714Y-86954819D01*
X87285714Y-86954819D02*
X87142857Y-86954819D01*
X87142857Y-86954819D02*
X87000000Y-87002438D01*
X87000000Y-87002438D02*
X86904762Y-87097676D01*
X86904762Y-87097676D02*
X86857143Y-87192914D01*
X86857143Y-87192914D02*
X86809524Y-87383390D01*
X86809524Y-87383390D02*
X86809524Y-87526247D01*
X86809524Y-87526247D02*
X86857143Y-87716723D01*
X86857143Y-87716723D02*
X86904762Y-87811961D01*
X86904762Y-87811961D02*
X87000000Y-87907200D01*
X87000000Y-87907200D02*
X87142857Y-87954819D01*
X87142857Y-87954819D02*
X87238095Y-87954819D01*
X87238095Y-87954819D02*
X87380952Y-87907200D01*
X87380952Y-87907200D02*
X87428571Y-87859580D01*
X87428571Y-87859580D02*
X87428571Y-87526247D01*
X87428571Y-87526247D02*
X87238095Y-87526247D01*
X87857143Y-87954819D02*
X87857143Y-86954819D01*
X87857143Y-86954819D02*
X88428571Y-87954819D01*
X88428571Y-87954819D02*
X88428571Y-86954819D01*
X88904762Y-87954819D02*
X88904762Y-86954819D01*
X88904762Y-86954819D02*
X89142857Y-86954819D01*
X89142857Y-86954819D02*
X89285714Y-87002438D01*
X89285714Y-87002438D02*
X89380952Y-87097676D01*
X89380952Y-87097676D02*
X89428571Y-87192914D01*
X89428571Y-87192914D02*
X89476190Y-87383390D01*
X89476190Y-87383390D02*
X89476190Y-87526247D01*
X89476190Y-87526247D02*
X89428571Y-87716723D01*
X89428571Y-87716723D02*
X89380952Y-87811961D01*
X89380952Y-87811961D02*
X89285714Y-87907200D01*
X89285714Y-87907200D02*
X89142857Y-87954819D01*
X89142857Y-87954819D02*
X88904762Y-87954819D01*
X89666667Y-88050057D02*
X90428571Y-88050057D01*
X91190476Y-87954819D02*
X90619048Y-87954819D01*
X90904762Y-87954819D02*
X90904762Y-86954819D01*
X90904762Y-86954819D02*
X90809524Y-87097676D01*
X90809524Y-87097676D02*
X90714286Y-87192914D01*
X90714286Y-87192914D02*
X90619048Y-87240533D01*
X119380952Y-56073866D02*
X120142857Y-56073866D01*
X119761904Y-56454819D02*
X119761904Y-55692914D01*
X121095237Y-55454819D02*
X120619047Y-55454819D01*
X120619047Y-55454819D02*
X120571428Y-55931009D01*
X120571428Y-55931009D02*
X120619047Y-55883390D01*
X120619047Y-55883390D02*
X120714285Y-55835771D01*
X120714285Y-55835771D02*
X120952380Y-55835771D01*
X120952380Y-55835771D02*
X121047618Y-55883390D01*
X121047618Y-55883390D02*
X121095237Y-55931009D01*
X121095237Y-55931009D02*
X121142856Y-56026247D01*
X121142856Y-56026247D02*
X121142856Y-56264342D01*
X121142856Y-56264342D02*
X121095237Y-56359580D01*
X121095237Y-56359580D02*
X121047618Y-56407200D01*
X121047618Y-56407200D02*
X120952380Y-56454819D01*
X120952380Y-56454819D02*
X120714285Y-56454819D01*
X120714285Y-56454819D02*
X120619047Y-56407200D01*
X120619047Y-56407200D02*
X120571428Y-56359580D01*
X121428571Y-55454819D02*
X121761904Y-56454819D01*
X121761904Y-56454819D02*
X122095237Y-55454819D01*
X122190476Y-56550057D02*
X122952380Y-56550057D01*
X123142857Y-56407200D02*
X123285714Y-56454819D01*
X123285714Y-56454819D02*
X123523809Y-56454819D01*
X123523809Y-56454819D02*
X123619047Y-56407200D01*
X123619047Y-56407200D02*
X123666666Y-56359580D01*
X123666666Y-56359580D02*
X123714285Y-56264342D01*
X123714285Y-56264342D02*
X123714285Y-56169104D01*
X123714285Y-56169104D02*
X123666666Y-56073866D01*
X123666666Y-56073866D02*
X123619047Y-56026247D01*
X123619047Y-56026247D02*
X123523809Y-55978628D01*
X123523809Y-55978628D02*
X123333333Y-55931009D01*
X123333333Y-55931009D02*
X123238095Y-55883390D01*
X123238095Y-55883390D02*
X123190476Y-55835771D01*
X123190476Y-55835771D02*
X123142857Y-55740533D01*
X123142857Y-55740533D02*
X123142857Y-55645295D01*
X123142857Y-55645295D02*
X123190476Y-55550057D01*
X123190476Y-55550057D02*
X123238095Y-55502438D01*
X123238095Y-55502438D02*
X123333333Y-55454819D01*
X123333333Y-55454819D02*
X123571428Y-55454819D01*
X123571428Y-55454819D02*
X123714285Y-55502438D01*
X124666666Y-56454819D02*
X124095238Y-56454819D01*
X124380952Y-56454819D02*
X124380952Y-55454819D01*
X124380952Y-55454819D02*
X124285714Y-55597676D01*
X124285714Y-55597676D02*
X124190476Y-55692914D01*
X124190476Y-55692914D02*
X124095238Y-55740533D01*
X87880952Y-42073866D02*
X88642857Y-42073866D01*
X88261904Y-42454819D02*
X88261904Y-41692914D01*
X89023809Y-41454819D02*
X89642856Y-41454819D01*
X89642856Y-41454819D02*
X89309523Y-41835771D01*
X89309523Y-41835771D02*
X89452380Y-41835771D01*
X89452380Y-41835771D02*
X89547618Y-41883390D01*
X89547618Y-41883390D02*
X89595237Y-41931009D01*
X89595237Y-41931009D02*
X89642856Y-42026247D01*
X89642856Y-42026247D02*
X89642856Y-42264342D01*
X89642856Y-42264342D02*
X89595237Y-42359580D01*
X89595237Y-42359580D02*
X89547618Y-42407200D01*
X89547618Y-42407200D02*
X89452380Y-42454819D01*
X89452380Y-42454819D02*
X89166666Y-42454819D01*
X89166666Y-42454819D02*
X89071428Y-42407200D01*
X89071428Y-42407200D02*
X89023809Y-42359580D01*
X89928571Y-41454819D02*
X90261904Y-42454819D01*
X90261904Y-42454819D02*
X90595237Y-41454819D01*
X90833333Y-41454819D02*
X91452380Y-41454819D01*
X91452380Y-41454819D02*
X91119047Y-41835771D01*
X91119047Y-41835771D02*
X91261904Y-41835771D01*
X91261904Y-41835771D02*
X91357142Y-41883390D01*
X91357142Y-41883390D02*
X91404761Y-41931009D01*
X91404761Y-41931009D02*
X91452380Y-42026247D01*
X91452380Y-42026247D02*
X91452380Y-42264342D01*
X91452380Y-42264342D02*
X91404761Y-42359580D01*
X91404761Y-42359580D02*
X91357142Y-42407200D01*
X91357142Y-42407200D02*
X91261904Y-42454819D01*
X91261904Y-42454819D02*
X90976190Y-42454819D01*
X90976190Y-42454819D02*
X90880952Y-42407200D01*
X90880952Y-42407200D02*
X90833333Y-42359580D01*
X91642857Y-42550057D02*
X92404761Y-42550057D01*
X93166666Y-42454819D02*
X92595238Y-42454819D01*
X92880952Y-42454819D02*
X92880952Y-41454819D01*
X92880952Y-41454819D02*
X92785714Y-41597676D01*
X92785714Y-41597676D02*
X92690476Y-41692914D01*
X92690476Y-41692914D02*
X92595238Y-41740533D01*
X122166666Y-61954819D02*
X122166666Y-62669104D01*
X122166666Y-62669104D02*
X122119047Y-62811961D01*
X122119047Y-62811961D02*
X122023809Y-62907200D01*
X122023809Y-62907200D02*
X121880952Y-62954819D01*
X121880952Y-62954819D02*
X121785714Y-62954819D01*
X123071428Y-62288152D02*
X123071428Y-62954819D01*
X122833333Y-61907200D02*
X122595238Y-62621485D01*
X122595238Y-62621485D02*
X123214285Y-62621485D01*
X119761905Y-41454819D02*
X119761905Y-40454819D01*
X119761905Y-40454819D02*
X120000000Y-40454819D01*
X120000000Y-40454819D02*
X120142857Y-40502438D01*
X120142857Y-40502438D02*
X120238095Y-40597676D01*
X120238095Y-40597676D02*
X120285714Y-40692914D01*
X120285714Y-40692914D02*
X120333333Y-40883390D01*
X120333333Y-40883390D02*
X120333333Y-41026247D01*
X120333333Y-41026247D02*
X120285714Y-41216723D01*
X120285714Y-41216723D02*
X120238095Y-41311961D01*
X120238095Y-41311961D02*
X120142857Y-41407200D01*
X120142857Y-41407200D02*
X120000000Y-41454819D01*
X120000000Y-41454819D02*
X119761905Y-41454819D01*
X121285714Y-41454819D02*
X120714286Y-41454819D01*
X121000000Y-41454819D02*
X121000000Y-40454819D01*
X121000000Y-40454819D02*
X120904762Y-40597676D01*
X120904762Y-40597676D02*
X120809524Y-40692914D01*
X120809524Y-40692914D02*
X120714286Y-40740533D01*
X79133333Y-56659580D02*
X79085714Y-56707200D01*
X79085714Y-56707200D02*
X78942857Y-56754819D01*
X78942857Y-56754819D02*
X78847619Y-56754819D01*
X78847619Y-56754819D02*
X78704762Y-56707200D01*
X78704762Y-56707200D02*
X78609524Y-56611961D01*
X78609524Y-56611961D02*
X78561905Y-56516723D01*
X78561905Y-56516723D02*
X78514286Y-56326247D01*
X78514286Y-56326247D02*
X78514286Y-56183390D01*
X78514286Y-56183390D02*
X78561905Y-55992914D01*
X78561905Y-55992914D02*
X78609524Y-55897676D01*
X78609524Y-55897676D02*
X78704762Y-55802438D01*
X78704762Y-55802438D02*
X78847619Y-55754819D01*
X78847619Y-55754819D02*
X78942857Y-55754819D01*
X78942857Y-55754819D02*
X79085714Y-55802438D01*
X79085714Y-55802438D02*
X79133333Y-55850057D01*
X79990476Y-56088152D02*
X79990476Y-56754819D01*
X79752381Y-55707200D02*
X79514286Y-56421485D01*
X79514286Y-56421485D02*
X80133333Y-56421485D01*
X82133333Y-43659580D02*
X82085714Y-43707200D01*
X82085714Y-43707200D02*
X81942857Y-43754819D01*
X81942857Y-43754819D02*
X81847619Y-43754819D01*
X81847619Y-43754819D02*
X81704762Y-43707200D01*
X81704762Y-43707200D02*
X81609524Y-43611961D01*
X81609524Y-43611961D02*
X81561905Y-43516723D01*
X81561905Y-43516723D02*
X81514286Y-43326247D01*
X81514286Y-43326247D02*
X81514286Y-43183390D01*
X81514286Y-43183390D02*
X81561905Y-42992914D01*
X81561905Y-42992914D02*
X81609524Y-42897676D01*
X81609524Y-42897676D02*
X81704762Y-42802438D01*
X81704762Y-42802438D02*
X81847619Y-42754819D01*
X81847619Y-42754819D02*
X81942857Y-42754819D01*
X81942857Y-42754819D02*
X82085714Y-42802438D01*
X82085714Y-42802438D02*
X82133333Y-42850057D01*
X82466667Y-42754819D02*
X83085714Y-42754819D01*
X83085714Y-42754819D02*
X82752381Y-43135771D01*
X82752381Y-43135771D02*
X82895238Y-43135771D01*
X82895238Y-43135771D02*
X82990476Y-43183390D01*
X82990476Y-43183390D02*
X83038095Y-43231009D01*
X83038095Y-43231009D02*
X83085714Y-43326247D01*
X83085714Y-43326247D02*
X83085714Y-43564342D01*
X83085714Y-43564342D02*
X83038095Y-43659580D01*
X83038095Y-43659580D02*
X82990476Y-43707200D01*
X82990476Y-43707200D02*
X82895238Y-43754819D01*
X82895238Y-43754819D02*
X82609524Y-43754819D01*
X82609524Y-43754819D02*
X82514286Y-43707200D01*
X82514286Y-43707200D02*
X82466667Y-43659580D01*
X122166666Y-86074819D02*
X122166666Y-86789104D01*
X122166666Y-86789104D02*
X122119047Y-86931961D01*
X122119047Y-86931961D02*
X122023809Y-87027200D01*
X122023809Y-87027200D02*
X121880952Y-87074819D01*
X121880952Y-87074819D02*
X121785714Y-87074819D01*
X122547619Y-86074819D02*
X123166666Y-86074819D01*
X123166666Y-86074819D02*
X122833333Y-86455771D01*
X122833333Y-86455771D02*
X122976190Y-86455771D01*
X122976190Y-86455771D02*
X123071428Y-86503390D01*
X123071428Y-86503390D02*
X123119047Y-86551009D01*
X123119047Y-86551009D02*
X123166666Y-86646247D01*
X123166666Y-86646247D02*
X123166666Y-86884342D01*
X123166666Y-86884342D02*
X123119047Y-86979580D01*
X123119047Y-86979580D02*
X123071428Y-87027200D01*
X123071428Y-87027200D02*
X122976190Y-87074819D01*
X122976190Y-87074819D02*
X122690476Y-87074819D01*
X122690476Y-87074819D02*
X122595238Y-87027200D01*
X122595238Y-87027200D02*
X122547619Y-86979580D01*
X79133333Y-52754819D02*
X78800000Y-52278628D01*
X78561905Y-52754819D02*
X78561905Y-51754819D01*
X78561905Y-51754819D02*
X78942857Y-51754819D01*
X78942857Y-51754819D02*
X79038095Y-51802438D01*
X79038095Y-51802438D02*
X79085714Y-51850057D01*
X79085714Y-51850057D02*
X79133333Y-51945295D01*
X79133333Y-51945295D02*
X79133333Y-52088152D01*
X79133333Y-52088152D02*
X79085714Y-52183390D01*
X79085714Y-52183390D02*
X79038095Y-52231009D01*
X79038095Y-52231009D02*
X78942857Y-52278628D01*
X78942857Y-52278628D02*
X78561905Y-52278628D01*
X79514286Y-51850057D02*
X79561905Y-51802438D01*
X79561905Y-51802438D02*
X79657143Y-51754819D01*
X79657143Y-51754819D02*
X79895238Y-51754819D01*
X79895238Y-51754819D02*
X79990476Y-51802438D01*
X79990476Y-51802438D02*
X80038095Y-51850057D01*
X80038095Y-51850057D02*
X80085714Y-51945295D01*
X80085714Y-51945295D02*
X80085714Y-52040533D01*
X80085714Y-52040533D02*
X80038095Y-52183390D01*
X80038095Y-52183390D02*
X79466667Y-52754819D01*
X79466667Y-52754819D02*
X80085714Y-52754819D01*
X85738095Y-45054819D02*
X85738095Y-45864342D01*
X85738095Y-45864342D02*
X85785714Y-45959580D01*
X85785714Y-45959580D02*
X85833333Y-46007200D01*
X85833333Y-46007200D02*
X85928571Y-46054819D01*
X85928571Y-46054819D02*
X86119047Y-46054819D01*
X86119047Y-46054819D02*
X86214285Y-46007200D01*
X86214285Y-46007200D02*
X86261904Y-45959580D01*
X86261904Y-45959580D02*
X86309523Y-45864342D01*
X86309523Y-45864342D02*
X86309523Y-45054819D01*
X87309523Y-46054819D02*
X86738095Y-46054819D01*
X87023809Y-46054819D02*
X87023809Y-45054819D01*
X87023809Y-45054819D02*
X86928571Y-45197676D01*
X86928571Y-45197676D02*
X86833333Y-45292914D01*
X86833333Y-45292914D02*
X86738095Y-45340533D01*
X79133333Y-48354819D02*
X78800000Y-47878628D01*
X78561905Y-48354819D02*
X78561905Y-47354819D01*
X78561905Y-47354819D02*
X78942857Y-47354819D01*
X78942857Y-47354819D02*
X79038095Y-47402438D01*
X79038095Y-47402438D02*
X79085714Y-47450057D01*
X79085714Y-47450057D02*
X79133333Y-47545295D01*
X79133333Y-47545295D02*
X79133333Y-47688152D01*
X79133333Y-47688152D02*
X79085714Y-47783390D01*
X79085714Y-47783390D02*
X79038095Y-47831009D01*
X79038095Y-47831009D02*
X78942857Y-47878628D01*
X78942857Y-47878628D02*
X78561905Y-47878628D01*
X80085714Y-48354819D02*
X79514286Y-48354819D01*
X79800000Y-48354819D02*
X79800000Y-47354819D01*
X79800000Y-47354819D02*
X79704762Y-47497676D01*
X79704762Y-47497676D02*
X79609524Y-47592914D01*
X79609524Y-47592914D02*
X79514286Y-47640533D01*
X121671666Y-79914819D02*
X121671666Y-80629104D01*
X121671666Y-80629104D02*
X121624047Y-80771961D01*
X121624047Y-80771961D02*
X121528809Y-80867200D01*
X121528809Y-80867200D02*
X121385952Y-80914819D01*
X121385952Y-80914819D02*
X121290714Y-80914819D01*
X122100238Y-80010057D02*
X122147857Y-79962438D01*
X122147857Y-79962438D02*
X122243095Y-79914819D01*
X122243095Y-79914819D02*
X122481190Y-79914819D01*
X122481190Y-79914819D02*
X122576428Y-79962438D01*
X122576428Y-79962438D02*
X122624047Y-80010057D01*
X122624047Y-80010057D02*
X122671666Y-80105295D01*
X122671666Y-80105295D02*
X122671666Y-80200533D01*
X122671666Y-80200533D02*
X122624047Y-80343390D01*
X122624047Y-80343390D02*
X122052619Y-80914819D01*
X122052619Y-80914819D02*
X122671666Y-80914819D01*
X91333333Y-51859580D02*
X91285714Y-51907200D01*
X91285714Y-51907200D02*
X91142857Y-51954819D01*
X91142857Y-51954819D02*
X91047619Y-51954819D01*
X91047619Y-51954819D02*
X90904762Y-51907200D01*
X90904762Y-51907200D02*
X90809524Y-51811961D01*
X90809524Y-51811961D02*
X90761905Y-51716723D01*
X90761905Y-51716723D02*
X90714286Y-51526247D01*
X90714286Y-51526247D02*
X90714286Y-51383390D01*
X90714286Y-51383390D02*
X90761905Y-51192914D01*
X90761905Y-51192914D02*
X90809524Y-51097676D01*
X90809524Y-51097676D02*
X90904762Y-51002438D01*
X90904762Y-51002438D02*
X91047619Y-50954819D01*
X91047619Y-50954819D02*
X91142857Y-50954819D01*
X91142857Y-50954819D02*
X91285714Y-51002438D01*
X91285714Y-51002438D02*
X91333333Y-51050057D01*
X92285714Y-51954819D02*
X91714286Y-51954819D01*
X92000000Y-51954819D02*
X92000000Y-50954819D01*
X92000000Y-50954819D02*
X91904762Y-51097676D01*
X91904762Y-51097676D02*
X91809524Y-51192914D01*
X91809524Y-51192914D02*
X91714286Y-51240533D01*
X90333333Y-60659580D02*
X90285714Y-60707200D01*
X90285714Y-60707200D02*
X90142857Y-60754819D01*
X90142857Y-60754819D02*
X90047619Y-60754819D01*
X90047619Y-60754819D02*
X89904762Y-60707200D01*
X89904762Y-60707200D02*
X89809524Y-60611961D01*
X89809524Y-60611961D02*
X89761905Y-60516723D01*
X89761905Y-60516723D02*
X89714286Y-60326247D01*
X89714286Y-60326247D02*
X89714286Y-60183390D01*
X89714286Y-60183390D02*
X89761905Y-59992914D01*
X89761905Y-59992914D02*
X89809524Y-59897676D01*
X89809524Y-59897676D02*
X89904762Y-59802438D01*
X89904762Y-59802438D02*
X90047619Y-59754819D01*
X90047619Y-59754819D02*
X90142857Y-59754819D01*
X90142857Y-59754819D02*
X90285714Y-59802438D01*
X90285714Y-59802438D02*
X90333333Y-59850057D01*
X91238095Y-59754819D02*
X90761905Y-59754819D01*
X90761905Y-59754819D02*
X90714286Y-60231009D01*
X90714286Y-60231009D02*
X90761905Y-60183390D01*
X90761905Y-60183390D02*
X90857143Y-60135771D01*
X90857143Y-60135771D02*
X91095238Y-60135771D01*
X91095238Y-60135771D02*
X91190476Y-60183390D01*
X91190476Y-60183390D02*
X91238095Y-60231009D01*
X91238095Y-60231009D02*
X91285714Y-60326247D01*
X91285714Y-60326247D02*
X91285714Y-60564342D01*
X91285714Y-60564342D02*
X91238095Y-60659580D01*
X91238095Y-60659580D02*
X91190476Y-60707200D01*
X91190476Y-60707200D02*
X91095238Y-60754819D01*
X91095238Y-60754819D02*
X90857143Y-60754819D01*
X90857143Y-60754819D02*
X90761905Y-60707200D01*
X90761905Y-60707200D02*
X90714286Y-60659580D01*
X93333333Y-55954819D02*
X93000000Y-55478628D01*
X92761905Y-55954819D02*
X92761905Y-54954819D01*
X92761905Y-54954819D02*
X93142857Y-54954819D01*
X93142857Y-54954819D02*
X93238095Y-55002438D01*
X93238095Y-55002438D02*
X93285714Y-55050057D01*
X93285714Y-55050057D02*
X93333333Y-55145295D01*
X93333333Y-55145295D02*
X93333333Y-55288152D01*
X93333333Y-55288152D02*
X93285714Y-55383390D01*
X93285714Y-55383390D02*
X93238095Y-55431009D01*
X93238095Y-55431009D02*
X93142857Y-55478628D01*
X93142857Y-55478628D02*
X92761905Y-55478628D01*
X93666667Y-54954819D02*
X94285714Y-54954819D01*
X94285714Y-54954819D02*
X93952381Y-55335771D01*
X93952381Y-55335771D02*
X94095238Y-55335771D01*
X94095238Y-55335771D02*
X94190476Y-55383390D01*
X94190476Y-55383390D02*
X94238095Y-55431009D01*
X94238095Y-55431009D02*
X94285714Y-55526247D01*
X94285714Y-55526247D02*
X94285714Y-55764342D01*
X94285714Y-55764342D02*
X94238095Y-55859580D01*
X94238095Y-55859580D02*
X94190476Y-55907200D01*
X94190476Y-55907200D02*
X94095238Y-55954819D01*
X94095238Y-55954819D02*
X93809524Y-55954819D01*
X93809524Y-55954819D02*
X93714286Y-55907200D01*
X93714286Y-55907200D02*
X93666667Y-55859580D01*
X80896666Y-79954819D02*
X80896666Y-80669104D01*
X80896666Y-80669104D02*
X80849047Y-80811961D01*
X80849047Y-80811961D02*
X80753809Y-80907200D01*
X80753809Y-80907200D02*
X80610952Y-80954819D01*
X80610952Y-80954819D02*
X80515714Y-80954819D01*
X81896666Y-80954819D02*
X81325238Y-80954819D01*
X81610952Y-80954819D02*
X81610952Y-79954819D01*
X81610952Y-79954819D02*
X81515714Y-80097676D01*
X81515714Y-80097676D02*
X81420476Y-80192914D01*
X81420476Y-80192914D02*
X81325238Y-80240533D01*
%TO.C,A1*%
D11*
X95165000Y-42700000D02*
X94685000Y-42700000D01*
X95165000Y-42700000D02*
X95165000Y-43120000D01*
X95165000Y-45240000D02*
X95165000Y-45660000D01*
X95165000Y-47780000D02*
X95165000Y-48200000D01*
X95165000Y-50320000D02*
X95165000Y-50740000D01*
X95165000Y-52860000D02*
X95165000Y-53280000D01*
X95165000Y-55400000D02*
X95165000Y-55820000D01*
X95165000Y-57940000D02*
X95165000Y-58360000D01*
X95165000Y-60480000D02*
X95165000Y-60900000D01*
X95165000Y-63020000D02*
X95165000Y-63440000D01*
X95165000Y-65560000D02*
X95165000Y-65980000D01*
X95165000Y-68100000D02*
X95165000Y-68520000D01*
X95165000Y-70640000D02*
X95165000Y-71060000D01*
X95165000Y-73180000D02*
X95165000Y-73600000D01*
X95165000Y-75720000D02*
X95165000Y-76140000D01*
X95165000Y-78260000D02*
X95165000Y-78680000D01*
X95165000Y-80800000D02*
X95165000Y-81220000D01*
X95165000Y-83340000D02*
X95165000Y-83760000D01*
X95165000Y-85880000D02*
X95165000Y-86300000D01*
X95165000Y-88420000D02*
X95165000Y-88840000D01*
X95195324Y-40580000D02*
X94685000Y-40580000D01*
X95505000Y-40580063D02*
X95505000Y-40223000D01*
X95505000Y-42700000D02*
X95505000Y-43120000D01*
X95505000Y-45240000D02*
X95505000Y-45660000D01*
X95505000Y-47780000D02*
X95505000Y-48200000D01*
X95505000Y-50320000D02*
X95505000Y-50740000D01*
X95505000Y-52860000D02*
X95505000Y-53280000D01*
X95505000Y-55400000D02*
X95505000Y-55820000D01*
X95505000Y-57940000D02*
X95505000Y-58360000D01*
X95505000Y-60480000D02*
X95505000Y-60900000D01*
X95505000Y-63020000D02*
X95505000Y-63440000D01*
X95505000Y-65560000D02*
X95505000Y-65980000D01*
X95505000Y-68100000D02*
X95505000Y-68520000D01*
X95505000Y-70640000D02*
X95505000Y-71060000D01*
X95505000Y-73180000D02*
X95505000Y-73600000D01*
X95505000Y-75720000D02*
X95505000Y-76140000D01*
X95505000Y-78260000D02*
X95505000Y-78680000D01*
X95505000Y-80800000D02*
X95505000Y-81220000D01*
X95505000Y-83340000D02*
X95505000Y-83760000D01*
X95505000Y-85880000D02*
X95505000Y-86300000D01*
X95505000Y-88420000D02*
X95505000Y-88840000D01*
X95505000Y-90959937D02*
X95505000Y-91317000D01*
X95775000Y-40160000D02*
X98265000Y-40160000D01*
X95775000Y-91380000D02*
X99612939Y-91380000D01*
X98265000Y-40160000D02*
X98265000Y-41073520D01*
X98265000Y-40160000D02*
X99612940Y-40160000D01*
X98265000Y-43466480D02*
X98265000Y-88073520D01*
X98265000Y-90466480D02*
X98265000Y-91380000D01*
X100537061Y-40160000D02*
X101540000Y-40160000D01*
X101540000Y-40160000D02*
X110010000Y-40160000D01*
X101875000Y-40160000D02*
X101875000Y-41076000D01*
X101875000Y-43464000D02*
X101875000Y-44680000D01*
X101875000Y-44680000D02*
X102171090Y-44680000D01*
X102175000Y-91380000D02*
X100537061Y-91380000D01*
X104528910Y-44680000D02*
X107021090Y-44680000D01*
X109375000Y-91380000D02*
X102175000Y-91380000D01*
X109378910Y-44680000D02*
X109675000Y-44680000D01*
X109675000Y-40160000D02*
X109675000Y-41076000D01*
X109675000Y-43464000D02*
X109675000Y-44680000D01*
X110010000Y-40160000D02*
X111012939Y-40160000D01*
X111012939Y-91380000D02*
X109375000Y-91380000D01*
X111937061Y-40160000D02*
X113285000Y-40160000D01*
X111937061Y-91380000D02*
X115775000Y-91380000D01*
X113285000Y-40160000D02*
X113285000Y-41073520D01*
X113285000Y-43466480D02*
X113285000Y-88073520D01*
X113285000Y-90466480D02*
X113285000Y-91380000D01*
X115775000Y-40160000D02*
X113285000Y-40160000D01*
X116045000Y-40580063D02*
X116045000Y-40223000D01*
X116045000Y-42700000D02*
X116045000Y-43120000D01*
X116045000Y-45240000D02*
X116045000Y-45660000D01*
X116045000Y-47780000D02*
X116045000Y-48200000D01*
X116045000Y-50320000D02*
X116045000Y-50740000D01*
X116045000Y-52860000D02*
X116045000Y-53280000D01*
X116045000Y-55400000D02*
X116045000Y-55820000D01*
X116045000Y-57940000D02*
X116045000Y-58360000D01*
X116045000Y-60480000D02*
X116045000Y-60900000D01*
X116045000Y-63020000D02*
X116045000Y-63440000D01*
X116045000Y-65560000D02*
X116045000Y-65980000D01*
X116045000Y-68100000D02*
X116045000Y-68520000D01*
X116045000Y-70640000D02*
X116045000Y-71060000D01*
X116045000Y-73180000D02*
X116045000Y-73600000D01*
X116045000Y-75720000D02*
X116045000Y-76140000D01*
X116045000Y-78260000D02*
X116045000Y-78680000D01*
X116045000Y-80800000D02*
X116045000Y-81220000D01*
X116045000Y-83340000D02*
X116045000Y-83760000D01*
X116045000Y-85880000D02*
X116045000Y-86300000D01*
X116045000Y-88420000D02*
X116045000Y-88840000D01*
X116045000Y-90959937D02*
X116045000Y-91317000D01*
X116385000Y-42700000D02*
X116385000Y-43120000D01*
X116385000Y-45240000D02*
X116385000Y-45660000D01*
X116385000Y-47780000D02*
X116385000Y-48200000D01*
X116385000Y-50320000D02*
X116385000Y-50740000D01*
X116385000Y-52860000D02*
X116385000Y-53280000D01*
X116385000Y-55400000D02*
X116385000Y-55820000D01*
X116385000Y-57940000D02*
X116385000Y-58360000D01*
X116385000Y-60480000D02*
X116385000Y-60900000D01*
X116385000Y-63020000D02*
X116385000Y-63440000D01*
X116385000Y-65560000D02*
X116385000Y-65980000D01*
X116385000Y-68100000D02*
X116385000Y-68520000D01*
X116385000Y-70640000D02*
X116385000Y-71060000D01*
X116385000Y-73180000D02*
X116385000Y-73600000D01*
X116385000Y-75720000D02*
X116385000Y-76140000D01*
X116385000Y-78260000D02*
X116385000Y-78680000D01*
X116385000Y-80800000D02*
X116385000Y-81220000D01*
X116385000Y-83340000D02*
X116385000Y-83760000D01*
X116385000Y-85880000D02*
X116385000Y-86300000D01*
X116385000Y-88420000D02*
X116385000Y-88840000D01*
X95195324Y-40580000D02*
G75*
G02*
X95775000Y-40160000I579692J-190051D01*
G01*
X95775000Y-91380000D02*
G75*
G02*
X95195324Y-90959937I1J610002D01*
G01*
X115775000Y-40160000D02*
G75*
G02*
X116354676Y-40580063I0J-610000D01*
G01*
X116354676Y-90959937D02*
G75*
G02*
X115775000Y-91380069I-579676J189837D01*
G01*
%TO.C,GND_1*%
X90300000Y-85000000D02*
G75*
G02*
X87700000Y-85000000I-1300000J0D01*
G01*
X87700000Y-85000000D02*
G75*
G02*
X90300000Y-85000000I1300000J0D01*
G01*
%TO.C,+5V_S1*%
X123300000Y-53500000D02*
G75*
G02*
X120700000Y-53500000I-1300000J0D01*
G01*
X120700000Y-53500000D02*
G75*
G02*
X123300000Y-53500000I1300000J0D01*
G01*
%TO.C,+3V3_1*%
X92800000Y-44500000D02*
G75*
G02*
X90200000Y-44500000I-1300000J0D01*
G01*
X90200000Y-44500000D02*
G75*
G02*
X92800000Y-44500000I1300000J0D01*
G01*
%TO.C,J4*%
X121120000Y-58620000D02*
X122500000Y-58620000D01*
X121120000Y-60000000D02*
X121120000Y-58620000D01*
X121120000Y-61270000D02*
X121120000Y-61380000D01*
X121120000Y-61270000D02*
X123880000Y-61270000D01*
X121120000Y-61380000D02*
X123880000Y-61380000D01*
X123880000Y-61270000D02*
X123880000Y-61380000D01*
%TO.C,D1*%
X118850000Y-41990000D02*
X118850000Y-49000000D01*
X122150000Y-41990000D02*
X118850000Y-41990000D01*
X122150000Y-41990000D02*
X122150000Y-49000000D01*
%TO.C,C4*%
X80565000Y-56761252D02*
X80565000Y-56238748D01*
X82035000Y-56761252D02*
X82035000Y-56238748D01*
%TO.C,C3*%
X82561252Y-44165000D02*
X82038748Y-44165000D01*
X82561252Y-45635000D02*
X82038748Y-45635000D01*
%TO.C,J3*%
X121120000Y-87620000D02*
X122500000Y-87620000D01*
X121120000Y-89000000D02*
X121120000Y-87620000D01*
X121120000Y-90270000D02*
X121120000Y-90380000D01*
X121120000Y-90270000D02*
X123880000Y-90270000D01*
X121120000Y-90380000D02*
X123880000Y-90380000D01*
X123880000Y-90270000D02*
X123880000Y-90380000D01*
%TO.C,R2*%
X80565000Y-52527064D02*
X80565000Y-52072936D01*
X82035000Y-52527064D02*
X82035000Y-52072936D01*
%TO.C,U1*%
X84440000Y-46440000D02*
X88560000Y-46440000D01*
X84440000Y-46495000D02*
X84440000Y-46440000D01*
X84440000Y-56560000D02*
X84440000Y-56505000D01*
X88560000Y-46440000D02*
X88560000Y-46495000D01*
X88560000Y-56505000D02*
X88560000Y-56560000D01*
X88560000Y-56560000D02*
X84440000Y-56560000D01*
X83900000Y-46490000D02*
X83660000Y-46160000D01*
X84140000Y-46160000D01*
X83900000Y-46490000D01*
G36*
X83900000Y-46490000D02*
G01*
X83660000Y-46160000D01*
X84140000Y-46160000D01*
X83900000Y-46490000D01*
G37*
%TO.C,R1*%
X80565000Y-47872936D02*
X80565000Y-48327064D01*
X82035000Y-47872936D02*
X82035000Y-48327064D01*
%TO.C,J2*%
X119355000Y-79460000D02*
X119355000Y-66540000D01*
X122005000Y-76810000D02*
X122005000Y-79460000D01*
X122005000Y-79460000D02*
X119355000Y-79460000D01*
X124655000Y-66540000D02*
X119355000Y-66540000D01*
X124655000Y-76810000D02*
X122005000Y-76810000D01*
X124655000Y-76810000D02*
X124655000Y-66540000D01*
X124655000Y-78080000D02*
X124655000Y-79460000D01*
X124655000Y-79460000D02*
X123275000Y-79460000D01*
%TO.C,C1*%
X90865000Y-48738748D02*
X90865000Y-49261252D01*
X92335000Y-48738748D02*
X92335000Y-49261252D01*
%TO.C,C5*%
X90238748Y-57765000D02*
X90761252Y-57765000D01*
X90238748Y-59235000D02*
X90761252Y-59235000D01*
%TO.C,R3*%
X90765000Y-55527064D02*
X90765000Y-55072936D01*
X92235000Y-55527064D02*
X92235000Y-55072936D01*
%TO.C,J1*%
X78580000Y-79500000D02*
X78580000Y-66580000D01*
X81230000Y-76850000D02*
X81230000Y-79500000D01*
X81230000Y-79500000D02*
X78580000Y-79500000D01*
X83880000Y-66580000D02*
X78580000Y-66580000D01*
X83880000Y-76850000D02*
X81230000Y-76850000D01*
X83880000Y-76850000D02*
X83880000Y-66580000D01*
X83880000Y-78120000D02*
X83880000Y-79500000D01*
X83880000Y-79500000D02*
X82500000Y-79500000D01*
%TD*%
M02*
