%TF.GenerationSoftware,KiCad,Pcbnew,10.0.3*%
%TF.CreationDate,2026-05-30T01:03:29-07:00*%
%TF.ProjectId,Encoder Board,456e636f-6465-4722-9042-6f6172642e6b,rev?*%
%TF.SameCoordinates,Original*%
%TF.FileFunction,Soldermask,Bot*%
%TF.FilePolarity,Negative*%
%FSLAX46Y46*%
G04 Gerber Fmt 4.6, Leading zero omitted, Abs format (unit mm)*
G04 Created by KiCad (PCBNEW 10.0.3) date 2026-05-30 01:03:29*
%MOMM*%
%LPD*%
G01*
G04 APERTURE LIST*
G04 APERTURE END LIST*
G36*
X84746742Y-80786601D02*
G01*
X84900687Y-80850367D01*
X85039234Y-80942941D01*
X85157059Y-81060766D01*
X85249633Y-81199313D01*
X85313399Y-81353258D01*
X85345907Y-81516685D01*
X85345907Y-81683315D01*
X85313399Y-81846742D01*
X85249633Y-82000687D01*
X85157059Y-82139234D01*
X85039234Y-82257059D01*
X84900687Y-82349633D01*
X84746742Y-82413399D01*
X84583315Y-82445907D01*
X84416685Y-82445907D01*
X84253258Y-82413399D01*
X84099313Y-82349633D01*
X83960766Y-82257059D01*
X83842941Y-82139234D01*
X83750367Y-82000687D01*
X83686601Y-81846742D01*
X83654093Y-81683315D01*
X83654093Y-81516685D01*
X83686601Y-81353258D01*
X83750367Y-81199313D01*
X83842941Y-81060766D01*
X83960766Y-80942941D01*
X84099313Y-80850367D01*
X84253258Y-80786601D01*
X84416685Y-80754093D01*
X84583315Y-80754093D01*
X84746742Y-80786601D01*
G37*
G36*
X102864364Y-80579407D02*
G01*
X103018309Y-80643173D01*
X103156856Y-80735747D01*
X103274681Y-80853572D01*
X103367255Y-80992119D01*
X103431021Y-81146064D01*
X103463529Y-81309491D01*
X103463529Y-81476121D01*
X103431021Y-81639548D01*
X103367255Y-81793493D01*
X103274681Y-81932040D01*
X103156856Y-82049865D01*
X103018309Y-82142439D01*
X102864364Y-82206205D01*
X102700937Y-82238713D01*
X102534307Y-82238713D01*
X102370880Y-82206205D01*
X102216935Y-82142439D01*
X102078388Y-82049865D01*
X101960563Y-81932040D01*
X101867989Y-81793493D01*
X101804223Y-81639548D01*
X101771715Y-81476121D01*
X101771715Y-81309491D01*
X101804223Y-81146064D01*
X101867989Y-80992119D01*
X101960563Y-80853572D01*
X102078388Y-80735747D01*
X102216935Y-80643173D01*
X102370880Y-80579407D01*
X102534307Y-80546899D01*
X102700937Y-80546899D01*
X102864364Y-80579407D01*
G37*
G36*
X84746742Y-78246601D02*
G01*
X84900687Y-78310367D01*
X85039234Y-78402941D01*
X85157059Y-78520766D01*
X85249633Y-78659313D01*
X85313399Y-78813258D01*
X85345907Y-78976685D01*
X85345907Y-79143315D01*
X85313399Y-79306742D01*
X85249633Y-79460687D01*
X85157059Y-79599234D01*
X85039234Y-79717059D01*
X84900687Y-79809633D01*
X84746742Y-79873399D01*
X84583315Y-79905907D01*
X84416685Y-79905907D01*
X84253258Y-79873399D01*
X84099313Y-79809633D01*
X83960766Y-79717059D01*
X83842941Y-79599234D01*
X83750367Y-79460687D01*
X83686601Y-79306742D01*
X83654093Y-79143315D01*
X83654093Y-78976685D01*
X83686601Y-78813258D01*
X83750367Y-78659313D01*
X83842941Y-78520766D01*
X83960766Y-78402941D01*
X84099313Y-78310367D01*
X84253258Y-78246601D01*
X84416685Y-78214093D01*
X84583315Y-78214093D01*
X84746742Y-78246601D01*
G37*
G36*
X102864364Y-78039407D02*
G01*
X103018309Y-78103173D01*
X103156856Y-78195747D01*
X103274681Y-78313572D01*
X103367255Y-78452119D01*
X103431021Y-78606064D01*
X103463529Y-78769491D01*
X103463529Y-78936121D01*
X103431021Y-79099548D01*
X103367255Y-79253493D01*
X103274681Y-79392040D01*
X103156856Y-79509865D01*
X103018309Y-79602439D01*
X102864364Y-79666205D01*
X102700937Y-79698713D01*
X102534307Y-79698713D01*
X102370880Y-79666205D01*
X102216935Y-79602439D01*
X102078388Y-79509865D01*
X101960563Y-79392040D01*
X101867989Y-79253493D01*
X101804223Y-79099548D01*
X101771715Y-78936121D01*
X101771715Y-78769491D01*
X101804223Y-78606064D01*
X101867989Y-78452119D01*
X101960563Y-78313572D01*
X102078388Y-78195747D01*
X102216935Y-78103173D01*
X102370880Y-78039407D01*
X102534307Y-78006899D01*
X102700937Y-78006899D01*
X102864364Y-78039407D01*
G37*
G36*
X72625000Y-79180000D02*
G01*
X70925000Y-79180000D01*
X70925000Y-77480000D01*
X72625000Y-77480000D01*
X72625000Y-79180000D01*
G37*
G36*
X69481742Y-77516601D02*
G01*
X69635687Y-77580367D01*
X69774234Y-77672941D01*
X69892059Y-77790766D01*
X69984633Y-77929313D01*
X70048399Y-78083258D01*
X70080907Y-78246685D01*
X70080907Y-78413315D01*
X70048399Y-78576742D01*
X69984633Y-78730687D01*
X69892059Y-78869234D01*
X69774234Y-78987059D01*
X69635687Y-79079633D01*
X69481742Y-79143399D01*
X69318315Y-79175907D01*
X69151685Y-79175907D01*
X68988258Y-79143399D01*
X68834313Y-79079633D01*
X68695766Y-78987059D01*
X68577941Y-78869234D01*
X68485367Y-78730687D01*
X68421601Y-78576742D01*
X68389093Y-78413315D01*
X68389093Y-78246685D01*
X68421601Y-78083258D01*
X68485367Y-77929313D01*
X68577941Y-77790766D01*
X68695766Y-77672941D01*
X68834313Y-77580367D01*
X68988258Y-77516601D01*
X69151685Y-77484093D01*
X69318315Y-77484093D01*
X69481742Y-77516601D01*
G37*
G36*
X84746742Y-75706601D02*
G01*
X84900687Y-75770367D01*
X85039234Y-75862941D01*
X85157059Y-75980766D01*
X85249633Y-76119313D01*
X85313399Y-76273258D01*
X85345907Y-76436685D01*
X85345907Y-76603315D01*
X85313399Y-76766742D01*
X85249633Y-76920687D01*
X85157059Y-77059234D01*
X85039234Y-77177059D01*
X84900687Y-77269633D01*
X84746742Y-77333399D01*
X84583315Y-77365907D01*
X84416685Y-77365907D01*
X84253258Y-77333399D01*
X84099313Y-77269633D01*
X83960766Y-77177059D01*
X83842941Y-77059234D01*
X83750367Y-76920687D01*
X83686601Y-76766742D01*
X83654093Y-76603315D01*
X83654093Y-76436685D01*
X83686601Y-76273258D01*
X83750367Y-76119313D01*
X83842941Y-75980766D01*
X83960766Y-75862941D01*
X84099313Y-75770367D01*
X84253258Y-75706601D01*
X84416685Y-75674093D01*
X84583315Y-75674093D01*
X84746742Y-75706601D01*
G37*
G36*
X102864364Y-75499407D02*
G01*
X103018309Y-75563173D01*
X103156856Y-75655747D01*
X103274681Y-75773572D01*
X103367255Y-75912119D01*
X103431021Y-76066064D01*
X103463529Y-76229491D01*
X103463529Y-76396121D01*
X103431021Y-76559548D01*
X103367255Y-76713493D01*
X103274681Y-76852040D01*
X103156856Y-76969865D01*
X103018309Y-77062439D01*
X102864364Y-77126205D01*
X102700937Y-77158713D01*
X102534307Y-77158713D01*
X102370880Y-77126205D01*
X102216935Y-77062439D01*
X102078388Y-76969865D01*
X101960563Y-76852040D01*
X101867989Y-76713493D01*
X101804223Y-76559548D01*
X101771715Y-76396121D01*
X101771715Y-76229491D01*
X101804223Y-76066064D01*
X101867989Y-75912119D01*
X101960563Y-75773572D01*
X102078388Y-75655747D01*
X102216935Y-75563173D01*
X102370880Y-75499407D01*
X102534307Y-75466899D01*
X102700937Y-75466899D01*
X102864364Y-75499407D01*
G37*
G36*
X69481742Y-74976601D02*
G01*
X69635687Y-75040367D01*
X69774234Y-75132941D01*
X69892059Y-75250766D01*
X69984633Y-75389313D01*
X70048399Y-75543258D01*
X70080907Y-75706685D01*
X70080907Y-75873315D01*
X70048399Y-76036742D01*
X69984633Y-76190687D01*
X69892059Y-76329234D01*
X69774234Y-76447059D01*
X69635687Y-76539633D01*
X69481742Y-76603399D01*
X69318315Y-76635907D01*
X69151685Y-76635907D01*
X68988258Y-76603399D01*
X68834313Y-76539633D01*
X68695766Y-76447059D01*
X68577941Y-76329234D01*
X68485367Y-76190687D01*
X68421601Y-76036742D01*
X68389093Y-75873315D01*
X68389093Y-75706685D01*
X68421601Y-75543258D01*
X68485367Y-75389313D01*
X68577941Y-75250766D01*
X68695766Y-75132941D01*
X68834313Y-75040367D01*
X68988258Y-74976601D01*
X69151685Y-74944093D01*
X69318315Y-74944093D01*
X69481742Y-74976601D01*
G37*
G36*
X72021742Y-74976601D02*
G01*
X72175687Y-75040367D01*
X72314234Y-75132941D01*
X72432059Y-75250766D01*
X72524633Y-75389313D01*
X72588399Y-75543258D01*
X72620907Y-75706685D01*
X72620907Y-75873315D01*
X72588399Y-76036742D01*
X72524633Y-76190687D01*
X72432059Y-76329234D01*
X72314234Y-76447059D01*
X72175687Y-76539633D01*
X72021742Y-76603399D01*
X71858315Y-76635907D01*
X71691685Y-76635907D01*
X71528258Y-76603399D01*
X71374313Y-76539633D01*
X71235766Y-76447059D01*
X71117941Y-76329234D01*
X71025367Y-76190687D01*
X70961601Y-76036742D01*
X70929093Y-75873315D01*
X70929093Y-75706685D01*
X70961601Y-75543258D01*
X71025367Y-75389313D01*
X71117941Y-75250766D01*
X71235766Y-75132941D01*
X71374313Y-75040367D01*
X71528258Y-74976601D01*
X71691685Y-74944093D01*
X71858315Y-74944093D01*
X72021742Y-74976601D01*
G37*
G36*
X84746742Y-73166601D02*
G01*
X84900687Y-73230367D01*
X85039234Y-73322941D01*
X85157059Y-73440766D01*
X85249633Y-73579313D01*
X85313399Y-73733258D01*
X85345907Y-73896685D01*
X85345907Y-74063315D01*
X85313399Y-74226742D01*
X85249633Y-74380687D01*
X85157059Y-74519234D01*
X85039234Y-74637059D01*
X84900687Y-74729633D01*
X84746742Y-74793399D01*
X84583315Y-74825907D01*
X84416685Y-74825907D01*
X84253258Y-74793399D01*
X84099313Y-74729633D01*
X83960766Y-74637059D01*
X83842941Y-74519234D01*
X83750367Y-74380687D01*
X83686601Y-74226742D01*
X83654093Y-74063315D01*
X83654093Y-73896685D01*
X83686601Y-73733258D01*
X83750367Y-73579313D01*
X83842941Y-73440766D01*
X83960766Y-73322941D01*
X84099313Y-73230367D01*
X84253258Y-73166601D01*
X84416685Y-73134093D01*
X84583315Y-73134093D01*
X84746742Y-73166601D01*
G37*
G36*
X110471742Y-72996601D02*
G01*
X110625687Y-73060367D01*
X110764234Y-73152941D01*
X110882059Y-73270766D01*
X110974633Y-73409313D01*
X111038399Y-73563258D01*
X111070907Y-73726685D01*
X111070907Y-73893315D01*
X111038399Y-74056742D01*
X110974633Y-74210687D01*
X110882059Y-74349234D01*
X110764234Y-74467059D01*
X110625687Y-74559633D01*
X110471742Y-74623399D01*
X110308315Y-74655907D01*
X110141685Y-74655907D01*
X109978258Y-74623399D01*
X109824313Y-74559633D01*
X109685766Y-74467059D01*
X109567941Y-74349234D01*
X109475367Y-74210687D01*
X109411601Y-74056742D01*
X109379093Y-73893315D01*
X109379093Y-73726685D01*
X109411601Y-73563258D01*
X109475367Y-73409313D01*
X109567941Y-73270766D01*
X109685766Y-73152941D01*
X109824313Y-73060367D01*
X109978258Y-72996601D01*
X110141685Y-72964093D01*
X110308315Y-72964093D01*
X110471742Y-72996601D01*
G37*
G36*
X113011742Y-72996601D02*
G01*
X113165687Y-73060367D01*
X113304234Y-73152941D01*
X113422059Y-73270766D01*
X113514633Y-73409313D01*
X113578399Y-73563258D01*
X113610907Y-73726685D01*
X113610907Y-73893315D01*
X113578399Y-74056742D01*
X113514633Y-74210687D01*
X113422059Y-74349234D01*
X113304234Y-74467059D01*
X113165687Y-74559633D01*
X113011742Y-74623399D01*
X112848315Y-74655907D01*
X112681685Y-74655907D01*
X112518258Y-74623399D01*
X112364313Y-74559633D01*
X112225766Y-74467059D01*
X112107941Y-74349234D01*
X112015367Y-74210687D01*
X111951601Y-74056742D01*
X111919093Y-73893315D01*
X111919093Y-73726685D01*
X111951601Y-73563258D01*
X112015367Y-73409313D01*
X112107941Y-73270766D01*
X112225766Y-73152941D01*
X112364313Y-73060367D01*
X112518258Y-72996601D01*
X112681685Y-72964093D01*
X112848315Y-72964093D01*
X113011742Y-72996601D01*
G37*
G36*
X102864364Y-72959407D02*
G01*
X103018309Y-73023173D01*
X103156856Y-73115747D01*
X103274681Y-73233572D01*
X103367255Y-73372119D01*
X103431021Y-73526064D01*
X103463529Y-73689491D01*
X103463529Y-73856121D01*
X103431021Y-74019548D01*
X103367255Y-74173493D01*
X103274681Y-74312040D01*
X103156856Y-74429865D01*
X103018309Y-74522439D01*
X102864364Y-74586205D01*
X102700937Y-74618713D01*
X102534307Y-74618713D01*
X102370880Y-74586205D01*
X102216935Y-74522439D01*
X102078388Y-74429865D01*
X101960563Y-74312040D01*
X101867989Y-74173493D01*
X101804223Y-74019548D01*
X101771715Y-73856121D01*
X101771715Y-73689491D01*
X101804223Y-73526064D01*
X101867989Y-73372119D01*
X101960563Y-73233572D01*
X102078388Y-73115747D01*
X102216935Y-73023173D01*
X102370880Y-72959407D01*
X102534307Y-72926899D01*
X102700937Y-72926899D01*
X102864364Y-72959407D01*
G37*
G36*
X69481742Y-72436601D02*
G01*
X69635687Y-72500367D01*
X69774234Y-72592941D01*
X69892059Y-72710766D01*
X69984633Y-72849313D01*
X70048399Y-73003258D01*
X70080907Y-73166685D01*
X70080907Y-73333315D01*
X70048399Y-73496742D01*
X69984633Y-73650687D01*
X69892059Y-73789234D01*
X69774234Y-73907059D01*
X69635687Y-73999633D01*
X69481742Y-74063399D01*
X69318315Y-74095907D01*
X69151685Y-74095907D01*
X68988258Y-74063399D01*
X68834313Y-73999633D01*
X68695766Y-73907059D01*
X68577941Y-73789234D01*
X68485367Y-73650687D01*
X68421601Y-73496742D01*
X68389093Y-73333315D01*
X68389093Y-73166685D01*
X68421601Y-73003258D01*
X68485367Y-72849313D01*
X68577941Y-72710766D01*
X68695766Y-72592941D01*
X68834313Y-72500367D01*
X68988258Y-72436601D01*
X69151685Y-72404093D01*
X69318315Y-72404093D01*
X69481742Y-72436601D01*
G37*
G36*
X72021742Y-72436601D02*
G01*
X72175687Y-72500367D01*
X72314234Y-72592941D01*
X72432059Y-72710766D01*
X72524633Y-72849313D01*
X72588399Y-73003258D01*
X72620907Y-73166685D01*
X72620907Y-73333315D01*
X72588399Y-73496742D01*
X72524633Y-73650687D01*
X72432059Y-73789234D01*
X72314234Y-73907059D01*
X72175687Y-73999633D01*
X72021742Y-74063399D01*
X71858315Y-74095907D01*
X71691685Y-74095907D01*
X71528258Y-74063399D01*
X71374313Y-73999633D01*
X71235766Y-73907059D01*
X71117941Y-73789234D01*
X71025367Y-73650687D01*
X70961601Y-73496742D01*
X70929093Y-73333315D01*
X70929093Y-73166685D01*
X70961601Y-73003258D01*
X71025367Y-72849313D01*
X71117941Y-72710766D01*
X71235766Y-72592941D01*
X71374313Y-72500367D01*
X71528258Y-72436601D01*
X71691685Y-72404093D01*
X71858315Y-72404093D01*
X72021742Y-72436601D01*
G37*
G36*
X84746742Y-70626601D02*
G01*
X84900687Y-70690367D01*
X85039234Y-70782941D01*
X85157059Y-70900766D01*
X85249633Y-71039313D01*
X85313399Y-71193258D01*
X85345907Y-71356685D01*
X85345907Y-71523315D01*
X85313399Y-71686742D01*
X85249633Y-71840687D01*
X85157059Y-71979234D01*
X85039234Y-72097059D01*
X84900687Y-72189633D01*
X84746742Y-72253399D01*
X84583315Y-72285907D01*
X84416685Y-72285907D01*
X84253258Y-72253399D01*
X84099313Y-72189633D01*
X83960766Y-72097059D01*
X83842941Y-71979234D01*
X83750367Y-71840687D01*
X83686601Y-71686742D01*
X83654093Y-71523315D01*
X83654093Y-71356685D01*
X83686601Y-71193258D01*
X83750367Y-71039313D01*
X83842941Y-70900766D01*
X83960766Y-70782941D01*
X84099313Y-70690367D01*
X84253258Y-70626601D01*
X84416685Y-70594093D01*
X84583315Y-70594093D01*
X84746742Y-70626601D01*
G37*
G36*
X110471742Y-70456601D02*
G01*
X110625687Y-70520367D01*
X110764234Y-70612941D01*
X110882059Y-70730766D01*
X110974633Y-70869313D01*
X111038399Y-71023258D01*
X111070907Y-71186685D01*
X111070907Y-71353315D01*
X111038399Y-71516742D01*
X110974633Y-71670687D01*
X110882059Y-71809234D01*
X110764234Y-71927059D01*
X110625687Y-72019633D01*
X110471742Y-72083399D01*
X110308315Y-72115907D01*
X110141685Y-72115907D01*
X109978258Y-72083399D01*
X109824313Y-72019633D01*
X109685766Y-71927059D01*
X109567941Y-71809234D01*
X109475367Y-71670687D01*
X109411601Y-71516742D01*
X109379093Y-71353315D01*
X109379093Y-71186685D01*
X109411601Y-71023258D01*
X109475367Y-70869313D01*
X109567941Y-70730766D01*
X109685766Y-70612941D01*
X109824313Y-70520367D01*
X109978258Y-70456601D01*
X110141685Y-70424093D01*
X110308315Y-70424093D01*
X110471742Y-70456601D01*
G37*
G36*
X113011742Y-70456601D02*
G01*
X113165687Y-70520367D01*
X113304234Y-70612941D01*
X113422059Y-70730766D01*
X113514633Y-70869313D01*
X113578399Y-71023258D01*
X113610907Y-71186685D01*
X113610907Y-71353315D01*
X113578399Y-71516742D01*
X113514633Y-71670687D01*
X113422059Y-71809234D01*
X113304234Y-71927059D01*
X113165687Y-72019633D01*
X113011742Y-72083399D01*
X112848315Y-72115907D01*
X112681685Y-72115907D01*
X112518258Y-72083399D01*
X112364313Y-72019633D01*
X112225766Y-71927059D01*
X112107941Y-71809234D01*
X112015367Y-71670687D01*
X111951601Y-71516742D01*
X111919093Y-71353315D01*
X111919093Y-71186685D01*
X111951601Y-71023258D01*
X112015367Y-70869313D01*
X112107941Y-70730766D01*
X112225766Y-70612941D01*
X112364313Y-70520367D01*
X112518258Y-70456601D01*
X112681685Y-70424093D01*
X112848315Y-70424093D01*
X113011742Y-70456601D01*
G37*
G36*
X102864364Y-70419407D02*
G01*
X103018309Y-70483173D01*
X103156856Y-70575747D01*
X103274681Y-70693572D01*
X103367255Y-70832119D01*
X103431021Y-70986064D01*
X103463529Y-71149491D01*
X103463529Y-71316121D01*
X103431021Y-71479548D01*
X103367255Y-71633493D01*
X103274681Y-71772040D01*
X103156856Y-71889865D01*
X103018309Y-71982439D01*
X102864364Y-72046205D01*
X102700937Y-72078713D01*
X102534307Y-72078713D01*
X102370880Y-72046205D01*
X102216935Y-71982439D01*
X102078388Y-71889865D01*
X101960563Y-71772040D01*
X101867989Y-71633493D01*
X101804223Y-71479548D01*
X101771715Y-71316121D01*
X101771715Y-71149491D01*
X101804223Y-70986064D01*
X101867989Y-70832119D01*
X101960563Y-70693572D01*
X102078388Y-70575747D01*
X102216935Y-70483173D01*
X102370880Y-70419407D01*
X102534307Y-70386899D01*
X102700937Y-70386899D01*
X102864364Y-70419407D01*
G37*
G36*
X69481742Y-69896601D02*
G01*
X69635687Y-69960367D01*
X69774234Y-70052941D01*
X69892059Y-70170766D01*
X69984633Y-70309313D01*
X70048399Y-70463258D01*
X70080907Y-70626685D01*
X70080907Y-70793315D01*
X70048399Y-70956742D01*
X69984633Y-71110687D01*
X69892059Y-71249234D01*
X69774234Y-71367059D01*
X69635687Y-71459633D01*
X69481742Y-71523399D01*
X69318315Y-71555907D01*
X69151685Y-71555907D01*
X68988258Y-71523399D01*
X68834313Y-71459633D01*
X68695766Y-71367059D01*
X68577941Y-71249234D01*
X68485367Y-71110687D01*
X68421601Y-70956742D01*
X68389093Y-70793315D01*
X68389093Y-70626685D01*
X68421601Y-70463258D01*
X68485367Y-70309313D01*
X68577941Y-70170766D01*
X68695766Y-70052941D01*
X68834313Y-69960367D01*
X68988258Y-69896601D01*
X69151685Y-69864093D01*
X69318315Y-69864093D01*
X69481742Y-69896601D01*
G37*
G36*
X72021742Y-69896601D02*
G01*
X72175687Y-69960367D01*
X72314234Y-70052941D01*
X72432059Y-70170766D01*
X72524633Y-70309313D01*
X72588399Y-70463258D01*
X72620907Y-70626685D01*
X72620907Y-70793315D01*
X72588399Y-70956742D01*
X72524633Y-71110687D01*
X72432059Y-71249234D01*
X72314234Y-71367059D01*
X72175687Y-71459633D01*
X72021742Y-71523399D01*
X71858315Y-71555907D01*
X71691685Y-71555907D01*
X71528258Y-71523399D01*
X71374313Y-71459633D01*
X71235766Y-71367059D01*
X71117941Y-71249234D01*
X71025367Y-71110687D01*
X70961601Y-70956742D01*
X70929093Y-70793315D01*
X70929093Y-70626685D01*
X70961601Y-70463258D01*
X71025367Y-70309313D01*
X71117941Y-70170766D01*
X71235766Y-70052941D01*
X71374313Y-69960367D01*
X71528258Y-69896601D01*
X71691685Y-69864093D01*
X71858315Y-69864093D01*
X72021742Y-69896601D01*
G37*
G36*
X84746742Y-68086601D02*
G01*
X84900687Y-68150367D01*
X85039234Y-68242941D01*
X85157059Y-68360766D01*
X85249633Y-68499313D01*
X85313399Y-68653258D01*
X85345907Y-68816685D01*
X85345907Y-68983315D01*
X85313399Y-69146742D01*
X85249633Y-69300687D01*
X85157059Y-69439234D01*
X85039234Y-69557059D01*
X84900687Y-69649633D01*
X84746742Y-69713399D01*
X84583315Y-69745907D01*
X84416685Y-69745907D01*
X84253258Y-69713399D01*
X84099313Y-69649633D01*
X83960766Y-69557059D01*
X83842941Y-69439234D01*
X83750367Y-69300687D01*
X83686601Y-69146742D01*
X83654093Y-68983315D01*
X83654093Y-68816685D01*
X83686601Y-68653258D01*
X83750367Y-68499313D01*
X83842941Y-68360766D01*
X83960766Y-68242941D01*
X84099313Y-68150367D01*
X84253258Y-68086601D01*
X84416685Y-68054093D01*
X84583315Y-68054093D01*
X84746742Y-68086601D01*
G37*
G36*
X110471742Y-67916601D02*
G01*
X110625687Y-67980367D01*
X110764234Y-68072941D01*
X110882059Y-68190766D01*
X110974633Y-68329313D01*
X111038399Y-68483258D01*
X111070907Y-68646685D01*
X111070907Y-68813315D01*
X111038399Y-68976742D01*
X110974633Y-69130687D01*
X110882059Y-69269234D01*
X110764234Y-69387059D01*
X110625687Y-69479633D01*
X110471742Y-69543399D01*
X110308315Y-69575907D01*
X110141685Y-69575907D01*
X109978258Y-69543399D01*
X109824313Y-69479633D01*
X109685766Y-69387059D01*
X109567941Y-69269234D01*
X109475367Y-69130687D01*
X109411601Y-68976742D01*
X109379093Y-68813315D01*
X109379093Y-68646685D01*
X109411601Y-68483258D01*
X109475367Y-68329313D01*
X109567941Y-68190766D01*
X109685766Y-68072941D01*
X109824313Y-67980367D01*
X109978258Y-67916601D01*
X110141685Y-67884093D01*
X110308315Y-67884093D01*
X110471742Y-67916601D01*
G37*
G36*
X113011742Y-67916601D02*
G01*
X113165687Y-67980367D01*
X113304234Y-68072941D01*
X113422059Y-68190766D01*
X113514633Y-68329313D01*
X113578399Y-68483258D01*
X113610907Y-68646685D01*
X113610907Y-68813315D01*
X113578399Y-68976742D01*
X113514633Y-69130687D01*
X113422059Y-69269234D01*
X113304234Y-69387059D01*
X113165687Y-69479633D01*
X113011742Y-69543399D01*
X112848315Y-69575907D01*
X112681685Y-69575907D01*
X112518258Y-69543399D01*
X112364313Y-69479633D01*
X112225766Y-69387059D01*
X112107941Y-69269234D01*
X112015367Y-69130687D01*
X111951601Y-68976742D01*
X111919093Y-68813315D01*
X111919093Y-68646685D01*
X111951601Y-68483258D01*
X112015367Y-68329313D01*
X112107941Y-68190766D01*
X112225766Y-68072941D01*
X112364313Y-67980367D01*
X112518258Y-67916601D01*
X112681685Y-67884093D01*
X112848315Y-67884093D01*
X113011742Y-67916601D01*
G37*
G36*
X102864364Y-67879407D02*
G01*
X103018309Y-67943173D01*
X103156856Y-68035747D01*
X103274681Y-68153572D01*
X103367255Y-68292119D01*
X103431021Y-68446064D01*
X103463529Y-68609491D01*
X103463529Y-68776121D01*
X103431021Y-68939548D01*
X103367255Y-69093493D01*
X103274681Y-69232040D01*
X103156856Y-69349865D01*
X103018309Y-69442439D01*
X102864364Y-69506205D01*
X102700937Y-69538713D01*
X102534307Y-69538713D01*
X102370880Y-69506205D01*
X102216935Y-69442439D01*
X102078388Y-69349865D01*
X101960563Y-69232040D01*
X101867989Y-69093493D01*
X101804223Y-68939548D01*
X101771715Y-68776121D01*
X101771715Y-68609491D01*
X101804223Y-68446064D01*
X101867989Y-68292119D01*
X101960563Y-68153572D01*
X102078388Y-68035747D01*
X102216935Y-67943173D01*
X102370880Y-67879407D01*
X102534307Y-67846899D01*
X102700937Y-67846899D01*
X102864364Y-67879407D01*
G37*
G36*
X69481742Y-67356601D02*
G01*
X69635687Y-67420367D01*
X69774234Y-67512941D01*
X69892059Y-67630766D01*
X69984633Y-67769313D01*
X70048399Y-67923258D01*
X70080907Y-68086685D01*
X70080907Y-68253315D01*
X70048399Y-68416742D01*
X69984633Y-68570687D01*
X69892059Y-68709234D01*
X69774234Y-68827059D01*
X69635687Y-68919633D01*
X69481742Y-68983399D01*
X69318315Y-69015907D01*
X69151685Y-69015907D01*
X68988258Y-68983399D01*
X68834313Y-68919633D01*
X68695766Y-68827059D01*
X68577941Y-68709234D01*
X68485367Y-68570687D01*
X68421601Y-68416742D01*
X68389093Y-68253315D01*
X68389093Y-68086685D01*
X68421601Y-67923258D01*
X68485367Y-67769313D01*
X68577941Y-67630766D01*
X68695766Y-67512941D01*
X68834313Y-67420367D01*
X68988258Y-67356601D01*
X69151685Y-67324093D01*
X69318315Y-67324093D01*
X69481742Y-67356601D01*
G37*
G36*
X72021742Y-67356601D02*
G01*
X72175687Y-67420367D01*
X72314234Y-67512941D01*
X72432059Y-67630766D01*
X72524633Y-67769313D01*
X72588399Y-67923258D01*
X72620907Y-68086685D01*
X72620907Y-68253315D01*
X72588399Y-68416742D01*
X72524633Y-68570687D01*
X72432059Y-68709234D01*
X72314234Y-68827059D01*
X72175687Y-68919633D01*
X72021742Y-68983399D01*
X71858315Y-69015907D01*
X71691685Y-69015907D01*
X71528258Y-68983399D01*
X71374313Y-68919633D01*
X71235766Y-68827059D01*
X71117941Y-68709234D01*
X71025367Y-68570687D01*
X70961601Y-68416742D01*
X70929093Y-68253315D01*
X70929093Y-68086685D01*
X70961601Y-67923258D01*
X71025367Y-67769313D01*
X71117941Y-67630766D01*
X71235766Y-67512941D01*
X71374313Y-67420367D01*
X71528258Y-67356601D01*
X71691685Y-67324093D01*
X71858315Y-67324093D01*
X72021742Y-67356601D01*
G37*
G36*
X84746742Y-65546601D02*
G01*
X84900687Y-65610367D01*
X85039234Y-65702941D01*
X85157059Y-65820766D01*
X85249633Y-65959313D01*
X85313399Y-66113258D01*
X85345907Y-66276685D01*
X85345907Y-66443315D01*
X85313399Y-66606742D01*
X85249633Y-66760687D01*
X85157059Y-66899234D01*
X85039234Y-67017059D01*
X84900687Y-67109633D01*
X84746742Y-67173399D01*
X84583315Y-67205907D01*
X84416685Y-67205907D01*
X84253258Y-67173399D01*
X84099313Y-67109633D01*
X83960766Y-67017059D01*
X83842941Y-66899234D01*
X83750367Y-66760687D01*
X83686601Y-66606742D01*
X83654093Y-66443315D01*
X83654093Y-66276685D01*
X83686601Y-66113258D01*
X83750367Y-65959313D01*
X83842941Y-65820766D01*
X83960766Y-65702941D01*
X84099313Y-65610367D01*
X84253258Y-65546601D01*
X84416685Y-65514093D01*
X84583315Y-65514093D01*
X84746742Y-65546601D01*
G37*
G36*
X111075000Y-67040000D02*
G01*
X109375000Y-67040000D01*
X109375000Y-65340000D01*
X111075000Y-65340000D01*
X111075000Y-67040000D01*
G37*
G36*
X113011742Y-65376601D02*
G01*
X113165687Y-65440367D01*
X113304234Y-65532941D01*
X113422059Y-65650766D01*
X113514633Y-65789313D01*
X113578399Y-65943258D01*
X113610907Y-66106685D01*
X113610907Y-66273315D01*
X113578399Y-66436742D01*
X113514633Y-66590687D01*
X113422059Y-66729234D01*
X113304234Y-66847059D01*
X113165687Y-66939633D01*
X113011742Y-67003399D01*
X112848315Y-67035907D01*
X112681685Y-67035907D01*
X112518258Y-67003399D01*
X112364313Y-66939633D01*
X112225766Y-66847059D01*
X112107941Y-66729234D01*
X112015367Y-66590687D01*
X111951601Y-66436742D01*
X111919093Y-66273315D01*
X111919093Y-66106685D01*
X111951601Y-65943258D01*
X112015367Y-65789313D01*
X112107941Y-65650766D01*
X112225766Y-65532941D01*
X112364313Y-65440367D01*
X112518258Y-65376601D01*
X112681685Y-65344093D01*
X112848315Y-65344093D01*
X113011742Y-65376601D01*
G37*
G36*
X102864364Y-65339407D02*
G01*
X103018309Y-65403173D01*
X103156856Y-65495747D01*
X103274681Y-65613572D01*
X103367255Y-65752119D01*
X103431021Y-65906064D01*
X103463529Y-66069491D01*
X103463529Y-66236121D01*
X103431021Y-66399548D01*
X103367255Y-66553493D01*
X103274681Y-66692040D01*
X103156856Y-66809865D01*
X103018309Y-66902439D01*
X102864364Y-66966205D01*
X102700937Y-66998713D01*
X102534307Y-66998713D01*
X102370880Y-66966205D01*
X102216935Y-66902439D01*
X102078388Y-66809865D01*
X101960563Y-66692040D01*
X101867989Y-66553493D01*
X101804223Y-66399548D01*
X101771715Y-66236121D01*
X101771715Y-66069491D01*
X101804223Y-65906064D01*
X101867989Y-65752119D01*
X101960563Y-65613572D01*
X102078388Y-65495747D01*
X102216935Y-65403173D01*
X102370880Y-65339407D01*
X102534307Y-65306899D01*
X102700937Y-65306899D01*
X102864364Y-65339407D01*
G37*
G36*
X84746742Y-63006601D02*
G01*
X84900687Y-63070367D01*
X85039234Y-63162941D01*
X85157059Y-63280766D01*
X85249633Y-63419313D01*
X85313399Y-63573258D01*
X85345907Y-63736685D01*
X85345907Y-63903315D01*
X85313399Y-64066742D01*
X85249633Y-64220687D01*
X85157059Y-64359234D01*
X85039234Y-64477059D01*
X84900687Y-64569633D01*
X84746742Y-64633399D01*
X84583315Y-64665907D01*
X84416685Y-64665907D01*
X84253258Y-64633399D01*
X84099313Y-64569633D01*
X83960766Y-64477059D01*
X83842941Y-64359234D01*
X83750367Y-64220687D01*
X83686601Y-64066742D01*
X83654093Y-63903315D01*
X83654093Y-63736685D01*
X83686601Y-63573258D01*
X83750367Y-63419313D01*
X83842941Y-63280766D01*
X83960766Y-63162941D01*
X84099313Y-63070367D01*
X84253258Y-63006601D01*
X84416685Y-62974093D01*
X84583315Y-62974093D01*
X84746742Y-63006601D01*
G37*
G36*
X102864364Y-62799407D02*
G01*
X103018309Y-62863173D01*
X103156856Y-62955747D01*
X103274681Y-63073572D01*
X103367255Y-63212119D01*
X103431021Y-63366064D01*
X103463529Y-63529491D01*
X103463529Y-63696121D01*
X103431021Y-63859548D01*
X103367255Y-64013493D01*
X103274681Y-64152040D01*
X103156856Y-64269865D01*
X103018309Y-64362439D01*
X102864364Y-64426205D01*
X102700937Y-64458713D01*
X102534307Y-64458713D01*
X102370880Y-64426205D01*
X102216935Y-64362439D01*
X102078388Y-64269865D01*
X101960563Y-64152040D01*
X101867989Y-64013493D01*
X101804223Y-63859548D01*
X101771715Y-63696121D01*
X101771715Y-63529491D01*
X101804223Y-63366064D01*
X101867989Y-63212119D01*
X101960563Y-63073572D01*
X102078388Y-62955747D01*
X102216935Y-62863173D01*
X102370880Y-62799407D01*
X102534307Y-62766899D01*
X102700937Y-62766899D01*
X102864364Y-62799407D01*
G37*
G36*
X72665000Y-62705000D02*
G01*
X70965000Y-62705000D01*
X70965000Y-61005000D01*
X72665000Y-61005000D01*
X72665000Y-62705000D01*
G37*
G36*
X69521742Y-61041601D02*
G01*
X69675687Y-61105367D01*
X69814234Y-61197941D01*
X69932059Y-61315766D01*
X70024633Y-61454313D01*
X70088399Y-61608258D01*
X70120907Y-61771685D01*
X70120907Y-61938315D01*
X70088399Y-62101742D01*
X70024633Y-62255687D01*
X69932059Y-62394234D01*
X69814234Y-62512059D01*
X69675687Y-62604633D01*
X69521742Y-62668399D01*
X69358315Y-62700907D01*
X69191685Y-62700907D01*
X69028258Y-62668399D01*
X68874313Y-62604633D01*
X68735766Y-62512059D01*
X68617941Y-62394234D01*
X68525367Y-62255687D01*
X68461601Y-62101742D01*
X68429093Y-61938315D01*
X68429093Y-61771685D01*
X68461601Y-61608258D01*
X68525367Y-61454313D01*
X68617941Y-61315766D01*
X68735766Y-61197941D01*
X68874313Y-61105367D01*
X69028258Y-61041601D01*
X69191685Y-61009093D01*
X69358315Y-61009093D01*
X69521742Y-61041601D01*
G37*
G36*
X84746742Y-60466601D02*
G01*
X84900687Y-60530367D01*
X85039234Y-60622941D01*
X85157059Y-60740766D01*
X85249633Y-60879313D01*
X85313399Y-61033258D01*
X85345907Y-61196685D01*
X85345907Y-61363315D01*
X85313399Y-61526742D01*
X85249633Y-61680687D01*
X85157059Y-61819234D01*
X85039234Y-61937059D01*
X84900687Y-62029633D01*
X84746742Y-62093399D01*
X84583315Y-62125907D01*
X84416685Y-62125907D01*
X84253258Y-62093399D01*
X84099313Y-62029633D01*
X83960766Y-61937059D01*
X83842941Y-61819234D01*
X83750367Y-61680687D01*
X83686601Y-61526742D01*
X83654093Y-61363315D01*
X83654093Y-61196685D01*
X83686601Y-61033258D01*
X83750367Y-60879313D01*
X83842941Y-60740766D01*
X83960766Y-60622941D01*
X84099313Y-60530367D01*
X84253258Y-60466601D01*
X84416685Y-60434093D01*
X84583315Y-60434093D01*
X84746742Y-60466601D01*
G37*
G36*
X102864364Y-60259407D02*
G01*
X103018309Y-60323173D01*
X103156856Y-60415747D01*
X103274681Y-60533572D01*
X103367255Y-60672119D01*
X103431021Y-60826064D01*
X103463529Y-60989491D01*
X103463529Y-61156121D01*
X103431021Y-61319548D01*
X103367255Y-61473493D01*
X103274681Y-61612040D01*
X103156856Y-61729865D01*
X103018309Y-61822439D01*
X102864364Y-61886205D01*
X102700937Y-61918713D01*
X102534307Y-61918713D01*
X102370880Y-61886205D01*
X102216935Y-61822439D01*
X102078388Y-61729865D01*
X101960563Y-61612040D01*
X101867989Y-61473493D01*
X101804223Y-61319548D01*
X101771715Y-61156121D01*
X101771715Y-60989491D01*
X101804223Y-60826064D01*
X101867989Y-60672119D01*
X101960563Y-60533572D01*
X102078388Y-60415747D01*
X102216935Y-60323173D01*
X102370880Y-60259407D01*
X102534307Y-60226899D01*
X102700937Y-60226899D01*
X102864364Y-60259407D01*
G37*
G36*
X69521742Y-58501601D02*
G01*
X69675687Y-58565367D01*
X69814234Y-58657941D01*
X69932059Y-58775766D01*
X70024633Y-58914313D01*
X70088399Y-59068258D01*
X70120907Y-59231685D01*
X70120907Y-59398315D01*
X70088399Y-59561742D01*
X70024633Y-59715687D01*
X69932059Y-59854234D01*
X69814234Y-59972059D01*
X69675687Y-60064633D01*
X69521742Y-60128399D01*
X69358315Y-60160907D01*
X69191685Y-60160907D01*
X69028258Y-60128399D01*
X68874313Y-60064633D01*
X68735766Y-59972059D01*
X68617941Y-59854234D01*
X68525367Y-59715687D01*
X68461601Y-59561742D01*
X68429093Y-59398315D01*
X68429093Y-59231685D01*
X68461601Y-59068258D01*
X68525367Y-58914313D01*
X68617941Y-58775766D01*
X68735766Y-58657941D01*
X68874313Y-58565367D01*
X69028258Y-58501601D01*
X69191685Y-58469093D01*
X69358315Y-58469093D01*
X69521742Y-58501601D01*
G37*
G36*
X72061742Y-58501601D02*
G01*
X72215687Y-58565367D01*
X72354234Y-58657941D01*
X72472059Y-58775766D01*
X72564633Y-58914313D01*
X72628399Y-59068258D01*
X72660907Y-59231685D01*
X72660907Y-59398315D01*
X72628399Y-59561742D01*
X72564633Y-59715687D01*
X72472059Y-59854234D01*
X72354234Y-59972059D01*
X72215687Y-60064633D01*
X72061742Y-60128399D01*
X71898315Y-60160907D01*
X71731685Y-60160907D01*
X71568258Y-60128399D01*
X71414313Y-60064633D01*
X71275766Y-59972059D01*
X71157941Y-59854234D01*
X71065367Y-59715687D01*
X71001601Y-59561742D01*
X70969093Y-59398315D01*
X70969093Y-59231685D01*
X71001601Y-59068258D01*
X71065367Y-58914313D01*
X71157941Y-58775766D01*
X71275766Y-58657941D01*
X71414313Y-58565367D01*
X71568258Y-58501601D01*
X71731685Y-58469093D01*
X71898315Y-58469093D01*
X72061742Y-58501601D01*
G37*
G36*
X84746742Y-57926601D02*
G01*
X84900687Y-57990367D01*
X85039234Y-58082941D01*
X85157059Y-58200766D01*
X85249633Y-58339313D01*
X85313399Y-58493258D01*
X85345907Y-58656685D01*
X85345907Y-58823315D01*
X85313399Y-58986742D01*
X85249633Y-59140687D01*
X85157059Y-59279234D01*
X85039234Y-59397059D01*
X84900687Y-59489633D01*
X84746742Y-59553399D01*
X84583315Y-59585907D01*
X84416685Y-59585907D01*
X84253258Y-59553399D01*
X84099313Y-59489633D01*
X83960766Y-59397059D01*
X83842941Y-59279234D01*
X83750367Y-59140687D01*
X83686601Y-58986742D01*
X83654093Y-58823315D01*
X83654093Y-58656685D01*
X83686601Y-58493258D01*
X83750367Y-58339313D01*
X83842941Y-58200766D01*
X83960766Y-58082941D01*
X84099313Y-57990367D01*
X84253258Y-57926601D01*
X84416685Y-57894093D01*
X84583315Y-57894093D01*
X84746742Y-57926601D01*
G37*
G36*
X102864364Y-57719407D02*
G01*
X103018309Y-57783173D01*
X103156856Y-57875747D01*
X103274681Y-57993572D01*
X103367255Y-58132119D01*
X103431021Y-58286064D01*
X103463529Y-58449491D01*
X103463529Y-58616121D01*
X103431021Y-58779548D01*
X103367255Y-58933493D01*
X103274681Y-59072040D01*
X103156856Y-59189865D01*
X103018309Y-59282439D01*
X102864364Y-59346205D01*
X102700937Y-59378713D01*
X102534307Y-59378713D01*
X102370880Y-59346205D01*
X102216935Y-59282439D01*
X102078388Y-59189865D01*
X101960563Y-59072040D01*
X101867989Y-58933493D01*
X101804223Y-58779548D01*
X101771715Y-58616121D01*
X101771715Y-58449491D01*
X101804223Y-58286064D01*
X101867989Y-58132119D01*
X101960563Y-57993572D01*
X102078388Y-57875747D01*
X102216935Y-57783173D01*
X102370880Y-57719407D01*
X102534307Y-57686899D01*
X102700937Y-57686899D01*
X102864364Y-57719407D01*
G37*
G36*
X114746742Y-57451601D02*
G01*
X114900687Y-57515367D01*
X115039234Y-57607941D01*
X115157059Y-57725766D01*
X115249633Y-57864313D01*
X115313399Y-58018258D01*
X115345907Y-58181685D01*
X115345907Y-58348315D01*
X115313399Y-58511742D01*
X115249633Y-58665687D01*
X115157059Y-58804234D01*
X115039234Y-58922059D01*
X114900687Y-59014633D01*
X114746742Y-59078399D01*
X114583315Y-59110907D01*
X114416685Y-59110907D01*
X114253258Y-59078399D01*
X114099313Y-59014633D01*
X113960766Y-58922059D01*
X113842941Y-58804234D01*
X113750367Y-58665687D01*
X113686601Y-58511742D01*
X113654093Y-58348315D01*
X113654093Y-58181685D01*
X113686601Y-58018258D01*
X113750367Y-57864313D01*
X113842941Y-57725766D01*
X113960766Y-57607941D01*
X114099313Y-57515367D01*
X114253258Y-57451601D01*
X114416685Y-57419093D01*
X114583315Y-57419093D01*
X114746742Y-57451601D01*
G37*
G36*
X69521742Y-55961601D02*
G01*
X69675687Y-56025367D01*
X69814234Y-56117941D01*
X69932059Y-56235766D01*
X70024633Y-56374313D01*
X70088399Y-56528258D01*
X70120907Y-56691685D01*
X70120907Y-56858315D01*
X70088399Y-57021742D01*
X70024633Y-57175687D01*
X69932059Y-57314234D01*
X69814234Y-57432059D01*
X69675687Y-57524633D01*
X69521742Y-57588399D01*
X69358315Y-57620907D01*
X69191685Y-57620907D01*
X69028258Y-57588399D01*
X68874313Y-57524633D01*
X68735766Y-57432059D01*
X68617941Y-57314234D01*
X68525367Y-57175687D01*
X68461601Y-57021742D01*
X68429093Y-56858315D01*
X68429093Y-56691685D01*
X68461601Y-56528258D01*
X68525367Y-56374313D01*
X68617941Y-56235766D01*
X68735766Y-56117941D01*
X68874313Y-56025367D01*
X69028258Y-55961601D01*
X69191685Y-55929093D01*
X69358315Y-55929093D01*
X69521742Y-55961601D01*
G37*
G36*
X72061742Y-55961601D02*
G01*
X72215687Y-56025367D01*
X72354234Y-56117941D01*
X72472059Y-56235766D01*
X72564633Y-56374313D01*
X72628399Y-56528258D01*
X72660907Y-56691685D01*
X72660907Y-56858315D01*
X72628399Y-57021742D01*
X72564633Y-57175687D01*
X72472059Y-57314234D01*
X72354234Y-57432059D01*
X72215687Y-57524633D01*
X72061742Y-57588399D01*
X71898315Y-57620907D01*
X71731685Y-57620907D01*
X71568258Y-57588399D01*
X71414313Y-57524633D01*
X71275766Y-57432059D01*
X71157941Y-57314234D01*
X71065367Y-57175687D01*
X71001601Y-57021742D01*
X70969093Y-56858315D01*
X70969093Y-56691685D01*
X71001601Y-56528258D01*
X71065367Y-56374313D01*
X71157941Y-56235766D01*
X71275766Y-56117941D01*
X71414313Y-56025367D01*
X71568258Y-55961601D01*
X71731685Y-55929093D01*
X71898315Y-55929093D01*
X72061742Y-55961601D01*
G37*
G36*
X84746742Y-55386601D02*
G01*
X84900687Y-55450367D01*
X85039234Y-55542941D01*
X85157059Y-55660766D01*
X85249633Y-55799313D01*
X85313399Y-55953258D01*
X85345907Y-56116685D01*
X85345907Y-56283315D01*
X85313399Y-56446742D01*
X85249633Y-56600687D01*
X85157059Y-56739234D01*
X85039234Y-56857059D01*
X84900687Y-56949633D01*
X84746742Y-57013399D01*
X84583315Y-57045907D01*
X84416685Y-57045907D01*
X84253258Y-57013399D01*
X84099313Y-56949633D01*
X83960766Y-56857059D01*
X83842941Y-56739234D01*
X83750367Y-56600687D01*
X83686601Y-56446742D01*
X83654093Y-56283315D01*
X83654093Y-56116685D01*
X83686601Y-55953258D01*
X83750367Y-55799313D01*
X83842941Y-55660766D01*
X83960766Y-55542941D01*
X84099313Y-55450367D01*
X84253258Y-55386601D01*
X84416685Y-55354093D01*
X84583315Y-55354093D01*
X84746742Y-55386601D01*
G37*
G36*
X102864364Y-55179407D02*
G01*
X103018309Y-55243173D01*
X103156856Y-55335747D01*
X103274681Y-55453572D01*
X103367255Y-55592119D01*
X103431021Y-55746064D01*
X103463529Y-55909491D01*
X103463529Y-56076121D01*
X103431021Y-56239548D01*
X103367255Y-56393493D01*
X103274681Y-56532040D01*
X103156856Y-56649865D01*
X103018309Y-56742439D01*
X102864364Y-56806205D01*
X102700937Y-56838713D01*
X102534307Y-56838713D01*
X102370880Y-56806205D01*
X102216935Y-56742439D01*
X102078388Y-56649865D01*
X101960563Y-56532040D01*
X101867989Y-56393493D01*
X101804223Y-56239548D01*
X101771715Y-56076121D01*
X101771715Y-55909491D01*
X101804223Y-55746064D01*
X101867989Y-55592119D01*
X101960563Y-55453572D01*
X102078388Y-55335747D01*
X102216935Y-55243173D01*
X102370880Y-55179407D01*
X102534307Y-55146899D01*
X102700937Y-55146899D01*
X102864364Y-55179407D01*
G37*
G36*
X115350000Y-56575000D02*
G01*
X113650000Y-56575000D01*
X113650000Y-54875000D01*
X115350000Y-54875000D01*
X115350000Y-56575000D01*
G37*
G36*
X69521742Y-53421601D02*
G01*
X69675687Y-53485367D01*
X69814234Y-53577941D01*
X69932059Y-53695766D01*
X70024633Y-53834313D01*
X70088399Y-53988258D01*
X70120907Y-54151685D01*
X70120907Y-54318315D01*
X70088399Y-54481742D01*
X70024633Y-54635687D01*
X69932059Y-54774234D01*
X69814234Y-54892059D01*
X69675687Y-54984633D01*
X69521742Y-55048399D01*
X69358315Y-55080907D01*
X69191685Y-55080907D01*
X69028258Y-55048399D01*
X68874313Y-54984633D01*
X68735766Y-54892059D01*
X68617941Y-54774234D01*
X68525367Y-54635687D01*
X68461601Y-54481742D01*
X68429093Y-54318315D01*
X68429093Y-54151685D01*
X68461601Y-53988258D01*
X68525367Y-53834313D01*
X68617941Y-53695766D01*
X68735766Y-53577941D01*
X68874313Y-53485367D01*
X69028258Y-53421601D01*
X69191685Y-53389093D01*
X69358315Y-53389093D01*
X69521742Y-53421601D01*
G37*
G36*
X72061742Y-53421601D02*
G01*
X72215687Y-53485367D01*
X72354234Y-53577941D01*
X72472059Y-53695766D01*
X72564633Y-53834313D01*
X72628399Y-53988258D01*
X72660907Y-54151685D01*
X72660907Y-54318315D01*
X72628399Y-54481742D01*
X72564633Y-54635687D01*
X72472059Y-54774234D01*
X72354234Y-54892059D01*
X72215687Y-54984633D01*
X72061742Y-55048399D01*
X71898315Y-55080907D01*
X71731685Y-55080907D01*
X71568258Y-55048399D01*
X71414313Y-54984633D01*
X71275766Y-54892059D01*
X71157941Y-54774234D01*
X71065367Y-54635687D01*
X71001601Y-54481742D01*
X70969093Y-54318315D01*
X70969093Y-54151685D01*
X71001601Y-53988258D01*
X71065367Y-53834313D01*
X71157941Y-53695766D01*
X71275766Y-53577941D01*
X71414313Y-53485367D01*
X71568258Y-53421601D01*
X71731685Y-53389093D01*
X71898315Y-53389093D01*
X72061742Y-53421601D01*
G37*
G36*
X84746742Y-52846601D02*
G01*
X84900687Y-52910367D01*
X85039234Y-53002941D01*
X85157059Y-53120766D01*
X85249633Y-53259313D01*
X85313399Y-53413258D01*
X85345907Y-53576685D01*
X85345907Y-53743315D01*
X85313399Y-53906742D01*
X85249633Y-54060687D01*
X85157059Y-54199234D01*
X85039234Y-54317059D01*
X84900687Y-54409633D01*
X84746742Y-54473399D01*
X84583315Y-54505907D01*
X84416685Y-54505907D01*
X84253258Y-54473399D01*
X84099313Y-54409633D01*
X83960766Y-54317059D01*
X83842941Y-54199234D01*
X83750367Y-54060687D01*
X83686601Y-53906742D01*
X83654093Y-53743315D01*
X83654093Y-53576685D01*
X83686601Y-53413258D01*
X83750367Y-53259313D01*
X83842941Y-53120766D01*
X83960766Y-53002941D01*
X84099313Y-52910367D01*
X84253258Y-52846601D01*
X84416685Y-52814093D01*
X84583315Y-52814093D01*
X84746742Y-52846601D01*
G37*
G36*
X102864364Y-52639407D02*
G01*
X103018309Y-52703173D01*
X103156856Y-52795747D01*
X103274681Y-52913572D01*
X103367255Y-53052119D01*
X103431021Y-53206064D01*
X103463529Y-53369491D01*
X103463529Y-53536121D01*
X103431021Y-53699548D01*
X103367255Y-53853493D01*
X103274681Y-53992040D01*
X103156856Y-54109865D01*
X103018309Y-54202439D01*
X102864364Y-54266205D01*
X102700937Y-54298713D01*
X102534307Y-54298713D01*
X102370880Y-54266205D01*
X102216935Y-54202439D01*
X102078388Y-54109865D01*
X101960563Y-53992040D01*
X101867989Y-53853493D01*
X101804223Y-53699548D01*
X101771715Y-53536121D01*
X101771715Y-53369491D01*
X101804223Y-53206064D01*
X101867989Y-53052119D01*
X101960563Y-52913572D01*
X102078388Y-52795747D01*
X102216935Y-52703173D01*
X102370880Y-52639407D01*
X102534307Y-52606899D01*
X102700937Y-52606899D01*
X102864364Y-52639407D01*
G37*
G36*
X69521742Y-50881601D02*
G01*
X69675687Y-50945367D01*
X69814234Y-51037941D01*
X69932059Y-51155766D01*
X70024633Y-51294313D01*
X70088399Y-51448258D01*
X70120907Y-51611685D01*
X70120907Y-51778315D01*
X70088399Y-51941742D01*
X70024633Y-52095687D01*
X69932059Y-52234234D01*
X69814234Y-52352059D01*
X69675687Y-52444633D01*
X69521742Y-52508399D01*
X69358315Y-52540907D01*
X69191685Y-52540907D01*
X69028258Y-52508399D01*
X68874313Y-52444633D01*
X68735766Y-52352059D01*
X68617941Y-52234234D01*
X68525367Y-52095687D01*
X68461601Y-51941742D01*
X68429093Y-51778315D01*
X68429093Y-51611685D01*
X68461601Y-51448258D01*
X68525367Y-51294313D01*
X68617941Y-51155766D01*
X68735766Y-51037941D01*
X68874313Y-50945367D01*
X69028258Y-50881601D01*
X69191685Y-50849093D01*
X69358315Y-50849093D01*
X69521742Y-50881601D01*
G37*
G36*
X72061742Y-50881601D02*
G01*
X72215687Y-50945367D01*
X72354234Y-51037941D01*
X72472059Y-51155766D01*
X72564633Y-51294313D01*
X72628399Y-51448258D01*
X72660907Y-51611685D01*
X72660907Y-51778315D01*
X72628399Y-51941742D01*
X72564633Y-52095687D01*
X72472059Y-52234234D01*
X72354234Y-52352059D01*
X72215687Y-52444633D01*
X72061742Y-52508399D01*
X71898315Y-52540907D01*
X71731685Y-52540907D01*
X71568258Y-52508399D01*
X71414313Y-52444633D01*
X71275766Y-52352059D01*
X71157941Y-52234234D01*
X71065367Y-52095687D01*
X71001601Y-51941742D01*
X70969093Y-51778315D01*
X70969093Y-51611685D01*
X71001601Y-51448258D01*
X71065367Y-51294313D01*
X71157941Y-51155766D01*
X71275766Y-51037941D01*
X71414313Y-50945367D01*
X71568258Y-50881601D01*
X71731685Y-50849093D01*
X71898315Y-50849093D01*
X72061742Y-50881601D01*
G37*
G36*
X84746742Y-50306601D02*
G01*
X84900687Y-50370367D01*
X85039234Y-50462941D01*
X85157059Y-50580766D01*
X85249633Y-50719313D01*
X85313399Y-50873258D01*
X85345907Y-51036685D01*
X85345907Y-51203315D01*
X85313399Y-51366742D01*
X85249633Y-51520687D01*
X85157059Y-51659234D01*
X85039234Y-51777059D01*
X84900687Y-51869633D01*
X84746742Y-51933399D01*
X84583315Y-51965907D01*
X84416685Y-51965907D01*
X84253258Y-51933399D01*
X84099313Y-51869633D01*
X83960766Y-51777059D01*
X83842941Y-51659234D01*
X83750367Y-51520687D01*
X83686601Y-51366742D01*
X83654093Y-51203315D01*
X83654093Y-51036685D01*
X83686601Y-50873258D01*
X83750367Y-50719313D01*
X83842941Y-50580766D01*
X83960766Y-50462941D01*
X84099313Y-50370367D01*
X84253258Y-50306601D01*
X84416685Y-50274093D01*
X84583315Y-50274093D01*
X84746742Y-50306601D01*
G37*
G36*
X102864364Y-50099407D02*
G01*
X103018309Y-50163173D01*
X103156856Y-50255747D01*
X103274681Y-50373572D01*
X103367255Y-50512119D01*
X103431021Y-50666064D01*
X103463529Y-50829491D01*
X103463529Y-50996121D01*
X103431021Y-51159548D01*
X103367255Y-51313493D01*
X103274681Y-51452040D01*
X103156856Y-51569865D01*
X103018309Y-51662439D01*
X102864364Y-51726205D01*
X102700937Y-51758713D01*
X102534307Y-51758713D01*
X102370880Y-51726205D01*
X102216935Y-51662439D01*
X102078388Y-51569865D01*
X101960563Y-51452040D01*
X101867989Y-51313493D01*
X101804223Y-51159548D01*
X101771715Y-50996121D01*
X101771715Y-50829491D01*
X101804223Y-50666064D01*
X101867989Y-50512119D01*
X101960563Y-50373572D01*
X102078388Y-50255747D01*
X102216935Y-50163173D01*
X102370880Y-50099407D01*
X102534307Y-50066899D01*
X102700937Y-50066899D01*
X102864364Y-50099407D01*
G37*
G36*
X84746742Y-47766601D02*
G01*
X84900687Y-47830367D01*
X85039234Y-47922941D01*
X85157059Y-48040766D01*
X85249633Y-48179313D01*
X85313399Y-48333258D01*
X85345907Y-48496685D01*
X85345907Y-48663315D01*
X85313399Y-48826742D01*
X85249633Y-48980687D01*
X85157059Y-49119234D01*
X85039234Y-49237059D01*
X84900687Y-49329633D01*
X84746742Y-49393399D01*
X84583315Y-49425907D01*
X84416685Y-49425907D01*
X84253258Y-49393399D01*
X84099313Y-49329633D01*
X83960766Y-49237059D01*
X83842941Y-49119234D01*
X83750367Y-48980687D01*
X83686601Y-48826742D01*
X83654093Y-48663315D01*
X83654093Y-48496685D01*
X83686601Y-48333258D01*
X83750367Y-48179313D01*
X83842941Y-48040766D01*
X83960766Y-47922941D01*
X84099313Y-47830367D01*
X84253258Y-47766601D01*
X84416685Y-47734093D01*
X84583315Y-47734093D01*
X84746742Y-47766601D01*
G37*
G36*
X102864364Y-47559407D02*
G01*
X103018309Y-47623173D01*
X103156856Y-47715747D01*
X103274681Y-47833572D01*
X103367255Y-47972119D01*
X103431021Y-48126064D01*
X103463529Y-48289491D01*
X103463529Y-48456121D01*
X103431021Y-48619548D01*
X103367255Y-48773493D01*
X103274681Y-48912040D01*
X103156856Y-49029865D01*
X103018309Y-49122439D01*
X102864364Y-49186205D01*
X102700937Y-49218713D01*
X102534307Y-49218713D01*
X102370880Y-49186205D01*
X102216935Y-49122439D01*
X102078388Y-49029865D01*
X101960563Y-48912040D01*
X101867989Y-48773493D01*
X101804223Y-48619548D01*
X101771715Y-48456121D01*
X101771715Y-48289491D01*
X101804223Y-48126064D01*
X101867989Y-47972119D01*
X101960563Y-47833572D01*
X102078388Y-47715747D01*
X102216935Y-47623173D01*
X102370880Y-47559407D01*
X102534307Y-47526899D01*
X102700937Y-47526899D01*
X102864364Y-47559407D01*
G37*
G36*
X84746742Y-45226601D02*
G01*
X84900687Y-45290367D01*
X85039234Y-45382941D01*
X85157059Y-45500766D01*
X85249633Y-45639313D01*
X85313399Y-45793258D01*
X85345907Y-45956685D01*
X85345907Y-46123315D01*
X85313399Y-46286742D01*
X85249633Y-46440687D01*
X85157059Y-46579234D01*
X85039234Y-46697059D01*
X84900687Y-46789633D01*
X84746742Y-46853399D01*
X84583315Y-46885907D01*
X84416685Y-46885907D01*
X84253258Y-46853399D01*
X84099313Y-46789633D01*
X83960766Y-46697059D01*
X83842941Y-46579234D01*
X83750367Y-46440687D01*
X83686601Y-46286742D01*
X83654093Y-46123315D01*
X83654093Y-45956685D01*
X83686601Y-45793258D01*
X83750367Y-45639313D01*
X83842941Y-45500766D01*
X83960766Y-45382941D01*
X84099313Y-45290367D01*
X84253258Y-45226601D01*
X84416685Y-45194093D01*
X84583315Y-45194093D01*
X84746742Y-45226601D01*
G37*
G36*
X102864364Y-45019407D02*
G01*
X103018309Y-45083173D01*
X103156856Y-45175747D01*
X103274681Y-45293572D01*
X103367255Y-45432119D01*
X103431021Y-45586064D01*
X103463529Y-45749491D01*
X103463529Y-45916121D01*
X103431021Y-46079548D01*
X103367255Y-46233493D01*
X103274681Y-46372040D01*
X103156856Y-46489865D01*
X103018309Y-46582439D01*
X102864364Y-46646205D01*
X102700937Y-46678713D01*
X102534307Y-46678713D01*
X102370880Y-46646205D01*
X102216935Y-46582439D01*
X102078388Y-46489865D01*
X101960563Y-46372040D01*
X101867989Y-46233493D01*
X101804223Y-46079548D01*
X101771715Y-45916121D01*
X101771715Y-45749491D01*
X101804223Y-45586064D01*
X101867989Y-45432119D01*
X101960563Y-45293572D01*
X102078388Y-45175747D01*
X102216935Y-45083173D01*
X102370880Y-45019407D01*
X102534307Y-44986899D01*
X102700937Y-44986899D01*
X102864364Y-45019407D01*
G37*
G36*
X84746742Y-42686601D02*
G01*
X84900687Y-42750367D01*
X85039234Y-42842941D01*
X85157059Y-42960766D01*
X85249633Y-43099313D01*
X85313399Y-43253258D01*
X85345907Y-43416685D01*
X85345907Y-43583315D01*
X85313399Y-43746742D01*
X85249633Y-43900687D01*
X85157059Y-44039234D01*
X85039234Y-44157059D01*
X84900687Y-44249633D01*
X84746742Y-44313399D01*
X84583315Y-44345907D01*
X84416685Y-44345907D01*
X84253258Y-44313399D01*
X84099313Y-44249633D01*
X83960766Y-44157059D01*
X83842941Y-44039234D01*
X83750367Y-43900687D01*
X83686601Y-43746742D01*
X83654093Y-43583315D01*
X83654093Y-43416685D01*
X83686601Y-43253258D01*
X83750367Y-43099313D01*
X83842941Y-42960766D01*
X83960766Y-42842941D01*
X84099313Y-42750367D01*
X84253258Y-42686601D01*
X84416685Y-42654093D01*
X84583315Y-42654093D01*
X84746742Y-42686601D01*
G37*
G36*
X102864364Y-42479407D02*
G01*
X103018309Y-42543173D01*
X103156856Y-42635747D01*
X103274681Y-42753572D01*
X103367255Y-42892119D01*
X103431021Y-43046064D01*
X103463529Y-43209491D01*
X103463529Y-43376121D01*
X103431021Y-43539548D01*
X103367255Y-43693493D01*
X103274681Y-43832040D01*
X103156856Y-43949865D01*
X103018309Y-44042439D01*
X102864364Y-44106205D01*
X102700937Y-44138713D01*
X102534307Y-44138713D01*
X102370880Y-44106205D01*
X102216935Y-44042439D01*
X102078388Y-43949865D01*
X101960563Y-43832040D01*
X101867989Y-43693493D01*
X101804223Y-43539548D01*
X101771715Y-43376121D01*
X101771715Y-43209491D01*
X101804223Y-43046064D01*
X101867989Y-42892119D01*
X101960563Y-42753572D01*
X102078388Y-42635747D01*
X102216935Y-42543173D01*
X102370880Y-42479407D01*
X102534307Y-42446899D01*
X102700937Y-42446899D01*
X102864364Y-42479407D01*
G37*
G36*
X84746742Y-40146601D02*
G01*
X84900687Y-40210367D01*
X85039234Y-40302941D01*
X85157059Y-40420766D01*
X85249633Y-40559313D01*
X85313399Y-40713258D01*
X85345907Y-40876685D01*
X85345907Y-41043315D01*
X85313399Y-41206742D01*
X85249633Y-41360687D01*
X85157059Y-41499234D01*
X85039234Y-41617059D01*
X84900687Y-41709633D01*
X84746742Y-41773399D01*
X84583315Y-41805907D01*
X84416685Y-41805907D01*
X84253258Y-41773399D01*
X84099313Y-41709633D01*
X83960766Y-41617059D01*
X83842941Y-41499234D01*
X83750367Y-41360687D01*
X83686601Y-41206742D01*
X83654093Y-41043315D01*
X83654093Y-40876685D01*
X83686601Y-40713258D01*
X83750367Y-40559313D01*
X83842941Y-40420766D01*
X83960766Y-40302941D01*
X84099313Y-40210367D01*
X84253258Y-40146601D01*
X84416685Y-40114093D01*
X84583315Y-40114093D01*
X84746742Y-40146601D01*
G37*
G36*
X102864364Y-39939407D02*
G01*
X103018309Y-40003173D01*
X103156856Y-40095747D01*
X103274681Y-40213572D01*
X103367255Y-40352119D01*
X103431021Y-40506064D01*
X103463529Y-40669491D01*
X103463529Y-40836121D01*
X103431021Y-40999548D01*
X103367255Y-41153493D01*
X103274681Y-41292040D01*
X103156856Y-41409865D01*
X103018309Y-41502439D01*
X102864364Y-41566205D01*
X102700937Y-41598713D01*
X102534307Y-41598713D01*
X102370880Y-41566205D01*
X102216935Y-41502439D01*
X102078388Y-41409865D01*
X101960563Y-41292040D01*
X101867989Y-41153493D01*
X101804223Y-40999548D01*
X101771715Y-40836121D01*
X101771715Y-40669491D01*
X101804223Y-40506064D01*
X101867989Y-40352119D01*
X101960563Y-40213572D01*
X102078388Y-40095747D01*
X102216935Y-40003173D01*
X102370880Y-39939407D01*
X102534307Y-39906899D01*
X102700937Y-39906899D01*
X102864364Y-39939407D01*
G37*
G36*
X115350000Y-40600000D02*
G01*
X113650000Y-40600000D01*
X113650000Y-38900000D01*
X115350000Y-38900000D01*
X115350000Y-40600000D01*
G37*
G36*
X112206742Y-38936601D02*
G01*
X112360687Y-39000367D01*
X112499234Y-39092941D01*
X112617059Y-39210766D01*
X112709633Y-39349313D01*
X112773399Y-39503258D01*
X112805907Y-39666685D01*
X112805907Y-39833315D01*
X112773399Y-39996742D01*
X112709633Y-40150687D01*
X112617059Y-40289234D01*
X112499234Y-40407059D01*
X112360687Y-40499633D01*
X112206742Y-40563399D01*
X112043315Y-40595907D01*
X111876685Y-40595907D01*
X111713258Y-40563399D01*
X111559313Y-40499633D01*
X111420766Y-40407059D01*
X111302941Y-40289234D01*
X111210367Y-40150687D01*
X111146601Y-39996742D01*
X111114093Y-39833315D01*
X111114093Y-39666685D01*
X111146601Y-39503258D01*
X111210367Y-39349313D01*
X111302941Y-39210766D01*
X111420766Y-39092941D01*
X111559313Y-39000367D01*
X111713258Y-38936601D01*
X111876685Y-38904093D01*
X112043315Y-38904093D01*
X112206742Y-38936601D01*
G37*
G36*
X84746742Y-37606601D02*
G01*
X84900687Y-37670367D01*
X85039234Y-37762941D01*
X85157059Y-37880766D01*
X85249633Y-38019313D01*
X85313399Y-38173258D01*
X85345907Y-38336685D01*
X85345907Y-38503315D01*
X85313399Y-38666742D01*
X85249633Y-38820687D01*
X85157059Y-38959234D01*
X85039234Y-39077059D01*
X84900687Y-39169633D01*
X84746742Y-39233399D01*
X84583315Y-39265907D01*
X84416685Y-39265907D01*
X84253258Y-39233399D01*
X84099313Y-39169633D01*
X83960766Y-39077059D01*
X83842941Y-38959234D01*
X83750367Y-38820687D01*
X83686601Y-38666742D01*
X83654093Y-38503315D01*
X83654093Y-38336685D01*
X83686601Y-38173258D01*
X83750367Y-38019313D01*
X83842941Y-37880766D01*
X83960766Y-37762941D01*
X84099313Y-37670367D01*
X84253258Y-37606601D01*
X84416685Y-37574093D01*
X84583315Y-37574093D01*
X84746742Y-37606601D01*
G37*
G36*
X102864364Y-37399407D02*
G01*
X103018309Y-37463173D01*
X103156856Y-37555747D01*
X103274681Y-37673572D01*
X103367255Y-37812119D01*
X103431021Y-37966064D01*
X103463529Y-38129491D01*
X103463529Y-38296121D01*
X103431021Y-38459548D01*
X103367255Y-38613493D01*
X103274681Y-38752040D01*
X103156856Y-38869865D01*
X103018309Y-38962439D01*
X102864364Y-39026205D01*
X102700937Y-39058713D01*
X102534307Y-39058713D01*
X102370880Y-39026205D01*
X102216935Y-38962439D01*
X102078388Y-38869865D01*
X101960563Y-38752040D01*
X101867989Y-38613493D01*
X101804223Y-38459548D01*
X101771715Y-38296121D01*
X101771715Y-38129491D01*
X101804223Y-37966064D01*
X101867989Y-37812119D01*
X101960563Y-37673572D01*
X102078388Y-37555747D01*
X102216935Y-37463173D01*
X102370880Y-37399407D01*
X102534307Y-37366899D01*
X102700937Y-37366899D01*
X102864364Y-37399407D01*
G37*
G36*
X84746742Y-35066601D02*
G01*
X84900687Y-35130367D01*
X85039234Y-35222941D01*
X85157059Y-35340766D01*
X85249633Y-35479313D01*
X85313399Y-35633258D01*
X85345907Y-35796685D01*
X85345907Y-35963315D01*
X85313399Y-36126742D01*
X85249633Y-36280687D01*
X85157059Y-36419234D01*
X85039234Y-36537059D01*
X84900687Y-36629633D01*
X84746742Y-36693399D01*
X84583315Y-36725907D01*
X84416685Y-36725907D01*
X84253258Y-36693399D01*
X84099313Y-36629633D01*
X83960766Y-36537059D01*
X83842941Y-36419234D01*
X83750367Y-36280687D01*
X83686601Y-36126742D01*
X83654093Y-35963315D01*
X83654093Y-35796685D01*
X83686601Y-35633258D01*
X83750367Y-35479313D01*
X83842941Y-35340766D01*
X83960766Y-35222941D01*
X84099313Y-35130367D01*
X84253258Y-35066601D01*
X84416685Y-35034093D01*
X84583315Y-35034093D01*
X84746742Y-35066601D01*
G37*
G36*
X102864364Y-34859407D02*
G01*
X103018309Y-34923173D01*
X103156856Y-35015747D01*
X103274681Y-35133572D01*
X103367255Y-35272119D01*
X103431021Y-35426064D01*
X103463529Y-35589491D01*
X103463529Y-35756121D01*
X103431021Y-35919548D01*
X103367255Y-36073493D01*
X103274681Y-36212040D01*
X103156856Y-36329865D01*
X103018309Y-36422439D01*
X102864364Y-36486205D01*
X102700937Y-36518713D01*
X102534307Y-36518713D01*
X102370880Y-36486205D01*
X102216935Y-36422439D01*
X102078388Y-36329865D01*
X101960563Y-36212040D01*
X101867989Y-36073493D01*
X101804223Y-35919548D01*
X101771715Y-35756121D01*
X101771715Y-35589491D01*
X101804223Y-35426064D01*
X101867989Y-35272119D01*
X101960563Y-35133572D01*
X102078388Y-35015747D01*
X102216935Y-34923173D01*
X102370880Y-34859407D01*
X102534307Y-34826899D01*
X102700937Y-34826899D01*
X102864364Y-34859407D01*
G37*
G36*
X85350000Y-34190000D02*
G01*
X83650000Y-34190000D01*
X83650000Y-32490000D01*
X85350000Y-32490000D01*
X85350000Y-34190000D01*
G37*
G36*
X103467622Y-33982806D02*
G01*
X101767622Y-33982806D01*
X101767622Y-32282806D01*
X103467622Y-32282806D01*
X103467622Y-33982806D01*
G37*
M02*
