%TF.GenerationSoftware,KiCad,Pcbnew,10.0.3*%
%TF.CreationDate,2026-05-28T20:27:43-07:00*%
%TF.ProjectId,Encoder Board,456e636f-6465-4722-9042-6f6172642e6b,rev?*%
%TF.SameCoordinates,Original*%
%TF.FileFunction,Copper,L2,Bot*%
%TF.FilePolarity,Positive*%
%FSLAX46Y46*%
G04 Gerber Fmt 4.6, Leading zero omitted, Abs format (unit mm)*
G04 Created by KiCad (PCBNEW 10.0.3) date 2026-05-28 20:27:43*
%MOMM*%
%LPD*%
G01*
G04 APERTURE LIST*
G04 Aperture macros list*
%AMRoundRect*
0 Rectangle with rounded corners*
0 $1 Rounding radius*
0 $2 $3 $4 $5 $6 $7 $8 $9 X,Y pos of 4 corners*
0 Add a 4 corners polygon primitive as box body*
4,1,4,$2,$3,$4,$5,$6,$7,$8,$9,$2,$3,0*
0 Add four circle primitives for the rounded corners*
1,1,$1+$1,$2,$3*
1,1,$1+$1,$4,$5*
1,1,$1+$1,$6,$7*
1,1,$1+$1,$8,$9*
0 Add four rect primitives between the rounded corners*
20,1,$1+$1,$2,$3,$4,$5,0*
20,1,$1+$1,$4,$5,$6,$7,0*
20,1,$1+$1,$6,$7,$8,$9,0*
20,1,$1+$1,$8,$9,$2,$3,0*%
%AMFreePoly0*
4,1,37,0.603843,0.796157,0.639018,0.796157,0.711114,0.766294,0.766294,0.711114,0.796157,0.639018,0.796157,0.603843,0.800000,0.600000,0.800000,-0.600000,0.796157,-0.603843,0.796157,-0.639018,0.766294,-0.711114,0.711114,-0.766294,0.639018,-0.796157,0.603843,-0.796157,0.600000,-0.800000,0.000000,-0.800000,0.000000,-0.796148,-0.078414,-0.796148,-0.232228,-0.765552,-0.377117,-0.705537,
-0.507515,-0.618408,-0.618408,-0.507515,-0.705537,-0.377117,-0.765552,-0.232228,-0.796148,-0.078414,-0.796148,0.078414,-0.765552,0.232228,-0.705537,0.377117,-0.618408,0.507515,-0.507515,0.618408,-0.377117,0.705537,-0.232228,0.765552,-0.078414,0.796148,0.000000,0.796148,0.000000,0.800000,0.600000,0.800000,0.603843,0.796157,0.603843,0.796157,$1*%
%AMFreePoly1*
4,1,37,0.000000,0.796148,0.078414,0.796148,0.232228,0.765552,0.377117,0.705537,0.507515,0.618408,0.618408,0.507515,0.705537,0.377117,0.765552,0.232228,0.796148,0.078414,0.796148,-0.078414,0.765552,-0.232228,0.705537,-0.377117,0.618408,-0.507515,0.507515,-0.618408,0.377117,-0.705537,0.232228,-0.765552,0.078414,-0.796148,0.000000,-0.796148,0.000000,-0.800000,-0.600000,-0.800000,
-0.603843,-0.796157,-0.639018,-0.796157,-0.711114,-0.766294,-0.766294,-0.711114,-0.796157,-0.639018,-0.796157,-0.603843,-0.800000,-0.600000,-0.800000,0.600000,-0.796157,0.603843,-0.796157,0.639018,-0.766294,0.711114,-0.711114,0.766294,-0.639018,0.796157,-0.603843,0.796157,-0.600000,0.800000,0.000000,0.800000,0.000000,0.796148,0.000000,0.796148,$1*%
G04 Aperture macros list end*
%TA.AperFunction,ComponentPad*%
%ADD10R,1.700000X1.700000*%
%TD*%
%TA.AperFunction,ComponentPad*%
%ADD11C,1.700000*%
%TD*%
%TA.AperFunction,ComponentPad*%
%ADD12RoundRect,0.200000X-0.600000X-0.600000X0.600000X-0.600000X0.600000X0.600000X-0.600000X0.600000X0*%
%TD*%
%TA.AperFunction,ComponentPad*%
%ADD13C,1.600000*%
%TD*%
%TA.AperFunction,ComponentPad*%
%ADD14FreePoly0,0.000000*%
%TD*%
%TA.AperFunction,ComponentPad*%
%ADD15FreePoly1,0.000000*%
%TD*%
%TA.AperFunction,ViaPad*%
%ADD16C,0.610000*%
%TD*%
%TA.AperFunction,ViaPad*%
%ADD17C,1.200000*%
%TD*%
%TA.AperFunction,ViaPad*%
%ADD18C,0.600000*%
%TD*%
%TA.AperFunction,Conductor*%
%ADD19C,0.152400*%
%TD*%
%TA.AperFunction,Conductor*%
%ADD20C,0.300000*%
%TD*%
%TA.AperFunction,Conductor*%
%ADD21C,0.200000*%
%TD*%
G04 APERTURE END LIST*
D10*
%TO.P,J2,1,Pin_1_1*%
%TO.N,GND*%
X120725000Y-67960000D03*
D11*
%TO.P,J2,2,Pin_2_2*%
X123265000Y-67960000D03*
%TO.P,J2,3,Pin_3_3*%
%TO.N,/INDEX_N*%
X120725000Y-70500000D03*
%TO.P,J2,4,Pin_4_4*%
%TO.N,/INDEX*%
X123265000Y-70500000D03*
%TO.P,J2,5,Pin_5_5*%
%TO.N,/A_N*%
X120725000Y-73040000D03*
%TO.P,J2,6,Pin_6_6*%
%TO.N,/A*%
X123265000Y-73040000D03*
%TO.P,J2,7,Pin_7_7*%
%TO.N,+5V_E*%
X120725000Y-75580000D03*
%TO.P,J2,8,Pin_8_8*%
X123265000Y-75580000D03*
%TO.P,J2,9,Pin_9_9*%
%TO.N,/B_N*%
X120725000Y-78120000D03*
%TO.P,J2,10,Pin_10_10*%
%TO.N,/B*%
X123265000Y-78120000D03*
%TD*%
D10*
%TO.P,J4,1,Pin_1_1*%
%TO.N,/TRIGGER*%
X122500000Y-86225000D03*
D11*
%TO.P,J4,2,Pin_2_2*%
%TO.N,GND*%
X122500000Y-88765000D03*
%TD*%
D10*
%TO.P,J3,1,Pin_1_1*%
%TO.N,+5V_S*%
X122500000Y-59225000D03*
D11*
%TO.P,J3,2,Pin_2_2*%
%TO.N,GND*%
X122500000Y-61765000D03*
%TD*%
D12*
%TO.P,A1,1,GPIO0_1*%
%TO.N,unconnected-(A1-GPIO0-Pad1)*%
X96885000Y-41640000D03*
D13*
%TO.P,A1,2,GPIO1_2*%
%TO.N,unconnected-(A1-GPIO1-Pad2)_1*%
X96885000Y-44180000D03*
D14*
%TO.P,A1,3,GND_3*%
%TO.N,GND*%
X96885000Y-46720000D03*
D13*
%TO.P,A1,4,GPIO2_4*%
%TO.N,/A_3V3*%
X96885000Y-49260000D03*
%TO.P,A1,5,GPIO3_5*%
%TO.N,/B_3V3*%
X96885000Y-51800000D03*
%TO.P,A1,6,GPIO4_6*%
%TO.N,/INDEX_3V3*%
X96885000Y-54340000D03*
%TO.P,A1,7,GPIO5_7*%
%TO.N,unconnected-(A1-GPIO5-Pad7)*%
X96885000Y-56880000D03*
D14*
%TO.P,A1,8,GND_8*%
%TO.N,GND*%
X96885000Y-59420000D03*
D13*
%TO.P,A1,9,GPIO6_9*%
%TO.N,unconnected-(A1-GPIO6-Pad9)*%
X96885000Y-61960000D03*
%TO.P,A1,10,GPIO7_10*%
%TO.N,unconnected-(A1-GPIO7-Pad10)*%
X96885000Y-64500000D03*
%TO.P,A1,11,GPIO8_11*%
%TO.N,unconnected-(A1-GPIO8-Pad11)*%
X96885000Y-67040000D03*
%TO.P,A1,12,GPIO9_12*%
%TO.N,unconnected-(A1-GPIO9-Pad12)_1*%
X96885000Y-69580000D03*
D14*
%TO.P,A1,13,GND_13*%
%TO.N,GND*%
X96885000Y-72120000D03*
D13*
%TO.P,A1,14,GPIO10_14*%
%TO.N,unconnected-(A1-GPIO10-Pad14)*%
X96885000Y-74660000D03*
%TO.P,A1,15,GPIO11_15*%
%TO.N,unconnected-(A1-GPIO11-Pad15)*%
X96885000Y-77200000D03*
%TO.P,A1,16,GPIO12_16*%
%TO.N,unconnected-(A1-GPIO12-Pad16)_1*%
X96885000Y-79740000D03*
%TO.P,A1,17,GPIO13_17*%
%TO.N,unconnected-(A1-GPIO13-Pad17)_1*%
X96885000Y-82280000D03*
D14*
%TO.P,A1,18,GND_18*%
%TO.N,GND*%
X96885000Y-84820000D03*
D13*
%TO.P,A1,19,GPIO14_19*%
%TO.N,unconnected-(A1-GPIO14-Pad19)*%
X96885000Y-87360000D03*
%TO.P,A1,20,GPIO15_20*%
%TO.N,unconnected-(A1-GPIO15-Pad20)*%
X96885000Y-89900000D03*
%TO.P,A1,21,GPIO16_21*%
%TO.N,unconnected-(A1-GPIO16-Pad21)*%
X114665000Y-89900000D03*
%TO.P,A1,22,GPIO17_22*%
%TO.N,unconnected-(A1-GPIO17-Pad22)_1*%
X114665000Y-87360000D03*
D15*
%TO.P,A1,23,GND_23*%
%TO.N,GND*%
X114665000Y-84820000D03*
D13*
%TO.P,A1,24,GPIO18_24*%
%TO.N,unconnected-(A1-GPIO18-Pad24)*%
X114665000Y-82280000D03*
%TO.P,A1,25,GPIO19_25*%
%TO.N,unconnected-(A1-GPIO19-Pad25)_1*%
X114665000Y-79740000D03*
%TO.P,A1,26,GPIO20_26*%
%TO.N,unconnected-(A1-GPIO20-Pad26)*%
X114665000Y-77200000D03*
%TO.P,A1,27,GPIO21_27*%
%TO.N,/TRIGGER*%
X114665000Y-74660000D03*
D15*
%TO.P,A1,28,GND_28*%
%TO.N,GND*%
X114665000Y-72120000D03*
D13*
%TO.P,A1,29,GPIO22_29*%
%TO.N,unconnected-(A1-GPIO22-Pad29)*%
X114665000Y-69580000D03*
%TO.P,A1,30,RUN_30*%
%TO.N,unconnected-(A1-RUN-Pad30)*%
X114665000Y-67040000D03*
%TO.P,A1,31,GPIO26_ADC0_31*%
%TO.N,unconnected-(A1-GPIO26_ADC0-Pad31)_1*%
X114665000Y-64500000D03*
%TO.P,A1,32,GPIO27_ADC1_32*%
%TO.N,unconnected-(A1-GPIO27_ADC1-Pad32)*%
X114665000Y-61960000D03*
D15*
%TO.P,A1,33,AGND_33*%
%TO.N,Net-(A1-AGND)*%
X114665000Y-59420000D03*
D13*
%TO.P,A1,34,GPIO28_ADC2_34*%
%TO.N,unconnected-(A1-GPIO28_ADC2-Pad34)*%
X114665000Y-56880000D03*
%TO.P,A1,35,ADC_VREF_35*%
%TO.N,unconnected-(A1-ADC_VREF-Pad35)_1*%
X114665000Y-54340000D03*
%TO.P,A1,36,3V3_36*%
%TO.N,+3V3*%
X114665000Y-51800000D03*
%TO.P,A1,37,3V3_EN_37*%
%TO.N,unconnected-(A1-3V3_EN-Pad37)*%
X114665000Y-49260000D03*
D15*
%TO.P,A1,38,GND_38*%
%TO.N,GND*%
X114665000Y-46720000D03*
D13*
%TO.P,A1,39,VSYS_39*%
%TO.N,Net-(A1-VSYS)*%
X114665000Y-44180000D03*
%TO.P,A1,40,VBUS_40*%
%TO.N,unconnected-(A1-VBUS-Pad40)*%
X114665000Y-41640000D03*
%TD*%
D10*
%TO.P,J1,1,Pin_1_1*%
%TO.N,GND*%
X82500000Y-78120000D03*
D11*
%TO.P,J1,2,Pin_2_2*%
X79960000Y-78120000D03*
%TO.P,J1,3,Pin_3_3*%
%TO.N,/INDEX_N*%
X82500000Y-75580000D03*
%TO.P,J1,4,Pin_4_4*%
%TO.N,/INDEX*%
X79960000Y-75580000D03*
%TO.P,J1,5,Pin_5_5*%
%TO.N,/A_N*%
X82500000Y-73040000D03*
%TO.P,J1,6,Pin_6_6*%
%TO.N,/A*%
X79960000Y-73040000D03*
%TO.P,J1,7,Pin_7_7*%
%TO.N,+5V_E*%
X82500000Y-70500000D03*
%TO.P,J1,8,Pin_8_8*%
X79960000Y-70500000D03*
%TO.P,J1,9,Pin_9_9*%
%TO.N,/B_N*%
X82500000Y-67960000D03*
%TO.P,J1,10,Pin_10_10*%
%TO.N,/B*%
X79960000Y-67960000D03*
%TD*%
D16*
%TO.N,GND*%
X117500000Y-72500000D03*
X118986319Y-71986319D03*
%TO.N,/INDEX_N*%
X89250000Y-74250000D03*
D17*
%TO.N,+5V_E*%
X111500000Y-78500000D03*
X103000000Y-72000000D03*
D16*
%TO.N,/INDEX_N*%
X105000000Y-71000000D03*
%TO.N,/INDEX*%
X105000000Y-69000000D03*
%TO.N,/B*%
X106000000Y-67500000D03*
%TO.N,/INDEX*%
X88000000Y-74500000D03*
%TO.N,/B_N*%
X106500000Y-68140000D03*
D18*
%TO.N,+3V3*%
X85900000Y-50300000D03*
X86900000Y-48100000D03*
%TO.N,GND*%
X91600000Y-50037500D03*
X91600000Y-52300000D03*
X91600000Y-46500000D03*
%TD*%
%TO.N,GND*%
D19*
X118013681Y-71986319D02*
X118986319Y-71986319D01*
X117500000Y-72500000D02*
X118013681Y-71986319D01*
%TO.N,+5V_E*%
D20*
X101965000Y-70965000D02*
X83065000Y-70965000D01*
X103000000Y-72000000D02*
X101965000Y-70965000D01*
X83065000Y-70965000D02*
X83015000Y-71015000D01*
D21*
X83015000Y-71015000D02*
X82500000Y-70500000D01*
%TO.N,/INDEX_N*%
X87920000Y-75580000D02*
X82500000Y-75580000D01*
X89250000Y-74250000D02*
X87920000Y-75580000D01*
%TO.N,+5V_E*%
D20*
X117805000Y-78500000D02*
X120725000Y-75580000D01*
X111500000Y-78500000D02*
X117805000Y-78500000D01*
%TO.N,/INDEX_N*%
D21*
X120225000Y-71000000D02*
X120725000Y-70500000D01*
X105000000Y-71000000D02*
X120225000Y-71000000D01*
%TO.N,/INDEX*%
X118775000Y-69350000D02*
X122115000Y-69350000D01*
X117905000Y-68480000D02*
X118775000Y-69350000D01*
X110020000Y-68480000D02*
X117905000Y-68480000D01*
X109500000Y-69000000D02*
X110020000Y-68480000D01*
X122115000Y-69350000D02*
X123265000Y-70500000D01*
X105000000Y-69000000D02*
X109500000Y-69000000D01*
%TO.N,/B_N*%
X82680000Y-68140000D02*
X82500000Y-67960000D01*
X106500000Y-68140000D02*
X82680000Y-68140000D01*
%TO.N,/INDEX*%
X87930000Y-74430000D02*
X88000000Y-74500000D01*
X81110000Y-74430000D02*
X87930000Y-74430000D01*
%TO.N,+5V_E*%
D20*
X120725000Y-75580000D02*
X123265000Y-75580000D01*
%TO.N,/B_N*%
D21*
X83040000Y-68500000D02*
X82500000Y-67960000D01*
%TO.N,/A*%
X122115000Y-71890000D02*
X123265000Y-73040000D01*
X119835000Y-71890000D02*
X122115000Y-71890000D01*
X118500000Y-73225000D02*
X119835000Y-71890000D01*
%TO.N,/A_N*%
X118437448Y-75760000D02*
X120837000Y-73360448D01*
X94125000Y-73625000D02*
X96260000Y-75760000D01*
X84334315Y-73625000D02*
X94125000Y-73625000D01*
X83749314Y-73040000D02*
X84334315Y-73625000D01*
X96260000Y-75760000D02*
X118437448Y-75760000D01*
X82500000Y-73040000D02*
X83749314Y-73040000D01*
%TO.N,+3V3*%
X86900000Y-49300000D02*
X86900000Y-48100000D01*
X85900000Y-50300000D02*
X86900000Y-49300000D01*
%TO.N,GND*%
X91600000Y-46500000D02*
X91600000Y-50037500D01*
X91600000Y-50037500D02*
X91600000Y-52300000D01*
%TO.N,/A*%
X83165000Y-71890000D02*
X84500000Y-73225000D01*
X84500000Y-73225000D02*
X118500000Y-73225000D01*
X81110000Y-71890000D02*
X83165000Y-71890000D01*
X79960000Y-73040000D02*
X81110000Y-71890000D01*
%TO.N,/INDEX*%
X79960000Y-75580000D02*
X81110000Y-74430000D01*
%TO.N,/B*%
X80540000Y-67960000D02*
X79960000Y-67960000D01*
X82560000Y-65940000D02*
X80540000Y-67960000D01*
X99000000Y-67500000D02*
X97440000Y-65940000D01*
X106000000Y-67500000D02*
X99000000Y-67500000D01*
X97440000Y-65940000D02*
X82560000Y-65940000D01*
%TD*%
%TA.AperFunction,Conductor*%
%TO.N,GND*%
G36*
X81301444Y-76233999D02*
G01*
X81340486Y-76279056D01*
X81344951Y-76287820D01*
X81469890Y-76459786D01*
X81583818Y-76573714D01*
X81617303Y-76635037D01*
X81612319Y-76704729D01*
X81570447Y-76760662D01*
X81539471Y-76777577D01*
X81407912Y-76826646D01*
X81407906Y-76826649D01*
X81292812Y-76912809D01*
X81292809Y-76912812D01*
X81206649Y-77027906D01*
X81206645Y-77027913D01*
X81156403Y-77162619D01*
X81156401Y-77162626D01*
X81147497Y-77245444D01*
X81144434Y-77245114D01*
X81145336Y-77262094D01*
X81112356Y-77321195D01*
X80442962Y-77990590D01*
X80425925Y-77927007D01*
X80360099Y-77812993D01*
X80267007Y-77719901D01*
X80152993Y-77654075D01*
X80089409Y-77637037D01*
X80721716Y-77004728D01*
X80667547Y-76965373D01*
X80667547Y-76965372D01*
X80658500Y-76960763D01*
X80607706Y-76912788D01*
X80590912Y-76844966D01*
X80613451Y-76778832D01*
X80658508Y-76739793D01*
X80667816Y-76735051D01*
X80757020Y-76670241D01*
X80839786Y-76610109D01*
X80839788Y-76610106D01*
X80839792Y-76610104D01*
X80990104Y-76459792D01*
X80990106Y-76459788D01*
X80990109Y-76459786D01*
X81115048Y-76287820D01*
X81115047Y-76287820D01*
X81115051Y-76287816D01*
X81119514Y-76279054D01*
X81167488Y-76228259D01*
X81235308Y-76211463D01*
X81301444Y-76233999D01*
G37*
%TD.AperFunction*%
%TA.AperFunction,Conductor*%
G36*
X96419075Y-72312993D02*
G01*
X96484901Y-72427007D01*
X96577993Y-72520099D01*
X96692007Y-72585925D01*
X96755590Y-72602962D01*
X96397372Y-72961181D01*
X96336049Y-72994666D01*
X96309691Y-72997500D01*
X95953309Y-72997500D01*
X95886270Y-72977815D01*
X95840515Y-72925011D01*
X95830571Y-72855853D01*
X95859596Y-72792297D01*
X95865628Y-72785819D01*
X96402037Y-72249409D01*
X96419075Y-72312993D01*
G37*
%TD.AperFunction*%
%TA.AperFunction,Conductor*%
G36*
X97904372Y-72785819D02*
G01*
X97937857Y-72847142D01*
X97932873Y-72916834D01*
X97891001Y-72972767D01*
X97825537Y-72997184D01*
X97816691Y-72997500D01*
X97460309Y-72997500D01*
X97393270Y-72977815D01*
X97372628Y-72961181D01*
X97014409Y-72602962D01*
X97077993Y-72585925D01*
X97192007Y-72520099D01*
X97285099Y-72427007D01*
X97350925Y-72312993D01*
X97367962Y-72249409D01*
X97904372Y-72785819D01*
G37*
%TD.AperFunction*%
%TA.AperFunction,Conductor*%
G36*
X114199075Y-72312993D02*
G01*
X114264901Y-72427007D01*
X114357993Y-72520099D01*
X114472007Y-72585925D01*
X114535590Y-72602962D01*
X114177372Y-72961181D01*
X114116049Y-72994666D01*
X114089691Y-72997500D01*
X113733309Y-72997500D01*
X113666270Y-72977815D01*
X113620515Y-72925011D01*
X113610571Y-72855853D01*
X113639596Y-72792297D01*
X113645628Y-72785819D01*
X114182037Y-72249409D01*
X114199075Y-72312993D01*
G37*
%TD.AperFunction*%
%TA.AperFunction,Conductor*%
G36*
X115684372Y-72785819D02*
G01*
X115717857Y-72847142D01*
X115712873Y-72916834D01*
X115671001Y-72972767D01*
X115605537Y-72997184D01*
X115596691Y-72997500D01*
X115240309Y-72997500D01*
X115173270Y-72977815D01*
X115152628Y-72961181D01*
X114794409Y-72602962D01*
X114857993Y-72585925D01*
X114972007Y-72520099D01*
X115065099Y-72427007D01*
X115130925Y-72312993D01*
X115147962Y-72249409D01*
X115684372Y-72785819D01*
G37*
%TD.AperFunction*%
%TA.AperFunction,Conductor*%
G36*
X119526318Y-71229041D02*
G01*
X119531681Y-71227955D01*
X119559483Y-71238779D01*
X119588108Y-71247185D01*
X119593043Y-71251846D01*
X119596790Y-71253305D01*
X119621388Y-71278616D01*
X119694892Y-71379788D01*
X119791357Y-71476253D01*
X119824842Y-71537576D01*
X119819858Y-71607268D01*
X119777986Y-71663201D01*
X119751132Y-71678494D01*
X119706130Y-71697135D01*
X119706129Y-71697136D01*
X118442086Y-72961181D01*
X118380763Y-72994666D01*
X118354405Y-72997500D01*
X115880171Y-72997500D01*
X115813132Y-72977815D01*
X115767377Y-72925011D01*
X115757433Y-72855853D01*
X115777069Y-72804610D01*
X115793832Y-72779521D01*
X115793844Y-72779501D01*
X115840509Y-72692198D01*
X115900814Y-72546612D01*
X115929555Y-72451864D01*
X115960298Y-72297302D01*
X115960298Y-72297299D01*
X115970000Y-72198789D01*
X115970000Y-72041210D01*
X115960298Y-71942700D01*
X115960298Y-71942697D01*
X115929555Y-71788135D01*
X115900814Y-71693387D01*
X115840509Y-71547801D01*
X115793841Y-71460493D01*
X115767046Y-71420390D01*
X115746169Y-71353712D01*
X115764654Y-71286332D01*
X115816633Y-71239643D01*
X115870149Y-71227500D01*
X119521069Y-71227500D01*
X119526318Y-71229041D01*
G37*
%TD.AperFunction*%
%TA.AperFunction,Conductor*%
G36*
X114141730Y-71247185D02*
G01*
X114162372Y-71263819D01*
X114535590Y-71637037D01*
X114472007Y-71654075D01*
X114357993Y-71719901D01*
X114264901Y-71812993D01*
X114199075Y-71927007D01*
X114182037Y-71990590D01*
X113630628Y-71439181D01*
X113597143Y-71377858D01*
X113602127Y-71308166D01*
X113643999Y-71252233D01*
X113709463Y-71227816D01*
X113718309Y-71227500D01*
X114074691Y-71227500D01*
X114141730Y-71247185D01*
G37*
%TD.AperFunction*%
%TA.AperFunction,Conductor*%
G36*
X115678728Y-71247185D02*
G01*
X115724483Y-71299989D01*
X115734427Y-71369147D01*
X115705402Y-71432703D01*
X115699370Y-71439181D01*
X115147962Y-71990589D01*
X115130925Y-71927007D01*
X115065099Y-71812993D01*
X114972007Y-71719901D01*
X114857993Y-71654075D01*
X114794409Y-71637037D01*
X115167628Y-71263819D01*
X115228951Y-71230334D01*
X115255309Y-71227500D01*
X115611689Y-71227500D01*
X115678728Y-71247185D01*
G37*
%TD.AperFunction*%
%TA.AperFunction,Conductor*%
G36*
X122799075Y-68152993D02*
G01*
X122864901Y-68267007D01*
X122957993Y-68360099D01*
X123072007Y-68425925D01*
X123135590Y-68442962D01*
X122503281Y-69075270D01*
X122506064Y-69110622D01*
X122491700Y-69179000D01*
X122442648Y-69228756D01*
X122374483Y-69244095D01*
X122320602Y-69227828D01*
X122306374Y-69219641D01*
X122243868Y-69157135D01*
X122160253Y-69122500D01*
X122137556Y-69122500D01*
X122108841Y-69105977D01*
X122106664Y-69103701D01*
X122103646Y-69102815D01*
X122082687Y-69078627D01*
X122060552Y-69055480D01*
X122059951Y-69052389D01*
X122057891Y-69050011D01*
X122053334Y-69018318D01*
X122047230Y-68986892D01*
X122048395Y-68983969D01*
X122047947Y-68980853D01*
X122054503Y-68955167D01*
X122068598Y-68917375D01*
X122077501Y-68834556D01*
X122080550Y-68834883D01*
X122079642Y-68817984D01*
X122112642Y-68758802D01*
X122782037Y-68089408D01*
X122799075Y-68152993D01*
G37*
%TD.AperFunction*%
%TA.AperFunction,Conductor*%
G36*
X125442539Y-39020184D02*
G01*
X125488294Y-39072988D01*
X125499500Y-39124499D01*
X125499500Y-92875500D01*
X125479815Y-92942539D01*
X125427011Y-92988294D01*
X125375500Y-92999500D01*
X77624499Y-92999500D01*
X77557460Y-92979815D01*
X77511705Y-92927011D01*
X77500499Y-92875500D01*
X77500499Y-67853713D01*
X78609500Y-67853713D01*
X78609500Y-68066286D01*
X78642735Y-68276127D01*
X78642754Y-68276243D01*
X78682433Y-68398363D01*
X78708444Y-68478414D01*
X78804951Y-68667820D01*
X78929890Y-68839786D01*
X79080213Y-68990109D01*
X79252182Y-69115050D01*
X79260946Y-69119516D01*
X79311742Y-69167491D01*
X79328536Y-69235312D01*
X79305998Y-69301447D01*
X79260946Y-69340484D01*
X79252182Y-69344949D01*
X79080213Y-69469890D01*
X78929890Y-69620213D01*
X78804951Y-69792179D01*
X78708444Y-69981585D01*
X78642753Y-70183760D01*
X78626532Y-70286176D01*
X78609500Y-70393713D01*
X78609500Y-70606287D01*
X78613391Y-70630853D01*
X78635825Y-70772500D01*
X78642754Y-70816243D01*
X78705195Y-71008417D01*
X78708444Y-71018414D01*
X78804951Y-71207820D01*
X78929890Y-71379786D01*
X79080213Y-71530109D01*
X79252182Y-71655050D01*
X79260946Y-71659516D01*
X79311742Y-71707491D01*
X79328536Y-71775312D01*
X79305998Y-71841447D01*
X79260946Y-71880484D01*
X79252182Y-71884949D01*
X79080213Y-72009890D01*
X78929890Y-72160213D01*
X78804951Y-72332179D01*
X78708444Y-72521585D01*
X78642753Y-72723760D01*
X78616548Y-72889211D01*
X78609500Y-72933713D01*
X78609500Y-73146287D01*
X78642754Y-73356243D01*
X78703257Y-73542452D01*
X78708444Y-73558414D01*
X78804951Y-73747820D01*
X78929890Y-73919786D01*
X79080213Y-74070109D01*
X79252182Y-74195050D01*
X79260946Y-74199516D01*
X79311742Y-74247491D01*
X79328536Y-74315312D01*
X79305998Y-74381447D01*
X79260946Y-74420484D01*
X79252182Y-74424949D01*
X79080213Y-74549890D01*
X78929890Y-74700213D01*
X78804951Y-74872179D01*
X78708444Y-75061585D01*
X78642753Y-75263760D01*
X78622624Y-75390853D01*
X78609500Y-75473713D01*
X78609500Y-75686287D01*
X78642754Y-75896243D01*
X78682433Y-76018363D01*
X78708444Y-76098414D01*
X78804951Y-76287820D01*
X78929890Y-76459786D01*
X79080213Y-76610109D01*
X79252179Y-76735048D01*
X79252181Y-76735049D01*
X79252184Y-76735051D01*
X79261493Y-76739794D01*
X79312290Y-76787766D01*
X79329087Y-76855587D01*
X79306552Y-76921722D01*
X79261505Y-76960760D01*
X79252446Y-76965376D01*
X79252440Y-76965380D01*
X79198282Y-77004727D01*
X79198282Y-77004728D01*
X79830591Y-77637037D01*
X79767007Y-77654075D01*
X79652993Y-77719901D01*
X79559901Y-77812993D01*
X79494075Y-77927007D01*
X79477037Y-77990591D01*
X78844728Y-77358282D01*
X78844727Y-77358282D01*
X78805380Y-77412439D01*
X78708904Y-77601782D01*
X78643242Y-77803869D01*
X78643242Y-77803872D01*
X78610000Y-78013753D01*
X78610000Y-78226246D01*
X78643242Y-78436127D01*
X78643242Y-78436130D01*
X78708904Y-78638217D01*
X78805375Y-78827550D01*
X78844728Y-78881716D01*
X79477037Y-78249408D01*
X79494075Y-78312993D01*
X79559901Y-78427007D01*
X79652993Y-78520099D01*
X79767007Y-78585925D01*
X79830590Y-78602962D01*
X79198282Y-79235269D01*
X79198282Y-79235270D01*
X79252449Y-79274624D01*
X79441782Y-79371095D01*
X79643870Y-79436757D01*
X79853754Y-79470000D01*
X80066246Y-79470000D01*
X80276127Y-79436757D01*
X80276130Y-79436757D01*
X80478217Y-79371095D01*
X80667554Y-79274622D01*
X80721716Y-79235270D01*
X80721717Y-79235270D01*
X80089408Y-78602962D01*
X80152993Y-78585925D01*
X80267007Y-78520099D01*
X80360099Y-78427007D01*
X80425925Y-78312993D01*
X80442962Y-78249408D01*
X81112356Y-78918803D01*
X81145841Y-78980126D01*
X81144926Y-78994831D01*
X81147497Y-78994555D01*
X81156401Y-79077373D01*
X81156403Y-79077380D01*
X81206645Y-79212086D01*
X81206649Y-79212093D01*
X81292809Y-79327187D01*
X81292812Y-79327190D01*
X81407906Y-79413350D01*
X81407913Y-79413354D01*
X81542620Y-79463596D01*
X81542627Y-79463598D01*
X81602155Y-79469999D01*
X81602172Y-79470000D01*
X82250000Y-79470000D01*
X82250000Y-78553012D01*
X82307007Y-78585925D01*
X82434174Y-78620000D01*
X82565826Y-78620000D01*
X82692993Y-78585925D01*
X82750000Y-78553012D01*
X82750000Y-79470000D01*
X83397828Y-79470000D01*
X83397844Y-79469999D01*
X83457372Y-79463598D01*
X83457379Y-79463596D01*
X83592086Y-79413354D01*
X83592093Y-79413350D01*
X83707187Y-79327190D01*
X83707190Y-79327187D01*
X83793350Y-79212093D01*
X83793354Y-79212086D01*
X83843596Y-79077379D01*
X83843598Y-79077372D01*
X83849999Y-79017844D01*
X83850000Y-79017827D01*
X83850000Y-78370000D01*
X82933012Y-78370000D01*
X82965925Y-78312993D01*
X83000000Y-78185826D01*
X83000000Y-78054174D01*
X82965925Y-77927007D01*
X82933012Y-77870000D01*
X83850000Y-77870000D01*
X83850000Y-77222172D01*
X83849999Y-77222155D01*
X83843598Y-77162627D01*
X83843596Y-77162620D01*
X83793354Y-77027913D01*
X83793350Y-77027906D01*
X83707190Y-76912812D01*
X83707187Y-76912809D01*
X83592093Y-76826649D01*
X83592088Y-76826646D01*
X83460528Y-76777577D01*
X83404595Y-76735705D01*
X83380178Y-76670241D01*
X83395030Y-76601968D01*
X83416175Y-76573720D01*
X83530104Y-76459792D01*
X83607852Y-76352781D01*
X83655048Y-76287820D01*
X83655047Y-76287820D01*
X83655051Y-76287816D01*
X83751557Y-76098412D01*
X83817246Y-75896243D01*
X83817246Y-75896239D01*
X83818240Y-75893182D01*
X83857677Y-75835506D01*
X83922036Y-75808308D01*
X83936171Y-75807500D01*
X87965252Y-75807500D01*
X87965253Y-75807500D01*
X88048868Y-75772865D01*
X88802411Y-75019320D01*
X88863732Y-74985837D01*
X88933423Y-74990821D01*
X88937500Y-74992424D01*
X89015044Y-75024545D01*
X89170660Y-75055499D01*
X89170663Y-75055500D01*
X89170665Y-75055500D01*
X89329337Y-75055500D01*
X89329338Y-75055499D01*
X89484956Y-75024545D01*
X89631547Y-74963824D01*
X89763476Y-74875672D01*
X89875672Y-74763476D01*
X89963824Y-74631547D01*
X90024545Y-74484956D01*
X90055500Y-74329335D01*
X90055500Y-74170665D01*
X90055500Y-74170662D01*
X90055499Y-74170660D01*
X90024546Y-74015049D01*
X90024545Y-74015048D01*
X90024545Y-74015044D01*
X90024543Y-74015039D01*
X90023774Y-74012503D01*
X90023761Y-74011102D01*
X90023357Y-74009069D01*
X90023742Y-74008992D01*
X90023146Y-73942636D01*
X90060390Y-73883521D01*
X90123683Y-73853926D01*
X90142432Y-73852500D01*
X93979405Y-73852500D01*
X94046444Y-73872185D01*
X94067086Y-73888819D01*
X96136978Y-75958712D01*
X96170463Y-76020035D01*
X96165479Y-76089727D01*
X96123607Y-76145660D01*
X96122183Y-76146711D01*
X96037782Y-76208032D01*
X95893028Y-76352786D01*
X95772715Y-76518386D01*
X95679781Y-76700776D01*
X95616522Y-76895465D01*
X95599217Y-77004727D01*
X95584500Y-77097648D01*
X95584500Y-77302352D01*
X95588878Y-77329995D01*
X95616522Y-77504534D01*
X95679781Y-77699223D01*
X95722504Y-77783070D01*
X95772507Y-77881206D01*
X95772715Y-77881613D01*
X95893028Y-78047213D01*
X96037786Y-78191971D01*
X96192749Y-78304556D01*
X96203390Y-78312287D01*
X96294840Y-78358883D01*
X96296080Y-78359515D01*
X96346876Y-78407490D01*
X96363671Y-78475311D01*
X96341134Y-78541446D01*
X96296080Y-78580485D01*
X96203386Y-78627715D01*
X96037786Y-78748028D01*
X95893028Y-78892786D01*
X95772715Y-79058386D01*
X95679781Y-79240776D01*
X95616522Y-79435465D01*
X95584500Y-79637648D01*
X95584500Y-79842351D01*
X95616522Y-80044534D01*
X95679781Y-80239223D01*
X95772715Y-80421613D01*
X95893028Y-80587213D01*
X96037786Y-80731971D01*
X96192749Y-80844556D01*
X96203390Y-80852287D01*
X96294840Y-80898883D01*
X96296080Y-80899515D01*
X96346876Y-80947490D01*
X96363671Y-81015311D01*
X96341134Y-81081446D01*
X96296080Y-81120485D01*
X96203386Y-81167715D01*
X96037786Y-81288028D01*
X95893028Y-81432786D01*
X95772715Y-81598386D01*
X95679781Y-81780776D01*
X95616522Y-81975465D01*
X95584500Y-82177648D01*
X95584500Y-82382351D01*
X95616522Y-82584534D01*
X95679781Y-82779223D01*
X95772715Y-82961613D01*
X95893028Y-83127213D01*
X96037786Y-83271971D01*
X96203388Y-83392286D01*
X96203390Y-83392287D01*
X96289294Y-83436057D01*
X96340090Y-83484031D01*
X96356886Y-83551852D01*
X96334349Y-83617987D01*
X96291455Y-83655899D01*
X96225494Y-83691157D01*
X96225489Y-83691160D01*
X96156086Y-83737532D01*
X96156085Y-83737533D01*
X96755590Y-84337037D01*
X96692007Y-84354075D01*
X96577993Y-84419901D01*
X96484901Y-84512993D01*
X96419075Y-84627007D01*
X96402037Y-84690589D01*
X95802533Y-84091085D01*
X95802532Y-84091086D01*
X95756161Y-84160488D01*
X95709490Y-84247801D01*
X95649185Y-84393387D01*
X95620444Y-84488135D01*
X95589701Y-84642697D01*
X95589701Y-84642700D01*
X95580000Y-84741210D01*
X95580000Y-84898789D01*
X95589701Y-84997299D01*
X95589701Y-84997302D01*
X95620444Y-85151864D01*
X95649185Y-85246612D01*
X95709490Y-85392198D01*
X95756158Y-85479506D01*
X95802533Y-85548912D01*
X95802534Y-85548913D01*
X96402037Y-84949409D01*
X96419075Y-85012993D01*
X96484901Y-85127007D01*
X96577993Y-85220099D01*
X96692007Y-85285925D01*
X96755590Y-85302962D01*
X96156085Y-85902465D01*
X96225493Y-85948841D01*
X96291454Y-85984099D01*
X96341298Y-86033062D01*
X96356758Y-86101200D01*
X96332926Y-86166879D01*
X96289295Y-86203942D01*
X96203386Y-86247715D01*
X96037786Y-86368028D01*
X95893028Y-86512786D01*
X95772715Y-86678386D01*
X95679781Y-86860776D01*
X95616522Y-87055465D01*
X95584500Y-87257648D01*
X95584500Y-87462351D01*
X95616522Y-87664534D01*
X95679781Y-87859223D01*
X95772715Y-88041613D01*
X95893028Y-88207213D01*
X96037786Y-88351971D01*
X96183716Y-88457993D01*
X96203390Y-88472287D01*
X96294840Y-88518883D01*
X96296080Y-88519515D01*
X96346876Y-88567490D01*
X96363671Y-88635311D01*
X96341134Y-88701446D01*
X96296080Y-88740485D01*
X96203386Y-88787715D01*
X96037786Y-88908028D01*
X95893028Y-89052786D01*
X95772715Y-89218386D01*
X95679781Y-89400776D01*
X95616522Y-89595465D01*
X95584500Y-89797648D01*
X95584500Y-90002351D01*
X95616522Y-90204534D01*
X95679781Y-90399223D01*
X95772715Y-90581613D01*
X95893028Y-90747213D01*
X96037786Y-90891971D01*
X96192749Y-91004556D01*
X96203390Y-91012287D01*
X96319607Y-91071503D01*
X96385776Y-91105218D01*
X96385778Y-91105218D01*
X96385781Y-91105220D01*
X96490137Y-91139127D01*
X96580465Y-91168477D01*
X96681557Y-91184488D01*
X96782648Y-91200500D01*
X96782649Y-91200500D01*
X96987351Y-91200500D01*
X96987352Y-91200500D01*
X97189534Y-91168477D01*
X97384219Y-91105220D01*
X97566610Y-91012287D01*
X97659590Y-90944732D01*
X97732213Y-90891971D01*
X97732215Y-90891968D01*
X97732219Y-90891966D01*
X97876966Y-90747219D01*
X97876968Y-90747215D01*
X97876971Y-90747213D01*
X97929732Y-90674590D01*
X97997287Y-90581610D01*
X98090220Y-90399219D01*
X98153477Y-90204534D01*
X98185500Y-90002352D01*
X98185500Y-89797648D01*
X98153477Y-89595466D01*
X98090220Y-89400781D01*
X98090218Y-89400778D01*
X98090218Y-89400776D01*
X98030318Y-89283217D01*
X97997287Y-89218390D01*
X97989556Y-89207749D01*
X97876971Y-89052786D01*
X97732213Y-88908028D01*
X97566614Y-88787715D01*
X97520789Y-88764366D01*
X97473917Y-88740483D01*
X97423123Y-88692511D01*
X97406328Y-88624690D01*
X97428865Y-88558555D01*
X97473917Y-88519516D01*
X97566610Y-88472287D01*
X97598842Y-88448869D01*
X97732213Y-88351971D01*
X97732215Y-88351968D01*
X97732219Y-88351966D01*
X97876966Y-88207219D01*
X97876968Y-88207215D01*
X97876971Y-88207213D01*
X97985779Y-88057449D01*
X97997287Y-88041610D01*
X98090220Y-87859219D01*
X98153477Y-87664534D01*
X98185500Y-87462352D01*
X98185500Y-87257648D01*
X98162098Y-87109895D01*
X98675000Y-87109895D01*
X103327057Y-90722663D01*
X103367931Y-90779327D01*
X103375000Y-90820597D01*
X103375000Y-91770000D01*
X108175000Y-91770000D01*
X108175000Y-90820597D01*
X108194685Y-90753558D01*
X108222941Y-90722664D01*
X112875000Y-87109895D01*
X112875000Y-82770000D01*
X98675000Y-82770000D01*
X98675000Y-87109895D01*
X98162098Y-87109895D01*
X98153477Y-87055466D01*
X98090220Y-86860781D01*
X98090218Y-86860778D01*
X98090218Y-86860776D01*
X98056503Y-86794607D01*
X97997287Y-86678390D01*
X97989556Y-86667749D01*
X97876971Y-86512786D01*
X97732217Y-86368032D01*
X97655415Y-86312232D01*
X97612750Y-86256902D01*
X97606771Y-86187288D01*
X97639377Y-86125494D01*
X97697640Y-86091765D01*
X97718022Y-86086563D01*
X97718035Y-86086559D01*
X97774582Y-86063135D01*
X97014409Y-85302962D01*
X97077993Y-85285925D01*
X97192007Y-85220099D01*
X97285099Y-85127007D01*
X97350925Y-85012993D01*
X97367962Y-84949409D01*
X98128135Y-85709582D01*
X98128137Y-85709582D01*
X98151552Y-85653053D01*
X98169544Y-85602053D01*
X98189999Y-85459780D01*
X98190000Y-85459779D01*
X98190000Y-84180214D01*
X98187106Y-84126237D01*
X98187106Y-84126235D01*
X98151558Y-83986960D01*
X98128136Y-83930415D01*
X98128135Y-83930415D01*
X97367962Y-84690589D01*
X97350925Y-84627007D01*
X97285099Y-84512993D01*
X97192007Y-84419901D01*
X97077993Y-84354075D01*
X97014410Y-84337037D01*
X97774583Y-83576863D01*
X97774583Y-83576862D01*
X97718052Y-83553447D01*
X97718013Y-83553432D01*
X97689375Y-83543329D01*
X97632704Y-83502463D01*
X97607122Y-83437444D01*
X97620754Y-83368917D01*
X97657745Y-83326074D01*
X97732215Y-83271969D01*
X97732215Y-83271968D01*
X97732219Y-83271966D01*
X97876966Y-83127219D01*
X97876968Y-83127215D01*
X97876971Y-83127213D01*
X97929732Y-83054590D01*
X97997287Y-82961610D01*
X98090220Y-82779219D01*
X98153477Y-82584534D01*
X98185500Y-82382352D01*
X98185500Y-82177648D01*
X98153477Y-81975466D01*
X98090220Y-81780781D01*
X98090218Y-81780778D01*
X98090218Y-81780776D01*
X98056503Y-81714607D01*
X97997287Y-81598390D01*
X97989556Y-81587749D01*
X97876971Y-81432786D01*
X97732213Y-81288028D01*
X97566614Y-81167715D01*
X97560006Y-81164348D01*
X97473917Y-81120483D01*
X97423123Y-81072511D01*
X97406328Y-81004690D01*
X97428865Y-80938555D01*
X97473917Y-80899516D01*
X97566610Y-80852287D01*
X97587770Y-80836913D01*
X97732213Y-80731971D01*
X97732215Y-80731968D01*
X97732219Y-80731966D01*
X97876966Y-80587219D01*
X97876968Y-80587215D01*
X97876971Y-80587213D01*
X97929732Y-80514590D01*
X97997287Y-80421610D01*
X98090220Y-80239219D01*
X98153477Y-80044534D01*
X98185500Y-79842352D01*
X98185500Y-79637648D01*
X98157933Y-79463598D01*
X98153477Y-79435465D01*
X98101216Y-79274624D01*
X98090220Y-79240781D01*
X98090218Y-79240778D01*
X98090218Y-79240776D01*
X98044020Y-79150109D01*
X97997287Y-79058390D01*
X97967829Y-79017844D01*
X97876971Y-78892786D01*
X97732213Y-78748028D01*
X97566614Y-78627715D01*
X97551472Y-78620000D01*
X97473917Y-78580483D01*
X97423123Y-78532511D01*
X97406328Y-78464690D01*
X97428865Y-78398555D01*
X97473917Y-78359516D01*
X97566610Y-78312287D01*
X97684980Y-78226287D01*
X97732213Y-78191971D01*
X97732215Y-78191968D01*
X97732219Y-78191966D01*
X97876966Y-78047219D01*
X97876968Y-78047215D01*
X97876971Y-78047213D01*
X97964304Y-77927007D01*
X97997287Y-77881610D01*
X98090220Y-77699219D01*
X98153477Y-77504534D01*
X98185500Y-77302352D01*
X98185500Y-77097648D01*
X98170783Y-77004727D01*
X98153477Y-76895465D01*
X98115491Y-76778556D01*
X98090220Y-76700781D01*
X98090218Y-76700778D01*
X98090218Y-76700776D01*
X98044020Y-76610109D01*
X97997287Y-76518390D01*
X97989556Y-76507749D01*
X97876971Y-76352786D01*
X97732218Y-76208033D01*
X97729585Y-76205784D01*
X97728863Y-76204678D01*
X97728774Y-76204589D01*
X97728792Y-76204570D01*
X97691397Y-76147275D01*
X97690903Y-76077407D01*
X97728261Y-76018363D01*
X97791610Y-75988890D01*
X97810124Y-75987500D01*
X113739876Y-75987500D01*
X113806915Y-76007185D01*
X113852670Y-76059989D01*
X113862614Y-76129147D01*
X113833589Y-76192703D01*
X113820415Y-76205784D01*
X113817781Y-76208033D01*
X113673028Y-76352786D01*
X113552715Y-76518386D01*
X113459781Y-76700776D01*
X113396522Y-76895465D01*
X113379217Y-77004727D01*
X113364500Y-77097648D01*
X113364500Y-77302352D01*
X113368878Y-77329995D01*
X113396522Y-77504534D01*
X113459781Y-77699223D01*
X113502504Y-77783070D01*
X113552507Y-77881206D01*
X113552715Y-77881613D01*
X113657337Y-78025615D01*
X113680817Y-78091422D01*
X113664991Y-78159475D01*
X113614885Y-78208170D01*
X113557019Y-78222500D01*
X112657060Y-78222500D01*
X112590021Y-78202815D01*
X112544266Y-78150011D01*
X112539129Y-78136819D01*
X112533664Y-78119999D01*
X112519873Y-78077555D01*
X112519871Y-78077552D01*
X112519871Y-78077550D01*
X112477300Y-77994000D01*
X112441232Y-77923212D01*
X112339414Y-77783072D01*
X112216928Y-77660586D01*
X112076788Y-77558768D01*
X111922445Y-77480127D01*
X111757701Y-77426598D01*
X111757699Y-77426597D01*
X111757698Y-77426597D01*
X111626271Y-77405781D01*
X111586611Y-77399500D01*
X111413389Y-77399500D01*
X111373728Y-77405781D01*
X111242302Y-77426597D01*
X111077552Y-77480128D01*
X110923211Y-77558768D01*
X110843256Y-77616859D01*
X110783072Y-77660586D01*
X110783070Y-77660588D01*
X110783069Y-77660588D01*
X110660588Y-77783069D01*
X110660588Y-77783070D01*
X110660586Y-77783072D01*
X110645476Y-77803869D01*
X110558768Y-77923211D01*
X110480128Y-78077552D01*
X110426597Y-78242302D01*
X110415513Y-78312284D01*
X110399500Y-78413389D01*
X110399500Y-78586611D01*
X110426598Y-78757701D01*
X110480127Y-78922445D01*
X110558768Y-79076788D01*
X110660586Y-79216928D01*
X110783072Y-79339414D01*
X110923212Y-79441232D01*
X111077555Y-79519873D01*
X111242299Y-79573402D01*
X111413389Y-79600500D01*
X111413390Y-79600500D01*
X111586610Y-79600500D01*
X111586611Y-79600500D01*
X111757701Y-79573402D01*
X111922445Y-79519873D01*
X112076788Y-79441232D01*
X112216928Y-79339414D01*
X112339414Y-79216928D01*
X112441232Y-79076788D01*
X112519873Y-78922445D01*
X112539129Y-78863180D01*
X112578567Y-78805506D01*
X112642926Y-78778308D01*
X112657060Y-78777500D01*
X113513427Y-78777500D01*
X113580466Y-78797185D01*
X113626221Y-78849989D01*
X113636165Y-78919147D01*
X113613745Y-78974385D01*
X113552715Y-79058386D01*
X113459781Y-79240776D01*
X113396522Y-79435465D01*
X113364500Y-79637648D01*
X113364500Y-79842351D01*
X113396522Y-80044534D01*
X113459781Y-80239223D01*
X113552715Y-80421613D01*
X113673028Y-80587213D01*
X113817786Y-80731971D01*
X113972749Y-80844556D01*
X113983390Y-80852287D01*
X114074840Y-80898883D01*
X114076080Y-80899515D01*
X114126876Y-80947490D01*
X114143671Y-81015311D01*
X114121134Y-81081446D01*
X114076080Y-81120485D01*
X113983386Y-81167715D01*
X113817786Y-81288028D01*
X113673028Y-81432786D01*
X113552715Y-81598386D01*
X113459781Y-81780776D01*
X113396522Y-81975465D01*
X113364500Y-82177648D01*
X113364500Y-82382351D01*
X113396522Y-82584534D01*
X113459781Y-82779223D01*
X113552715Y-82961613D01*
X113673028Y-83127213D01*
X113817782Y-83271967D01*
X113817787Y-83271971D01*
X113894583Y-83327767D01*
X113937249Y-83383097D01*
X113943228Y-83452710D01*
X113910622Y-83514505D01*
X113852365Y-83548233D01*
X113831967Y-83553439D01*
X113831956Y-83553442D01*
X113775415Y-83576862D01*
X114535590Y-84337037D01*
X114472007Y-84354075D01*
X114357993Y-84419901D01*
X114264901Y-84512993D01*
X114199075Y-84627007D01*
X114182037Y-84690590D01*
X113421862Y-83930415D01*
X113398449Y-83986940D01*
X113380455Y-84037946D01*
X113360000Y-84180219D01*
X113360000Y-85459785D01*
X113362893Y-85513762D01*
X113362893Y-85513764D01*
X113398438Y-85653030D01*
X113398440Y-85653037D01*
X113421863Y-85709583D01*
X114182037Y-84949409D01*
X114199075Y-85012993D01*
X114264901Y-85127007D01*
X114357993Y-85220099D01*
X114472007Y-85285925D01*
X114535590Y-85302962D01*
X113775415Y-86063135D01*
X113775415Y-86063136D01*
X113831954Y-86086556D01*
X113831961Y-86086558D01*
X113860621Y-86096669D01*
X113917294Y-86137534D01*
X113942876Y-86202552D01*
X113929246Y-86271080D01*
X113892256Y-86313924D01*
X113817782Y-86368032D01*
X113673028Y-86512786D01*
X113552715Y-86678386D01*
X113459781Y-86860776D01*
X113396522Y-87055465D01*
X113364500Y-87257648D01*
X113364500Y-87462351D01*
X113396522Y-87664534D01*
X113459781Y-87859223D01*
X113552715Y-88041613D01*
X113673028Y-88207213D01*
X113817786Y-88351971D01*
X113963716Y-88457993D01*
X113983390Y-88472287D01*
X114074840Y-88518883D01*
X114076080Y-88519515D01*
X114126876Y-88567490D01*
X114143671Y-88635311D01*
X114121134Y-88701446D01*
X114076080Y-88740485D01*
X113983386Y-88787715D01*
X113817786Y-88908028D01*
X113673028Y-89052786D01*
X113552715Y-89218386D01*
X113459781Y-89400776D01*
X113396522Y-89595465D01*
X113364500Y-89797648D01*
X113364500Y-90002351D01*
X113396522Y-90204534D01*
X113459781Y-90399223D01*
X113552715Y-90581613D01*
X113673028Y-90747213D01*
X113817786Y-90891971D01*
X113972749Y-91004556D01*
X113983390Y-91012287D01*
X114099607Y-91071503D01*
X114165776Y-91105218D01*
X114165778Y-91105218D01*
X114165781Y-91105220D01*
X114270137Y-91139127D01*
X114360465Y-91168477D01*
X114461557Y-91184488D01*
X114562648Y-91200500D01*
X114562649Y-91200500D01*
X114767351Y-91200500D01*
X114767352Y-91200500D01*
X114969534Y-91168477D01*
X115164219Y-91105220D01*
X115346610Y-91012287D01*
X115439590Y-90944732D01*
X115512213Y-90891971D01*
X115512215Y-90891968D01*
X115512219Y-90891966D01*
X115656966Y-90747219D01*
X115656968Y-90747215D01*
X115656971Y-90747213D01*
X115709732Y-90674590D01*
X115777287Y-90581610D01*
X115870220Y-90399219D01*
X115933477Y-90204534D01*
X115965500Y-90002352D01*
X115965500Y-89797648D01*
X115933477Y-89595466D01*
X115870220Y-89400781D01*
X115870218Y-89400778D01*
X115870218Y-89400776D01*
X115810318Y-89283217D01*
X115777287Y-89218390D01*
X115769556Y-89207749D01*
X115656971Y-89052786D01*
X115512213Y-88908028D01*
X115346611Y-88787713D01*
X115300789Y-88764366D01*
X115253917Y-88740483D01*
X115203123Y-88692510D01*
X115186328Y-88624689D01*
X115208865Y-88558554D01*
X115253917Y-88519516D01*
X115346610Y-88472287D01*
X115378842Y-88448869D01*
X115512213Y-88351971D01*
X115512215Y-88351968D01*
X115512219Y-88351966D01*
X115656966Y-88207219D01*
X115656968Y-88207215D01*
X115656971Y-88207213D01*
X115765779Y-88057449D01*
X115777287Y-88041610D01*
X115870220Y-87859219D01*
X115933477Y-87664534D01*
X115965500Y-87462352D01*
X115965500Y-87257648D01*
X115933477Y-87055466D01*
X115870220Y-86860781D01*
X115870218Y-86860778D01*
X115870218Y-86860776D01*
X115836503Y-86794607D01*
X115777287Y-86678390D01*
X115769556Y-86667749D01*
X115656971Y-86512786D01*
X115512213Y-86368028D01*
X115346614Y-86247715D01*
X115338410Y-86243535D01*
X115260703Y-86203941D01*
X115209908Y-86155968D01*
X115193113Y-86088147D01*
X115215650Y-86022012D01*
X115258546Y-85984099D01*
X115324493Y-85948849D01*
X115324511Y-85948838D01*
X115393912Y-85902465D01*
X114794409Y-85302962D01*
X114857993Y-85285925D01*
X114972007Y-85220099D01*
X115065099Y-85127007D01*
X115130925Y-85012993D01*
X115147962Y-84949409D01*
X115747465Y-85548912D01*
X115793838Y-85479511D01*
X115793844Y-85479501D01*
X115840509Y-85392198D01*
X115867460Y-85327135D01*
X121149500Y-85327135D01*
X121149500Y-87122870D01*
X121149501Y-87122876D01*
X121155908Y-87182483D01*
X121206202Y-87317328D01*
X121206206Y-87317335D01*
X121292452Y-87432544D01*
X121292455Y-87432547D01*
X121407664Y-87518793D01*
X121407671Y-87518797D01*
X121452618Y-87535561D01*
X121542517Y-87569091D01*
X121602127Y-87575500D01*
X121612685Y-87575499D01*
X121679723Y-87595179D01*
X121700372Y-87611818D01*
X122370591Y-88282037D01*
X122307007Y-88299075D01*
X122192993Y-88364901D01*
X122099901Y-88457993D01*
X122034075Y-88572007D01*
X122017037Y-88635591D01*
X121384728Y-88003282D01*
X121384727Y-88003282D01*
X121345380Y-88057439D01*
X121248904Y-88246782D01*
X121183242Y-88448869D01*
X121183242Y-88448872D01*
X121150000Y-88658753D01*
X121150000Y-88871246D01*
X121183242Y-89081127D01*
X121183242Y-89081130D01*
X121248904Y-89283217D01*
X121345375Y-89472550D01*
X121384728Y-89526716D01*
X122017037Y-88894408D01*
X122034075Y-88957993D01*
X122099901Y-89072007D01*
X122192993Y-89165099D01*
X122307007Y-89230925D01*
X122370590Y-89247962D01*
X121738282Y-89880269D01*
X121738282Y-89880270D01*
X121792449Y-89919624D01*
X121981782Y-90016095D01*
X122183870Y-90081757D01*
X122393754Y-90115000D01*
X122606246Y-90115000D01*
X122816127Y-90081757D01*
X122816130Y-90081757D01*
X123018217Y-90016095D01*
X123207554Y-89919622D01*
X123261716Y-89880270D01*
X123261717Y-89880270D01*
X122629408Y-89247962D01*
X122692993Y-89230925D01*
X122807007Y-89165099D01*
X122900099Y-89072007D01*
X122965925Y-88957993D01*
X122982962Y-88894408D01*
X123615270Y-89526717D01*
X123615270Y-89526716D01*
X123654622Y-89472554D01*
X123751095Y-89283217D01*
X123816757Y-89081130D01*
X123816757Y-89081127D01*
X123850000Y-88871246D01*
X123850000Y-88658753D01*
X123816757Y-88448872D01*
X123816757Y-88448869D01*
X123751095Y-88246782D01*
X123654624Y-88057449D01*
X123615270Y-88003282D01*
X123615269Y-88003282D01*
X122982962Y-88635590D01*
X122965925Y-88572007D01*
X122900099Y-88457993D01*
X122807007Y-88364901D01*
X122692993Y-88299075D01*
X122629409Y-88282037D01*
X123299627Y-87611818D01*
X123360950Y-87578333D01*
X123387307Y-87575499D01*
X123397872Y-87575499D01*
X123457483Y-87569091D01*
X123592331Y-87518796D01*
X123707546Y-87432546D01*
X123793796Y-87317331D01*
X123844091Y-87182483D01*
X123850500Y-87122873D01*
X123850499Y-85327128D01*
X123844091Y-85267517D01*
X123826405Y-85220099D01*
X123793797Y-85132671D01*
X123793793Y-85132664D01*
X123707547Y-85017455D01*
X123707544Y-85017452D01*
X123592335Y-84931206D01*
X123592328Y-84931202D01*
X123457482Y-84880908D01*
X123457483Y-84880908D01*
X123397883Y-84874501D01*
X123397881Y-84874500D01*
X123397873Y-84874500D01*
X123397864Y-84874500D01*
X121602129Y-84874500D01*
X121602123Y-84874501D01*
X121542516Y-84880908D01*
X121407671Y-84931202D01*
X121407664Y-84931206D01*
X121292455Y-85017452D01*
X121292452Y-85017455D01*
X121206206Y-85132664D01*
X121206202Y-85132671D01*
X121155908Y-85267517D01*
X121150266Y-85320000D01*
X121149501Y-85327123D01*
X121149500Y-85327135D01*
X115867460Y-85327135D01*
X115888495Y-85276353D01*
X115900814Y-85246612D01*
X115929555Y-85151864D01*
X115960298Y-84997302D01*
X115960298Y-84997299D01*
X115970000Y-84898789D01*
X115970000Y-84741210D01*
X115960298Y-84642700D01*
X115960298Y-84642697D01*
X115929555Y-84488135D01*
X115900814Y-84393387D01*
X115840509Y-84247801D01*
X115793841Y-84160493D01*
X115747465Y-84091086D01*
X115747465Y-84091085D01*
X115147962Y-84690589D01*
X115130925Y-84627007D01*
X115065099Y-84512993D01*
X114972007Y-84419901D01*
X114857993Y-84354075D01*
X114794410Y-84337037D01*
X115393913Y-83737534D01*
X115393912Y-83737533D01*
X115324506Y-83691158D01*
X115258545Y-83655900D01*
X115208701Y-83606937D01*
X115193241Y-83538799D01*
X115217073Y-83473119D01*
X115260702Y-83436059D01*
X115346610Y-83392287D01*
X115437745Y-83326074D01*
X115512213Y-83271971D01*
X115512215Y-83271968D01*
X115512219Y-83271966D01*
X115656966Y-83127219D01*
X115656968Y-83127215D01*
X115656971Y-83127213D01*
X115709732Y-83054590D01*
X115777287Y-82961610D01*
X115870220Y-82779219D01*
X115933477Y-82584534D01*
X115965500Y-82382352D01*
X115965500Y-82177648D01*
X115933477Y-81975466D01*
X115870220Y-81780781D01*
X115870218Y-81780778D01*
X115870218Y-81780776D01*
X115836503Y-81714607D01*
X115777287Y-81598390D01*
X115769556Y-81587749D01*
X115656971Y-81432786D01*
X115512213Y-81288028D01*
X115346614Y-81167715D01*
X115340006Y-81164348D01*
X115253917Y-81120483D01*
X115203123Y-81072511D01*
X115186328Y-81004690D01*
X115208865Y-80938555D01*
X115253917Y-80899516D01*
X115346610Y-80852287D01*
X115367770Y-80836913D01*
X115512213Y-80731971D01*
X115512215Y-80731968D01*
X115512219Y-80731966D01*
X115656966Y-80587219D01*
X115656968Y-80587215D01*
X115656971Y-80587213D01*
X115709732Y-80514590D01*
X115777287Y-80421610D01*
X115870220Y-80239219D01*
X115933477Y-80044534D01*
X115965500Y-79842352D01*
X115965500Y-79637648D01*
X115937933Y-79463598D01*
X115933477Y-79435465D01*
X115881216Y-79274624D01*
X115870220Y-79240781D01*
X115870218Y-79240778D01*
X115870218Y-79240776D01*
X115824020Y-79150109D01*
X115777287Y-79058390D01*
X115747829Y-79017844D01*
X115716255Y-78974385D01*
X115692775Y-78908579D01*
X115708601Y-78840525D01*
X115758707Y-78791830D01*
X115816573Y-78777500D01*
X117760854Y-78777500D01*
X117760870Y-78777501D01*
X117768466Y-78777501D01*
X117841533Y-78777501D01*
X117841534Y-78777501D01*
X117912111Y-78758589D01*
X117975389Y-78722056D01*
X119312101Y-77385341D01*
X119373421Y-77351859D01*
X119443112Y-77356843D01*
X119499046Y-77398714D01*
X119523463Y-77464179D01*
X119510265Y-77529318D01*
X119473444Y-77601584D01*
X119407753Y-77803760D01*
X119388834Y-77923211D01*
X119374500Y-78013713D01*
X119374500Y-78226287D01*
X119384534Y-78289644D01*
X119407735Y-78436127D01*
X119407754Y-78436243D01*
X119469967Y-78627715D01*
X119473444Y-78638414D01*
X119569951Y-78827820D01*
X119694890Y-78999786D01*
X119845213Y-79150109D01*
X120017179Y-79275048D01*
X120017181Y-79275049D01*
X120017184Y-79275051D01*
X120206588Y-79371557D01*
X120408757Y-79437246D01*
X120618713Y-79470500D01*
X120618714Y-79470500D01*
X120831286Y-79470500D01*
X120831287Y-79470500D01*
X121041243Y-79437246D01*
X121243412Y-79371557D01*
X121432816Y-79275051D01*
X121487572Y-79235269D01*
X121604786Y-79150109D01*
X121604788Y-79150106D01*
X121604792Y-79150104D01*
X121755104Y-78999792D01*
X121755106Y-78999788D01*
X121755109Y-78999786D01*
X121880048Y-78827820D01*
X121880047Y-78827820D01*
X121880051Y-78827816D01*
X121884514Y-78819054D01*
X121932488Y-78768259D01*
X122000308Y-78751463D01*
X122066444Y-78773999D01*
X122105486Y-78819056D01*
X122109951Y-78827820D01*
X122234890Y-78999786D01*
X122385213Y-79150109D01*
X122557179Y-79275048D01*
X122557181Y-79275049D01*
X122557184Y-79275051D01*
X122746588Y-79371557D01*
X122948757Y-79437246D01*
X123158713Y-79470500D01*
X123158714Y-79470500D01*
X123371286Y-79470500D01*
X123371287Y-79470500D01*
X123581243Y-79437246D01*
X123783412Y-79371557D01*
X123972816Y-79275051D01*
X124027572Y-79235269D01*
X124144786Y-79150109D01*
X124144788Y-79150106D01*
X124144792Y-79150104D01*
X124295104Y-78999792D01*
X124295106Y-78999788D01*
X124295109Y-78999786D01*
X124420048Y-78827820D01*
X124420047Y-78827820D01*
X124420051Y-78827816D01*
X124516557Y-78638412D01*
X124582246Y-78436243D01*
X124615500Y-78226287D01*
X124615500Y-78013713D01*
X124582246Y-77803757D01*
X124516557Y-77601588D01*
X124420051Y-77412184D01*
X124420049Y-77412181D01*
X124420048Y-77412179D01*
X124295109Y-77240213D01*
X124144786Y-77089890D01*
X123972820Y-76964951D01*
X123964600Y-76960763D01*
X123964054Y-76960485D01*
X123913259Y-76912512D01*
X123896463Y-76844692D01*
X123918999Y-76778556D01*
X123964054Y-76739515D01*
X123972816Y-76735051D01*
X123994789Y-76719086D01*
X124144786Y-76610109D01*
X124144788Y-76610106D01*
X124144792Y-76610104D01*
X124295104Y-76459792D01*
X124295106Y-76459788D01*
X124295109Y-76459786D01*
X124420048Y-76287820D01*
X124420047Y-76287820D01*
X124420051Y-76287816D01*
X124516557Y-76098412D01*
X124582246Y-75896243D01*
X124615500Y-75686287D01*
X124615500Y-75473713D01*
X124582246Y-75263757D01*
X124516557Y-75061588D01*
X124420051Y-74872184D01*
X124420049Y-74872181D01*
X124420048Y-74872179D01*
X124295109Y-74700213D01*
X124144786Y-74549890D01*
X123972820Y-74424951D01*
X123972115Y-74424591D01*
X123964054Y-74420485D01*
X123913259Y-74372512D01*
X123896463Y-74304692D01*
X123918999Y-74238556D01*
X123964054Y-74199515D01*
X123972816Y-74195051D01*
X124062337Y-74130011D01*
X124144786Y-74070109D01*
X124144788Y-74070106D01*
X124144792Y-74070104D01*
X124295104Y-73919792D01*
X124295106Y-73919788D01*
X124295109Y-73919786D01*
X124420048Y-73747820D01*
X124420050Y-73747817D01*
X124420051Y-73747816D01*
X124516557Y-73558412D01*
X124582246Y-73356243D01*
X124615500Y-73146287D01*
X124615500Y-72933713D01*
X124582246Y-72723757D01*
X124516557Y-72521588D01*
X124420051Y-72332184D01*
X124420049Y-72332181D01*
X124420048Y-72332179D01*
X124295109Y-72160213D01*
X124144786Y-72009890D01*
X123972820Y-71884951D01*
X123972115Y-71884591D01*
X123964054Y-71880485D01*
X123913259Y-71832512D01*
X123896463Y-71764692D01*
X123918999Y-71698556D01*
X123964054Y-71659515D01*
X123972816Y-71655051D01*
X124038584Y-71607268D01*
X124144786Y-71530109D01*
X124144788Y-71530106D01*
X124144792Y-71530104D01*
X124295104Y-71379792D01*
X124295106Y-71379788D01*
X124295109Y-71379786D01*
X124420048Y-71207820D01*
X124420047Y-71207820D01*
X124420051Y-71207816D01*
X124516557Y-71018412D01*
X124582246Y-70816243D01*
X124615500Y-70606287D01*
X124615500Y-70393713D01*
X124582246Y-70183757D01*
X124516557Y-69981588D01*
X124420051Y-69792184D01*
X124420049Y-69792181D01*
X124420048Y-69792179D01*
X124295109Y-69620213D01*
X124144786Y-69469890D01*
X123972817Y-69344949D01*
X123963504Y-69340204D01*
X123912707Y-69292230D01*
X123895912Y-69224409D01*
X123918449Y-69158274D01*
X123963507Y-69119232D01*
X123972555Y-69114622D01*
X124026716Y-69075270D01*
X124026717Y-69075270D01*
X123394408Y-68442962D01*
X123457993Y-68425925D01*
X123572007Y-68360099D01*
X123665099Y-68267007D01*
X123730925Y-68152993D01*
X123747962Y-68089408D01*
X124380270Y-68721717D01*
X124380270Y-68721716D01*
X124419622Y-68667554D01*
X124516095Y-68478217D01*
X124581757Y-68276130D01*
X124581757Y-68276127D01*
X124615000Y-68066246D01*
X124615000Y-67853753D01*
X124581757Y-67643872D01*
X124581757Y-67643869D01*
X124516095Y-67441782D01*
X124419624Y-67252449D01*
X124380270Y-67198282D01*
X124380269Y-67198282D01*
X123747962Y-67830590D01*
X123730925Y-67767007D01*
X123665099Y-67652993D01*
X123572007Y-67559901D01*
X123457993Y-67494075D01*
X123394409Y-67477037D01*
X124026716Y-66844728D01*
X123972550Y-66805375D01*
X123783217Y-66708904D01*
X123581129Y-66643242D01*
X123371246Y-66610000D01*
X123158754Y-66610000D01*
X122948872Y-66643242D01*
X122948869Y-66643242D01*
X122746782Y-66708904D01*
X122557439Y-66805380D01*
X122503282Y-66844727D01*
X122503282Y-66844728D01*
X123135591Y-67477037D01*
X123072007Y-67494075D01*
X122957993Y-67559901D01*
X122864901Y-67652993D01*
X122799075Y-67767007D01*
X122782037Y-67830591D01*
X122112642Y-67161196D01*
X122079319Y-67100609D01*
X122040527Y-66927364D01*
X122018354Y-66867913D01*
X122018350Y-66867906D01*
X121932190Y-66752812D01*
X121932187Y-66752809D01*
X121817093Y-66666649D01*
X121817086Y-66666645D01*
X121682379Y-66616403D01*
X121682372Y-66616401D01*
X121622844Y-66610000D01*
X120975000Y-66610000D01*
X120975000Y-67526988D01*
X120917993Y-67494075D01*
X120790826Y-67460000D01*
X120659174Y-67460000D01*
X120532007Y-67494075D01*
X120475000Y-67526988D01*
X120475000Y-66610000D01*
X119827155Y-66610000D01*
X119767627Y-66616401D01*
X119767620Y-66616403D01*
X119632913Y-66666645D01*
X119632906Y-66666649D01*
X119517812Y-66752809D01*
X119517809Y-66752812D01*
X119431649Y-66867906D01*
X119431645Y-66867913D01*
X119381403Y-67002620D01*
X119381401Y-67002627D01*
X119375000Y-67062155D01*
X119375000Y-67710000D01*
X120291988Y-67710000D01*
X120259075Y-67767007D01*
X120225000Y-67894174D01*
X120225000Y-68025826D01*
X120259075Y-68152993D01*
X120291988Y-68210000D01*
X119375000Y-68210000D01*
X119375000Y-68857844D01*
X119381401Y-68917372D01*
X119381403Y-68917379D01*
X119395497Y-68955167D01*
X119400481Y-69024858D01*
X119366996Y-69086181D01*
X119305673Y-69119666D01*
X119279315Y-69122500D01*
X118920596Y-69122500D01*
X118853557Y-69102815D01*
X118832915Y-69086181D01*
X118033869Y-68287136D01*
X118033868Y-68287135D01*
X117950253Y-68252500D01*
X115590124Y-68252500D01*
X115523085Y-68232815D01*
X115477330Y-68180011D01*
X115467386Y-68110853D01*
X115496411Y-68047297D01*
X115509585Y-68034216D01*
X115512212Y-68031970D01*
X115512219Y-68031966D01*
X115656966Y-67887219D01*
X115656968Y-67887215D01*
X115656971Y-67887213D01*
X115750524Y-67758446D01*
X115777287Y-67721610D01*
X115870220Y-67539219D01*
X115933477Y-67344534D01*
X115965500Y-67142352D01*
X115965500Y-66937648D01*
X115950783Y-66844727D01*
X115933477Y-66735465D01*
X115894790Y-66616401D01*
X115870220Y-66540781D01*
X115870218Y-66540778D01*
X115870218Y-66540776D01*
X115833061Y-66467853D01*
X115777287Y-66358390D01*
X115769556Y-66347749D01*
X115656971Y-66192786D01*
X115512213Y-66048028D01*
X115346614Y-65927715D01*
X115340006Y-65924348D01*
X115253917Y-65880483D01*
X115203123Y-65832511D01*
X115186328Y-65764690D01*
X115208865Y-65698555D01*
X115253917Y-65659516D01*
X115346610Y-65612287D01*
X115507453Y-65495429D01*
X115512213Y-65491971D01*
X115512215Y-65491968D01*
X115512219Y-65491966D01*
X115656966Y-65347219D01*
X115656968Y-65347215D01*
X115656971Y-65347213D01*
X115709732Y-65274590D01*
X115777287Y-65181610D01*
X115870220Y-64999219D01*
X115933477Y-64804534D01*
X115965500Y-64602352D01*
X115965500Y-64397648D01*
X115933477Y-64195466D01*
X115870220Y-64000781D01*
X115870218Y-64000778D01*
X115870218Y-64000776D01*
X115836503Y-63934607D01*
X115777287Y-63818390D01*
X115769556Y-63807749D01*
X115656971Y-63652786D01*
X115512213Y-63508028D01*
X115346614Y-63387715D01*
X115340006Y-63384348D01*
X115253917Y-63340483D01*
X115203123Y-63292511D01*
X115186328Y-63224690D01*
X115208865Y-63158555D01*
X115253917Y-63119516D01*
X115346610Y-63072287D01*
X115367770Y-63056913D01*
X115512213Y-62951971D01*
X115512215Y-62951968D01*
X115512219Y-62951966D01*
X115656966Y-62807219D01*
X115777287Y-62641610D01*
X115870220Y-62459219D01*
X115933477Y-62264534D01*
X115965500Y-62062352D01*
X115965500Y-61857648D01*
X115933477Y-61655466D01*
X115870220Y-61460781D01*
X115870218Y-61460778D01*
X115870218Y-61460776D01*
X115836503Y-61394607D01*
X115777287Y-61278390D01*
X115754323Y-61246782D01*
X115656971Y-61112786D01*
X115512213Y-60968028D01*
X115346613Y-60847715D01*
X115346612Y-60847714D01*
X115346610Y-60847713D01*
X115293947Y-60820880D01*
X115261245Y-60804217D01*
X115210449Y-60756242D01*
X115193654Y-60688421D01*
X115216192Y-60622286D01*
X115259083Y-60584376D01*
X115324783Y-60549259D01*
X115455811Y-60461709D01*
X115532412Y-60398843D01*
X115643843Y-60287412D01*
X115706709Y-60210811D01*
X115794259Y-60079783D01*
X115840972Y-59992389D01*
X115901278Y-59846798D01*
X115930044Y-59751968D01*
X115960787Y-59597410D01*
X115970500Y-59498793D01*
X115970500Y-59341207D01*
X115960787Y-59242590D01*
X115930044Y-59088032D01*
X115901278Y-58993202D01*
X115840972Y-58847611D01*
X115794259Y-58760217D01*
X115794248Y-58760200D01*
X115706721Y-58629206D01*
X115706712Y-58629194D01*
X115706709Y-58629189D01*
X115643843Y-58552588D01*
X115532412Y-58441157D01*
X115455811Y-58378291D01*
X115455804Y-58378286D01*
X115455793Y-58378278D01*
X115379252Y-58327135D01*
X121149500Y-58327135D01*
X121149500Y-60122870D01*
X121149501Y-60122876D01*
X121155908Y-60182483D01*
X121206202Y-60317328D01*
X121206206Y-60317335D01*
X121292452Y-60432544D01*
X121292455Y-60432547D01*
X121407664Y-60518793D01*
X121407671Y-60518797D01*
X121452618Y-60535561D01*
X121542517Y-60569091D01*
X121602127Y-60575500D01*
X121612685Y-60575499D01*
X121679723Y-60595179D01*
X121700372Y-60611818D01*
X122370591Y-61282037D01*
X122307007Y-61299075D01*
X122192993Y-61364901D01*
X122099901Y-61457993D01*
X122034075Y-61572007D01*
X122017037Y-61635591D01*
X121384728Y-61003282D01*
X121384727Y-61003282D01*
X121345380Y-61057439D01*
X121248904Y-61246782D01*
X121183242Y-61448869D01*
X121183242Y-61448872D01*
X121150000Y-61658753D01*
X121150000Y-61871246D01*
X121183242Y-62081127D01*
X121183242Y-62081130D01*
X121248904Y-62283217D01*
X121345375Y-62472550D01*
X121384728Y-62526716D01*
X122017037Y-61894408D01*
X122034075Y-61957993D01*
X122099901Y-62072007D01*
X122192993Y-62165099D01*
X122307007Y-62230925D01*
X122370590Y-62247962D01*
X121738282Y-62880269D01*
X121738282Y-62880270D01*
X121792449Y-62919624D01*
X121981782Y-63016095D01*
X122183870Y-63081757D01*
X122393754Y-63115000D01*
X122606246Y-63115000D01*
X122816127Y-63081757D01*
X122816130Y-63081757D01*
X123018217Y-63016095D01*
X123207554Y-62919622D01*
X123261716Y-62880270D01*
X123261717Y-62880270D01*
X122629408Y-62247962D01*
X122692993Y-62230925D01*
X122807007Y-62165099D01*
X122900099Y-62072007D01*
X122965925Y-61957993D01*
X122982962Y-61894409D01*
X123615270Y-62526717D01*
X123615270Y-62526716D01*
X123654622Y-62472554D01*
X123751095Y-62283217D01*
X123816757Y-62081130D01*
X123816757Y-62081127D01*
X123850000Y-61871246D01*
X123850000Y-61658753D01*
X123816757Y-61448872D01*
X123816757Y-61448869D01*
X123751095Y-61246782D01*
X123654624Y-61057449D01*
X123615270Y-61003282D01*
X123615269Y-61003282D01*
X122982962Y-61635590D01*
X122965925Y-61572007D01*
X122900099Y-61457993D01*
X122807007Y-61364901D01*
X122692993Y-61299075D01*
X122629409Y-61282037D01*
X123299627Y-60611818D01*
X123360950Y-60578333D01*
X123387307Y-60575499D01*
X123397872Y-60575499D01*
X123457483Y-60569091D01*
X123592331Y-60518796D01*
X123707546Y-60432546D01*
X123793796Y-60317331D01*
X123844091Y-60182483D01*
X123850500Y-60122873D01*
X123850499Y-58327128D01*
X123844091Y-58267517D01*
X123835330Y-58244028D01*
X123793797Y-58132671D01*
X123793793Y-58132664D01*
X123707547Y-58017455D01*
X123707544Y-58017452D01*
X123592335Y-57931206D01*
X123592328Y-57931202D01*
X123457482Y-57880908D01*
X123457483Y-57880908D01*
X123397883Y-57874501D01*
X123397881Y-57874500D01*
X123397873Y-57874500D01*
X123397864Y-57874500D01*
X121602129Y-57874500D01*
X121602123Y-57874501D01*
X121542516Y-57880908D01*
X121407671Y-57931202D01*
X121407664Y-57931206D01*
X121292455Y-58017452D01*
X121292452Y-58017455D01*
X121206206Y-58132664D01*
X121206202Y-58132671D01*
X121155908Y-58267517D01*
X121149501Y-58327116D01*
X121149501Y-58327123D01*
X121149500Y-58327135D01*
X115379252Y-58327135D01*
X115324799Y-58290751D01*
X115324788Y-58290744D01*
X115324783Y-58290741D01*
X115281332Y-58267516D01*
X115259086Y-58255625D01*
X115209242Y-58206662D01*
X115193782Y-58138524D01*
X115217614Y-58072845D01*
X115261246Y-58035782D01*
X115346610Y-57992287D01*
X115396144Y-57956298D01*
X115512213Y-57871971D01*
X115512215Y-57871968D01*
X115512219Y-57871966D01*
X115656966Y-57727219D01*
X115656968Y-57727215D01*
X115656971Y-57727213D01*
X115709732Y-57654590D01*
X115777287Y-57561610D01*
X115870220Y-57379219D01*
X115933477Y-57184534D01*
X115965500Y-56982352D01*
X115965500Y-56777648D01*
X115933477Y-56575466D01*
X115870220Y-56380781D01*
X115870218Y-56380778D01*
X115870218Y-56380776D01*
X115836503Y-56314607D01*
X115777287Y-56198390D01*
X115769556Y-56187749D01*
X115656971Y-56032786D01*
X115512213Y-55888028D01*
X115346614Y-55767715D01*
X115340006Y-55764348D01*
X115253917Y-55720483D01*
X115203123Y-55672511D01*
X115186328Y-55604690D01*
X115208865Y-55538555D01*
X115253917Y-55499516D01*
X115346610Y-55452287D01*
X115367770Y-55436913D01*
X115512213Y-55331971D01*
X115512215Y-55331968D01*
X115512219Y-55331966D01*
X115656966Y-55187219D01*
X115656968Y-55187215D01*
X115656971Y-55187213D01*
X115709732Y-55114590D01*
X115777287Y-55021610D01*
X115870220Y-54839219D01*
X115933477Y-54644534D01*
X115965500Y-54442352D01*
X115965500Y-54237648D01*
X115933477Y-54035466D01*
X115870220Y-53840781D01*
X115870218Y-53840778D01*
X115870218Y-53840776D01*
X115836503Y-53774607D01*
X115777287Y-53658390D01*
X115769556Y-53647749D01*
X115656971Y-53492786D01*
X115512213Y-53348028D01*
X115346614Y-53227715D01*
X115340006Y-53224348D01*
X115253917Y-53180483D01*
X115203123Y-53132511D01*
X115186328Y-53064690D01*
X115208865Y-52998555D01*
X115253917Y-52959516D01*
X115346610Y-52912287D01*
X115367770Y-52896913D01*
X115512213Y-52791971D01*
X115512215Y-52791968D01*
X115512219Y-52791966D01*
X115656966Y-52647219D01*
X115656968Y-52647215D01*
X115656971Y-52647213D01*
X115709732Y-52574590D01*
X115777287Y-52481610D01*
X115870220Y-52299219D01*
X115933477Y-52104534D01*
X115965500Y-51902352D01*
X115965500Y-51697648D01*
X115933477Y-51495466D01*
X115870220Y-51300781D01*
X115870218Y-51300778D01*
X115870218Y-51300776D01*
X115836503Y-51234607D01*
X115777287Y-51118390D01*
X115741939Y-51069737D01*
X115656971Y-50952786D01*
X115512213Y-50808028D01*
X115346614Y-50687715D01*
X115329847Y-50679172D01*
X115253917Y-50640483D01*
X115203123Y-50592511D01*
X115186328Y-50524690D01*
X115208865Y-50458555D01*
X115253917Y-50419516D01*
X115346610Y-50372287D01*
X115367770Y-50356913D01*
X115512213Y-50251971D01*
X115512215Y-50251968D01*
X115512219Y-50251966D01*
X115656966Y-50107219D01*
X115656968Y-50107215D01*
X115656971Y-50107213D01*
X115709732Y-50034590D01*
X115777287Y-49941610D01*
X115870220Y-49759219D01*
X115933477Y-49564534D01*
X115965500Y-49362352D01*
X115965500Y-49157648D01*
X115933477Y-48955466D01*
X115930953Y-48947699D01*
X115896701Y-48842281D01*
X115870220Y-48760781D01*
X115870218Y-48760778D01*
X115870218Y-48760776D01*
X115836503Y-48694607D01*
X115777287Y-48578390D01*
X115769556Y-48567749D01*
X115656971Y-48412786D01*
X115512213Y-48268028D01*
X115346614Y-48147715D01*
X115338410Y-48143535D01*
X115260703Y-48103941D01*
X115209908Y-48055968D01*
X115193113Y-47988147D01*
X115215650Y-47922012D01*
X115258546Y-47884099D01*
X115324493Y-47848849D01*
X115324511Y-47848838D01*
X115393912Y-47802465D01*
X114794409Y-47202962D01*
X114857993Y-47185925D01*
X114972007Y-47120099D01*
X115065099Y-47027007D01*
X115130925Y-46912993D01*
X115147962Y-46849409D01*
X115747465Y-47448912D01*
X115793838Y-47379511D01*
X115793844Y-47379501D01*
X115840509Y-47292198D01*
X115900814Y-47146612D01*
X115929555Y-47051864D01*
X115960298Y-46897302D01*
X115960298Y-46897299D01*
X115970000Y-46798789D01*
X115970000Y-46641210D01*
X115960298Y-46542700D01*
X115960298Y-46542697D01*
X115929555Y-46388135D01*
X115900814Y-46293387D01*
X115840509Y-46147801D01*
X115793841Y-46060493D01*
X115747465Y-45991086D01*
X115747465Y-45991085D01*
X115147962Y-46590589D01*
X115130925Y-46527007D01*
X115065099Y-46412993D01*
X114972007Y-46319901D01*
X114857993Y-46254075D01*
X114794410Y-46237037D01*
X115393913Y-45637534D01*
X115393912Y-45637533D01*
X115324506Y-45591158D01*
X115258545Y-45555900D01*
X115208701Y-45506937D01*
X115193241Y-45438799D01*
X115217073Y-45373119D01*
X115260702Y-45336059D01*
X115346610Y-45292287D01*
X115437745Y-45226074D01*
X115512213Y-45171971D01*
X115512215Y-45171968D01*
X115512219Y-45171966D01*
X115656966Y-45027219D01*
X115656968Y-45027215D01*
X115656971Y-45027213D01*
X115709732Y-44954590D01*
X115777287Y-44861610D01*
X115870220Y-44679219D01*
X115933477Y-44484534D01*
X115965500Y-44282352D01*
X115965500Y-44077648D01*
X115933477Y-43875466D01*
X115870220Y-43680781D01*
X115870218Y-43680778D01*
X115870218Y-43680776D01*
X115836503Y-43614607D01*
X115777287Y-43498390D01*
X115769556Y-43487749D01*
X115656971Y-43332786D01*
X115512213Y-43188028D01*
X115346614Y-43067715D01*
X115289231Y-43038477D01*
X115253917Y-43020483D01*
X115203123Y-42972511D01*
X115186328Y-42904690D01*
X115208865Y-42838555D01*
X115253917Y-42799516D01*
X115346610Y-42752287D01*
X115452733Y-42675185D01*
X115512213Y-42631971D01*
X115512215Y-42631968D01*
X115512219Y-42631966D01*
X115656966Y-42487219D01*
X115656968Y-42487215D01*
X115656971Y-42487213D01*
X115744170Y-42367192D01*
X115777287Y-42321610D01*
X115870220Y-42139219D01*
X115933477Y-41944534D01*
X115965500Y-41742352D01*
X115965500Y-41537648D01*
X115933477Y-41335466D01*
X115870220Y-41140781D01*
X115870218Y-41140778D01*
X115870218Y-41140776D01*
X115836503Y-41074607D01*
X115777287Y-40958390D01*
X115769556Y-40947749D01*
X115656971Y-40792786D01*
X115512213Y-40648028D01*
X115346613Y-40527715D01*
X115346612Y-40527714D01*
X115346610Y-40527713D01*
X115261855Y-40484528D01*
X115164223Y-40434781D01*
X114969534Y-40371522D01*
X114794995Y-40343878D01*
X114767352Y-40339500D01*
X114562648Y-40339500D01*
X114538329Y-40343351D01*
X114360465Y-40371522D01*
X114165776Y-40434781D01*
X113983386Y-40527715D01*
X113817786Y-40648028D01*
X113673028Y-40792786D01*
X113552715Y-40958386D01*
X113459781Y-41140776D01*
X113396522Y-41335465D01*
X113364500Y-41537648D01*
X113364500Y-41742351D01*
X113396522Y-41944534D01*
X113459781Y-42139223D01*
X113523691Y-42264653D01*
X113539976Y-42296613D01*
X113552715Y-42321613D01*
X113673028Y-42487213D01*
X113817786Y-42631971D01*
X113972749Y-42744556D01*
X113983390Y-42752287D01*
X114068139Y-42795469D01*
X114076080Y-42799515D01*
X114126876Y-42847490D01*
X114143671Y-42915311D01*
X114121134Y-42981446D01*
X114076080Y-43020485D01*
X113983386Y-43067715D01*
X113817786Y-43188028D01*
X113673028Y-43332786D01*
X113552715Y-43498386D01*
X113459781Y-43680776D01*
X113396522Y-43875465D01*
X113364500Y-44077648D01*
X113364500Y-44282351D01*
X113396522Y-44484534D01*
X113459781Y-44679223D01*
X113552715Y-44861613D01*
X113673028Y-45027213D01*
X113817782Y-45171967D01*
X113817787Y-45171971D01*
X113894583Y-45227767D01*
X113937249Y-45283097D01*
X113943228Y-45352710D01*
X113910622Y-45414505D01*
X113852365Y-45448233D01*
X113831967Y-45453439D01*
X113831956Y-45453442D01*
X113775415Y-45476862D01*
X114535590Y-46237037D01*
X114472007Y-46254075D01*
X114357993Y-46319901D01*
X114264901Y-46412993D01*
X114199075Y-46527007D01*
X114182037Y-46590590D01*
X113421862Y-45830415D01*
X113398449Y-45886940D01*
X113380455Y-45937946D01*
X113360000Y-46080219D01*
X113360000Y-47359785D01*
X113362893Y-47413762D01*
X113362893Y-47413764D01*
X113398438Y-47553030D01*
X113398440Y-47553037D01*
X113421863Y-47609583D01*
X114182037Y-46849409D01*
X114199075Y-46912993D01*
X114264901Y-47027007D01*
X114357993Y-47120099D01*
X114472007Y-47185925D01*
X114535590Y-47202962D01*
X113775415Y-47963135D01*
X113775415Y-47963136D01*
X113831954Y-47986556D01*
X113831961Y-47986558D01*
X113860621Y-47996669D01*
X113917294Y-48037534D01*
X113942876Y-48102552D01*
X113929246Y-48171080D01*
X113892256Y-48213924D01*
X113817782Y-48268032D01*
X113673028Y-48412786D01*
X113552715Y-48578386D01*
X113459781Y-48760776D01*
X113396522Y-48955465D01*
X113364500Y-49157648D01*
X113364500Y-49362351D01*
X113396522Y-49564534D01*
X113459781Y-49759223D01*
X113475314Y-49789707D01*
X113542120Y-49920821D01*
X113552715Y-49941613D01*
X113673028Y-50107213D01*
X113817786Y-50251971D01*
X113972749Y-50364556D01*
X113983390Y-50372287D01*
X114074840Y-50418883D01*
X114076080Y-50419515D01*
X114126876Y-50467490D01*
X114143671Y-50535311D01*
X114121134Y-50601446D01*
X114076080Y-50640485D01*
X113983386Y-50687715D01*
X113817786Y-50808028D01*
X113673028Y-50952786D01*
X113552715Y-51118386D01*
X113459781Y-51300776D01*
X113396522Y-51495465D01*
X113364500Y-51697648D01*
X113364500Y-51902351D01*
X113396522Y-52104534D01*
X113459781Y-52299223D01*
X113552715Y-52481613D01*
X113673028Y-52647213D01*
X113817786Y-52791971D01*
X113972749Y-52904556D01*
X113983390Y-52912287D01*
X114074840Y-52958883D01*
X114076080Y-52959515D01*
X114126876Y-53007490D01*
X114143671Y-53075311D01*
X114121134Y-53141446D01*
X114076080Y-53180485D01*
X113983386Y-53227715D01*
X113817786Y-53348028D01*
X113673028Y-53492786D01*
X113552715Y-53658386D01*
X113459781Y-53840776D01*
X113396522Y-54035465D01*
X113364500Y-54237648D01*
X113364500Y-54442351D01*
X113396522Y-54644534D01*
X113459781Y-54839223D01*
X113552715Y-55021613D01*
X113673028Y-55187213D01*
X113817786Y-55331971D01*
X113972749Y-55444556D01*
X113983390Y-55452287D01*
X114074840Y-55498883D01*
X114076080Y-55499515D01*
X114126876Y-55547490D01*
X114143671Y-55615311D01*
X114121134Y-55681446D01*
X114076080Y-55720485D01*
X113983386Y-55767715D01*
X113817786Y-55888028D01*
X113673028Y-56032786D01*
X113552715Y-56198386D01*
X113459781Y-56380776D01*
X113396522Y-56575465D01*
X113364500Y-56777648D01*
X113364500Y-56982351D01*
X113396522Y-57184534D01*
X113459781Y-57379223D01*
X113552715Y-57561613D01*
X113673028Y-57727213D01*
X113817782Y-57871967D01*
X113817787Y-57871971D01*
X113894063Y-57927389D01*
X113936729Y-57982719D01*
X113942708Y-58052332D01*
X113910102Y-58114127D01*
X113851845Y-58147855D01*
X113831776Y-58152977D01*
X113831766Y-58152980D01*
X113758280Y-58183419D01*
X113758252Y-58183431D01*
X113709451Y-58206779D01*
X113709446Y-58206782D01*
X113594268Y-58293005D01*
X113594256Y-58293015D01*
X113538019Y-58349252D01*
X113501843Y-58389524D01*
X113501837Y-58389532D01*
X113428426Y-58513263D01*
X113397978Y-58586774D01*
X113397970Y-58586795D01*
X113379976Y-58637800D01*
X113359500Y-58780219D01*
X113359500Y-60059784D01*
X113362395Y-60113814D01*
X113362396Y-60113818D01*
X113397976Y-60253221D01*
X113397980Y-60253233D01*
X113428419Y-60326719D01*
X113428431Y-60326747D01*
X113451779Y-60375548D01*
X113451781Y-60375551D01*
X113538006Y-60490733D01*
X113538010Y-60490737D01*
X113538015Y-60490743D01*
X113594252Y-60546980D01*
X113594261Y-60546988D01*
X113594267Y-60546994D01*
X113625999Y-60575498D01*
X113634524Y-60583156D01*
X113634532Y-60583162D01*
X113758263Y-60656573D01*
X113758262Y-60656573D01*
X113765329Y-60659500D01*
X113831774Y-60687022D01*
X113847645Y-60692621D01*
X113860133Y-60697027D01*
X113916805Y-60737894D01*
X113942386Y-60802912D01*
X113928754Y-60871439D01*
X113891765Y-60914281D01*
X113817782Y-60968032D01*
X113673028Y-61112786D01*
X113552715Y-61278386D01*
X113459781Y-61460776D01*
X113396522Y-61655465D01*
X113364500Y-61857648D01*
X113364500Y-62062351D01*
X113396522Y-62264534D01*
X113459781Y-62459223D01*
X113494171Y-62526716D01*
X113552712Y-62641609D01*
X113552715Y-62641613D01*
X113673028Y-62807213D01*
X113817786Y-62951971D01*
X113972749Y-63064556D01*
X113983390Y-63072287D01*
X114067219Y-63115000D01*
X114076080Y-63119515D01*
X114126876Y-63167490D01*
X114143671Y-63235311D01*
X114121134Y-63301446D01*
X114076080Y-63340485D01*
X113983386Y-63387715D01*
X113817786Y-63508028D01*
X113673028Y-63652786D01*
X113552715Y-63818386D01*
X113459781Y-64000776D01*
X113396522Y-64195465D01*
X113364500Y-64397648D01*
X113364500Y-64602351D01*
X113396522Y-64804534D01*
X113459781Y-64999223D01*
X113552715Y-65181613D01*
X113673028Y-65347213D01*
X113817786Y-65491971D01*
X113972749Y-65604556D01*
X113983390Y-65612287D01*
X114074840Y-65658883D01*
X114076080Y-65659515D01*
X114126876Y-65707490D01*
X114143671Y-65775311D01*
X114121134Y-65841446D01*
X114076080Y-65880485D01*
X113983386Y-65927715D01*
X113817786Y-66048028D01*
X113673028Y-66192786D01*
X113552715Y-66358386D01*
X113459781Y-66540776D01*
X113396522Y-66735465D01*
X113364500Y-66937648D01*
X113364500Y-67142351D01*
X113396522Y-67344534D01*
X113459781Y-67539223D01*
X113513045Y-67643757D01*
X113546797Y-67710000D01*
X113552715Y-67721613D01*
X113673028Y-67887213D01*
X113817781Y-68031966D01*
X113820415Y-68034216D01*
X113821136Y-68035321D01*
X113821226Y-68035411D01*
X113821207Y-68035429D01*
X113858603Y-68092725D01*
X113859097Y-68162593D01*
X113821739Y-68221637D01*
X113758390Y-68251110D01*
X113739876Y-68252500D01*
X109974746Y-68252500D01*
X109891129Y-68287136D01*
X109442086Y-68736181D01*
X109380763Y-68769666D01*
X109354405Y-68772500D01*
X107278131Y-68772500D01*
X107211092Y-68752815D01*
X107165337Y-68700011D01*
X107155393Y-68630853D01*
X107175029Y-68579609D01*
X107213820Y-68521553D01*
X107213820Y-68521552D01*
X107213824Y-68521547D01*
X107274545Y-68374956D01*
X107305500Y-68219335D01*
X107305500Y-68060665D01*
X107305500Y-68060662D01*
X107305499Y-68060660D01*
X107274546Y-67905051D01*
X107274545Y-67905044D01*
X107213824Y-67758453D01*
X107213822Y-67758450D01*
X107213820Y-67758446D01*
X107125672Y-67626524D01*
X107125669Y-67626520D01*
X107013479Y-67514330D01*
X107013475Y-67514327D01*
X106881553Y-67426179D01*
X106881544Y-67426174D01*
X106861099Y-67417706D01*
X106806696Y-67373865D01*
X106786936Y-67327339D01*
X106774545Y-67265044D01*
X106713824Y-67118453D01*
X106713822Y-67118450D01*
X106713820Y-67118446D01*
X106625672Y-66986524D01*
X106625669Y-66986520D01*
X106513479Y-66874330D01*
X106513475Y-66874327D01*
X106381553Y-66786179D01*
X106381543Y-66786174D01*
X106234956Y-66725455D01*
X106234948Y-66725453D01*
X106079338Y-66694500D01*
X106079335Y-66694500D01*
X105920665Y-66694500D01*
X105920662Y-66694500D01*
X105765051Y-66725453D01*
X105765043Y-66725455D01*
X105618456Y-66786174D01*
X105618446Y-66786179D01*
X105486524Y-66874327D01*
X105486520Y-66874330D01*
X105374330Y-66986520D01*
X105374327Y-66986524D01*
X105286179Y-67118446D01*
X105286174Y-67118456D01*
X105254074Y-67195953D01*
X105210233Y-67250356D01*
X105143939Y-67272421D01*
X105139513Y-67272500D01*
X99145595Y-67272500D01*
X99078556Y-67252815D01*
X99057914Y-67236181D01*
X97592477Y-65770743D01*
X97558992Y-65709420D01*
X97563976Y-65639728D01*
X97605848Y-65583795D01*
X97607201Y-65582796D01*
X97732219Y-65491966D01*
X97876966Y-65347219D01*
X97876968Y-65347215D01*
X97876971Y-65347213D01*
X97929732Y-65274590D01*
X97997287Y-65181610D01*
X98090220Y-64999219D01*
X98153477Y-64804534D01*
X98185500Y-64602352D01*
X98185500Y-64397648D01*
X98153477Y-64195466D01*
X98090220Y-64000781D01*
X98090218Y-64000778D01*
X98090218Y-64000776D01*
X98056503Y-63934607D01*
X97997287Y-63818390D01*
X97989556Y-63807749D01*
X97876971Y-63652786D01*
X97732213Y-63508028D01*
X97566614Y-63387715D01*
X97560006Y-63384348D01*
X97473917Y-63340483D01*
X97423123Y-63292511D01*
X97406328Y-63224690D01*
X97428865Y-63158555D01*
X97473917Y-63119516D01*
X97566610Y-63072287D01*
X97587770Y-63056913D01*
X97732213Y-62951971D01*
X97732215Y-62951968D01*
X97732219Y-62951966D01*
X97876966Y-62807219D01*
X97876968Y-62807215D01*
X97876971Y-62807213D01*
X97929732Y-62734590D01*
X97997287Y-62641610D01*
X98090220Y-62459219D01*
X98153477Y-62264534D01*
X98185500Y-62062352D01*
X98185500Y-61857648D01*
X98153477Y-61655466D01*
X98090220Y-61460781D01*
X98090218Y-61460778D01*
X98090218Y-61460776D01*
X98056503Y-61394607D01*
X97997287Y-61278390D01*
X97974323Y-61246782D01*
X97876971Y-61112786D01*
X97732217Y-60968032D01*
X97655415Y-60912232D01*
X97612750Y-60856902D01*
X97606771Y-60787288D01*
X97639377Y-60725494D01*
X97697640Y-60691765D01*
X97718022Y-60686563D01*
X97718035Y-60686559D01*
X97774582Y-60663135D01*
X97014409Y-59902962D01*
X97077993Y-59885925D01*
X97192007Y-59820099D01*
X97285099Y-59727007D01*
X97350925Y-59612993D01*
X97367962Y-59549409D01*
X98128135Y-60309582D01*
X98128137Y-60309582D01*
X98151552Y-60253053D01*
X98169544Y-60202053D01*
X98189999Y-60059780D01*
X98190000Y-60059779D01*
X98190000Y-58780214D01*
X98187106Y-58726237D01*
X98187106Y-58726235D01*
X98151558Y-58586960D01*
X98128136Y-58530415D01*
X98128135Y-58530415D01*
X97367962Y-59290589D01*
X97350925Y-59227007D01*
X97285099Y-59112993D01*
X97192007Y-59019901D01*
X97077993Y-58954075D01*
X97014410Y-58937037D01*
X97774583Y-58176863D01*
X97774583Y-58176862D01*
X97718052Y-58153447D01*
X97718013Y-58153432D01*
X97689375Y-58143329D01*
X97632704Y-58102463D01*
X97607122Y-58037444D01*
X97620754Y-57968917D01*
X97657745Y-57926074D01*
X97732215Y-57871969D01*
X97732215Y-57871968D01*
X97732219Y-57871966D01*
X97876966Y-57727219D01*
X97876968Y-57727215D01*
X97876971Y-57727213D01*
X97929732Y-57654590D01*
X97997287Y-57561610D01*
X98090220Y-57379219D01*
X98153477Y-57184534D01*
X98185500Y-56982352D01*
X98185500Y-56777648D01*
X98153477Y-56575466D01*
X98090220Y-56380781D01*
X98090218Y-56380778D01*
X98090218Y-56380776D01*
X98056503Y-56314607D01*
X97997287Y-56198390D01*
X97989556Y-56187749D01*
X97876971Y-56032786D01*
X97732213Y-55888028D01*
X97566614Y-55767715D01*
X97560006Y-55764348D01*
X97473917Y-55720483D01*
X97423123Y-55672511D01*
X97406328Y-55604690D01*
X97428865Y-55538555D01*
X97473917Y-55499516D01*
X97566610Y-55452287D01*
X97587770Y-55436913D01*
X97732213Y-55331971D01*
X97732215Y-55331968D01*
X97732219Y-55331966D01*
X97876966Y-55187219D01*
X97876968Y-55187215D01*
X97876971Y-55187213D01*
X97929732Y-55114590D01*
X97997287Y-55021610D01*
X98090220Y-54839219D01*
X98153477Y-54644534D01*
X98185500Y-54442352D01*
X98185500Y-54237648D01*
X98153477Y-54035466D01*
X98090220Y-53840781D01*
X98090218Y-53840778D01*
X98090218Y-53840776D01*
X98056503Y-53774607D01*
X97997287Y-53658390D01*
X97989556Y-53647749D01*
X97876971Y-53492786D01*
X97732213Y-53348028D01*
X97566614Y-53227715D01*
X97560006Y-53224348D01*
X97473917Y-53180483D01*
X97423123Y-53132511D01*
X97406328Y-53064690D01*
X97428865Y-52998555D01*
X97473917Y-52959516D01*
X97566610Y-52912287D01*
X97587770Y-52896913D01*
X97732213Y-52791971D01*
X97732215Y-52791968D01*
X97732219Y-52791966D01*
X97876966Y-52647219D01*
X97876968Y-52647215D01*
X97876971Y-52647213D01*
X97929732Y-52574590D01*
X97997287Y-52481610D01*
X98090220Y-52299219D01*
X98153477Y-52104534D01*
X98185500Y-51902352D01*
X98185500Y-51697648D01*
X98153477Y-51495466D01*
X98090220Y-51300781D01*
X98090218Y-51300778D01*
X98090218Y-51300776D01*
X98056503Y-51234607D01*
X97997287Y-51118390D01*
X97961939Y-51069737D01*
X97876971Y-50952786D01*
X97732213Y-50808028D01*
X97566614Y-50687715D01*
X97549847Y-50679172D01*
X97473917Y-50640483D01*
X97423123Y-50592511D01*
X97406328Y-50524690D01*
X97428865Y-50458555D01*
X97473917Y-50419516D01*
X97566610Y-50372287D01*
X97587770Y-50356913D01*
X97732213Y-50251971D01*
X97732215Y-50251968D01*
X97732219Y-50251966D01*
X97876966Y-50107219D01*
X97876968Y-50107215D01*
X97876971Y-50107213D01*
X97929732Y-50034590D01*
X97997287Y-49941610D01*
X98090220Y-49759219D01*
X98153477Y-49564534D01*
X98185500Y-49362352D01*
X98185500Y-49157648D01*
X98153477Y-48955466D01*
X98150953Y-48947699D01*
X98116701Y-48842281D01*
X98090220Y-48760781D01*
X98090218Y-48760778D01*
X98090218Y-48760776D01*
X98056503Y-48694607D01*
X97997287Y-48578390D01*
X97989556Y-48567749D01*
X97876971Y-48412786D01*
X97732217Y-48268032D01*
X97655415Y-48212232D01*
X97612750Y-48156902D01*
X97606771Y-48087288D01*
X97639377Y-48025494D01*
X97697640Y-47991765D01*
X97718022Y-47986563D01*
X97718035Y-47986559D01*
X97774582Y-47963135D01*
X97014409Y-47202962D01*
X97077993Y-47185925D01*
X97192007Y-47120099D01*
X97285099Y-47027007D01*
X97350925Y-46912993D01*
X97367962Y-46849409D01*
X98128135Y-47609582D01*
X98128137Y-47609582D01*
X98151552Y-47553053D01*
X98169544Y-47502053D01*
X98189999Y-47359780D01*
X98190000Y-47359779D01*
X98190000Y-46080224D01*
X98189999Y-46080204D01*
X98187106Y-46026237D01*
X98187106Y-46026235D01*
X98151558Y-45886960D01*
X98128136Y-45830415D01*
X98128135Y-45830415D01*
X97367962Y-46590589D01*
X97350925Y-46527007D01*
X97285099Y-46412993D01*
X97192007Y-46319901D01*
X97077993Y-46254075D01*
X97014410Y-46237037D01*
X97774583Y-45476863D01*
X97774583Y-45476862D01*
X97718052Y-45453447D01*
X97718013Y-45453432D01*
X97689375Y-45443329D01*
X97632704Y-45402463D01*
X97607122Y-45337444D01*
X97620754Y-45268917D01*
X97657745Y-45226074D01*
X97732215Y-45171969D01*
X97732215Y-45171968D01*
X97732219Y-45171966D01*
X97876966Y-45027219D01*
X97876968Y-45027215D01*
X97876971Y-45027213D01*
X97929732Y-44954590D01*
X97997287Y-44861610D01*
X98073812Y-44711421D01*
X102224500Y-44711421D01*
X102224500Y-44888578D01*
X102252214Y-45063556D01*
X102306956Y-45232039D01*
X102306957Y-45232042D01*
X102387386Y-45389890D01*
X102491517Y-45533214D01*
X102616786Y-45658483D01*
X102760110Y-45762614D01*
X102837529Y-45802061D01*
X102917957Y-45843042D01*
X102917960Y-45843043D01*
X103002201Y-45870414D01*
X103086445Y-45897786D01*
X103261421Y-45925500D01*
X103261422Y-45925500D01*
X103438578Y-45925500D01*
X103438579Y-45925500D01*
X103613555Y-45897786D01*
X103782042Y-45843042D01*
X103939890Y-45762614D01*
X104083214Y-45658483D01*
X104208483Y-45533214D01*
X104312614Y-45389890D01*
X104393042Y-45232042D01*
X104447786Y-45063555D01*
X104475500Y-44888579D01*
X104475500Y-44711421D01*
X107074500Y-44711421D01*
X107074500Y-44888578D01*
X107102214Y-45063556D01*
X107156956Y-45232039D01*
X107156957Y-45232042D01*
X107237386Y-45389890D01*
X107341517Y-45533214D01*
X107466786Y-45658483D01*
X107610110Y-45762614D01*
X107687529Y-45802061D01*
X107767957Y-45843042D01*
X107767960Y-45843043D01*
X107852201Y-45870414D01*
X107936445Y-45897786D01*
X108111421Y-45925500D01*
X108111422Y-45925500D01*
X108288578Y-45925500D01*
X108288579Y-45925500D01*
X108463555Y-45897786D01*
X108632042Y-45843042D01*
X108789890Y-45762614D01*
X108933214Y-45658483D01*
X109058483Y-45533214D01*
X109162614Y-45389890D01*
X109243042Y-45232042D01*
X109297786Y-45063555D01*
X109325500Y-44888579D01*
X109325500Y-44711421D01*
X109297786Y-44536445D01*
X109243042Y-44367958D01*
X109243042Y-44367957D01*
X109162613Y-44210109D01*
X109058483Y-44066786D01*
X108933214Y-43941517D01*
X108789890Y-43837386D01*
X108632042Y-43756957D01*
X108632039Y-43756956D01*
X108463556Y-43702214D01*
X108376067Y-43688357D01*
X108288579Y-43674500D01*
X108111421Y-43674500D01*
X108071797Y-43680776D01*
X107936443Y-43702214D01*
X107767960Y-43756956D01*
X107767957Y-43756957D01*
X107610109Y-43837386D01*
X107557697Y-43875466D01*
X107466786Y-43941517D01*
X107466784Y-43941519D01*
X107466783Y-43941519D01*
X107341519Y-44066783D01*
X107341519Y-44066784D01*
X107341517Y-44066786D01*
X107296796Y-44128338D01*
X107237386Y-44210109D01*
X107156957Y-44367957D01*
X107156956Y-44367960D01*
X107102214Y-44536443D01*
X107074500Y-44711421D01*
X104475500Y-44711421D01*
X104447786Y-44536445D01*
X104393042Y-44367958D01*
X104393042Y-44367957D01*
X104312613Y-44210109D01*
X104208483Y-44066786D01*
X104083214Y-43941517D01*
X103939890Y-43837386D01*
X103782042Y-43756957D01*
X103782039Y-43756956D01*
X103613556Y-43702214D01*
X103526067Y-43688357D01*
X103438579Y-43674500D01*
X103261421Y-43674500D01*
X103221797Y-43680776D01*
X103086443Y-43702214D01*
X102917960Y-43756956D01*
X102917957Y-43756957D01*
X102760109Y-43837386D01*
X102707697Y-43875466D01*
X102616786Y-43941517D01*
X102616784Y-43941519D01*
X102616783Y-43941519D01*
X102491519Y-44066783D01*
X102491519Y-44066784D01*
X102491517Y-44066786D01*
X102446796Y-44128338D01*
X102387386Y-44210109D01*
X102306957Y-44367957D01*
X102306956Y-44367960D01*
X102252214Y-44536443D01*
X102224500Y-44711421D01*
X98073812Y-44711421D01*
X98090220Y-44679219D01*
X98153477Y-44484534D01*
X98185500Y-44282352D01*
X98185500Y-44077648D01*
X98153477Y-43875466D01*
X98090220Y-43680781D01*
X98090218Y-43680778D01*
X98090218Y-43680776D01*
X98056503Y-43614607D01*
X97997287Y-43498390D01*
X97989556Y-43487749D01*
X97876971Y-43332786D01*
X97732217Y-43188032D01*
X97732212Y-43188028D01*
X97651440Y-43129344D01*
X97608774Y-43074015D01*
X97602795Y-43004401D01*
X97635400Y-42942606D01*
X97687433Y-42910641D01*
X97774606Y-42883478D01*
X97920185Y-42795472D01*
X98040472Y-42675185D01*
X98128478Y-42529606D01*
X98179086Y-42367196D01*
X98185500Y-42296616D01*
X98185500Y-41667648D01*
X101749500Y-41667648D01*
X101749500Y-41872351D01*
X101781522Y-42074534D01*
X101844781Y-42269223D01*
X101937715Y-42451613D01*
X102058028Y-42617213D01*
X102202786Y-42761971D01*
X102357749Y-42874556D01*
X102368390Y-42882287D01*
X102470051Y-42934086D01*
X102550776Y-42975218D01*
X102550778Y-42975218D01*
X102550781Y-42975220D01*
X102640591Y-43004401D01*
X102745465Y-43038477D01*
X102846557Y-43054488D01*
X102947648Y-43070500D01*
X102947649Y-43070500D01*
X103152351Y-43070500D01*
X103152352Y-43070500D01*
X103354534Y-43038477D01*
X103549219Y-42975220D01*
X103731610Y-42882287D01*
X103851106Y-42795469D01*
X103897213Y-42761971D01*
X103897215Y-42761968D01*
X103897219Y-42761966D01*
X104041966Y-42617219D01*
X104041968Y-42617215D01*
X104041971Y-42617213D01*
X104105620Y-42529606D01*
X104162287Y-42451610D01*
X104255220Y-42269219D01*
X104318477Y-42074534D01*
X104350500Y-41872352D01*
X104350500Y-41667648D01*
X107199500Y-41667648D01*
X107199500Y-41872351D01*
X107231522Y-42074534D01*
X107294781Y-42269223D01*
X107387715Y-42451613D01*
X107508028Y-42617213D01*
X107652786Y-42761971D01*
X107807749Y-42874556D01*
X107818390Y-42882287D01*
X107920051Y-42934086D01*
X108000776Y-42975218D01*
X108000778Y-42975218D01*
X108000781Y-42975220D01*
X108090591Y-43004401D01*
X108195465Y-43038477D01*
X108296557Y-43054488D01*
X108397648Y-43070500D01*
X108397649Y-43070500D01*
X108602351Y-43070500D01*
X108602352Y-43070500D01*
X108804534Y-43038477D01*
X108999219Y-42975220D01*
X109181610Y-42882287D01*
X109301106Y-42795469D01*
X109347213Y-42761971D01*
X109347215Y-42761968D01*
X109347219Y-42761966D01*
X109491966Y-42617219D01*
X109491968Y-42617215D01*
X109491971Y-42617213D01*
X109555620Y-42529606D01*
X109612287Y-42451610D01*
X109705220Y-42269219D01*
X109768477Y-42074534D01*
X109800500Y-41872352D01*
X109800500Y-41667648D01*
X109768477Y-41465466D01*
X109705220Y-41270781D01*
X109705218Y-41270778D01*
X109705218Y-41270776D01*
X109671503Y-41204607D01*
X109612287Y-41088390D01*
X109604556Y-41077749D01*
X109491971Y-40922786D01*
X109347213Y-40778028D01*
X109181613Y-40657715D01*
X109181612Y-40657714D01*
X109181610Y-40657713D01*
X109124653Y-40628691D01*
X108999223Y-40564781D01*
X108804534Y-40501522D01*
X108629995Y-40473878D01*
X108602352Y-40469500D01*
X108397648Y-40469500D01*
X108373329Y-40473351D01*
X108195465Y-40501522D01*
X108000776Y-40564781D01*
X107818386Y-40657715D01*
X107652786Y-40778028D01*
X107508028Y-40922786D01*
X107387715Y-41088386D01*
X107294781Y-41270776D01*
X107231522Y-41465465D01*
X107199500Y-41667648D01*
X104350500Y-41667648D01*
X104318477Y-41465465D01*
X104255218Y-41270776D01*
X104221503Y-41204607D01*
X104162287Y-41088390D01*
X104154556Y-41077749D01*
X104041971Y-40922786D01*
X103897213Y-40778028D01*
X103731613Y-40657715D01*
X103731612Y-40657714D01*
X103731610Y-40657713D01*
X103674653Y-40628691D01*
X103549223Y-40564781D01*
X103354534Y-40501522D01*
X103179995Y-40473878D01*
X103152352Y-40469500D01*
X102947648Y-40469500D01*
X102923329Y-40473351D01*
X102745465Y-40501522D01*
X102550776Y-40564781D01*
X102368386Y-40657715D01*
X102202786Y-40778028D01*
X102058028Y-40922786D01*
X101937715Y-41088386D01*
X101844781Y-41270776D01*
X101781522Y-41465465D01*
X101749500Y-41667648D01*
X98185500Y-41667648D01*
X98185500Y-40983384D01*
X98179086Y-40912804D01*
X98128478Y-40750394D01*
X98040472Y-40604815D01*
X98040470Y-40604813D01*
X98040469Y-40604811D01*
X97920188Y-40484530D01*
X97774606Y-40396522D01*
X97612196Y-40345914D01*
X97612194Y-40345913D01*
X97612192Y-40345913D01*
X97562778Y-40341423D01*
X97541616Y-40339500D01*
X96228384Y-40339500D01*
X96209145Y-40341248D01*
X96157807Y-40345913D01*
X95995393Y-40396522D01*
X95849811Y-40484530D01*
X95729530Y-40604811D01*
X95641522Y-40750393D01*
X95590913Y-40912807D01*
X95584500Y-40983386D01*
X95584500Y-42296613D01*
X95590913Y-42367192D01*
X95641522Y-42529606D01*
X95729530Y-42675188D01*
X95849811Y-42795469D01*
X95849813Y-42795470D01*
X95849815Y-42795472D01*
X95995394Y-42883478D01*
X96082566Y-42910641D01*
X96140712Y-42949378D01*
X96168686Y-43013403D01*
X96157605Y-43082388D01*
X96118560Y-43129344D01*
X96037782Y-43188032D01*
X95893028Y-43332786D01*
X95772715Y-43498386D01*
X95679781Y-43680776D01*
X95616522Y-43875465D01*
X95584500Y-44077648D01*
X95584500Y-44282351D01*
X95616522Y-44484534D01*
X95679781Y-44679223D01*
X95772715Y-44861613D01*
X95893028Y-45027213D01*
X96037786Y-45171971D01*
X96203388Y-45292286D01*
X96203390Y-45292287D01*
X96289294Y-45336057D01*
X96340090Y-45384031D01*
X96356886Y-45451852D01*
X96334349Y-45517987D01*
X96291455Y-45555899D01*
X96225494Y-45591157D01*
X96225489Y-45591160D01*
X96156086Y-45637532D01*
X96156085Y-45637533D01*
X96755590Y-46237037D01*
X96692007Y-46254075D01*
X96577993Y-46319901D01*
X96484901Y-46412993D01*
X96419075Y-46527007D01*
X96402037Y-46590589D01*
X95802533Y-45991085D01*
X95802532Y-45991086D01*
X95756161Y-46060488D01*
X95709490Y-46147801D01*
X95649185Y-46293387D01*
X95620444Y-46388135D01*
X95589701Y-46542697D01*
X95589701Y-46542700D01*
X95580000Y-46641210D01*
X95580000Y-46798789D01*
X95589701Y-46897299D01*
X95589701Y-46897302D01*
X95620444Y-47051864D01*
X95649185Y-47146612D01*
X95709490Y-47292198D01*
X95756158Y-47379506D01*
X95802533Y-47448912D01*
X95802534Y-47448913D01*
X96402037Y-46849409D01*
X96419075Y-46912993D01*
X96484901Y-47027007D01*
X96577993Y-47120099D01*
X96692007Y-47185925D01*
X96755590Y-47202962D01*
X96156085Y-47802465D01*
X96225493Y-47848841D01*
X96291454Y-47884099D01*
X96341298Y-47933062D01*
X96356758Y-48001200D01*
X96332926Y-48066879D01*
X96289295Y-48103942D01*
X96203386Y-48147715D01*
X96037786Y-48268028D01*
X95893028Y-48412786D01*
X95772715Y-48578386D01*
X95679781Y-48760776D01*
X95616522Y-48955465D01*
X95584500Y-49157648D01*
X95584500Y-49362351D01*
X95616522Y-49564534D01*
X95679781Y-49759223D01*
X95695314Y-49789707D01*
X95762120Y-49920821D01*
X95772715Y-49941613D01*
X95893028Y-50107213D01*
X96037786Y-50251971D01*
X96192749Y-50364556D01*
X96203390Y-50372287D01*
X96294840Y-50418883D01*
X96296080Y-50419515D01*
X96346876Y-50467490D01*
X96363671Y-50535311D01*
X96341134Y-50601446D01*
X96296080Y-50640485D01*
X96203386Y-50687715D01*
X96037786Y-50808028D01*
X95893028Y-50952786D01*
X95772715Y-51118386D01*
X95679781Y-51300776D01*
X95616522Y-51495465D01*
X95584500Y-51697648D01*
X95584500Y-51902351D01*
X95616522Y-52104534D01*
X95679781Y-52299223D01*
X95772715Y-52481613D01*
X95893028Y-52647213D01*
X96037786Y-52791971D01*
X96192749Y-52904556D01*
X96203390Y-52912287D01*
X96294840Y-52958883D01*
X96296080Y-52959515D01*
X96346876Y-53007490D01*
X96363671Y-53075311D01*
X96341134Y-53141446D01*
X96296080Y-53180485D01*
X96203386Y-53227715D01*
X96037786Y-53348028D01*
X95893028Y-53492786D01*
X95772715Y-53658386D01*
X95679781Y-53840776D01*
X95616522Y-54035465D01*
X95584500Y-54237648D01*
X95584500Y-54442351D01*
X95616522Y-54644534D01*
X95679781Y-54839223D01*
X95772715Y-55021613D01*
X95893028Y-55187213D01*
X96037786Y-55331971D01*
X96192749Y-55444556D01*
X96203390Y-55452287D01*
X96294840Y-55498883D01*
X96296080Y-55499515D01*
X96346876Y-55547490D01*
X96363671Y-55615311D01*
X96341134Y-55681446D01*
X96296080Y-55720485D01*
X96203386Y-55767715D01*
X96037786Y-55888028D01*
X95893028Y-56032786D01*
X95772715Y-56198386D01*
X95679781Y-56380776D01*
X95616522Y-56575465D01*
X95584500Y-56777648D01*
X95584500Y-56982351D01*
X95616522Y-57184534D01*
X95679781Y-57379223D01*
X95772715Y-57561613D01*
X95893028Y-57727213D01*
X96037786Y-57871971D01*
X96203388Y-57992286D01*
X96203390Y-57992287D01*
X96289294Y-58036057D01*
X96340090Y-58084031D01*
X96356886Y-58151852D01*
X96334349Y-58217987D01*
X96291455Y-58255899D01*
X96225494Y-58291157D01*
X96225489Y-58291160D01*
X96156086Y-58337532D01*
X96156085Y-58337533D01*
X96755590Y-58937037D01*
X96692007Y-58954075D01*
X96577993Y-59019901D01*
X96484901Y-59112993D01*
X96419075Y-59227007D01*
X96402037Y-59290589D01*
X95802533Y-58691085D01*
X95802532Y-58691086D01*
X95756161Y-58760488D01*
X95709490Y-58847801D01*
X95649185Y-58993387D01*
X95620444Y-59088135D01*
X95589701Y-59242697D01*
X95589701Y-59242700D01*
X95580000Y-59341210D01*
X95580000Y-59498789D01*
X95589701Y-59597299D01*
X95589701Y-59597302D01*
X95620444Y-59751864D01*
X95649185Y-59846612D01*
X95709490Y-59992198D01*
X95756158Y-60079506D01*
X95802533Y-60148912D01*
X95802534Y-60148913D01*
X96402037Y-59549409D01*
X96419075Y-59612993D01*
X96484901Y-59727007D01*
X96577993Y-59820099D01*
X96692007Y-59885925D01*
X96755590Y-59902962D01*
X96156085Y-60502465D01*
X96225493Y-60548841D01*
X96291454Y-60584099D01*
X96341298Y-60633062D01*
X96356758Y-60701200D01*
X96332926Y-60766879D01*
X96289295Y-60803942D01*
X96203386Y-60847715D01*
X96037786Y-60968028D01*
X95893028Y-61112786D01*
X95772715Y-61278386D01*
X95679781Y-61460776D01*
X95616522Y-61655465D01*
X95584500Y-61857648D01*
X95584500Y-62062351D01*
X95616522Y-62264534D01*
X95679781Y-62459223D01*
X95714171Y-62526716D01*
X95772712Y-62641609D01*
X95772715Y-62641613D01*
X95893028Y-62807213D01*
X96037786Y-62951971D01*
X96192749Y-63064556D01*
X96203390Y-63072287D01*
X96287219Y-63115000D01*
X96296080Y-63119515D01*
X96346876Y-63167490D01*
X96363671Y-63235311D01*
X96341134Y-63301446D01*
X96296080Y-63340485D01*
X96203386Y-63387715D01*
X96037786Y-63508028D01*
X95893028Y-63652786D01*
X95772715Y-63818386D01*
X95679781Y-64000776D01*
X95616522Y-64195465D01*
X95584500Y-64397648D01*
X95584500Y-64602351D01*
X95616522Y-64804534D01*
X95679781Y-64999223D01*
X95772715Y-65181613D01*
X95893028Y-65347213D01*
X96037781Y-65491966D01*
X96040415Y-65494216D01*
X96041136Y-65495321D01*
X96041226Y-65495411D01*
X96041207Y-65495429D01*
X96078603Y-65552725D01*
X96079097Y-65622593D01*
X96041739Y-65681637D01*
X95978390Y-65711110D01*
X95959876Y-65712500D01*
X82514746Y-65712500D01*
X82431130Y-65747136D01*
X81131762Y-67046504D01*
X81070439Y-67079989D01*
X81000747Y-67075005D01*
X80956400Y-67046504D01*
X80839786Y-66929890D01*
X80667820Y-66804951D01*
X80478414Y-66708444D01*
X80478413Y-66708443D01*
X80478412Y-66708443D01*
X80276243Y-66642754D01*
X80276241Y-66642753D01*
X80276240Y-66642753D01*
X80114957Y-66617208D01*
X80066287Y-66609500D01*
X79853713Y-66609500D01*
X79805042Y-66617208D01*
X79643760Y-66642753D01*
X79441585Y-66708444D01*
X79252179Y-66804951D01*
X79080213Y-66929890D01*
X78929890Y-67080213D01*
X78804951Y-67252179D01*
X78708444Y-67441585D01*
X78642753Y-67643760D01*
X78609500Y-67853713D01*
X77500499Y-67853713D01*
X77500499Y-50221153D01*
X85099500Y-50221153D01*
X85099500Y-50378846D01*
X85130261Y-50533489D01*
X85130264Y-50533501D01*
X85190602Y-50679172D01*
X85190609Y-50679185D01*
X85278210Y-50810288D01*
X85278213Y-50810292D01*
X85389707Y-50921786D01*
X85389711Y-50921789D01*
X85520814Y-51009390D01*
X85520827Y-51009397D01*
X85666498Y-51069735D01*
X85666503Y-51069737D01*
X85821153Y-51100499D01*
X85821156Y-51100500D01*
X85821158Y-51100500D01*
X85978844Y-51100500D01*
X85978845Y-51100499D01*
X86133497Y-51069737D01*
X86279179Y-51009394D01*
X86410289Y-50921789D01*
X86521789Y-50810289D01*
X86609394Y-50679179D01*
X86669737Y-50533497D01*
X86700500Y-50378842D01*
X86700500Y-50221158D01*
X86700500Y-50221155D01*
X86700499Y-50221153D01*
X86677836Y-50107219D01*
X86669737Y-50066503D01*
X86638614Y-49991365D01*
X86631146Y-49921901D01*
X86662420Y-49859422D01*
X86665433Y-49856298D01*
X87092866Y-49428868D01*
X87127500Y-49345252D01*
X87127500Y-49254747D01*
X87127500Y-48955075D01*
X87147185Y-48888036D01*
X87199989Y-48842281D01*
X87203999Y-48840534D01*
X87279179Y-48809394D01*
X87410289Y-48721789D01*
X87521789Y-48610289D01*
X87609394Y-48479179D01*
X87669737Y-48333497D01*
X87700500Y-48178842D01*
X87700500Y-48021158D01*
X87700500Y-48021155D01*
X87700499Y-48021153D01*
X87693934Y-47988147D01*
X87669737Y-47866503D01*
X87643212Y-47802465D01*
X87609397Y-47720827D01*
X87609390Y-47720814D01*
X87521789Y-47589711D01*
X87521786Y-47589707D01*
X87410292Y-47478213D01*
X87410288Y-47478210D01*
X87279185Y-47390609D01*
X87279172Y-47390602D01*
X87133501Y-47330264D01*
X87133489Y-47330261D01*
X86978845Y-47299500D01*
X86978842Y-47299500D01*
X86821158Y-47299500D01*
X86821155Y-47299500D01*
X86666510Y-47330261D01*
X86666498Y-47330264D01*
X86520827Y-47390602D01*
X86520814Y-47390609D01*
X86389711Y-47478210D01*
X86389707Y-47478213D01*
X86278213Y-47589707D01*
X86278210Y-47589711D01*
X86190609Y-47720814D01*
X86190602Y-47720827D01*
X86130264Y-47866498D01*
X86130261Y-47866510D01*
X86099500Y-48021153D01*
X86099500Y-48178846D01*
X86130261Y-48333489D01*
X86130264Y-48333501D01*
X86190602Y-48479172D01*
X86190609Y-48479185D01*
X86278210Y-48610288D01*
X86278213Y-48610292D01*
X86389707Y-48721786D01*
X86389711Y-48721789D01*
X86520814Y-48809390D01*
X86520818Y-48809392D01*
X86520821Y-48809394D01*
X86595954Y-48840515D01*
X86611519Y-48853057D01*
X86629703Y-48861362D01*
X86638165Y-48874530D01*
X86650356Y-48884354D01*
X86656669Y-48903323D01*
X86667477Y-48920140D01*
X86671439Y-48947699D01*
X86672421Y-48950648D01*
X86672500Y-48955075D01*
X86672500Y-49154404D01*
X86652815Y-49221443D01*
X86636181Y-49242085D01*
X86343762Y-49534503D01*
X86282439Y-49567988D01*
X86212747Y-49563004D01*
X86208629Y-49561383D01*
X86133501Y-49530264D01*
X86133489Y-49530261D01*
X85978845Y-49499500D01*
X85978842Y-49499500D01*
X85821158Y-49499500D01*
X85821155Y-49499500D01*
X85666510Y-49530261D01*
X85666498Y-49530264D01*
X85520827Y-49590602D01*
X85520814Y-49590609D01*
X85389711Y-49678210D01*
X85389707Y-49678213D01*
X85278213Y-49789707D01*
X85278210Y-49789711D01*
X85190609Y-49920814D01*
X85190602Y-49920827D01*
X85130264Y-50066498D01*
X85130261Y-50066510D01*
X85099500Y-50221153D01*
X77500499Y-50221153D01*
X77500499Y-39124499D01*
X77520184Y-39057460D01*
X77572988Y-39011705D01*
X77624499Y-39000499D01*
X125375500Y-39000499D01*
X125442539Y-39020184D01*
G37*
%TD.AperFunction*%
%TD*%
M02*
