M48
; DRILL file KiCad 10.0.3 date 2026-05-27T18:24:11
; FORMAT={-:-/ absolute / metric / decimal}
; #@! TF.CreationDate,2026-05-27T18:24:11-07:00
; #@! TF.GenerationSoftware,Kicad,Pcbnew,10.0.3
; #@! TF.FileFunction,Plated,1,2,PTH
FMAT,2
METRIC
; #@! TA.AperFunction,Plated,PTH,ViaDrill
T1C0.300
; #@! TA.AperFunction,Plated,PTH,ComponentDrill
T2C1.000
%
G90
G05
T1
X85.9Y-50.3
X86.9Y-48.1
X91.6Y-46.5
X91.6Y-50.037
X91.6Y-52.3
T2
X79.96Y-67.96
X79.96Y-70.5
X79.96Y-73.04
X79.96Y-75.58
X79.96Y-78.12
X82.5Y-67.96
X82.5Y-70.5
X82.5Y-73.04
X82.5Y-75.58
X82.5Y-78.12
X96.885Y-41.64
X96.885Y-44.18
X96.885Y-46.72
X96.885Y-49.26
X96.885Y-51.8
X96.885Y-54.34
X96.885Y-56.88
X96.885Y-59.42
X96.885Y-61.96
X96.885Y-64.5
X96.885Y-67.04
X96.885Y-69.58
X96.885Y-72.12
X96.885Y-74.66
X96.885Y-77.2
X96.885Y-79.74
X96.885Y-82.28
X96.885Y-84.82
X96.885Y-87.36
X96.885Y-89.9
X114.665Y-41.64
X114.665Y-44.18
X114.665Y-46.72
X114.665Y-49.26
X114.665Y-51.8
X114.665Y-54.34
X114.665Y-56.88
X114.665Y-59.42
X114.665Y-61.96
X114.665Y-64.5
X114.665Y-67.04
X114.665Y-69.58
X114.665Y-72.12
X114.665Y-74.66
X114.665Y-77.2
X114.665Y-79.74
X114.665Y-82.28
X114.665Y-84.82
X114.665Y-87.36
X114.665Y-89.9
X120.735Y-67.92
X120.735Y-70.46
X120.735Y-73.0
X120.735Y-75.54
X120.735Y-78.08
X122.5Y-60.0
X122.5Y-89.0
X123.275Y-67.92
X123.275Y-70.46
X123.275Y-73.0
X123.275Y-75.54
X123.275Y-78.08
M30
