M48
; DRILL file KiCad 10.0.3 date 2026-05-30T11:01:49
; FORMAT={-:-/ absolute / inch / decimal}
; #@! TF.CreationDate,2026-05-30T11:01:49-07:00
; #@! TF.GenerationSoftware,Kicad,Pcbnew,10.0.3
; #@! TF.FileFunction,Plated,1,2,PTH
FMAT,2
INCH
; #@! TA.AperFunction,Plated,PTH,ViaDrill
T1C0.0118
; #@! TA.AperFunction,Plated,PTH,ComponentDrill
T2C0.0394
%
G90
G05
T1
X2.6378Y-1.2598
X2.6378Y-1.3878
X2.6575Y-2.0472
X2.6575Y-2.2933
X2.6772Y-2.628
X2.7116Y-2.623
X2.7264Y-1.1122
X2.7264Y-2.4902
X2.7264Y-3.2776
X2.7362Y-1.3878
X2.7362Y-1.7028
X2.7461Y-1.8996
X2.874Y-1.5256
X2.9035Y-2.8937
X2.911Y-2.2516
X2.9232Y-1.1122
X2.9232Y-1.7028
X2.9232Y-1.8996
X2.9232Y-2.0669
X2.9232Y-3.0807
X2.9232Y-3.2776
X2.9331Y-2.8642
X2.9458Y-2.2864
X2.9625Y-2.5295
X2.9921Y-2.5
X3.0113Y-2.0768
X3.1102Y-2.0768
X3.12Y-1.9389
X3.1201Y-1.1122
X3.1201Y-1.3091
X3.1201Y-2.2933
X3.1201Y-2.4902
X3.1201Y-2.687
X3.1201Y-2.8839
X3.1201Y-3.0807
X3.1201Y-3.2776
X3.1496Y-1.5059
X3.1496Y-1.7028
X3.1496Y-2.0826
X3.3169Y-1.1122
X3.3169Y-3.2776
X3.5138Y-1.1122
X3.5138Y-1.5059
X3.5138Y-1.7028
X3.5138Y-1.8996
X3.5138Y-2.0965
X3.5138Y-2.2933
X3.5138Y-2.4902
X3.5138Y-2.687
X3.5138Y-2.8839
X3.5138Y-3.0807
X3.5138Y-3.2776
X3.7106Y-1.1122
X3.7106Y-1.3091
X3.7106Y-1.5059
X3.7106Y-1.7028
X3.7106Y-1.8996
X3.7106Y-2.0965
X3.7106Y-2.2933
X3.7106Y-2.4902
X3.7106Y-2.687
X3.7106Y-2.8839
X3.7106Y-3.0807
X3.7106Y-3.2776
X3.9075Y-1.1122
X3.9075Y-1.5059
X3.9075Y-1.7028
X3.9075Y-1.8996
X3.9075Y-2.0965
X3.9075Y-2.2933
X3.9075Y-2.4902
X3.9075Y-2.687
X3.9075Y-2.8839
X3.9075Y-3.0807
X3.9075Y-3.2776
X4.1043Y-1.1122
X4.1043Y-1.3091
X4.1043Y-1.5059
X4.1043Y-1.752
X4.1043Y-1.8996
X4.1043Y-2.0965
X4.1043Y-2.2933
X4.1043Y-2.4902
X4.1043Y-2.6772
X4.1043Y-2.8543
X4.1043Y-3.0807
X4.1043Y-3.2776
X4.3012Y-1.1122
X4.3012Y-1.5059
X4.3012Y-1.8996
X4.3012Y-2.0965
X4.3012Y-2.2933
X4.3012Y-2.4902
X4.3012Y-2.8543
X4.3012Y-3.0807
X4.3012Y-3.2776
X4.498Y-1.3091
X4.498Y-2.0965
X4.498Y-2.4902
X4.498Y-2.687
X4.498Y-2.8839
X4.498Y-3.0807
T2
X2.7258Y-2.6839
X2.7258Y-2.7839
X2.7258Y-2.8839
X2.7258Y-2.9839
X2.7258Y-3.0839
X2.7274Y-2.0352
X2.7274Y-2.1352
X2.7274Y-2.2352
X2.7274Y-2.3352
X2.7274Y-2.4352
X2.8258Y-2.6839
X2.8258Y-2.7839
X2.8258Y-2.8839
X2.8258Y-2.9839
X2.8258Y-3.0839
X2.8274Y-2.0352
X2.8274Y-2.1352
X2.8274Y-2.2352
X2.8274Y-2.3352
X2.8274Y-2.4352
X3.3268Y-1.3126
X3.3268Y-1.4126
X3.3268Y-1.5126
X3.3268Y-1.6126
X3.3268Y-1.7126
X3.3268Y-1.8126
X3.3268Y-1.9126
X3.3268Y-2.0126
X3.3268Y-2.1126
X3.3268Y-2.2126
X3.3268Y-2.3126
X3.3268Y-2.4126
X3.3268Y-2.5126
X3.3268Y-2.6126
X3.3268Y-2.7126
X3.3268Y-2.8126
X3.3268Y-2.9126
X3.3268Y-3.0126
X3.3268Y-3.1126
X3.3268Y-3.2126
X4.0401Y-1.3044
X4.0401Y-1.4044
X4.0401Y-1.5044
X4.0401Y-1.6044
X4.0401Y-1.7044
X4.0401Y-1.8044
X4.0401Y-1.9044
X4.0401Y-2.0044
X4.0401Y-2.1044
X4.0401Y-2.2044
X4.0401Y-2.3044
X4.0401Y-2.4044
X4.0401Y-2.5044
X4.0401Y-2.6044
X4.0401Y-2.7044
X4.0401Y-2.8044
X4.0401Y-2.9044
X4.0401Y-3.0044
X4.0401Y-3.1044
X4.0401Y-3.2044
X4.3396Y-2.6059
X4.3396Y-2.7059
X4.3396Y-2.8059
X4.3396Y-2.9059
X4.4079Y-1.565
X4.4396Y-2.6059
X4.4396Y-2.7059
X4.4396Y-2.8059
X4.4396Y-2.9059
X4.5079Y-1.565
X4.5079Y-2.1939
X4.5079Y-2.2939
M30
