%TF.GenerationSoftware,KiCad,Pcbnew,10.0.3*%
%TF.CreationDate,2026-06-01T13:21:53-07:00*%
%TF.ProjectId,Encoder Board,456e636f-6465-4722-9042-6f6172642e6b,rev?*%
%TF.SameCoordinates,Original*%
%TF.FileFunction,Soldermask,Top*%
%TF.FilePolarity,Negative*%
%FSLAX46Y46*%
G04 Gerber Fmt 4.6, Leading zero omitted, Abs format (unit mm)*
G04 Created by KiCad (PCBNEW 10.0.3) date 2026-06-01 13:21:53*
%MOMM*%
%LPD*%
G01*
G04 APERTURE LIST*
G04 APERTURE END LIST*
G36*
X84746742Y-81814601D02*
G01*
X84900687Y-81878367D01*
X85039234Y-81970941D01*
X85157059Y-82088766D01*
X85249633Y-82227313D01*
X85313399Y-82381258D01*
X85345907Y-82544685D01*
X85345907Y-82711315D01*
X85313399Y-82874742D01*
X85249633Y-83028687D01*
X85157059Y-83167234D01*
X85039234Y-83285059D01*
X84900687Y-83377633D01*
X84746742Y-83441399D01*
X84583315Y-83473907D01*
X84416685Y-83473907D01*
X84253258Y-83441399D01*
X84099313Y-83377633D01*
X83960766Y-83285059D01*
X83842941Y-83167234D01*
X83750367Y-83028687D01*
X83686601Y-82874742D01*
X83654093Y-82711315D01*
X83654093Y-82544685D01*
X83686601Y-82381258D01*
X83750367Y-82227313D01*
X83842941Y-82088766D01*
X83960766Y-81970941D01*
X84099313Y-81878367D01*
X84253258Y-81814601D01*
X84416685Y-81782093D01*
X84583315Y-81782093D01*
X84746742Y-81814601D01*
G37*
G36*
X102864364Y-81607407D02*
G01*
X103018309Y-81671173D01*
X103156856Y-81763747D01*
X103274681Y-81881572D01*
X103367255Y-82020119D01*
X103431021Y-82174064D01*
X103463529Y-82337491D01*
X103463529Y-82504121D01*
X103431021Y-82667548D01*
X103367255Y-82821493D01*
X103274681Y-82960040D01*
X103156856Y-83077865D01*
X103018309Y-83170439D01*
X102864364Y-83234205D01*
X102700937Y-83266713D01*
X102534307Y-83266713D01*
X102370880Y-83234205D01*
X102216935Y-83170439D01*
X102078388Y-83077865D01*
X101960563Y-82960040D01*
X101867989Y-82821493D01*
X101804223Y-82667548D01*
X101771715Y-82504121D01*
X101771715Y-82337491D01*
X101804223Y-82174064D01*
X101867989Y-82020119D01*
X101960563Y-81881572D01*
X102078388Y-81763747D01*
X102216935Y-81671173D01*
X102370880Y-81607407D01*
X102534307Y-81574899D01*
X102700937Y-81574899D01*
X102864364Y-81607407D01*
G37*
G36*
X84746742Y-79274601D02*
G01*
X84900687Y-79338367D01*
X85039234Y-79430941D01*
X85157059Y-79548766D01*
X85249633Y-79687313D01*
X85313399Y-79841258D01*
X85345907Y-80004685D01*
X85345907Y-80171315D01*
X85313399Y-80334742D01*
X85249633Y-80488687D01*
X85157059Y-80627234D01*
X85039234Y-80745059D01*
X84900687Y-80837633D01*
X84746742Y-80901399D01*
X84583315Y-80933907D01*
X84416685Y-80933907D01*
X84253258Y-80901399D01*
X84099313Y-80837633D01*
X83960766Y-80745059D01*
X83842941Y-80627234D01*
X83750367Y-80488687D01*
X83686601Y-80334742D01*
X83654093Y-80171315D01*
X83654093Y-80004685D01*
X83686601Y-79841258D01*
X83750367Y-79687313D01*
X83842941Y-79548766D01*
X83960766Y-79430941D01*
X84099313Y-79338367D01*
X84253258Y-79274601D01*
X84416685Y-79242093D01*
X84583315Y-79242093D01*
X84746742Y-79274601D01*
G37*
G36*
X102864364Y-79067407D02*
G01*
X103018309Y-79131173D01*
X103156856Y-79223747D01*
X103274681Y-79341572D01*
X103367255Y-79480119D01*
X103431021Y-79634064D01*
X103463529Y-79797491D01*
X103463529Y-79964121D01*
X103431021Y-80127548D01*
X103367255Y-80281493D01*
X103274681Y-80420040D01*
X103156856Y-80537865D01*
X103018309Y-80630439D01*
X102864364Y-80694205D01*
X102700937Y-80726713D01*
X102534307Y-80726713D01*
X102370880Y-80694205D01*
X102216935Y-80630439D01*
X102078388Y-80537865D01*
X101960563Y-80420040D01*
X101867989Y-80281493D01*
X101804223Y-80127548D01*
X101771715Y-79964121D01*
X101771715Y-79797491D01*
X101804223Y-79634064D01*
X101867989Y-79480119D01*
X101960563Y-79341572D01*
X102078388Y-79223747D01*
X102216935Y-79131173D01*
X102370880Y-79067407D01*
X102534307Y-79034899D01*
X102700937Y-79034899D01*
X102864364Y-79067407D01*
G37*
G36*
X64481742Y-78551601D02*
G01*
X64635687Y-78615367D01*
X64774234Y-78707941D01*
X64892059Y-78825766D01*
X64984633Y-78964313D01*
X65048399Y-79118258D01*
X65080907Y-79281685D01*
X65080907Y-79448315D01*
X65048399Y-79611742D01*
X64984633Y-79765687D01*
X64892059Y-79904234D01*
X64774234Y-80022059D01*
X64635687Y-80114633D01*
X64481742Y-80178399D01*
X64318315Y-80210907D01*
X64151685Y-80210907D01*
X63988258Y-80178399D01*
X63834313Y-80114633D01*
X63695766Y-80022059D01*
X63577941Y-79904234D01*
X63485367Y-79765687D01*
X63421601Y-79611742D01*
X63389093Y-79448315D01*
X63389093Y-79281685D01*
X63421601Y-79118258D01*
X63485367Y-78964313D01*
X63577941Y-78825766D01*
X63695766Y-78707941D01*
X63834313Y-78615367D01*
X63988258Y-78551601D01*
X64151685Y-78519093D01*
X64318315Y-78519093D01*
X64481742Y-78551601D01*
G37*
G36*
X67021742Y-78551601D02*
G01*
X67175687Y-78615367D01*
X67314234Y-78707941D01*
X67432059Y-78825766D01*
X67524633Y-78964313D01*
X67588399Y-79118258D01*
X67620907Y-79281685D01*
X67620907Y-79448315D01*
X67588399Y-79611742D01*
X67524633Y-79765687D01*
X67432059Y-79904234D01*
X67314234Y-80022059D01*
X67175687Y-80114633D01*
X67021742Y-80178399D01*
X66858315Y-80210907D01*
X66691685Y-80210907D01*
X66528258Y-80178399D01*
X66374313Y-80114633D01*
X66235766Y-80022059D01*
X66117941Y-79904234D01*
X66025367Y-79765687D01*
X65961601Y-79611742D01*
X65929093Y-79448315D01*
X65929093Y-79281685D01*
X65961601Y-79118258D01*
X66025367Y-78964313D01*
X66117941Y-78825766D01*
X66235766Y-78707941D01*
X66374313Y-78615367D01*
X66528258Y-78551601D01*
X66691685Y-78519093D01*
X66858315Y-78519093D01*
X67021742Y-78551601D01*
G37*
G36*
X69561742Y-78551601D02*
G01*
X69715687Y-78615367D01*
X69854234Y-78707941D01*
X69972059Y-78825766D01*
X70064633Y-78964313D01*
X70128399Y-79118258D01*
X70160907Y-79281685D01*
X70160907Y-79448315D01*
X70128399Y-79611742D01*
X70064633Y-79765687D01*
X69972059Y-79904234D01*
X69854234Y-80022059D01*
X69715687Y-80114633D01*
X69561742Y-80178399D01*
X69398315Y-80210907D01*
X69231685Y-80210907D01*
X69068258Y-80178399D01*
X68914313Y-80114633D01*
X68775766Y-80022059D01*
X68657941Y-79904234D01*
X68565367Y-79765687D01*
X68501601Y-79611742D01*
X68469093Y-79448315D01*
X68469093Y-79281685D01*
X68501601Y-79118258D01*
X68565367Y-78964313D01*
X68657941Y-78825766D01*
X68775766Y-78707941D01*
X68914313Y-78615367D01*
X69068258Y-78551601D01*
X69231685Y-78519093D01*
X69398315Y-78519093D01*
X69561742Y-78551601D01*
G37*
G36*
X72101742Y-78551601D02*
G01*
X72255687Y-78615367D01*
X72394234Y-78707941D01*
X72512059Y-78825766D01*
X72604633Y-78964313D01*
X72668399Y-79118258D01*
X72700907Y-79281685D01*
X72700907Y-79448315D01*
X72668399Y-79611742D01*
X72604633Y-79765687D01*
X72512059Y-79904234D01*
X72394234Y-80022059D01*
X72255687Y-80114633D01*
X72101742Y-80178399D01*
X71938315Y-80210907D01*
X71771685Y-80210907D01*
X71608258Y-80178399D01*
X71454313Y-80114633D01*
X71315766Y-80022059D01*
X71197941Y-79904234D01*
X71105367Y-79765687D01*
X71041601Y-79611742D01*
X71009093Y-79448315D01*
X71009093Y-79281685D01*
X71041601Y-79118258D01*
X71105367Y-78964313D01*
X71197941Y-78825766D01*
X71315766Y-78707941D01*
X71454313Y-78615367D01*
X71608258Y-78551601D01*
X71771685Y-78519093D01*
X71938315Y-78519093D01*
X72101742Y-78551601D01*
G37*
G36*
X74641742Y-78551601D02*
G01*
X74795687Y-78615367D01*
X74934234Y-78707941D01*
X75052059Y-78825766D01*
X75144633Y-78964313D01*
X75208399Y-79118258D01*
X75240907Y-79281685D01*
X75240907Y-79448315D01*
X75208399Y-79611742D01*
X75144633Y-79765687D01*
X75052059Y-79904234D01*
X74934234Y-80022059D01*
X74795687Y-80114633D01*
X74641742Y-80178399D01*
X74478315Y-80210907D01*
X74311685Y-80210907D01*
X74148258Y-80178399D01*
X73994313Y-80114633D01*
X73855766Y-80022059D01*
X73737941Y-79904234D01*
X73645367Y-79765687D01*
X73581601Y-79611742D01*
X73549093Y-79448315D01*
X73549093Y-79281685D01*
X73581601Y-79118258D01*
X73645367Y-78964313D01*
X73737941Y-78825766D01*
X73855766Y-78707941D01*
X73994313Y-78615367D01*
X74148258Y-78551601D01*
X74311685Y-78519093D01*
X74478315Y-78519093D01*
X74641742Y-78551601D01*
G37*
G36*
X84746742Y-76734601D02*
G01*
X84900687Y-76798367D01*
X85039234Y-76890941D01*
X85157059Y-77008766D01*
X85249633Y-77147313D01*
X85313399Y-77301258D01*
X85345907Y-77464685D01*
X85345907Y-77631315D01*
X85313399Y-77794742D01*
X85249633Y-77948687D01*
X85157059Y-78087234D01*
X85039234Y-78205059D01*
X84900687Y-78297633D01*
X84746742Y-78361399D01*
X84583315Y-78393907D01*
X84416685Y-78393907D01*
X84253258Y-78361399D01*
X84099313Y-78297633D01*
X83960766Y-78205059D01*
X83842941Y-78087234D01*
X83750367Y-77948687D01*
X83686601Y-77794742D01*
X83654093Y-77631315D01*
X83654093Y-77464685D01*
X83686601Y-77301258D01*
X83750367Y-77147313D01*
X83842941Y-77008766D01*
X83960766Y-76890941D01*
X84099313Y-76798367D01*
X84253258Y-76734601D01*
X84416685Y-76702093D01*
X84583315Y-76702093D01*
X84746742Y-76734601D01*
G37*
G36*
X102864364Y-76527407D02*
G01*
X103018309Y-76591173D01*
X103156856Y-76683747D01*
X103274681Y-76801572D01*
X103367255Y-76940119D01*
X103431021Y-77094064D01*
X103463529Y-77257491D01*
X103463529Y-77424121D01*
X103431021Y-77587548D01*
X103367255Y-77741493D01*
X103274681Y-77880040D01*
X103156856Y-77997865D01*
X103018309Y-78090439D01*
X102864364Y-78154205D01*
X102700937Y-78186713D01*
X102534307Y-78186713D01*
X102370880Y-78154205D01*
X102216935Y-78090439D01*
X102078388Y-77997865D01*
X101960563Y-77880040D01*
X101867989Y-77741493D01*
X101804223Y-77587548D01*
X101771715Y-77424121D01*
X101771715Y-77257491D01*
X101804223Y-77094064D01*
X101867989Y-76940119D01*
X101960563Y-76801572D01*
X102078388Y-76683747D01*
X102216935Y-76591173D01*
X102370880Y-76527407D01*
X102534307Y-76494899D01*
X102700937Y-76494899D01*
X102864364Y-76527407D01*
G37*
G36*
X75245000Y-77675000D02*
G01*
X73545000Y-77675000D01*
X73545000Y-75975000D01*
X75245000Y-75975000D01*
X75245000Y-77675000D01*
G37*
G36*
X64481742Y-76011601D02*
G01*
X64635687Y-76075367D01*
X64774234Y-76167941D01*
X64892059Y-76285766D01*
X64984633Y-76424313D01*
X65048399Y-76578258D01*
X65080907Y-76741685D01*
X65080907Y-76908315D01*
X65048399Y-77071742D01*
X64984633Y-77225687D01*
X64892059Y-77364234D01*
X64774234Y-77482059D01*
X64635687Y-77574633D01*
X64481742Y-77638399D01*
X64318315Y-77670907D01*
X64151685Y-77670907D01*
X63988258Y-77638399D01*
X63834313Y-77574633D01*
X63695766Y-77482059D01*
X63577941Y-77364234D01*
X63485367Y-77225687D01*
X63421601Y-77071742D01*
X63389093Y-76908315D01*
X63389093Y-76741685D01*
X63421601Y-76578258D01*
X63485367Y-76424313D01*
X63577941Y-76285766D01*
X63695766Y-76167941D01*
X63834313Y-76075367D01*
X63988258Y-76011601D01*
X64151685Y-75979093D01*
X64318315Y-75979093D01*
X64481742Y-76011601D01*
G37*
G36*
X67021742Y-76011601D02*
G01*
X67175687Y-76075367D01*
X67314234Y-76167941D01*
X67432059Y-76285766D01*
X67524633Y-76424313D01*
X67588399Y-76578258D01*
X67620907Y-76741685D01*
X67620907Y-76908315D01*
X67588399Y-77071742D01*
X67524633Y-77225687D01*
X67432059Y-77364234D01*
X67314234Y-77482059D01*
X67175687Y-77574633D01*
X67021742Y-77638399D01*
X66858315Y-77670907D01*
X66691685Y-77670907D01*
X66528258Y-77638399D01*
X66374313Y-77574633D01*
X66235766Y-77482059D01*
X66117941Y-77364234D01*
X66025367Y-77225687D01*
X65961601Y-77071742D01*
X65929093Y-76908315D01*
X65929093Y-76741685D01*
X65961601Y-76578258D01*
X66025367Y-76424313D01*
X66117941Y-76285766D01*
X66235766Y-76167941D01*
X66374313Y-76075367D01*
X66528258Y-76011601D01*
X66691685Y-75979093D01*
X66858315Y-75979093D01*
X67021742Y-76011601D01*
G37*
G36*
X69561742Y-76011601D02*
G01*
X69715687Y-76075367D01*
X69854234Y-76167941D01*
X69972059Y-76285766D01*
X70064633Y-76424313D01*
X70128399Y-76578258D01*
X70160907Y-76741685D01*
X70160907Y-76908315D01*
X70128399Y-77071742D01*
X70064633Y-77225687D01*
X69972059Y-77364234D01*
X69854234Y-77482059D01*
X69715687Y-77574633D01*
X69561742Y-77638399D01*
X69398315Y-77670907D01*
X69231685Y-77670907D01*
X69068258Y-77638399D01*
X68914313Y-77574633D01*
X68775766Y-77482059D01*
X68657941Y-77364234D01*
X68565367Y-77225687D01*
X68501601Y-77071742D01*
X68469093Y-76908315D01*
X68469093Y-76741685D01*
X68501601Y-76578258D01*
X68565367Y-76424313D01*
X68657941Y-76285766D01*
X68775766Y-76167941D01*
X68914313Y-76075367D01*
X69068258Y-76011601D01*
X69231685Y-75979093D01*
X69398315Y-75979093D01*
X69561742Y-76011601D01*
G37*
G36*
X72101742Y-76011601D02*
G01*
X72255687Y-76075367D01*
X72394234Y-76167941D01*
X72512059Y-76285766D01*
X72604633Y-76424313D01*
X72668399Y-76578258D01*
X72700907Y-76741685D01*
X72700907Y-76908315D01*
X72668399Y-77071742D01*
X72604633Y-77225687D01*
X72512059Y-77364234D01*
X72394234Y-77482059D01*
X72255687Y-77574633D01*
X72101742Y-77638399D01*
X71938315Y-77670907D01*
X71771685Y-77670907D01*
X71608258Y-77638399D01*
X71454313Y-77574633D01*
X71315766Y-77482059D01*
X71197941Y-77364234D01*
X71105367Y-77225687D01*
X71041601Y-77071742D01*
X71009093Y-76908315D01*
X71009093Y-76741685D01*
X71041601Y-76578258D01*
X71105367Y-76424313D01*
X71197941Y-76285766D01*
X71315766Y-76167941D01*
X71454313Y-76075367D01*
X71608258Y-76011601D01*
X71771685Y-75979093D01*
X71938315Y-75979093D01*
X72101742Y-76011601D01*
G37*
G36*
X84746742Y-74194601D02*
G01*
X84900687Y-74258367D01*
X85039234Y-74350941D01*
X85157059Y-74468766D01*
X85249633Y-74607313D01*
X85313399Y-74761258D01*
X85345907Y-74924685D01*
X85345907Y-75091315D01*
X85313399Y-75254742D01*
X85249633Y-75408687D01*
X85157059Y-75547234D01*
X85039234Y-75665059D01*
X84900687Y-75757633D01*
X84746742Y-75821399D01*
X84583315Y-75853907D01*
X84416685Y-75853907D01*
X84253258Y-75821399D01*
X84099313Y-75757633D01*
X83960766Y-75665059D01*
X83842941Y-75547234D01*
X83750367Y-75408687D01*
X83686601Y-75254742D01*
X83654093Y-75091315D01*
X83654093Y-74924685D01*
X83686601Y-74761258D01*
X83750367Y-74607313D01*
X83842941Y-74468766D01*
X83960766Y-74350941D01*
X84099313Y-74258367D01*
X84253258Y-74194601D01*
X84416685Y-74162093D01*
X84583315Y-74162093D01*
X84746742Y-74194601D01*
G37*
G36*
X110471742Y-74024601D02*
G01*
X110625687Y-74088367D01*
X110764234Y-74180941D01*
X110882059Y-74298766D01*
X110974633Y-74437313D01*
X111038399Y-74591258D01*
X111070907Y-74754685D01*
X111070907Y-74921315D01*
X111038399Y-75084742D01*
X110974633Y-75238687D01*
X110882059Y-75377234D01*
X110764234Y-75495059D01*
X110625687Y-75587633D01*
X110471742Y-75651399D01*
X110308315Y-75683907D01*
X110141685Y-75683907D01*
X109978258Y-75651399D01*
X109824313Y-75587633D01*
X109685766Y-75495059D01*
X109567941Y-75377234D01*
X109475367Y-75238687D01*
X109411601Y-75084742D01*
X109379093Y-74921315D01*
X109379093Y-74754685D01*
X109411601Y-74591258D01*
X109475367Y-74437313D01*
X109567941Y-74298766D01*
X109685766Y-74180941D01*
X109824313Y-74088367D01*
X109978258Y-74024601D01*
X110141685Y-73992093D01*
X110308315Y-73992093D01*
X110471742Y-74024601D01*
G37*
G36*
X113011742Y-74024601D02*
G01*
X113165687Y-74088367D01*
X113304234Y-74180941D01*
X113422059Y-74298766D01*
X113514633Y-74437313D01*
X113578399Y-74591258D01*
X113610907Y-74754685D01*
X113610907Y-74921315D01*
X113578399Y-75084742D01*
X113514633Y-75238687D01*
X113422059Y-75377234D01*
X113304234Y-75495059D01*
X113165687Y-75587633D01*
X113011742Y-75651399D01*
X112848315Y-75683907D01*
X112681685Y-75683907D01*
X112518258Y-75651399D01*
X112364313Y-75587633D01*
X112225766Y-75495059D01*
X112107941Y-75377234D01*
X112015367Y-75238687D01*
X111951601Y-75084742D01*
X111919093Y-74921315D01*
X111919093Y-74754685D01*
X111951601Y-74591258D01*
X112015367Y-74437313D01*
X112107941Y-74298766D01*
X112225766Y-74180941D01*
X112364313Y-74088367D01*
X112518258Y-74024601D01*
X112681685Y-73992093D01*
X112848315Y-73992093D01*
X113011742Y-74024601D01*
G37*
G36*
X102864364Y-73987407D02*
G01*
X103018309Y-74051173D01*
X103156856Y-74143747D01*
X103274681Y-74261572D01*
X103367255Y-74400119D01*
X103431021Y-74554064D01*
X103463529Y-74717491D01*
X103463529Y-74884121D01*
X103431021Y-75047548D01*
X103367255Y-75201493D01*
X103274681Y-75340040D01*
X103156856Y-75457865D01*
X103018309Y-75550439D01*
X102864364Y-75614205D01*
X102700937Y-75646713D01*
X102534307Y-75646713D01*
X102370880Y-75614205D01*
X102216935Y-75550439D01*
X102078388Y-75457865D01*
X101960563Y-75340040D01*
X101867989Y-75201493D01*
X101804223Y-75047548D01*
X101771715Y-74884121D01*
X101771715Y-74717491D01*
X101804223Y-74554064D01*
X101867989Y-74400119D01*
X101960563Y-74261572D01*
X102078388Y-74143747D01*
X102216935Y-74051173D01*
X102370880Y-73987407D01*
X102534307Y-73954899D01*
X102700937Y-73954899D01*
X102864364Y-73987407D01*
G37*
G36*
X84746742Y-71654601D02*
G01*
X84900687Y-71718367D01*
X85039234Y-71810941D01*
X85157059Y-71928766D01*
X85249633Y-72067313D01*
X85313399Y-72221258D01*
X85345907Y-72384685D01*
X85345907Y-72551315D01*
X85313399Y-72714742D01*
X85249633Y-72868687D01*
X85157059Y-73007234D01*
X85039234Y-73125059D01*
X84900687Y-73217633D01*
X84746742Y-73281399D01*
X84583315Y-73313907D01*
X84416685Y-73313907D01*
X84253258Y-73281399D01*
X84099313Y-73217633D01*
X83960766Y-73125059D01*
X83842941Y-73007234D01*
X83750367Y-72868687D01*
X83686601Y-72714742D01*
X83654093Y-72551315D01*
X83654093Y-72384685D01*
X83686601Y-72221258D01*
X83750367Y-72067313D01*
X83842941Y-71928766D01*
X83960766Y-71810941D01*
X84099313Y-71718367D01*
X84253258Y-71654601D01*
X84416685Y-71622093D01*
X84583315Y-71622093D01*
X84746742Y-71654601D01*
G37*
G36*
X110471742Y-71484601D02*
G01*
X110625687Y-71548367D01*
X110764234Y-71640941D01*
X110882059Y-71758766D01*
X110974633Y-71897313D01*
X111038399Y-72051258D01*
X111070907Y-72214685D01*
X111070907Y-72381315D01*
X111038399Y-72544742D01*
X110974633Y-72698687D01*
X110882059Y-72837234D01*
X110764234Y-72955059D01*
X110625687Y-73047633D01*
X110471742Y-73111399D01*
X110308315Y-73143907D01*
X110141685Y-73143907D01*
X109978258Y-73111399D01*
X109824313Y-73047633D01*
X109685766Y-72955059D01*
X109567941Y-72837234D01*
X109475367Y-72698687D01*
X109411601Y-72544742D01*
X109379093Y-72381315D01*
X109379093Y-72214685D01*
X109411601Y-72051258D01*
X109475367Y-71897313D01*
X109567941Y-71758766D01*
X109685766Y-71640941D01*
X109824313Y-71548367D01*
X109978258Y-71484601D01*
X110141685Y-71452093D01*
X110308315Y-71452093D01*
X110471742Y-71484601D01*
G37*
G36*
X113011742Y-71484601D02*
G01*
X113165687Y-71548367D01*
X113304234Y-71640941D01*
X113422059Y-71758766D01*
X113514633Y-71897313D01*
X113578399Y-72051258D01*
X113610907Y-72214685D01*
X113610907Y-72381315D01*
X113578399Y-72544742D01*
X113514633Y-72698687D01*
X113422059Y-72837234D01*
X113304234Y-72955059D01*
X113165687Y-73047633D01*
X113011742Y-73111399D01*
X112848315Y-73143907D01*
X112681685Y-73143907D01*
X112518258Y-73111399D01*
X112364313Y-73047633D01*
X112225766Y-72955059D01*
X112107941Y-72837234D01*
X112015367Y-72698687D01*
X111951601Y-72544742D01*
X111919093Y-72381315D01*
X111919093Y-72214685D01*
X111951601Y-72051258D01*
X112015367Y-71897313D01*
X112107941Y-71758766D01*
X112225766Y-71640941D01*
X112364313Y-71548367D01*
X112518258Y-71484601D01*
X112681685Y-71452093D01*
X112848315Y-71452093D01*
X113011742Y-71484601D01*
G37*
G36*
X102864364Y-71447407D02*
G01*
X103018309Y-71511173D01*
X103156856Y-71603747D01*
X103274681Y-71721572D01*
X103367255Y-71860119D01*
X103431021Y-72014064D01*
X103463529Y-72177491D01*
X103463529Y-72344121D01*
X103431021Y-72507548D01*
X103367255Y-72661493D01*
X103274681Y-72800040D01*
X103156856Y-72917865D01*
X103018309Y-73010439D01*
X102864364Y-73074205D01*
X102700937Y-73106713D01*
X102534307Y-73106713D01*
X102370880Y-73074205D01*
X102216935Y-73010439D01*
X102078388Y-72917865D01*
X101960563Y-72800040D01*
X101867989Y-72661493D01*
X101804223Y-72507548D01*
X101771715Y-72344121D01*
X101771715Y-72177491D01*
X101804223Y-72014064D01*
X101867989Y-71860119D01*
X101960563Y-71721572D01*
X102078388Y-71603747D01*
X102216935Y-71511173D01*
X102370880Y-71447407D01*
X102534307Y-71414899D01*
X102700937Y-71414899D01*
X102864364Y-71447407D01*
G37*
G36*
X84746742Y-69114601D02*
G01*
X84900687Y-69178367D01*
X85039234Y-69270941D01*
X85157059Y-69388766D01*
X85249633Y-69527313D01*
X85313399Y-69681258D01*
X85345907Y-69844685D01*
X85345907Y-70011315D01*
X85313399Y-70174742D01*
X85249633Y-70328687D01*
X85157059Y-70467234D01*
X85039234Y-70585059D01*
X84900687Y-70677633D01*
X84746742Y-70741399D01*
X84583315Y-70773907D01*
X84416685Y-70773907D01*
X84253258Y-70741399D01*
X84099313Y-70677633D01*
X83960766Y-70585059D01*
X83842941Y-70467234D01*
X83750367Y-70328687D01*
X83686601Y-70174742D01*
X83654093Y-70011315D01*
X83654093Y-69844685D01*
X83686601Y-69681258D01*
X83750367Y-69527313D01*
X83842941Y-69388766D01*
X83960766Y-69270941D01*
X84099313Y-69178367D01*
X84253258Y-69114601D01*
X84416685Y-69082093D01*
X84583315Y-69082093D01*
X84746742Y-69114601D01*
G37*
G36*
X110471742Y-68944601D02*
G01*
X110625687Y-69008367D01*
X110764234Y-69100941D01*
X110882059Y-69218766D01*
X110974633Y-69357313D01*
X111038399Y-69511258D01*
X111070907Y-69674685D01*
X111070907Y-69841315D01*
X111038399Y-70004742D01*
X110974633Y-70158687D01*
X110882059Y-70297234D01*
X110764234Y-70415059D01*
X110625687Y-70507633D01*
X110471742Y-70571399D01*
X110308315Y-70603907D01*
X110141685Y-70603907D01*
X109978258Y-70571399D01*
X109824313Y-70507633D01*
X109685766Y-70415059D01*
X109567941Y-70297234D01*
X109475367Y-70158687D01*
X109411601Y-70004742D01*
X109379093Y-69841315D01*
X109379093Y-69674685D01*
X109411601Y-69511258D01*
X109475367Y-69357313D01*
X109567941Y-69218766D01*
X109685766Y-69100941D01*
X109824313Y-69008367D01*
X109978258Y-68944601D01*
X110141685Y-68912093D01*
X110308315Y-68912093D01*
X110471742Y-68944601D01*
G37*
G36*
X113011742Y-68944601D02*
G01*
X113165687Y-69008367D01*
X113304234Y-69100941D01*
X113422059Y-69218766D01*
X113514633Y-69357313D01*
X113578399Y-69511258D01*
X113610907Y-69674685D01*
X113610907Y-69841315D01*
X113578399Y-70004742D01*
X113514633Y-70158687D01*
X113422059Y-70297234D01*
X113304234Y-70415059D01*
X113165687Y-70507633D01*
X113011742Y-70571399D01*
X112848315Y-70603907D01*
X112681685Y-70603907D01*
X112518258Y-70571399D01*
X112364313Y-70507633D01*
X112225766Y-70415059D01*
X112107941Y-70297234D01*
X112015367Y-70158687D01*
X111951601Y-70004742D01*
X111919093Y-69841315D01*
X111919093Y-69674685D01*
X111951601Y-69511258D01*
X112015367Y-69357313D01*
X112107941Y-69218766D01*
X112225766Y-69100941D01*
X112364313Y-69008367D01*
X112518258Y-68944601D01*
X112681685Y-68912093D01*
X112848315Y-68912093D01*
X113011742Y-68944601D01*
G37*
G36*
X102864364Y-68907407D02*
G01*
X103018309Y-68971173D01*
X103156856Y-69063747D01*
X103274681Y-69181572D01*
X103367255Y-69320119D01*
X103431021Y-69474064D01*
X103463529Y-69637491D01*
X103463529Y-69804121D01*
X103431021Y-69967548D01*
X103367255Y-70121493D01*
X103274681Y-70260040D01*
X103156856Y-70377865D01*
X103018309Y-70470439D01*
X102864364Y-70534205D01*
X102700937Y-70566713D01*
X102534307Y-70566713D01*
X102370880Y-70534205D01*
X102216935Y-70470439D01*
X102078388Y-70377865D01*
X101960563Y-70260040D01*
X101867989Y-70121493D01*
X101804223Y-69967548D01*
X101771715Y-69804121D01*
X101771715Y-69637491D01*
X101804223Y-69474064D01*
X101867989Y-69320119D01*
X101960563Y-69181572D01*
X102078388Y-69063747D01*
X102216935Y-68971173D01*
X102370880Y-68907407D01*
X102534307Y-68874899D01*
X102700937Y-68874899D01*
X102864364Y-68907407D01*
G37*
G36*
X84746742Y-66574601D02*
G01*
X84900687Y-66638367D01*
X85039234Y-66730941D01*
X85157059Y-66848766D01*
X85249633Y-66987313D01*
X85313399Y-67141258D01*
X85345907Y-67304685D01*
X85345907Y-67471315D01*
X85313399Y-67634742D01*
X85249633Y-67788687D01*
X85157059Y-67927234D01*
X85039234Y-68045059D01*
X84900687Y-68137633D01*
X84746742Y-68201399D01*
X84583315Y-68233907D01*
X84416685Y-68233907D01*
X84253258Y-68201399D01*
X84099313Y-68137633D01*
X83960766Y-68045059D01*
X83842941Y-67927234D01*
X83750367Y-67788687D01*
X83686601Y-67634742D01*
X83654093Y-67471315D01*
X83654093Y-67304685D01*
X83686601Y-67141258D01*
X83750367Y-66987313D01*
X83842941Y-66848766D01*
X83960766Y-66730941D01*
X84099313Y-66638367D01*
X84253258Y-66574601D01*
X84416685Y-66542093D01*
X84583315Y-66542093D01*
X84746742Y-66574601D01*
G37*
G36*
X111075000Y-68068000D02*
G01*
X109375000Y-68068000D01*
X109375000Y-66368000D01*
X111075000Y-66368000D01*
X111075000Y-68068000D01*
G37*
G36*
X113011742Y-66404601D02*
G01*
X113165687Y-66468367D01*
X113304234Y-66560941D01*
X113422059Y-66678766D01*
X113514633Y-66817313D01*
X113578399Y-66971258D01*
X113610907Y-67134685D01*
X113610907Y-67301315D01*
X113578399Y-67464742D01*
X113514633Y-67618687D01*
X113422059Y-67757234D01*
X113304234Y-67875059D01*
X113165687Y-67967633D01*
X113011742Y-68031399D01*
X112848315Y-68063907D01*
X112681685Y-68063907D01*
X112518258Y-68031399D01*
X112364313Y-67967633D01*
X112225766Y-67875059D01*
X112107941Y-67757234D01*
X112015367Y-67618687D01*
X111951601Y-67464742D01*
X111919093Y-67301315D01*
X111919093Y-67134685D01*
X111951601Y-66971258D01*
X112015367Y-66817313D01*
X112107941Y-66678766D01*
X112225766Y-66560941D01*
X112364313Y-66468367D01*
X112518258Y-66404601D01*
X112681685Y-66372093D01*
X112848315Y-66372093D01*
X113011742Y-66404601D01*
G37*
G36*
X102864364Y-66367407D02*
G01*
X103018309Y-66431173D01*
X103156856Y-66523747D01*
X103274681Y-66641572D01*
X103367255Y-66780119D01*
X103431021Y-66934064D01*
X103463529Y-67097491D01*
X103463529Y-67264121D01*
X103431021Y-67427548D01*
X103367255Y-67581493D01*
X103274681Y-67720040D01*
X103156856Y-67837865D01*
X103018309Y-67930439D01*
X102864364Y-67994205D01*
X102700937Y-68026713D01*
X102534307Y-68026713D01*
X102370880Y-67994205D01*
X102216935Y-67930439D01*
X102078388Y-67837865D01*
X101960563Y-67720040D01*
X101867989Y-67581493D01*
X101804223Y-67427548D01*
X101771715Y-67264121D01*
X101771715Y-67097491D01*
X101804223Y-66934064D01*
X101867989Y-66780119D01*
X101960563Y-66641572D01*
X102078388Y-66523747D01*
X102216935Y-66431173D01*
X102370880Y-66367407D01*
X102534307Y-66334899D01*
X102700937Y-66334899D01*
X102864364Y-66367407D01*
G37*
G36*
X84746742Y-64034601D02*
G01*
X84900687Y-64098367D01*
X85039234Y-64190941D01*
X85157059Y-64308766D01*
X85249633Y-64447313D01*
X85313399Y-64601258D01*
X85345907Y-64764685D01*
X85345907Y-64931315D01*
X85313399Y-65094742D01*
X85249633Y-65248687D01*
X85157059Y-65387234D01*
X85039234Y-65505059D01*
X84900687Y-65597633D01*
X84746742Y-65661399D01*
X84583315Y-65693907D01*
X84416685Y-65693907D01*
X84253258Y-65661399D01*
X84099313Y-65597633D01*
X83960766Y-65505059D01*
X83842941Y-65387234D01*
X83750367Y-65248687D01*
X83686601Y-65094742D01*
X83654093Y-64931315D01*
X83654093Y-64764685D01*
X83686601Y-64601258D01*
X83750367Y-64447313D01*
X83842941Y-64308766D01*
X83960766Y-64190941D01*
X84099313Y-64098367D01*
X84253258Y-64034601D01*
X84416685Y-64002093D01*
X84583315Y-64002093D01*
X84746742Y-64034601D01*
G37*
G36*
X102864364Y-63827407D02*
G01*
X103018309Y-63891173D01*
X103156856Y-63983747D01*
X103274681Y-64101572D01*
X103367255Y-64240119D01*
X103431021Y-64394064D01*
X103463529Y-64557491D01*
X103463529Y-64724121D01*
X103431021Y-64887548D01*
X103367255Y-65041493D01*
X103274681Y-65180040D01*
X103156856Y-65297865D01*
X103018309Y-65390439D01*
X102864364Y-65454205D01*
X102700937Y-65486713D01*
X102534307Y-65486713D01*
X102370880Y-65454205D01*
X102216935Y-65390439D01*
X102078388Y-65297865D01*
X101960563Y-65180040D01*
X101867989Y-65041493D01*
X101804223Y-64887548D01*
X101771715Y-64724121D01*
X101771715Y-64557491D01*
X101804223Y-64394064D01*
X101867989Y-64240119D01*
X101960563Y-64101572D01*
X102078388Y-63983747D01*
X102216935Y-63891173D01*
X102370880Y-63827407D01*
X102534307Y-63794899D01*
X102700937Y-63794899D01*
X102864364Y-63827407D01*
G37*
G36*
X73624116Y-63725818D02*
G01*
X73675379Y-63731766D01*
X73692892Y-63739499D01*
X73715671Y-63744030D01*
X73740057Y-63760324D01*
X73760788Y-63769478D01*
X73774946Y-63783636D01*
X73796777Y-63798223D01*
X73811363Y-63820053D01*
X73825521Y-63834211D01*
X73834673Y-63854939D01*
X73850970Y-63879329D01*
X73855501Y-63902109D01*
X73863233Y-63919620D01*
X73869178Y-63970872D01*
X73870000Y-63975000D01*
X73870000Y-64925000D01*
X73869178Y-64929128D01*
X73863233Y-64980379D01*
X73855501Y-64997888D01*
X73850970Y-65020671D01*
X73834672Y-65045062D01*
X73825521Y-65065788D01*
X73811365Y-65079943D01*
X73796777Y-65101777D01*
X73774943Y-65116365D01*
X73760788Y-65130521D01*
X73740062Y-65139672D01*
X73715671Y-65155970D01*
X73692888Y-65160501D01*
X73675379Y-65168233D01*
X73624129Y-65174178D01*
X73620000Y-65175000D01*
X72945000Y-65175000D01*
X72940873Y-65174179D01*
X72889620Y-65168233D01*
X72872109Y-65160501D01*
X72849329Y-65155970D01*
X72824939Y-65139673D01*
X72804211Y-65130521D01*
X72790053Y-65116363D01*
X72768223Y-65101777D01*
X72753636Y-65079946D01*
X72739478Y-65065788D01*
X72730324Y-65045057D01*
X72714030Y-65020671D01*
X72709499Y-64997892D01*
X72701766Y-64980379D01*
X72695818Y-64929117D01*
X72695000Y-64925000D01*
X72695000Y-63975000D01*
X72695818Y-63970885D01*
X72701766Y-63919620D01*
X72709499Y-63902105D01*
X72714030Y-63879329D01*
X72730323Y-63854944D01*
X72739478Y-63834211D01*
X72753638Y-63820050D01*
X72768223Y-63798223D01*
X72790050Y-63783638D01*
X72804211Y-63769478D01*
X72824944Y-63760323D01*
X72849329Y-63744030D01*
X72872105Y-63739499D01*
X72889620Y-63731766D01*
X72940884Y-63725818D01*
X72945000Y-63725000D01*
X73620000Y-63725000D01*
X73624116Y-63725818D01*
G37*
G36*
X75699116Y-63725818D02*
G01*
X75750379Y-63731766D01*
X75767892Y-63739499D01*
X75790671Y-63744030D01*
X75815057Y-63760324D01*
X75835788Y-63769478D01*
X75849946Y-63783636D01*
X75871777Y-63798223D01*
X75886363Y-63820053D01*
X75900521Y-63834211D01*
X75909673Y-63854939D01*
X75925970Y-63879329D01*
X75930501Y-63902109D01*
X75938233Y-63919620D01*
X75944178Y-63970872D01*
X75945000Y-63975000D01*
X75945000Y-64925000D01*
X75944178Y-64929128D01*
X75938233Y-64980379D01*
X75930501Y-64997888D01*
X75925970Y-65020671D01*
X75909672Y-65045062D01*
X75900521Y-65065788D01*
X75886365Y-65079943D01*
X75871777Y-65101777D01*
X75849943Y-65116365D01*
X75835788Y-65130521D01*
X75815062Y-65139672D01*
X75790671Y-65155970D01*
X75767888Y-65160501D01*
X75750379Y-65168233D01*
X75699129Y-65174178D01*
X75695000Y-65175000D01*
X75020000Y-65175000D01*
X75015873Y-65174179D01*
X74964620Y-65168233D01*
X74947109Y-65160501D01*
X74924329Y-65155970D01*
X74899939Y-65139673D01*
X74879211Y-65130521D01*
X74865053Y-65116363D01*
X74843223Y-65101777D01*
X74828636Y-65079946D01*
X74814478Y-65065788D01*
X74805324Y-65045057D01*
X74789030Y-65020671D01*
X74784499Y-64997892D01*
X74776766Y-64980379D01*
X74770818Y-64929117D01*
X74770000Y-64925000D01*
X74770000Y-63975000D01*
X74770818Y-63970885D01*
X74776766Y-63919620D01*
X74784499Y-63902105D01*
X74789030Y-63879329D01*
X74805323Y-63854944D01*
X74814478Y-63834211D01*
X74828638Y-63820050D01*
X74843223Y-63798223D01*
X74865050Y-63783638D01*
X74879211Y-63769478D01*
X74899944Y-63760323D01*
X74924329Y-63744030D01*
X74947105Y-63739499D01*
X74964620Y-63731766D01*
X75015884Y-63725818D01*
X75020000Y-63725000D01*
X75695000Y-63725000D01*
X75699116Y-63725818D01*
G37*
G36*
X65599116Y-62900818D02*
G01*
X65650379Y-62906766D01*
X65667892Y-62914499D01*
X65690671Y-62919030D01*
X65715057Y-62935324D01*
X65735788Y-62944478D01*
X65749946Y-62958636D01*
X65771777Y-62973223D01*
X65786363Y-62995053D01*
X65800521Y-63009211D01*
X65809673Y-63029939D01*
X65825970Y-63054329D01*
X65830501Y-63077109D01*
X65838233Y-63094620D01*
X65844178Y-63145872D01*
X65845000Y-63150000D01*
X65845000Y-63825000D01*
X65844178Y-63829128D01*
X65838233Y-63880379D01*
X65830501Y-63897888D01*
X65825970Y-63920671D01*
X65809672Y-63945062D01*
X65800521Y-63965788D01*
X65786365Y-63979943D01*
X65771777Y-64001777D01*
X65749943Y-64016365D01*
X65735788Y-64030521D01*
X65715062Y-64039672D01*
X65690671Y-64055970D01*
X65667888Y-64060501D01*
X65650379Y-64068233D01*
X65599129Y-64074178D01*
X65595000Y-64075000D01*
X64645000Y-64075000D01*
X64640873Y-64074179D01*
X64589620Y-64068233D01*
X64572109Y-64060501D01*
X64549329Y-64055970D01*
X64524939Y-64039673D01*
X64504211Y-64030521D01*
X64490053Y-64016363D01*
X64468223Y-64001777D01*
X64453636Y-63979946D01*
X64439478Y-63965788D01*
X64430324Y-63945057D01*
X64414030Y-63920671D01*
X64409499Y-63897892D01*
X64401766Y-63880379D01*
X64395818Y-63829117D01*
X64395000Y-63825000D01*
X64395000Y-63150000D01*
X64395818Y-63145885D01*
X64401766Y-63094620D01*
X64409499Y-63077105D01*
X64414030Y-63054329D01*
X64430323Y-63029944D01*
X64439478Y-63009211D01*
X64453638Y-62995050D01*
X64468223Y-62973223D01*
X64490050Y-62958638D01*
X64504211Y-62944478D01*
X64524944Y-62935323D01*
X64549329Y-62919030D01*
X64572105Y-62914499D01*
X64589620Y-62906766D01*
X64640884Y-62900818D01*
X64645000Y-62900000D01*
X65595000Y-62900000D01*
X65599116Y-62900818D01*
G37*
G36*
X84746742Y-61494601D02*
G01*
X84900687Y-61558367D01*
X85039234Y-61650941D01*
X85157059Y-61768766D01*
X85249633Y-61907313D01*
X85313399Y-62061258D01*
X85345907Y-62224685D01*
X85345907Y-62391315D01*
X85313399Y-62554742D01*
X85249633Y-62708687D01*
X85157059Y-62847234D01*
X85039234Y-62965059D01*
X84900687Y-63057633D01*
X84746742Y-63121399D01*
X84583315Y-63153907D01*
X84416685Y-63153907D01*
X84253258Y-63121399D01*
X84099313Y-63057633D01*
X83960766Y-62965059D01*
X83842941Y-62847234D01*
X83750367Y-62708687D01*
X83686601Y-62554742D01*
X83654093Y-62391315D01*
X83654093Y-62224685D01*
X83686601Y-62061258D01*
X83750367Y-61907313D01*
X83842941Y-61768766D01*
X83960766Y-61650941D01*
X84099313Y-61558367D01*
X84253258Y-61494601D01*
X84416685Y-61462093D01*
X84583315Y-61462093D01*
X84746742Y-61494601D01*
G37*
G36*
X102864364Y-61287407D02*
G01*
X103018309Y-61351173D01*
X103156856Y-61443747D01*
X103274681Y-61561572D01*
X103367255Y-61700119D01*
X103431021Y-61854064D01*
X103463529Y-62017491D01*
X103463529Y-62184121D01*
X103431021Y-62347548D01*
X103367255Y-62501493D01*
X103274681Y-62640040D01*
X103156856Y-62757865D01*
X103018309Y-62850439D01*
X102864364Y-62914205D01*
X102700937Y-62946713D01*
X102534307Y-62946713D01*
X102370880Y-62914205D01*
X102216935Y-62850439D01*
X102078388Y-62757865D01*
X101960563Y-62640040D01*
X101867989Y-62501493D01*
X101804223Y-62347548D01*
X101771715Y-62184121D01*
X101771715Y-62017491D01*
X101804223Y-61854064D01*
X101867989Y-61700119D01*
X101960563Y-61561572D01*
X102078388Y-61443747D01*
X102216935Y-61351173D01*
X102370880Y-61287407D01*
X102534307Y-61254899D01*
X102700937Y-61254899D01*
X102864364Y-61287407D01*
G37*
G36*
X75774116Y-61650818D02*
G01*
X75825379Y-61656766D01*
X75842892Y-61664499D01*
X75865671Y-61669030D01*
X75890057Y-61685324D01*
X75910788Y-61694478D01*
X75924946Y-61708636D01*
X75946777Y-61723223D01*
X75961363Y-61745053D01*
X75975521Y-61759211D01*
X75984673Y-61779939D01*
X76000970Y-61804329D01*
X76005501Y-61827109D01*
X76013233Y-61844620D01*
X76019178Y-61895872D01*
X76020000Y-61900000D01*
X76020000Y-62600000D01*
X76019178Y-62604128D01*
X76013233Y-62655379D01*
X76005501Y-62672888D01*
X76000970Y-62695671D01*
X75984672Y-62720062D01*
X75975521Y-62740788D01*
X75961365Y-62754943D01*
X75946777Y-62776777D01*
X75924943Y-62791365D01*
X75910788Y-62805521D01*
X75890062Y-62814672D01*
X75865671Y-62830970D01*
X75842888Y-62835501D01*
X75825379Y-62843233D01*
X75774129Y-62849178D01*
X75770000Y-62850000D01*
X74870000Y-62850000D01*
X74865873Y-62849179D01*
X74814620Y-62843233D01*
X74797109Y-62835501D01*
X74774329Y-62830970D01*
X74749939Y-62814673D01*
X74729211Y-62805521D01*
X74715053Y-62791363D01*
X74693223Y-62776777D01*
X74678636Y-62754946D01*
X74664478Y-62740788D01*
X74655324Y-62720057D01*
X74639030Y-62695671D01*
X74634499Y-62672892D01*
X74626766Y-62655379D01*
X74620818Y-62604117D01*
X74620000Y-62600000D01*
X74620000Y-61900000D01*
X74620818Y-61895885D01*
X74626766Y-61844620D01*
X74634499Y-61827105D01*
X74639030Y-61804329D01*
X74655323Y-61779944D01*
X74664478Y-61759211D01*
X74678638Y-61745050D01*
X74693223Y-61723223D01*
X74715050Y-61708638D01*
X74729211Y-61694478D01*
X74749944Y-61685323D01*
X74774329Y-61669030D01*
X74797105Y-61664499D01*
X74814620Y-61656766D01*
X74865884Y-61650818D01*
X74870000Y-61650000D01*
X75770000Y-61650000D01*
X75774116Y-61650818D01*
G37*
G36*
X68727403Y-61606418D02*
G01*
X68776066Y-61638934D01*
X68808582Y-61687597D01*
X68820000Y-61745000D01*
X68820000Y-62045000D01*
X68808582Y-62102403D01*
X68776066Y-62151066D01*
X68727403Y-62183582D01*
X68670000Y-62195000D01*
X67020000Y-62195000D01*
X66962597Y-62183582D01*
X66913934Y-62151066D01*
X66881418Y-62102403D01*
X66870000Y-62045000D01*
X66870000Y-61745000D01*
X66881418Y-61687597D01*
X66913934Y-61638934D01*
X66962597Y-61606418D01*
X67020000Y-61595000D01*
X68670000Y-61595000D01*
X68727403Y-61606418D01*
G37*
G36*
X73677403Y-61606418D02*
G01*
X73726066Y-61638934D01*
X73758582Y-61687597D01*
X73770000Y-61745000D01*
X73770000Y-62045000D01*
X73758582Y-62102403D01*
X73726066Y-62151066D01*
X73677403Y-62183582D01*
X73620000Y-62195000D01*
X71970000Y-62195000D01*
X71912597Y-62183582D01*
X71863934Y-62151066D01*
X71831418Y-62102403D01*
X71820000Y-62045000D01*
X71820000Y-61745000D01*
X71831418Y-61687597D01*
X71863934Y-61638934D01*
X71912597Y-61606418D01*
X71970000Y-61595000D01*
X73620000Y-61595000D01*
X73677403Y-61606418D01*
G37*
G36*
X65599116Y-60825818D02*
G01*
X65650379Y-60831766D01*
X65667892Y-60839499D01*
X65690671Y-60844030D01*
X65715057Y-60860324D01*
X65735788Y-60869478D01*
X65749946Y-60883636D01*
X65771777Y-60898223D01*
X65786363Y-60920053D01*
X65800521Y-60934211D01*
X65809673Y-60954939D01*
X65825970Y-60979329D01*
X65830501Y-61002109D01*
X65838233Y-61019620D01*
X65844178Y-61070872D01*
X65845000Y-61075000D01*
X65845000Y-61750000D01*
X65844178Y-61754128D01*
X65838233Y-61805379D01*
X65830501Y-61822888D01*
X65825970Y-61845671D01*
X65809672Y-61870062D01*
X65800521Y-61890788D01*
X65786365Y-61904943D01*
X65771777Y-61926777D01*
X65749943Y-61941365D01*
X65735788Y-61955521D01*
X65715062Y-61964672D01*
X65690671Y-61980970D01*
X65667888Y-61985501D01*
X65650379Y-61993233D01*
X65599129Y-61999178D01*
X65595000Y-62000000D01*
X64645000Y-62000000D01*
X64640873Y-61999179D01*
X64589620Y-61993233D01*
X64572109Y-61985501D01*
X64549329Y-61980970D01*
X64524939Y-61964673D01*
X64504211Y-61955521D01*
X64490053Y-61941363D01*
X64468223Y-61926777D01*
X64453636Y-61904946D01*
X64439478Y-61890788D01*
X64430324Y-61870057D01*
X64414030Y-61845671D01*
X64409499Y-61822892D01*
X64401766Y-61805379D01*
X64395818Y-61754117D01*
X64395000Y-61750000D01*
X64395000Y-61075000D01*
X64395818Y-61070885D01*
X64401766Y-61019620D01*
X64409499Y-61002105D01*
X64414030Y-60979329D01*
X64430323Y-60954944D01*
X64439478Y-60934211D01*
X64453638Y-60920050D01*
X64468223Y-60898223D01*
X64490050Y-60883638D01*
X64504211Y-60869478D01*
X64524944Y-60860323D01*
X64549329Y-60844030D01*
X64572105Y-60839499D01*
X64589620Y-60831766D01*
X64640884Y-60825818D01*
X64645000Y-60825000D01*
X65595000Y-60825000D01*
X65599116Y-60825818D01*
G37*
G36*
X68727403Y-60336418D02*
G01*
X68776066Y-60368934D01*
X68808582Y-60417597D01*
X68820000Y-60475000D01*
X68820000Y-60775000D01*
X68808582Y-60832403D01*
X68776066Y-60881066D01*
X68727403Y-60913582D01*
X68670000Y-60925000D01*
X67020000Y-60925000D01*
X66962597Y-60913582D01*
X66913934Y-60881066D01*
X66881418Y-60832403D01*
X66870000Y-60775000D01*
X66870000Y-60475000D01*
X66881418Y-60417597D01*
X66913934Y-60368934D01*
X66962597Y-60336418D01*
X67020000Y-60325000D01*
X68670000Y-60325000D01*
X68727403Y-60336418D01*
G37*
G36*
X73677403Y-60336418D02*
G01*
X73726066Y-60368934D01*
X73758582Y-60417597D01*
X73770000Y-60475000D01*
X73770000Y-60775000D01*
X73758582Y-60832403D01*
X73726066Y-60881066D01*
X73677403Y-60913582D01*
X73620000Y-60925000D01*
X71970000Y-60925000D01*
X71912597Y-60913582D01*
X71863934Y-60881066D01*
X71831418Y-60832403D01*
X71820000Y-60775000D01*
X71820000Y-60475000D01*
X71831418Y-60417597D01*
X71863934Y-60368934D01*
X71912597Y-60336418D01*
X71970000Y-60325000D01*
X73620000Y-60325000D01*
X73677403Y-60336418D01*
G37*
G36*
X75774116Y-59650818D02*
G01*
X75825379Y-59656766D01*
X75842892Y-59664499D01*
X75865671Y-59669030D01*
X75890057Y-59685324D01*
X75910788Y-59694478D01*
X75924946Y-59708636D01*
X75946777Y-59723223D01*
X75961363Y-59745053D01*
X75975521Y-59759211D01*
X75984673Y-59779939D01*
X76000970Y-59804329D01*
X76005501Y-59827109D01*
X76013233Y-59844620D01*
X76019178Y-59895872D01*
X76020000Y-59900000D01*
X76020000Y-60600000D01*
X76019178Y-60604128D01*
X76013233Y-60655379D01*
X76005501Y-60672888D01*
X76000970Y-60695671D01*
X75984672Y-60720062D01*
X75975521Y-60740788D01*
X75961365Y-60754943D01*
X75946777Y-60776777D01*
X75924943Y-60791365D01*
X75910788Y-60805521D01*
X75890062Y-60814672D01*
X75865671Y-60830970D01*
X75842888Y-60835501D01*
X75825379Y-60843233D01*
X75774129Y-60849178D01*
X75770000Y-60850000D01*
X74870000Y-60850000D01*
X74865873Y-60849179D01*
X74814620Y-60843233D01*
X74797109Y-60835501D01*
X74774329Y-60830970D01*
X74749939Y-60814673D01*
X74729211Y-60805521D01*
X74715053Y-60791363D01*
X74693223Y-60776777D01*
X74678636Y-60754946D01*
X74664478Y-60740788D01*
X74655324Y-60720057D01*
X74639030Y-60695671D01*
X74634499Y-60672892D01*
X74626766Y-60655379D01*
X74620818Y-60604117D01*
X74620000Y-60600000D01*
X74620000Y-59900000D01*
X74620818Y-59895885D01*
X74626766Y-59844620D01*
X74634499Y-59827105D01*
X74639030Y-59804329D01*
X74655323Y-59779944D01*
X74664478Y-59759211D01*
X74678638Y-59745050D01*
X74693223Y-59723223D01*
X74715050Y-59708638D01*
X74729211Y-59694478D01*
X74749944Y-59685323D01*
X74774329Y-59669030D01*
X74797105Y-59664499D01*
X74814620Y-59656766D01*
X74865884Y-59650818D01*
X74870000Y-59650000D01*
X75770000Y-59650000D01*
X75774116Y-59650818D01*
G37*
G36*
X84746742Y-58954601D02*
G01*
X84900687Y-59018367D01*
X85039234Y-59110941D01*
X85157059Y-59228766D01*
X85249633Y-59367313D01*
X85313399Y-59521258D01*
X85345907Y-59684685D01*
X85345907Y-59851315D01*
X85313399Y-60014742D01*
X85249633Y-60168687D01*
X85157059Y-60307234D01*
X85039234Y-60425059D01*
X84900687Y-60517633D01*
X84746742Y-60581399D01*
X84583315Y-60613907D01*
X84416685Y-60613907D01*
X84253258Y-60581399D01*
X84099313Y-60517633D01*
X83960766Y-60425059D01*
X83842941Y-60307234D01*
X83750367Y-60168687D01*
X83686601Y-60014742D01*
X83654093Y-59851315D01*
X83654093Y-59684685D01*
X83686601Y-59521258D01*
X83750367Y-59367313D01*
X83842941Y-59228766D01*
X83960766Y-59110941D01*
X84099313Y-59018367D01*
X84253258Y-58954601D01*
X84416685Y-58922093D01*
X84583315Y-58922093D01*
X84746742Y-58954601D01*
G37*
G36*
X102864364Y-58747407D02*
G01*
X103018309Y-58811173D01*
X103156856Y-58903747D01*
X103274681Y-59021572D01*
X103367255Y-59160119D01*
X103431021Y-59314064D01*
X103463529Y-59477491D01*
X103463529Y-59644121D01*
X103431021Y-59807548D01*
X103367255Y-59961493D01*
X103274681Y-60100040D01*
X103156856Y-60217865D01*
X103018309Y-60310439D01*
X102864364Y-60374205D01*
X102700937Y-60406713D01*
X102534307Y-60406713D01*
X102370880Y-60374205D01*
X102216935Y-60310439D01*
X102078388Y-60217865D01*
X101960563Y-60100040D01*
X101867989Y-59961493D01*
X101804223Y-59807548D01*
X101771715Y-59644121D01*
X101771715Y-59477491D01*
X101804223Y-59314064D01*
X101867989Y-59160119D01*
X101960563Y-59021572D01*
X102078388Y-58903747D01*
X102216935Y-58811173D01*
X102370880Y-58747407D01*
X102534307Y-58714899D01*
X102700937Y-58714899D01*
X102864364Y-58747407D01*
G37*
G36*
X114746742Y-58479601D02*
G01*
X114900687Y-58543367D01*
X115039234Y-58635941D01*
X115157059Y-58753766D01*
X115249633Y-58892313D01*
X115313399Y-59046258D01*
X115345907Y-59209685D01*
X115345907Y-59376315D01*
X115313399Y-59539742D01*
X115249633Y-59693687D01*
X115157059Y-59832234D01*
X115039234Y-59950059D01*
X114900687Y-60042633D01*
X114746742Y-60106399D01*
X114583315Y-60138907D01*
X114416685Y-60138907D01*
X114253258Y-60106399D01*
X114099313Y-60042633D01*
X113960766Y-59950059D01*
X113842941Y-59832234D01*
X113750367Y-59693687D01*
X113686601Y-59539742D01*
X113654093Y-59376315D01*
X113654093Y-59209685D01*
X113686601Y-59046258D01*
X113750367Y-58892313D01*
X113842941Y-58753766D01*
X113960766Y-58635941D01*
X114099313Y-58543367D01*
X114253258Y-58479601D01*
X114416685Y-58447093D01*
X114583315Y-58447093D01*
X114746742Y-58479601D01*
G37*
G36*
X65574116Y-58650818D02*
G01*
X65625379Y-58656766D01*
X65642892Y-58664499D01*
X65665671Y-58669030D01*
X65690057Y-58685324D01*
X65710788Y-58694478D01*
X65724946Y-58708636D01*
X65746777Y-58723223D01*
X65761363Y-58745053D01*
X65775521Y-58759211D01*
X65784673Y-58779939D01*
X65800970Y-58804329D01*
X65805501Y-58827109D01*
X65813233Y-58844620D01*
X65819178Y-58895872D01*
X65820000Y-58900000D01*
X65820000Y-59600000D01*
X65819178Y-59604128D01*
X65813233Y-59655379D01*
X65805501Y-59672888D01*
X65800970Y-59695671D01*
X65784672Y-59720062D01*
X65775521Y-59740788D01*
X65761365Y-59754943D01*
X65746777Y-59776777D01*
X65724943Y-59791365D01*
X65710788Y-59805521D01*
X65690062Y-59814672D01*
X65665671Y-59830970D01*
X65642888Y-59835501D01*
X65625379Y-59843233D01*
X65574129Y-59849178D01*
X65570000Y-59850000D01*
X64670000Y-59850000D01*
X64665873Y-59849179D01*
X64614620Y-59843233D01*
X64597109Y-59835501D01*
X64574329Y-59830970D01*
X64549939Y-59814673D01*
X64529211Y-59805521D01*
X64515053Y-59791363D01*
X64493223Y-59776777D01*
X64478636Y-59754946D01*
X64464478Y-59740788D01*
X64455324Y-59720057D01*
X64439030Y-59695671D01*
X64434499Y-59672892D01*
X64426766Y-59655379D01*
X64420818Y-59604117D01*
X64420000Y-59600000D01*
X64420000Y-58900000D01*
X64420818Y-58895885D01*
X64426766Y-58844620D01*
X64434499Y-58827105D01*
X64439030Y-58804329D01*
X64455323Y-58779944D01*
X64464478Y-58759211D01*
X64478638Y-58745050D01*
X64493223Y-58723223D01*
X64515050Y-58708638D01*
X64529211Y-58694478D01*
X64549944Y-58685323D01*
X64574329Y-58669030D01*
X64597105Y-58664499D01*
X64614620Y-58656766D01*
X64665884Y-58650818D01*
X64670000Y-58650000D01*
X65570000Y-58650000D01*
X65574116Y-58650818D01*
G37*
G36*
X68727403Y-59066418D02*
G01*
X68776066Y-59098934D01*
X68808582Y-59147597D01*
X68820000Y-59205000D01*
X68820000Y-59505000D01*
X68808582Y-59562403D01*
X68776066Y-59611066D01*
X68727403Y-59643582D01*
X68670000Y-59655000D01*
X67020000Y-59655000D01*
X66962597Y-59643582D01*
X66913934Y-59611066D01*
X66881418Y-59562403D01*
X66870000Y-59505000D01*
X66870000Y-59205000D01*
X66881418Y-59147597D01*
X66913934Y-59098934D01*
X66962597Y-59066418D01*
X67020000Y-59055000D01*
X68670000Y-59055000D01*
X68727403Y-59066418D01*
G37*
G36*
X73677403Y-59066418D02*
G01*
X73726066Y-59098934D01*
X73758582Y-59147597D01*
X73770000Y-59205000D01*
X73770000Y-59505000D01*
X73758582Y-59562403D01*
X73726066Y-59611066D01*
X73677403Y-59643582D01*
X73620000Y-59655000D01*
X71970000Y-59655000D01*
X71912597Y-59643582D01*
X71863934Y-59611066D01*
X71831418Y-59562403D01*
X71820000Y-59505000D01*
X71820000Y-59205000D01*
X71831418Y-59147597D01*
X71863934Y-59098934D01*
X71912597Y-59066418D01*
X71970000Y-59055000D01*
X73620000Y-59055000D01*
X73677403Y-59066418D01*
G37*
G36*
X68727403Y-57796418D02*
G01*
X68776066Y-57828934D01*
X68808582Y-57877597D01*
X68820000Y-57935000D01*
X68820000Y-58235000D01*
X68808582Y-58292403D01*
X68776066Y-58341066D01*
X68727403Y-58373582D01*
X68670000Y-58385000D01*
X67020000Y-58385000D01*
X66962597Y-58373582D01*
X66913934Y-58341066D01*
X66881418Y-58292403D01*
X66870000Y-58235000D01*
X66870000Y-57935000D01*
X66881418Y-57877597D01*
X66913934Y-57828934D01*
X66962597Y-57796418D01*
X67020000Y-57785000D01*
X68670000Y-57785000D01*
X68727403Y-57796418D01*
G37*
G36*
X73677403Y-57796418D02*
G01*
X73726066Y-57828934D01*
X73758582Y-57877597D01*
X73770000Y-57935000D01*
X73770000Y-58235000D01*
X73758582Y-58292403D01*
X73726066Y-58341066D01*
X73677403Y-58373582D01*
X73620000Y-58385000D01*
X71970000Y-58385000D01*
X71912597Y-58373582D01*
X71863934Y-58341066D01*
X71831418Y-58292403D01*
X71820000Y-58235000D01*
X71820000Y-57935000D01*
X71831418Y-57877597D01*
X71863934Y-57828934D01*
X71912597Y-57796418D01*
X71970000Y-57785000D01*
X73620000Y-57785000D01*
X73677403Y-57796418D01*
G37*
G36*
X84746742Y-56414601D02*
G01*
X84900687Y-56478367D01*
X85039234Y-56570941D01*
X85157059Y-56688766D01*
X85249633Y-56827313D01*
X85313399Y-56981258D01*
X85345907Y-57144685D01*
X85345907Y-57311315D01*
X85313399Y-57474742D01*
X85249633Y-57628687D01*
X85157059Y-57767234D01*
X85039234Y-57885059D01*
X84900687Y-57977633D01*
X84746742Y-58041399D01*
X84583315Y-58073907D01*
X84416685Y-58073907D01*
X84253258Y-58041399D01*
X84099313Y-57977633D01*
X83960766Y-57885059D01*
X83842941Y-57767234D01*
X83750367Y-57628687D01*
X83686601Y-57474742D01*
X83654093Y-57311315D01*
X83654093Y-57144685D01*
X83686601Y-56981258D01*
X83750367Y-56827313D01*
X83842941Y-56688766D01*
X83960766Y-56570941D01*
X84099313Y-56478367D01*
X84253258Y-56414601D01*
X84416685Y-56382093D01*
X84583315Y-56382093D01*
X84746742Y-56414601D01*
G37*
G36*
X102864364Y-56207407D02*
G01*
X103018309Y-56271173D01*
X103156856Y-56363747D01*
X103274681Y-56481572D01*
X103367255Y-56620119D01*
X103431021Y-56774064D01*
X103463529Y-56937491D01*
X103463529Y-57104121D01*
X103431021Y-57267548D01*
X103367255Y-57421493D01*
X103274681Y-57560040D01*
X103156856Y-57677865D01*
X103018309Y-57770439D01*
X102864364Y-57834205D01*
X102700937Y-57866713D01*
X102534307Y-57866713D01*
X102370880Y-57834205D01*
X102216935Y-57770439D01*
X102078388Y-57677865D01*
X101960563Y-57560040D01*
X101867989Y-57421493D01*
X101804223Y-57267548D01*
X101771715Y-57104121D01*
X101771715Y-56937491D01*
X101804223Y-56774064D01*
X101867989Y-56620119D01*
X101960563Y-56481572D01*
X102078388Y-56363747D01*
X102216935Y-56271173D01*
X102370880Y-56207407D01*
X102534307Y-56174899D01*
X102700937Y-56174899D01*
X102864364Y-56207407D01*
G37*
G36*
X65574116Y-56650818D02*
G01*
X65625379Y-56656766D01*
X65642892Y-56664499D01*
X65665671Y-56669030D01*
X65690057Y-56685324D01*
X65710788Y-56694478D01*
X65724946Y-56708636D01*
X65746777Y-56723223D01*
X65761363Y-56745053D01*
X65775521Y-56759211D01*
X65784673Y-56779939D01*
X65800970Y-56804329D01*
X65805501Y-56827109D01*
X65813233Y-56844620D01*
X65819178Y-56895872D01*
X65820000Y-56900000D01*
X65820000Y-57600000D01*
X65819178Y-57604128D01*
X65813233Y-57655379D01*
X65805501Y-57672888D01*
X65800970Y-57695671D01*
X65784672Y-57720062D01*
X65775521Y-57740788D01*
X65761365Y-57754943D01*
X65746777Y-57776777D01*
X65724943Y-57791365D01*
X65710788Y-57805521D01*
X65690062Y-57814672D01*
X65665671Y-57830970D01*
X65642888Y-57835501D01*
X65625379Y-57843233D01*
X65574129Y-57849178D01*
X65570000Y-57850000D01*
X64670000Y-57850000D01*
X64665873Y-57849179D01*
X64614620Y-57843233D01*
X64597109Y-57835501D01*
X64574329Y-57830970D01*
X64549939Y-57814673D01*
X64529211Y-57805521D01*
X64515053Y-57791363D01*
X64493223Y-57776777D01*
X64478636Y-57754946D01*
X64464478Y-57740788D01*
X64455324Y-57720057D01*
X64439030Y-57695671D01*
X64434499Y-57672892D01*
X64426766Y-57655379D01*
X64420818Y-57604117D01*
X64420000Y-57600000D01*
X64420000Y-56900000D01*
X64420818Y-56895885D01*
X64426766Y-56844620D01*
X64434499Y-56827105D01*
X64439030Y-56804329D01*
X64455323Y-56779944D01*
X64464478Y-56759211D01*
X64478638Y-56745050D01*
X64493223Y-56723223D01*
X64515050Y-56708638D01*
X64529211Y-56694478D01*
X64549944Y-56685323D01*
X64574329Y-56669030D01*
X64597105Y-56664499D01*
X64614620Y-56656766D01*
X64665884Y-56650818D01*
X64670000Y-56650000D01*
X65570000Y-56650000D01*
X65574116Y-56650818D01*
G37*
G36*
X115350000Y-57603000D02*
G01*
X113650000Y-57603000D01*
X113650000Y-55903000D01*
X115350000Y-55903000D01*
X115350000Y-57603000D01*
G37*
G36*
X68727403Y-56526418D02*
G01*
X68776066Y-56558934D01*
X68808582Y-56607597D01*
X68820000Y-56665000D01*
X68820000Y-56965000D01*
X68808582Y-57022403D01*
X68776066Y-57071066D01*
X68727403Y-57103582D01*
X68670000Y-57115000D01*
X67020000Y-57115000D01*
X66962597Y-57103582D01*
X66913934Y-57071066D01*
X66881418Y-57022403D01*
X66870000Y-56965000D01*
X66870000Y-56665000D01*
X66881418Y-56607597D01*
X66913934Y-56558934D01*
X66962597Y-56526418D01*
X67020000Y-56515000D01*
X68670000Y-56515000D01*
X68727403Y-56526418D01*
G37*
G36*
X73677403Y-56526418D02*
G01*
X73726066Y-56558934D01*
X73758582Y-56607597D01*
X73770000Y-56665000D01*
X73770000Y-56965000D01*
X73758582Y-57022403D01*
X73726066Y-57071066D01*
X73677403Y-57103582D01*
X73620000Y-57115000D01*
X71970000Y-57115000D01*
X71912597Y-57103582D01*
X71863934Y-57071066D01*
X71831418Y-57022403D01*
X71820000Y-56965000D01*
X71820000Y-56665000D01*
X71831418Y-56607597D01*
X71863934Y-56558934D01*
X71912597Y-56526418D01*
X71970000Y-56515000D01*
X73620000Y-56515000D01*
X73677403Y-56526418D01*
G37*
G36*
X75579116Y-54750818D02*
G01*
X75630379Y-54756766D01*
X75647892Y-54764499D01*
X75670671Y-54769030D01*
X75695057Y-54785324D01*
X75715788Y-54794478D01*
X75729946Y-54808636D01*
X75751777Y-54823223D01*
X75766363Y-54845053D01*
X75780521Y-54859211D01*
X75789673Y-54879939D01*
X75805970Y-54904329D01*
X75810501Y-54927109D01*
X75818233Y-54944620D01*
X75824178Y-54995872D01*
X75825000Y-55000000D01*
X75825000Y-55675000D01*
X75824178Y-55679128D01*
X75818233Y-55730379D01*
X75810501Y-55747888D01*
X75805970Y-55770671D01*
X75789672Y-55795062D01*
X75780521Y-55815788D01*
X75766365Y-55829943D01*
X75751777Y-55851777D01*
X75729943Y-55866365D01*
X75715788Y-55880521D01*
X75695062Y-55889672D01*
X75670671Y-55905970D01*
X75647888Y-55910501D01*
X75630379Y-55918233D01*
X75579129Y-55924178D01*
X75575000Y-55925000D01*
X74625000Y-55925000D01*
X74620873Y-55924179D01*
X74569620Y-55918233D01*
X74552109Y-55910501D01*
X74529329Y-55905970D01*
X74504939Y-55889673D01*
X74484211Y-55880521D01*
X74470053Y-55866363D01*
X74448223Y-55851777D01*
X74433636Y-55829946D01*
X74419478Y-55815788D01*
X74410324Y-55795057D01*
X74394030Y-55770671D01*
X74389499Y-55747892D01*
X74381766Y-55730379D01*
X74375818Y-55679117D01*
X74375000Y-55675000D01*
X74375000Y-55000000D01*
X74375818Y-54995885D01*
X74381766Y-54944620D01*
X74389499Y-54927105D01*
X74394030Y-54904329D01*
X74410323Y-54879944D01*
X74419478Y-54859211D01*
X74433638Y-54845050D01*
X74448223Y-54823223D01*
X74470050Y-54808638D01*
X74484211Y-54794478D01*
X74504944Y-54785323D01*
X74529329Y-54769030D01*
X74552105Y-54764499D01*
X74569620Y-54756766D01*
X74620884Y-54750818D01*
X74625000Y-54750000D01*
X75575000Y-54750000D01*
X75579116Y-54750818D01*
G37*
G36*
X68727403Y-55256418D02*
G01*
X68776066Y-55288934D01*
X68808582Y-55337597D01*
X68820000Y-55395000D01*
X68820000Y-55695000D01*
X68808582Y-55752403D01*
X68776066Y-55801066D01*
X68727403Y-55833582D01*
X68670000Y-55845000D01*
X67020000Y-55845000D01*
X66962597Y-55833582D01*
X66913934Y-55801066D01*
X66881418Y-55752403D01*
X66870000Y-55695000D01*
X66870000Y-55395000D01*
X66881418Y-55337597D01*
X66913934Y-55288934D01*
X66962597Y-55256418D01*
X67020000Y-55245000D01*
X68670000Y-55245000D01*
X68727403Y-55256418D01*
G37*
G36*
X73677403Y-55256418D02*
G01*
X73726066Y-55288934D01*
X73758582Y-55337597D01*
X73770000Y-55395000D01*
X73770000Y-55695000D01*
X73758582Y-55752403D01*
X73726066Y-55801066D01*
X73677403Y-55833582D01*
X73620000Y-55845000D01*
X71970000Y-55845000D01*
X71912597Y-55833582D01*
X71863934Y-55801066D01*
X71831418Y-55752403D01*
X71820000Y-55695000D01*
X71820000Y-55395000D01*
X71831418Y-55337597D01*
X71863934Y-55288934D01*
X71912597Y-55256418D01*
X71970000Y-55245000D01*
X73620000Y-55245000D01*
X73677403Y-55256418D01*
G37*
G36*
X84746742Y-53874601D02*
G01*
X84900687Y-53938367D01*
X85039234Y-54030941D01*
X85157059Y-54148766D01*
X85249633Y-54287313D01*
X85313399Y-54441258D01*
X85345907Y-54604685D01*
X85345907Y-54771315D01*
X85313399Y-54934742D01*
X85249633Y-55088687D01*
X85157059Y-55227234D01*
X85039234Y-55345059D01*
X84900687Y-55437633D01*
X84746742Y-55501399D01*
X84583315Y-55533907D01*
X84416685Y-55533907D01*
X84253258Y-55501399D01*
X84099313Y-55437633D01*
X83960766Y-55345059D01*
X83842941Y-55227234D01*
X83750367Y-55088687D01*
X83686601Y-54934742D01*
X83654093Y-54771315D01*
X83654093Y-54604685D01*
X83686601Y-54441258D01*
X83750367Y-54287313D01*
X83842941Y-54148766D01*
X83960766Y-54030941D01*
X84099313Y-53938367D01*
X84253258Y-53874601D01*
X84416685Y-53842093D01*
X84583315Y-53842093D01*
X84746742Y-53874601D01*
G37*
G36*
X102864364Y-53667407D02*
G01*
X103018309Y-53731173D01*
X103156856Y-53823747D01*
X103274681Y-53941572D01*
X103367255Y-54080119D01*
X103431021Y-54234064D01*
X103463529Y-54397491D01*
X103463529Y-54564121D01*
X103431021Y-54727548D01*
X103367255Y-54881493D01*
X103274681Y-55020040D01*
X103156856Y-55137865D01*
X103018309Y-55230439D01*
X102864364Y-55294205D01*
X102700937Y-55326713D01*
X102534307Y-55326713D01*
X102370880Y-55294205D01*
X102216935Y-55230439D01*
X102078388Y-55137865D01*
X101960563Y-55020040D01*
X101867989Y-54881493D01*
X101804223Y-54727548D01*
X101771715Y-54564121D01*
X101771715Y-54397491D01*
X101804223Y-54234064D01*
X101867989Y-54080119D01*
X101960563Y-53941572D01*
X102078388Y-53823747D01*
X102216935Y-53731173D01*
X102370880Y-53667407D01*
X102534307Y-53634899D01*
X102700937Y-53634899D01*
X102864364Y-53667407D01*
G37*
G36*
X68727403Y-53986418D02*
G01*
X68776066Y-54018934D01*
X68808582Y-54067597D01*
X68820000Y-54125000D01*
X68820000Y-54425000D01*
X68808582Y-54482403D01*
X68776066Y-54531066D01*
X68727403Y-54563582D01*
X68670000Y-54575000D01*
X67020000Y-54575000D01*
X66962597Y-54563582D01*
X66913934Y-54531066D01*
X66881418Y-54482403D01*
X66870000Y-54425000D01*
X66870000Y-54125000D01*
X66881418Y-54067597D01*
X66913934Y-54018934D01*
X66962597Y-53986418D01*
X67020000Y-53975000D01*
X68670000Y-53975000D01*
X68727403Y-53986418D01*
G37*
G36*
X73677403Y-53986418D02*
G01*
X73726066Y-54018934D01*
X73758582Y-54067597D01*
X73770000Y-54125000D01*
X73770000Y-54425000D01*
X73758582Y-54482403D01*
X73726066Y-54531066D01*
X73677403Y-54563582D01*
X73620000Y-54575000D01*
X71970000Y-54575000D01*
X71912597Y-54563582D01*
X71863934Y-54531066D01*
X71831418Y-54482403D01*
X71820000Y-54425000D01*
X71820000Y-54125000D01*
X71831418Y-54067597D01*
X71863934Y-54018934D01*
X71912597Y-53986418D01*
X71970000Y-53975000D01*
X73620000Y-53975000D01*
X73677403Y-53986418D01*
G37*
G36*
X75579116Y-52675818D02*
G01*
X75630379Y-52681766D01*
X75647892Y-52689499D01*
X75670671Y-52694030D01*
X75695057Y-52710324D01*
X75715788Y-52719478D01*
X75729946Y-52733636D01*
X75751777Y-52748223D01*
X75766363Y-52770053D01*
X75780521Y-52784211D01*
X75789673Y-52804939D01*
X75805970Y-52829329D01*
X75810501Y-52852109D01*
X75818233Y-52869620D01*
X75824178Y-52920872D01*
X75825000Y-52925000D01*
X75825000Y-53600000D01*
X75824178Y-53604128D01*
X75818233Y-53655379D01*
X75810501Y-53672888D01*
X75805970Y-53695671D01*
X75789672Y-53720062D01*
X75780521Y-53740788D01*
X75766365Y-53754943D01*
X75751777Y-53776777D01*
X75729943Y-53791365D01*
X75715788Y-53805521D01*
X75695062Y-53814672D01*
X75670671Y-53830970D01*
X75647888Y-53835501D01*
X75630379Y-53843233D01*
X75579129Y-53849178D01*
X75575000Y-53850000D01*
X74625000Y-53850000D01*
X74620873Y-53849179D01*
X74569620Y-53843233D01*
X74552109Y-53835501D01*
X74529329Y-53830970D01*
X74504939Y-53814673D01*
X74484211Y-53805521D01*
X74470053Y-53791363D01*
X74448223Y-53776777D01*
X74433636Y-53754946D01*
X74419478Y-53740788D01*
X74410324Y-53720057D01*
X74394030Y-53695671D01*
X74389499Y-53672892D01*
X74381766Y-53655379D01*
X74375818Y-53604117D01*
X74375000Y-53600000D01*
X74375000Y-52925000D01*
X74375818Y-52920885D01*
X74381766Y-52869620D01*
X74389499Y-52852105D01*
X74394030Y-52829329D01*
X74410323Y-52804944D01*
X74419478Y-52784211D01*
X74433638Y-52770050D01*
X74448223Y-52748223D01*
X74470050Y-52733638D01*
X74484211Y-52719478D01*
X74504944Y-52710323D01*
X74529329Y-52694030D01*
X74552105Y-52689499D01*
X74569620Y-52681766D01*
X74620884Y-52675818D01*
X74625000Y-52675000D01*
X75575000Y-52675000D01*
X75579116Y-52675818D01*
G37*
G36*
X65854116Y-52500818D02*
G01*
X65905379Y-52506766D01*
X65922892Y-52514499D01*
X65945671Y-52519030D01*
X65970057Y-52535324D01*
X65990788Y-52544478D01*
X66004946Y-52558636D01*
X66026777Y-52573223D01*
X66041363Y-52595053D01*
X66055521Y-52609211D01*
X66064673Y-52629939D01*
X66080970Y-52654329D01*
X66085501Y-52677109D01*
X66093233Y-52694620D01*
X66099178Y-52745872D01*
X66100000Y-52750000D01*
X66100000Y-53450000D01*
X66099178Y-53454128D01*
X66093233Y-53505379D01*
X66085501Y-53522888D01*
X66080970Y-53545671D01*
X66064672Y-53570062D01*
X66055521Y-53590788D01*
X66041365Y-53604943D01*
X66026777Y-53626777D01*
X66004943Y-53641365D01*
X65990788Y-53655521D01*
X65970062Y-53664672D01*
X65945671Y-53680970D01*
X65922888Y-53685501D01*
X65905379Y-53693233D01*
X65854129Y-53699178D01*
X65850000Y-53700000D01*
X64950000Y-53700000D01*
X64945873Y-53699179D01*
X64894620Y-53693233D01*
X64877109Y-53685501D01*
X64854329Y-53680970D01*
X64829939Y-53664673D01*
X64809211Y-53655521D01*
X64795053Y-53641363D01*
X64773223Y-53626777D01*
X64758636Y-53604946D01*
X64744478Y-53590788D01*
X64735324Y-53570057D01*
X64719030Y-53545671D01*
X64714499Y-53522892D01*
X64706766Y-53505379D01*
X64700818Y-53454117D01*
X64700000Y-53450000D01*
X64700000Y-52750000D01*
X64700818Y-52745885D01*
X64706766Y-52694620D01*
X64714499Y-52677105D01*
X64719030Y-52654329D01*
X64735323Y-52629944D01*
X64744478Y-52609211D01*
X64758638Y-52595050D01*
X64773223Y-52573223D01*
X64795050Y-52558638D01*
X64809211Y-52544478D01*
X64829944Y-52535323D01*
X64854329Y-52519030D01*
X64877105Y-52514499D01*
X64894620Y-52506766D01*
X64945884Y-52500818D01*
X64950000Y-52500000D01*
X65850000Y-52500000D01*
X65854116Y-52500818D01*
G37*
G36*
X68727403Y-52716418D02*
G01*
X68776066Y-52748934D01*
X68808582Y-52797597D01*
X68820000Y-52855000D01*
X68820000Y-53155000D01*
X68808582Y-53212403D01*
X68776066Y-53261066D01*
X68727403Y-53293582D01*
X68670000Y-53305000D01*
X67020000Y-53305000D01*
X66962597Y-53293582D01*
X66913934Y-53261066D01*
X66881418Y-53212403D01*
X66870000Y-53155000D01*
X66870000Y-52855000D01*
X66881418Y-52797597D01*
X66913934Y-52748934D01*
X66962597Y-52716418D01*
X67020000Y-52705000D01*
X68670000Y-52705000D01*
X68727403Y-52716418D01*
G37*
G36*
X73677403Y-52716418D02*
G01*
X73726066Y-52748934D01*
X73758582Y-52797597D01*
X73770000Y-52855000D01*
X73770000Y-53155000D01*
X73758582Y-53212403D01*
X73726066Y-53261066D01*
X73677403Y-53293582D01*
X73620000Y-53305000D01*
X71970000Y-53305000D01*
X71912597Y-53293582D01*
X71863934Y-53261066D01*
X71831418Y-53212403D01*
X71820000Y-53155000D01*
X71820000Y-52855000D01*
X71831418Y-52797597D01*
X71863934Y-52748934D01*
X71912597Y-52716418D01*
X71970000Y-52705000D01*
X73620000Y-52705000D01*
X73677403Y-52716418D01*
G37*
G36*
X84746742Y-51334601D02*
G01*
X84900687Y-51398367D01*
X85039234Y-51490941D01*
X85157059Y-51608766D01*
X85249633Y-51747313D01*
X85313399Y-51901258D01*
X85345907Y-52064685D01*
X85345907Y-52231315D01*
X85313399Y-52394742D01*
X85249633Y-52548687D01*
X85157059Y-52687234D01*
X85039234Y-52805059D01*
X84900687Y-52897633D01*
X84746742Y-52961399D01*
X84583315Y-52993907D01*
X84416685Y-52993907D01*
X84253258Y-52961399D01*
X84099313Y-52897633D01*
X83960766Y-52805059D01*
X83842941Y-52687234D01*
X83750367Y-52548687D01*
X83686601Y-52394742D01*
X83654093Y-52231315D01*
X83654093Y-52064685D01*
X83686601Y-51901258D01*
X83750367Y-51747313D01*
X83842941Y-51608766D01*
X83960766Y-51490941D01*
X84099313Y-51398367D01*
X84253258Y-51334601D01*
X84416685Y-51302093D01*
X84583315Y-51302093D01*
X84746742Y-51334601D01*
G37*
G36*
X102864364Y-51127407D02*
G01*
X103018309Y-51191173D01*
X103156856Y-51283747D01*
X103274681Y-51401572D01*
X103367255Y-51540119D01*
X103431021Y-51694064D01*
X103463529Y-51857491D01*
X103463529Y-52024121D01*
X103431021Y-52187548D01*
X103367255Y-52341493D01*
X103274681Y-52480040D01*
X103156856Y-52597865D01*
X103018309Y-52690439D01*
X102864364Y-52754205D01*
X102700937Y-52786713D01*
X102534307Y-52786713D01*
X102370880Y-52754205D01*
X102216935Y-52690439D01*
X102078388Y-52597865D01*
X101960563Y-52480040D01*
X101867989Y-52341493D01*
X101804223Y-52187548D01*
X101771715Y-52024121D01*
X101771715Y-51857491D01*
X101804223Y-51694064D01*
X101867989Y-51540119D01*
X101960563Y-51401572D01*
X102078388Y-51283747D01*
X102216935Y-51191173D01*
X102370880Y-51127407D01*
X102534307Y-51094899D01*
X102700937Y-51094899D01*
X102864364Y-51127407D01*
G37*
G36*
X67804116Y-50475818D02*
G01*
X67855379Y-50481766D01*
X67872892Y-50489499D01*
X67895671Y-50494030D01*
X67920057Y-50510324D01*
X67940788Y-50519478D01*
X67954946Y-50533636D01*
X67976777Y-50548223D01*
X67991363Y-50570053D01*
X68005521Y-50584211D01*
X68014673Y-50604939D01*
X68030970Y-50629329D01*
X68035501Y-50652109D01*
X68043233Y-50669620D01*
X68049178Y-50720872D01*
X68050000Y-50725000D01*
X68050000Y-51675000D01*
X68049178Y-51679128D01*
X68043233Y-51730379D01*
X68035501Y-51747888D01*
X68030970Y-51770671D01*
X68014672Y-51795062D01*
X68005521Y-51815788D01*
X67991365Y-51829943D01*
X67976777Y-51851777D01*
X67954943Y-51866365D01*
X67940788Y-51880521D01*
X67920062Y-51889672D01*
X67895671Y-51905970D01*
X67872888Y-51910501D01*
X67855379Y-51918233D01*
X67804129Y-51924178D01*
X67800000Y-51925000D01*
X67125000Y-51925000D01*
X67120873Y-51924179D01*
X67069620Y-51918233D01*
X67052109Y-51910501D01*
X67029329Y-51905970D01*
X67004939Y-51889673D01*
X66984211Y-51880521D01*
X66970053Y-51866363D01*
X66948223Y-51851777D01*
X66933636Y-51829946D01*
X66919478Y-51815788D01*
X66910324Y-51795057D01*
X66894030Y-51770671D01*
X66889499Y-51747892D01*
X66881766Y-51730379D01*
X66875818Y-51679117D01*
X66875000Y-51675000D01*
X66875000Y-50725000D01*
X66875818Y-50720885D01*
X66881766Y-50669620D01*
X66889499Y-50652105D01*
X66894030Y-50629329D01*
X66910323Y-50604944D01*
X66919478Y-50584211D01*
X66933638Y-50570050D01*
X66948223Y-50548223D01*
X66970050Y-50533638D01*
X66984211Y-50519478D01*
X67004944Y-50510323D01*
X67029329Y-50494030D01*
X67052105Y-50489499D01*
X67069620Y-50481766D01*
X67120884Y-50475818D01*
X67125000Y-50475000D01*
X67800000Y-50475000D01*
X67804116Y-50475818D01*
G37*
G36*
X69879116Y-50475818D02*
G01*
X69930379Y-50481766D01*
X69947892Y-50489499D01*
X69970671Y-50494030D01*
X69995057Y-50510324D01*
X70015788Y-50519478D01*
X70029946Y-50533636D01*
X70051777Y-50548223D01*
X70066363Y-50570053D01*
X70080521Y-50584211D01*
X70089673Y-50604939D01*
X70105970Y-50629329D01*
X70110501Y-50652109D01*
X70118233Y-50669620D01*
X70124178Y-50720872D01*
X70125000Y-50725000D01*
X70125000Y-51675000D01*
X70124178Y-51679128D01*
X70118233Y-51730379D01*
X70110501Y-51747888D01*
X70105970Y-51770671D01*
X70089672Y-51795062D01*
X70080521Y-51815788D01*
X70066365Y-51829943D01*
X70051777Y-51851777D01*
X70029943Y-51866365D01*
X70015788Y-51880521D01*
X69995062Y-51889672D01*
X69970671Y-51905970D01*
X69947888Y-51910501D01*
X69930379Y-51918233D01*
X69879129Y-51924178D01*
X69875000Y-51925000D01*
X69200000Y-51925000D01*
X69195873Y-51924179D01*
X69144620Y-51918233D01*
X69127109Y-51910501D01*
X69104329Y-51905970D01*
X69079939Y-51889673D01*
X69059211Y-51880521D01*
X69045053Y-51866363D01*
X69023223Y-51851777D01*
X69008636Y-51829946D01*
X68994478Y-51815788D01*
X68985324Y-51795057D01*
X68969030Y-51770671D01*
X68964499Y-51747892D01*
X68956766Y-51730379D01*
X68950818Y-51679117D01*
X68950000Y-51675000D01*
X68950000Y-50725000D01*
X68950818Y-50720885D01*
X68956766Y-50669620D01*
X68964499Y-50652105D01*
X68969030Y-50629329D01*
X68985323Y-50604944D01*
X68994478Y-50584211D01*
X69008638Y-50570050D01*
X69023223Y-50548223D01*
X69045050Y-50533638D01*
X69059211Y-50519478D01*
X69079944Y-50510323D01*
X69104329Y-50494030D01*
X69127105Y-50489499D01*
X69144620Y-50481766D01*
X69195884Y-50475818D01*
X69200000Y-50475000D01*
X69875000Y-50475000D01*
X69879116Y-50475818D01*
G37*
G36*
X65854116Y-50500818D02*
G01*
X65905379Y-50506766D01*
X65922892Y-50514499D01*
X65945671Y-50519030D01*
X65970057Y-50535324D01*
X65990788Y-50544478D01*
X66004946Y-50558636D01*
X66026777Y-50573223D01*
X66041363Y-50595053D01*
X66055521Y-50609211D01*
X66064673Y-50629939D01*
X66080970Y-50654329D01*
X66085501Y-50677109D01*
X66093233Y-50694620D01*
X66099178Y-50745872D01*
X66100000Y-50750000D01*
X66100000Y-51450000D01*
X66099178Y-51454128D01*
X66093233Y-51505379D01*
X66085501Y-51522888D01*
X66080970Y-51545671D01*
X66064672Y-51570062D01*
X66055521Y-51590788D01*
X66041365Y-51604943D01*
X66026777Y-51626777D01*
X66004943Y-51641365D01*
X65990788Y-51655521D01*
X65970062Y-51664672D01*
X65945671Y-51680970D01*
X65922888Y-51685501D01*
X65905379Y-51693233D01*
X65854129Y-51699178D01*
X65850000Y-51700000D01*
X64950000Y-51700000D01*
X64945873Y-51699179D01*
X64894620Y-51693233D01*
X64877109Y-51685501D01*
X64854329Y-51680970D01*
X64829939Y-51664673D01*
X64809211Y-51655521D01*
X64795053Y-51641363D01*
X64773223Y-51626777D01*
X64758636Y-51604946D01*
X64744478Y-51590788D01*
X64735324Y-51570057D01*
X64719030Y-51545671D01*
X64714499Y-51522892D01*
X64706766Y-51505379D01*
X64700818Y-51454117D01*
X64700000Y-51450000D01*
X64700000Y-50750000D01*
X64700818Y-50745885D01*
X64706766Y-50694620D01*
X64714499Y-50677105D01*
X64719030Y-50654329D01*
X64735323Y-50629944D01*
X64744478Y-50609211D01*
X64758638Y-50595050D01*
X64773223Y-50573223D01*
X64795050Y-50558638D01*
X64809211Y-50544478D01*
X64829944Y-50535323D01*
X64854329Y-50519030D01*
X64877105Y-50514499D01*
X64894620Y-50506766D01*
X64945884Y-50500818D01*
X64950000Y-50500000D01*
X65850000Y-50500000D01*
X65854116Y-50500818D01*
G37*
G36*
X84746742Y-48794601D02*
G01*
X84900687Y-48858367D01*
X85039234Y-48950941D01*
X85157059Y-49068766D01*
X85249633Y-49207313D01*
X85313399Y-49361258D01*
X85345907Y-49524685D01*
X85345907Y-49691315D01*
X85313399Y-49854742D01*
X85249633Y-50008687D01*
X85157059Y-50147234D01*
X85039234Y-50265059D01*
X84900687Y-50357633D01*
X84746742Y-50421399D01*
X84583315Y-50453907D01*
X84416685Y-50453907D01*
X84253258Y-50421399D01*
X84099313Y-50357633D01*
X83960766Y-50265059D01*
X83842941Y-50147234D01*
X83750367Y-50008687D01*
X83686601Y-49854742D01*
X83654093Y-49691315D01*
X83654093Y-49524685D01*
X83686601Y-49361258D01*
X83750367Y-49207313D01*
X83842941Y-49068766D01*
X83960766Y-48950941D01*
X84099313Y-48858367D01*
X84253258Y-48794601D01*
X84416685Y-48762093D01*
X84583315Y-48762093D01*
X84746742Y-48794601D01*
G37*
G36*
X102864364Y-48587407D02*
G01*
X103018309Y-48651173D01*
X103156856Y-48743747D01*
X103274681Y-48861572D01*
X103367255Y-49000119D01*
X103431021Y-49154064D01*
X103463529Y-49317491D01*
X103463529Y-49484121D01*
X103431021Y-49647548D01*
X103367255Y-49801493D01*
X103274681Y-49940040D01*
X103156856Y-50057865D01*
X103018309Y-50150439D01*
X102864364Y-50214205D01*
X102700937Y-50246713D01*
X102534307Y-50246713D01*
X102370880Y-50214205D01*
X102216935Y-50150439D01*
X102078388Y-50057865D01*
X101960563Y-49940040D01*
X101867989Y-49801493D01*
X101804223Y-49647548D01*
X101771715Y-49484121D01*
X101771715Y-49317491D01*
X101804223Y-49154064D01*
X101867989Y-49000119D01*
X101960563Y-48861572D01*
X102078388Y-48743747D01*
X102216935Y-48651173D01*
X102370880Y-48587407D01*
X102534307Y-48554899D01*
X102700937Y-48554899D01*
X102864364Y-48587407D01*
G37*
G36*
X113954116Y-48178818D02*
G01*
X114005379Y-48184766D01*
X114022892Y-48192499D01*
X114045671Y-48197030D01*
X114070057Y-48213324D01*
X114090788Y-48222478D01*
X114104946Y-48236636D01*
X114126777Y-48251223D01*
X114141363Y-48273053D01*
X114155521Y-48287211D01*
X114164673Y-48307939D01*
X114180970Y-48332329D01*
X114185501Y-48355109D01*
X114193233Y-48372620D01*
X114199178Y-48423872D01*
X114200000Y-48428000D01*
X114200000Y-49128000D01*
X114199178Y-49132128D01*
X114193233Y-49183379D01*
X114185501Y-49200888D01*
X114180970Y-49223671D01*
X114164672Y-49248062D01*
X114155521Y-49268788D01*
X114141365Y-49282943D01*
X114126777Y-49304777D01*
X114104943Y-49319365D01*
X114090788Y-49333521D01*
X114070062Y-49342672D01*
X114045671Y-49358970D01*
X114022888Y-49363501D01*
X114005379Y-49371233D01*
X113954129Y-49377178D01*
X113950000Y-49378000D01*
X113050000Y-49378000D01*
X113045873Y-49377179D01*
X112994620Y-49371233D01*
X112977109Y-49363501D01*
X112954329Y-49358970D01*
X112929939Y-49342673D01*
X112909211Y-49333521D01*
X112895053Y-49319363D01*
X112873223Y-49304777D01*
X112858636Y-49282946D01*
X112844478Y-49268788D01*
X112835324Y-49248057D01*
X112819030Y-49223671D01*
X112814499Y-49200892D01*
X112806766Y-49183379D01*
X112800818Y-49132117D01*
X112800000Y-49128000D01*
X112800000Y-48428000D01*
X112800818Y-48423885D01*
X112806766Y-48372620D01*
X112814499Y-48355105D01*
X112819030Y-48332329D01*
X112835323Y-48307944D01*
X112844478Y-48287211D01*
X112858638Y-48273050D01*
X112873223Y-48251223D01*
X112895050Y-48236638D01*
X112909211Y-48222478D01*
X112929944Y-48213323D01*
X112954329Y-48197030D01*
X112977105Y-48192499D01*
X112994620Y-48184766D01*
X113045884Y-48178818D01*
X113050000Y-48178000D01*
X113950000Y-48178000D01*
X113954116Y-48178818D01*
G37*
G36*
X84746742Y-46254601D02*
G01*
X84900687Y-46318367D01*
X85039234Y-46410941D01*
X85157059Y-46528766D01*
X85249633Y-46667313D01*
X85313399Y-46821258D01*
X85345907Y-46984685D01*
X85345907Y-47151315D01*
X85313399Y-47314742D01*
X85249633Y-47468687D01*
X85157059Y-47607234D01*
X85039234Y-47725059D01*
X84900687Y-47817633D01*
X84746742Y-47881399D01*
X84583315Y-47913907D01*
X84416685Y-47913907D01*
X84253258Y-47881399D01*
X84099313Y-47817633D01*
X83960766Y-47725059D01*
X83842941Y-47607234D01*
X83750367Y-47468687D01*
X83686601Y-47314742D01*
X83654093Y-47151315D01*
X83654093Y-46984685D01*
X83686601Y-46821258D01*
X83750367Y-46667313D01*
X83842941Y-46528766D01*
X83960766Y-46410941D01*
X84099313Y-46318367D01*
X84253258Y-46254601D01*
X84416685Y-46222093D01*
X84583315Y-46222093D01*
X84746742Y-46254601D01*
G37*
G36*
X102864364Y-46047407D02*
G01*
X103018309Y-46111173D01*
X103156856Y-46203747D01*
X103274681Y-46321572D01*
X103367255Y-46460119D01*
X103431021Y-46614064D01*
X103463529Y-46777491D01*
X103463529Y-46944121D01*
X103431021Y-47107548D01*
X103367255Y-47261493D01*
X103274681Y-47400040D01*
X103156856Y-47517865D01*
X103018309Y-47610439D01*
X102864364Y-47674205D01*
X102700937Y-47706713D01*
X102534307Y-47706713D01*
X102370880Y-47674205D01*
X102216935Y-47610439D01*
X102078388Y-47517865D01*
X101960563Y-47400040D01*
X101867989Y-47261493D01*
X101804223Y-47107548D01*
X101771715Y-46944121D01*
X101771715Y-46777491D01*
X101804223Y-46614064D01*
X101867989Y-46460119D01*
X101960563Y-46321572D01*
X102078388Y-46203747D01*
X102216935Y-46111173D01*
X102370880Y-46047407D01*
X102534307Y-46014899D01*
X102700937Y-46014899D01*
X102864364Y-46047407D01*
G37*
G36*
X113954116Y-46178818D02*
G01*
X114005379Y-46184766D01*
X114022892Y-46192499D01*
X114045671Y-46197030D01*
X114070057Y-46213324D01*
X114090788Y-46222478D01*
X114104946Y-46236636D01*
X114126777Y-46251223D01*
X114141363Y-46273053D01*
X114155521Y-46287211D01*
X114164673Y-46307939D01*
X114180970Y-46332329D01*
X114185501Y-46355109D01*
X114193233Y-46372620D01*
X114199178Y-46423872D01*
X114200000Y-46428000D01*
X114200000Y-47128000D01*
X114199178Y-47132128D01*
X114193233Y-47183379D01*
X114185501Y-47200888D01*
X114180970Y-47223671D01*
X114164672Y-47248062D01*
X114155521Y-47268788D01*
X114141365Y-47282943D01*
X114126777Y-47304777D01*
X114104943Y-47319365D01*
X114090788Y-47333521D01*
X114070062Y-47342672D01*
X114045671Y-47358970D01*
X114022888Y-47363501D01*
X114005379Y-47371233D01*
X113954129Y-47377178D01*
X113950000Y-47378000D01*
X113050000Y-47378000D01*
X113045873Y-47377179D01*
X112994620Y-47371233D01*
X112977109Y-47363501D01*
X112954329Y-47358970D01*
X112929939Y-47342673D01*
X112909211Y-47333521D01*
X112895053Y-47319363D01*
X112873223Y-47304777D01*
X112858636Y-47282946D01*
X112844478Y-47268788D01*
X112835324Y-47248057D01*
X112819030Y-47223671D01*
X112814499Y-47200892D01*
X112806766Y-47183379D01*
X112800818Y-47132117D01*
X112800000Y-47128000D01*
X112800000Y-46428000D01*
X112800818Y-46423885D01*
X112806766Y-46372620D01*
X112814499Y-46355105D01*
X112819030Y-46332329D01*
X112835323Y-46307944D01*
X112844478Y-46287211D01*
X112858638Y-46273050D01*
X112873223Y-46251223D01*
X112895050Y-46236638D01*
X112909211Y-46222478D01*
X112929944Y-46213323D01*
X112954329Y-46197030D01*
X112977105Y-46192499D01*
X112994620Y-46184766D01*
X113045884Y-46178818D01*
X113050000Y-46178000D01*
X113950000Y-46178000D01*
X113954116Y-46178818D01*
G37*
G36*
X84746742Y-43714601D02*
G01*
X84900687Y-43778367D01*
X85039234Y-43870941D01*
X85157059Y-43988766D01*
X85249633Y-44127313D01*
X85313399Y-44281258D01*
X85345907Y-44444685D01*
X85345907Y-44611315D01*
X85313399Y-44774742D01*
X85249633Y-44928687D01*
X85157059Y-45067234D01*
X85039234Y-45185059D01*
X84900687Y-45277633D01*
X84746742Y-45341399D01*
X84583315Y-45373907D01*
X84416685Y-45373907D01*
X84253258Y-45341399D01*
X84099313Y-45277633D01*
X83960766Y-45185059D01*
X83842941Y-45067234D01*
X83750367Y-44928687D01*
X83686601Y-44774742D01*
X83654093Y-44611315D01*
X83654093Y-44444685D01*
X83686601Y-44281258D01*
X83750367Y-44127313D01*
X83842941Y-43988766D01*
X83960766Y-43870941D01*
X84099313Y-43778367D01*
X84253258Y-43714601D01*
X84416685Y-43682093D01*
X84583315Y-43682093D01*
X84746742Y-43714601D01*
G37*
G36*
X102864364Y-43507407D02*
G01*
X103018309Y-43571173D01*
X103156856Y-43663747D01*
X103274681Y-43781572D01*
X103367255Y-43920119D01*
X103431021Y-44074064D01*
X103463529Y-44237491D01*
X103463529Y-44404121D01*
X103431021Y-44567548D01*
X103367255Y-44721493D01*
X103274681Y-44860040D01*
X103156856Y-44977865D01*
X103018309Y-45070439D01*
X102864364Y-45134205D01*
X102700937Y-45166713D01*
X102534307Y-45166713D01*
X102370880Y-45134205D01*
X102216935Y-45070439D01*
X102078388Y-44977865D01*
X101960563Y-44860040D01*
X101867989Y-44721493D01*
X101804223Y-44567548D01*
X101771715Y-44404121D01*
X101771715Y-44237491D01*
X101804223Y-44074064D01*
X101867989Y-43920119D01*
X101960563Y-43781572D01*
X102078388Y-43663747D01*
X102216935Y-43571173D01*
X102370880Y-43507407D01*
X102534307Y-43474899D01*
X102700937Y-43474899D01*
X102864364Y-43507407D01*
G37*
G36*
X84746742Y-41174601D02*
G01*
X84900687Y-41238367D01*
X85039234Y-41330941D01*
X85157059Y-41448766D01*
X85249633Y-41587313D01*
X85313399Y-41741258D01*
X85345907Y-41904685D01*
X85345907Y-42071315D01*
X85313399Y-42234742D01*
X85249633Y-42388687D01*
X85157059Y-42527234D01*
X85039234Y-42645059D01*
X84900687Y-42737633D01*
X84746742Y-42801399D01*
X84583315Y-42833907D01*
X84416685Y-42833907D01*
X84253258Y-42801399D01*
X84099313Y-42737633D01*
X83960766Y-42645059D01*
X83842941Y-42527234D01*
X83750367Y-42388687D01*
X83686601Y-42234742D01*
X83654093Y-42071315D01*
X83654093Y-41904685D01*
X83686601Y-41741258D01*
X83750367Y-41587313D01*
X83842941Y-41448766D01*
X83960766Y-41330941D01*
X84099313Y-41238367D01*
X84253258Y-41174601D01*
X84416685Y-41142093D01*
X84583315Y-41142093D01*
X84746742Y-41174601D01*
G37*
G36*
X102864364Y-40967407D02*
G01*
X103018309Y-41031173D01*
X103156856Y-41123747D01*
X103274681Y-41241572D01*
X103367255Y-41380119D01*
X103431021Y-41534064D01*
X103463529Y-41697491D01*
X103463529Y-41864121D01*
X103431021Y-42027548D01*
X103367255Y-42181493D01*
X103274681Y-42320040D01*
X103156856Y-42437865D01*
X103018309Y-42530439D01*
X102864364Y-42594205D01*
X102700937Y-42626713D01*
X102534307Y-42626713D01*
X102370880Y-42594205D01*
X102216935Y-42530439D01*
X102078388Y-42437865D01*
X101960563Y-42320040D01*
X101867989Y-42181493D01*
X101804223Y-42027548D01*
X101771715Y-41864121D01*
X101771715Y-41697491D01*
X101804223Y-41534064D01*
X101867989Y-41380119D01*
X101960563Y-41241572D01*
X102078388Y-41123747D01*
X102216935Y-41031173D01*
X102370880Y-40967407D01*
X102534307Y-40934899D01*
X102700937Y-40934899D01*
X102864364Y-40967407D01*
G37*
G36*
X115350000Y-42128000D02*
G01*
X113650000Y-42128000D01*
X113650000Y-40428000D01*
X115350000Y-40428000D01*
X115350000Y-42128000D01*
G37*
G36*
X112206742Y-40464601D02*
G01*
X112360687Y-40528367D01*
X112499234Y-40620941D01*
X112617059Y-40738766D01*
X112709633Y-40877313D01*
X112773399Y-41031258D01*
X112805907Y-41194685D01*
X112805907Y-41361315D01*
X112773399Y-41524742D01*
X112709633Y-41678687D01*
X112617059Y-41817234D01*
X112499234Y-41935059D01*
X112360687Y-42027633D01*
X112206742Y-42091399D01*
X112043315Y-42123907D01*
X111876685Y-42123907D01*
X111713258Y-42091399D01*
X111559313Y-42027633D01*
X111420766Y-41935059D01*
X111302941Y-41817234D01*
X111210367Y-41678687D01*
X111146601Y-41524742D01*
X111114093Y-41361315D01*
X111114093Y-41194685D01*
X111146601Y-41031258D01*
X111210367Y-40877313D01*
X111302941Y-40738766D01*
X111420766Y-40620941D01*
X111559313Y-40528367D01*
X111713258Y-40464601D01*
X111876685Y-40432093D01*
X112043315Y-40432093D01*
X112206742Y-40464601D01*
G37*
G36*
X84746742Y-38634601D02*
G01*
X84900687Y-38698367D01*
X85039234Y-38790941D01*
X85157059Y-38908766D01*
X85249633Y-39047313D01*
X85313399Y-39201258D01*
X85345907Y-39364685D01*
X85345907Y-39531315D01*
X85313399Y-39694742D01*
X85249633Y-39848687D01*
X85157059Y-39987234D01*
X85039234Y-40105059D01*
X84900687Y-40197633D01*
X84746742Y-40261399D01*
X84583315Y-40293907D01*
X84416685Y-40293907D01*
X84253258Y-40261399D01*
X84099313Y-40197633D01*
X83960766Y-40105059D01*
X83842941Y-39987234D01*
X83750367Y-39848687D01*
X83686601Y-39694742D01*
X83654093Y-39531315D01*
X83654093Y-39364685D01*
X83686601Y-39201258D01*
X83750367Y-39047313D01*
X83842941Y-38908766D01*
X83960766Y-38790941D01*
X84099313Y-38698367D01*
X84253258Y-38634601D01*
X84416685Y-38602093D01*
X84583315Y-38602093D01*
X84746742Y-38634601D01*
G37*
G36*
X65770000Y-40120000D02*
G01*
X64070000Y-40120000D01*
X64070000Y-38420000D01*
X65770000Y-38420000D01*
X65770000Y-40120000D01*
G37*
G36*
X67706742Y-38456601D02*
G01*
X67860687Y-38520367D01*
X67999234Y-38612941D01*
X68117059Y-38730766D01*
X68209633Y-38869313D01*
X68273399Y-39023258D01*
X68305907Y-39186685D01*
X68305907Y-39353315D01*
X68273399Y-39516742D01*
X68209633Y-39670687D01*
X68117059Y-39809234D01*
X67999234Y-39927059D01*
X67860687Y-40019633D01*
X67706742Y-40083399D01*
X67543315Y-40115907D01*
X67376685Y-40115907D01*
X67213258Y-40083399D01*
X67059313Y-40019633D01*
X66920766Y-39927059D01*
X66802941Y-39809234D01*
X66710367Y-39670687D01*
X66646601Y-39516742D01*
X66614093Y-39353315D01*
X66614093Y-39186685D01*
X66646601Y-39023258D01*
X66710367Y-38869313D01*
X66802941Y-38730766D01*
X66920766Y-38612941D01*
X67059313Y-38520367D01*
X67213258Y-38456601D01*
X67376685Y-38424093D01*
X67543315Y-38424093D01*
X67706742Y-38456601D01*
G37*
G36*
X70246742Y-38456601D02*
G01*
X70400687Y-38520367D01*
X70539234Y-38612941D01*
X70657059Y-38730766D01*
X70749633Y-38869313D01*
X70813399Y-39023258D01*
X70845907Y-39186685D01*
X70845907Y-39353315D01*
X70813399Y-39516742D01*
X70749633Y-39670687D01*
X70657059Y-39809234D01*
X70539234Y-39927059D01*
X70400687Y-40019633D01*
X70246742Y-40083399D01*
X70083315Y-40115907D01*
X69916685Y-40115907D01*
X69753258Y-40083399D01*
X69599313Y-40019633D01*
X69460766Y-39927059D01*
X69342941Y-39809234D01*
X69250367Y-39670687D01*
X69186601Y-39516742D01*
X69154093Y-39353315D01*
X69154093Y-39186685D01*
X69186601Y-39023258D01*
X69250367Y-38869313D01*
X69342941Y-38730766D01*
X69460766Y-38612941D01*
X69599313Y-38520367D01*
X69753258Y-38456601D01*
X69916685Y-38424093D01*
X70083315Y-38424093D01*
X70246742Y-38456601D01*
G37*
G36*
X72786742Y-38456601D02*
G01*
X72940687Y-38520367D01*
X73079234Y-38612941D01*
X73197059Y-38730766D01*
X73289633Y-38869313D01*
X73353399Y-39023258D01*
X73385907Y-39186685D01*
X73385907Y-39353315D01*
X73353399Y-39516742D01*
X73289633Y-39670687D01*
X73197059Y-39809234D01*
X73079234Y-39927059D01*
X72940687Y-40019633D01*
X72786742Y-40083399D01*
X72623315Y-40115907D01*
X72456685Y-40115907D01*
X72293258Y-40083399D01*
X72139313Y-40019633D01*
X72000766Y-39927059D01*
X71882941Y-39809234D01*
X71790367Y-39670687D01*
X71726601Y-39516742D01*
X71694093Y-39353315D01*
X71694093Y-39186685D01*
X71726601Y-39023258D01*
X71790367Y-38869313D01*
X71882941Y-38730766D01*
X72000766Y-38612941D01*
X72139313Y-38520367D01*
X72293258Y-38456601D01*
X72456685Y-38424093D01*
X72623315Y-38424093D01*
X72786742Y-38456601D01*
G37*
G36*
X75326742Y-38456601D02*
G01*
X75480687Y-38520367D01*
X75619234Y-38612941D01*
X75737059Y-38730766D01*
X75829633Y-38869313D01*
X75893399Y-39023258D01*
X75925907Y-39186685D01*
X75925907Y-39353315D01*
X75893399Y-39516742D01*
X75829633Y-39670687D01*
X75737059Y-39809234D01*
X75619234Y-39927059D01*
X75480687Y-40019633D01*
X75326742Y-40083399D01*
X75163315Y-40115907D01*
X74996685Y-40115907D01*
X74833258Y-40083399D01*
X74679313Y-40019633D01*
X74540766Y-39927059D01*
X74422941Y-39809234D01*
X74330367Y-39670687D01*
X74266601Y-39516742D01*
X74234093Y-39353315D01*
X74234093Y-39186685D01*
X74266601Y-39023258D01*
X74330367Y-38869313D01*
X74422941Y-38730766D01*
X74540766Y-38612941D01*
X74679313Y-38520367D01*
X74833258Y-38456601D01*
X74996685Y-38424093D01*
X75163315Y-38424093D01*
X75326742Y-38456601D01*
G37*
G36*
X102864364Y-38427407D02*
G01*
X103018309Y-38491173D01*
X103156856Y-38583747D01*
X103274681Y-38701572D01*
X103367255Y-38840119D01*
X103431021Y-38994064D01*
X103463529Y-39157491D01*
X103463529Y-39324121D01*
X103431021Y-39487548D01*
X103367255Y-39641493D01*
X103274681Y-39780040D01*
X103156856Y-39897865D01*
X103018309Y-39990439D01*
X102864364Y-40054205D01*
X102700937Y-40086713D01*
X102534307Y-40086713D01*
X102370880Y-40054205D01*
X102216935Y-39990439D01*
X102078388Y-39897865D01*
X101960563Y-39780040D01*
X101867989Y-39641493D01*
X101804223Y-39487548D01*
X101771715Y-39324121D01*
X101771715Y-39157491D01*
X101804223Y-38994064D01*
X101867989Y-38840119D01*
X101960563Y-38701572D01*
X102078388Y-38583747D01*
X102216935Y-38491173D01*
X102370880Y-38427407D01*
X102534307Y-38394899D01*
X102700937Y-38394899D01*
X102864364Y-38427407D01*
G37*
G36*
X110504116Y-36378818D02*
G01*
X110555379Y-36384766D01*
X110572892Y-36392499D01*
X110595671Y-36397030D01*
X110620057Y-36413324D01*
X110640788Y-36422478D01*
X110654946Y-36436636D01*
X110676777Y-36451223D01*
X110691363Y-36473053D01*
X110705521Y-36487211D01*
X110714673Y-36507939D01*
X110730970Y-36532329D01*
X110735501Y-36555109D01*
X110743233Y-36572620D01*
X110749178Y-36623872D01*
X110750000Y-36628000D01*
X110750000Y-37928000D01*
X110749178Y-37932128D01*
X110743233Y-37983379D01*
X110735501Y-38000888D01*
X110730970Y-38023671D01*
X110714672Y-38048062D01*
X110705521Y-38068788D01*
X110691365Y-38082943D01*
X110676777Y-38104777D01*
X110654943Y-38119365D01*
X110640788Y-38133521D01*
X110620062Y-38142672D01*
X110595671Y-38158970D01*
X110572888Y-38163501D01*
X110555379Y-38171233D01*
X110504129Y-38177178D01*
X110500000Y-38178000D01*
X107500000Y-38178000D01*
X107495873Y-38177179D01*
X107444620Y-38171233D01*
X107427109Y-38163501D01*
X107404329Y-38158970D01*
X107379939Y-38142673D01*
X107359211Y-38133521D01*
X107345053Y-38119363D01*
X107323223Y-38104777D01*
X107308636Y-38082946D01*
X107294478Y-38068788D01*
X107285324Y-38048057D01*
X107269030Y-38023671D01*
X107264499Y-38000892D01*
X107256766Y-37983379D01*
X107250818Y-37932117D01*
X107250000Y-37928000D01*
X107250000Y-36628000D01*
X107250818Y-36623885D01*
X107256766Y-36572620D01*
X107264499Y-36555105D01*
X107269030Y-36532329D01*
X107285323Y-36507944D01*
X107294478Y-36487211D01*
X107308638Y-36473050D01*
X107323223Y-36451223D01*
X107345050Y-36436638D01*
X107359211Y-36422478D01*
X107379944Y-36413323D01*
X107404329Y-36397030D01*
X107427105Y-36392499D01*
X107444620Y-36384766D01*
X107495884Y-36378818D01*
X107500000Y-36378000D01*
X110500000Y-36378000D01*
X110504116Y-36378818D01*
G37*
G36*
X115504116Y-36378818D02*
G01*
X115555379Y-36384766D01*
X115572892Y-36392499D01*
X115595671Y-36397030D01*
X115620057Y-36413324D01*
X115640788Y-36422478D01*
X115654946Y-36436636D01*
X115676777Y-36451223D01*
X115691363Y-36473053D01*
X115705521Y-36487211D01*
X115714673Y-36507939D01*
X115730970Y-36532329D01*
X115735501Y-36555109D01*
X115743233Y-36572620D01*
X115749178Y-36623872D01*
X115750000Y-36628000D01*
X115750000Y-37928000D01*
X115749178Y-37932128D01*
X115743233Y-37983379D01*
X115735501Y-38000888D01*
X115730970Y-38023671D01*
X115714672Y-38048062D01*
X115705521Y-38068788D01*
X115691365Y-38082943D01*
X115676777Y-38104777D01*
X115654943Y-38119365D01*
X115640788Y-38133521D01*
X115620062Y-38142672D01*
X115595671Y-38158970D01*
X115572888Y-38163501D01*
X115555379Y-38171233D01*
X115504129Y-38177178D01*
X115500000Y-38178000D01*
X112500000Y-38178000D01*
X112495873Y-38177179D01*
X112444620Y-38171233D01*
X112427109Y-38163501D01*
X112404329Y-38158970D01*
X112379939Y-38142673D01*
X112359211Y-38133521D01*
X112345053Y-38119363D01*
X112323223Y-38104777D01*
X112308636Y-38082946D01*
X112294478Y-38068788D01*
X112285324Y-38048057D01*
X112269030Y-38023671D01*
X112264499Y-38000892D01*
X112256766Y-37983379D01*
X112250818Y-37932117D01*
X112250000Y-37928000D01*
X112250000Y-36628000D01*
X112250818Y-36623885D01*
X112256766Y-36572620D01*
X112264499Y-36555105D01*
X112269030Y-36532329D01*
X112285323Y-36507944D01*
X112294478Y-36487211D01*
X112308638Y-36473050D01*
X112323223Y-36451223D01*
X112345050Y-36436638D01*
X112359211Y-36422478D01*
X112379944Y-36413323D01*
X112404329Y-36397030D01*
X112427105Y-36392499D01*
X112444620Y-36384766D01*
X112495884Y-36378818D01*
X112500000Y-36378000D01*
X115500000Y-36378000D01*
X115504116Y-36378818D01*
G37*
G36*
X84746742Y-36094601D02*
G01*
X84900687Y-36158367D01*
X85039234Y-36250941D01*
X85157059Y-36368766D01*
X85249633Y-36507313D01*
X85313399Y-36661258D01*
X85345907Y-36824685D01*
X85345907Y-36991315D01*
X85313399Y-37154742D01*
X85249633Y-37308687D01*
X85157059Y-37447234D01*
X85039234Y-37565059D01*
X84900687Y-37657633D01*
X84746742Y-37721399D01*
X84583315Y-37753907D01*
X84416685Y-37753907D01*
X84253258Y-37721399D01*
X84099313Y-37657633D01*
X83960766Y-37565059D01*
X83842941Y-37447234D01*
X83750367Y-37308687D01*
X83686601Y-37154742D01*
X83654093Y-36991315D01*
X83654093Y-36824685D01*
X83686601Y-36661258D01*
X83750367Y-36507313D01*
X83842941Y-36368766D01*
X83960766Y-36250941D01*
X84099313Y-36158367D01*
X84253258Y-36094601D01*
X84416685Y-36062093D01*
X84583315Y-36062093D01*
X84746742Y-36094601D01*
G37*
G36*
X65166742Y-35916601D02*
G01*
X65320687Y-35980367D01*
X65459234Y-36072941D01*
X65577059Y-36190766D01*
X65669633Y-36329313D01*
X65733399Y-36483258D01*
X65765907Y-36646685D01*
X65765907Y-36813315D01*
X65733399Y-36976742D01*
X65669633Y-37130687D01*
X65577059Y-37269234D01*
X65459234Y-37387059D01*
X65320687Y-37479633D01*
X65166742Y-37543399D01*
X65003315Y-37575907D01*
X64836685Y-37575907D01*
X64673258Y-37543399D01*
X64519313Y-37479633D01*
X64380766Y-37387059D01*
X64262941Y-37269234D01*
X64170367Y-37130687D01*
X64106601Y-36976742D01*
X64074093Y-36813315D01*
X64074093Y-36646685D01*
X64106601Y-36483258D01*
X64170367Y-36329313D01*
X64262941Y-36190766D01*
X64380766Y-36072941D01*
X64519313Y-35980367D01*
X64673258Y-35916601D01*
X64836685Y-35884093D01*
X65003315Y-35884093D01*
X65166742Y-35916601D01*
G37*
G36*
X67706742Y-35916601D02*
G01*
X67860687Y-35980367D01*
X67999234Y-36072941D01*
X68117059Y-36190766D01*
X68209633Y-36329313D01*
X68273399Y-36483258D01*
X68305907Y-36646685D01*
X68305907Y-36813315D01*
X68273399Y-36976742D01*
X68209633Y-37130687D01*
X68117059Y-37269234D01*
X67999234Y-37387059D01*
X67860687Y-37479633D01*
X67706742Y-37543399D01*
X67543315Y-37575907D01*
X67376685Y-37575907D01*
X67213258Y-37543399D01*
X67059313Y-37479633D01*
X66920766Y-37387059D01*
X66802941Y-37269234D01*
X66710367Y-37130687D01*
X66646601Y-36976742D01*
X66614093Y-36813315D01*
X66614093Y-36646685D01*
X66646601Y-36483258D01*
X66710367Y-36329313D01*
X66802941Y-36190766D01*
X66920766Y-36072941D01*
X67059313Y-35980367D01*
X67213258Y-35916601D01*
X67376685Y-35884093D01*
X67543315Y-35884093D01*
X67706742Y-35916601D01*
G37*
G36*
X70246742Y-35916601D02*
G01*
X70400687Y-35980367D01*
X70539234Y-36072941D01*
X70657059Y-36190766D01*
X70749633Y-36329313D01*
X70813399Y-36483258D01*
X70845907Y-36646685D01*
X70845907Y-36813315D01*
X70813399Y-36976742D01*
X70749633Y-37130687D01*
X70657059Y-37269234D01*
X70539234Y-37387059D01*
X70400687Y-37479633D01*
X70246742Y-37543399D01*
X70083315Y-37575907D01*
X69916685Y-37575907D01*
X69753258Y-37543399D01*
X69599313Y-37479633D01*
X69460766Y-37387059D01*
X69342941Y-37269234D01*
X69250367Y-37130687D01*
X69186601Y-36976742D01*
X69154093Y-36813315D01*
X69154093Y-36646685D01*
X69186601Y-36483258D01*
X69250367Y-36329313D01*
X69342941Y-36190766D01*
X69460766Y-36072941D01*
X69599313Y-35980367D01*
X69753258Y-35916601D01*
X69916685Y-35884093D01*
X70083315Y-35884093D01*
X70246742Y-35916601D01*
G37*
G36*
X72786742Y-35916601D02*
G01*
X72940687Y-35980367D01*
X73079234Y-36072941D01*
X73197059Y-36190766D01*
X73289633Y-36329313D01*
X73353399Y-36483258D01*
X73385907Y-36646685D01*
X73385907Y-36813315D01*
X73353399Y-36976742D01*
X73289633Y-37130687D01*
X73197059Y-37269234D01*
X73079234Y-37387059D01*
X72940687Y-37479633D01*
X72786742Y-37543399D01*
X72623315Y-37575907D01*
X72456685Y-37575907D01*
X72293258Y-37543399D01*
X72139313Y-37479633D01*
X72000766Y-37387059D01*
X71882941Y-37269234D01*
X71790367Y-37130687D01*
X71726601Y-36976742D01*
X71694093Y-36813315D01*
X71694093Y-36646685D01*
X71726601Y-36483258D01*
X71790367Y-36329313D01*
X71882941Y-36190766D01*
X72000766Y-36072941D01*
X72139313Y-35980367D01*
X72293258Y-35916601D01*
X72456685Y-35884093D01*
X72623315Y-35884093D01*
X72786742Y-35916601D01*
G37*
G36*
X75326742Y-35916601D02*
G01*
X75480687Y-35980367D01*
X75619234Y-36072941D01*
X75737059Y-36190766D01*
X75829633Y-36329313D01*
X75893399Y-36483258D01*
X75925907Y-36646685D01*
X75925907Y-36813315D01*
X75893399Y-36976742D01*
X75829633Y-37130687D01*
X75737059Y-37269234D01*
X75619234Y-37387059D01*
X75480687Y-37479633D01*
X75326742Y-37543399D01*
X75163315Y-37575907D01*
X74996685Y-37575907D01*
X74833258Y-37543399D01*
X74679313Y-37479633D01*
X74540766Y-37387059D01*
X74422941Y-37269234D01*
X74330367Y-37130687D01*
X74266601Y-36976742D01*
X74234093Y-36813315D01*
X74234093Y-36646685D01*
X74266601Y-36483258D01*
X74330367Y-36329313D01*
X74422941Y-36190766D01*
X74540766Y-36072941D01*
X74679313Y-35980367D01*
X74833258Y-35916601D01*
X74996685Y-35884093D01*
X75163315Y-35884093D01*
X75326742Y-35916601D01*
G37*
G36*
X102864364Y-35887407D02*
G01*
X103018309Y-35951173D01*
X103156856Y-36043747D01*
X103274681Y-36161572D01*
X103367255Y-36300119D01*
X103431021Y-36454064D01*
X103463529Y-36617491D01*
X103463529Y-36784121D01*
X103431021Y-36947548D01*
X103367255Y-37101493D01*
X103274681Y-37240040D01*
X103156856Y-37357865D01*
X103018309Y-37450439D01*
X102864364Y-37514205D01*
X102700937Y-37546713D01*
X102534307Y-37546713D01*
X102370880Y-37514205D01*
X102216935Y-37450439D01*
X102078388Y-37357865D01*
X101960563Y-37240040D01*
X101867989Y-37101493D01*
X101804223Y-36947548D01*
X101771715Y-36784121D01*
X101771715Y-36617491D01*
X101804223Y-36454064D01*
X101867989Y-36300119D01*
X101960563Y-36161572D01*
X102078388Y-36043747D01*
X102216935Y-35951173D01*
X102370880Y-35887407D01*
X102534307Y-35854899D01*
X102700937Y-35854899D01*
X102864364Y-35887407D01*
G37*
G36*
X85350000Y-35218000D02*
G01*
X83650000Y-35218000D01*
X83650000Y-33518000D01*
X85350000Y-33518000D01*
X85350000Y-35218000D01*
G37*
G36*
X103467622Y-35010806D02*
G01*
X101767622Y-35010806D01*
X101767622Y-33310806D01*
X103467622Y-33310806D01*
X103467622Y-35010806D01*
G37*
M02*
