M48
; DRILL file KiCad 10.0.3 date 2026-06-01T11:24:38
; FORMAT={-:-/ absolute / inch / decimal}
; #@! TF.CreationDate,2026-06-01T11:24:38-07:00
; #@! TF.GenerationSoftware,Kicad,Pcbnew,10.0.3
; #@! TF.FileFunction,Plated,1,2,PTH
FMAT,2
INCH
; #@! TA.AperFunction,Plated,PTH,ViaDrill
T1C0.0118
; #@! TA.AperFunction,Plated,PTH,ComponentDrill
T2C0.0394
%
G90
G05
T1
X2.185Y-2.0079
X2.2244Y-2.7953
X2.2244Y-3.1299
X2.2529Y-1.9597
X2.2815Y-2.2952
X2.2933Y-1.9882
X2.2967Y-2.2407
X2.313Y-1.6831
X2.3425Y-2.5984
X2.4016Y-3.061
X2.4016Y-3.2776
X2.4606Y-1.3189
X2.5394Y-2.3819
X2.5394Y-2.4409
X2.5886Y-1.8898
X2.6181Y-1.6142
X2.6181Y-2.0079
X2.7411Y-2.3671
X2.7559Y-2.6772
X2.7608Y-2.4163
X2.874Y-1.5956
X2.9035Y-1.6831
X3.0118Y-2.4016
X3.0118Y-2.7953
X3.0118Y-3.189
X3.0512Y-2.0571
X3.1988Y-1.6929
X3.4055Y-1.6142
X3.4055Y-2.0079
X3.4055Y-2.4016
X3.4055Y-2.7953
X3.4055Y-3.1594
X3.7992Y-1.6142
X3.7992Y-2.4016
X3.7992Y-3.189
X3.8189Y-2.0079
X3.8189Y-2.7953
X4.1929Y-1.6142
X4.1929Y-2.0079
X4.1929Y-2.4016
X4.1929Y-3.189
X4.2323Y-2.7165
X4.2323Y-2.8248
X4.2323Y-2.9232
X4.5374Y-2.4803
X4.5472Y-2.7657
X4.5472Y-3.1004
T2
X2.3425Y-2.0866
X2.3425Y-2.1866
X2.3425Y-2.2866
X2.3425Y-2.3866
X2.3425Y-2.4866
X2.4425Y-2.0866
X2.4425Y-2.1866
X2.4425Y-2.2866
X2.4425Y-2.3866
X2.4425Y-2.4866
X2.5181Y-3.0207
X2.5181Y-3.1207
X2.6181Y-3.0207
X2.6181Y-3.1207
X2.7181Y-3.0207
X2.7181Y-3.1207
X2.8181Y-3.0207
X2.8181Y-3.1207
X2.9181Y-3.0207
X2.9181Y-3.1207
X3.3268Y-1.3531
X3.3268Y-1.4531
X3.3268Y-1.5531
X3.3268Y-1.6531
X3.3268Y-1.7531
X3.3268Y-1.8531
X3.3268Y-1.9531
X3.3268Y-2.0531
X3.3268Y-2.1531
X3.3268Y-2.2531
X3.3268Y-2.3531
X3.3268Y-2.4531
X3.3268Y-2.5531
X3.3268Y-2.6531
X3.3268Y-2.7531
X3.3268Y-2.8531
X3.3268Y-2.9531
X3.3268Y-3.0531
X3.3268Y-3.1531
X3.3268Y-3.2531
X4.0401Y-1.3449
X4.0401Y-1.4449
X4.0401Y-1.5449
X4.0401Y-1.6449
X4.0401Y-1.7449
X4.0401Y-1.8449
X4.0401Y-1.9449
X4.0401Y-2.0449
X4.0401Y-2.1449
X4.0401Y-2.2449
X4.0401Y-2.3449
X4.0401Y-2.4449
X4.0401Y-2.5449
X4.0401Y-2.6449
X4.0401Y-2.7449
X4.0401Y-2.8449
X4.0401Y-2.9449
X4.0401Y-3.0449
X4.0401Y-3.1449
X4.0401Y-3.2449
X4.3396Y-2.6464
X4.3396Y-2.7464
X4.3396Y-2.8464
X4.3396Y-2.9464
X4.4079Y-1.6251
X4.4396Y-2.6464
X4.4396Y-2.7464
X4.4396Y-2.8464
X4.4396Y-2.9464
X4.5079Y-1.6251
X4.5079Y-2.2344
X4.5079Y-2.3344
M30
