M48
; DRILL file KiCad 10.0.3 date 2026-06-02T16:28:39
; FORMAT={-:-/ absolute / inch / decimal}
; #@! TF.CreationDate,2026-06-02T16:28:39-07:00
; #@! TF.GenerationSoftware,Kicad,Pcbnew,10.0.3
; #@! TF.FileFunction,Plated,1,2,PTH
FMAT,2
INCH
; #@! TA.AperFunction,Plated,PTH,ViaDrill
T1C0.0118
; #@! TA.AperFunction,Plated,PTH,ComponentDrill
T2C0.0394
%
G90
G05
T1
X2.1929Y-1.4606
X2.1969Y-2.2087
X2.2008Y-2.9252
X2.3465Y-1.2874
X2.3819Y-3.2835
X2.4606Y-1.5512
X2.4882Y-2.4213
X2.5147Y-1.7362
X2.5394Y-2.1969
X2.6063Y-1.6457
X2.622Y-2.0551
X2.6299Y-1.7087
X2.7051Y-1.6417
X2.7205Y-2.4882
X2.752Y-2.1417
X2.7559Y-1.6417
X2.7559Y-1.9488
X2.7717Y-2.3543
X2.7913Y-2.2362
X2.9259Y-2.5411
X2.9488Y-2.248
X3.0177Y-2.8465
X3.0276Y-1.8071
X3.0276Y-1.8504
X3.0394Y-3.2795
X3.0906Y-2.2598
X3.1063Y-2.5472
X3.2441Y-1.5945
X3.2441Y-2.0079
X3.2461Y-1.8169
X3.248Y-1.7126
X3.4055Y-1.6142
X3.4055Y-2.0079
X3.4055Y-2.4016
X3.4055Y-2.7953
X3.4055Y-3.1594
X3.7992Y-1.6142
X3.7992Y-2.4016
X3.7992Y-3.189
X3.8189Y-2.0079
X3.8189Y-2.7953
X4.1929Y-2.0079
X4.1929Y-2.4016
X4.1929Y-3.189
X4.2047Y-1.6063
X4.2441Y-2.7047
X4.2461Y-2.8071
X4.248Y-2.9094
X4.5374Y-2.4803
X4.5472Y-3.1004
X4.5906Y-2.7717
T2
X2.5289Y-3.0246
X2.5289Y-3.1246
X2.5559Y-1.4461
X2.5559Y-1.5461
X2.6289Y-3.0246
X2.6289Y-3.1246
X2.6559Y-1.4461
X2.6559Y-1.5461
X2.7289Y-3.0246
X2.7289Y-3.1246
X2.7559Y-1.4461
X2.7559Y-1.5461
X2.8289Y-3.0246
X2.8289Y-3.1246
X2.8559Y-1.4461
X2.8559Y-1.5461
X2.9289Y-3.0246
X2.9289Y-3.1246
X2.9559Y-1.4461
X2.9559Y-1.5461
X3.3268Y-1.3531
X3.3268Y-1.4531
X3.3268Y-1.5531
X3.3268Y-1.6531
X3.3268Y-1.7531
X3.3268Y-1.8531
X3.3268Y-1.9531
X3.3268Y-2.0531
X3.3268Y-2.1531
X3.3268Y-2.2531
X3.3268Y-2.3531
X3.3268Y-2.4531
X3.3268Y-2.5531
X3.3268Y-2.6531
X3.3268Y-2.7531
X3.3268Y-2.8531
X3.3268Y-2.9531
X3.3268Y-3.0531
X3.3268Y-3.1531
X3.3268Y-3.2531
X4.0401Y-1.3449
X4.0401Y-1.4449
X4.0401Y-1.5449
X4.0401Y-1.6449
X4.0401Y-1.7449
X4.0401Y-1.8449
X4.0401Y-1.9449
X4.0401Y-2.0449
X4.0401Y-2.1449
X4.0401Y-2.2449
X4.0401Y-2.3449
X4.0401Y-2.4449
X4.0401Y-2.5449
X4.0401Y-2.6449
X4.0401Y-2.7449
X4.0401Y-2.8449
X4.0401Y-2.9449
X4.0401Y-3.0449
X4.0401Y-3.1449
X4.0401Y-3.2449
X4.3396Y-2.6453
X4.3396Y-2.7453
X4.3396Y-2.8453
X4.3396Y-2.9453
X4.4079Y-1.6251
X4.4396Y-2.6453
X4.4396Y-2.7453
X4.4396Y-2.8453
X4.4396Y-2.9453
X4.5079Y-1.6251
X4.5079Y-2.2344
X4.5079Y-2.3344
M30
