%TF.GenerationSoftware,KiCad,Pcbnew,10.0.3*%
%TF.CreationDate,2026-06-01T11:24:38-07:00*%
%TF.ProjectId,Encoder Board,456e636f-6465-4722-9042-6f6172642e6b,rev?*%
%TF.SameCoordinates,Original*%
%TF.FileFunction,Soldermask,Top*%
%TF.FilePolarity,Negative*%
%FSLAX46Y46*%
G04 Gerber Fmt 4.6, Leading zero omitted, Abs format (unit mm)*
G04 Created by KiCad (PCBNEW 10.0.3) date 2026-06-01 11:24:38*
%MOMM*%
%LPD*%
G01*
G04 APERTURE LIST*
G04 APERTURE END LIST*
G36*
X84746742Y-81814601D02*
G01*
X84900687Y-81878367D01*
X85039234Y-81970941D01*
X85157059Y-82088766D01*
X85249633Y-82227313D01*
X85313399Y-82381258D01*
X85345907Y-82544685D01*
X85345907Y-82711315D01*
X85313399Y-82874742D01*
X85249633Y-83028687D01*
X85157059Y-83167234D01*
X85039234Y-83285059D01*
X84900687Y-83377633D01*
X84746742Y-83441399D01*
X84583315Y-83473907D01*
X84416685Y-83473907D01*
X84253258Y-83441399D01*
X84099313Y-83377633D01*
X83960766Y-83285059D01*
X83842941Y-83167234D01*
X83750367Y-83028687D01*
X83686601Y-82874742D01*
X83654093Y-82711315D01*
X83654093Y-82544685D01*
X83686601Y-82381258D01*
X83750367Y-82227313D01*
X83842941Y-82088766D01*
X83960766Y-81970941D01*
X84099313Y-81878367D01*
X84253258Y-81814601D01*
X84416685Y-81782093D01*
X84583315Y-81782093D01*
X84746742Y-81814601D01*
G37*
G36*
X102864364Y-81607407D02*
G01*
X103018309Y-81671173D01*
X103156856Y-81763747D01*
X103274681Y-81881572D01*
X103367255Y-82020119D01*
X103431021Y-82174064D01*
X103463529Y-82337491D01*
X103463529Y-82504121D01*
X103431021Y-82667548D01*
X103367255Y-82821493D01*
X103274681Y-82960040D01*
X103156856Y-83077865D01*
X103018309Y-83170439D01*
X102864364Y-83234205D01*
X102700937Y-83266713D01*
X102534307Y-83266713D01*
X102370880Y-83234205D01*
X102216935Y-83170439D01*
X102078388Y-83077865D01*
X101960563Y-82960040D01*
X101867989Y-82821493D01*
X101804223Y-82667548D01*
X101771715Y-82504121D01*
X101771715Y-82337491D01*
X101804223Y-82174064D01*
X101867989Y-82020119D01*
X101960563Y-81881572D01*
X102078388Y-81763747D01*
X102216935Y-81671173D01*
X102370880Y-81607407D01*
X102534307Y-81574899D01*
X102700937Y-81574899D01*
X102864364Y-81607407D01*
G37*
G36*
X84746742Y-79274601D02*
G01*
X84900687Y-79338367D01*
X85039234Y-79430941D01*
X85157059Y-79548766D01*
X85249633Y-79687313D01*
X85313399Y-79841258D01*
X85345907Y-80004685D01*
X85345907Y-80171315D01*
X85313399Y-80334742D01*
X85249633Y-80488687D01*
X85157059Y-80627234D01*
X85039234Y-80745059D01*
X84900687Y-80837633D01*
X84746742Y-80901399D01*
X84583315Y-80933907D01*
X84416685Y-80933907D01*
X84253258Y-80901399D01*
X84099313Y-80837633D01*
X83960766Y-80745059D01*
X83842941Y-80627234D01*
X83750367Y-80488687D01*
X83686601Y-80334742D01*
X83654093Y-80171315D01*
X83654093Y-80004685D01*
X83686601Y-79841258D01*
X83750367Y-79687313D01*
X83842941Y-79548766D01*
X83960766Y-79430941D01*
X84099313Y-79338367D01*
X84253258Y-79274601D01*
X84416685Y-79242093D01*
X84583315Y-79242093D01*
X84746742Y-79274601D01*
G37*
G36*
X102864364Y-79067407D02*
G01*
X103018309Y-79131173D01*
X103156856Y-79223747D01*
X103274681Y-79341572D01*
X103367255Y-79480119D01*
X103431021Y-79634064D01*
X103463529Y-79797491D01*
X103463529Y-79964121D01*
X103431021Y-80127548D01*
X103367255Y-80281493D01*
X103274681Y-80420040D01*
X103156856Y-80537865D01*
X103018309Y-80630439D01*
X102864364Y-80694205D01*
X102700937Y-80726713D01*
X102534307Y-80726713D01*
X102370880Y-80694205D01*
X102216935Y-80630439D01*
X102078388Y-80537865D01*
X101960563Y-80420040D01*
X101867989Y-80281493D01*
X101804223Y-80127548D01*
X101771715Y-79964121D01*
X101771715Y-79797491D01*
X101804223Y-79634064D01*
X101867989Y-79480119D01*
X101960563Y-79341572D01*
X102078388Y-79223747D01*
X102216935Y-79131173D01*
X102370880Y-79067407D01*
X102534307Y-79034899D01*
X102700937Y-79034899D01*
X102864364Y-79067407D01*
G37*
G36*
X64206742Y-78451159D02*
G01*
X64360687Y-78514925D01*
X64499234Y-78607499D01*
X64617059Y-78725324D01*
X64709633Y-78863871D01*
X64773399Y-79017816D01*
X64805907Y-79181243D01*
X64805907Y-79347873D01*
X64773399Y-79511300D01*
X64709633Y-79665245D01*
X64617059Y-79803792D01*
X64499234Y-79921617D01*
X64360687Y-80014191D01*
X64206742Y-80077957D01*
X64043315Y-80110465D01*
X63876685Y-80110465D01*
X63713258Y-80077957D01*
X63559313Y-80014191D01*
X63420766Y-79921617D01*
X63302941Y-79803792D01*
X63210367Y-79665245D01*
X63146601Y-79511300D01*
X63114093Y-79347873D01*
X63114093Y-79181243D01*
X63146601Y-79017816D01*
X63210367Y-78863871D01*
X63302941Y-78725324D01*
X63420766Y-78607499D01*
X63559313Y-78514925D01*
X63713258Y-78451159D01*
X63876685Y-78418651D01*
X64043315Y-78418651D01*
X64206742Y-78451159D01*
G37*
G36*
X66746742Y-78451159D02*
G01*
X66900687Y-78514925D01*
X67039234Y-78607499D01*
X67157059Y-78725324D01*
X67249633Y-78863871D01*
X67313399Y-79017816D01*
X67345907Y-79181243D01*
X67345907Y-79347873D01*
X67313399Y-79511300D01*
X67249633Y-79665245D01*
X67157059Y-79803792D01*
X67039234Y-79921617D01*
X66900687Y-80014191D01*
X66746742Y-80077957D01*
X66583315Y-80110465D01*
X66416685Y-80110465D01*
X66253258Y-80077957D01*
X66099313Y-80014191D01*
X65960766Y-79921617D01*
X65842941Y-79803792D01*
X65750367Y-79665245D01*
X65686601Y-79511300D01*
X65654093Y-79347873D01*
X65654093Y-79181243D01*
X65686601Y-79017816D01*
X65750367Y-78863871D01*
X65842941Y-78725324D01*
X65960766Y-78607499D01*
X66099313Y-78514925D01*
X66253258Y-78451159D01*
X66416685Y-78418651D01*
X66583315Y-78418651D01*
X66746742Y-78451159D01*
G37*
G36*
X69286742Y-78451159D02*
G01*
X69440687Y-78514925D01*
X69579234Y-78607499D01*
X69697059Y-78725324D01*
X69789633Y-78863871D01*
X69853399Y-79017816D01*
X69885907Y-79181243D01*
X69885907Y-79347873D01*
X69853399Y-79511300D01*
X69789633Y-79665245D01*
X69697059Y-79803792D01*
X69579234Y-79921617D01*
X69440687Y-80014191D01*
X69286742Y-80077957D01*
X69123315Y-80110465D01*
X68956685Y-80110465D01*
X68793258Y-80077957D01*
X68639313Y-80014191D01*
X68500766Y-79921617D01*
X68382941Y-79803792D01*
X68290367Y-79665245D01*
X68226601Y-79511300D01*
X68194093Y-79347873D01*
X68194093Y-79181243D01*
X68226601Y-79017816D01*
X68290367Y-78863871D01*
X68382941Y-78725324D01*
X68500766Y-78607499D01*
X68639313Y-78514925D01*
X68793258Y-78451159D01*
X68956685Y-78418651D01*
X69123315Y-78418651D01*
X69286742Y-78451159D01*
G37*
G36*
X71826742Y-78451159D02*
G01*
X71980687Y-78514925D01*
X72119234Y-78607499D01*
X72237059Y-78725324D01*
X72329633Y-78863871D01*
X72393399Y-79017816D01*
X72425907Y-79181243D01*
X72425907Y-79347873D01*
X72393399Y-79511300D01*
X72329633Y-79665245D01*
X72237059Y-79803792D01*
X72119234Y-79921617D01*
X71980687Y-80014191D01*
X71826742Y-80077957D01*
X71663315Y-80110465D01*
X71496685Y-80110465D01*
X71333258Y-80077957D01*
X71179313Y-80014191D01*
X71040766Y-79921617D01*
X70922941Y-79803792D01*
X70830367Y-79665245D01*
X70766601Y-79511300D01*
X70734093Y-79347873D01*
X70734093Y-79181243D01*
X70766601Y-79017816D01*
X70830367Y-78863871D01*
X70922941Y-78725324D01*
X71040766Y-78607499D01*
X71179313Y-78514925D01*
X71333258Y-78451159D01*
X71496685Y-78418651D01*
X71663315Y-78418651D01*
X71826742Y-78451159D01*
G37*
G36*
X74366742Y-78451159D02*
G01*
X74520687Y-78514925D01*
X74659234Y-78607499D01*
X74777059Y-78725324D01*
X74869633Y-78863871D01*
X74933399Y-79017816D01*
X74965907Y-79181243D01*
X74965907Y-79347873D01*
X74933399Y-79511300D01*
X74869633Y-79665245D01*
X74777059Y-79803792D01*
X74659234Y-79921617D01*
X74520687Y-80014191D01*
X74366742Y-80077957D01*
X74203315Y-80110465D01*
X74036685Y-80110465D01*
X73873258Y-80077957D01*
X73719313Y-80014191D01*
X73580766Y-79921617D01*
X73462941Y-79803792D01*
X73370367Y-79665245D01*
X73306601Y-79511300D01*
X73274093Y-79347873D01*
X73274093Y-79181243D01*
X73306601Y-79017816D01*
X73370367Y-78863871D01*
X73462941Y-78725324D01*
X73580766Y-78607499D01*
X73719313Y-78514925D01*
X73873258Y-78451159D01*
X74036685Y-78418651D01*
X74203315Y-78418651D01*
X74366742Y-78451159D01*
G37*
G36*
X84746742Y-76734601D02*
G01*
X84900687Y-76798367D01*
X85039234Y-76890941D01*
X85157059Y-77008766D01*
X85249633Y-77147313D01*
X85313399Y-77301258D01*
X85345907Y-77464685D01*
X85345907Y-77631315D01*
X85313399Y-77794742D01*
X85249633Y-77948687D01*
X85157059Y-78087234D01*
X85039234Y-78205059D01*
X84900687Y-78297633D01*
X84746742Y-78361399D01*
X84583315Y-78393907D01*
X84416685Y-78393907D01*
X84253258Y-78361399D01*
X84099313Y-78297633D01*
X83960766Y-78205059D01*
X83842941Y-78087234D01*
X83750367Y-77948687D01*
X83686601Y-77794742D01*
X83654093Y-77631315D01*
X83654093Y-77464685D01*
X83686601Y-77301258D01*
X83750367Y-77147313D01*
X83842941Y-77008766D01*
X83960766Y-76890941D01*
X84099313Y-76798367D01*
X84253258Y-76734601D01*
X84416685Y-76702093D01*
X84583315Y-76702093D01*
X84746742Y-76734601D01*
G37*
G36*
X102864364Y-76527407D02*
G01*
X103018309Y-76591173D01*
X103156856Y-76683747D01*
X103274681Y-76801572D01*
X103367255Y-76940119D01*
X103431021Y-77094064D01*
X103463529Y-77257491D01*
X103463529Y-77424121D01*
X103431021Y-77587548D01*
X103367255Y-77741493D01*
X103274681Y-77880040D01*
X103156856Y-77997865D01*
X103018309Y-78090439D01*
X102864364Y-78154205D01*
X102700937Y-78186713D01*
X102534307Y-78186713D01*
X102370880Y-78154205D01*
X102216935Y-78090439D01*
X102078388Y-77997865D01*
X101960563Y-77880040D01*
X101867989Y-77741493D01*
X101804223Y-77587548D01*
X101771715Y-77424121D01*
X101771715Y-77257491D01*
X101804223Y-77094064D01*
X101867989Y-76940119D01*
X101960563Y-76801572D01*
X102078388Y-76683747D01*
X102216935Y-76591173D01*
X102370880Y-76527407D01*
X102534307Y-76494899D01*
X102700937Y-76494899D01*
X102864364Y-76527407D01*
G37*
G36*
X74970000Y-77574558D02*
G01*
X73270000Y-77574558D01*
X73270000Y-75874558D01*
X74970000Y-75874558D01*
X74970000Y-77574558D01*
G37*
G36*
X64206742Y-75911159D02*
G01*
X64360687Y-75974925D01*
X64499234Y-76067499D01*
X64617059Y-76185324D01*
X64709633Y-76323871D01*
X64773399Y-76477816D01*
X64805907Y-76641243D01*
X64805907Y-76807873D01*
X64773399Y-76971300D01*
X64709633Y-77125245D01*
X64617059Y-77263792D01*
X64499234Y-77381617D01*
X64360687Y-77474191D01*
X64206742Y-77537957D01*
X64043315Y-77570465D01*
X63876685Y-77570465D01*
X63713258Y-77537957D01*
X63559313Y-77474191D01*
X63420766Y-77381617D01*
X63302941Y-77263792D01*
X63210367Y-77125245D01*
X63146601Y-76971300D01*
X63114093Y-76807873D01*
X63114093Y-76641243D01*
X63146601Y-76477816D01*
X63210367Y-76323871D01*
X63302941Y-76185324D01*
X63420766Y-76067499D01*
X63559313Y-75974925D01*
X63713258Y-75911159D01*
X63876685Y-75878651D01*
X64043315Y-75878651D01*
X64206742Y-75911159D01*
G37*
G36*
X66746742Y-75911159D02*
G01*
X66900687Y-75974925D01*
X67039234Y-76067499D01*
X67157059Y-76185324D01*
X67249633Y-76323871D01*
X67313399Y-76477816D01*
X67345907Y-76641243D01*
X67345907Y-76807873D01*
X67313399Y-76971300D01*
X67249633Y-77125245D01*
X67157059Y-77263792D01*
X67039234Y-77381617D01*
X66900687Y-77474191D01*
X66746742Y-77537957D01*
X66583315Y-77570465D01*
X66416685Y-77570465D01*
X66253258Y-77537957D01*
X66099313Y-77474191D01*
X65960766Y-77381617D01*
X65842941Y-77263792D01*
X65750367Y-77125245D01*
X65686601Y-76971300D01*
X65654093Y-76807873D01*
X65654093Y-76641243D01*
X65686601Y-76477816D01*
X65750367Y-76323871D01*
X65842941Y-76185324D01*
X65960766Y-76067499D01*
X66099313Y-75974925D01*
X66253258Y-75911159D01*
X66416685Y-75878651D01*
X66583315Y-75878651D01*
X66746742Y-75911159D01*
G37*
G36*
X69286742Y-75911159D02*
G01*
X69440687Y-75974925D01*
X69579234Y-76067499D01*
X69697059Y-76185324D01*
X69789633Y-76323871D01*
X69853399Y-76477816D01*
X69885907Y-76641243D01*
X69885907Y-76807873D01*
X69853399Y-76971300D01*
X69789633Y-77125245D01*
X69697059Y-77263792D01*
X69579234Y-77381617D01*
X69440687Y-77474191D01*
X69286742Y-77537957D01*
X69123315Y-77570465D01*
X68956685Y-77570465D01*
X68793258Y-77537957D01*
X68639313Y-77474191D01*
X68500766Y-77381617D01*
X68382941Y-77263792D01*
X68290367Y-77125245D01*
X68226601Y-76971300D01*
X68194093Y-76807873D01*
X68194093Y-76641243D01*
X68226601Y-76477816D01*
X68290367Y-76323871D01*
X68382941Y-76185324D01*
X68500766Y-76067499D01*
X68639313Y-75974925D01*
X68793258Y-75911159D01*
X68956685Y-75878651D01*
X69123315Y-75878651D01*
X69286742Y-75911159D01*
G37*
G36*
X71826742Y-75911159D02*
G01*
X71980687Y-75974925D01*
X72119234Y-76067499D01*
X72237059Y-76185324D01*
X72329633Y-76323871D01*
X72393399Y-76477816D01*
X72425907Y-76641243D01*
X72425907Y-76807873D01*
X72393399Y-76971300D01*
X72329633Y-77125245D01*
X72237059Y-77263792D01*
X72119234Y-77381617D01*
X71980687Y-77474191D01*
X71826742Y-77537957D01*
X71663315Y-77570465D01*
X71496685Y-77570465D01*
X71333258Y-77537957D01*
X71179313Y-77474191D01*
X71040766Y-77381617D01*
X70922941Y-77263792D01*
X70830367Y-77125245D01*
X70766601Y-76971300D01*
X70734093Y-76807873D01*
X70734093Y-76641243D01*
X70766601Y-76477816D01*
X70830367Y-76323871D01*
X70922941Y-76185324D01*
X71040766Y-76067499D01*
X71179313Y-75974925D01*
X71333258Y-75911159D01*
X71496685Y-75878651D01*
X71663315Y-75878651D01*
X71826742Y-75911159D01*
G37*
G36*
X84746742Y-74194601D02*
G01*
X84900687Y-74258367D01*
X85039234Y-74350941D01*
X85157059Y-74468766D01*
X85249633Y-74607313D01*
X85313399Y-74761258D01*
X85345907Y-74924685D01*
X85345907Y-75091315D01*
X85313399Y-75254742D01*
X85249633Y-75408687D01*
X85157059Y-75547234D01*
X85039234Y-75665059D01*
X84900687Y-75757633D01*
X84746742Y-75821399D01*
X84583315Y-75853907D01*
X84416685Y-75853907D01*
X84253258Y-75821399D01*
X84099313Y-75757633D01*
X83960766Y-75665059D01*
X83842941Y-75547234D01*
X83750367Y-75408687D01*
X83686601Y-75254742D01*
X83654093Y-75091315D01*
X83654093Y-74924685D01*
X83686601Y-74761258D01*
X83750367Y-74607313D01*
X83842941Y-74468766D01*
X83960766Y-74350941D01*
X84099313Y-74258367D01*
X84253258Y-74194601D01*
X84416685Y-74162093D01*
X84583315Y-74162093D01*
X84746742Y-74194601D01*
G37*
G36*
X110471742Y-74024601D02*
G01*
X110625687Y-74088367D01*
X110764234Y-74180941D01*
X110882059Y-74298766D01*
X110974633Y-74437313D01*
X111038399Y-74591258D01*
X111070907Y-74754685D01*
X111070907Y-74921315D01*
X111038399Y-75084742D01*
X110974633Y-75238687D01*
X110882059Y-75377234D01*
X110764234Y-75495059D01*
X110625687Y-75587633D01*
X110471742Y-75651399D01*
X110308315Y-75683907D01*
X110141685Y-75683907D01*
X109978258Y-75651399D01*
X109824313Y-75587633D01*
X109685766Y-75495059D01*
X109567941Y-75377234D01*
X109475367Y-75238687D01*
X109411601Y-75084742D01*
X109379093Y-74921315D01*
X109379093Y-74754685D01*
X109411601Y-74591258D01*
X109475367Y-74437313D01*
X109567941Y-74298766D01*
X109685766Y-74180941D01*
X109824313Y-74088367D01*
X109978258Y-74024601D01*
X110141685Y-73992093D01*
X110308315Y-73992093D01*
X110471742Y-74024601D01*
G37*
G36*
X113011742Y-74024601D02*
G01*
X113165687Y-74088367D01*
X113304234Y-74180941D01*
X113422059Y-74298766D01*
X113514633Y-74437313D01*
X113578399Y-74591258D01*
X113610907Y-74754685D01*
X113610907Y-74921315D01*
X113578399Y-75084742D01*
X113514633Y-75238687D01*
X113422059Y-75377234D01*
X113304234Y-75495059D01*
X113165687Y-75587633D01*
X113011742Y-75651399D01*
X112848315Y-75683907D01*
X112681685Y-75683907D01*
X112518258Y-75651399D01*
X112364313Y-75587633D01*
X112225766Y-75495059D01*
X112107941Y-75377234D01*
X112015367Y-75238687D01*
X111951601Y-75084742D01*
X111919093Y-74921315D01*
X111919093Y-74754685D01*
X111951601Y-74591258D01*
X112015367Y-74437313D01*
X112107941Y-74298766D01*
X112225766Y-74180941D01*
X112364313Y-74088367D01*
X112518258Y-74024601D01*
X112681685Y-73992093D01*
X112848315Y-73992093D01*
X113011742Y-74024601D01*
G37*
G36*
X102864364Y-73987407D02*
G01*
X103018309Y-74051173D01*
X103156856Y-74143747D01*
X103274681Y-74261572D01*
X103367255Y-74400119D01*
X103431021Y-74554064D01*
X103463529Y-74717491D01*
X103463529Y-74884121D01*
X103431021Y-75047548D01*
X103367255Y-75201493D01*
X103274681Y-75340040D01*
X103156856Y-75457865D01*
X103018309Y-75550439D01*
X102864364Y-75614205D01*
X102700937Y-75646713D01*
X102534307Y-75646713D01*
X102370880Y-75614205D01*
X102216935Y-75550439D01*
X102078388Y-75457865D01*
X101960563Y-75340040D01*
X101867989Y-75201493D01*
X101804223Y-75047548D01*
X101771715Y-74884121D01*
X101771715Y-74717491D01*
X101804223Y-74554064D01*
X101867989Y-74400119D01*
X101960563Y-74261572D01*
X102078388Y-74143747D01*
X102216935Y-74051173D01*
X102370880Y-73987407D01*
X102534307Y-73954899D01*
X102700937Y-73954899D01*
X102864364Y-73987407D01*
G37*
G36*
X84746742Y-71654601D02*
G01*
X84900687Y-71718367D01*
X85039234Y-71810941D01*
X85157059Y-71928766D01*
X85249633Y-72067313D01*
X85313399Y-72221258D01*
X85345907Y-72384685D01*
X85345907Y-72551315D01*
X85313399Y-72714742D01*
X85249633Y-72868687D01*
X85157059Y-73007234D01*
X85039234Y-73125059D01*
X84900687Y-73217633D01*
X84746742Y-73281399D01*
X84583315Y-73313907D01*
X84416685Y-73313907D01*
X84253258Y-73281399D01*
X84099313Y-73217633D01*
X83960766Y-73125059D01*
X83842941Y-73007234D01*
X83750367Y-72868687D01*
X83686601Y-72714742D01*
X83654093Y-72551315D01*
X83654093Y-72384685D01*
X83686601Y-72221258D01*
X83750367Y-72067313D01*
X83842941Y-71928766D01*
X83960766Y-71810941D01*
X84099313Y-71718367D01*
X84253258Y-71654601D01*
X84416685Y-71622093D01*
X84583315Y-71622093D01*
X84746742Y-71654601D01*
G37*
G36*
X110471742Y-71484601D02*
G01*
X110625687Y-71548367D01*
X110764234Y-71640941D01*
X110882059Y-71758766D01*
X110974633Y-71897313D01*
X111038399Y-72051258D01*
X111070907Y-72214685D01*
X111070907Y-72381315D01*
X111038399Y-72544742D01*
X110974633Y-72698687D01*
X110882059Y-72837234D01*
X110764234Y-72955059D01*
X110625687Y-73047633D01*
X110471742Y-73111399D01*
X110308315Y-73143907D01*
X110141685Y-73143907D01*
X109978258Y-73111399D01*
X109824313Y-73047633D01*
X109685766Y-72955059D01*
X109567941Y-72837234D01*
X109475367Y-72698687D01*
X109411601Y-72544742D01*
X109379093Y-72381315D01*
X109379093Y-72214685D01*
X109411601Y-72051258D01*
X109475367Y-71897313D01*
X109567941Y-71758766D01*
X109685766Y-71640941D01*
X109824313Y-71548367D01*
X109978258Y-71484601D01*
X110141685Y-71452093D01*
X110308315Y-71452093D01*
X110471742Y-71484601D01*
G37*
G36*
X113011742Y-71484601D02*
G01*
X113165687Y-71548367D01*
X113304234Y-71640941D01*
X113422059Y-71758766D01*
X113514633Y-71897313D01*
X113578399Y-72051258D01*
X113610907Y-72214685D01*
X113610907Y-72381315D01*
X113578399Y-72544742D01*
X113514633Y-72698687D01*
X113422059Y-72837234D01*
X113304234Y-72955059D01*
X113165687Y-73047633D01*
X113011742Y-73111399D01*
X112848315Y-73143907D01*
X112681685Y-73143907D01*
X112518258Y-73111399D01*
X112364313Y-73047633D01*
X112225766Y-72955059D01*
X112107941Y-72837234D01*
X112015367Y-72698687D01*
X111951601Y-72544742D01*
X111919093Y-72381315D01*
X111919093Y-72214685D01*
X111951601Y-72051258D01*
X112015367Y-71897313D01*
X112107941Y-71758766D01*
X112225766Y-71640941D01*
X112364313Y-71548367D01*
X112518258Y-71484601D01*
X112681685Y-71452093D01*
X112848315Y-71452093D01*
X113011742Y-71484601D01*
G37*
G36*
X102864364Y-71447407D02*
G01*
X103018309Y-71511173D01*
X103156856Y-71603747D01*
X103274681Y-71721572D01*
X103367255Y-71860119D01*
X103431021Y-72014064D01*
X103463529Y-72177491D01*
X103463529Y-72344121D01*
X103431021Y-72507548D01*
X103367255Y-72661493D01*
X103274681Y-72800040D01*
X103156856Y-72917865D01*
X103018309Y-73010439D01*
X102864364Y-73074205D01*
X102700937Y-73106713D01*
X102534307Y-73106713D01*
X102370880Y-73074205D01*
X102216935Y-73010439D01*
X102078388Y-72917865D01*
X101960563Y-72800040D01*
X101867989Y-72661493D01*
X101804223Y-72507548D01*
X101771715Y-72344121D01*
X101771715Y-72177491D01*
X101804223Y-72014064D01*
X101867989Y-71860119D01*
X101960563Y-71721572D01*
X102078388Y-71603747D01*
X102216935Y-71511173D01*
X102370880Y-71447407D01*
X102534307Y-71414899D01*
X102700937Y-71414899D01*
X102864364Y-71447407D01*
G37*
G36*
X84746742Y-69114601D02*
G01*
X84900687Y-69178367D01*
X85039234Y-69270941D01*
X85157059Y-69388766D01*
X85249633Y-69527313D01*
X85313399Y-69681258D01*
X85345907Y-69844685D01*
X85345907Y-70011315D01*
X85313399Y-70174742D01*
X85249633Y-70328687D01*
X85157059Y-70467234D01*
X85039234Y-70585059D01*
X84900687Y-70677633D01*
X84746742Y-70741399D01*
X84583315Y-70773907D01*
X84416685Y-70773907D01*
X84253258Y-70741399D01*
X84099313Y-70677633D01*
X83960766Y-70585059D01*
X83842941Y-70467234D01*
X83750367Y-70328687D01*
X83686601Y-70174742D01*
X83654093Y-70011315D01*
X83654093Y-69844685D01*
X83686601Y-69681258D01*
X83750367Y-69527313D01*
X83842941Y-69388766D01*
X83960766Y-69270941D01*
X84099313Y-69178367D01*
X84253258Y-69114601D01*
X84416685Y-69082093D01*
X84583315Y-69082093D01*
X84746742Y-69114601D01*
G37*
G36*
X110471742Y-68944601D02*
G01*
X110625687Y-69008367D01*
X110764234Y-69100941D01*
X110882059Y-69218766D01*
X110974633Y-69357313D01*
X111038399Y-69511258D01*
X111070907Y-69674685D01*
X111070907Y-69841315D01*
X111038399Y-70004742D01*
X110974633Y-70158687D01*
X110882059Y-70297234D01*
X110764234Y-70415059D01*
X110625687Y-70507633D01*
X110471742Y-70571399D01*
X110308315Y-70603907D01*
X110141685Y-70603907D01*
X109978258Y-70571399D01*
X109824313Y-70507633D01*
X109685766Y-70415059D01*
X109567941Y-70297234D01*
X109475367Y-70158687D01*
X109411601Y-70004742D01*
X109379093Y-69841315D01*
X109379093Y-69674685D01*
X109411601Y-69511258D01*
X109475367Y-69357313D01*
X109567941Y-69218766D01*
X109685766Y-69100941D01*
X109824313Y-69008367D01*
X109978258Y-68944601D01*
X110141685Y-68912093D01*
X110308315Y-68912093D01*
X110471742Y-68944601D01*
G37*
G36*
X113011742Y-68944601D02*
G01*
X113165687Y-69008367D01*
X113304234Y-69100941D01*
X113422059Y-69218766D01*
X113514633Y-69357313D01*
X113578399Y-69511258D01*
X113610907Y-69674685D01*
X113610907Y-69841315D01*
X113578399Y-70004742D01*
X113514633Y-70158687D01*
X113422059Y-70297234D01*
X113304234Y-70415059D01*
X113165687Y-70507633D01*
X113011742Y-70571399D01*
X112848315Y-70603907D01*
X112681685Y-70603907D01*
X112518258Y-70571399D01*
X112364313Y-70507633D01*
X112225766Y-70415059D01*
X112107941Y-70297234D01*
X112015367Y-70158687D01*
X111951601Y-70004742D01*
X111919093Y-69841315D01*
X111919093Y-69674685D01*
X111951601Y-69511258D01*
X112015367Y-69357313D01*
X112107941Y-69218766D01*
X112225766Y-69100941D01*
X112364313Y-69008367D01*
X112518258Y-68944601D01*
X112681685Y-68912093D01*
X112848315Y-68912093D01*
X113011742Y-68944601D01*
G37*
G36*
X102864364Y-68907407D02*
G01*
X103018309Y-68971173D01*
X103156856Y-69063747D01*
X103274681Y-69181572D01*
X103367255Y-69320119D01*
X103431021Y-69474064D01*
X103463529Y-69637491D01*
X103463529Y-69804121D01*
X103431021Y-69967548D01*
X103367255Y-70121493D01*
X103274681Y-70260040D01*
X103156856Y-70377865D01*
X103018309Y-70470439D01*
X102864364Y-70534205D01*
X102700937Y-70566713D01*
X102534307Y-70566713D01*
X102370880Y-70534205D01*
X102216935Y-70470439D01*
X102078388Y-70377865D01*
X101960563Y-70260040D01*
X101867989Y-70121493D01*
X101804223Y-69967548D01*
X101771715Y-69804121D01*
X101771715Y-69637491D01*
X101804223Y-69474064D01*
X101867989Y-69320119D01*
X101960563Y-69181572D01*
X102078388Y-69063747D01*
X102216935Y-68971173D01*
X102370880Y-68907407D01*
X102534307Y-68874899D01*
X102700937Y-68874899D01*
X102864364Y-68907407D01*
G37*
G36*
X84746742Y-66574601D02*
G01*
X84900687Y-66638367D01*
X85039234Y-66730941D01*
X85157059Y-66848766D01*
X85249633Y-66987313D01*
X85313399Y-67141258D01*
X85345907Y-67304685D01*
X85345907Y-67471315D01*
X85313399Y-67634742D01*
X85249633Y-67788687D01*
X85157059Y-67927234D01*
X85039234Y-68045059D01*
X84900687Y-68137633D01*
X84746742Y-68201399D01*
X84583315Y-68233907D01*
X84416685Y-68233907D01*
X84253258Y-68201399D01*
X84099313Y-68137633D01*
X83960766Y-68045059D01*
X83842941Y-67927234D01*
X83750367Y-67788687D01*
X83686601Y-67634742D01*
X83654093Y-67471315D01*
X83654093Y-67304685D01*
X83686601Y-67141258D01*
X83750367Y-66987313D01*
X83842941Y-66848766D01*
X83960766Y-66730941D01*
X84099313Y-66638367D01*
X84253258Y-66574601D01*
X84416685Y-66542093D01*
X84583315Y-66542093D01*
X84746742Y-66574601D01*
G37*
G36*
X111075000Y-68068000D02*
G01*
X109375000Y-68068000D01*
X109375000Y-66368000D01*
X111075000Y-66368000D01*
X111075000Y-68068000D01*
G37*
G36*
X113011742Y-66404601D02*
G01*
X113165687Y-66468367D01*
X113304234Y-66560941D01*
X113422059Y-66678766D01*
X113514633Y-66817313D01*
X113578399Y-66971258D01*
X113610907Y-67134685D01*
X113610907Y-67301315D01*
X113578399Y-67464742D01*
X113514633Y-67618687D01*
X113422059Y-67757234D01*
X113304234Y-67875059D01*
X113165687Y-67967633D01*
X113011742Y-68031399D01*
X112848315Y-68063907D01*
X112681685Y-68063907D01*
X112518258Y-68031399D01*
X112364313Y-67967633D01*
X112225766Y-67875059D01*
X112107941Y-67757234D01*
X112015367Y-67618687D01*
X111951601Y-67464742D01*
X111919093Y-67301315D01*
X111919093Y-67134685D01*
X111951601Y-66971258D01*
X112015367Y-66817313D01*
X112107941Y-66678766D01*
X112225766Y-66560941D01*
X112364313Y-66468367D01*
X112518258Y-66404601D01*
X112681685Y-66372093D01*
X112848315Y-66372093D01*
X113011742Y-66404601D01*
G37*
G36*
X102864364Y-66367407D02*
G01*
X103018309Y-66431173D01*
X103156856Y-66523747D01*
X103274681Y-66641572D01*
X103367255Y-66780119D01*
X103431021Y-66934064D01*
X103463529Y-67097491D01*
X103463529Y-67264121D01*
X103431021Y-67427548D01*
X103367255Y-67581493D01*
X103274681Y-67720040D01*
X103156856Y-67837865D01*
X103018309Y-67930439D01*
X102864364Y-67994205D01*
X102700937Y-68026713D01*
X102534307Y-68026713D01*
X102370880Y-67994205D01*
X102216935Y-67930439D01*
X102078388Y-67837865D01*
X101960563Y-67720040D01*
X101867989Y-67581493D01*
X101804223Y-67427548D01*
X101771715Y-67264121D01*
X101771715Y-67097491D01*
X101804223Y-66934064D01*
X101867989Y-66780119D01*
X101960563Y-66641572D01*
X102078388Y-66523747D01*
X102216935Y-66431173D01*
X102370880Y-66367407D01*
X102534307Y-66334899D01*
X102700937Y-66334899D01*
X102864364Y-66367407D01*
G37*
G36*
X84746742Y-64034601D02*
G01*
X84900687Y-64098367D01*
X85039234Y-64190941D01*
X85157059Y-64308766D01*
X85249633Y-64447313D01*
X85313399Y-64601258D01*
X85345907Y-64764685D01*
X85345907Y-64931315D01*
X85313399Y-65094742D01*
X85249633Y-65248687D01*
X85157059Y-65387234D01*
X85039234Y-65505059D01*
X84900687Y-65597633D01*
X84746742Y-65661399D01*
X84583315Y-65693907D01*
X84416685Y-65693907D01*
X84253258Y-65661399D01*
X84099313Y-65597633D01*
X83960766Y-65505059D01*
X83842941Y-65387234D01*
X83750367Y-65248687D01*
X83686601Y-65094742D01*
X83654093Y-64931315D01*
X83654093Y-64764685D01*
X83686601Y-64601258D01*
X83750367Y-64447313D01*
X83842941Y-64308766D01*
X83960766Y-64190941D01*
X84099313Y-64098367D01*
X84253258Y-64034601D01*
X84416685Y-64002093D01*
X84583315Y-64002093D01*
X84746742Y-64034601D01*
G37*
G36*
X102864364Y-63827407D02*
G01*
X103018309Y-63891173D01*
X103156856Y-63983747D01*
X103274681Y-64101572D01*
X103367255Y-64240119D01*
X103431021Y-64394064D01*
X103463529Y-64557491D01*
X103463529Y-64724121D01*
X103431021Y-64887548D01*
X103367255Y-65041493D01*
X103274681Y-65180040D01*
X103156856Y-65297865D01*
X103018309Y-65390439D01*
X102864364Y-65454205D01*
X102700937Y-65486713D01*
X102534307Y-65486713D01*
X102370880Y-65454205D01*
X102216935Y-65390439D01*
X102078388Y-65297865D01*
X101960563Y-65180040D01*
X101867989Y-65041493D01*
X101804223Y-64887548D01*
X101771715Y-64724121D01*
X101771715Y-64557491D01*
X101804223Y-64394064D01*
X101867989Y-64240119D01*
X101960563Y-64101572D01*
X102078388Y-63983747D01*
X102216935Y-63891173D01*
X102370880Y-63827407D01*
X102534307Y-63794899D01*
X102700937Y-63794899D01*
X102864364Y-63827407D01*
G37*
G36*
X62890000Y-64010000D02*
G01*
X61190000Y-64010000D01*
X61190000Y-62310000D01*
X62890000Y-62310000D01*
X62890000Y-64010000D01*
G37*
G36*
X59746742Y-62346601D02*
G01*
X59900687Y-62410367D01*
X60039234Y-62502941D01*
X60157059Y-62620766D01*
X60249633Y-62759313D01*
X60313399Y-62913258D01*
X60345907Y-63076685D01*
X60345907Y-63243315D01*
X60313399Y-63406742D01*
X60249633Y-63560687D01*
X60157059Y-63699234D01*
X60039234Y-63817059D01*
X59900687Y-63909633D01*
X59746742Y-63973399D01*
X59583315Y-64005907D01*
X59416685Y-64005907D01*
X59253258Y-63973399D01*
X59099313Y-63909633D01*
X58960766Y-63817059D01*
X58842941Y-63699234D01*
X58750367Y-63560687D01*
X58686601Y-63406742D01*
X58654093Y-63243315D01*
X58654093Y-63076685D01*
X58686601Y-62913258D01*
X58750367Y-62759313D01*
X58842941Y-62620766D01*
X58960766Y-62502941D01*
X59099313Y-62410367D01*
X59253258Y-62346601D01*
X59416685Y-62314093D01*
X59583315Y-62314093D01*
X59746742Y-62346601D01*
G37*
G36*
X84746742Y-61494601D02*
G01*
X84900687Y-61558367D01*
X85039234Y-61650941D01*
X85157059Y-61768766D01*
X85249633Y-61907313D01*
X85313399Y-62061258D01*
X85345907Y-62224685D01*
X85345907Y-62391315D01*
X85313399Y-62554742D01*
X85249633Y-62708687D01*
X85157059Y-62847234D01*
X85039234Y-62965059D01*
X84900687Y-63057633D01*
X84746742Y-63121399D01*
X84583315Y-63153907D01*
X84416685Y-63153907D01*
X84253258Y-63121399D01*
X84099313Y-63057633D01*
X83960766Y-62965059D01*
X83842941Y-62847234D01*
X83750367Y-62708687D01*
X83686601Y-62554742D01*
X83654093Y-62391315D01*
X83654093Y-62224685D01*
X83686601Y-62061258D01*
X83750367Y-61907313D01*
X83842941Y-61768766D01*
X83960766Y-61650941D01*
X84099313Y-61558367D01*
X84253258Y-61494601D01*
X84416685Y-61462093D01*
X84583315Y-61462093D01*
X84746742Y-61494601D01*
G37*
G36*
X102864364Y-61287407D02*
G01*
X103018309Y-61351173D01*
X103156856Y-61443747D01*
X103274681Y-61561572D01*
X103367255Y-61700119D01*
X103431021Y-61854064D01*
X103463529Y-62017491D01*
X103463529Y-62184121D01*
X103431021Y-62347548D01*
X103367255Y-62501493D01*
X103274681Y-62640040D01*
X103156856Y-62757865D01*
X103018309Y-62850439D01*
X102864364Y-62914205D01*
X102700937Y-62946713D01*
X102534307Y-62946713D01*
X102370880Y-62914205D01*
X102216935Y-62850439D01*
X102078388Y-62757865D01*
X101960563Y-62640040D01*
X101867989Y-62501493D01*
X101804223Y-62347548D01*
X101771715Y-62184121D01*
X101771715Y-62017491D01*
X101804223Y-61854064D01*
X101867989Y-61700119D01*
X101960563Y-61561572D01*
X102078388Y-61443747D01*
X102216935Y-61351173D01*
X102370880Y-61287407D01*
X102534307Y-61254899D01*
X102700937Y-61254899D01*
X102864364Y-61287407D01*
G37*
G36*
X59746742Y-59806601D02*
G01*
X59900687Y-59870367D01*
X60039234Y-59962941D01*
X60157059Y-60080766D01*
X60249633Y-60219313D01*
X60313399Y-60373258D01*
X60345907Y-60536685D01*
X60345907Y-60703315D01*
X60313399Y-60866742D01*
X60249633Y-61020687D01*
X60157059Y-61159234D01*
X60039234Y-61277059D01*
X59900687Y-61369633D01*
X59746742Y-61433399D01*
X59583315Y-61465907D01*
X59416685Y-61465907D01*
X59253258Y-61433399D01*
X59099313Y-61369633D01*
X58960766Y-61277059D01*
X58842941Y-61159234D01*
X58750367Y-61020687D01*
X58686601Y-60866742D01*
X58654093Y-60703315D01*
X58654093Y-60536685D01*
X58686601Y-60373258D01*
X58750367Y-60219313D01*
X58842941Y-60080766D01*
X58960766Y-59962941D01*
X59099313Y-59870367D01*
X59253258Y-59806601D01*
X59416685Y-59774093D01*
X59583315Y-59774093D01*
X59746742Y-59806601D01*
G37*
G36*
X62286742Y-59806601D02*
G01*
X62440687Y-59870367D01*
X62579234Y-59962941D01*
X62697059Y-60080766D01*
X62789633Y-60219313D01*
X62853399Y-60373258D01*
X62885907Y-60536685D01*
X62885907Y-60703315D01*
X62853399Y-60866742D01*
X62789633Y-61020687D01*
X62697059Y-61159234D01*
X62579234Y-61277059D01*
X62440687Y-61369633D01*
X62286742Y-61433399D01*
X62123315Y-61465907D01*
X61956685Y-61465907D01*
X61793258Y-61433399D01*
X61639313Y-61369633D01*
X61500766Y-61277059D01*
X61382941Y-61159234D01*
X61290367Y-61020687D01*
X61226601Y-60866742D01*
X61194093Y-60703315D01*
X61194093Y-60536685D01*
X61226601Y-60373258D01*
X61290367Y-60219313D01*
X61382941Y-60080766D01*
X61500766Y-59962941D01*
X61639313Y-59870367D01*
X61793258Y-59806601D01*
X61956685Y-59774093D01*
X62123315Y-59774093D01*
X62286742Y-59806601D01*
G37*
G36*
X84746742Y-58954601D02*
G01*
X84900687Y-59018367D01*
X85039234Y-59110941D01*
X85157059Y-59228766D01*
X85249633Y-59367313D01*
X85313399Y-59521258D01*
X85345907Y-59684685D01*
X85345907Y-59851315D01*
X85313399Y-60014742D01*
X85249633Y-60168687D01*
X85157059Y-60307234D01*
X85039234Y-60425059D01*
X84900687Y-60517633D01*
X84746742Y-60581399D01*
X84583315Y-60613907D01*
X84416685Y-60613907D01*
X84253258Y-60581399D01*
X84099313Y-60517633D01*
X83960766Y-60425059D01*
X83842941Y-60307234D01*
X83750367Y-60168687D01*
X83686601Y-60014742D01*
X83654093Y-59851315D01*
X83654093Y-59684685D01*
X83686601Y-59521258D01*
X83750367Y-59367313D01*
X83842941Y-59228766D01*
X83960766Y-59110941D01*
X84099313Y-59018367D01*
X84253258Y-58954601D01*
X84416685Y-58922093D01*
X84583315Y-58922093D01*
X84746742Y-58954601D01*
G37*
G36*
X102864364Y-58747407D02*
G01*
X103018309Y-58811173D01*
X103156856Y-58903747D01*
X103274681Y-59021572D01*
X103367255Y-59160119D01*
X103431021Y-59314064D01*
X103463529Y-59477491D01*
X103463529Y-59644121D01*
X103431021Y-59807548D01*
X103367255Y-59961493D01*
X103274681Y-60100040D01*
X103156856Y-60217865D01*
X103018309Y-60310439D01*
X102864364Y-60374205D01*
X102700937Y-60406713D01*
X102534307Y-60406713D01*
X102370880Y-60374205D01*
X102216935Y-60310439D01*
X102078388Y-60217865D01*
X101960563Y-60100040D01*
X101867989Y-59961493D01*
X101804223Y-59807548D01*
X101771715Y-59644121D01*
X101771715Y-59477491D01*
X101804223Y-59314064D01*
X101867989Y-59160119D01*
X101960563Y-59021572D01*
X102078388Y-58903747D01*
X102216935Y-58811173D01*
X102370880Y-58747407D01*
X102534307Y-58714899D01*
X102700937Y-58714899D01*
X102864364Y-58747407D01*
G37*
G36*
X114746742Y-58479601D02*
G01*
X114900687Y-58543367D01*
X115039234Y-58635941D01*
X115157059Y-58753766D01*
X115249633Y-58892313D01*
X115313399Y-59046258D01*
X115345907Y-59209685D01*
X115345907Y-59376315D01*
X115313399Y-59539742D01*
X115249633Y-59693687D01*
X115157059Y-59832234D01*
X115039234Y-59950059D01*
X114900687Y-60042633D01*
X114746742Y-60106399D01*
X114583315Y-60138907D01*
X114416685Y-60138907D01*
X114253258Y-60106399D01*
X114099313Y-60042633D01*
X113960766Y-59950059D01*
X113842941Y-59832234D01*
X113750367Y-59693687D01*
X113686601Y-59539742D01*
X113654093Y-59376315D01*
X113654093Y-59209685D01*
X113686601Y-59046258D01*
X113750367Y-58892313D01*
X113842941Y-58753766D01*
X113960766Y-58635941D01*
X114099313Y-58543367D01*
X114253258Y-58479601D01*
X114416685Y-58447093D01*
X114583315Y-58447093D01*
X114746742Y-58479601D01*
G37*
G36*
X59746742Y-57266601D02*
G01*
X59900687Y-57330367D01*
X60039234Y-57422941D01*
X60157059Y-57540766D01*
X60249633Y-57679313D01*
X60313399Y-57833258D01*
X60345907Y-57996685D01*
X60345907Y-58163315D01*
X60313399Y-58326742D01*
X60249633Y-58480687D01*
X60157059Y-58619234D01*
X60039234Y-58737059D01*
X59900687Y-58829633D01*
X59746742Y-58893399D01*
X59583315Y-58925907D01*
X59416685Y-58925907D01*
X59253258Y-58893399D01*
X59099313Y-58829633D01*
X58960766Y-58737059D01*
X58842941Y-58619234D01*
X58750367Y-58480687D01*
X58686601Y-58326742D01*
X58654093Y-58163315D01*
X58654093Y-57996685D01*
X58686601Y-57833258D01*
X58750367Y-57679313D01*
X58842941Y-57540766D01*
X58960766Y-57422941D01*
X59099313Y-57330367D01*
X59253258Y-57266601D01*
X59416685Y-57234093D01*
X59583315Y-57234093D01*
X59746742Y-57266601D01*
G37*
G36*
X62286742Y-57266601D02*
G01*
X62440687Y-57330367D01*
X62579234Y-57422941D01*
X62697059Y-57540766D01*
X62789633Y-57679313D01*
X62853399Y-57833258D01*
X62885907Y-57996685D01*
X62885907Y-58163315D01*
X62853399Y-58326742D01*
X62789633Y-58480687D01*
X62697059Y-58619234D01*
X62579234Y-58737059D01*
X62440687Y-58829633D01*
X62286742Y-58893399D01*
X62123315Y-58925907D01*
X61956685Y-58925907D01*
X61793258Y-58893399D01*
X61639313Y-58829633D01*
X61500766Y-58737059D01*
X61382941Y-58619234D01*
X61290367Y-58480687D01*
X61226601Y-58326742D01*
X61194093Y-58163315D01*
X61194093Y-57996685D01*
X61226601Y-57833258D01*
X61290367Y-57679313D01*
X61382941Y-57540766D01*
X61500766Y-57422941D01*
X61639313Y-57330367D01*
X61793258Y-57266601D01*
X61956685Y-57234093D01*
X62123315Y-57234093D01*
X62286742Y-57266601D01*
G37*
G36*
X84746742Y-56414601D02*
G01*
X84900687Y-56478367D01*
X85039234Y-56570941D01*
X85157059Y-56688766D01*
X85249633Y-56827313D01*
X85313399Y-56981258D01*
X85345907Y-57144685D01*
X85345907Y-57311315D01*
X85313399Y-57474742D01*
X85249633Y-57628687D01*
X85157059Y-57767234D01*
X85039234Y-57885059D01*
X84900687Y-57977633D01*
X84746742Y-58041399D01*
X84583315Y-58073907D01*
X84416685Y-58073907D01*
X84253258Y-58041399D01*
X84099313Y-57977633D01*
X83960766Y-57885059D01*
X83842941Y-57767234D01*
X83750367Y-57628687D01*
X83686601Y-57474742D01*
X83654093Y-57311315D01*
X83654093Y-57144685D01*
X83686601Y-56981258D01*
X83750367Y-56827313D01*
X83842941Y-56688766D01*
X83960766Y-56570941D01*
X84099313Y-56478367D01*
X84253258Y-56414601D01*
X84416685Y-56382093D01*
X84583315Y-56382093D01*
X84746742Y-56414601D01*
G37*
G36*
X102864364Y-56207407D02*
G01*
X103018309Y-56271173D01*
X103156856Y-56363747D01*
X103274681Y-56481572D01*
X103367255Y-56620119D01*
X103431021Y-56774064D01*
X103463529Y-56937491D01*
X103463529Y-57104121D01*
X103431021Y-57267548D01*
X103367255Y-57421493D01*
X103274681Y-57560040D01*
X103156856Y-57677865D01*
X103018309Y-57770439D01*
X102864364Y-57834205D01*
X102700937Y-57866713D01*
X102534307Y-57866713D01*
X102370880Y-57834205D01*
X102216935Y-57770439D01*
X102078388Y-57677865D01*
X101960563Y-57560040D01*
X101867989Y-57421493D01*
X101804223Y-57267548D01*
X101771715Y-57104121D01*
X101771715Y-56937491D01*
X101804223Y-56774064D01*
X101867989Y-56620119D01*
X101960563Y-56481572D01*
X102078388Y-56363747D01*
X102216935Y-56271173D01*
X102370880Y-56207407D01*
X102534307Y-56174899D01*
X102700937Y-56174899D01*
X102864364Y-56207407D01*
G37*
G36*
X115350000Y-57603000D02*
G01*
X113650000Y-57603000D01*
X113650000Y-55903000D01*
X115350000Y-55903000D01*
X115350000Y-57603000D01*
G37*
G36*
X59746742Y-54726601D02*
G01*
X59900687Y-54790367D01*
X60039234Y-54882941D01*
X60157059Y-55000766D01*
X60249633Y-55139313D01*
X60313399Y-55293258D01*
X60345907Y-55456685D01*
X60345907Y-55623315D01*
X60313399Y-55786742D01*
X60249633Y-55940687D01*
X60157059Y-56079234D01*
X60039234Y-56197059D01*
X59900687Y-56289633D01*
X59746742Y-56353399D01*
X59583315Y-56385907D01*
X59416685Y-56385907D01*
X59253258Y-56353399D01*
X59099313Y-56289633D01*
X58960766Y-56197059D01*
X58842941Y-56079234D01*
X58750367Y-55940687D01*
X58686601Y-55786742D01*
X58654093Y-55623315D01*
X58654093Y-55456685D01*
X58686601Y-55293258D01*
X58750367Y-55139313D01*
X58842941Y-55000766D01*
X58960766Y-54882941D01*
X59099313Y-54790367D01*
X59253258Y-54726601D01*
X59416685Y-54694093D01*
X59583315Y-54694093D01*
X59746742Y-54726601D01*
G37*
G36*
X62286742Y-54726601D02*
G01*
X62440687Y-54790367D01*
X62579234Y-54882941D01*
X62697059Y-55000766D01*
X62789633Y-55139313D01*
X62853399Y-55293258D01*
X62885907Y-55456685D01*
X62885907Y-55623315D01*
X62853399Y-55786742D01*
X62789633Y-55940687D01*
X62697059Y-56079234D01*
X62579234Y-56197059D01*
X62440687Y-56289633D01*
X62286742Y-56353399D01*
X62123315Y-56385907D01*
X61956685Y-56385907D01*
X61793258Y-56353399D01*
X61639313Y-56289633D01*
X61500766Y-56197059D01*
X61382941Y-56079234D01*
X61290367Y-55940687D01*
X61226601Y-55786742D01*
X61194093Y-55623315D01*
X61194093Y-55456685D01*
X61226601Y-55293258D01*
X61290367Y-55139313D01*
X61382941Y-55000766D01*
X61500766Y-54882941D01*
X61639313Y-54790367D01*
X61793258Y-54726601D01*
X61956685Y-54694093D01*
X62123315Y-54694093D01*
X62286742Y-54726601D01*
G37*
G36*
X84746742Y-53874601D02*
G01*
X84900687Y-53938367D01*
X85039234Y-54030941D01*
X85157059Y-54148766D01*
X85249633Y-54287313D01*
X85313399Y-54441258D01*
X85345907Y-54604685D01*
X85345907Y-54771315D01*
X85313399Y-54934742D01*
X85249633Y-55088687D01*
X85157059Y-55227234D01*
X85039234Y-55345059D01*
X84900687Y-55437633D01*
X84746742Y-55501399D01*
X84583315Y-55533907D01*
X84416685Y-55533907D01*
X84253258Y-55501399D01*
X84099313Y-55437633D01*
X83960766Y-55345059D01*
X83842941Y-55227234D01*
X83750367Y-55088687D01*
X83686601Y-54934742D01*
X83654093Y-54771315D01*
X83654093Y-54604685D01*
X83686601Y-54441258D01*
X83750367Y-54287313D01*
X83842941Y-54148766D01*
X83960766Y-54030941D01*
X84099313Y-53938367D01*
X84253258Y-53874601D01*
X84416685Y-53842093D01*
X84583315Y-53842093D01*
X84746742Y-53874601D01*
G37*
G36*
X102864364Y-53667407D02*
G01*
X103018309Y-53731173D01*
X103156856Y-53823747D01*
X103274681Y-53941572D01*
X103367255Y-54080119D01*
X103431021Y-54234064D01*
X103463529Y-54397491D01*
X103463529Y-54564121D01*
X103431021Y-54727548D01*
X103367255Y-54881493D01*
X103274681Y-55020040D01*
X103156856Y-55137865D01*
X103018309Y-55230439D01*
X102864364Y-55294205D01*
X102700937Y-55326713D01*
X102534307Y-55326713D01*
X102370880Y-55294205D01*
X102216935Y-55230439D01*
X102078388Y-55137865D01*
X101960563Y-55020040D01*
X101867989Y-54881493D01*
X101804223Y-54727548D01*
X101771715Y-54564121D01*
X101771715Y-54397491D01*
X101804223Y-54234064D01*
X101867989Y-54080119D01*
X101960563Y-53941572D01*
X102078388Y-53823747D01*
X102216935Y-53731173D01*
X102370880Y-53667407D01*
X102534307Y-53634899D01*
X102700937Y-53634899D01*
X102864364Y-53667407D01*
G37*
G36*
X59746742Y-52186601D02*
G01*
X59900687Y-52250367D01*
X60039234Y-52342941D01*
X60157059Y-52460766D01*
X60249633Y-52599313D01*
X60313399Y-52753258D01*
X60345907Y-52916685D01*
X60345907Y-53083315D01*
X60313399Y-53246742D01*
X60249633Y-53400687D01*
X60157059Y-53539234D01*
X60039234Y-53657059D01*
X59900687Y-53749633D01*
X59746742Y-53813399D01*
X59583315Y-53845907D01*
X59416685Y-53845907D01*
X59253258Y-53813399D01*
X59099313Y-53749633D01*
X58960766Y-53657059D01*
X58842941Y-53539234D01*
X58750367Y-53400687D01*
X58686601Y-53246742D01*
X58654093Y-53083315D01*
X58654093Y-52916685D01*
X58686601Y-52753258D01*
X58750367Y-52599313D01*
X58842941Y-52460766D01*
X58960766Y-52342941D01*
X59099313Y-52250367D01*
X59253258Y-52186601D01*
X59416685Y-52154093D01*
X59583315Y-52154093D01*
X59746742Y-52186601D01*
G37*
G36*
X62286742Y-52186601D02*
G01*
X62440687Y-52250367D01*
X62579234Y-52342941D01*
X62697059Y-52460766D01*
X62789633Y-52599313D01*
X62853399Y-52753258D01*
X62885907Y-52916685D01*
X62885907Y-53083315D01*
X62853399Y-53246742D01*
X62789633Y-53400687D01*
X62697059Y-53539234D01*
X62579234Y-53657059D01*
X62440687Y-53749633D01*
X62286742Y-53813399D01*
X62123315Y-53845907D01*
X61956685Y-53845907D01*
X61793258Y-53813399D01*
X61639313Y-53749633D01*
X61500766Y-53657059D01*
X61382941Y-53539234D01*
X61290367Y-53400687D01*
X61226601Y-53246742D01*
X61194093Y-53083315D01*
X61194093Y-52916685D01*
X61226601Y-52753258D01*
X61290367Y-52599313D01*
X61382941Y-52460766D01*
X61500766Y-52342941D01*
X61639313Y-52250367D01*
X61793258Y-52186601D01*
X61956685Y-52154093D01*
X62123315Y-52154093D01*
X62286742Y-52186601D01*
G37*
G36*
X84746742Y-51334601D02*
G01*
X84900687Y-51398367D01*
X85039234Y-51490941D01*
X85157059Y-51608766D01*
X85249633Y-51747313D01*
X85313399Y-51901258D01*
X85345907Y-52064685D01*
X85345907Y-52231315D01*
X85313399Y-52394742D01*
X85249633Y-52548687D01*
X85157059Y-52687234D01*
X85039234Y-52805059D01*
X84900687Y-52897633D01*
X84746742Y-52961399D01*
X84583315Y-52993907D01*
X84416685Y-52993907D01*
X84253258Y-52961399D01*
X84099313Y-52897633D01*
X83960766Y-52805059D01*
X83842941Y-52687234D01*
X83750367Y-52548687D01*
X83686601Y-52394742D01*
X83654093Y-52231315D01*
X83654093Y-52064685D01*
X83686601Y-51901258D01*
X83750367Y-51747313D01*
X83842941Y-51608766D01*
X83960766Y-51490941D01*
X84099313Y-51398367D01*
X84253258Y-51334601D01*
X84416685Y-51302093D01*
X84583315Y-51302093D01*
X84746742Y-51334601D01*
G37*
G36*
X102864364Y-51127407D02*
G01*
X103018309Y-51191173D01*
X103156856Y-51283747D01*
X103274681Y-51401572D01*
X103367255Y-51540119D01*
X103431021Y-51694064D01*
X103463529Y-51857491D01*
X103463529Y-52024121D01*
X103431021Y-52187548D01*
X103367255Y-52341493D01*
X103274681Y-52480040D01*
X103156856Y-52597865D01*
X103018309Y-52690439D01*
X102864364Y-52754205D01*
X102700937Y-52786713D01*
X102534307Y-52786713D01*
X102370880Y-52754205D01*
X102216935Y-52690439D01*
X102078388Y-52597865D01*
X101960563Y-52480040D01*
X101867989Y-52341493D01*
X101804223Y-52187548D01*
X101771715Y-52024121D01*
X101771715Y-51857491D01*
X101804223Y-51694064D01*
X101867989Y-51540119D01*
X101960563Y-51401572D01*
X102078388Y-51283747D01*
X102216935Y-51191173D01*
X102370880Y-51127407D01*
X102534307Y-51094899D01*
X102700937Y-51094899D01*
X102864364Y-51127407D01*
G37*
G36*
X84746742Y-48794601D02*
G01*
X84900687Y-48858367D01*
X85039234Y-48950941D01*
X85157059Y-49068766D01*
X85249633Y-49207313D01*
X85313399Y-49361258D01*
X85345907Y-49524685D01*
X85345907Y-49691315D01*
X85313399Y-49854742D01*
X85249633Y-50008687D01*
X85157059Y-50147234D01*
X85039234Y-50265059D01*
X84900687Y-50357633D01*
X84746742Y-50421399D01*
X84583315Y-50453907D01*
X84416685Y-50453907D01*
X84253258Y-50421399D01*
X84099313Y-50357633D01*
X83960766Y-50265059D01*
X83842941Y-50147234D01*
X83750367Y-50008687D01*
X83686601Y-49854742D01*
X83654093Y-49691315D01*
X83654093Y-49524685D01*
X83686601Y-49361258D01*
X83750367Y-49207313D01*
X83842941Y-49068766D01*
X83960766Y-48950941D01*
X84099313Y-48858367D01*
X84253258Y-48794601D01*
X84416685Y-48762093D01*
X84583315Y-48762093D01*
X84746742Y-48794601D01*
G37*
G36*
X102864364Y-48587407D02*
G01*
X103018309Y-48651173D01*
X103156856Y-48743747D01*
X103274681Y-48861572D01*
X103367255Y-49000119D01*
X103431021Y-49154064D01*
X103463529Y-49317491D01*
X103463529Y-49484121D01*
X103431021Y-49647548D01*
X103367255Y-49801493D01*
X103274681Y-49940040D01*
X103156856Y-50057865D01*
X103018309Y-50150439D01*
X102864364Y-50214205D01*
X102700937Y-50246713D01*
X102534307Y-50246713D01*
X102370880Y-50214205D01*
X102216935Y-50150439D01*
X102078388Y-50057865D01*
X101960563Y-49940040D01*
X101867989Y-49801493D01*
X101804223Y-49647548D01*
X101771715Y-49484121D01*
X101771715Y-49317491D01*
X101804223Y-49154064D01*
X101867989Y-49000119D01*
X101960563Y-48861572D01*
X102078388Y-48743747D01*
X102216935Y-48651173D01*
X102370880Y-48587407D01*
X102534307Y-48554899D01*
X102700937Y-48554899D01*
X102864364Y-48587407D01*
G37*
G36*
X76829116Y-48708818D02*
G01*
X76880379Y-48714766D01*
X76897892Y-48722499D01*
X76920671Y-48727030D01*
X76945057Y-48743324D01*
X76965788Y-48752478D01*
X76979946Y-48766636D01*
X77001777Y-48781223D01*
X77016363Y-48803053D01*
X77030521Y-48817211D01*
X77039673Y-48837939D01*
X77055970Y-48862329D01*
X77060501Y-48885109D01*
X77068233Y-48902620D01*
X77074178Y-48953872D01*
X77075000Y-48958000D01*
X77075000Y-49908000D01*
X77074178Y-49912128D01*
X77068233Y-49963379D01*
X77060501Y-49980888D01*
X77055970Y-50003671D01*
X77039672Y-50028062D01*
X77030521Y-50048788D01*
X77016365Y-50062943D01*
X77001777Y-50084777D01*
X76979943Y-50099365D01*
X76965788Y-50113521D01*
X76945062Y-50122672D01*
X76920671Y-50138970D01*
X76897888Y-50143501D01*
X76880379Y-50151233D01*
X76829129Y-50157178D01*
X76825000Y-50158000D01*
X76150000Y-50158000D01*
X76145873Y-50157179D01*
X76094620Y-50151233D01*
X76077109Y-50143501D01*
X76054329Y-50138970D01*
X76029939Y-50122673D01*
X76009211Y-50113521D01*
X75995053Y-50099363D01*
X75973223Y-50084777D01*
X75958636Y-50062946D01*
X75944478Y-50048788D01*
X75935324Y-50028057D01*
X75919030Y-50003671D01*
X75914499Y-49980892D01*
X75906766Y-49963379D01*
X75900818Y-49912117D01*
X75900000Y-49908000D01*
X75900000Y-48958000D01*
X75900818Y-48953885D01*
X75906766Y-48902620D01*
X75914499Y-48885105D01*
X75919030Y-48862329D01*
X75935323Y-48837944D01*
X75944478Y-48817211D01*
X75958638Y-48803050D01*
X75973223Y-48781223D01*
X75995050Y-48766638D01*
X76009211Y-48752478D01*
X76029944Y-48743323D01*
X76054329Y-48727030D01*
X76077105Y-48722499D01*
X76094620Y-48714766D01*
X76145884Y-48708818D01*
X76150000Y-48708000D01*
X76825000Y-48708000D01*
X76829116Y-48708818D01*
G37*
G36*
X78904116Y-48708818D02*
G01*
X78955379Y-48714766D01*
X78972892Y-48722499D01*
X78995671Y-48727030D01*
X79020057Y-48743324D01*
X79040788Y-48752478D01*
X79054946Y-48766636D01*
X79076777Y-48781223D01*
X79091363Y-48803053D01*
X79105521Y-48817211D01*
X79114673Y-48837939D01*
X79130970Y-48862329D01*
X79135501Y-48885109D01*
X79143233Y-48902620D01*
X79149178Y-48953872D01*
X79150000Y-48958000D01*
X79150000Y-49908000D01*
X79149178Y-49912128D01*
X79143233Y-49963379D01*
X79135501Y-49980888D01*
X79130970Y-50003671D01*
X79114672Y-50028062D01*
X79105521Y-50048788D01*
X79091365Y-50062943D01*
X79076777Y-50084777D01*
X79054943Y-50099365D01*
X79040788Y-50113521D01*
X79020062Y-50122672D01*
X78995671Y-50138970D01*
X78972888Y-50143501D01*
X78955379Y-50151233D01*
X78904129Y-50157178D01*
X78900000Y-50158000D01*
X78225000Y-50158000D01*
X78220873Y-50157179D01*
X78169620Y-50151233D01*
X78152109Y-50143501D01*
X78129329Y-50138970D01*
X78104939Y-50122673D01*
X78084211Y-50113521D01*
X78070053Y-50099363D01*
X78048223Y-50084777D01*
X78033636Y-50062946D01*
X78019478Y-50048788D01*
X78010324Y-50028057D01*
X77994030Y-50003671D01*
X77989499Y-49980892D01*
X77981766Y-49963379D01*
X77975818Y-49912117D01*
X77975000Y-49908000D01*
X77975000Y-48958000D01*
X77975818Y-48953885D01*
X77981766Y-48902620D01*
X77989499Y-48885105D01*
X77994030Y-48862329D01*
X78010323Y-48837944D01*
X78019478Y-48817211D01*
X78033638Y-48803050D01*
X78048223Y-48781223D01*
X78070050Y-48766638D01*
X78084211Y-48752478D01*
X78104944Y-48743323D01*
X78129329Y-48727030D01*
X78152105Y-48722499D01*
X78169620Y-48714766D01*
X78220884Y-48708818D01*
X78225000Y-48708000D01*
X78900000Y-48708000D01*
X78904116Y-48708818D01*
G37*
G36*
X113954116Y-48178818D02*
G01*
X114005379Y-48184766D01*
X114022892Y-48192499D01*
X114045671Y-48197030D01*
X114070057Y-48213324D01*
X114090788Y-48222478D01*
X114104946Y-48236636D01*
X114126777Y-48251223D01*
X114141363Y-48273053D01*
X114155521Y-48287211D01*
X114164673Y-48307939D01*
X114180970Y-48332329D01*
X114185501Y-48355109D01*
X114193233Y-48372620D01*
X114199178Y-48423872D01*
X114200000Y-48428000D01*
X114200000Y-49128000D01*
X114199178Y-49132128D01*
X114193233Y-49183379D01*
X114185501Y-49200888D01*
X114180970Y-49223671D01*
X114164672Y-49248062D01*
X114155521Y-49268788D01*
X114141365Y-49282943D01*
X114126777Y-49304777D01*
X114104943Y-49319365D01*
X114090788Y-49333521D01*
X114070062Y-49342672D01*
X114045671Y-49358970D01*
X114022888Y-49363501D01*
X114005379Y-49371233D01*
X113954129Y-49377178D01*
X113950000Y-49378000D01*
X113050000Y-49378000D01*
X113045873Y-49377179D01*
X112994620Y-49371233D01*
X112977109Y-49363501D01*
X112954329Y-49358970D01*
X112929939Y-49342673D01*
X112909211Y-49333521D01*
X112895053Y-49319363D01*
X112873223Y-49304777D01*
X112858636Y-49282946D01*
X112844478Y-49268788D01*
X112835324Y-49248057D01*
X112819030Y-49223671D01*
X112814499Y-49200892D01*
X112806766Y-49183379D01*
X112800818Y-49132117D01*
X112800000Y-49128000D01*
X112800000Y-48428000D01*
X112800818Y-48423885D01*
X112806766Y-48372620D01*
X112814499Y-48355105D01*
X112819030Y-48332329D01*
X112835323Y-48307944D01*
X112844478Y-48287211D01*
X112858638Y-48273050D01*
X112873223Y-48251223D01*
X112895050Y-48236638D01*
X112909211Y-48222478D01*
X112929944Y-48213323D01*
X112954329Y-48197030D01*
X112977105Y-48192499D01*
X112994620Y-48184766D01*
X113045884Y-48178818D01*
X113050000Y-48178000D01*
X113950000Y-48178000D01*
X113954116Y-48178818D01*
G37*
G36*
X68804116Y-47883818D02*
G01*
X68855379Y-47889766D01*
X68872892Y-47897499D01*
X68895671Y-47902030D01*
X68920057Y-47918324D01*
X68940788Y-47927478D01*
X68954946Y-47941636D01*
X68976777Y-47956223D01*
X68991363Y-47978053D01*
X69005521Y-47992211D01*
X69014673Y-48012939D01*
X69030970Y-48037329D01*
X69035501Y-48060109D01*
X69043233Y-48077620D01*
X69049178Y-48128872D01*
X69050000Y-48133000D01*
X69050000Y-48808000D01*
X69049178Y-48812128D01*
X69043233Y-48863379D01*
X69035501Y-48880888D01*
X69030970Y-48903671D01*
X69014672Y-48928062D01*
X69005521Y-48948788D01*
X68991365Y-48962943D01*
X68976777Y-48984777D01*
X68954943Y-48999365D01*
X68940788Y-49013521D01*
X68920062Y-49022672D01*
X68895671Y-49038970D01*
X68872888Y-49043501D01*
X68855379Y-49051233D01*
X68804129Y-49057178D01*
X68800000Y-49058000D01*
X67850000Y-49058000D01*
X67845873Y-49057179D01*
X67794620Y-49051233D01*
X67777109Y-49043501D01*
X67754329Y-49038970D01*
X67729939Y-49022673D01*
X67709211Y-49013521D01*
X67695053Y-48999363D01*
X67673223Y-48984777D01*
X67658636Y-48962946D01*
X67644478Y-48948788D01*
X67635324Y-48928057D01*
X67619030Y-48903671D01*
X67614499Y-48880892D01*
X67606766Y-48863379D01*
X67600818Y-48812117D01*
X67600000Y-48808000D01*
X67600000Y-48133000D01*
X67600818Y-48128885D01*
X67606766Y-48077620D01*
X67614499Y-48060105D01*
X67619030Y-48037329D01*
X67635323Y-48012944D01*
X67644478Y-47992211D01*
X67658638Y-47978050D01*
X67673223Y-47956223D01*
X67695050Y-47941638D01*
X67709211Y-47927478D01*
X67729944Y-47918323D01*
X67754329Y-47902030D01*
X67777105Y-47897499D01*
X67794620Y-47889766D01*
X67845884Y-47883818D01*
X67850000Y-47883000D01*
X68800000Y-47883000D01*
X68804116Y-47883818D01*
G37*
G36*
X84746742Y-46254601D02*
G01*
X84900687Y-46318367D01*
X85039234Y-46410941D01*
X85157059Y-46528766D01*
X85249633Y-46667313D01*
X85313399Y-46821258D01*
X85345907Y-46984685D01*
X85345907Y-47151315D01*
X85313399Y-47314742D01*
X85249633Y-47468687D01*
X85157059Y-47607234D01*
X85039234Y-47725059D01*
X84900687Y-47817633D01*
X84746742Y-47881399D01*
X84583315Y-47913907D01*
X84416685Y-47913907D01*
X84253258Y-47881399D01*
X84099313Y-47817633D01*
X83960766Y-47725059D01*
X83842941Y-47607234D01*
X83750367Y-47468687D01*
X83686601Y-47314742D01*
X83654093Y-47151315D01*
X83654093Y-46984685D01*
X83686601Y-46821258D01*
X83750367Y-46667313D01*
X83842941Y-46528766D01*
X83960766Y-46410941D01*
X84099313Y-46318367D01*
X84253258Y-46254601D01*
X84416685Y-46222093D01*
X84583315Y-46222093D01*
X84746742Y-46254601D01*
G37*
G36*
X78979116Y-46633818D02*
G01*
X79030379Y-46639766D01*
X79047892Y-46647499D01*
X79070671Y-46652030D01*
X79095057Y-46668324D01*
X79115788Y-46677478D01*
X79129946Y-46691636D01*
X79151777Y-46706223D01*
X79166363Y-46728053D01*
X79180521Y-46742211D01*
X79189673Y-46762939D01*
X79205970Y-46787329D01*
X79210501Y-46810109D01*
X79218233Y-46827620D01*
X79224178Y-46878872D01*
X79225000Y-46883000D01*
X79225000Y-47583000D01*
X79224178Y-47587128D01*
X79218233Y-47638379D01*
X79210501Y-47655888D01*
X79205970Y-47678671D01*
X79189672Y-47703062D01*
X79180521Y-47723788D01*
X79166365Y-47737943D01*
X79151777Y-47759777D01*
X79129943Y-47774365D01*
X79115788Y-47788521D01*
X79095062Y-47797672D01*
X79070671Y-47813970D01*
X79047888Y-47818501D01*
X79030379Y-47826233D01*
X78979129Y-47832178D01*
X78975000Y-47833000D01*
X78075000Y-47833000D01*
X78070873Y-47832179D01*
X78019620Y-47826233D01*
X78002109Y-47818501D01*
X77979329Y-47813970D01*
X77954939Y-47797673D01*
X77934211Y-47788521D01*
X77920053Y-47774363D01*
X77898223Y-47759777D01*
X77883636Y-47737946D01*
X77869478Y-47723788D01*
X77860324Y-47703057D01*
X77844030Y-47678671D01*
X77839499Y-47655892D01*
X77831766Y-47638379D01*
X77825818Y-47587117D01*
X77825000Y-47583000D01*
X77825000Y-46883000D01*
X77825818Y-46878885D01*
X77831766Y-46827620D01*
X77839499Y-46810105D01*
X77844030Y-46787329D01*
X77860323Y-46762944D01*
X77869478Y-46742211D01*
X77883638Y-46728050D01*
X77898223Y-46706223D01*
X77920050Y-46691638D01*
X77934211Y-46677478D01*
X77954944Y-46668323D01*
X77979329Y-46652030D01*
X78002105Y-46647499D01*
X78019620Y-46639766D01*
X78070884Y-46633818D01*
X78075000Y-46633000D01*
X78975000Y-46633000D01*
X78979116Y-46633818D01*
G37*
G36*
X102864364Y-46047407D02*
G01*
X103018309Y-46111173D01*
X103156856Y-46203747D01*
X103274681Y-46321572D01*
X103367255Y-46460119D01*
X103431021Y-46614064D01*
X103463529Y-46777491D01*
X103463529Y-46944121D01*
X103431021Y-47107548D01*
X103367255Y-47261493D01*
X103274681Y-47400040D01*
X103156856Y-47517865D01*
X103018309Y-47610439D01*
X102864364Y-47674205D01*
X102700937Y-47706713D01*
X102534307Y-47706713D01*
X102370880Y-47674205D01*
X102216935Y-47610439D01*
X102078388Y-47517865D01*
X101960563Y-47400040D01*
X101867989Y-47261493D01*
X101804223Y-47107548D01*
X101771715Y-46944121D01*
X101771715Y-46777491D01*
X101804223Y-46614064D01*
X101867989Y-46460119D01*
X101960563Y-46321572D01*
X102078388Y-46203747D01*
X102216935Y-46111173D01*
X102370880Y-46047407D01*
X102534307Y-46014899D01*
X102700937Y-46014899D01*
X102864364Y-46047407D01*
G37*
G36*
X113954116Y-46178818D02*
G01*
X114005379Y-46184766D01*
X114022892Y-46192499D01*
X114045671Y-46197030D01*
X114070057Y-46213324D01*
X114090788Y-46222478D01*
X114104946Y-46236636D01*
X114126777Y-46251223D01*
X114141363Y-46273053D01*
X114155521Y-46287211D01*
X114164673Y-46307939D01*
X114180970Y-46332329D01*
X114185501Y-46355109D01*
X114193233Y-46372620D01*
X114199178Y-46423872D01*
X114200000Y-46428000D01*
X114200000Y-47128000D01*
X114199178Y-47132128D01*
X114193233Y-47183379D01*
X114185501Y-47200888D01*
X114180970Y-47223671D01*
X114164672Y-47248062D01*
X114155521Y-47268788D01*
X114141365Y-47282943D01*
X114126777Y-47304777D01*
X114104943Y-47319365D01*
X114090788Y-47333521D01*
X114070062Y-47342672D01*
X114045671Y-47358970D01*
X114022888Y-47363501D01*
X114005379Y-47371233D01*
X113954129Y-47377178D01*
X113950000Y-47378000D01*
X113050000Y-47378000D01*
X113045873Y-47377179D01*
X112994620Y-47371233D01*
X112977109Y-47363501D01*
X112954329Y-47358970D01*
X112929939Y-47342673D01*
X112909211Y-47333521D01*
X112895053Y-47319363D01*
X112873223Y-47304777D01*
X112858636Y-47282946D01*
X112844478Y-47268788D01*
X112835324Y-47248057D01*
X112819030Y-47223671D01*
X112814499Y-47200892D01*
X112806766Y-47183379D01*
X112800818Y-47132117D01*
X112800000Y-47128000D01*
X112800000Y-46428000D01*
X112800818Y-46423885D01*
X112806766Y-46372620D01*
X112814499Y-46355105D01*
X112819030Y-46332329D01*
X112835323Y-46307944D01*
X112844478Y-46287211D01*
X112858638Y-46273050D01*
X112873223Y-46251223D01*
X112895050Y-46236638D01*
X112909211Y-46222478D01*
X112929944Y-46213323D01*
X112954329Y-46197030D01*
X112977105Y-46192499D01*
X112994620Y-46184766D01*
X113045884Y-46178818D01*
X113050000Y-46178000D01*
X113950000Y-46178000D01*
X113954116Y-46178818D01*
G37*
G36*
X71932403Y-46589418D02*
G01*
X71981066Y-46621934D01*
X72013582Y-46670597D01*
X72025000Y-46728000D01*
X72025000Y-47028000D01*
X72013582Y-47085403D01*
X71981066Y-47134066D01*
X71932403Y-47166582D01*
X71875000Y-47178000D01*
X70225000Y-47178000D01*
X70167597Y-47166582D01*
X70118934Y-47134066D01*
X70086418Y-47085403D01*
X70075000Y-47028000D01*
X70075000Y-46728000D01*
X70086418Y-46670597D01*
X70118934Y-46621934D01*
X70167597Y-46589418D01*
X70225000Y-46578000D01*
X71875000Y-46578000D01*
X71932403Y-46589418D01*
G37*
G36*
X76882403Y-46589418D02*
G01*
X76931066Y-46621934D01*
X76963582Y-46670597D01*
X76975000Y-46728000D01*
X76975000Y-47028000D01*
X76963582Y-47085403D01*
X76931066Y-47134066D01*
X76882403Y-47166582D01*
X76825000Y-47178000D01*
X75175000Y-47178000D01*
X75117597Y-47166582D01*
X75068934Y-47134066D01*
X75036418Y-47085403D01*
X75025000Y-47028000D01*
X75025000Y-46728000D01*
X75036418Y-46670597D01*
X75068934Y-46621934D01*
X75117597Y-46589418D01*
X75175000Y-46578000D01*
X76825000Y-46578000D01*
X76882403Y-46589418D01*
G37*
G36*
X68804116Y-45808818D02*
G01*
X68855379Y-45814766D01*
X68872892Y-45822499D01*
X68895671Y-45827030D01*
X68920057Y-45843324D01*
X68940788Y-45852478D01*
X68954946Y-45866636D01*
X68976777Y-45881223D01*
X68991363Y-45903053D01*
X69005521Y-45917211D01*
X69014673Y-45937939D01*
X69030970Y-45962329D01*
X69035501Y-45985109D01*
X69043233Y-46002620D01*
X69049178Y-46053872D01*
X69050000Y-46058000D01*
X69050000Y-46733000D01*
X69049178Y-46737128D01*
X69043233Y-46788379D01*
X69035501Y-46805888D01*
X69030970Y-46828671D01*
X69014672Y-46853062D01*
X69005521Y-46873788D01*
X68991365Y-46887943D01*
X68976777Y-46909777D01*
X68954943Y-46924365D01*
X68940788Y-46938521D01*
X68920062Y-46947672D01*
X68895671Y-46963970D01*
X68872888Y-46968501D01*
X68855379Y-46976233D01*
X68804129Y-46982178D01*
X68800000Y-46983000D01*
X67850000Y-46983000D01*
X67845873Y-46982179D01*
X67794620Y-46976233D01*
X67777109Y-46968501D01*
X67754329Y-46963970D01*
X67729939Y-46947673D01*
X67709211Y-46938521D01*
X67695053Y-46924363D01*
X67673223Y-46909777D01*
X67658636Y-46887946D01*
X67644478Y-46873788D01*
X67635324Y-46853057D01*
X67619030Y-46828671D01*
X67614499Y-46805892D01*
X67606766Y-46788379D01*
X67600818Y-46737117D01*
X67600000Y-46733000D01*
X67600000Y-46058000D01*
X67600818Y-46053885D01*
X67606766Y-46002620D01*
X67614499Y-45985105D01*
X67619030Y-45962329D01*
X67635323Y-45937944D01*
X67644478Y-45917211D01*
X67658638Y-45903050D01*
X67673223Y-45881223D01*
X67695050Y-45866638D01*
X67709211Y-45852478D01*
X67729944Y-45843323D01*
X67754329Y-45827030D01*
X67777105Y-45822499D01*
X67794620Y-45814766D01*
X67845884Y-45808818D01*
X67850000Y-45808000D01*
X68800000Y-45808000D01*
X68804116Y-45808818D01*
G37*
G36*
X71932403Y-45319418D02*
G01*
X71981066Y-45351934D01*
X72013582Y-45400597D01*
X72025000Y-45458000D01*
X72025000Y-45758000D01*
X72013582Y-45815403D01*
X71981066Y-45864066D01*
X71932403Y-45896582D01*
X71875000Y-45908000D01*
X70225000Y-45908000D01*
X70167597Y-45896582D01*
X70118934Y-45864066D01*
X70086418Y-45815403D01*
X70075000Y-45758000D01*
X70075000Y-45458000D01*
X70086418Y-45400597D01*
X70118934Y-45351934D01*
X70167597Y-45319418D01*
X70225000Y-45308000D01*
X71875000Y-45308000D01*
X71932403Y-45319418D01*
G37*
G36*
X76882403Y-45319418D02*
G01*
X76931066Y-45351934D01*
X76963582Y-45400597D01*
X76975000Y-45458000D01*
X76975000Y-45758000D01*
X76963582Y-45815403D01*
X76931066Y-45864066D01*
X76882403Y-45896582D01*
X76825000Y-45908000D01*
X75175000Y-45908000D01*
X75117597Y-45896582D01*
X75068934Y-45864066D01*
X75036418Y-45815403D01*
X75025000Y-45758000D01*
X75025000Y-45458000D01*
X75036418Y-45400597D01*
X75068934Y-45351934D01*
X75117597Y-45319418D01*
X75175000Y-45308000D01*
X76825000Y-45308000D01*
X76882403Y-45319418D01*
G37*
G36*
X78979116Y-44633818D02*
G01*
X79030379Y-44639766D01*
X79047892Y-44647499D01*
X79070671Y-44652030D01*
X79095057Y-44668324D01*
X79115788Y-44677478D01*
X79129946Y-44691636D01*
X79151777Y-44706223D01*
X79166363Y-44728053D01*
X79180521Y-44742211D01*
X79189673Y-44762939D01*
X79205970Y-44787329D01*
X79210501Y-44810109D01*
X79218233Y-44827620D01*
X79224178Y-44878872D01*
X79225000Y-44883000D01*
X79225000Y-45583000D01*
X79224178Y-45587128D01*
X79218233Y-45638379D01*
X79210501Y-45655888D01*
X79205970Y-45678671D01*
X79189672Y-45703062D01*
X79180521Y-45723788D01*
X79166365Y-45737943D01*
X79151777Y-45759777D01*
X79129943Y-45774365D01*
X79115788Y-45788521D01*
X79095062Y-45797672D01*
X79070671Y-45813970D01*
X79047888Y-45818501D01*
X79030379Y-45826233D01*
X78979129Y-45832178D01*
X78975000Y-45833000D01*
X78075000Y-45833000D01*
X78070873Y-45832179D01*
X78019620Y-45826233D01*
X78002109Y-45818501D01*
X77979329Y-45813970D01*
X77954939Y-45797673D01*
X77934211Y-45788521D01*
X77920053Y-45774363D01*
X77898223Y-45759777D01*
X77883636Y-45737946D01*
X77869478Y-45723788D01*
X77860324Y-45703057D01*
X77844030Y-45678671D01*
X77839499Y-45655892D01*
X77831766Y-45638379D01*
X77825818Y-45587117D01*
X77825000Y-45583000D01*
X77825000Y-44883000D01*
X77825818Y-44878885D01*
X77831766Y-44827620D01*
X77839499Y-44810105D01*
X77844030Y-44787329D01*
X77860323Y-44762944D01*
X77869478Y-44742211D01*
X77883638Y-44728050D01*
X77898223Y-44706223D01*
X77920050Y-44691638D01*
X77934211Y-44677478D01*
X77954944Y-44668323D01*
X77979329Y-44652030D01*
X78002105Y-44647499D01*
X78019620Y-44639766D01*
X78070884Y-44633818D01*
X78075000Y-44633000D01*
X78975000Y-44633000D01*
X78979116Y-44633818D01*
G37*
G36*
X84746742Y-43714601D02*
G01*
X84900687Y-43778367D01*
X85039234Y-43870941D01*
X85157059Y-43988766D01*
X85249633Y-44127313D01*
X85313399Y-44281258D01*
X85345907Y-44444685D01*
X85345907Y-44611315D01*
X85313399Y-44774742D01*
X85249633Y-44928687D01*
X85157059Y-45067234D01*
X85039234Y-45185059D01*
X84900687Y-45277633D01*
X84746742Y-45341399D01*
X84583315Y-45373907D01*
X84416685Y-45373907D01*
X84253258Y-45341399D01*
X84099313Y-45277633D01*
X83960766Y-45185059D01*
X83842941Y-45067234D01*
X83750367Y-44928687D01*
X83686601Y-44774742D01*
X83654093Y-44611315D01*
X83654093Y-44444685D01*
X83686601Y-44281258D01*
X83750367Y-44127313D01*
X83842941Y-43988766D01*
X83960766Y-43870941D01*
X84099313Y-43778367D01*
X84253258Y-43714601D01*
X84416685Y-43682093D01*
X84583315Y-43682093D01*
X84746742Y-43714601D01*
G37*
G36*
X102864364Y-43507407D02*
G01*
X103018309Y-43571173D01*
X103156856Y-43663747D01*
X103274681Y-43781572D01*
X103367255Y-43920119D01*
X103431021Y-44074064D01*
X103463529Y-44237491D01*
X103463529Y-44404121D01*
X103431021Y-44567548D01*
X103367255Y-44721493D01*
X103274681Y-44860040D01*
X103156856Y-44977865D01*
X103018309Y-45070439D01*
X102864364Y-45134205D01*
X102700937Y-45166713D01*
X102534307Y-45166713D01*
X102370880Y-45134205D01*
X102216935Y-45070439D01*
X102078388Y-44977865D01*
X101960563Y-44860040D01*
X101867989Y-44721493D01*
X101804223Y-44567548D01*
X101771715Y-44404121D01*
X101771715Y-44237491D01*
X101804223Y-44074064D01*
X101867989Y-43920119D01*
X101960563Y-43781572D01*
X102078388Y-43663747D01*
X102216935Y-43571173D01*
X102370880Y-43507407D01*
X102534307Y-43474899D01*
X102700937Y-43474899D01*
X102864364Y-43507407D01*
G37*
G36*
X68779116Y-43633818D02*
G01*
X68830379Y-43639766D01*
X68847892Y-43647499D01*
X68870671Y-43652030D01*
X68895057Y-43668324D01*
X68915788Y-43677478D01*
X68929946Y-43691636D01*
X68951777Y-43706223D01*
X68966363Y-43728053D01*
X68980521Y-43742211D01*
X68989673Y-43762939D01*
X69005970Y-43787329D01*
X69010501Y-43810109D01*
X69018233Y-43827620D01*
X69024178Y-43878872D01*
X69025000Y-43883000D01*
X69025000Y-44583000D01*
X69024178Y-44587128D01*
X69018233Y-44638379D01*
X69010501Y-44655888D01*
X69005970Y-44678671D01*
X68989672Y-44703062D01*
X68980521Y-44723788D01*
X68966365Y-44737943D01*
X68951777Y-44759777D01*
X68929943Y-44774365D01*
X68915788Y-44788521D01*
X68895062Y-44797672D01*
X68870671Y-44813970D01*
X68847888Y-44818501D01*
X68830379Y-44826233D01*
X68779129Y-44832178D01*
X68775000Y-44833000D01*
X67875000Y-44833000D01*
X67870873Y-44832179D01*
X67819620Y-44826233D01*
X67802109Y-44818501D01*
X67779329Y-44813970D01*
X67754939Y-44797673D01*
X67734211Y-44788521D01*
X67720053Y-44774363D01*
X67698223Y-44759777D01*
X67683636Y-44737946D01*
X67669478Y-44723788D01*
X67660324Y-44703057D01*
X67644030Y-44678671D01*
X67639499Y-44655892D01*
X67631766Y-44638379D01*
X67625818Y-44587117D01*
X67625000Y-44583000D01*
X67625000Y-43883000D01*
X67625818Y-43878885D01*
X67631766Y-43827620D01*
X67639499Y-43810105D01*
X67644030Y-43787329D01*
X67660323Y-43762944D01*
X67669478Y-43742211D01*
X67683638Y-43728050D01*
X67698223Y-43706223D01*
X67720050Y-43691638D01*
X67734211Y-43677478D01*
X67754944Y-43668323D01*
X67779329Y-43652030D01*
X67802105Y-43647499D01*
X67819620Y-43639766D01*
X67870884Y-43633818D01*
X67875000Y-43633000D01*
X68775000Y-43633000D01*
X68779116Y-43633818D01*
G37*
G36*
X71932403Y-44049418D02*
G01*
X71981066Y-44081934D01*
X72013582Y-44130597D01*
X72025000Y-44188000D01*
X72025000Y-44488000D01*
X72013582Y-44545403D01*
X71981066Y-44594066D01*
X71932403Y-44626582D01*
X71875000Y-44638000D01*
X70225000Y-44638000D01*
X70167597Y-44626582D01*
X70118934Y-44594066D01*
X70086418Y-44545403D01*
X70075000Y-44488000D01*
X70075000Y-44188000D01*
X70086418Y-44130597D01*
X70118934Y-44081934D01*
X70167597Y-44049418D01*
X70225000Y-44038000D01*
X71875000Y-44038000D01*
X71932403Y-44049418D01*
G37*
G36*
X76882403Y-44049418D02*
G01*
X76931066Y-44081934D01*
X76963582Y-44130597D01*
X76975000Y-44188000D01*
X76975000Y-44488000D01*
X76963582Y-44545403D01*
X76931066Y-44594066D01*
X76882403Y-44626582D01*
X76825000Y-44638000D01*
X75175000Y-44638000D01*
X75117597Y-44626582D01*
X75068934Y-44594066D01*
X75036418Y-44545403D01*
X75025000Y-44488000D01*
X75025000Y-44188000D01*
X75036418Y-44130597D01*
X75068934Y-44081934D01*
X75117597Y-44049418D01*
X75175000Y-44038000D01*
X76825000Y-44038000D01*
X76882403Y-44049418D01*
G37*
G36*
X71932403Y-42779418D02*
G01*
X71981066Y-42811934D01*
X72013582Y-42860597D01*
X72025000Y-42918000D01*
X72025000Y-43218000D01*
X72013582Y-43275403D01*
X71981066Y-43324066D01*
X71932403Y-43356582D01*
X71875000Y-43368000D01*
X70225000Y-43368000D01*
X70167597Y-43356582D01*
X70118934Y-43324066D01*
X70086418Y-43275403D01*
X70075000Y-43218000D01*
X70075000Y-42918000D01*
X70086418Y-42860597D01*
X70118934Y-42811934D01*
X70167597Y-42779418D01*
X70225000Y-42768000D01*
X71875000Y-42768000D01*
X71932403Y-42779418D01*
G37*
G36*
X76882403Y-42779418D02*
G01*
X76931066Y-42811934D01*
X76963582Y-42860597D01*
X76975000Y-42918000D01*
X76975000Y-43218000D01*
X76963582Y-43275403D01*
X76931066Y-43324066D01*
X76882403Y-43356582D01*
X76825000Y-43368000D01*
X75175000Y-43368000D01*
X75117597Y-43356582D01*
X75068934Y-43324066D01*
X75036418Y-43275403D01*
X75025000Y-43218000D01*
X75025000Y-42918000D01*
X75036418Y-42860597D01*
X75068934Y-42811934D01*
X75117597Y-42779418D01*
X75175000Y-42768000D01*
X76825000Y-42768000D01*
X76882403Y-42779418D01*
G37*
G36*
X84746742Y-41174601D02*
G01*
X84900687Y-41238367D01*
X85039234Y-41330941D01*
X85157059Y-41448766D01*
X85249633Y-41587313D01*
X85313399Y-41741258D01*
X85345907Y-41904685D01*
X85345907Y-42071315D01*
X85313399Y-42234742D01*
X85249633Y-42388687D01*
X85157059Y-42527234D01*
X85039234Y-42645059D01*
X84900687Y-42737633D01*
X84746742Y-42801399D01*
X84583315Y-42833907D01*
X84416685Y-42833907D01*
X84253258Y-42801399D01*
X84099313Y-42737633D01*
X83960766Y-42645059D01*
X83842941Y-42527234D01*
X83750367Y-42388687D01*
X83686601Y-42234742D01*
X83654093Y-42071315D01*
X83654093Y-41904685D01*
X83686601Y-41741258D01*
X83750367Y-41587313D01*
X83842941Y-41448766D01*
X83960766Y-41330941D01*
X84099313Y-41238367D01*
X84253258Y-41174601D01*
X84416685Y-41142093D01*
X84583315Y-41142093D01*
X84746742Y-41174601D01*
G37*
G36*
X68779116Y-41633818D02*
G01*
X68830379Y-41639766D01*
X68847892Y-41647499D01*
X68870671Y-41652030D01*
X68895057Y-41668324D01*
X68915788Y-41677478D01*
X68929946Y-41691636D01*
X68951777Y-41706223D01*
X68966363Y-41728053D01*
X68980521Y-41742211D01*
X68989673Y-41762939D01*
X69005970Y-41787329D01*
X69010501Y-41810109D01*
X69018233Y-41827620D01*
X69024178Y-41878872D01*
X69025000Y-41883000D01*
X69025000Y-42583000D01*
X69024178Y-42587128D01*
X69018233Y-42638379D01*
X69010501Y-42655888D01*
X69005970Y-42678671D01*
X68989672Y-42703062D01*
X68980521Y-42723788D01*
X68966365Y-42737943D01*
X68951777Y-42759777D01*
X68929943Y-42774365D01*
X68915788Y-42788521D01*
X68895062Y-42797672D01*
X68870671Y-42813970D01*
X68847888Y-42818501D01*
X68830379Y-42826233D01*
X68779129Y-42832178D01*
X68775000Y-42833000D01*
X67875000Y-42833000D01*
X67870873Y-42832179D01*
X67819620Y-42826233D01*
X67802109Y-42818501D01*
X67779329Y-42813970D01*
X67754939Y-42797673D01*
X67734211Y-42788521D01*
X67720053Y-42774363D01*
X67698223Y-42759777D01*
X67683636Y-42737946D01*
X67669478Y-42723788D01*
X67660324Y-42703057D01*
X67644030Y-42678671D01*
X67639499Y-42655892D01*
X67631766Y-42638379D01*
X67625818Y-42587117D01*
X67625000Y-42583000D01*
X67625000Y-41883000D01*
X67625818Y-41878885D01*
X67631766Y-41827620D01*
X67639499Y-41810105D01*
X67644030Y-41787329D01*
X67660323Y-41762944D01*
X67669478Y-41742211D01*
X67683638Y-41728050D01*
X67698223Y-41706223D01*
X67720050Y-41691638D01*
X67734211Y-41677478D01*
X67754944Y-41668323D01*
X67779329Y-41652030D01*
X67802105Y-41647499D01*
X67819620Y-41639766D01*
X67870884Y-41633818D01*
X67875000Y-41633000D01*
X68775000Y-41633000D01*
X68779116Y-41633818D01*
G37*
G36*
X102864364Y-40967407D02*
G01*
X103018309Y-41031173D01*
X103156856Y-41123747D01*
X103274681Y-41241572D01*
X103367255Y-41380119D01*
X103431021Y-41534064D01*
X103463529Y-41697491D01*
X103463529Y-41864121D01*
X103431021Y-42027548D01*
X103367255Y-42181493D01*
X103274681Y-42320040D01*
X103156856Y-42437865D01*
X103018309Y-42530439D01*
X102864364Y-42594205D01*
X102700937Y-42626713D01*
X102534307Y-42626713D01*
X102370880Y-42594205D01*
X102216935Y-42530439D01*
X102078388Y-42437865D01*
X101960563Y-42320040D01*
X101867989Y-42181493D01*
X101804223Y-42027548D01*
X101771715Y-41864121D01*
X101771715Y-41697491D01*
X101804223Y-41534064D01*
X101867989Y-41380119D01*
X101960563Y-41241572D01*
X102078388Y-41123747D01*
X102216935Y-41031173D01*
X102370880Y-40967407D01*
X102534307Y-40934899D01*
X102700937Y-40934899D01*
X102864364Y-40967407D01*
G37*
G36*
X115350000Y-42128000D02*
G01*
X113650000Y-42128000D01*
X113650000Y-40428000D01*
X115350000Y-40428000D01*
X115350000Y-42128000D01*
G37*
G36*
X112206742Y-40464601D02*
G01*
X112360687Y-40528367D01*
X112499234Y-40620941D01*
X112617059Y-40738766D01*
X112709633Y-40877313D01*
X112773399Y-41031258D01*
X112805907Y-41194685D01*
X112805907Y-41361315D01*
X112773399Y-41524742D01*
X112709633Y-41678687D01*
X112617059Y-41817234D01*
X112499234Y-41935059D01*
X112360687Y-42027633D01*
X112206742Y-42091399D01*
X112043315Y-42123907D01*
X111876685Y-42123907D01*
X111713258Y-42091399D01*
X111559313Y-42027633D01*
X111420766Y-41935059D01*
X111302941Y-41817234D01*
X111210367Y-41678687D01*
X111146601Y-41524742D01*
X111114093Y-41361315D01*
X111114093Y-41194685D01*
X111146601Y-41031258D01*
X111210367Y-40877313D01*
X111302941Y-40738766D01*
X111420766Y-40620941D01*
X111559313Y-40528367D01*
X111713258Y-40464601D01*
X111876685Y-40432093D01*
X112043315Y-40432093D01*
X112206742Y-40464601D01*
G37*
G36*
X71932403Y-41509418D02*
G01*
X71981066Y-41541934D01*
X72013582Y-41590597D01*
X72025000Y-41648000D01*
X72025000Y-41948000D01*
X72013582Y-42005403D01*
X71981066Y-42054066D01*
X71932403Y-42086582D01*
X71875000Y-42098000D01*
X70225000Y-42098000D01*
X70167597Y-42086582D01*
X70118934Y-42054066D01*
X70086418Y-42005403D01*
X70075000Y-41948000D01*
X70075000Y-41648000D01*
X70086418Y-41590597D01*
X70118934Y-41541934D01*
X70167597Y-41509418D01*
X70225000Y-41498000D01*
X71875000Y-41498000D01*
X71932403Y-41509418D01*
G37*
G36*
X76882403Y-41509418D02*
G01*
X76931066Y-41541934D01*
X76963582Y-41590597D01*
X76975000Y-41648000D01*
X76975000Y-41948000D01*
X76963582Y-42005403D01*
X76931066Y-42054066D01*
X76882403Y-42086582D01*
X76825000Y-42098000D01*
X75175000Y-42098000D01*
X75117597Y-42086582D01*
X75068934Y-42054066D01*
X75036418Y-42005403D01*
X75025000Y-41948000D01*
X75025000Y-41648000D01*
X75036418Y-41590597D01*
X75068934Y-41541934D01*
X75117597Y-41509418D01*
X75175000Y-41498000D01*
X76825000Y-41498000D01*
X76882403Y-41509418D01*
G37*
G36*
X79104116Y-40383818D02*
G01*
X79155379Y-40389766D01*
X79172892Y-40397499D01*
X79195671Y-40402030D01*
X79220057Y-40418324D01*
X79240788Y-40427478D01*
X79254946Y-40441636D01*
X79276777Y-40456223D01*
X79291363Y-40478053D01*
X79305521Y-40492211D01*
X79314673Y-40512939D01*
X79330970Y-40537329D01*
X79335501Y-40560109D01*
X79343233Y-40577620D01*
X79349178Y-40628872D01*
X79350000Y-40633000D01*
X79350000Y-41308000D01*
X79349178Y-41312128D01*
X79343233Y-41363379D01*
X79335501Y-41380888D01*
X79330970Y-41403671D01*
X79314672Y-41428062D01*
X79305521Y-41448788D01*
X79291365Y-41462943D01*
X79276777Y-41484777D01*
X79254943Y-41499365D01*
X79240788Y-41513521D01*
X79220062Y-41522672D01*
X79195671Y-41538970D01*
X79172888Y-41543501D01*
X79155379Y-41551233D01*
X79104129Y-41557178D01*
X79100000Y-41558000D01*
X78150000Y-41558000D01*
X78145873Y-41557179D01*
X78094620Y-41551233D01*
X78077109Y-41543501D01*
X78054329Y-41538970D01*
X78029939Y-41522673D01*
X78009211Y-41513521D01*
X77995053Y-41499363D01*
X77973223Y-41484777D01*
X77958636Y-41462946D01*
X77944478Y-41448788D01*
X77935324Y-41428057D01*
X77919030Y-41403671D01*
X77914499Y-41380892D01*
X77906766Y-41363379D01*
X77900818Y-41312117D01*
X77900000Y-41308000D01*
X77900000Y-40633000D01*
X77900818Y-40628885D01*
X77906766Y-40577620D01*
X77914499Y-40560105D01*
X77919030Y-40537329D01*
X77935323Y-40512944D01*
X77944478Y-40492211D01*
X77958638Y-40478050D01*
X77973223Y-40456223D01*
X77995050Y-40441638D01*
X78009211Y-40427478D01*
X78029944Y-40418323D01*
X78054329Y-40402030D01*
X78077105Y-40397499D01*
X78094620Y-40389766D01*
X78145884Y-40383818D01*
X78150000Y-40383000D01*
X79100000Y-40383000D01*
X79104116Y-40383818D01*
G37*
G36*
X71932403Y-40239418D02*
G01*
X71981066Y-40271934D01*
X72013582Y-40320597D01*
X72025000Y-40378000D01*
X72025000Y-40678000D01*
X72013582Y-40735403D01*
X71981066Y-40784066D01*
X71932403Y-40816582D01*
X71875000Y-40828000D01*
X70225000Y-40828000D01*
X70167597Y-40816582D01*
X70118934Y-40784066D01*
X70086418Y-40735403D01*
X70075000Y-40678000D01*
X70075000Y-40378000D01*
X70086418Y-40320597D01*
X70118934Y-40271934D01*
X70167597Y-40239418D01*
X70225000Y-40228000D01*
X71875000Y-40228000D01*
X71932403Y-40239418D01*
G37*
G36*
X76882403Y-40239418D02*
G01*
X76931066Y-40271934D01*
X76963582Y-40320597D01*
X76975000Y-40378000D01*
X76975000Y-40678000D01*
X76963582Y-40735403D01*
X76931066Y-40784066D01*
X76882403Y-40816582D01*
X76825000Y-40828000D01*
X75175000Y-40828000D01*
X75117597Y-40816582D01*
X75068934Y-40784066D01*
X75036418Y-40735403D01*
X75025000Y-40678000D01*
X75025000Y-40378000D01*
X75036418Y-40320597D01*
X75068934Y-40271934D01*
X75117597Y-40239418D01*
X75175000Y-40228000D01*
X76825000Y-40228000D01*
X76882403Y-40239418D01*
G37*
G36*
X68779116Y-39433818D02*
G01*
X68830379Y-39439766D01*
X68847892Y-39447499D01*
X68870671Y-39452030D01*
X68895057Y-39468324D01*
X68915788Y-39477478D01*
X68929946Y-39491636D01*
X68951777Y-39506223D01*
X68966363Y-39528053D01*
X68980521Y-39542211D01*
X68989673Y-39562939D01*
X69005970Y-39587329D01*
X69010501Y-39610109D01*
X69018233Y-39627620D01*
X69024178Y-39678872D01*
X69025000Y-39683000D01*
X69025000Y-40383000D01*
X69024178Y-40387128D01*
X69018233Y-40438379D01*
X69010501Y-40455888D01*
X69005970Y-40478671D01*
X68989672Y-40503062D01*
X68980521Y-40523788D01*
X68966365Y-40537943D01*
X68951777Y-40559777D01*
X68929943Y-40574365D01*
X68915788Y-40588521D01*
X68895062Y-40597672D01*
X68870671Y-40613970D01*
X68847888Y-40618501D01*
X68830379Y-40626233D01*
X68779129Y-40632178D01*
X68775000Y-40633000D01*
X67875000Y-40633000D01*
X67870873Y-40632179D01*
X67819620Y-40626233D01*
X67802109Y-40618501D01*
X67779329Y-40613970D01*
X67754939Y-40597673D01*
X67734211Y-40588521D01*
X67720053Y-40574363D01*
X67698223Y-40559777D01*
X67683636Y-40537946D01*
X67669478Y-40523788D01*
X67660324Y-40503057D01*
X67644030Y-40478671D01*
X67639499Y-40455892D01*
X67631766Y-40438379D01*
X67625818Y-40387117D01*
X67625000Y-40383000D01*
X67625000Y-39683000D01*
X67625818Y-39678885D01*
X67631766Y-39627620D01*
X67639499Y-39610105D01*
X67644030Y-39587329D01*
X67660323Y-39562944D01*
X67669478Y-39542211D01*
X67683638Y-39528050D01*
X67698223Y-39506223D01*
X67720050Y-39491638D01*
X67734211Y-39477478D01*
X67754944Y-39468323D01*
X67779329Y-39452030D01*
X67802105Y-39447499D01*
X67819620Y-39439766D01*
X67870884Y-39433818D01*
X67875000Y-39433000D01*
X68775000Y-39433000D01*
X68779116Y-39433818D01*
G37*
G36*
X84746742Y-38634601D02*
G01*
X84900687Y-38698367D01*
X85039234Y-38790941D01*
X85157059Y-38908766D01*
X85249633Y-39047313D01*
X85313399Y-39201258D01*
X85345907Y-39364685D01*
X85345907Y-39531315D01*
X85313399Y-39694742D01*
X85249633Y-39848687D01*
X85157059Y-39987234D01*
X85039234Y-40105059D01*
X84900687Y-40197633D01*
X84746742Y-40261399D01*
X84583315Y-40293907D01*
X84416685Y-40293907D01*
X84253258Y-40261399D01*
X84099313Y-40197633D01*
X83960766Y-40105059D01*
X83842941Y-39987234D01*
X83750367Y-39848687D01*
X83686601Y-39694742D01*
X83654093Y-39531315D01*
X83654093Y-39364685D01*
X83686601Y-39201258D01*
X83750367Y-39047313D01*
X83842941Y-38908766D01*
X83960766Y-38790941D01*
X84099313Y-38698367D01*
X84253258Y-38634601D01*
X84416685Y-38602093D01*
X84583315Y-38602093D01*
X84746742Y-38634601D01*
G37*
G36*
X102864364Y-38427407D02*
G01*
X103018309Y-38491173D01*
X103156856Y-38583747D01*
X103274681Y-38701572D01*
X103367255Y-38840119D01*
X103431021Y-38994064D01*
X103463529Y-39157491D01*
X103463529Y-39324121D01*
X103431021Y-39487548D01*
X103367255Y-39641493D01*
X103274681Y-39780040D01*
X103156856Y-39897865D01*
X103018309Y-39990439D01*
X102864364Y-40054205D01*
X102700937Y-40086713D01*
X102534307Y-40086713D01*
X102370880Y-40054205D01*
X102216935Y-39990439D01*
X102078388Y-39897865D01*
X101960563Y-39780040D01*
X101867989Y-39641493D01*
X101804223Y-39487548D01*
X101771715Y-39324121D01*
X101771715Y-39157491D01*
X101804223Y-38994064D01*
X101867989Y-38840119D01*
X101960563Y-38701572D01*
X102078388Y-38583747D01*
X102216935Y-38491173D01*
X102370880Y-38427407D01*
X102534307Y-38394899D01*
X102700937Y-38394899D01*
X102864364Y-38427407D01*
G37*
G36*
X71932403Y-38969418D02*
G01*
X71981066Y-39001934D01*
X72013582Y-39050597D01*
X72025000Y-39108000D01*
X72025000Y-39408000D01*
X72013582Y-39465403D01*
X71981066Y-39514066D01*
X71932403Y-39546582D01*
X71875000Y-39558000D01*
X70225000Y-39558000D01*
X70167597Y-39546582D01*
X70118934Y-39514066D01*
X70086418Y-39465403D01*
X70075000Y-39408000D01*
X70075000Y-39108000D01*
X70086418Y-39050597D01*
X70118934Y-39001934D01*
X70167597Y-38969418D01*
X70225000Y-38958000D01*
X71875000Y-38958000D01*
X71932403Y-38969418D01*
G37*
G36*
X76882403Y-38969418D02*
G01*
X76931066Y-39001934D01*
X76963582Y-39050597D01*
X76975000Y-39108000D01*
X76975000Y-39408000D01*
X76963582Y-39465403D01*
X76931066Y-39514066D01*
X76882403Y-39546582D01*
X76825000Y-39558000D01*
X75175000Y-39558000D01*
X75117597Y-39546582D01*
X75068934Y-39514066D01*
X75036418Y-39465403D01*
X75025000Y-39408000D01*
X75025000Y-39108000D01*
X75036418Y-39050597D01*
X75068934Y-39001934D01*
X75117597Y-38969418D01*
X75175000Y-38958000D01*
X76825000Y-38958000D01*
X76882403Y-38969418D01*
G37*
G36*
X79104116Y-38308818D02*
G01*
X79155379Y-38314766D01*
X79172892Y-38322499D01*
X79195671Y-38327030D01*
X79220057Y-38343324D01*
X79240788Y-38352478D01*
X79254946Y-38366636D01*
X79276777Y-38381223D01*
X79291363Y-38403053D01*
X79305521Y-38417211D01*
X79314673Y-38437939D01*
X79330970Y-38462329D01*
X79335501Y-38485109D01*
X79343233Y-38502620D01*
X79349178Y-38553872D01*
X79350000Y-38558000D01*
X79350000Y-39233000D01*
X79349178Y-39237128D01*
X79343233Y-39288379D01*
X79335501Y-39305888D01*
X79330970Y-39328671D01*
X79314672Y-39353062D01*
X79305521Y-39373788D01*
X79291365Y-39387943D01*
X79276777Y-39409777D01*
X79254943Y-39424365D01*
X79240788Y-39438521D01*
X79220062Y-39447672D01*
X79195671Y-39463970D01*
X79172888Y-39468501D01*
X79155379Y-39476233D01*
X79104129Y-39482178D01*
X79100000Y-39483000D01*
X78150000Y-39483000D01*
X78145873Y-39482179D01*
X78094620Y-39476233D01*
X78077109Y-39468501D01*
X78054329Y-39463970D01*
X78029939Y-39447673D01*
X78009211Y-39438521D01*
X77995053Y-39424363D01*
X77973223Y-39409777D01*
X77958636Y-39387946D01*
X77944478Y-39373788D01*
X77935324Y-39353057D01*
X77919030Y-39328671D01*
X77914499Y-39305892D01*
X77906766Y-39288379D01*
X77900818Y-39237117D01*
X77900000Y-39233000D01*
X77900000Y-38558000D01*
X77900818Y-38553885D01*
X77906766Y-38502620D01*
X77914499Y-38485105D01*
X77919030Y-38462329D01*
X77935323Y-38437944D01*
X77944478Y-38417211D01*
X77958638Y-38403050D01*
X77973223Y-38381223D01*
X77995050Y-38366638D01*
X78009211Y-38352478D01*
X78029944Y-38343323D01*
X78054329Y-38327030D01*
X78077105Y-38322499D01*
X78094620Y-38314766D01*
X78145884Y-38308818D01*
X78150000Y-38308000D01*
X79100000Y-38308000D01*
X79104116Y-38308818D01*
G37*
G36*
X68779116Y-37433818D02*
G01*
X68830379Y-37439766D01*
X68847892Y-37447499D01*
X68870671Y-37452030D01*
X68895057Y-37468324D01*
X68915788Y-37477478D01*
X68929946Y-37491636D01*
X68951777Y-37506223D01*
X68966363Y-37528053D01*
X68980521Y-37542211D01*
X68989673Y-37562939D01*
X69005970Y-37587329D01*
X69010501Y-37610109D01*
X69018233Y-37627620D01*
X69024178Y-37678872D01*
X69025000Y-37683000D01*
X69025000Y-38383000D01*
X69024178Y-38387128D01*
X69018233Y-38438379D01*
X69010501Y-38455888D01*
X69005970Y-38478671D01*
X68989672Y-38503062D01*
X68980521Y-38523788D01*
X68966365Y-38537943D01*
X68951777Y-38559777D01*
X68929943Y-38574365D01*
X68915788Y-38588521D01*
X68895062Y-38597672D01*
X68870671Y-38613970D01*
X68847888Y-38618501D01*
X68830379Y-38626233D01*
X68779129Y-38632178D01*
X68775000Y-38633000D01*
X67875000Y-38633000D01*
X67870873Y-38632179D01*
X67819620Y-38626233D01*
X67802109Y-38618501D01*
X67779329Y-38613970D01*
X67754939Y-38597673D01*
X67734211Y-38588521D01*
X67720053Y-38574363D01*
X67698223Y-38559777D01*
X67683636Y-38537946D01*
X67669478Y-38523788D01*
X67660324Y-38503057D01*
X67644030Y-38478671D01*
X67639499Y-38455892D01*
X67631766Y-38438379D01*
X67625818Y-38387117D01*
X67625000Y-38383000D01*
X67625000Y-37683000D01*
X67625818Y-37678885D01*
X67631766Y-37627620D01*
X67639499Y-37610105D01*
X67644030Y-37587329D01*
X67660323Y-37562944D01*
X67669478Y-37542211D01*
X67683638Y-37528050D01*
X67698223Y-37506223D01*
X67720050Y-37491638D01*
X67734211Y-37477478D01*
X67754944Y-37468323D01*
X67779329Y-37452030D01*
X67802105Y-37447499D01*
X67819620Y-37439766D01*
X67870884Y-37433818D01*
X67875000Y-37433000D01*
X68775000Y-37433000D01*
X68779116Y-37433818D01*
G37*
G36*
X71932403Y-37699418D02*
G01*
X71981066Y-37731934D01*
X72013582Y-37780597D01*
X72025000Y-37838000D01*
X72025000Y-38138000D01*
X72013582Y-38195403D01*
X71981066Y-38244066D01*
X71932403Y-38276582D01*
X71875000Y-38288000D01*
X70225000Y-38288000D01*
X70167597Y-38276582D01*
X70118934Y-38244066D01*
X70086418Y-38195403D01*
X70075000Y-38138000D01*
X70075000Y-37838000D01*
X70086418Y-37780597D01*
X70118934Y-37731934D01*
X70167597Y-37699418D01*
X70225000Y-37688000D01*
X71875000Y-37688000D01*
X71932403Y-37699418D01*
G37*
G36*
X76882403Y-37699418D02*
G01*
X76931066Y-37731934D01*
X76963582Y-37780597D01*
X76975000Y-37838000D01*
X76975000Y-38138000D01*
X76963582Y-38195403D01*
X76931066Y-38244066D01*
X76882403Y-38276582D01*
X76825000Y-38288000D01*
X75175000Y-38288000D01*
X75117597Y-38276582D01*
X75068934Y-38244066D01*
X75036418Y-38195403D01*
X75025000Y-38138000D01*
X75025000Y-37838000D01*
X75036418Y-37780597D01*
X75068934Y-37731934D01*
X75117597Y-37699418D01*
X75175000Y-37688000D01*
X76825000Y-37688000D01*
X76882403Y-37699418D01*
G37*
G36*
X110504116Y-36378818D02*
G01*
X110555379Y-36384766D01*
X110572892Y-36392499D01*
X110595671Y-36397030D01*
X110620057Y-36413324D01*
X110640788Y-36422478D01*
X110654946Y-36436636D01*
X110676777Y-36451223D01*
X110691363Y-36473053D01*
X110705521Y-36487211D01*
X110714673Y-36507939D01*
X110730970Y-36532329D01*
X110735501Y-36555109D01*
X110743233Y-36572620D01*
X110749178Y-36623872D01*
X110750000Y-36628000D01*
X110750000Y-37928000D01*
X110749178Y-37932128D01*
X110743233Y-37983379D01*
X110735501Y-38000888D01*
X110730970Y-38023671D01*
X110714672Y-38048062D01*
X110705521Y-38068788D01*
X110691365Y-38082943D01*
X110676777Y-38104777D01*
X110654943Y-38119365D01*
X110640788Y-38133521D01*
X110620062Y-38142672D01*
X110595671Y-38158970D01*
X110572888Y-38163501D01*
X110555379Y-38171233D01*
X110504129Y-38177178D01*
X110500000Y-38178000D01*
X107500000Y-38178000D01*
X107495873Y-38177179D01*
X107444620Y-38171233D01*
X107427109Y-38163501D01*
X107404329Y-38158970D01*
X107379939Y-38142673D01*
X107359211Y-38133521D01*
X107345053Y-38119363D01*
X107323223Y-38104777D01*
X107308636Y-38082946D01*
X107294478Y-38068788D01*
X107285324Y-38048057D01*
X107269030Y-38023671D01*
X107264499Y-38000892D01*
X107256766Y-37983379D01*
X107250818Y-37932117D01*
X107250000Y-37928000D01*
X107250000Y-36628000D01*
X107250818Y-36623885D01*
X107256766Y-36572620D01*
X107264499Y-36555105D01*
X107269030Y-36532329D01*
X107285323Y-36507944D01*
X107294478Y-36487211D01*
X107308638Y-36473050D01*
X107323223Y-36451223D01*
X107345050Y-36436638D01*
X107359211Y-36422478D01*
X107379944Y-36413323D01*
X107404329Y-36397030D01*
X107427105Y-36392499D01*
X107444620Y-36384766D01*
X107495884Y-36378818D01*
X107500000Y-36378000D01*
X110500000Y-36378000D01*
X110504116Y-36378818D01*
G37*
G36*
X115504116Y-36378818D02*
G01*
X115555379Y-36384766D01*
X115572892Y-36392499D01*
X115595671Y-36397030D01*
X115620057Y-36413324D01*
X115640788Y-36422478D01*
X115654946Y-36436636D01*
X115676777Y-36451223D01*
X115691363Y-36473053D01*
X115705521Y-36487211D01*
X115714673Y-36507939D01*
X115730970Y-36532329D01*
X115735501Y-36555109D01*
X115743233Y-36572620D01*
X115749178Y-36623872D01*
X115750000Y-36628000D01*
X115750000Y-37928000D01*
X115749178Y-37932128D01*
X115743233Y-37983379D01*
X115735501Y-38000888D01*
X115730970Y-38023671D01*
X115714672Y-38048062D01*
X115705521Y-38068788D01*
X115691365Y-38082943D01*
X115676777Y-38104777D01*
X115654943Y-38119365D01*
X115640788Y-38133521D01*
X115620062Y-38142672D01*
X115595671Y-38158970D01*
X115572888Y-38163501D01*
X115555379Y-38171233D01*
X115504129Y-38177178D01*
X115500000Y-38178000D01*
X112500000Y-38178000D01*
X112495873Y-38177179D01*
X112444620Y-38171233D01*
X112427109Y-38163501D01*
X112404329Y-38158970D01*
X112379939Y-38142673D01*
X112359211Y-38133521D01*
X112345053Y-38119363D01*
X112323223Y-38104777D01*
X112308636Y-38082946D01*
X112294478Y-38068788D01*
X112285324Y-38048057D01*
X112269030Y-38023671D01*
X112264499Y-38000892D01*
X112256766Y-37983379D01*
X112250818Y-37932117D01*
X112250000Y-37928000D01*
X112250000Y-36628000D01*
X112250818Y-36623885D01*
X112256766Y-36572620D01*
X112264499Y-36555105D01*
X112269030Y-36532329D01*
X112285323Y-36507944D01*
X112294478Y-36487211D01*
X112308638Y-36473050D01*
X112323223Y-36451223D01*
X112345050Y-36436638D01*
X112359211Y-36422478D01*
X112379944Y-36413323D01*
X112404329Y-36397030D01*
X112427105Y-36392499D01*
X112444620Y-36384766D01*
X112495884Y-36378818D01*
X112500000Y-36378000D01*
X115500000Y-36378000D01*
X115504116Y-36378818D01*
G37*
G36*
X84746742Y-36094601D02*
G01*
X84900687Y-36158367D01*
X85039234Y-36250941D01*
X85157059Y-36368766D01*
X85249633Y-36507313D01*
X85313399Y-36661258D01*
X85345907Y-36824685D01*
X85345907Y-36991315D01*
X85313399Y-37154742D01*
X85249633Y-37308687D01*
X85157059Y-37447234D01*
X85039234Y-37565059D01*
X84900687Y-37657633D01*
X84746742Y-37721399D01*
X84583315Y-37753907D01*
X84416685Y-37753907D01*
X84253258Y-37721399D01*
X84099313Y-37657633D01*
X83960766Y-37565059D01*
X83842941Y-37447234D01*
X83750367Y-37308687D01*
X83686601Y-37154742D01*
X83654093Y-36991315D01*
X83654093Y-36824685D01*
X83686601Y-36661258D01*
X83750367Y-36507313D01*
X83842941Y-36368766D01*
X83960766Y-36250941D01*
X84099313Y-36158367D01*
X84253258Y-36094601D01*
X84416685Y-36062093D01*
X84583315Y-36062093D01*
X84746742Y-36094601D01*
G37*
G36*
X102864364Y-35887407D02*
G01*
X103018309Y-35951173D01*
X103156856Y-36043747D01*
X103274681Y-36161572D01*
X103367255Y-36300119D01*
X103431021Y-36454064D01*
X103463529Y-36617491D01*
X103463529Y-36784121D01*
X103431021Y-36947548D01*
X103367255Y-37101493D01*
X103274681Y-37240040D01*
X103156856Y-37357865D01*
X103018309Y-37450439D01*
X102864364Y-37514205D01*
X102700937Y-37546713D01*
X102534307Y-37546713D01*
X102370880Y-37514205D01*
X102216935Y-37450439D01*
X102078388Y-37357865D01*
X101960563Y-37240040D01*
X101867989Y-37101493D01*
X101804223Y-36947548D01*
X101771715Y-36784121D01*
X101771715Y-36617491D01*
X101804223Y-36454064D01*
X101867989Y-36300119D01*
X101960563Y-36161572D01*
X102078388Y-36043747D01*
X102216935Y-35951173D01*
X102370880Y-35887407D01*
X102534307Y-35854899D01*
X102700937Y-35854899D01*
X102864364Y-35887407D01*
G37*
G36*
X68629116Y-35108818D02*
G01*
X68680379Y-35114766D01*
X68697892Y-35122499D01*
X68720671Y-35127030D01*
X68745057Y-35143324D01*
X68765788Y-35152478D01*
X68779946Y-35166636D01*
X68801777Y-35181223D01*
X68816363Y-35203053D01*
X68830521Y-35217211D01*
X68839673Y-35237939D01*
X68855970Y-35262329D01*
X68860501Y-35285109D01*
X68868233Y-35302620D01*
X68874178Y-35353872D01*
X68875000Y-35358000D01*
X68875000Y-36308000D01*
X68874178Y-36312128D01*
X68868233Y-36363379D01*
X68860501Y-36380888D01*
X68855970Y-36403671D01*
X68839672Y-36428062D01*
X68830521Y-36448788D01*
X68816365Y-36462943D01*
X68801777Y-36484777D01*
X68779943Y-36499365D01*
X68765788Y-36513521D01*
X68745062Y-36522672D01*
X68720671Y-36538970D01*
X68697888Y-36543501D01*
X68680379Y-36551233D01*
X68629129Y-36557178D01*
X68625000Y-36558000D01*
X67950000Y-36558000D01*
X67945873Y-36557179D01*
X67894620Y-36551233D01*
X67877109Y-36543501D01*
X67854329Y-36538970D01*
X67829939Y-36522673D01*
X67809211Y-36513521D01*
X67795053Y-36499363D01*
X67773223Y-36484777D01*
X67758636Y-36462946D01*
X67744478Y-36448788D01*
X67735324Y-36428057D01*
X67719030Y-36403671D01*
X67714499Y-36380892D01*
X67706766Y-36363379D01*
X67700818Y-36312117D01*
X67700000Y-36308000D01*
X67700000Y-35358000D01*
X67700818Y-35353885D01*
X67706766Y-35302620D01*
X67714499Y-35285105D01*
X67719030Y-35262329D01*
X67735323Y-35237944D01*
X67744478Y-35217211D01*
X67758638Y-35203050D01*
X67773223Y-35181223D01*
X67795050Y-35166638D01*
X67809211Y-35152478D01*
X67829944Y-35143323D01*
X67854329Y-35127030D01*
X67877105Y-35122499D01*
X67894620Y-35114766D01*
X67945884Y-35108818D01*
X67950000Y-35108000D01*
X68625000Y-35108000D01*
X68629116Y-35108818D01*
G37*
G36*
X70704116Y-35108818D02*
G01*
X70755379Y-35114766D01*
X70772892Y-35122499D01*
X70795671Y-35127030D01*
X70820057Y-35143324D01*
X70840788Y-35152478D01*
X70854946Y-35166636D01*
X70876777Y-35181223D01*
X70891363Y-35203053D01*
X70905521Y-35217211D01*
X70914673Y-35237939D01*
X70930970Y-35262329D01*
X70935501Y-35285109D01*
X70943233Y-35302620D01*
X70949178Y-35353872D01*
X70950000Y-35358000D01*
X70950000Y-36308000D01*
X70949178Y-36312128D01*
X70943233Y-36363379D01*
X70935501Y-36380888D01*
X70930970Y-36403671D01*
X70914672Y-36428062D01*
X70905521Y-36448788D01*
X70891365Y-36462943D01*
X70876777Y-36484777D01*
X70854943Y-36499365D01*
X70840788Y-36513521D01*
X70820062Y-36522672D01*
X70795671Y-36538970D01*
X70772888Y-36543501D01*
X70755379Y-36551233D01*
X70704129Y-36557178D01*
X70700000Y-36558000D01*
X70025000Y-36558000D01*
X70020873Y-36557179D01*
X69969620Y-36551233D01*
X69952109Y-36543501D01*
X69929329Y-36538970D01*
X69904939Y-36522673D01*
X69884211Y-36513521D01*
X69870053Y-36499363D01*
X69848223Y-36484777D01*
X69833636Y-36462946D01*
X69819478Y-36448788D01*
X69810324Y-36428057D01*
X69794030Y-36403671D01*
X69789499Y-36380892D01*
X69781766Y-36363379D01*
X69775818Y-36312117D01*
X69775000Y-36308000D01*
X69775000Y-35358000D01*
X69775818Y-35353885D01*
X69781766Y-35302620D01*
X69789499Y-35285105D01*
X69794030Y-35262329D01*
X69810323Y-35237944D01*
X69819478Y-35217211D01*
X69833638Y-35203050D01*
X69848223Y-35181223D01*
X69870050Y-35166638D01*
X69884211Y-35152478D01*
X69904944Y-35143323D01*
X69929329Y-35127030D01*
X69952105Y-35122499D01*
X69969620Y-35114766D01*
X70020884Y-35108818D01*
X70025000Y-35108000D01*
X70700000Y-35108000D01*
X70704116Y-35108818D01*
G37*
G36*
X85350000Y-35218000D02*
G01*
X83650000Y-35218000D01*
X83650000Y-33518000D01*
X85350000Y-33518000D01*
X85350000Y-35218000D01*
G37*
G36*
X103467622Y-35010806D02*
G01*
X101767622Y-35010806D01*
X101767622Y-33310806D01*
X103467622Y-33310806D01*
X103467622Y-35010806D01*
G37*
M02*
