%TF.GenerationSoftware,KiCad,Pcbnew,10.0.3*%
%TF.CreationDate,2026-06-01T11:24:38-07:00*%
%TF.ProjectId,Encoder Board,456e636f-6465-4722-9042-6f6172642e6b,rev?*%
%TF.SameCoordinates,Original*%
%TF.FileFunction,Copper,L2,Bot*%
%TF.FilePolarity,Positive*%
%FSLAX46Y46*%
G04 Gerber Fmt 4.6, Leading zero omitted, Abs format (unit mm)*
G04 Created by KiCad (PCBNEW 10.0.3) date 2026-06-01 11:24:38*
%MOMM*%
%LPD*%
G01*
G04 APERTURE LIST*
%TA.AperFunction,ComponentPad*%
%ADD10R,1.700000X1.700000*%
%TD*%
%TA.AperFunction,ComponentPad*%
%ADD11C,1.700000*%
%TD*%
%TA.AperFunction,ViaPad*%
%ADD12C,0.600000*%
%TD*%
%TA.AperFunction,Conductor*%
%ADD13C,0.400000*%
%TD*%
G04 APERTURE END LIST*
D10*
%TO.P,J2,1,Pin_1_1*%
%TO.N,GND*%
X74120000Y-76724558D03*
D11*
%TO.P,J2,2,Pin_2_2*%
X74120000Y-79264558D03*
%TO.P,J2,3,Pin_3_3*%
%TO.N,/INDEX_N*%
X71580000Y-76724558D03*
%TO.P,J2,4,Pin_4_4*%
%TO.N,/INDEX*%
X71580000Y-79264558D03*
%TO.P,J2,5,Pin_5_5*%
%TO.N,/A_N*%
X69040000Y-76724558D03*
%TO.P,J2,6,Pin_6_6*%
%TO.N,/A*%
X69040000Y-79264558D03*
%TO.P,J2,7,Pin_7_7*%
%TO.N,+5V_E*%
X66500000Y-76724558D03*
%TO.P,J2,8,Pin_8_8*%
X66500000Y-79264558D03*
%TO.P,J2,9,Pin_9_9*%
%TO.N,/B_N*%
X63960000Y-76724558D03*
%TO.P,J2,10,Pin_10_10*%
%TO.N,/B*%
X63960000Y-79264558D03*
%TD*%
D10*
%TO.P,J1,1,Pin_1_1*%
%TO.N,GND*%
X62040000Y-63160000D03*
D11*
%TO.P,J1,2,Pin_2_2*%
X59500000Y-63160000D03*
%TO.P,J1,3,Pin_3_3*%
%TO.N,/INDEX_N*%
X62040000Y-60620000D03*
%TO.P,J1,4,Pin_4_4*%
%TO.N,/INDEX*%
X59500000Y-60620000D03*
%TO.P,J1,5,Pin_5_5*%
%TO.N,/A_N*%
X62040000Y-58080000D03*
%TO.P,J1,6,Pin_6_6*%
%TO.N,/A*%
X59500000Y-58080000D03*
%TO.P,J1,7,Pin_7_7*%
%TO.N,+5V_E*%
X62040000Y-55540000D03*
%TO.P,J1,8,Pin_8_8*%
X59500000Y-55540000D03*
%TO.P,J1,9,Pin_9_9*%
%TO.N,/B_N*%
X62040000Y-53000000D03*
%TO.P,J1,10,Pin_10_10*%
%TO.N,/B*%
X59500000Y-53000000D03*
%TD*%
%TO.P,J6,20,Pin_20_20*%
%TO.N,unconnected-(J6-Pin_20-Pad20)*%
X102617622Y-82420806D03*
%TO.P,J6,19,Pin_19_19*%
%TO.N,unconnected-(J6-Pin_19-Pad19)*%
X102617622Y-79880806D03*
%TO.P,J6,18,Pin_18_18*%
%TO.N,GND*%
X102617622Y-77340806D03*
%TO.P,J6,17,Pin_17_17*%
%TO.N,Net-(J6-Pin_17)*%
X102617622Y-74800806D03*
%TO.P,J6,16,Pin_16_16*%
%TO.N,Net-(J6-Pin_16)*%
X102617622Y-72260806D03*
%TO.P,J6,15,Pin_15_15*%
%TO.N,Net-(J6-Pin_15)*%
X102617622Y-69720806D03*
%TO.P,J6,14,Pin_14_14*%
%TO.N,/TRIGGER*%
X102617622Y-67180806D03*
%TO.P,J6,13,Pin_13_13*%
%TO.N,GND*%
X102617622Y-64640806D03*
%TO.P,J6,12,Pin_12_12*%
%TO.N,unconnected-(J6-Pin_12-Pad12)*%
X102617622Y-62100806D03*
%TO.P,J6,11,Pin_11_11*%
%TO.N,unconnected-(J6-Pin_11-Pad11)*%
X102617622Y-59560806D03*
%TO.P,J6,10,Pin_10_10*%
%TO.N,unconnected-(J6-Pin_10-Pad10)*%
X102617622Y-57020806D03*
%TO.P,J6,9,Pin_9_9*%
%TO.N,unconnected-(J6-Pin_9-Pad9)*%
X102617622Y-54480806D03*
%TO.P,J6,8,Pin_8_8*%
%TO.N,GND*%
X102617622Y-51940806D03*
%TO.P,J6,7,Pin_7_7*%
%TO.N,unconnected-(J6-Pin_7-Pad7)*%
X102617622Y-49400806D03*
%TO.P,J6,6,Pin_6_6*%
%TO.N,unconnected-(J6-Pin_6-Pad6)*%
X102617622Y-46860806D03*
%TO.P,J6,5,Pin_5_5*%
%TO.N,+3V3_Pi*%
X102617622Y-44320806D03*
%TO.P,J6,4,Pin_4_4*%
%TO.N,unconnected-(J6-Pin_4-Pad4)*%
X102617622Y-41780806D03*
%TO.P,J6,3,Pin_3_3*%
%TO.N,GND*%
X102617622Y-39240806D03*
%TO.P,J6,2,Pin_2_2*%
%TO.N,Net-(D1-K)*%
X102617622Y-36700806D03*
D10*
%TO.P,J6,1,Pin_1_1*%
%TO.N,unconnected-(J6-Pin_1-Pad1)*%
X102617622Y-34160806D03*
%TD*%
%TO.P,J4,1,Pin_1_1*%
%TO.N,+3V3*%
X114500000Y-56753000D03*
D11*
%TO.P,J4,2,Pin_2_2*%
%TO.N,GND*%
X114500000Y-59293000D03*
%TD*%
D10*
%TO.P,J7,1,Pin_1_1*%
%TO.N,/TRIGGER*%
X110225000Y-67218000D03*
D11*
%TO.P,J7,2,Pin_2_2*%
%TO.N,GND*%
X112765000Y-67218000D03*
%TO.P,J7,3,Pin_3_3*%
%TO.N,Net-(J6-Pin_15)*%
X110225000Y-69758000D03*
%TO.P,J7,4,Pin_4_4*%
%TO.N,GND*%
X112765000Y-69758000D03*
%TO.P,J7,5,Pin_5_5*%
%TO.N,Net-(J6-Pin_16)*%
X110225000Y-72298000D03*
%TO.P,J7,6,Pin_6_6*%
%TO.N,GND*%
X112765000Y-72298000D03*
%TO.P,J7,7,Pin_7_7*%
%TO.N,Net-(J6-Pin_17)*%
X110225000Y-74838000D03*
%TO.P,J7,8,Pin_8_8*%
%TO.N,GND*%
X112765000Y-74838000D03*
%TD*%
D10*
%TO.P,J5,1,Pin_1_1*%
%TO.N,unconnected-(J5-Pin_1-Pad1)*%
X84500000Y-34368000D03*
D11*
%TO.P,J5,2,Pin_2_2*%
%TO.N,unconnected-(J5-Pin_2-Pad2)*%
X84500000Y-36908000D03*
%TO.P,J5,3,Pin_3_3*%
%TO.N,GND*%
X84500000Y-39448000D03*
%TO.P,J5,4,Pin_4_4*%
%TO.N,/A_3V3*%
X84500000Y-41988000D03*
%TO.P,J5,5,Pin_5_5*%
%TO.N,/B_3V3*%
X84500000Y-44528000D03*
%TO.P,J5,6,Pin_6_6*%
%TO.N,/INDEX_3V3*%
X84500000Y-47068000D03*
%TO.P,J5,7,Pin_7_7*%
%TO.N,unconnected-(J5-Pin_7-Pad7)*%
X84500000Y-49608000D03*
%TO.P,J5,8,Pin_8_8*%
%TO.N,GND*%
X84500000Y-52148000D03*
%TO.P,J5,9,Pin_9_9*%
%TO.N,unconnected-(J5-Pin_9-Pad9)*%
X84500000Y-54688000D03*
%TO.P,J5,10,Pin_10_10*%
%TO.N,unconnected-(J5-Pin_10-Pad10)*%
X84500000Y-57228000D03*
%TO.P,J5,11,Pin_11_11*%
%TO.N,unconnected-(J5-Pin_11-Pad11)*%
X84500000Y-59768000D03*
%TO.P,J5,12,Pin_12_12*%
%TO.N,unconnected-(J5-Pin_12-Pad12)*%
X84500000Y-62308000D03*
%TO.P,J5,13,Pin_13_13*%
%TO.N,GND*%
X84500000Y-64848000D03*
%TO.P,J5,14,Pin_14_14*%
%TO.N,unconnected-(J5-Pin_14-Pad14)*%
X84500000Y-67388000D03*
%TO.P,J5,15,Pin_15_15*%
%TO.N,unconnected-(J5-Pin_15-Pad15)*%
X84500000Y-69928000D03*
%TO.P,J5,16,Pin_16_16*%
%TO.N,unconnected-(J5-Pin_16-Pad16)*%
X84500000Y-72468000D03*
%TO.P,J5,17,Pin_17_17*%
%TO.N,unconnected-(J5-Pin_17-Pad17)*%
X84500000Y-75008000D03*
%TO.P,J5,18,Pin_18_18*%
%TO.N,GND*%
X84500000Y-77548000D03*
%TO.P,J5,19,Pin_19_19*%
%TO.N,unconnected-(J5-Pin_19-Pad19)*%
X84500000Y-80088000D03*
%TO.P,J5,20,Pin_20_20*%
%TO.N,unconnected-(J5-Pin_20-Pad20)*%
X84500000Y-82628000D03*
%TD*%
%TO.P,J3,2,Pin_2_2*%
%TO.N,GND*%
X111960000Y-41278000D03*
D10*
%TO.P,J3,1,Pin_1_1*%
%TO.N,+5V_S*%
X114500000Y-41278000D03*
%TD*%
D12*
%TO.N,GND*%
X61000000Y-77750000D03*
X107500000Y-74250000D03*
X107500000Y-69000000D03*
X65750000Y-48000000D03*
X62500000Y-33500000D03*
X70000000Y-68000000D03*
X73750000Y-42750000D03*
X81250000Y-43000000D03*
%TO.N,/INDEX*%
X70125000Y-61375000D03*
X64500000Y-62000000D03*
%TO.N,/INDEX_N*%
X64500000Y-60500000D03*
X69625000Y-60125000D03*
%TO.N,/A*%
X58250000Y-50500000D03*
%TO.N,/A_N*%
X57223000Y-49777000D03*
%TO.N,/A*%
X58335000Y-56915000D03*
%TO.N,/A_N*%
X57951116Y-58298884D03*
%TO.N,/A_3V3*%
X73000000Y-40528000D03*
%TO.N,GND*%
X115500000Y-78750000D03*
X56500000Y-71000000D03*
X115500000Y-70250000D03*
X76500000Y-81000000D03*
X61000000Y-83250000D03*
X76500000Y-61000000D03*
X56500000Y-79500000D03*
X107500000Y-71750000D03*
X115250000Y-63000000D03*
X106500000Y-61000000D03*
X96500000Y-61000000D03*
X86500000Y-61000000D03*
X106500000Y-51000000D03*
X97000000Y-71000000D03*
X76500000Y-71000000D03*
X86500000Y-71000000D03*
X97000000Y-51000000D03*
X59500000Y-66000000D03*
X86500000Y-51000000D03*
X66500000Y-51000000D03*
X55500000Y-51000000D03*
X96500000Y-41000000D03*
X106500000Y-41000000D03*
X66500000Y-41000000D03*
X86500000Y-41000000D03*
X77500000Y-52250000D03*
X58750000Y-42750000D03*
X106500000Y-81000000D03*
X96500000Y-81000000D03*
X86500000Y-80250000D03*
%TD*%
%TO.N,/A*%
D13*
X58000000Y-50750000D02*
X58250000Y-50500000D01*
X58000000Y-56580000D02*
X58000000Y-50750000D01*
X58335000Y-56915000D02*
X58000000Y-56580000D01*
X70290000Y-77710000D02*
X69040000Y-78960000D01*
X69040000Y-78960000D02*
X69040000Y-79264558D01*
X70290000Y-76219848D02*
X70290000Y-77710000D01*
X69330000Y-56830000D02*
X73000000Y-60500000D01*
X73000000Y-60500000D02*
X73000000Y-73509848D01*
X73000000Y-73509848D02*
X70290000Y-76219848D01*
X59500000Y-58080000D02*
X60750000Y-56830000D01*
X60750000Y-56830000D02*
X69330000Y-56830000D01*
%TO.N,/INDEX*%
X59130000Y-60620000D02*
X59500000Y-60620000D01*
X57250000Y-62500000D02*
X59130000Y-60620000D01*
X62500000Y-82000000D02*
X57250000Y-76750000D01*
X69250000Y-82000000D02*
X62500000Y-82000000D01*
X57250000Y-76750000D02*
X57250000Y-62500000D01*
X71580000Y-79670000D02*
X69250000Y-82000000D01*
X71580000Y-79264558D02*
X71580000Y-79670000D01*
%TO.N,/A_N*%
X69040000Y-76460000D02*
X69040000Y-76724558D01*
X72250000Y-60750000D02*
X72250000Y-73250000D01*
X69580000Y-58080000D02*
X72250000Y-60750000D01*
X72250000Y-73250000D02*
X69040000Y-76460000D01*
X62040000Y-58080000D02*
X69580000Y-58080000D01*
%TO.N,/A_3V3*%
X80762000Y-41988000D02*
X84500000Y-41988000D01*
X75048264Y-42500000D02*
X80250000Y-42500000D01*
X73076264Y-40528000D02*
X75048264Y-42500000D01*
X80250000Y-42500000D02*
X80762000Y-41988000D01*
%TO.N,/INDEX*%
X69500000Y-62000000D02*
X64500000Y-62000000D01*
X70125000Y-61375000D02*
X69500000Y-62000000D01*
%TO.N,/INDEX_N*%
X69250000Y-60500000D02*
X64500000Y-60500000D01*
X69625000Y-60125000D02*
X69250000Y-60500000D01*
%TO.N,/A_N*%
X57223000Y-57570768D02*
X57223000Y-49777000D01*
X57951116Y-58298884D02*
X57223000Y-57570768D01*
%TO.N,/A_3V3*%
X84203000Y-41691000D02*
X84500000Y-41988000D01*
%TO.N,/INDEX_N*%
X60750000Y-61910000D02*
X62040000Y-60620000D01*
X58982233Y-61910000D02*
X60750000Y-61910000D01*
X58000000Y-62892233D02*
X58982233Y-61910000D01*
X62723000Y-81223000D02*
X58000000Y-76500000D01*
X68876268Y-81223000D02*
X62723000Y-81223000D01*
X70299634Y-79799634D02*
X68876268Y-81223000D01*
X58000000Y-76500000D02*
X58000000Y-62892233D01*
X70299634Y-78777157D02*
X70299634Y-79799634D01*
X71580000Y-77496791D02*
X70299634Y-78777157D01*
X71580000Y-76724558D02*
X71580000Y-77496791D01*
%TD*%
%TA.AperFunction,Conductor*%
%TO.N,GND*%
G36*
X69460022Y-58427185D02*
G01*
X69480664Y-58443819D01*
X71886181Y-60849336D01*
X71919666Y-60910659D01*
X71922500Y-60937017D01*
X71922500Y-73062982D01*
X71902815Y-73130021D01*
X71886181Y-73150663D01*
X69616242Y-75420601D01*
X69554919Y-75454086D01*
X69490243Y-75450851D01*
X69356240Y-75407311D01*
X69194957Y-75381766D01*
X69146287Y-75374058D01*
X68933713Y-75374058D01*
X68885042Y-75381766D01*
X68723760Y-75407311D01*
X68521585Y-75473002D01*
X68332179Y-75569509D01*
X68160213Y-75694448D01*
X68009890Y-75844771D01*
X67884949Y-76016740D01*
X67880484Y-76025504D01*
X67832509Y-76076300D01*
X67764688Y-76093094D01*
X67698553Y-76070556D01*
X67659516Y-76025504D01*
X67655050Y-76016740D01*
X67530109Y-75844771D01*
X67379786Y-75694448D01*
X67207820Y-75569509D01*
X67018414Y-75473002D01*
X67018413Y-75473001D01*
X67018412Y-75473001D01*
X66816243Y-75407312D01*
X66816241Y-75407311D01*
X66816240Y-75407311D01*
X66654957Y-75381766D01*
X66606287Y-75374058D01*
X66393713Y-75374058D01*
X66345042Y-75381766D01*
X66183760Y-75407311D01*
X65981585Y-75473002D01*
X65792179Y-75569509D01*
X65620213Y-75694448D01*
X65469890Y-75844771D01*
X65344949Y-76016740D01*
X65340484Y-76025504D01*
X65292509Y-76076300D01*
X65224688Y-76093094D01*
X65158553Y-76070556D01*
X65119516Y-76025504D01*
X65115050Y-76016740D01*
X64990109Y-75844771D01*
X64839786Y-75694448D01*
X64667820Y-75569509D01*
X64478414Y-75473002D01*
X64478413Y-75473001D01*
X64478412Y-75473001D01*
X64276243Y-75407312D01*
X64276241Y-75407311D01*
X64276240Y-75407311D01*
X64114957Y-75381766D01*
X64066287Y-75374058D01*
X63853713Y-75374058D01*
X63805042Y-75381766D01*
X63643760Y-75407311D01*
X63441585Y-75473002D01*
X63252179Y-75569509D01*
X63080213Y-75694448D01*
X62929890Y-75844771D01*
X62804951Y-76016737D01*
X62708444Y-76206143D01*
X62642753Y-76408318D01*
X62609500Y-76618271D01*
X62609500Y-76830844D01*
X62641008Y-77029782D01*
X62642754Y-77040801D01*
X62677524Y-77147813D01*
X62708444Y-77242972D01*
X62804951Y-77432378D01*
X62929890Y-77604344D01*
X63080213Y-77754667D01*
X63252182Y-77879608D01*
X63260946Y-77884074D01*
X63311742Y-77932049D01*
X63328536Y-77999870D01*
X63305998Y-78066005D01*
X63260946Y-78105042D01*
X63252182Y-78109507D01*
X63080213Y-78234448D01*
X62929890Y-78384771D01*
X62804951Y-78556737D01*
X62708444Y-78746143D01*
X62642753Y-78948318D01*
X62641291Y-78957551D01*
X62609500Y-79158271D01*
X62609500Y-79370845D01*
X62610979Y-79380184D01*
X62642753Y-79580797D01*
X62708444Y-79782972D01*
X62804951Y-79972378D01*
X62929890Y-80144344D01*
X63080213Y-80294667D01*
X63252179Y-80419606D01*
X63252181Y-80419607D01*
X63252184Y-80419609D01*
X63441588Y-80516115D01*
X63643757Y-80581804D01*
X63853713Y-80615058D01*
X63853714Y-80615058D01*
X64066286Y-80615058D01*
X64066287Y-80615058D01*
X64276243Y-80581804D01*
X64478412Y-80516115D01*
X64667816Y-80419609D01*
X64748485Y-80361000D01*
X64839786Y-80294667D01*
X64839788Y-80294664D01*
X64839792Y-80294662D01*
X64990104Y-80144350D01*
X64990106Y-80144346D01*
X64990109Y-80144344D01*
X65115048Y-79972378D01*
X65115047Y-79972378D01*
X65115051Y-79972374D01*
X65119514Y-79963612D01*
X65167488Y-79912817D01*
X65235308Y-79896021D01*
X65301444Y-79918557D01*
X65340486Y-79963614D01*
X65344951Y-79972378D01*
X65469890Y-80144344D01*
X65620213Y-80294667D01*
X65792179Y-80419606D01*
X65792181Y-80419607D01*
X65792184Y-80419609D01*
X65981588Y-80516115D01*
X66183757Y-80581804D01*
X66393713Y-80615058D01*
X66393714Y-80615058D01*
X66606286Y-80615058D01*
X66606287Y-80615058D01*
X66816243Y-80581804D01*
X67018412Y-80516115D01*
X67207816Y-80419609D01*
X67288485Y-80361000D01*
X67379786Y-80294667D01*
X67379788Y-80294664D01*
X67379792Y-80294662D01*
X67530104Y-80144350D01*
X67530106Y-80144346D01*
X67530109Y-80144344D01*
X67655048Y-79972378D01*
X67655047Y-79972378D01*
X67655051Y-79972374D01*
X67659514Y-79963612D01*
X67707488Y-79912817D01*
X67775308Y-79896021D01*
X67841444Y-79918557D01*
X67880486Y-79963614D01*
X67884951Y-79972378D01*
X68009890Y-80144344D01*
X68160213Y-80294667D01*
X68332179Y-80419606D01*
X68332181Y-80419607D01*
X68332184Y-80419609D01*
X68521588Y-80516115D01*
X68723757Y-80581804D01*
X68768748Y-80588929D01*
X68831879Y-80618857D01*
X68868811Y-80678168D01*
X68867815Y-80748031D01*
X68837030Y-80799083D01*
X68776930Y-80859182D01*
X68715610Y-80892666D01*
X68689251Y-80895500D01*
X62910017Y-80895500D01*
X62842978Y-80875815D01*
X62822336Y-80859181D01*
X58363819Y-76400664D01*
X58330334Y-76339341D01*
X58327500Y-76312983D01*
X58327500Y-64030307D01*
X58347185Y-63963268D01*
X58363819Y-63942626D01*
X59017036Y-63289407D01*
X59034075Y-63352993D01*
X59099901Y-63467007D01*
X59192993Y-63560099D01*
X59307007Y-63625925D01*
X59370590Y-63642962D01*
X58738282Y-64275269D01*
X58738282Y-64275270D01*
X58792449Y-64314624D01*
X58981782Y-64411095D01*
X59183870Y-64476757D01*
X59393754Y-64510000D01*
X59606246Y-64510000D01*
X59816127Y-64476757D01*
X59816130Y-64476757D01*
X60018217Y-64411095D01*
X60207554Y-64314622D01*
X60261716Y-64275270D01*
X60261717Y-64275270D01*
X59629408Y-63642962D01*
X59692993Y-63625925D01*
X59807007Y-63560099D01*
X59900099Y-63467007D01*
X59965925Y-63352993D01*
X59982962Y-63289409D01*
X60652356Y-63958803D01*
X60685841Y-64020126D01*
X60684926Y-64034831D01*
X60687497Y-64034555D01*
X60696401Y-64117373D01*
X60696403Y-64117380D01*
X60746645Y-64252086D01*
X60746649Y-64252093D01*
X60832809Y-64367187D01*
X60832812Y-64367190D01*
X60947906Y-64453350D01*
X60947913Y-64453354D01*
X61082620Y-64503596D01*
X61082627Y-64503598D01*
X61142155Y-64509999D01*
X61142172Y-64510000D01*
X61790000Y-64510000D01*
X61790000Y-63593012D01*
X61847007Y-63625925D01*
X61974174Y-63660000D01*
X62105826Y-63660000D01*
X62232993Y-63625925D01*
X62290000Y-63593012D01*
X62290000Y-64510000D01*
X62937828Y-64510000D01*
X62937844Y-64509999D01*
X62997372Y-64503598D01*
X62997379Y-64503596D01*
X63132086Y-64453354D01*
X63132093Y-64453350D01*
X63247187Y-64367190D01*
X63247190Y-64367187D01*
X63333350Y-64252093D01*
X63333354Y-64252086D01*
X63383596Y-64117379D01*
X63383598Y-64117372D01*
X63389999Y-64057844D01*
X63390000Y-64057827D01*
X63390000Y-63410000D01*
X62473012Y-63410000D01*
X62505925Y-63352993D01*
X62540000Y-63225826D01*
X62540000Y-63094174D01*
X62505925Y-62967007D01*
X62473012Y-62910000D01*
X63390000Y-62910000D01*
X63390000Y-62262172D01*
X63389999Y-62262155D01*
X63383598Y-62202627D01*
X63383596Y-62202620D01*
X63333354Y-62067913D01*
X63333350Y-62067906D01*
X63247190Y-61952812D01*
X63247187Y-61952809D01*
X63132093Y-61866649D01*
X63132088Y-61866646D01*
X63000528Y-61817577D01*
X62944595Y-61775705D01*
X62920178Y-61710241D01*
X62935030Y-61641968D01*
X62956175Y-61613720D01*
X63070104Y-61499792D01*
X63103486Y-61453846D01*
X63195048Y-61327820D01*
X63195047Y-61327820D01*
X63195051Y-61327816D01*
X63291557Y-61138412D01*
X63357246Y-60936243D01*
X63390500Y-60726287D01*
X63390500Y-60513713D01*
X63375840Y-60421153D01*
X63699500Y-60421153D01*
X63699500Y-60578846D01*
X63730261Y-60733489D01*
X63730264Y-60733501D01*
X63790602Y-60879172D01*
X63790609Y-60879185D01*
X63878210Y-61010288D01*
X63878213Y-61010292D01*
X63989707Y-61121786D01*
X63989710Y-61121788D01*
X63989711Y-61121789D01*
X64014589Y-61138412D01*
X64027289Y-61146898D01*
X64072093Y-61200511D01*
X64080800Y-61269836D01*
X64050645Y-61332863D01*
X64027289Y-61353102D01*
X63989707Y-61378213D01*
X63878213Y-61489707D01*
X63878210Y-61489711D01*
X63790609Y-61620814D01*
X63790602Y-61620827D01*
X63730264Y-61766498D01*
X63730261Y-61766510D01*
X63699500Y-61921153D01*
X63699500Y-62078846D01*
X63730261Y-62233489D01*
X63730264Y-62233501D01*
X63790602Y-62379172D01*
X63790609Y-62379185D01*
X63878210Y-62510288D01*
X63878213Y-62510292D01*
X63989707Y-62621786D01*
X63989711Y-62621789D01*
X64120814Y-62709390D01*
X64120827Y-62709397D01*
X64266498Y-62769735D01*
X64266503Y-62769737D01*
X64421153Y-62800499D01*
X64421156Y-62800500D01*
X64421158Y-62800500D01*
X64578844Y-62800500D01*
X64578845Y-62800499D01*
X64733497Y-62769737D01*
X64879179Y-62709394D01*
X65010289Y-62621789D01*
X65121789Y-62510289D01*
X65185936Y-62414287D01*
X65207103Y-62382609D01*
X65260715Y-62337804D01*
X65310205Y-62327500D01*
X69543114Y-62327500D01*
X69543116Y-62327500D01*
X69626410Y-62305181D01*
X69701090Y-62262065D01*
X69783678Y-62179476D01*
X69844998Y-62145993D01*
X69895549Y-62145542D01*
X70046155Y-62175500D01*
X70046158Y-62175500D01*
X70203844Y-62175500D01*
X70203845Y-62175499D01*
X70358497Y-62144737D01*
X70504179Y-62084394D01*
X70635289Y-61996789D01*
X70746789Y-61885289D01*
X70834394Y-61754179D01*
X70894737Y-61608497D01*
X70925500Y-61453842D01*
X70925500Y-61296158D01*
X70925500Y-61296155D01*
X70925499Y-61296153D01*
X70920264Y-61269836D01*
X70894737Y-61141503D01*
X70893457Y-61138412D01*
X70834397Y-60995827D01*
X70834390Y-60995814D01*
X70746789Y-60864711D01*
X70746786Y-60864707D01*
X70635292Y-60753213D01*
X70635288Y-60753210D01*
X70504185Y-60665609D01*
X70504176Y-60665604D01*
X70416746Y-60629390D01*
X70362343Y-60585549D01*
X70340278Y-60519255D01*
X70349638Y-60467377D01*
X70368784Y-60421153D01*
X70394737Y-60358497D01*
X70425500Y-60203842D01*
X70425500Y-60046158D01*
X70425500Y-60046155D01*
X70425499Y-60046153D01*
X70414038Y-59988536D01*
X70394737Y-59891503D01*
X70352946Y-59790609D01*
X70334397Y-59745827D01*
X70334390Y-59745814D01*
X70246789Y-59614711D01*
X70246786Y-59614707D01*
X70135292Y-59503213D01*
X70135288Y-59503210D01*
X70004185Y-59415609D01*
X70004172Y-59415602D01*
X69858501Y-59355264D01*
X69858489Y-59355261D01*
X69703845Y-59324500D01*
X69703842Y-59324500D01*
X69546158Y-59324500D01*
X69546155Y-59324500D01*
X69391510Y-59355261D01*
X69391498Y-59355264D01*
X69245827Y-59415602D01*
X69245814Y-59415609D01*
X69114711Y-59503210D01*
X69114707Y-59503213D01*
X69003213Y-59614707D01*
X69003210Y-59614711D01*
X68915609Y-59745814D01*
X68915602Y-59745827D01*
X68855264Y-59891498D01*
X68855261Y-59891510D01*
X68824500Y-60046153D01*
X68824500Y-60048500D01*
X68824152Y-60049682D01*
X68823903Y-60052218D01*
X68823422Y-60052170D01*
X68804815Y-60115539D01*
X68752011Y-60161294D01*
X68700500Y-60172500D01*
X65310205Y-60172500D01*
X65243166Y-60152815D01*
X65207103Y-60117391D01*
X65121789Y-59989711D01*
X65121786Y-59989707D01*
X65010292Y-59878213D01*
X65010288Y-59878210D01*
X64879185Y-59790609D01*
X64879172Y-59790602D01*
X64733501Y-59730264D01*
X64733489Y-59730261D01*
X64578845Y-59699500D01*
X64578842Y-59699500D01*
X64421158Y-59699500D01*
X64421155Y-59699500D01*
X64266510Y-59730261D01*
X64266498Y-59730264D01*
X64120827Y-59790602D01*
X64120814Y-59790609D01*
X63989711Y-59878210D01*
X63989707Y-59878213D01*
X63878213Y-59989707D01*
X63878210Y-59989711D01*
X63790609Y-60120814D01*
X63790602Y-60120827D01*
X63730264Y-60266498D01*
X63730261Y-60266510D01*
X63699500Y-60421153D01*
X63375840Y-60421153D01*
X63357246Y-60303757D01*
X63291557Y-60101588D01*
X63195051Y-59912184D01*
X63195049Y-59912181D01*
X63195048Y-59912179D01*
X63070109Y-59740213D01*
X62919786Y-59589890D01*
X62747820Y-59464951D01*
X62747115Y-59464591D01*
X62739054Y-59460485D01*
X62688259Y-59412512D01*
X62671463Y-59344692D01*
X62693999Y-59278556D01*
X62739054Y-59239515D01*
X62747816Y-59235051D01*
X62814293Y-59186753D01*
X62919786Y-59110109D01*
X62919788Y-59110106D01*
X62919792Y-59110104D01*
X63070104Y-58959792D01*
X63070106Y-58959788D01*
X63070109Y-58959786D01*
X63195048Y-58787820D01*
X63195047Y-58787820D01*
X63195051Y-58787816D01*
X63291557Y-58598412D01*
X63295772Y-58585439D01*
X63325749Y-58493182D01*
X63365186Y-58435506D01*
X63429545Y-58408308D01*
X63443680Y-58407500D01*
X69392983Y-58407500D01*
X69460022Y-58427185D01*
G37*
%TD.AperFunction*%
%TA.AperFunction,Conductor*%
G36*
X72704728Y-77612238D02*
G01*
X72760662Y-77654109D01*
X72777577Y-77685086D01*
X72826646Y-77816646D01*
X72826649Y-77816651D01*
X72912809Y-77931745D01*
X72912812Y-77931748D01*
X73027906Y-78017908D01*
X73027913Y-78017912D01*
X73162620Y-78068154D01*
X73162619Y-78068154D01*
X73245444Y-78077059D01*
X73245116Y-78080108D01*
X73262014Y-78079200D01*
X73321196Y-78112200D01*
X73990591Y-78781595D01*
X73927007Y-78798633D01*
X73812993Y-78864459D01*
X73719901Y-78957551D01*
X73654075Y-79071565D01*
X73637037Y-79135149D01*
X73004728Y-78502840D01*
X73004727Y-78502840D01*
X72965380Y-78556998D01*
X72965376Y-78557004D01*
X72960760Y-78566063D01*
X72912781Y-78616855D01*
X72844959Y-78633645D01*
X72778826Y-78611101D01*
X72739794Y-78566051D01*
X72735051Y-78556742D01*
X72735049Y-78556739D01*
X72735048Y-78556737D01*
X72610109Y-78384771D01*
X72459786Y-78234448D01*
X72287820Y-78109509D01*
X72287115Y-78109149D01*
X72279054Y-78105043D01*
X72228259Y-78057070D01*
X72211463Y-77989250D01*
X72233999Y-77923114D01*
X72279054Y-77884073D01*
X72287816Y-77879609D01*
X72374478Y-77816646D01*
X72459784Y-77754668D01*
X72459784Y-77754667D01*
X72459792Y-77754662D01*
X72573717Y-77640736D01*
X72635036Y-77607254D01*
X72704728Y-77612238D01*
G37*
%TD.AperFunction*%
%TA.AperFunction,Conductor*%
G36*
X112299075Y-72490993D02*
G01*
X112364901Y-72605007D01*
X112457993Y-72698099D01*
X112572007Y-72763925D01*
X112635591Y-72780962D01*
X112034971Y-73381581D01*
X112113711Y-73498895D01*
X112114920Y-73502729D01*
X112117844Y-73505491D01*
X112125343Y-73535778D01*
X112134727Y-73565529D01*
X112133671Y-73569408D01*
X112134638Y-73573312D01*
X112124573Y-73602844D01*
X112116383Y-73632947D01*
X112113397Y-73635640D01*
X112112100Y-73639447D01*
X112067051Y-73678483D01*
X112057440Y-73683380D01*
X112003282Y-73722727D01*
X112003282Y-73722728D01*
X112635591Y-74355037D01*
X112572007Y-74372075D01*
X112457993Y-74437901D01*
X112364901Y-74530993D01*
X112299075Y-74645007D01*
X112282037Y-74708591D01*
X111649728Y-74076282D01*
X111649727Y-74076282D01*
X111610380Y-74130440D01*
X111610376Y-74130446D01*
X111605760Y-74139505D01*
X111557781Y-74190297D01*
X111489959Y-74207087D01*
X111423826Y-74184543D01*
X111384794Y-74139493D01*
X111380051Y-74130184D01*
X111380049Y-74130181D01*
X111380048Y-74130179D01*
X111255109Y-73958213D01*
X111104786Y-73807890D01*
X110932820Y-73682951D01*
X110932115Y-73682591D01*
X110924054Y-73678485D01*
X110873259Y-73630512D01*
X110856463Y-73562692D01*
X110878999Y-73496556D01*
X110924054Y-73457515D01*
X110932816Y-73453051D01*
X111031187Y-73381581D01*
X111104786Y-73328109D01*
X111104788Y-73328106D01*
X111104792Y-73328104D01*
X111255104Y-73177792D01*
X111255106Y-73177788D01*
X111255109Y-73177786D01*
X111340890Y-73059717D01*
X111380051Y-73005816D01*
X111384793Y-72996508D01*
X111432763Y-72945711D01*
X111500583Y-72928911D01*
X111566719Y-72951445D01*
X111605763Y-72996500D01*
X111610373Y-73005547D01*
X111649728Y-73059716D01*
X112282037Y-72427408D01*
X112299075Y-72490993D01*
G37*
%TD.AperFunction*%
%TA.AperFunction,Conductor*%
G36*
X112299075Y-69950993D02*
G01*
X112364901Y-70065007D01*
X112457993Y-70158099D01*
X112572007Y-70223925D01*
X112635591Y-70240962D01*
X112034971Y-70841581D01*
X112113711Y-70958895D01*
X112114920Y-70962729D01*
X112117844Y-70965491D01*
X112125343Y-70995778D01*
X112134727Y-71025529D01*
X112133671Y-71029408D01*
X112134638Y-71033312D01*
X112124573Y-71062844D01*
X112116383Y-71092947D01*
X112113397Y-71095640D01*
X112112100Y-71099447D01*
X112067051Y-71138483D01*
X112057440Y-71143380D01*
X112003282Y-71182727D01*
X112003282Y-71182728D01*
X112635591Y-71815037D01*
X112572007Y-71832075D01*
X112457993Y-71897901D01*
X112364901Y-71990993D01*
X112299075Y-72105007D01*
X112282037Y-72168591D01*
X111649728Y-71536282D01*
X111649727Y-71536282D01*
X111610380Y-71590440D01*
X111610376Y-71590446D01*
X111605760Y-71599505D01*
X111557781Y-71650297D01*
X111489959Y-71667087D01*
X111423826Y-71644543D01*
X111384794Y-71599493D01*
X111380051Y-71590184D01*
X111380049Y-71590181D01*
X111380048Y-71590179D01*
X111255109Y-71418213D01*
X111104786Y-71267890D01*
X110932820Y-71142951D01*
X110932115Y-71142591D01*
X110924054Y-71138485D01*
X110873259Y-71090512D01*
X110856463Y-71022692D01*
X110878999Y-70956556D01*
X110924054Y-70917515D01*
X110932816Y-70913051D01*
X111077694Y-70807792D01*
X111104786Y-70788109D01*
X111104788Y-70788106D01*
X111104792Y-70788104D01*
X111255104Y-70637792D01*
X111255106Y-70637788D01*
X111255109Y-70637786D01*
X111340890Y-70519717D01*
X111380051Y-70465816D01*
X111384793Y-70456508D01*
X111432763Y-70405711D01*
X111500583Y-70388911D01*
X111566719Y-70411445D01*
X111605763Y-70456500D01*
X111610373Y-70465547D01*
X111649728Y-70519716D01*
X112282037Y-69887408D01*
X112299075Y-69950993D01*
G37*
%TD.AperFunction*%
%TA.AperFunction,Conductor*%
G36*
X112299075Y-67410993D02*
G01*
X112364901Y-67525007D01*
X112457993Y-67618099D01*
X112572007Y-67683925D01*
X112635591Y-67700962D01*
X112034971Y-68301581D01*
X112113711Y-68418895D01*
X112134727Y-68485529D01*
X112116383Y-68552947D01*
X112067051Y-68598483D01*
X112057440Y-68603380D01*
X112003282Y-68642727D01*
X112003282Y-68642728D01*
X112635591Y-69275037D01*
X112572007Y-69292075D01*
X112457993Y-69357901D01*
X112364901Y-69450993D01*
X112299075Y-69565007D01*
X112282037Y-69628591D01*
X111649728Y-68996282D01*
X111649727Y-68996282D01*
X111610380Y-69050440D01*
X111610376Y-69050446D01*
X111605760Y-69059505D01*
X111557781Y-69110297D01*
X111489959Y-69127087D01*
X111423826Y-69104543D01*
X111384794Y-69059493D01*
X111380051Y-69050184D01*
X111380049Y-69050181D01*
X111380048Y-69050179D01*
X111255109Y-68878213D01*
X111141569Y-68764673D01*
X111108084Y-68703350D01*
X111113068Y-68633658D01*
X111154940Y-68577725D01*
X111185915Y-68560810D01*
X111317331Y-68511796D01*
X111432546Y-68425546D01*
X111518796Y-68310331D01*
X111569091Y-68175483D01*
X111575500Y-68115873D01*
X111575499Y-68091979D01*
X111578330Y-68078963D01*
X111588940Y-68059525D01*
X111595179Y-68038275D01*
X111611803Y-68017643D01*
X111611808Y-68017636D01*
X111611811Y-68017634D01*
X111611818Y-68017626D01*
X112282037Y-67347408D01*
X112299075Y-67410993D01*
G37*
%TD.AperFunction*%
%TA.AperFunction,Conductor*%
G36*
X114754043Y-31500765D02*
G01*
X114871004Y-31508431D01*
X114936612Y-31532458D01*
X114978816Y-31588142D01*
X114984215Y-31657803D01*
X114951095Y-31719324D01*
X114889973Y-31753173D01*
X114862894Y-31756166D01*
X112811000Y-31756166D01*
X112811000Y-35312166D01*
X116367000Y-35312166D01*
X116367000Y-32807443D01*
X116371308Y-32792770D01*
X116370672Y-32777492D01*
X116380951Y-32759928D01*
X116386685Y-32740404D01*
X116398240Y-32730391D01*
X116405966Y-32717192D01*
X116424111Y-32707973D01*
X116439489Y-32694649D01*
X116454623Y-32692472D01*
X116468258Y-32685546D01*
X116488504Y-32687601D01*
X116508647Y-32684705D01*
X116522557Y-32691057D01*
X116537771Y-32692602D01*
X116553691Y-32705275D01*
X116572203Y-32713730D01*
X116581297Y-32727252D01*
X116592434Y-32736119D01*
X116608416Y-32767577D01*
X116678759Y-32974804D01*
X116682954Y-32990461D01*
X116730807Y-33231035D01*
X116732925Y-33247116D01*
X116749235Y-33495956D01*
X116749500Y-33504066D01*
X116749500Y-82245933D01*
X116749235Y-82254043D01*
X116732925Y-82502883D01*
X116730807Y-82518964D01*
X116682954Y-82759538D01*
X116678756Y-82775205D01*
X116599911Y-83007476D01*
X116593704Y-83022462D01*
X116485212Y-83242460D01*
X116437906Y-83293880D01*
X116370311Y-83311561D01*
X116303887Y-83289891D01*
X116259723Y-83235749D01*
X116250000Y-83187616D01*
X116250000Y-80194000D01*
X112694000Y-80194000D01*
X112694000Y-83750000D01*
X115687618Y-83750000D01*
X115694520Y-83752026D01*
X115701606Y-83750792D01*
X115727597Y-83761739D01*
X115754657Y-83769685D01*
X115759366Y-83775120D01*
X115765997Y-83777913D01*
X115781944Y-83801176D01*
X115800412Y-83822489D01*
X115801435Y-83829608D01*
X115805503Y-83835542D01*
X115806342Y-83863731D01*
X115810356Y-83891647D01*
X115807367Y-83898189D01*
X115807582Y-83905380D01*
X115793047Y-83929547D01*
X115781331Y-83955203D01*
X115774399Y-83960554D01*
X115771572Y-83965256D01*
X115742462Y-83985212D01*
X115522462Y-84093704D01*
X115507476Y-84099911D01*
X115275205Y-84178756D01*
X115259538Y-84182954D01*
X115018964Y-84230807D01*
X115002883Y-84232925D01*
X114754043Y-84249235D01*
X114745933Y-84249500D01*
X56504067Y-84249500D01*
X56495957Y-84249235D01*
X56247116Y-84232925D01*
X56231035Y-84230807D01*
X55990461Y-84182954D01*
X55974804Y-84178759D01*
X55914879Y-84158418D01*
X55857728Y-84118231D01*
X55831374Y-84053522D01*
X55844188Y-83984837D01*
X55892102Y-83933984D01*
X55954740Y-83917000D01*
X58528000Y-83917000D01*
X58528000Y-80361000D01*
X54972000Y-80361000D01*
X54972000Y-83130840D01*
X54969973Y-83137740D01*
X54971209Y-83144828D01*
X54960259Y-83170823D01*
X54952315Y-83197879D01*
X54946879Y-83202588D01*
X54944087Y-83209219D01*
X54920821Y-83225168D01*
X54899511Y-83243634D01*
X54892392Y-83244657D01*
X54886459Y-83248725D01*
X54858267Y-83249564D01*
X54830353Y-83253578D01*
X54823810Y-83250589D01*
X54816620Y-83250804D01*
X54792449Y-83236268D01*
X54766797Y-83224553D01*
X54761446Y-83217623D01*
X54756744Y-83214795D01*
X54736788Y-83185684D01*
X54656295Y-83022462D01*
X54650088Y-83007476D01*
X54571241Y-82775199D01*
X54567045Y-82759538D01*
X54519190Y-82518953D01*
X54517075Y-82502895D01*
X54500765Y-82254043D01*
X54500500Y-82245933D01*
X54500500Y-49698153D01*
X56422500Y-49698153D01*
X56422500Y-49855846D01*
X56453261Y-50010489D01*
X56453264Y-50010501D01*
X56513602Y-50156172D01*
X56513609Y-50156185D01*
X56601210Y-50287288D01*
X56601213Y-50287292D01*
X56712710Y-50398789D01*
X56840391Y-50484102D01*
X56885196Y-50537714D01*
X56895500Y-50587204D01*
X56895500Y-57527652D01*
X56895500Y-57613884D01*
X56905412Y-57650876D01*
X56917819Y-57697178D01*
X56960934Y-57771856D01*
X56960936Y-57771859D01*
X57146637Y-57957560D01*
X57180122Y-58018883D01*
X57180573Y-58069432D01*
X57150616Y-58220037D01*
X57150616Y-58377730D01*
X57181377Y-58532373D01*
X57181380Y-58532385D01*
X57241718Y-58678056D01*
X57241725Y-58678069D01*
X57329326Y-58809172D01*
X57329329Y-58809176D01*
X57440823Y-58920670D01*
X57440827Y-58920673D01*
X57571930Y-59008274D01*
X57571943Y-59008281D01*
X57697238Y-59060179D01*
X57717619Y-59068621D01*
X57872269Y-59099383D01*
X57872272Y-59099384D01*
X57872274Y-59099384D01*
X58029960Y-59099384D01*
X58029961Y-59099383D01*
X58184613Y-59068621D01*
X58330295Y-59008278D01*
X58358430Y-58989477D01*
X58425104Y-58968599D01*
X58492485Y-58987082D01*
X58515002Y-59004898D01*
X58620213Y-59110109D01*
X58792182Y-59235050D01*
X58800946Y-59239516D01*
X58851742Y-59287491D01*
X58868536Y-59355312D01*
X58845998Y-59421447D01*
X58800946Y-59460484D01*
X58792182Y-59464949D01*
X58620213Y-59589890D01*
X58469890Y-59740213D01*
X58344951Y-59912179D01*
X58248444Y-60101585D01*
X58182753Y-60303760D01*
X58149500Y-60513713D01*
X58149500Y-60726286D01*
X58182754Y-60936246D01*
X58200434Y-60990661D01*
X58202429Y-61060503D01*
X58170184Y-61116659D01*
X57048910Y-62237935D01*
X56987936Y-62298908D01*
X56987934Y-62298911D01*
X56944819Y-62373589D01*
X56944819Y-62373590D01*
X56922500Y-62456884D01*
X56922500Y-76706884D01*
X56922500Y-76793116D01*
X56944819Y-76876410D01*
X56987935Y-76951090D01*
X62237935Y-82201090D01*
X62298910Y-82262065D01*
X62373590Y-82305181D01*
X62456884Y-82327500D01*
X62456886Y-82327500D01*
X69293114Y-82327500D01*
X69293116Y-82327500D01*
X69376410Y-82305181D01*
X69451090Y-82262065D01*
X71110092Y-80603061D01*
X71171413Y-80569578D01*
X71236088Y-80572813D01*
X71263757Y-80581804D01*
X71473713Y-80615058D01*
X71473714Y-80615058D01*
X71686286Y-80615058D01*
X71686287Y-80615058D01*
X71896243Y-80581804D01*
X72098412Y-80516115D01*
X72287816Y-80419609D01*
X72368485Y-80361000D01*
X72459786Y-80294667D01*
X72459788Y-80294664D01*
X72459792Y-80294662D01*
X72610104Y-80144350D01*
X72610106Y-80144346D01*
X72610109Y-80144344D01*
X72695890Y-80026275D01*
X72735051Y-79972374D01*
X72739793Y-79963066D01*
X72787763Y-79912269D01*
X72855583Y-79895469D01*
X72921719Y-79918003D01*
X72960763Y-79963058D01*
X72965373Y-79972105D01*
X73004728Y-80026274D01*
X73637037Y-79393966D01*
X73654075Y-79457551D01*
X73719901Y-79571565D01*
X73812993Y-79664657D01*
X73927007Y-79730483D01*
X73990590Y-79747520D01*
X73358282Y-80379827D01*
X73358282Y-80379828D01*
X73412449Y-80419182D01*
X73601782Y-80515653D01*
X73803870Y-80581315D01*
X74013754Y-80614558D01*
X74226246Y-80614558D01*
X74436127Y-80581315D01*
X74436130Y-80581315D01*
X74638217Y-80515653D01*
X74827554Y-80419180D01*
X74881716Y-80379828D01*
X74881717Y-80379828D01*
X74249408Y-79747520D01*
X74312993Y-79730483D01*
X74427007Y-79664657D01*
X74520099Y-79571565D01*
X74585925Y-79457551D01*
X74602962Y-79393966D01*
X75235270Y-80026275D01*
X75235270Y-80026274D01*
X75274622Y-79972112D01*
X75300897Y-79920546D01*
X75371095Y-79782775D01*
X75436757Y-79580688D01*
X75436757Y-79580685D01*
X75470000Y-79370804D01*
X75470000Y-79158311D01*
X75436757Y-78948430D01*
X75436757Y-78948427D01*
X75371095Y-78746340D01*
X75274624Y-78557007D01*
X75235270Y-78502840D01*
X75235269Y-78502840D01*
X74602962Y-79135148D01*
X74585925Y-79071565D01*
X74520099Y-78957551D01*
X74427007Y-78864459D01*
X74312993Y-78798633D01*
X74249409Y-78781595D01*
X74918802Y-78112200D01*
X74980125Y-78078715D01*
X74994833Y-78079636D01*
X74994556Y-78077059D01*
X75077375Y-78068156D01*
X75212086Y-78017912D01*
X75212093Y-78017908D01*
X75327187Y-77931748D01*
X75327190Y-77931745D01*
X75413350Y-77816651D01*
X75413354Y-77816644D01*
X75463596Y-77681937D01*
X75463598Y-77681930D01*
X75469999Y-77622402D01*
X75470000Y-77622385D01*
X75470000Y-76974558D01*
X74553012Y-76974558D01*
X74585925Y-76917551D01*
X74620000Y-76790384D01*
X74620000Y-76658732D01*
X74585925Y-76531565D01*
X74553012Y-76474558D01*
X75470000Y-76474558D01*
X75470000Y-75826730D01*
X75469999Y-75826713D01*
X75463598Y-75767185D01*
X75463596Y-75767178D01*
X75413354Y-75632471D01*
X75413350Y-75632464D01*
X75327190Y-75517370D01*
X75327187Y-75517367D01*
X75212093Y-75431207D01*
X75212086Y-75431203D01*
X75077379Y-75380961D01*
X75077372Y-75380959D01*
X75017844Y-75374558D01*
X74370000Y-75374558D01*
X74370000Y-76291546D01*
X74312993Y-76258633D01*
X74185826Y-76224558D01*
X74054174Y-76224558D01*
X73927007Y-76258633D01*
X73870000Y-76291546D01*
X73870000Y-75374558D01*
X73222155Y-75374558D01*
X73162627Y-75380959D01*
X73162620Y-75380961D01*
X73027913Y-75431203D01*
X73027906Y-75431207D01*
X72912812Y-75517367D01*
X72912809Y-75517370D01*
X72826649Y-75632464D01*
X72826646Y-75632470D01*
X72777577Y-75764029D01*
X72735705Y-75819962D01*
X72670241Y-75844379D01*
X72601968Y-75829527D01*
X72573714Y-75808376D01*
X72459786Y-75694448D01*
X72287820Y-75569509D01*
X72098414Y-75473002D01*
X72098413Y-75473001D01*
X72098412Y-75473001D01*
X71896243Y-75407312D01*
X71896241Y-75407311D01*
X71896239Y-75407311D01*
X71851253Y-75400186D01*
X71788118Y-75370257D01*
X71751187Y-75310945D01*
X71752185Y-75241082D01*
X71782968Y-75190034D01*
X73262065Y-73710938D01*
X73305181Y-73636258D01*
X73327500Y-73552964D01*
X73327500Y-73466732D01*
X73327500Y-60456884D01*
X73305181Y-60373590D01*
X73262065Y-60298910D01*
X73201090Y-60237935D01*
X69531090Y-56567935D01*
X69456410Y-56524819D01*
X69456411Y-56524819D01*
X69428645Y-56517379D01*
X69373116Y-56502500D01*
X69373114Y-56502500D01*
X63253377Y-56502500D01*
X63186338Y-56482815D01*
X63140583Y-56430011D01*
X63130639Y-56360853D01*
X63153058Y-56305615D01*
X63159702Y-56296469D01*
X63195051Y-56247816D01*
X63291557Y-56058412D01*
X63357246Y-55856243D01*
X63390500Y-55646287D01*
X63390500Y-55433713D01*
X63357246Y-55223757D01*
X63291557Y-55021588D01*
X63195051Y-54832184D01*
X63195049Y-54832181D01*
X63195048Y-54832179D01*
X63070108Y-54660213D01*
X63070106Y-54660210D01*
X62919786Y-54509890D01*
X62747820Y-54384951D01*
X62747115Y-54384591D01*
X62739054Y-54380485D01*
X62688259Y-54332512D01*
X62671463Y-54264692D01*
X62693999Y-54198556D01*
X62739054Y-54159515D01*
X62747816Y-54155051D01*
X62769789Y-54139086D01*
X62919786Y-54030109D01*
X62919788Y-54030106D01*
X62919792Y-54030104D01*
X63070104Y-53879792D01*
X63070106Y-53879788D01*
X63070109Y-53879786D01*
X63195048Y-53707820D01*
X63195047Y-53707820D01*
X63195051Y-53707816D01*
X63291557Y-53518412D01*
X63357246Y-53316243D01*
X63390500Y-53106287D01*
X63390500Y-52893713D01*
X63357246Y-52683757D01*
X63291557Y-52481588D01*
X63195051Y-52292184D01*
X63195049Y-52292181D01*
X63195048Y-52292179D01*
X63070113Y-52120219D01*
X63070106Y-52120211D01*
X63070104Y-52120208D01*
X62919792Y-51969896D01*
X62919786Y-51969890D01*
X62747820Y-51844951D01*
X62558414Y-51748444D01*
X62558413Y-51748443D01*
X62558412Y-51748443D01*
X62356243Y-51682754D01*
X62356241Y-51682753D01*
X62356240Y-51682753D01*
X62194957Y-51657208D01*
X62146287Y-51649500D01*
X61933713Y-51649500D01*
X61885042Y-51657208D01*
X61723760Y-51682753D01*
X61521585Y-51748444D01*
X61332179Y-51844951D01*
X61160213Y-51969890D01*
X61009890Y-52120213D01*
X60884949Y-52292182D01*
X60880484Y-52300946D01*
X60832509Y-52351742D01*
X60764688Y-52368536D01*
X60698553Y-52345998D01*
X60659516Y-52300946D01*
X60655050Y-52292182D01*
X60530109Y-52120213D01*
X60379786Y-51969890D01*
X60207820Y-51844951D01*
X60018414Y-51748444D01*
X60018413Y-51748443D01*
X60018412Y-51748443D01*
X59816243Y-51682754D01*
X59816241Y-51682753D01*
X59816240Y-51682753D01*
X59654957Y-51657208D01*
X59606287Y-51649500D01*
X59393713Y-51649500D01*
X59345042Y-51657208D01*
X59183760Y-51682753D01*
X58981585Y-51748444D01*
X58792179Y-51844951D01*
X58620213Y-51969890D01*
X58620209Y-51969894D01*
X58539181Y-52050923D01*
X58477858Y-52084408D01*
X58408166Y-52079424D01*
X58352233Y-52037552D01*
X58327816Y-51972088D01*
X58327500Y-51963242D01*
X58327500Y-51402531D01*
X58347185Y-51335492D01*
X58399989Y-51289737D01*
X58427309Y-51280914D01*
X58451164Y-51276168D01*
X58483497Y-51269737D01*
X58629179Y-51209394D01*
X58760289Y-51121789D01*
X58871789Y-51010289D01*
X58959394Y-50879179D01*
X58961968Y-50872966D01*
X58989361Y-50806832D01*
X59019737Y-50733497D01*
X59050500Y-50578842D01*
X59050500Y-50421158D01*
X59050500Y-50421155D01*
X59050499Y-50421153D01*
X59023872Y-50287292D01*
X59019737Y-50266503D01*
X59019735Y-50266498D01*
X58959397Y-50120827D01*
X58959390Y-50120814D01*
X58871789Y-49989711D01*
X58871786Y-49989707D01*
X58760292Y-49878213D01*
X58760288Y-49878210D01*
X58629185Y-49790609D01*
X58629172Y-49790602D01*
X58483501Y-49730264D01*
X58483489Y-49730261D01*
X58328845Y-49699500D01*
X58328842Y-49699500D01*
X58171158Y-49699500D01*
X58150992Y-49703511D01*
X58081400Y-49697282D01*
X58026223Y-49654418D01*
X58005185Y-49606087D01*
X57992737Y-49543503D01*
X57975427Y-49501713D01*
X57932397Y-49397827D01*
X57932390Y-49397814D01*
X57844789Y-49266711D01*
X57844786Y-49266707D01*
X57733292Y-49155213D01*
X57733288Y-49155210D01*
X57602185Y-49067609D01*
X57602172Y-49067602D01*
X57456501Y-49007264D01*
X57456489Y-49007261D01*
X57301845Y-48976500D01*
X57301842Y-48976500D01*
X57144158Y-48976500D01*
X57144155Y-48976500D01*
X56989510Y-49007261D01*
X56989498Y-49007264D01*
X56843827Y-49067602D01*
X56843814Y-49067609D01*
X56712711Y-49155210D01*
X56712707Y-49155213D01*
X56601213Y-49266707D01*
X56601210Y-49266711D01*
X56513609Y-49397814D01*
X56513602Y-49397827D01*
X56453264Y-49543498D01*
X56453261Y-49543510D01*
X56422500Y-49698153D01*
X54500500Y-49698153D01*
X54500500Y-40449153D01*
X72199500Y-40449153D01*
X72199500Y-40606846D01*
X72230261Y-40761489D01*
X72230264Y-40761501D01*
X72290602Y-40907172D01*
X72290609Y-40907185D01*
X72378210Y-41038288D01*
X72378213Y-41038292D01*
X72489707Y-41149786D01*
X72489711Y-41149789D01*
X72620814Y-41237390D01*
X72620827Y-41237397D01*
X72724126Y-41280184D01*
X72766503Y-41297737D01*
X72921153Y-41328499D01*
X72921156Y-41328500D01*
X72921158Y-41328500D01*
X73078844Y-41328500D01*
X73078845Y-41328499D01*
X73233497Y-41297737D01*
X73262554Y-41285701D01*
X73332023Y-41278231D01*
X73394503Y-41309505D01*
X73397689Y-41312580D01*
X74847174Y-42762065D01*
X74921854Y-42805181D01*
X75005148Y-42827500D01*
X75005150Y-42827500D01*
X80293114Y-42827500D01*
X80293116Y-42827500D01*
X80376410Y-42805181D01*
X80451090Y-42762065D01*
X80861336Y-42351819D01*
X80922659Y-42318334D01*
X80949017Y-42315500D01*
X83096320Y-42315500D01*
X83163359Y-42335185D01*
X83209114Y-42387989D01*
X83214251Y-42401182D01*
X83248441Y-42506409D01*
X83344951Y-42695820D01*
X83469890Y-42867786D01*
X83620213Y-43018109D01*
X83792182Y-43143050D01*
X83800946Y-43147516D01*
X83851742Y-43195491D01*
X83868536Y-43263312D01*
X83845998Y-43329447D01*
X83800946Y-43368484D01*
X83792182Y-43372949D01*
X83620213Y-43497890D01*
X83469890Y-43648213D01*
X83344951Y-43820179D01*
X83248444Y-44009585D01*
X83182753Y-44211760D01*
X83149500Y-44421713D01*
X83149500Y-44634287D01*
X83159534Y-44697644D01*
X83182753Y-44844239D01*
X83248444Y-45046414D01*
X83344951Y-45235820D01*
X83469890Y-45407786D01*
X83620213Y-45558109D01*
X83792182Y-45683050D01*
X83800946Y-45687516D01*
X83851742Y-45735491D01*
X83868536Y-45803312D01*
X83845998Y-45869447D01*
X83800946Y-45908484D01*
X83792182Y-45912949D01*
X83620213Y-46037890D01*
X83469890Y-46188213D01*
X83344951Y-46360179D01*
X83248444Y-46549585D01*
X83182753Y-46751760D01*
X83149500Y-46961713D01*
X83149500Y-47174287D01*
X83159534Y-47237644D01*
X83182753Y-47384239D01*
X83248444Y-47586414D01*
X83344951Y-47775820D01*
X83469890Y-47947786D01*
X83620213Y-48098109D01*
X83792182Y-48223050D01*
X83800946Y-48227516D01*
X83851742Y-48275491D01*
X83868536Y-48343312D01*
X83845998Y-48409447D01*
X83800946Y-48448484D01*
X83792182Y-48452949D01*
X83620213Y-48577890D01*
X83469890Y-48728213D01*
X83344951Y-48900179D01*
X83248444Y-49089585D01*
X83182753Y-49291760D01*
X83165956Y-49397814D01*
X83149500Y-49501713D01*
X83149500Y-49714287D01*
X83151810Y-49728871D01*
X83175463Y-49878213D01*
X83182754Y-49924243D01*
X83246628Y-50120827D01*
X83248444Y-50126414D01*
X83344951Y-50315820D01*
X83469890Y-50487786D01*
X83620213Y-50638109D01*
X83792179Y-50763048D01*
X83792181Y-50763049D01*
X83792184Y-50763051D01*
X83801493Y-50767794D01*
X83852290Y-50815766D01*
X83869087Y-50883587D01*
X83846552Y-50949722D01*
X83801505Y-50988760D01*
X83792446Y-50993376D01*
X83792440Y-50993380D01*
X83738282Y-51032727D01*
X83738282Y-51032728D01*
X84370591Y-51665037D01*
X84307007Y-51682075D01*
X84192993Y-51747901D01*
X84099901Y-51840993D01*
X84034075Y-51955007D01*
X84017037Y-52018591D01*
X83384728Y-51386282D01*
X83384727Y-51386282D01*
X83345380Y-51440439D01*
X83248904Y-51629782D01*
X83183242Y-51831869D01*
X83183242Y-51831872D01*
X83150000Y-52041753D01*
X83150000Y-52254246D01*
X83183242Y-52464127D01*
X83183242Y-52464130D01*
X83248904Y-52666217D01*
X83345375Y-52855550D01*
X83384728Y-52909716D01*
X84017037Y-52277408D01*
X84034075Y-52340993D01*
X84099901Y-52455007D01*
X84192993Y-52548099D01*
X84307007Y-52613925D01*
X84370590Y-52630962D01*
X83738282Y-53263269D01*
X83738282Y-53263270D01*
X83792452Y-53302626D01*
X83792451Y-53302626D01*
X83801495Y-53307234D01*
X83852292Y-53355208D01*
X83869087Y-53423029D01*
X83846550Y-53489164D01*
X83801499Y-53528202D01*
X83792182Y-53532949D01*
X83620213Y-53657890D01*
X83469890Y-53808213D01*
X83344951Y-53980179D01*
X83248444Y-54169585D01*
X83182753Y-54371760D01*
X83150159Y-54577552D01*
X83149500Y-54581713D01*
X83149500Y-54794287D01*
X83155502Y-54832179D01*
X83182753Y-55004239D01*
X83248444Y-55206414D01*
X83344951Y-55395820D01*
X83469890Y-55567786D01*
X83620213Y-55718109D01*
X83792182Y-55843050D01*
X83800946Y-55847516D01*
X83851742Y-55895491D01*
X83868536Y-55963312D01*
X83845998Y-56029447D01*
X83800946Y-56068484D01*
X83792182Y-56072949D01*
X83620213Y-56197890D01*
X83469890Y-56348213D01*
X83344951Y-56520179D01*
X83248444Y-56709585D01*
X83182753Y-56911760D01*
X83157013Y-57074278D01*
X83149500Y-57121713D01*
X83149500Y-57334287D01*
X83152683Y-57354385D01*
X83182211Y-57540819D01*
X83182754Y-57544243D01*
X83222581Y-57666818D01*
X83248444Y-57746414D01*
X83344951Y-57935820D01*
X83469890Y-58107786D01*
X83620213Y-58258109D01*
X83792182Y-58383050D01*
X83800946Y-58387516D01*
X83851742Y-58435491D01*
X83868536Y-58503312D01*
X83845998Y-58569447D01*
X83800946Y-58608484D01*
X83792182Y-58612949D01*
X83620213Y-58737890D01*
X83469890Y-58888213D01*
X83344951Y-59060179D01*
X83248444Y-59249585D01*
X83182753Y-59451760D01*
X83174604Y-59503211D01*
X83149500Y-59661713D01*
X83149500Y-59874287D01*
X83150121Y-59878210D01*
X83178077Y-60054717D01*
X83182754Y-60084243D01*
X83241976Y-60266510D01*
X83248444Y-60286414D01*
X83344951Y-60475820D01*
X83469890Y-60647786D01*
X83620213Y-60798109D01*
X83792182Y-60923050D01*
X83800946Y-60927516D01*
X83851742Y-60975491D01*
X83868536Y-61043312D01*
X83845998Y-61109447D01*
X83800946Y-61148484D01*
X83792182Y-61152949D01*
X83620213Y-61277890D01*
X83469890Y-61428213D01*
X83344951Y-61600179D01*
X83248444Y-61789585D01*
X83182753Y-61991760D01*
X83158524Y-62144735D01*
X83149500Y-62201713D01*
X83149500Y-62414287D01*
X83156247Y-62456884D01*
X83182364Y-62621786D01*
X83182754Y-62624243D01*
X83240023Y-62800499D01*
X83248444Y-62826414D01*
X83344951Y-63015820D01*
X83469890Y-63187786D01*
X83620213Y-63338109D01*
X83792179Y-63463048D01*
X83792181Y-63463049D01*
X83792184Y-63463051D01*
X83801493Y-63467794D01*
X83852290Y-63515766D01*
X83869087Y-63583587D01*
X83846552Y-63649722D01*
X83801505Y-63688760D01*
X83792446Y-63693376D01*
X83792440Y-63693380D01*
X83738282Y-63732727D01*
X83738282Y-63732728D01*
X84370591Y-64365037D01*
X84307007Y-64382075D01*
X84192993Y-64447901D01*
X84099901Y-64540993D01*
X84034075Y-64655007D01*
X84017037Y-64718591D01*
X83384728Y-64086282D01*
X83384727Y-64086282D01*
X83345380Y-64140439D01*
X83248904Y-64329782D01*
X83183242Y-64531869D01*
X83183242Y-64531872D01*
X83150000Y-64741753D01*
X83150000Y-64954246D01*
X83183242Y-65164127D01*
X83183242Y-65164130D01*
X83248904Y-65366217D01*
X83345375Y-65555550D01*
X83384728Y-65609716D01*
X84017037Y-64977408D01*
X84034075Y-65040993D01*
X84099901Y-65155007D01*
X84192993Y-65248099D01*
X84307007Y-65313925D01*
X84370590Y-65330962D01*
X83738282Y-65963269D01*
X83738282Y-65963270D01*
X83792452Y-66002626D01*
X83792451Y-66002626D01*
X83801495Y-66007234D01*
X83852292Y-66055208D01*
X83869087Y-66123029D01*
X83846550Y-66189164D01*
X83801499Y-66228202D01*
X83792182Y-66232949D01*
X83620213Y-66357890D01*
X83469890Y-66508213D01*
X83344951Y-66680179D01*
X83248444Y-66869585D01*
X83182753Y-67071760D01*
X83176419Y-67111753D01*
X83149500Y-67281713D01*
X83149500Y-67494287D01*
X83154366Y-67525007D01*
X83182753Y-67704239D01*
X83248444Y-67906414D01*
X83344951Y-68095820D01*
X83469890Y-68267786D01*
X83620213Y-68418109D01*
X83792182Y-68543050D01*
X83800946Y-68547516D01*
X83851742Y-68595491D01*
X83868536Y-68663312D01*
X83845998Y-68729447D01*
X83800946Y-68768484D01*
X83792182Y-68772949D01*
X83620213Y-68897890D01*
X83469890Y-69048213D01*
X83344951Y-69220179D01*
X83248444Y-69409585D01*
X83182753Y-69611760D01*
X83176419Y-69651753D01*
X83149500Y-69821713D01*
X83149500Y-70034287D01*
X83182754Y-70244243D01*
X83237081Y-70411445D01*
X83248444Y-70446414D01*
X83344951Y-70635820D01*
X83469890Y-70807786D01*
X83620213Y-70958109D01*
X83792182Y-71083050D01*
X83800946Y-71087516D01*
X83851742Y-71135491D01*
X83868536Y-71203312D01*
X83845998Y-71269447D01*
X83800946Y-71308484D01*
X83792182Y-71312949D01*
X83620213Y-71437890D01*
X83469890Y-71588213D01*
X83344951Y-71760179D01*
X83248444Y-71949585D01*
X83182753Y-72151760D01*
X83176419Y-72191753D01*
X83149500Y-72361713D01*
X83149500Y-72574287D01*
X83182754Y-72784243D01*
X83237081Y-72951445D01*
X83248444Y-72986414D01*
X83344951Y-73175820D01*
X83469890Y-73347786D01*
X83620213Y-73498109D01*
X83792182Y-73623050D01*
X83800946Y-73627516D01*
X83851742Y-73675491D01*
X83868536Y-73743312D01*
X83845998Y-73809447D01*
X83800946Y-73848484D01*
X83792182Y-73852949D01*
X83620213Y-73977890D01*
X83469890Y-74128213D01*
X83344951Y-74300179D01*
X83248444Y-74489585D01*
X83182753Y-74691760D01*
X83176419Y-74731753D01*
X83149500Y-74901713D01*
X83149500Y-75114287D01*
X83159534Y-75177644D01*
X83180647Y-75310945D01*
X83182754Y-75324243D01*
X83237081Y-75491445D01*
X83248444Y-75526414D01*
X83344951Y-75715820D01*
X83469890Y-75887786D01*
X83620213Y-76038109D01*
X83792179Y-76163048D01*
X83792181Y-76163049D01*
X83792184Y-76163051D01*
X83801493Y-76167794D01*
X83852290Y-76215766D01*
X83869087Y-76283587D01*
X83846552Y-76349722D01*
X83801505Y-76388760D01*
X83792446Y-76393376D01*
X83792440Y-76393380D01*
X83738282Y-76432727D01*
X83738282Y-76432728D01*
X84370591Y-77065037D01*
X84307007Y-77082075D01*
X84192993Y-77147901D01*
X84099901Y-77240993D01*
X84034075Y-77355007D01*
X84017037Y-77418591D01*
X83384728Y-76786282D01*
X83384727Y-76786282D01*
X83345380Y-76840439D01*
X83248904Y-77029782D01*
X83183242Y-77231869D01*
X83183242Y-77231872D01*
X83150000Y-77441753D01*
X83150000Y-77654246D01*
X83183242Y-77864127D01*
X83183242Y-77864130D01*
X83248904Y-78066217D01*
X83345375Y-78255550D01*
X83384728Y-78309716D01*
X84017037Y-77677408D01*
X84034075Y-77740993D01*
X84099901Y-77855007D01*
X84192993Y-77948099D01*
X84307007Y-78013925D01*
X84370590Y-78030962D01*
X83738282Y-78663269D01*
X83738282Y-78663270D01*
X83792452Y-78702626D01*
X83792451Y-78702626D01*
X83801495Y-78707234D01*
X83852292Y-78755208D01*
X83869087Y-78823029D01*
X83846550Y-78889164D01*
X83801499Y-78928202D01*
X83792182Y-78932949D01*
X83620213Y-79057890D01*
X83469890Y-79208213D01*
X83344951Y-79380179D01*
X83248444Y-79569585D01*
X83182753Y-79771760D01*
X83163160Y-79895469D01*
X83149500Y-79981713D01*
X83149500Y-80194287D01*
X83182754Y-80404243D01*
X83240447Y-80581804D01*
X83248444Y-80606414D01*
X83344951Y-80795820D01*
X83469890Y-80967786D01*
X83620213Y-81118109D01*
X83792182Y-81243050D01*
X83800946Y-81247516D01*
X83851742Y-81295491D01*
X83868536Y-81363312D01*
X83845998Y-81429447D01*
X83800946Y-81468484D01*
X83792182Y-81472949D01*
X83620213Y-81597890D01*
X83469890Y-81748213D01*
X83344951Y-81920179D01*
X83248444Y-82109585D01*
X83182753Y-82311760D01*
X83157092Y-82473780D01*
X83149500Y-82521713D01*
X83149500Y-82734287D01*
X83150400Y-82739968D01*
X83174862Y-82894419D01*
X83182754Y-82944243D01*
X83247928Y-83144828D01*
X83248444Y-83146414D01*
X83344951Y-83335820D01*
X83469890Y-83507786D01*
X83620213Y-83658109D01*
X83792179Y-83783048D01*
X83792181Y-83783049D01*
X83792184Y-83783051D01*
X83981588Y-83879557D01*
X84183757Y-83945246D01*
X84393713Y-83978500D01*
X84393714Y-83978500D01*
X84606286Y-83978500D01*
X84606287Y-83978500D01*
X84816243Y-83945246D01*
X85018412Y-83879557D01*
X85207816Y-83783051D01*
X85269752Y-83738052D01*
X85379786Y-83658109D01*
X85379788Y-83658106D01*
X85379792Y-83658104D01*
X85530104Y-83507792D01*
X85530106Y-83507788D01*
X85530109Y-83507786D01*
X85655048Y-83335820D01*
X85655047Y-83335820D01*
X85655051Y-83335816D01*
X85751557Y-83146412D01*
X85817246Y-82944243D01*
X85850500Y-82734287D01*
X85850500Y-82521713D01*
X85817246Y-82311757D01*
X85751557Y-82109588D01*
X85655051Y-81920184D01*
X85553483Y-81780387D01*
X87059500Y-81780387D01*
X87059500Y-81955612D01*
X87093681Y-82127450D01*
X87093684Y-82127462D01*
X87160732Y-82289331D01*
X87160734Y-82289334D01*
X87160735Y-82289336D01*
X87176542Y-82312992D01*
X87176886Y-82313508D01*
X87176983Y-82313724D01*
X87177578Y-82314543D01*
X87178920Y-82316552D01*
X87258079Y-82435023D01*
X87258081Y-82435025D01*
X87276894Y-82453837D01*
X87283796Y-82460739D01*
X87286525Y-82464495D01*
X87296837Y-82473780D01*
X87381977Y-82558920D01*
X87418492Y-82583319D01*
X87425020Y-82589197D01*
X87441715Y-82598835D01*
X87445092Y-82601092D01*
X87527659Y-82656262D01*
X87527660Y-82656262D01*
X87527664Y-82656265D01*
X87575515Y-82676085D01*
X87586415Y-82682379D01*
X87606333Y-82688850D01*
X87689542Y-82723317D01*
X87748509Y-82735046D01*
X87763657Y-82739968D01*
X87783996Y-82742105D01*
X87861392Y-82757500D01*
X87930457Y-82757500D01*
X87949000Y-82759449D01*
X87967543Y-82757500D01*
X88036607Y-82757500D01*
X88036608Y-82757500D01*
X88114004Y-82742104D01*
X88134343Y-82739968D01*
X88149485Y-82735047D01*
X88208458Y-82723317D01*
X88291678Y-82688846D01*
X88311585Y-82682379D01*
X88322484Y-82676085D01*
X88370336Y-82656265D01*
X88456295Y-82598828D01*
X88472980Y-82589197D01*
X88479505Y-82583320D01*
X88516023Y-82558920D01*
X88601172Y-82473770D01*
X88611475Y-82464495D01*
X88614200Y-82460742D01*
X88639920Y-82435023D01*
X88720432Y-82314527D01*
X88721017Y-82313724D01*
X88721111Y-82313511D01*
X88737265Y-82289336D01*
X88804317Y-82127458D01*
X88838500Y-81955608D01*
X88838500Y-81780392D01*
X88838499Y-81780387D01*
X98459500Y-81780387D01*
X98459500Y-81955612D01*
X98493681Y-82127450D01*
X98493684Y-82127462D01*
X98560732Y-82289331D01*
X98560734Y-82289334D01*
X98560735Y-82289336D01*
X98576542Y-82312992D01*
X98576886Y-82313508D01*
X98576983Y-82313724D01*
X98577578Y-82314543D01*
X98578920Y-82316552D01*
X98658079Y-82435023D01*
X98658081Y-82435025D01*
X98676894Y-82453837D01*
X98683796Y-82460739D01*
X98686525Y-82464495D01*
X98696837Y-82473780D01*
X98781977Y-82558920D01*
X98818492Y-82583319D01*
X98825020Y-82589197D01*
X98841715Y-82598835D01*
X98845092Y-82601092D01*
X98927659Y-82656262D01*
X98927660Y-82656262D01*
X98927664Y-82656265D01*
X98975515Y-82676085D01*
X98986415Y-82682379D01*
X99006333Y-82688850D01*
X99089542Y-82723317D01*
X99148509Y-82735046D01*
X99163657Y-82739968D01*
X99183996Y-82742105D01*
X99261392Y-82757500D01*
X99330457Y-82757500D01*
X99349000Y-82759449D01*
X99367543Y-82757500D01*
X99436607Y-82757500D01*
X99436608Y-82757500D01*
X99514004Y-82742104D01*
X99534343Y-82739968D01*
X99549485Y-82735047D01*
X99608458Y-82723317D01*
X99691678Y-82688846D01*
X99711585Y-82682379D01*
X99722484Y-82676085D01*
X99770336Y-82656265D01*
X99856295Y-82598828D01*
X99872980Y-82589197D01*
X99879505Y-82583320D01*
X99916023Y-82558920D01*
X100001172Y-82473770D01*
X100011475Y-82464495D01*
X100014200Y-82460742D01*
X100039920Y-82435023D01*
X100120432Y-82314527D01*
X100121017Y-82313724D01*
X100121111Y-82313511D01*
X100137265Y-82289336D01*
X100204317Y-82127458D01*
X100238500Y-81955608D01*
X100238500Y-81780392D01*
X100204317Y-81608542D01*
X100176346Y-81541014D01*
X100137267Y-81446668D01*
X100137265Y-81446665D01*
X100137265Y-81446664D01*
X100121111Y-81422488D01*
X100121017Y-81422276D01*
X100120429Y-81421468D01*
X100039920Y-81300977D01*
X100039918Y-81300974D01*
X100021107Y-81282164D01*
X100014203Y-81275260D01*
X100011475Y-81271505D01*
X100001162Y-81262219D01*
X99998877Y-81259934D01*
X99916023Y-81177080D01*
X99916022Y-81177079D01*
X99916021Y-81177078D01*
X99886943Y-81157649D01*
X99886943Y-81157648D01*
X99879506Y-81152679D01*
X99872980Y-81146803D01*
X99856282Y-81137162D01*
X99852920Y-81134916D01*
X99770336Y-81079735D01*
X99770332Y-81079733D01*
X99729995Y-81063025D01*
X99722486Y-81059915D01*
X99711585Y-81053621D01*
X99691663Y-81047147D01*
X99608458Y-81012683D01*
X99608456Y-81012682D01*
X99608451Y-81012680D01*
X99556660Y-81002379D01*
X99556658Y-81002379D01*
X99549486Y-81000952D01*
X99534343Y-80996032D01*
X99514009Y-80993894D01*
X99508440Y-80992787D01*
X99508432Y-80992786D01*
X99453553Y-80981870D01*
X99436608Y-80978500D01*
X99367534Y-80978500D01*
X99349000Y-80976552D01*
X99330466Y-80978500D01*
X99261392Y-80978500D01*
X99189568Y-80992785D01*
X99189567Y-80992784D01*
X99183973Y-80993896D01*
X99163657Y-80996032D01*
X99148527Y-81000947D01*
X99141348Y-81002376D01*
X99141342Y-81002378D01*
X99089546Y-81012681D01*
X99010834Y-81045283D01*
X99010835Y-81045284D01*
X99006327Y-81047150D01*
X98986415Y-81053621D01*
X98975513Y-81059914D01*
X98968003Y-81063026D01*
X98968001Y-81063026D01*
X98927661Y-81079736D01*
X98845084Y-81134909D01*
X98845085Y-81134910D01*
X98841689Y-81137178D01*
X98825020Y-81146803D01*
X98818499Y-81152673D01*
X98811069Y-81157639D01*
X98811063Y-81157644D01*
X98781974Y-81177082D01*
X98781969Y-81177086D01*
X98699119Y-81259935D01*
X98696806Y-81262247D01*
X98686525Y-81271505D01*
X98683804Y-81275249D01*
X98658084Y-81300970D01*
X98658077Y-81300980D01*
X98578896Y-81419478D01*
X98578897Y-81419479D01*
X98577547Y-81421499D01*
X98576983Y-81422276D01*
X98576892Y-81422479D01*
X98574431Y-81426164D01*
X98574429Y-81426164D01*
X98574428Y-81426168D01*
X98560735Y-81446662D01*
X98560733Y-81446665D01*
X98493684Y-81608537D01*
X98493681Y-81608549D01*
X98459500Y-81780387D01*
X88838499Y-81780387D01*
X88804317Y-81608542D01*
X88776346Y-81541014D01*
X88737267Y-81446668D01*
X88737265Y-81446665D01*
X88737265Y-81446664D01*
X88721111Y-81422488D01*
X88721017Y-81422276D01*
X88720429Y-81421468D01*
X88639920Y-81300977D01*
X88639918Y-81300974D01*
X88621107Y-81282164D01*
X88614203Y-81275260D01*
X88611475Y-81271505D01*
X88601162Y-81262219D01*
X88598877Y-81259934D01*
X88516023Y-81177080D01*
X88516022Y-81177079D01*
X88516021Y-81177078D01*
X88486943Y-81157649D01*
X88486943Y-81157648D01*
X88479506Y-81152679D01*
X88472980Y-81146803D01*
X88456282Y-81137162D01*
X88452920Y-81134916D01*
X88370336Y-81079735D01*
X88370332Y-81079733D01*
X88329995Y-81063025D01*
X88322486Y-81059915D01*
X88311585Y-81053621D01*
X88291663Y-81047147D01*
X88208458Y-81012683D01*
X88208456Y-81012682D01*
X88208451Y-81012680D01*
X88156660Y-81002379D01*
X88156658Y-81002379D01*
X88149486Y-81000952D01*
X88134343Y-80996032D01*
X88114009Y-80993894D01*
X88108440Y-80992787D01*
X88108432Y-80992786D01*
X88053553Y-80981870D01*
X88036608Y-80978500D01*
X87967534Y-80978500D01*
X87949000Y-80976552D01*
X87930466Y-80978500D01*
X87861392Y-80978500D01*
X87789568Y-80992785D01*
X87789567Y-80992784D01*
X87783973Y-80993896D01*
X87763657Y-80996032D01*
X87748527Y-81000947D01*
X87741348Y-81002376D01*
X87741342Y-81002378D01*
X87689546Y-81012681D01*
X87610834Y-81045283D01*
X87610835Y-81045284D01*
X87606327Y-81047150D01*
X87586415Y-81053621D01*
X87575513Y-81059914D01*
X87568003Y-81063026D01*
X87568001Y-81063026D01*
X87527661Y-81079736D01*
X87445084Y-81134909D01*
X87445085Y-81134910D01*
X87441689Y-81137178D01*
X87425020Y-81146803D01*
X87418499Y-81152673D01*
X87411069Y-81157639D01*
X87411063Y-81157644D01*
X87381974Y-81177082D01*
X87381969Y-81177086D01*
X87299119Y-81259935D01*
X87296806Y-81262247D01*
X87286525Y-81271505D01*
X87283804Y-81275249D01*
X87258084Y-81300970D01*
X87258077Y-81300980D01*
X87178896Y-81419478D01*
X87178897Y-81419479D01*
X87177547Y-81421499D01*
X87176983Y-81422276D01*
X87176892Y-81422479D01*
X87174431Y-81426164D01*
X87174429Y-81426164D01*
X87174428Y-81426168D01*
X87160735Y-81446662D01*
X87160733Y-81446665D01*
X87093684Y-81608537D01*
X87093681Y-81608549D01*
X87059500Y-81780387D01*
X85553483Y-81780387D01*
X85530104Y-81748208D01*
X85379792Y-81597896D01*
X85379786Y-81597890D01*
X85207820Y-81472951D01*
X85207115Y-81472591D01*
X85199054Y-81468485D01*
X85148259Y-81420512D01*
X85131463Y-81352692D01*
X85153999Y-81286556D01*
X85199054Y-81247515D01*
X85207816Y-81243051D01*
X85298610Y-81177086D01*
X85379786Y-81118109D01*
X85379788Y-81118106D01*
X85379792Y-81118104D01*
X85530104Y-80967792D01*
X85530106Y-80967788D01*
X85530109Y-80967786D01*
X85655048Y-80795820D01*
X85655047Y-80795820D01*
X85655051Y-80795816D01*
X85751557Y-80606412D01*
X85817246Y-80404243D01*
X85850500Y-80194287D01*
X85850500Y-79981713D01*
X85817246Y-79771757D01*
X85751557Y-79569588D01*
X85655051Y-79380184D01*
X85655049Y-79380181D01*
X85655048Y-79380179D01*
X85530109Y-79208213D01*
X85379786Y-79057890D01*
X85207817Y-78932949D01*
X85198504Y-78928204D01*
X85147707Y-78880230D01*
X85130912Y-78812409D01*
X85153449Y-78746274D01*
X85198507Y-78707232D01*
X85207555Y-78702622D01*
X85261716Y-78663270D01*
X85261717Y-78663270D01*
X84629408Y-78030962D01*
X84692993Y-78013925D01*
X84807007Y-77948099D01*
X84900099Y-77855007D01*
X84965925Y-77740993D01*
X84982962Y-77677408D01*
X85615270Y-78309717D01*
X85615270Y-78309716D01*
X85654622Y-78255554D01*
X85751095Y-78066217D01*
X85816757Y-77864130D01*
X85816757Y-77864127D01*
X85850000Y-77654246D01*
X85850000Y-77441753D01*
X85819484Y-77249085D01*
X85819484Y-77249084D01*
X85816758Y-77231874D01*
X85816757Y-77231869D01*
X85751095Y-77029782D01*
X85654624Y-76840449D01*
X85615270Y-76786282D01*
X85615269Y-76786282D01*
X84982962Y-77418590D01*
X84965925Y-77355007D01*
X84900099Y-77240993D01*
X84807007Y-77147901D01*
X84692993Y-77082075D01*
X84629409Y-77065037D01*
X85261716Y-76432728D01*
X85207547Y-76393373D01*
X85207547Y-76393372D01*
X85198500Y-76388763D01*
X85147706Y-76340788D01*
X85130912Y-76272966D01*
X85153451Y-76206832D01*
X85198508Y-76167793D01*
X85207816Y-76163051D01*
X85308975Y-76089555D01*
X85379786Y-76038109D01*
X85379788Y-76038106D01*
X85379792Y-76038104D01*
X85530104Y-75887792D01*
X85530106Y-75887788D01*
X85530109Y-75887786D01*
X85655048Y-75715820D01*
X85655047Y-75715820D01*
X85655051Y-75715816D01*
X85751557Y-75526412D01*
X85817246Y-75324243D01*
X85850500Y-75114287D01*
X85850500Y-74901713D01*
X85817246Y-74691757D01*
X85751557Y-74489588D01*
X85655051Y-74300184D01*
X85655049Y-74300181D01*
X85655048Y-74300179D01*
X85530109Y-74128213D01*
X85379786Y-73977890D01*
X85207820Y-73852951D01*
X85207115Y-73852591D01*
X85199054Y-73848485D01*
X85148259Y-73800512D01*
X85131463Y-73732692D01*
X85153999Y-73666556D01*
X85199054Y-73627515D01*
X85207816Y-73623051D01*
X85258203Y-73586443D01*
X85379786Y-73498109D01*
X85379788Y-73498106D01*
X85379792Y-73498104D01*
X85530104Y-73347792D01*
X85530106Y-73347788D01*
X85530109Y-73347786D01*
X85655048Y-73175820D01*
X85655047Y-73175820D01*
X85655051Y-73175816D01*
X85751557Y-72986412D01*
X85817246Y-72784243D01*
X85850500Y-72574287D01*
X85850500Y-72361713D01*
X85817246Y-72151757D01*
X85751557Y-71949588D01*
X85655051Y-71760184D01*
X85655049Y-71760181D01*
X85655048Y-71760179D01*
X85530109Y-71588213D01*
X85379786Y-71437890D01*
X85207820Y-71312951D01*
X85207115Y-71312591D01*
X85199054Y-71308485D01*
X85148259Y-71260512D01*
X85131463Y-71192692D01*
X85153999Y-71126556D01*
X85199054Y-71087515D01*
X85207816Y-71083051D01*
X85258203Y-71046443D01*
X85379786Y-70958109D01*
X85379788Y-70958106D01*
X85379792Y-70958104D01*
X85530104Y-70807792D01*
X85530106Y-70807788D01*
X85530109Y-70807786D01*
X85655048Y-70635820D01*
X85655047Y-70635820D01*
X85655051Y-70635816D01*
X85751557Y-70446412D01*
X85817246Y-70244243D01*
X85850500Y-70034287D01*
X85850500Y-69821713D01*
X85817246Y-69611757D01*
X85751557Y-69409588D01*
X85655051Y-69220184D01*
X85655049Y-69220181D01*
X85655048Y-69220179D01*
X85530109Y-69048213D01*
X85379786Y-68897890D01*
X85207820Y-68772951D01*
X85207115Y-68772591D01*
X85199054Y-68768485D01*
X85148259Y-68720512D01*
X85131463Y-68652692D01*
X85153999Y-68586556D01*
X85199054Y-68547515D01*
X85207816Y-68543051D01*
X85290894Y-68482692D01*
X85379786Y-68418109D01*
X85379788Y-68418106D01*
X85379792Y-68418104D01*
X85530104Y-68267792D01*
X85530106Y-68267788D01*
X85530109Y-68267786D01*
X85655048Y-68095820D01*
X85655047Y-68095820D01*
X85655051Y-68095816D01*
X85751557Y-67906412D01*
X85817246Y-67704243D01*
X85850500Y-67494287D01*
X85850500Y-67281713D01*
X85817246Y-67071757D01*
X85751557Y-66869588D01*
X85655051Y-66680184D01*
X85655049Y-66680181D01*
X85655048Y-66680179D01*
X85530109Y-66508213D01*
X85379786Y-66357890D01*
X85207817Y-66232949D01*
X85198504Y-66228204D01*
X85147707Y-66180230D01*
X85130912Y-66112409D01*
X85153449Y-66046274D01*
X85198507Y-66007232D01*
X85207555Y-66002622D01*
X85261716Y-65963270D01*
X85261717Y-65963270D01*
X84629408Y-65330962D01*
X84692993Y-65313925D01*
X84807007Y-65248099D01*
X84900099Y-65155007D01*
X84965925Y-65040993D01*
X84982962Y-64977408D01*
X85615270Y-65609717D01*
X85615270Y-65609716D01*
X85654622Y-65555554D01*
X85751095Y-65366217D01*
X85816757Y-65164130D01*
X85816757Y-65164127D01*
X85850000Y-64954246D01*
X85850000Y-64741753D01*
X85819484Y-64549085D01*
X85819484Y-64549084D01*
X85816758Y-64531874D01*
X85816757Y-64531869D01*
X85751095Y-64329782D01*
X85654624Y-64140449D01*
X85615270Y-64086282D01*
X85615269Y-64086282D01*
X84982962Y-64718590D01*
X84965925Y-64655007D01*
X84900099Y-64540993D01*
X84807007Y-64447901D01*
X84692993Y-64382075D01*
X84629409Y-64365037D01*
X85261716Y-63732728D01*
X85207547Y-63693373D01*
X85207547Y-63693372D01*
X85198500Y-63688763D01*
X85147706Y-63640788D01*
X85130912Y-63572966D01*
X85153451Y-63506832D01*
X85198508Y-63467793D01*
X85207816Y-63463051D01*
X85287007Y-63405515D01*
X85379786Y-63338109D01*
X85379788Y-63338106D01*
X85379792Y-63338104D01*
X85530104Y-63187792D01*
X85530106Y-63187788D01*
X85530109Y-63187786D01*
X85655048Y-63015820D01*
X85655047Y-63015820D01*
X85655051Y-63015816D01*
X85751557Y-62826412D01*
X85817246Y-62624243D01*
X85850500Y-62414287D01*
X85850500Y-62201713D01*
X85817246Y-61991757D01*
X85751557Y-61789588D01*
X85655051Y-61600184D01*
X85655049Y-61600181D01*
X85655048Y-61600179D01*
X85530109Y-61428213D01*
X85379786Y-61277890D01*
X85207820Y-61152951D01*
X85207115Y-61152591D01*
X85199054Y-61148485D01*
X85148259Y-61100512D01*
X85131463Y-61032692D01*
X85153999Y-60966556D01*
X85199054Y-60927515D01*
X85207816Y-60923051D01*
X85288115Y-60864711D01*
X85379786Y-60798109D01*
X85379788Y-60798106D01*
X85379792Y-60798104D01*
X85530104Y-60647792D01*
X85530106Y-60647788D01*
X85530109Y-60647786D01*
X85655048Y-60475820D01*
X85655047Y-60475820D01*
X85655051Y-60475816D01*
X85751557Y-60286412D01*
X85817246Y-60084243D01*
X85850500Y-59874287D01*
X85850500Y-59661713D01*
X85817246Y-59451757D01*
X85751557Y-59249588D01*
X85655051Y-59060184D01*
X85655049Y-59060181D01*
X85655048Y-59060179D01*
X85530109Y-58888213D01*
X85379786Y-58737890D01*
X85207820Y-58612951D01*
X85207115Y-58612591D01*
X85199054Y-58608485D01*
X85148259Y-58560512D01*
X85131463Y-58492692D01*
X85153999Y-58426556D01*
X85199054Y-58387515D01*
X85207816Y-58383051D01*
X85248740Y-58353318D01*
X85379786Y-58258109D01*
X85379788Y-58258106D01*
X85379792Y-58258104D01*
X85530104Y-58107792D01*
X85530106Y-58107788D01*
X85530109Y-58107786D01*
X85655048Y-57935820D01*
X85655047Y-57935820D01*
X85655051Y-57935816D01*
X85751557Y-57746412D01*
X85817246Y-57544243D01*
X85850500Y-57334287D01*
X85850500Y-57121713D01*
X85817246Y-56911757D01*
X85751557Y-56709588D01*
X85655051Y-56520184D01*
X85655049Y-56520181D01*
X85655048Y-56520179D01*
X85530109Y-56348213D01*
X85379786Y-56197890D01*
X85207820Y-56072951D01*
X85207115Y-56072591D01*
X85199054Y-56068485D01*
X85148259Y-56020512D01*
X85131463Y-55952692D01*
X85153999Y-55886556D01*
X85199054Y-55847515D01*
X85207816Y-55843051D01*
X85260577Y-55804718D01*
X85379786Y-55718109D01*
X85379788Y-55718106D01*
X85379792Y-55718104D01*
X85530104Y-55567792D01*
X85530106Y-55567788D01*
X85530109Y-55567786D01*
X85655048Y-55395820D01*
X85655047Y-55395820D01*
X85655051Y-55395816D01*
X85751557Y-55206412D01*
X85817246Y-55004243D01*
X85850500Y-54794287D01*
X85850500Y-54581713D01*
X85817246Y-54371757D01*
X85751557Y-54169588D01*
X85655051Y-53980184D01*
X85655049Y-53980181D01*
X85655048Y-53980179D01*
X85530109Y-53808213D01*
X85379786Y-53657890D01*
X85207817Y-53532949D01*
X85198504Y-53528204D01*
X85147707Y-53480230D01*
X85130912Y-53412409D01*
X85153449Y-53346274D01*
X85198507Y-53307232D01*
X85207555Y-53302622D01*
X85261716Y-53263270D01*
X85261717Y-53263270D01*
X84629408Y-52630962D01*
X84692993Y-52613925D01*
X84807007Y-52548099D01*
X84900099Y-52455007D01*
X84965925Y-52340993D01*
X84982962Y-52277408D01*
X85615270Y-52909717D01*
X85615270Y-52909716D01*
X85654622Y-52855554D01*
X85751095Y-52666217D01*
X85816757Y-52464130D01*
X85816757Y-52464127D01*
X85850000Y-52254246D01*
X85850000Y-52041753D01*
X85819484Y-51849085D01*
X85819484Y-51849084D01*
X85816758Y-51831874D01*
X85816757Y-51831869D01*
X85751095Y-51629782D01*
X85654624Y-51440449D01*
X85615270Y-51386282D01*
X85615269Y-51386282D01*
X84982962Y-52018590D01*
X84965925Y-51955007D01*
X84900099Y-51840993D01*
X84807007Y-51747901D01*
X84692993Y-51682075D01*
X84629409Y-51665037D01*
X85261716Y-51032728D01*
X85207547Y-50993373D01*
X85207547Y-50993372D01*
X85198500Y-50988763D01*
X85147706Y-50940788D01*
X85130912Y-50872966D01*
X85153451Y-50806832D01*
X85198508Y-50767793D01*
X85207816Y-50763051D01*
X85287007Y-50705515D01*
X85379786Y-50638109D01*
X85379788Y-50638106D01*
X85379792Y-50638104D01*
X85530104Y-50487792D01*
X85530106Y-50487788D01*
X85530109Y-50487786D01*
X85655048Y-50315820D01*
X85655047Y-50315820D01*
X85655051Y-50315816D01*
X85751557Y-50126412D01*
X85817246Y-49924243D01*
X85850500Y-49714287D01*
X85850500Y-49501713D01*
X85817246Y-49291757D01*
X85751557Y-49089588D01*
X85655051Y-48900184D01*
X85655049Y-48900181D01*
X85655048Y-48900179D01*
X85530109Y-48728213D01*
X85379786Y-48577890D01*
X85207820Y-48452951D01*
X85207115Y-48452591D01*
X85199054Y-48448485D01*
X85148259Y-48400512D01*
X85131463Y-48332692D01*
X85153999Y-48266556D01*
X85199054Y-48227515D01*
X85207816Y-48223051D01*
X85248740Y-48193318D01*
X85379786Y-48098109D01*
X85379788Y-48098106D01*
X85379792Y-48098104D01*
X85530104Y-47947792D01*
X85530106Y-47947788D01*
X85530109Y-47947786D01*
X85655048Y-47775820D01*
X85655047Y-47775820D01*
X85655051Y-47775816D01*
X85751557Y-47586412D01*
X85817246Y-47384243D01*
X85850500Y-47174287D01*
X85850500Y-46961713D01*
X85817246Y-46751757D01*
X85751557Y-46549588D01*
X85655051Y-46360184D01*
X85655049Y-46360181D01*
X85655048Y-46360179D01*
X85530109Y-46188213D01*
X85379786Y-46037890D01*
X85207820Y-45912951D01*
X85207115Y-45912591D01*
X85199054Y-45908485D01*
X85148259Y-45860512D01*
X85131463Y-45792692D01*
X85153999Y-45726556D01*
X85199054Y-45687515D01*
X85207816Y-45683051D01*
X85248740Y-45653318D01*
X85379786Y-45558109D01*
X85379788Y-45558106D01*
X85379792Y-45558104D01*
X85530104Y-45407792D01*
X85530106Y-45407788D01*
X85530109Y-45407786D01*
X85655048Y-45235820D01*
X85655047Y-45235820D01*
X85655051Y-45235816D01*
X85751557Y-45046412D01*
X85817246Y-44844243D01*
X85850500Y-44634287D01*
X85850500Y-44421713D01*
X85817246Y-44211757D01*
X85751557Y-44009588D01*
X85655051Y-43820184D01*
X85655049Y-43820181D01*
X85655048Y-43820179D01*
X85530109Y-43648213D01*
X85379786Y-43497890D01*
X85207820Y-43372951D01*
X85207115Y-43372591D01*
X85199054Y-43368485D01*
X85148259Y-43320512D01*
X85131463Y-43252692D01*
X85153999Y-43186556D01*
X85199054Y-43147515D01*
X85207816Y-43143051D01*
X85248740Y-43113318D01*
X85379786Y-43018109D01*
X85379788Y-43018106D01*
X85379792Y-43018104D01*
X85530104Y-42867792D01*
X85530106Y-42867788D01*
X85530109Y-42867786D01*
X85655048Y-42695820D01*
X85655047Y-42695820D01*
X85655051Y-42695816D01*
X85751557Y-42506412D01*
X85817246Y-42304243D01*
X85850500Y-42094287D01*
X85850500Y-41881713D01*
X85817246Y-41671757D01*
X85751557Y-41469588D01*
X85655051Y-41280184D01*
X85655049Y-41280181D01*
X85655048Y-41280179D01*
X85530109Y-41108213D01*
X85379786Y-40957890D01*
X85207817Y-40832949D01*
X85198504Y-40828204D01*
X85147707Y-40780230D01*
X85130912Y-40712409D01*
X85153449Y-40646274D01*
X85198507Y-40607232D01*
X85207555Y-40602622D01*
X85261716Y-40563270D01*
X85261717Y-40563270D01*
X84629408Y-39930962D01*
X84692993Y-39913925D01*
X84807007Y-39848099D01*
X84900099Y-39755007D01*
X84965925Y-39640993D01*
X84982962Y-39577408D01*
X85615270Y-40209717D01*
X85615270Y-40209716D01*
X85654622Y-40155554D01*
X85751095Y-39966217D01*
X85816757Y-39764130D01*
X85816757Y-39764127D01*
X85850000Y-39554246D01*
X85850000Y-39341753D01*
X85819484Y-39149085D01*
X85819484Y-39149084D01*
X85816758Y-39131874D01*
X85816757Y-39131869D01*
X85751095Y-38929782D01*
X85654624Y-38740449D01*
X85615270Y-38686282D01*
X85615269Y-38686282D01*
X84982962Y-39318590D01*
X84965925Y-39255007D01*
X84900099Y-39140993D01*
X84807007Y-39047901D01*
X84692993Y-38982075D01*
X84629409Y-38965037D01*
X85261716Y-38332728D01*
X85207547Y-38293373D01*
X85207547Y-38293372D01*
X85198500Y-38288763D01*
X85147706Y-38240788D01*
X85130912Y-38172966D01*
X85153451Y-38106832D01*
X85198508Y-38067793D01*
X85207816Y-38063051D01*
X85287007Y-38005515D01*
X85379786Y-37938109D01*
X85379788Y-37938106D01*
X85379792Y-37938104D01*
X85530104Y-37787792D01*
X85530106Y-37787788D01*
X85530109Y-37787786D01*
X85655048Y-37615820D01*
X85655047Y-37615820D01*
X85655051Y-37615816D01*
X85751557Y-37426412D01*
X85817246Y-37224243D01*
X85850500Y-37014287D01*
X85850500Y-36801713D01*
X85817246Y-36591757D01*
X85751557Y-36389588D01*
X85655051Y-36200184D01*
X85655049Y-36200181D01*
X85655048Y-36200179D01*
X85530109Y-36028213D01*
X85416569Y-35914673D01*
X85383084Y-35853350D01*
X85388068Y-35783658D01*
X85429940Y-35727725D01*
X85460915Y-35710810D01*
X85592331Y-35661796D01*
X85707546Y-35575546D01*
X85793796Y-35460331D01*
X85844091Y-35325483D01*
X85850500Y-35265873D01*
X85850499Y-34780387D01*
X87059500Y-34780387D01*
X87059500Y-34955612D01*
X87093681Y-35127450D01*
X87093684Y-35127462D01*
X87160732Y-35289331D01*
X87160734Y-35289334D01*
X87160735Y-35289336D01*
X87175990Y-35312166D01*
X87176886Y-35313508D01*
X87176983Y-35313724D01*
X87177578Y-35314543D01*
X87178920Y-35316552D01*
X87258079Y-35435023D01*
X87258081Y-35435025D01*
X87276894Y-35453837D01*
X87283796Y-35460739D01*
X87286525Y-35464495D01*
X87296837Y-35473780D01*
X87381977Y-35558920D01*
X87418492Y-35583319D01*
X87425020Y-35589197D01*
X87441715Y-35598835D01*
X87445092Y-35601092D01*
X87527659Y-35656262D01*
X87527660Y-35656262D01*
X87527664Y-35656265D01*
X87575515Y-35676085D01*
X87586415Y-35682379D01*
X87606333Y-35688850D01*
X87689542Y-35723317D01*
X87748509Y-35735046D01*
X87763657Y-35739968D01*
X87783996Y-35742105D01*
X87861392Y-35757500D01*
X87930457Y-35757500D01*
X87949000Y-35759449D01*
X87967543Y-35757500D01*
X88036607Y-35757500D01*
X88036608Y-35757500D01*
X88114004Y-35742104D01*
X88134343Y-35739968D01*
X88149485Y-35735047D01*
X88208458Y-35723317D01*
X88291678Y-35688846D01*
X88311585Y-35682379D01*
X88322484Y-35676085D01*
X88370336Y-35656265D01*
X88456295Y-35598828D01*
X88472980Y-35589197D01*
X88479505Y-35583320D01*
X88516023Y-35558920D01*
X88601172Y-35473770D01*
X88611475Y-35464495D01*
X88614200Y-35460742D01*
X88639920Y-35435023D01*
X88720432Y-35314527D01*
X88721017Y-35313724D01*
X88721111Y-35313511D01*
X88737265Y-35289336D01*
X88804317Y-35127458D01*
X88838500Y-34955608D01*
X88838500Y-34780392D01*
X88838499Y-34780387D01*
X98459500Y-34780387D01*
X98459500Y-34955612D01*
X98493681Y-35127450D01*
X98493684Y-35127462D01*
X98560732Y-35289331D01*
X98560734Y-35289334D01*
X98560735Y-35289336D01*
X98575990Y-35312166D01*
X98576886Y-35313508D01*
X98576983Y-35313724D01*
X98577578Y-35314543D01*
X98578920Y-35316552D01*
X98658079Y-35435023D01*
X98658081Y-35435025D01*
X98676894Y-35453837D01*
X98683796Y-35460739D01*
X98686525Y-35464495D01*
X98696837Y-35473780D01*
X98781977Y-35558920D01*
X98818492Y-35583319D01*
X98825020Y-35589197D01*
X98841715Y-35598835D01*
X98845092Y-35601092D01*
X98927659Y-35656262D01*
X98927660Y-35656262D01*
X98927664Y-35656265D01*
X98975515Y-35676085D01*
X98986415Y-35682379D01*
X99006333Y-35688850D01*
X99089542Y-35723317D01*
X99148509Y-35735046D01*
X99163657Y-35739968D01*
X99183996Y-35742105D01*
X99261392Y-35757500D01*
X99330457Y-35757500D01*
X99349000Y-35759449D01*
X99367543Y-35757500D01*
X99436607Y-35757500D01*
X99436608Y-35757500D01*
X99514004Y-35742104D01*
X99534343Y-35739968D01*
X99549485Y-35735047D01*
X99608458Y-35723317D01*
X99691678Y-35688846D01*
X99711585Y-35682379D01*
X99722484Y-35676085D01*
X99770336Y-35656265D01*
X99856295Y-35598828D01*
X99872980Y-35589197D01*
X99879505Y-35583320D01*
X99916023Y-35558920D01*
X100001172Y-35473770D01*
X100011475Y-35464495D01*
X100014200Y-35460742D01*
X100039920Y-35435023D01*
X100120432Y-35314527D01*
X100121017Y-35313724D01*
X100121111Y-35313511D01*
X100137265Y-35289336D01*
X100204317Y-35127458D01*
X100238500Y-34955608D01*
X100238500Y-34780392D01*
X100204317Y-34608542D01*
X100137265Y-34446664D01*
X100121111Y-34422488D01*
X100121017Y-34422276D01*
X100120429Y-34421468D01*
X100039920Y-34300977D01*
X100039918Y-34300974D01*
X100021107Y-34282164D01*
X100014203Y-34275260D01*
X100011475Y-34271505D01*
X100001162Y-34262219D01*
X99998877Y-34259934D01*
X99916023Y-34177080D01*
X99916022Y-34177079D01*
X99916021Y-34177078D01*
X99886943Y-34157649D01*
X99886943Y-34157648D01*
X99879506Y-34152679D01*
X99872980Y-34146803D01*
X99856282Y-34137162D01*
X99852920Y-34134916D01*
X99770336Y-34079735D01*
X99770332Y-34079733D01*
X99729995Y-34063025D01*
X99722486Y-34059915D01*
X99711585Y-34053621D01*
X99691663Y-34047147D01*
X99608458Y-34012683D01*
X99608456Y-34012682D01*
X99608451Y-34012680D01*
X99556660Y-34002379D01*
X99556658Y-34002379D01*
X99549486Y-34000952D01*
X99534343Y-33996032D01*
X99514009Y-33993894D01*
X99508440Y-33992787D01*
X99508432Y-33992786D01*
X99453553Y-33981870D01*
X99436608Y-33978500D01*
X99367534Y-33978500D01*
X99349000Y-33976552D01*
X99330466Y-33978500D01*
X99261392Y-33978500D01*
X99189568Y-33992785D01*
X99189567Y-33992784D01*
X99183973Y-33993896D01*
X99163657Y-33996032D01*
X99148527Y-34000947D01*
X99141348Y-34002376D01*
X99141342Y-34002378D01*
X99089546Y-34012681D01*
X99010834Y-34045283D01*
X99010835Y-34045284D01*
X99006327Y-34047150D01*
X98986415Y-34053621D01*
X98975513Y-34059914D01*
X98968003Y-34063026D01*
X98968001Y-34063026D01*
X98927661Y-34079736D01*
X98845084Y-34134909D01*
X98845085Y-34134910D01*
X98841689Y-34137178D01*
X98825020Y-34146803D01*
X98818499Y-34152673D01*
X98811069Y-34157639D01*
X98811063Y-34157644D01*
X98781974Y-34177082D01*
X98781969Y-34177086D01*
X98699119Y-34259935D01*
X98696806Y-34262247D01*
X98686525Y-34271505D01*
X98683804Y-34275249D01*
X98658084Y-34300970D01*
X98658077Y-34300980D01*
X98578896Y-34419478D01*
X98578897Y-34419479D01*
X98577547Y-34421499D01*
X98576983Y-34422276D01*
X98576892Y-34422479D01*
X98574431Y-34426164D01*
X98574429Y-34426164D01*
X98574428Y-34426168D01*
X98560735Y-34446662D01*
X98560733Y-34446665D01*
X98493684Y-34608537D01*
X98493681Y-34608549D01*
X98459500Y-34780387D01*
X88838499Y-34780387D01*
X88804317Y-34608542D01*
X88737265Y-34446664D01*
X88721111Y-34422488D01*
X88721017Y-34422276D01*
X88720429Y-34421468D01*
X88639920Y-34300977D01*
X88639918Y-34300974D01*
X88621107Y-34282164D01*
X88614203Y-34275260D01*
X88611475Y-34271505D01*
X88601162Y-34262219D01*
X88598877Y-34259934D01*
X88516023Y-34177080D01*
X88516022Y-34177079D01*
X88516021Y-34177078D01*
X88486943Y-34157649D01*
X88486943Y-34157648D01*
X88479506Y-34152679D01*
X88472980Y-34146803D01*
X88456282Y-34137162D01*
X88452920Y-34134916D01*
X88370336Y-34079735D01*
X88370332Y-34079733D01*
X88329995Y-34063025D01*
X88322486Y-34059915D01*
X88311585Y-34053621D01*
X88291663Y-34047147D01*
X88208458Y-34012683D01*
X88208456Y-34012682D01*
X88208451Y-34012680D01*
X88156660Y-34002379D01*
X88156658Y-34002379D01*
X88149486Y-34000952D01*
X88134343Y-33996032D01*
X88114009Y-33993894D01*
X88108440Y-33992787D01*
X88108432Y-33992786D01*
X88053553Y-33981870D01*
X88036608Y-33978500D01*
X87967534Y-33978500D01*
X87949000Y-33976552D01*
X87930466Y-33978500D01*
X87861392Y-33978500D01*
X87789568Y-33992785D01*
X87789567Y-33992784D01*
X87783973Y-33993896D01*
X87763657Y-33996032D01*
X87748527Y-34000947D01*
X87741348Y-34002376D01*
X87741342Y-34002378D01*
X87689546Y-34012681D01*
X87610834Y-34045283D01*
X87610835Y-34045284D01*
X87606327Y-34047150D01*
X87586415Y-34053621D01*
X87575513Y-34059914D01*
X87568003Y-34063026D01*
X87568001Y-34063026D01*
X87527661Y-34079736D01*
X87445084Y-34134909D01*
X87445085Y-34134910D01*
X87441689Y-34137178D01*
X87425020Y-34146803D01*
X87418499Y-34152673D01*
X87411069Y-34157639D01*
X87411063Y-34157644D01*
X87381974Y-34177082D01*
X87381969Y-34177086D01*
X87299119Y-34259935D01*
X87296806Y-34262247D01*
X87286525Y-34271505D01*
X87283804Y-34275249D01*
X87258084Y-34300970D01*
X87258077Y-34300980D01*
X87178896Y-34419478D01*
X87178897Y-34419479D01*
X87177547Y-34421499D01*
X87176983Y-34422276D01*
X87176892Y-34422479D01*
X87174431Y-34426164D01*
X87174429Y-34426164D01*
X87174428Y-34426168D01*
X87160735Y-34446662D01*
X87160733Y-34446665D01*
X87093684Y-34608537D01*
X87093681Y-34608549D01*
X87059500Y-34780387D01*
X85850499Y-34780387D01*
X85850499Y-34304342D01*
X85850499Y-33470129D01*
X85850498Y-33470123D01*
X85850497Y-33470116D01*
X85844091Y-33410517D01*
X85844091Y-33410516D01*
X85803970Y-33302945D01*
X85793796Y-33275669D01*
X85793793Y-33275664D01*
X85784269Y-33262941D01*
X101267122Y-33262941D01*
X101267122Y-35058676D01*
X101267123Y-35058682D01*
X101273530Y-35118289D01*
X101323824Y-35253134D01*
X101323828Y-35253141D01*
X101410074Y-35368350D01*
X101410077Y-35368353D01*
X101525286Y-35454599D01*
X101525293Y-35454603D01*
X101656704Y-35503616D01*
X101712638Y-35545487D01*
X101737055Y-35610951D01*
X101722204Y-35679224D01*
X101701053Y-35707479D01*
X101587511Y-35821021D01*
X101462573Y-35992985D01*
X101366066Y-36182391D01*
X101300375Y-36384566D01*
X101267122Y-36594519D01*
X101267122Y-36807092D01*
X101300375Y-37017045D01*
X101366066Y-37219220D01*
X101462573Y-37408626D01*
X101587512Y-37580592D01*
X101737835Y-37730915D01*
X101909801Y-37855854D01*
X101909803Y-37855855D01*
X101909806Y-37855857D01*
X101919115Y-37860600D01*
X101969912Y-37908572D01*
X101986709Y-37976393D01*
X101964174Y-38042528D01*
X101919127Y-38081566D01*
X101910068Y-38086182D01*
X101910062Y-38086186D01*
X101855904Y-38125533D01*
X101855904Y-38125534D01*
X102488213Y-38757843D01*
X102424629Y-38774881D01*
X102310615Y-38840707D01*
X102217523Y-38933799D01*
X102151697Y-39047813D01*
X102134659Y-39111397D01*
X101502350Y-38479088D01*
X101502349Y-38479088D01*
X101463002Y-38533245D01*
X101366526Y-38722588D01*
X101300864Y-38924675D01*
X101300864Y-38924678D01*
X101267622Y-39134559D01*
X101267622Y-39347052D01*
X101300864Y-39556933D01*
X101300864Y-39556936D01*
X101366526Y-39759023D01*
X101462997Y-39948356D01*
X101502350Y-40002522D01*
X102134659Y-39370214D01*
X102151697Y-39433799D01*
X102217523Y-39547813D01*
X102310615Y-39640905D01*
X102424629Y-39706731D01*
X102488212Y-39723768D01*
X101855904Y-40356075D01*
X101855904Y-40356076D01*
X101910074Y-40395432D01*
X101910073Y-40395432D01*
X101919117Y-40400040D01*
X101969914Y-40448014D01*
X101986709Y-40515835D01*
X101964172Y-40581970D01*
X101919121Y-40621008D01*
X101909804Y-40625755D01*
X101737835Y-40750696D01*
X101587512Y-40901019D01*
X101462573Y-41072985D01*
X101366066Y-41262391D01*
X101300375Y-41464566D01*
X101267122Y-41674519D01*
X101267122Y-41887092D01*
X101299938Y-42094287D01*
X101300376Y-42097049D01*
X101325987Y-42175872D01*
X101366066Y-42299220D01*
X101462573Y-42488626D01*
X101587512Y-42660592D01*
X101737835Y-42810915D01*
X101909804Y-42935856D01*
X101918568Y-42940322D01*
X101969364Y-42988297D01*
X101986158Y-43056118D01*
X101963620Y-43122253D01*
X101918568Y-43161290D01*
X101909804Y-43165755D01*
X101737835Y-43290696D01*
X101587512Y-43441019D01*
X101462573Y-43612985D01*
X101366066Y-43802391D01*
X101300375Y-44004566D01*
X101267122Y-44214519D01*
X101267122Y-44427092D01*
X101300375Y-44637045D01*
X101366066Y-44839220D01*
X101462573Y-45028626D01*
X101587512Y-45200592D01*
X101737835Y-45350915D01*
X101909804Y-45475856D01*
X101918568Y-45480322D01*
X101969364Y-45528297D01*
X101986158Y-45596118D01*
X101963620Y-45662253D01*
X101918568Y-45701290D01*
X101909804Y-45705755D01*
X101737835Y-45830696D01*
X101587512Y-45981019D01*
X101462573Y-46152985D01*
X101366066Y-46342391D01*
X101300375Y-46544566D01*
X101267122Y-46754519D01*
X101267122Y-46967092D01*
X101300375Y-47177045D01*
X101366066Y-47379220D01*
X101462573Y-47568626D01*
X101587512Y-47740592D01*
X101737835Y-47890915D01*
X101909804Y-48015856D01*
X101918568Y-48020322D01*
X101969364Y-48068297D01*
X101986158Y-48136118D01*
X101963620Y-48202253D01*
X101918568Y-48241290D01*
X101909804Y-48245755D01*
X101737835Y-48370696D01*
X101587512Y-48521019D01*
X101462573Y-48692985D01*
X101366066Y-48882391D01*
X101300375Y-49084566D01*
X101267122Y-49294519D01*
X101267122Y-49507092D01*
X101299938Y-49714287D01*
X101300376Y-49717049D01*
X101324277Y-49790609D01*
X101366066Y-49919220D01*
X101462573Y-50108626D01*
X101587512Y-50280592D01*
X101737835Y-50430915D01*
X101909801Y-50555854D01*
X101909803Y-50555855D01*
X101909806Y-50555857D01*
X101919115Y-50560600D01*
X101969912Y-50608572D01*
X101986709Y-50676393D01*
X101964174Y-50742528D01*
X101919127Y-50781566D01*
X101910068Y-50786182D01*
X101910062Y-50786186D01*
X101855904Y-50825533D01*
X101855904Y-50825534D01*
X102488213Y-51457843D01*
X102424629Y-51474881D01*
X102310615Y-51540707D01*
X102217523Y-51633799D01*
X102151697Y-51747813D01*
X102134659Y-51811397D01*
X101502350Y-51179088D01*
X101502349Y-51179088D01*
X101463002Y-51233245D01*
X101366526Y-51422588D01*
X101300864Y-51624675D01*
X101300864Y-51624678D01*
X101267622Y-51834559D01*
X101267622Y-52047052D01*
X101300864Y-52256933D01*
X101300864Y-52256936D01*
X101366526Y-52459023D01*
X101462997Y-52648356D01*
X101502350Y-52702522D01*
X102134659Y-52070214D01*
X102151697Y-52133799D01*
X102217523Y-52247813D01*
X102310615Y-52340905D01*
X102424629Y-52406731D01*
X102488212Y-52423768D01*
X101855904Y-53056075D01*
X101855904Y-53056076D01*
X101910074Y-53095432D01*
X101910073Y-53095432D01*
X101919117Y-53100040D01*
X101969914Y-53148014D01*
X101986709Y-53215835D01*
X101964172Y-53281970D01*
X101919121Y-53321008D01*
X101909804Y-53325755D01*
X101737835Y-53450696D01*
X101587512Y-53601019D01*
X101462573Y-53772985D01*
X101366066Y-53962391D01*
X101300375Y-54164566D01*
X101267122Y-54374519D01*
X101267122Y-54587092D01*
X101299938Y-54794287D01*
X101300376Y-54797049D01*
X101336600Y-54908536D01*
X101366066Y-54999220D01*
X101462573Y-55188626D01*
X101587512Y-55360592D01*
X101737835Y-55510915D01*
X101909804Y-55635856D01*
X101918568Y-55640322D01*
X101969364Y-55688297D01*
X101986158Y-55756118D01*
X101963620Y-55822253D01*
X101918568Y-55861290D01*
X101909804Y-55865755D01*
X101737835Y-55990696D01*
X101587512Y-56141019D01*
X101462573Y-56312985D01*
X101366066Y-56502391D01*
X101300375Y-56704566D01*
X101267122Y-56914519D01*
X101267122Y-57127092D01*
X101300375Y-57337045D01*
X101366066Y-57539220D01*
X101462573Y-57728626D01*
X101587512Y-57900592D01*
X101737835Y-58050915D01*
X101909804Y-58175856D01*
X101918568Y-58180322D01*
X101969364Y-58228297D01*
X101986158Y-58296118D01*
X101963620Y-58362253D01*
X101918568Y-58401290D01*
X101909804Y-58405755D01*
X101737835Y-58530696D01*
X101587512Y-58681019D01*
X101462573Y-58852985D01*
X101366066Y-59042391D01*
X101300375Y-59244566D01*
X101267122Y-59454519D01*
X101267122Y-59667092D01*
X101299938Y-59874287D01*
X101300376Y-59877049D01*
X101355321Y-60046153D01*
X101366066Y-60079220D01*
X101462573Y-60268626D01*
X101587512Y-60440592D01*
X101737835Y-60590915D01*
X101909804Y-60715856D01*
X101918568Y-60720322D01*
X101969364Y-60768297D01*
X101986158Y-60836118D01*
X101963620Y-60902253D01*
X101918568Y-60941290D01*
X101909804Y-60945755D01*
X101737835Y-61070696D01*
X101587512Y-61221019D01*
X101462573Y-61392985D01*
X101366066Y-61582391D01*
X101300375Y-61784566D01*
X101267122Y-61994519D01*
X101267122Y-62207092D01*
X101299938Y-62414287D01*
X101300376Y-62417049D01*
X101330671Y-62510288D01*
X101366066Y-62619220D01*
X101462573Y-62808626D01*
X101587512Y-62980592D01*
X101737835Y-63130915D01*
X101909801Y-63255854D01*
X101909803Y-63255855D01*
X101909806Y-63255857D01*
X101919115Y-63260600D01*
X101969912Y-63308572D01*
X101986709Y-63376393D01*
X101964174Y-63442528D01*
X101919127Y-63481566D01*
X101910068Y-63486182D01*
X101910062Y-63486186D01*
X101855904Y-63525533D01*
X101855904Y-63525534D01*
X102488213Y-64157843D01*
X102424629Y-64174881D01*
X102310615Y-64240707D01*
X102217523Y-64333799D01*
X102151697Y-64447813D01*
X102134659Y-64511397D01*
X101502350Y-63879088D01*
X101502349Y-63879088D01*
X101463002Y-63933245D01*
X101366526Y-64122588D01*
X101300864Y-64324675D01*
X101300864Y-64324678D01*
X101267622Y-64534559D01*
X101267622Y-64747052D01*
X101300864Y-64956933D01*
X101300864Y-64956936D01*
X101366526Y-65159023D01*
X101462997Y-65348356D01*
X101502350Y-65402522D01*
X102134659Y-64770214D01*
X102151697Y-64833799D01*
X102217523Y-64947813D01*
X102310615Y-65040905D01*
X102424629Y-65106731D01*
X102488212Y-65123768D01*
X101855904Y-65756075D01*
X101855904Y-65756076D01*
X101910074Y-65795432D01*
X101910073Y-65795432D01*
X101919117Y-65800040D01*
X101969914Y-65848014D01*
X101986709Y-65915835D01*
X101964172Y-65981970D01*
X101919121Y-66021008D01*
X101909804Y-66025755D01*
X101737835Y-66150696D01*
X101587512Y-66301019D01*
X101462573Y-66472985D01*
X101366066Y-66662391D01*
X101300375Y-66864566D01*
X101293022Y-66910993D01*
X101267122Y-67074519D01*
X101267122Y-67287093D01*
X101277156Y-67350450D01*
X101299938Y-67494287D01*
X101300376Y-67497049D01*
X101324584Y-67571554D01*
X101366066Y-67699220D01*
X101462573Y-67888626D01*
X101587512Y-68060592D01*
X101737835Y-68210915D01*
X101909804Y-68335856D01*
X101918568Y-68340322D01*
X101969364Y-68388297D01*
X101986158Y-68456118D01*
X101963620Y-68522253D01*
X101918568Y-68561290D01*
X101909804Y-68565755D01*
X101737835Y-68690696D01*
X101587512Y-68841019D01*
X101462573Y-69012985D01*
X101366066Y-69202391D01*
X101300375Y-69404566D01*
X101293022Y-69450993D01*
X101267122Y-69614519D01*
X101267122Y-69827093D01*
X101273013Y-69864286D01*
X101299938Y-70034287D01*
X101300376Y-70037049D01*
X101324584Y-70111554D01*
X101366066Y-70239220D01*
X101462573Y-70428626D01*
X101587512Y-70600592D01*
X101737835Y-70750915D01*
X101909804Y-70875856D01*
X101918568Y-70880322D01*
X101969364Y-70928297D01*
X101986158Y-70996118D01*
X101963620Y-71062253D01*
X101918568Y-71101290D01*
X101909804Y-71105755D01*
X101737835Y-71230696D01*
X101587512Y-71381019D01*
X101462573Y-71552985D01*
X101366066Y-71742391D01*
X101300375Y-71944566D01*
X101293022Y-71990993D01*
X101267122Y-72154519D01*
X101267122Y-72367093D01*
X101273013Y-72404286D01*
X101299938Y-72574287D01*
X101300376Y-72577049D01*
X101324584Y-72651554D01*
X101366066Y-72779220D01*
X101462573Y-72968626D01*
X101587512Y-73140592D01*
X101737835Y-73290915D01*
X101909804Y-73415856D01*
X101918568Y-73420322D01*
X101969364Y-73468297D01*
X101986158Y-73536118D01*
X101963620Y-73602253D01*
X101918568Y-73641290D01*
X101909804Y-73645755D01*
X101737835Y-73770696D01*
X101587512Y-73921019D01*
X101462573Y-74092985D01*
X101366066Y-74282391D01*
X101300375Y-74484566D01*
X101293022Y-74530993D01*
X101267122Y-74694519D01*
X101267122Y-74907093D01*
X101273013Y-74944286D01*
X101299938Y-75114287D01*
X101300376Y-75117049D01*
X101324584Y-75191554D01*
X101366066Y-75319220D01*
X101462573Y-75508626D01*
X101587512Y-75680592D01*
X101737835Y-75830915D01*
X101909801Y-75955854D01*
X101909803Y-75955855D01*
X101909806Y-75955857D01*
X101919115Y-75960600D01*
X101969912Y-76008572D01*
X101986709Y-76076393D01*
X101964174Y-76142528D01*
X101919127Y-76181566D01*
X101910068Y-76186182D01*
X101910062Y-76186186D01*
X101855904Y-76225533D01*
X101855904Y-76225534D01*
X102488213Y-76857843D01*
X102424629Y-76874881D01*
X102310615Y-76940707D01*
X102217523Y-77033799D01*
X102151697Y-77147813D01*
X102134659Y-77211397D01*
X101502350Y-76579088D01*
X101502349Y-76579088D01*
X101463002Y-76633245D01*
X101366526Y-76822588D01*
X101300864Y-77024675D01*
X101300864Y-77024678D01*
X101267622Y-77234559D01*
X101267622Y-77447052D01*
X101300864Y-77656933D01*
X101300864Y-77656936D01*
X101366526Y-77859023D01*
X101462997Y-78048356D01*
X101502350Y-78102522D01*
X102134659Y-77470214D01*
X102151697Y-77533799D01*
X102217523Y-77647813D01*
X102310615Y-77740905D01*
X102424629Y-77806731D01*
X102488212Y-77823768D01*
X101855904Y-78456075D01*
X101855904Y-78456076D01*
X101910074Y-78495432D01*
X101910073Y-78495432D01*
X101919117Y-78500040D01*
X101969914Y-78548014D01*
X101986709Y-78615835D01*
X101964172Y-78681970D01*
X101919121Y-78721008D01*
X101909804Y-78725755D01*
X101737835Y-78850696D01*
X101587512Y-79001019D01*
X101462573Y-79172985D01*
X101366066Y-79362391D01*
X101300375Y-79564566D01*
X101267122Y-79774519D01*
X101267122Y-79987092D01*
X101299938Y-80194287D01*
X101300376Y-80197049D01*
X101359764Y-80379827D01*
X101366066Y-80399220D01*
X101462573Y-80588626D01*
X101587512Y-80760592D01*
X101737835Y-80910915D01*
X101909804Y-81035856D01*
X101918568Y-81040322D01*
X101969364Y-81088297D01*
X101986158Y-81156118D01*
X101963620Y-81222253D01*
X101918568Y-81261290D01*
X101909804Y-81265755D01*
X101737835Y-81390696D01*
X101587512Y-81541019D01*
X101462573Y-81712985D01*
X101366066Y-81902391D01*
X101300375Y-82104566D01*
X101275430Y-82262063D01*
X101267122Y-82314519D01*
X101267122Y-82527093D01*
X101272163Y-82558920D01*
X101299938Y-82734287D01*
X101300376Y-82737049D01*
X101307654Y-82759449D01*
X101366066Y-82939220D01*
X101462573Y-83128626D01*
X101587512Y-83300592D01*
X101737835Y-83450915D01*
X101909801Y-83575854D01*
X101909803Y-83575855D01*
X101909806Y-83575857D01*
X102099210Y-83672363D01*
X102301379Y-83738052D01*
X102511335Y-83771306D01*
X102511336Y-83771306D01*
X102723908Y-83771306D01*
X102723909Y-83771306D01*
X102933865Y-83738052D01*
X103136034Y-83672363D01*
X103325438Y-83575857D01*
X103383452Y-83533708D01*
X103497408Y-83450915D01*
X103497410Y-83450912D01*
X103497414Y-83450910D01*
X103647726Y-83300598D01*
X103647728Y-83300594D01*
X103647731Y-83300592D01*
X103766806Y-83136697D01*
X103772673Y-83128622D01*
X103869179Y-82939218D01*
X103934868Y-82737049D01*
X103968122Y-82527093D01*
X103968122Y-82314519D01*
X103934868Y-82104563D01*
X103869179Y-81902394D01*
X103772673Y-81712990D01*
X103772671Y-81712987D01*
X103772670Y-81712985D01*
X103647731Y-81541019D01*
X103497408Y-81390696D01*
X103325442Y-81265757D01*
X103324737Y-81265397D01*
X103316676Y-81261291D01*
X103265881Y-81213318D01*
X103249085Y-81145498D01*
X103271621Y-81079362D01*
X103316676Y-81040321D01*
X103325438Y-81035857D01*
X103350348Y-81017759D01*
X103497408Y-80910915D01*
X103497410Y-80910912D01*
X103497414Y-80910910D01*
X103647726Y-80760598D01*
X103647728Y-80760594D01*
X103647731Y-80760592D01*
X103772670Y-80588626D01*
X103772669Y-80588626D01*
X103772673Y-80588622D01*
X103869179Y-80399218D01*
X103934868Y-80197049D01*
X103968122Y-79987093D01*
X103968122Y-79774519D01*
X103934868Y-79564563D01*
X103869179Y-79362394D01*
X103772673Y-79172990D01*
X103772671Y-79172987D01*
X103772670Y-79172985D01*
X103647731Y-79001019D01*
X103497408Y-78850696D01*
X103325439Y-78725755D01*
X103316126Y-78721010D01*
X103265329Y-78673036D01*
X103248534Y-78605215D01*
X103271071Y-78539080D01*
X103316129Y-78500038D01*
X103325177Y-78495428D01*
X103379338Y-78456076D01*
X103379339Y-78456076D01*
X102747030Y-77823768D01*
X102810615Y-77806731D01*
X102924629Y-77740905D01*
X103017721Y-77647813D01*
X103083547Y-77533799D01*
X103100584Y-77470215D01*
X103732892Y-78102523D01*
X103732892Y-78102522D01*
X103772244Y-78048360D01*
X103868717Y-77859023D01*
X103934379Y-77656936D01*
X103934379Y-77656933D01*
X103967622Y-77447052D01*
X103967622Y-77234559D01*
X103934379Y-77024678D01*
X103934379Y-77024675D01*
X103868717Y-76822588D01*
X103772246Y-76633255D01*
X103732892Y-76579088D01*
X103732891Y-76579088D01*
X103100584Y-77211396D01*
X103083547Y-77147813D01*
X103017721Y-77033799D01*
X102924629Y-76940707D01*
X102810615Y-76874881D01*
X102747031Y-76857843D01*
X103379338Y-76225534D01*
X103325169Y-76186179D01*
X103325169Y-76186178D01*
X103316122Y-76181569D01*
X103265328Y-76133594D01*
X103248534Y-76065772D01*
X103271073Y-75999638D01*
X103316130Y-75960599D01*
X103325438Y-75955857D01*
X103446214Y-75868109D01*
X103497408Y-75830915D01*
X103497410Y-75830912D01*
X103497414Y-75830910D01*
X103647726Y-75680598D01*
X103647728Y-75680594D01*
X103647731Y-75680592D01*
X103772670Y-75508626D01*
X103772669Y-75508626D01*
X103772673Y-75508622D01*
X103869179Y-75319218D01*
X103934868Y-75117049D01*
X103968122Y-74907093D01*
X103968122Y-74694519D01*
X103934868Y-74484563D01*
X103869179Y-74282394D01*
X103772673Y-74092990D01*
X103772671Y-74092987D01*
X103772670Y-74092985D01*
X103647731Y-73921019D01*
X103497408Y-73770696D01*
X103325442Y-73645757D01*
X103324737Y-73645397D01*
X103316676Y-73641291D01*
X103265881Y-73593318D01*
X103249085Y-73525498D01*
X103271621Y-73459362D01*
X103316676Y-73420321D01*
X103325438Y-73415857D01*
X103382784Y-73374193D01*
X103497408Y-73290915D01*
X103497410Y-73290912D01*
X103497414Y-73290910D01*
X103647726Y-73140598D01*
X103647728Y-73140594D01*
X103647731Y-73140592D01*
X103772670Y-72968626D01*
X103772669Y-72968626D01*
X103772673Y-72968622D01*
X103869179Y-72779218D01*
X103934868Y-72577049D01*
X103968122Y-72367093D01*
X103968122Y-72154519D01*
X103934868Y-71944563D01*
X103869179Y-71742394D01*
X103772673Y-71552990D01*
X103772671Y-71552987D01*
X103772670Y-71552985D01*
X103647731Y-71381019D01*
X103497408Y-71230696D01*
X103325442Y-71105757D01*
X103324737Y-71105397D01*
X103316676Y-71101291D01*
X103265881Y-71053318D01*
X103249085Y-70985498D01*
X103271621Y-70919362D01*
X103316676Y-70880321D01*
X103325438Y-70875857D01*
X103372615Y-70841581D01*
X103497408Y-70750915D01*
X103497410Y-70750912D01*
X103497414Y-70750910D01*
X103647726Y-70600598D01*
X103647728Y-70600594D01*
X103647731Y-70600592D01*
X103772670Y-70428626D01*
X103772669Y-70428626D01*
X103772673Y-70428622D01*
X103869179Y-70239218D01*
X103934868Y-70037049D01*
X103968122Y-69827093D01*
X103968122Y-69614519D01*
X103934868Y-69404563D01*
X103869179Y-69202394D01*
X103772673Y-69012990D01*
X103772671Y-69012987D01*
X103772670Y-69012985D01*
X103647731Y-68841019D01*
X103497408Y-68690696D01*
X103325442Y-68565757D01*
X103324737Y-68565397D01*
X103316676Y-68561291D01*
X103265881Y-68513318D01*
X103249085Y-68445498D01*
X103271621Y-68379362D01*
X103316676Y-68340321D01*
X103325438Y-68335857D01*
X103372615Y-68301581D01*
X103497408Y-68210915D01*
X103497410Y-68210912D01*
X103497414Y-68210910D01*
X103647726Y-68060598D01*
X103647728Y-68060594D01*
X103647731Y-68060592D01*
X103772670Y-67888626D01*
X103772669Y-67888626D01*
X103772673Y-67888622D01*
X103869179Y-67699218D01*
X103934868Y-67497049D01*
X103968122Y-67287093D01*
X103968122Y-67074519D01*
X103934868Y-66864563D01*
X103869179Y-66662394D01*
X103772673Y-66472990D01*
X103772671Y-66472987D01*
X103772670Y-66472985D01*
X103712154Y-66389691D01*
X103661619Y-66320135D01*
X108874500Y-66320135D01*
X108874500Y-68115870D01*
X108874501Y-68115876D01*
X108880908Y-68175483D01*
X108931202Y-68310328D01*
X108931206Y-68310335D01*
X109017452Y-68425544D01*
X109017455Y-68425547D01*
X109132664Y-68511793D01*
X109132671Y-68511797D01*
X109264082Y-68560810D01*
X109320016Y-68602681D01*
X109344433Y-68668145D01*
X109329582Y-68736418D01*
X109308431Y-68764673D01*
X109194889Y-68878215D01*
X109069951Y-69050179D01*
X108973444Y-69239585D01*
X108907753Y-69441760D01*
X108874500Y-69651713D01*
X108874500Y-69864286D01*
X108907735Y-70074127D01*
X108907754Y-70074243D01*
X108962989Y-70244239D01*
X108973444Y-70276414D01*
X109069951Y-70465820D01*
X109194890Y-70637786D01*
X109345213Y-70788109D01*
X109517182Y-70913050D01*
X109525946Y-70917516D01*
X109576742Y-70965491D01*
X109593536Y-71033312D01*
X109570998Y-71099447D01*
X109525946Y-71138484D01*
X109517182Y-71142949D01*
X109345213Y-71267890D01*
X109194890Y-71418213D01*
X109069951Y-71590179D01*
X108973444Y-71779585D01*
X108907753Y-71981760D01*
X108874500Y-72191713D01*
X108874500Y-72404286D01*
X108907735Y-72614127D01*
X108907754Y-72614243D01*
X108962989Y-72784239D01*
X108973444Y-72816414D01*
X109069951Y-73005820D01*
X109194890Y-73177786D01*
X109345213Y-73328109D01*
X109517182Y-73453050D01*
X109525946Y-73457516D01*
X109576742Y-73505491D01*
X109593536Y-73573312D01*
X109570998Y-73639447D01*
X109525946Y-73678484D01*
X109517182Y-73682949D01*
X109345213Y-73807890D01*
X109194890Y-73958213D01*
X109069951Y-74130179D01*
X108973444Y-74319585D01*
X108907753Y-74521760D01*
X108874500Y-74731713D01*
X108874500Y-74944286D01*
X108907735Y-75154127D01*
X108907754Y-75154243D01*
X108962989Y-75324239D01*
X108973444Y-75356414D01*
X109069951Y-75545820D01*
X109194890Y-75717786D01*
X109345213Y-75868109D01*
X109517179Y-75993048D01*
X109517181Y-75993049D01*
X109517184Y-75993051D01*
X109706588Y-76089557D01*
X109908757Y-76155246D01*
X110118713Y-76188500D01*
X110118714Y-76188500D01*
X110331286Y-76188500D01*
X110331287Y-76188500D01*
X110541243Y-76155246D01*
X110743412Y-76089557D01*
X110932816Y-75993051D01*
X110987572Y-75953269D01*
X111104786Y-75868109D01*
X111104788Y-75868106D01*
X111104792Y-75868104D01*
X111255104Y-75717792D01*
X111255106Y-75717788D01*
X111255109Y-75717786D01*
X111340890Y-75599717D01*
X111380051Y-75545816D01*
X111384793Y-75536508D01*
X111432763Y-75485711D01*
X111500583Y-75468911D01*
X111566719Y-75491445D01*
X111605763Y-75536500D01*
X111610373Y-75545547D01*
X111649728Y-75599716D01*
X112282037Y-74967408D01*
X112299075Y-75030993D01*
X112364901Y-75145007D01*
X112457993Y-75238099D01*
X112572007Y-75303925D01*
X112635590Y-75320962D01*
X112003282Y-75953269D01*
X112003282Y-75953270D01*
X112057449Y-75992624D01*
X112246782Y-76089095D01*
X112448870Y-76154757D01*
X112658754Y-76188000D01*
X112871246Y-76188000D01*
X113081127Y-76154757D01*
X113081130Y-76154757D01*
X113283217Y-76089095D01*
X113472554Y-75992622D01*
X113526716Y-75953270D01*
X113526717Y-75953270D01*
X112894408Y-75320962D01*
X112957993Y-75303925D01*
X113072007Y-75238099D01*
X113165099Y-75145007D01*
X113230925Y-75030993D01*
X113247962Y-74967408D01*
X113880270Y-75599717D01*
X113880270Y-75599716D01*
X113919622Y-75545554D01*
X114016095Y-75356217D01*
X114081757Y-75154130D01*
X114081757Y-75154127D01*
X114115000Y-74944246D01*
X114115000Y-74731753D01*
X114081757Y-74521872D01*
X114081757Y-74521869D01*
X114016095Y-74319782D01*
X113919624Y-74130449D01*
X113880270Y-74076282D01*
X113880269Y-74076282D01*
X113247962Y-74708590D01*
X113230925Y-74645007D01*
X113165099Y-74530993D01*
X113072007Y-74437901D01*
X112957993Y-74372075D01*
X112894409Y-74355037D01*
X113526716Y-73722728D01*
X113472550Y-73683375D01*
X113462954Y-73678486D01*
X113412157Y-73630512D01*
X113395361Y-73562692D01*
X113417897Y-73496556D01*
X113462954Y-73457514D01*
X113472554Y-73452622D01*
X113526716Y-73413270D01*
X113526717Y-73413270D01*
X112894408Y-72780962D01*
X112957993Y-72763925D01*
X113072007Y-72698099D01*
X113165099Y-72605007D01*
X113230925Y-72490993D01*
X113247962Y-72427408D01*
X113880270Y-73059717D01*
X113880270Y-73059716D01*
X113919622Y-73005554D01*
X114016095Y-72816217D01*
X114081757Y-72614130D01*
X114081757Y-72614127D01*
X114115000Y-72404246D01*
X114115000Y-72191753D01*
X114081757Y-71981872D01*
X114081757Y-71981869D01*
X114016095Y-71779782D01*
X113919624Y-71590449D01*
X113880270Y-71536282D01*
X113880269Y-71536282D01*
X113247962Y-72168590D01*
X113230925Y-72105007D01*
X113165099Y-71990993D01*
X113072007Y-71897901D01*
X112957993Y-71832075D01*
X112894409Y-71815037D01*
X113526716Y-71182728D01*
X113472550Y-71143375D01*
X113462954Y-71138486D01*
X113412157Y-71090512D01*
X113395361Y-71022692D01*
X113417897Y-70956556D01*
X113462954Y-70917514D01*
X113472554Y-70912622D01*
X113526716Y-70873270D01*
X113526717Y-70873270D01*
X112894408Y-70240962D01*
X112957993Y-70223925D01*
X113072007Y-70158099D01*
X113165099Y-70065007D01*
X113230925Y-69950993D01*
X113247962Y-69887408D01*
X113880270Y-70519717D01*
X113880270Y-70519716D01*
X113919622Y-70465554D01*
X114016095Y-70276217D01*
X114081757Y-70074130D01*
X114081757Y-70074127D01*
X114115000Y-69864246D01*
X114115000Y-69651753D01*
X114081757Y-69441872D01*
X114081757Y-69441869D01*
X114016095Y-69239782D01*
X113919624Y-69050449D01*
X113880270Y-68996282D01*
X113880269Y-68996282D01*
X113247962Y-69628590D01*
X113230925Y-69565007D01*
X113165099Y-69450993D01*
X113072007Y-69357901D01*
X112957993Y-69292075D01*
X112894409Y-69275037D01*
X113526716Y-68642728D01*
X113472550Y-68603375D01*
X113462954Y-68598486D01*
X113412157Y-68550512D01*
X113395361Y-68482692D01*
X113417897Y-68416556D01*
X113462954Y-68377514D01*
X113472554Y-68372622D01*
X113526716Y-68333270D01*
X113526717Y-68333270D01*
X112894408Y-67700962D01*
X112957993Y-67683925D01*
X113072007Y-67618099D01*
X113165099Y-67525007D01*
X113230925Y-67410993D01*
X113247962Y-67347408D01*
X113880270Y-67979717D01*
X113880270Y-67979716D01*
X113919622Y-67925554D01*
X114016095Y-67736217D01*
X114081757Y-67534130D01*
X114081757Y-67534127D01*
X114115000Y-67324246D01*
X114115000Y-67111753D01*
X114081757Y-66901872D01*
X114081757Y-66901869D01*
X114016095Y-66699782D01*
X113919624Y-66510449D01*
X113880270Y-66456282D01*
X113880269Y-66456282D01*
X113247962Y-67088590D01*
X113230925Y-67025007D01*
X113165099Y-66910993D01*
X113072007Y-66817901D01*
X112957993Y-66752075D01*
X112894409Y-66735037D01*
X113526716Y-66102728D01*
X113472550Y-66063375D01*
X113283217Y-65966904D01*
X113081129Y-65901242D01*
X112871246Y-65868000D01*
X112658754Y-65868000D01*
X112448872Y-65901242D01*
X112448869Y-65901242D01*
X112246782Y-65966904D01*
X112057439Y-66063380D01*
X112003282Y-66102727D01*
X112003282Y-66102728D01*
X112635591Y-66735037D01*
X112572007Y-66752075D01*
X112457993Y-66817901D01*
X112364901Y-66910993D01*
X112299075Y-67025007D01*
X112282037Y-67088591D01*
X111611818Y-66418372D01*
X111578333Y-66357049D01*
X111578330Y-66357036D01*
X111575499Y-66344015D01*
X111575499Y-66320128D01*
X111569091Y-66260517D01*
X111528133Y-66150702D01*
X111518798Y-66125673D01*
X111518793Y-66125664D01*
X111432547Y-66010455D01*
X111432544Y-66010452D01*
X111317335Y-65924206D01*
X111317328Y-65924202D01*
X111182482Y-65873908D01*
X111182483Y-65873908D01*
X111122883Y-65867501D01*
X111122881Y-65867500D01*
X111122873Y-65867500D01*
X111122864Y-65867500D01*
X109327129Y-65867500D01*
X109327123Y-65867501D01*
X109267516Y-65873908D01*
X109132671Y-65924202D01*
X109132664Y-65924206D01*
X109017455Y-66010452D01*
X109017452Y-66010455D01*
X108931206Y-66125664D01*
X108931202Y-66125671D01*
X108880908Y-66260517D01*
X108874501Y-66320116D01*
X108874500Y-66320135D01*
X103661619Y-66320135D01*
X103647731Y-66301019D01*
X103497408Y-66150696D01*
X103325439Y-66025755D01*
X103316126Y-66021010D01*
X103265329Y-65973036D01*
X103248534Y-65905215D01*
X103271071Y-65839080D01*
X103316129Y-65800038D01*
X103325177Y-65795428D01*
X103379338Y-65756076D01*
X103379339Y-65756076D01*
X102747030Y-65123768D01*
X102810615Y-65106731D01*
X102924629Y-65040905D01*
X103017721Y-64947813D01*
X103083547Y-64833799D01*
X103100584Y-64770215D01*
X103732892Y-65402523D01*
X103732892Y-65402522D01*
X103772244Y-65348360D01*
X103868717Y-65159023D01*
X103934379Y-64956936D01*
X103934379Y-64956933D01*
X103967622Y-64747052D01*
X103967622Y-64534559D01*
X103934379Y-64324678D01*
X103934379Y-64324675D01*
X103868717Y-64122588D01*
X103772246Y-63933255D01*
X103732892Y-63879088D01*
X103732891Y-63879088D01*
X103100584Y-64511396D01*
X103083547Y-64447813D01*
X103017721Y-64333799D01*
X102924629Y-64240707D01*
X102810615Y-64174881D01*
X102747031Y-64157843D01*
X103379338Y-63525534D01*
X103325169Y-63486179D01*
X103325169Y-63486178D01*
X103316122Y-63481569D01*
X103265328Y-63433594D01*
X103248534Y-63365772D01*
X103271073Y-63299638D01*
X103316130Y-63260599D01*
X103325438Y-63255857D01*
X103457375Y-63160000D01*
X103497408Y-63130915D01*
X103497410Y-63130912D01*
X103497414Y-63130910D01*
X103647726Y-62980598D01*
X103647728Y-62980594D01*
X103647731Y-62980592D01*
X103772670Y-62808626D01*
X103772669Y-62808626D01*
X103772673Y-62808622D01*
X103869179Y-62619218D01*
X103934868Y-62417049D01*
X103968122Y-62207093D01*
X103968122Y-61994519D01*
X103934868Y-61784563D01*
X103869179Y-61582394D01*
X103772673Y-61392990D01*
X103772671Y-61392987D01*
X103772670Y-61392985D01*
X103647731Y-61221019D01*
X103497408Y-61070696D01*
X103325442Y-60945757D01*
X103324737Y-60945397D01*
X103316676Y-60941291D01*
X103265881Y-60893318D01*
X103249085Y-60825498D01*
X103271621Y-60759362D01*
X103316676Y-60720321D01*
X103325438Y-60715857D01*
X103394606Y-60665604D01*
X103497408Y-60590915D01*
X103497410Y-60590912D01*
X103497414Y-60590910D01*
X103647726Y-60440598D01*
X103772673Y-60268622D01*
X103869179Y-60079218D01*
X103934868Y-59877049D01*
X103968122Y-59667093D01*
X103968122Y-59454519D01*
X103934868Y-59244563D01*
X103869179Y-59042394D01*
X103772673Y-58852990D01*
X103772671Y-58852987D01*
X103772670Y-58852985D01*
X103647731Y-58681019D01*
X103497408Y-58530696D01*
X103325442Y-58405757D01*
X103324737Y-58405397D01*
X103316676Y-58401291D01*
X103265881Y-58353318D01*
X103249085Y-58285498D01*
X103271621Y-58219362D01*
X103316676Y-58180321D01*
X103325438Y-58175857D01*
X103397944Y-58123179D01*
X103497408Y-58050915D01*
X103497410Y-58050912D01*
X103497414Y-58050910D01*
X103647726Y-57900598D01*
X103647728Y-57900594D01*
X103647731Y-57900592D01*
X103772670Y-57728626D01*
X103772669Y-57728626D01*
X103772673Y-57728622D01*
X103869179Y-57539218D01*
X103934868Y-57337049D01*
X103968122Y-57127093D01*
X103968122Y-56914519D01*
X103934868Y-56704563D01*
X103869179Y-56502394D01*
X103772673Y-56312990D01*
X103772671Y-56312987D01*
X103772670Y-56312985D01*
X103647731Y-56141019D01*
X103497412Y-55990700D01*
X103497407Y-55990696D01*
X103445189Y-55952758D01*
X103445166Y-55952742D01*
X103325438Y-55865755D01*
X103308949Y-55857353D01*
X103305781Y-55855135D01*
X113149500Y-55855135D01*
X113149500Y-57650870D01*
X113149501Y-57650876D01*
X113155908Y-57710483D01*
X113206202Y-57845328D01*
X113206206Y-57845335D01*
X113292452Y-57960544D01*
X113292455Y-57960547D01*
X113407664Y-58046793D01*
X113407671Y-58046797D01*
X113452618Y-58063561D01*
X113542517Y-58097091D01*
X113602127Y-58103500D01*
X113612685Y-58103499D01*
X113679723Y-58123179D01*
X113700372Y-58139818D01*
X114370591Y-58810037D01*
X114307007Y-58827075D01*
X114192993Y-58892901D01*
X114099901Y-58985993D01*
X114034075Y-59100007D01*
X114017037Y-59163591D01*
X113384728Y-58531282D01*
X113384727Y-58531282D01*
X113345380Y-58585439D01*
X113248904Y-58774782D01*
X113183242Y-58976869D01*
X113183242Y-58976872D01*
X113150000Y-59186753D01*
X113150000Y-59399246D01*
X113183242Y-59609127D01*
X113183242Y-59609130D01*
X113248904Y-59811217D01*
X113345375Y-60000550D01*
X113384728Y-60054716D01*
X114017037Y-59422408D01*
X114034075Y-59485993D01*
X114099901Y-59600007D01*
X114192993Y-59693099D01*
X114307007Y-59758925D01*
X114370590Y-59775962D01*
X113738282Y-60408269D01*
X113738282Y-60408270D01*
X113792449Y-60447624D01*
X113981782Y-60544095D01*
X114183870Y-60609757D01*
X114393754Y-60643000D01*
X114606246Y-60643000D01*
X114816127Y-60609757D01*
X114816130Y-60609757D01*
X115018217Y-60544095D01*
X115207554Y-60447622D01*
X115261716Y-60408270D01*
X115261717Y-60408270D01*
X114629408Y-59775962D01*
X114692993Y-59758925D01*
X114807007Y-59693099D01*
X114900099Y-59600007D01*
X114965925Y-59485993D01*
X114982962Y-59422409D01*
X115615270Y-60054717D01*
X115615270Y-60054716D01*
X115654622Y-60000554D01*
X115751095Y-59811217D01*
X115816757Y-59609130D01*
X115816757Y-59609127D01*
X115850000Y-59399246D01*
X115850000Y-59186753D01*
X115816757Y-58976872D01*
X115816757Y-58976869D01*
X115751095Y-58774782D01*
X115654624Y-58585449D01*
X115615270Y-58531282D01*
X115615269Y-58531282D01*
X114982962Y-59163590D01*
X114965925Y-59100007D01*
X114900099Y-58985993D01*
X114807007Y-58892901D01*
X114692993Y-58827075D01*
X114629409Y-58810037D01*
X115299627Y-58139818D01*
X115360950Y-58106333D01*
X115387307Y-58103499D01*
X115397872Y-58103499D01*
X115457483Y-58097091D01*
X115592331Y-58046796D01*
X115707546Y-57960546D01*
X115793796Y-57845331D01*
X115844091Y-57710483D01*
X115850500Y-57650873D01*
X115850499Y-55855128D01*
X115844091Y-55795517D01*
X115793796Y-55660669D01*
X115793795Y-55660668D01*
X115793793Y-55660664D01*
X115707547Y-55545455D01*
X115707544Y-55545452D01*
X115592335Y-55459206D01*
X115592328Y-55459202D01*
X115457482Y-55408908D01*
X115457483Y-55408908D01*
X115397883Y-55402501D01*
X115397881Y-55402500D01*
X115397873Y-55402500D01*
X115397864Y-55402500D01*
X113602129Y-55402500D01*
X113602123Y-55402501D01*
X113542516Y-55408908D01*
X113407671Y-55459202D01*
X113407664Y-55459206D01*
X113292455Y-55545452D01*
X113292452Y-55545455D01*
X113206206Y-55660664D01*
X113206202Y-55660671D01*
X113155908Y-55795517D01*
X113149501Y-55855116D01*
X113149501Y-55855123D01*
X113149500Y-55855135D01*
X103305781Y-55855135D01*
X103301844Y-55852378D01*
X103285231Y-55831592D01*
X103265881Y-55813318D01*
X103263751Y-55804718D01*
X103258221Y-55797799D01*
X103255482Y-55771328D01*
X103249085Y-55745498D01*
X103251941Y-55737113D01*
X103251030Y-55728301D01*
X103263038Y-55704549D01*
X103271621Y-55679362D01*
X103279009Y-55672959D01*
X103282555Y-55665947D01*
X103296699Y-55657631D01*
X103316676Y-55640321D01*
X103325438Y-55635857D01*
X103347411Y-55619892D01*
X103497408Y-55510915D01*
X103497410Y-55510912D01*
X103497414Y-55510910D01*
X103647726Y-55360598D01*
X103647728Y-55360594D01*
X103647731Y-55360592D01*
X103772670Y-55188626D01*
X103772669Y-55188626D01*
X103772673Y-55188622D01*
X103869179Y-54999218D01*
X103934868Y-54797049D01*
X103968122Y-54587093D01*
X103968122Y-54374519D01*
X103934868Y-54164563D01*
X103869179Y-53962394D01*
X103772673Y-53772990D01*
X103772671Y-53772987D01*
X103772670Y-53772985D01*
X103647731Y-53601019D01*
X103497408Y-53450696D01*
X103325439Y-53325755D01*
X103316126Y-53321010D01*
X103265329Y-53273036D01*
X103248534Y-53205215D01*
X103271071Y-53139080D01*
X103316129Y-53100038D01*
X103325177Y-53095428D01*
X103379338Y-53056076D01*
X103379339Y-53056076D01*
X102747030Y-52423768D01*
X102810615Y-52406731D01*
X102924629Y-52340905D01*
X103017721Y-52247813D01*
X103083547Y-52133799D01*
X103100584Y-52070215D01*
X103732892Y-52702523D01*
X103732892Y-52702522D01*
X103772244Y-52648360D01*
X103868717Y-52459023D01*
X103934379Y-52256936D01*
X103934379Y-52256933D01*
X103967622Y-52047052D01*
X103967622Y-51834559D01*
X103934379Y-51624678D01*
X103934379Y-51624675D01*
X103868717Y-51422588D01*
X103772246Y-51233255D01*
X103732892Y-51179088D01*
X103732891Y-51179088D01*
X103100584Y-51811396D01*
X103083547Y-51747813D01*
X103017721Y-51633799D01*
X102924629Y-51540707D01*
X102810615Y-51474881D01*
X102747031Y-51457843D01*
X103379338Y-50825534D01*
X103325169Y-50786179D01*
X103325169Y-50786178D01*
X103316122Y-50781569D01*
X103265328Y-50733594D01*
X103248534Y-50665772D01*
X103271073Y-50599638D01*
X103316130Y-50560599D01*
X103325438Y-50555857D01*
X103424201Y-50484102D01*
X103497408Y-50430915D01*
X103497410Y-50430912D01*
X103497414Y-50430910D01*
X103647726Y-50280598D01*
X103647728Y-50280594D01*
X103647731Y-50280592D01*
X103772670Y-50108626D01*
X103772669Y-50108626D01*
X103772673Y-50108622D01*
X103869179Y-49919218D01*
X103934868Y-49717049D01*
X103968122Y-49507093D01*
X103968122Y-49294519D01*
X103934868Y-49084563D01*
X103869179Y-48882394D01*
X103772673Y-48692990D01*
X103772671Y-48692987D01*
X103772670Y-48692985D01*
X103647731Y-48521019D01*
X103497408Y-48370696D01*
X103325442Y-48245757D01*
X103324737Y-48245397D01*
X103316676Y-48241291D01*
X103265881Y-48193318D01*
X103249085Y-48125498D01*
X103271621Y-48059362D01*
X103316676Y-48020321D01*
X103325438Y-48015857D01*
X103347411Y-47999892D01*
X103497408Y-47890915D01*
X103497410Y-47890912D01*
X103497414Y-47890910D01*
X103647726Y-47740598D01*
X103647728Y-47740594D01*
X103647731Y-47740592D01*
X103772670Y-47568626D01*
X103772669Y-47568626D01*
X103772673Y-47568622D01*
X103869179Y-47379218D01*
X103934868Y-47177049D01*
X103968122Y-46967093D01*
X103968122Y-46754519D01*
X103934868Y-46544563D01*
X103869179Y-46342394D01*
X103772673Y-46152990D01*
X103772671Y-46152987D01*
X103772670Y-46152985D01*
X103647731Y-45981019D01*
X103497408Y-45830696D01*
X103325442Y-45705757D01*
X103324737Y-45705397D01*
X103316676Y-45701291D01*
X103265881Y-45653318D01*
X103249085Y-45585498D01*
X103271621Y-45519362D01*
X103316676Y-45480321D01*
X103325438Y-45475857D01*
X103347411Y-45459892D01*
X103497408Y-45350915D01*
X103497410Y-45350912D01*
X103497414Y-45350910D01*
X103647726Y-45200598D01*
X103647728Y-45200594D01*
X103647731Y-45200592D01*
X103772670Y-45028626D01*
X103772669Y-45028626D01*
X103772673Y-45028622D01*
X103869179Y-44839218D01*
X103934868Y-44637049D01*
X103968122Y-44427093D01*
X103968122Y-44214519D01*
X103934868Y-44004563D01*
X103869179Y-43802394D01*
X103772673Y-43612990D01*
X103772671Y-43612987D01*
X103772670Y-43612985D01*
X103647731Y-43441019D01*
X103497408Y-43290696D01*
X103325442Y-43165757D01*
X103324737Y-43165397D01*
X103316676Y-43161291D01*
X103265881Y-43113318D01*
X103249085Y-43045498D01*
X103271621Y-42979362D01*
X103316676Y-42940321D01*
X103325438Y-42935857D01*
X103347411Y-42919892D01*
X103497408Y-42810915D01*
X103497410Y-42810912D01*
X103497414Y-42810910D01*
X103647726Y-42660598D01*
X103647728Y-42660594D01*
X103647731Y-42660592D01*
X103772670Y-42488626D01*
X103772669Y-42488626D01*
X103772673Y-42488622D01*
X103869179Y-42299218D01*
X103934868Y-42097049D01*
X103968122Y-41887093D01*
X103968122Y-41674519D01*
X103934868Y-41464563D01*
X103869179Y-41262394D01*
X103869176Y-41262388D01*
X103849198Y-41223177D01*
X103849197Y-41223176D01*
X103822995Y-41171753D01*
X110610000Y-41171753D01*
X110610000Y-41384246D01*
X110643242Y-41594127D01*
X110643242Y-41594130D01*
X110708904Y-41796217D01*
X110805375Y-41985550D01*
X110844728Y-42039716D01*
X111477037Y-41407408D01*
X111494075Y-41470993D01*
X111559901Y-41585007D01*
X111652993Y-41678099D01*
X111767007Y-41743925D01*
X111830590Y-41760962D01*
X111198282Y-42393269D01*
X111198282Y-42393270D01*
X111252449Y-42432624D01*
X111441782Y-42529095D01*
X111643870Y-42594757D01*
X111853754Y-42628000D01*
X112066246Y-42628000D01*
X112276127Y-42594757D01*
X112276130Y-42594757D01*
X112478217Y-42529095D01*
X112667554Y-42432622D01*
X112721716Y-42393270D01*
X112721717Y-42393270D01*
X112089408Y-41760962D01*
X112152993Y-41743925D01*
X112267007Y-41678099D01*
X112360099Y-41585007D01*
X112425925Y-41470993D01*
X112442962Y-41407408D01*
X113113181Y-42077628D01*
X113146666Y-42138951D01*
X113149500Y-42165300D01*
X113149500Y-42175865D01*
X113149501Y-42175876D01*
X113155908Y-42235483D01*
X113206202Y-42370328D01*
X113206206Y-42370335D01*
X113292452Y-42485544D01*
X113292455Y-42485547D01*
X113407664Y-42571793D01*
X113407671Y-42571797D01*
X113542517Y-42622091D01*
X113542516Y-42622091D01*
X113549444Y-42622835D01*
X113602127Y-42628500D01*
X115397872Y-42628499D01*
X115457483Y-42622091D01*
X115592331Y-42571796D01*
X115707546Y-42485546D01*
X115793796Y-42370331D01*
X115844091Y-42235483D01*
X115850500Y-42175873D01*
X115850499Y-40380128D01*
X115844091Y-40320517D01*
X115834388Y-40294503D01*
X115793797Y-40185671D01*
X115793793Y-40185664D01*
X115707547Y-40070455D01*
X115707544Y-40070452D01*
X115592335Y-39984206D01*
X115592328Y-39984202D01*
X115457482Y-39933908D01*
X115457483Y-39933908D01*
X115397883Y-39927501D01*
X115397881Y-39927500D01*
X115397873Y-39927500D01*
X115397864Y-39927500D01*
X113602129Y-39927500D01*
X113602123Y-39927501D01*
X113542516Y-39933908D01*
X113407671Y-39984202D01*
X113407664Y-39984206D01*
X113292455Y-40070452D01*
X113292452Y-40070455D01*
X113206206Y-40185664D01*
X113206202Y-40185671D01*
X113155908Y-40320517D01*
X113149501Y-40380116D01*
X113149501Y-40380123D01*
X113149500Y-40380135D01*
X113149500Y-40390690D01*
X113129815Y-40457729D01*
X113113181Y-40478371D01*
X112442962Y-41148590D01*
X112425925Y-41085007D01*
X112360099Y-40970993D01*
X112267007Y-40877901D01*
X112152993Y-40812075D01*
X112089409Y-40795037D01*
X112721716Y-40162728D01*
X112667550Y-40123375D01*
X112478217Y-40026904D01*
X112276129Y-39961242D01*
X112066246Y-39928000D01*
X111853754Y-39928000D01*
X111643872Y-39961242D01*
X111643869Y-39961242D01*
X111441782Y-40026904D01*
X111252439Y-40123380D01*
X111198282Y-40162727D01*
X111198282Y-40162728D01*
X111830591Y-40795037D01*
X111767007Y-40812075D01*
X111652993Y-40877901D01*
X111559901Y-40970993D01*
X111494075Y-41085007D01*
X111477037Y-41148591D01*
X110844728Y-40516282D01*
X110844727Y-40516282D01*
X110805380Y-40570439D01*
X110708904Y-40759782D01*
X110643242Y-40961869D01*
X110643242Y-40961872D01*
X110610000Y-41171753D01*
X103822995Y-41171753D01*
X103811802Y-41149786D01*
X103772673Y-41072990D01*
X103747464Y-41038292D01*
X103647731Y-40901019D01*
X103497408Y-40750696D01*
X103325439Y-40625755D01*
X103316126Y-40621010D01*
X103265329Y-40573036D01*
X103248534Y-40505215D01*
X103271071Y-40439080D01*
X103316129Y-40400038D01*
X103325177Y-40395428D01*
X103379338Y-40356076D01*
X103379339Y-40356076D01*
X103320931Y-40297668D01*
X102747030Y-39723768D01*
X102810615Y-39706731D01*
X102924629Y-39640905D01*
X103017721Y-39547813D01*
X103083547Y-39433799D01*
X103100584Y-39370215D01*
X103732892Y-40002523D01*
X103732892Y-40002522D01*
X103772244Y-39948360D01*
X103868717Y-39759023D01*
X103934379Y-39556936D01*
X103934379Y-39556933D01*
X103967622Y-39347052D01*
X103967622Y-39134559D01*
X103934379Y-38924678D01*
X103934379Y-38924675D01*
X103868717Y-38722588D01*
X103772246Y-38533255D01*
X103732892Y-38479088D01*
X103732891Y-38479088D01*
X103100584Y-39111396D01*
X103083547Y-39047813D01*
X103017721Y-38933799D01*
X102924629Y-38840707D01*
X102810615Y-38774881D01*
X102747031Y-38757843D01*
X103379338Y-38125534D01*
X103325169Y-38086179D01*
X103325169Y-38086178D01*
X103316122Y-38081569D01*
X103265328Y-38033594D01*
X103248534Y-37965772D01*
X103271073Y-37899638D01*
X103316130Y-37860599D01*
X103325438Y-37855857D01*
X103419130Y-37787786D01*
X103497408Y-37730915D01*
X103497410Y-37730912D01*
X103497414Y-37730910D01*
X103647726Y-37580598D01*
X103647728Y-37580594D01*
X103647731Y-37580592D01*
X103772670Y-37408626D01*
X103772669Y-37408626D01*
X103772673Y-37408622D01*
X103869179Y-37219218D01*
X103934868Y-37017049D01*
X103968122Y-36807093D01*
X103968122Y-36594519D01*
X103934868Y-36384563D01*
X103869179Y-36182394D01*
X103772673Y-35992990D01*
X103772671Y-35992987D01*
X103772670Y-35992985D01*
X103647731Y-35821019D01*
X103534191Y-35707479D01*
X103500706Y-35646156D01*
X103505690Y-35576464D01*
X103547562Y-35520531D01*
X103578537Y-35503616D01*
X103709953Y-35454602D01*
X103825168Y-35368352D01*
X103911418Y-35253137D01*
X103961713Y-35118289D01*
X103968122Y-35058679D01*
X103968121Y-33262934D01*
X103961713Y-33203323D01*
X103945724Y-33160455D01*
X103911419Y-33068477D01*
X103911415Y-33068470D01*
X103825169Y-32953261D01*
X103825166Y-32953258D01*
X103709957Y-32867012D01*
X103709950Y-32867008D01*
X103575104Y-32816714D01*
X103575105Y-32816714D01*
X103515505Y-32810307D01*
X103515503Y-32810306D01*
X103515495Y-32810306D01*
X103515486Y-32810306D01*
X101719751Y-32810306D01*
X101719745Y-32810307D01*
X101660138Y-32816714D01*
X101525293Y-32867008D01*
X101525286Y-32867012D01*
X101410077Y-32953258D01*
X101410074Y-32953261D01*
X101323828Y-33068470D01*
X101323824Y-33068477D01*
X101273530Y-33203323D01*
X101267123Y-33262922D01*
X101267123Y-33262929D01*
X101267122Y-33262941D01*
X85784269Y-33262941D01*
X85707547Y-33160455D01*
X85707544Y-33160452D01*
X85592335Y-33074206D01*
X85592328Y-33074202D01*
X85457482Y-33023908D01*
X85457483Y-33023908D01*
X85397883Y-33017501D01*
X85397881Y-33017500D01*
X85397873Y-33017500D01*
X85397864Y-33017500D01*
X83602129Y-33017500D01*
X83602123Y-33017501D01*
X83542516Y-33023908D01*
X83407671Y-33074202D01*
X83407664Y-33074206D01*
X83292455Y-33160452D01*
X83292452Y-33160455D01*
X83206206Y-33275664D01*
X83206202Y-33275671D01*
X83155908Y-33410517D01*
X83149501Y-33470116D01*
X83149501Y-33470123D01*
X83149500Y-33470135D01*
X83149500Y-35265870D01*
X83149501Y-35265876D01*
X83155908Y-35325483D01*
X83206202Y-35460328D01*
X83206206Y-35460335D01*
X83292452Y-35575544D01*
X83292455Y-35575547D01*
X83407664Y-35661793D01*
X83407671Y-35661797D01*
X83539082Y-35710810D01*
X83595016Y-35752681D01*
X83619433Y-35818145D01*
X83604582Y-35886418D01*
X83583431Y-35914673D01*
X83469889Y-36028215D01*
X83344951Y-36200179D01*
X83248444Y-36389585D01*
X83182753Y-36591760D01*
X83149500Y-36801713D01*
X83149500Y-37014287D01*
X83159534Y-37077644D01*
X83182753Y-37224239D01*
X83248444Y-37426414D01*
X83344951Y-37615820D01*
X83469890Y-37787786D01*
X83620213Y-37938109D01*
X83792179Y-38063048D01*
X83792181Y-38063049D01*
X83792184Y-38063051D01*
X83801493Y-38067794D01*
X83852290Y-38115766D01*
X83869087Y-38183587D01*
X83846552Y-38249722D01*
X83801505Y-38288760D01*
X83792446Y-38293376D01*
X83792440Y-38293380D01*
X83738282Y-38332727D01*
X83738282Y-38332728D01*
X84370591Y-38965037D01*
X84307007Y-38982075D01*
X84192993Y-39047901D01*
X84099901Y-39140993D01*
X84034075Y-39255007D01*
X84017037Y-39318591D01*
X83384728Y-38686282D01*
X83384727Y-38686282D01*
X83345380Y-38740439D01*
X83248904Y-38929782D01*
X83183242Y-39131869D01*
X83183242Y-39131872D01*
X83150000Y-39341753D01*
X83150000Y-39554246D01*
X83183242Y-39764127D01*
X83183242Y-39764130D01*
X83248904Y-39966217D01*
X83345375Y-40155550D01*
X83384728Y-40209716D01*
X84017037Y-39577408D01*
X84034075Y-39640993D01*
X84099901Y-39755007D01*
X84192993Y-39848099D01*
X84307007Y-39913925D01*
X84370590Y-39930962D01*
X83738282Y-40563269D01*
X83738282Y-40563270D01*
X83792452Y-40602626D01*
X83792451Y-40602626D01*
X83801495Y-40607234D01*
X83852292Y-40655208D01*
X83869087Y-40723029D01*
X83846550Y-40789164D01*
X83801499Y-40828202D01*
X83792182Y-40832949D01*
X83620213Y-40957890D01*
X83469890Y-41108213D01*
X83344951Y-41280179D01*
X83248441Y-41469590D01*
X83214251Y-41574818D01*
X83174814Y-41632494D01*
X83110455Y-41659692D01*
X83096320Y-41660500D01*
X80805116Y-41660500D01*
X80718884Y-41660500D01*
X80663354Y-41675379D01*
X80635589Y-41682819D01*
X80560911Y-41725934D01*
X80560908Y-41725936D01*
X80150664Y-42136181D01*
X80089341Y-42169666D01*
X80062983Y-42172500D01*
X75235281Y-42172500D01*
X75168242Y-42152815D01*
X75147600Y-42136181D01*
X73817131Y-40805712D01*
X73783646Y-40744389D01*
X73783195Y-40693839D01*
X73800500Y-40606844D01*
X73800500Y-40449155D01*
X73800499Y-40449153D01*
X73786768Y-40380123D01*
X73769737Y-40294503D01*
X73734618Y-40209717D01*
X73709397Y-40148827D01*
X73709390Y-40148814D01*
X73621789Y-40017711D01*
X73621786Y-40017707D01*
X73510292Y-39906213D01*
X73510288Y-39906210D01*
X73379185Y-39818609D01*
X73379172Y-39818602D01*
X73233501Y-39758264D01*
X73233489Y-39758261D01*
X73078845Y-39727500D01*
X73078842Y-39727500D01*
X72921158Y-39727500D01*
X72921155Y-39727500D01*
X72766510Y-39758261D01*
X72766498Y-39758264D01*
X72620827Y-39818602D01*
X72620814Y-39818609D01*
X72489711Y-39906210D01*
X72489707Y-39906213D01*
X72378213Y-40017707D01*
X72378210Y-40017711D01*
X72290609Y-40148814D01*
X72290602Y-40148827D01*
X72230264Y-40294498D01*
X72230261Y-40294510D01*
X72199500Y-40449153D01*
X54500500Y-40449153D01*
X54500500Y-33504066D01*
X54500765Y-33495956D01*
X54509094Y-33368880D01*
X54517075Y-33247102D01*
X54519190Y-33231048D01*
X54567047Y-32990451D01*
X54571240Y-32974804D01*
X54650091Y-32742515D01*
X54656291Y-32727544D01*
X54736788Y-32564314D01*
X54784094Y-32512895D01*
X54851689Y-32495214D01*
X54918113Y-32516884D01*
X54962277Y-32571026D01*
X54972000Y-32619159D01*
X54972000Y-35412166D01*
X58528000Y-35412166D01*
X58528000Y-31856166D01*
X55886495Y-31856166D01*
X55871824Y-31851858D01*
X55856545Y-31852495D01*
X55838979Y-31842213D01*
X55819456Y-31836481D01*
X55809443Y-31824926D01*
X55796245Y-31817201D01*
X55787025Y-31799054D01*
X55773701Y-31783677D01*
X55771525Y-31768543D01*
X55764598Y-31754909D01*
X55766653Y-31734660D01*
X55763757Y-31714519D01*
X55770108Y-31700610D01*
X55771653Y-31685396D01*
X55784328Y-31669474D01*
X55792782Y-31650963D01*
X55806304Y-31641869D01*
X55815170Y-31630733D01*
X55846634Y-31614747D01*
X55974808Y-31571238D01*
X55990451Y-31567047D01*
X56231048Y-31519190D01*
X56247102Y-31517075D01*
X56495957Y-31500765D01*
X56504067Y-31500500D01*
X114745933Y-31500500D01*
X114754043Y-31500765D01*
G37*
%TD.AperFunction*%
%TD*%
M02*
