%TF.GenerationSoftware,KiCad,Pcbnew,10.0.3*%
%TF.CreationDate,2026-06-01T22:06:23-07:00*%
%TF.ProjectId,Encoder Board,456e636f-6465-4722-9042-6f6172642e6b,rev?*%
%TF.SameCoordinates,Original*%
%TF.FileFunction,Profile,NP*%
%FSLAX46Y46*%
G04 Gerber Fmt 4.6, Leading zero omitted, Abs format (unit mm)*
G04 Created by KiCad (PCBNEW 10.0.3) date 2026-06-01 22:06:23*
%MOMM*%
%LPD*%
G01*
G04 APERTURE LIST*
%TA.AperFunction,Profile*%
%ADD10C,0.050000*%
%TD*%
%TA.AperFunction,Profile*%
%ADD11C,0.100000*%
%TD*%
G04 APERTURE END LIST*
D10*
X54500000Y-33500000D02*
X54500000Y-33500000D01*
G75*
G02*
X56500000Y-31500000I2000000J0D01*
G01*
X114750000Y-31500000D01*
G75*
G02*
X116750000Y-33500000I0J-2000000D01*
G01*
X116750000Y-82250000D01*
G75*
G02*
X114750000Y-84250000I-2000000J0D01*
G01*
X56500000Y-84250000D01*
G75*
G02*
X54500000Y-82250000I0J2000000D01*
G01*
X54500000Y-33500000D01*
D11*
X57639000Y-33634166D02*
G75*
G02*
X55861000Y-33634166I-889000J0D01*
G01*
X55861000Y-33634166D02*
G75*
G02*
X57639000Y-33634166I889000J0D01*
G01*
X57639000Y-82139000D02*
G75*
G02*
X55861000Y-82139000I-889000J0D01*
G01*
X55861000Y-82139000D02*
G75*
G02*
X57639000Y-82139000I889000J0D01*
G01*
X88838000Y-34868000D02*
G75*
G02*
X87060000Y-34868000I-889000J0D01*
G01*
X87060000Y-34868000D02*
G75*
G02*
X88838000Y-34868000I889000J0D01*
G01*
X88838000Y-81868000D02*
G75*
G02*
X87060000Y-81868000I-889000J0D01*
G01*
X87060000Y-81868000D02*
G75*
G02*
X88838000Y-81868000I889000J0D01*
G01*
X100238000Y-34868000D02*
G75*
G02*
X98460000Y-34868000I-889000J0D01*
G01*
X98460000Y-34868000D02*
G75*
G02*
X100238000Y-34868000I889000J0D01*
G01*
X100238000Y-81868000D02*
G75*
G02*
X98460000Y-81868000I-889000J0D01*
G01*
X98460000Y-81868000D02*
G75*
G02*
X100238000Y-81868000I889000J0D01*
G01*
X115361000Y-82000000D02*
G75*
G02*
X113583000Y-82000000I-889000J0D01*
G01*
X113583000Y-82000000D02*
G75*
G02*
X115361000Y-82000000I889000J0D01*
G01*
X115478000Y-33534166D02*
G75*
G02*
X113700000Y-33534166I-889000J0D01*
G01*
X113700000Y-33534166D02*
G75*
G02*
X115478000Y-33534166I889000J0D01*
G01*
M02*
