%TF.GenerationSoftware,KiCad,Pcbnew,10.0.3*%
%TF.CreationDate,2026-06-01T14:02:54-07:00*%
%TF.ProjectId,Encoder Board,456e636f-6465-4722-9042-6f6172642e6b,rev?*%
%TF.SameCoordinates,Original*%
%TF.FileFunction,Copper,L2,Bot*%
%TF.FilePolarity,Positive*%
%FSLAX46Y46*%
G04 Gerber Fmt 4.6, Leading zero omitted, Abs format (unit mm)*
G04 Created by KiCad (PCBNEW 10.0.3) date 2026-06-01 14:02:54*
%MOMM*%
%LPD*%
G01*
G04 APERTURE LIST*
%TA.AperFunction,ComponentPad*%
%ADD10R,1.700000X1.700000*%
%TD*%
%TA.AperFunction,ComponentPad*%
%ADD11C,1.700000*%
%TD*%
%TA.AperFunction,ViaPad*%
%ADD12C,0.600000*%
%TD*%
%TA.AperFunction,Conductor*%
%ADD13C,0.400000*%
%TD*%
G04 APERTURE END LIST*
D10*
%TO.P,J6,1,Pin_1_1*%
%TO.N,unconnected-(J6-Pin_1-Pad1)*%
X102617622Y-34160806D03*
D11*
%TO.P,J6,2,Pin_2_2*%
%TO.N,Net-(D1-K)*%
X102617622Y-36700806D03*
%TO.P,J6,3,Pin_3_3*%
%TO.N,GND*%
X102617622Y-39240806D03*
%TO.P,J6,4,Pin_4_4*%
%TO.N,unconnected-(J6-Pin_4-Pad4)*%
X102617622Y-41780806D03*
%TO.P,J6,5,Pin_5_5*%
%TO.N,+3V3_Pi*%
X102617622Y-44320806D03*
%TO.P,J6,6,Pin_6_6*%
%TO.N,unconnected-(J6-Pin_6-Pad6)*%
X102617622Y-46860806D03*
%TO.P,J6,7,Pin_7_7*%
%TO.N,unconnected-(J6-Pin_7-Pad7)*%
X102617622Y-49400806D03*
%TO.P,J6,8,Pin_8_8*%
%TO.N,GND*%
X102617622Y-51940806D03*
%TO.P,J6,9,Pin_9_9*%
%TO.N,unconnected-(J6-Pin_9-Pad9)*%
X102617622Y-54480806D03*
%TO.P,J6,10,Pin_10_10*%
%TO.N,unconnected-(J6-Pin_10-Pad10)*%
X102617622Y-57020806D03*
%TO.P,J6,11,Pin_11_11*%
%TO.N,unconnected-(J6-Pin_11-Pad11)*%
X102617622Y-59560806D03*
%TO.P,J6,12,Pin_12_12*%
%TO.N,unconnected-(J6-Pin_12-Pad12)*%
X102617622Y-62100806D03*
%TO.P,J6,13,Pin_13_13*%
%TO.N,GND*%
X102617622Y-64640806D03*
%TO.P,J6,14,Pin_14_14*%
%TO.N,/TRIGGER*%
X102617622Y-67180806D03*
%TO.P,J6,15,Pin_15_15*%
%TO.N,Net-(J6-Pin_15)*%
X102617622Y-69720806D03*
%TO.P,J6,16,Pin_16_16*%
%TO.N,Net-(J6-Pin_16)*%
X102617622Y-72260806D03*
%TO.P,J6,17,Pin_17_17*%
%TO.N,Net-(J6-Pin_17)*%
X102617622Y-74800806D03*
%TO.P,J6,18,Pin_18_18*%
%TO.N,GND*%
X102617622Y-77340806D03*
%TO.P,J6,19,Pin_19_19*%
%TO.N,unconnected-(J6-Pin_19-Pad19)*%
X102617622Y-79880806D03*
%TO.P,J6,20,Pin_20_20*%
%TO.N,unconnected-(J6-Pin_20-Pad20)*%
X102617622Y-82420806D03*
%TD*%
D10*
%TO.P,J3,1,Pin_1_1*%
%TO.N,+5V_S*%
X114500000Y-41278000D03*
D11*
%TO.P,J3,2,Pin_2_2*%
%TO.N,GND*%
X111960000Y-41278000D03*
%TD*%
D10*
%TO.P,J2,1,Pin_1_1*%
%TO.N,GND*%
X74395000Y-76825000D03*
D11*
%TO.P,J2,2,Pin_2_2*%
X74395000Y-79365000D03*
%TO.P,J2,3,Pin_3_3*%
%TO.N,/INDEX_N*%
X71855000Y-76825000D03*
%TO.P,J2,4,Pin_4_4*%
%TO.N,/INDEX*%
X71855000Y-79365000D03*
%TO.P,J2,5,Pin_5_5*%
%TO.N,/A_N*%
X69315000Y-76825000D03*
%TO.P,J2,6,Pin_6_6*%
%TO.N,/A*%
X69315000Y-79365000D03*
%TO.P,J2,7,Pin_7_7*%
%TO.N,+5V_E*%
X66775000Y-76825000D03*
%TO.P,J2,8,Pin_8_8*%
X66775000Y-79365000D03*
%TO.P,J2,9,Pin_9_9*%
%TO.N,/B_N*%
X64235000Y-76825000D03*
%TO.P,J2,10,Pin_10_10*%
%TO.N,/B*%
X64235000Y-79365000D03*
%TD*%
D10*
%TO.P,J7,1,Pin_1_1*%
%TO.N,/TRIGGER*%
X110225000Y-67968000D03*
D11*
%TO.P,J7,2,Pin_2_2*%
%TO.N,GND*%
X112765000Y-67968000D03*
%TO.P,J7,3,Pin_3_3*%
%TO.N,Net-(J6-Pin_15)*%
X110225000Y-70508000D03*
%TO.P,J7,4,Pin_4_4*%
%TO.N,GND*%
X112765000Y-70508000D03*
%TO.P,J7,5,Pin_5_5*%
%TO.N,Net-(J6-Pin_16)*%
X110225000Y-73048000D03*
%TO.P,J7,6,Pin_6_6*%
%TO.N,GND*%
X112765000Y-73048000D03*
%TO.P,J7,7,Pin_7_7*%
%TO.N,Net-(J6-Pin_17)*%
X110225000Y-75588000D03*
%TO.P,J7,8,Pin_8_8*%
%TO.N,GND*%
X112765000Y-75588000D03*
%TD*%
D10*
%TO.P,J4,1,Pin_1_1*%
%TO.N,+3V3*%
X114500000Y-56753000D03*
D11*
%TO.P,J4,2,Pin_2_2*%
%TO.N,GND*%
X114500000Y-59293000D03*
%TD*%
D10*
%TO.P,J5,1,Pin_1_1*%
%TO.N,unconnected-(J5-Pin_1-Pad1)*%
X84500000Y-34368000D03*
D11*
%TO.P,J5,2,Pin_2_2*%
%TO.N,unconnected-(J5-Pin_2-Pad2)*%
X84500000Y-36908000D03*
%TO.P,J5,3,Pin_3_3*%
%TO.N,GND*%
X84500000Y-39448000D03*
%TO.P,J5,4,Pin_4_4*%
%TO.N,/A_3V3*%
X84500000Y-41988000D03*
%TO.P,J5,5,Pin_5_5*%
%TO.N,/INDEX_3V3*%
X84500000Y-44528000D03*
%TO.P,J5,6,Pin_6_6*%
%TO.N,/B_3V3*%
X84500000Y-47068000D03*
%TO.P,J5,7,Pin_7_7*%
%TO.N,unconnected-(J5-Pin_7-Pad7)*%
X84500000Y-49608000D03*
%TO.P,J5,8,Pin_8_8*%
%TO.N,GND*%
X84500000Y-52148000D03*
%TO.P,J5,9,Pin_9_9*%
%TO.N,unconnected-(J5-Pin_9-Pad9)*%
X84500000Y-54688000D03*
%TO.P,J5,10,Pin_10_10*%
%TO.N,unconnected-(J5-Pin_10-Pad10)*%
X84500000Y-57228000D03*
%TO.P,J5,11,Pin_11_11*%
%TO.N,unconnected-(J5-Pin_11-Pad11)*%
X84500000Y-59768000D03*
%TO.P,J5,12,Pin_12_12*%
%TO.N,unconnected-(J5-Pin_12-Pad12)*%
X84500000Y-62308000D03*
%TO.P,J5,13,Pin_13_13*%
%TO.N,GND*%
X84500000Y-64848000D03*
%TO.P,J5,14,Pin_14_14*%
%TO.N,unconnected-(J5-Pin_14-Pad14)*%
X84500000Y-67388000D03*
%TO.P,J5,15,Pin_15_15*%
%TO.N,unconnected-(J5-Pin_15-Pad15)*%
X84500000Y-69928000D03*
%TO.P,J5,16,Pin_16_16*%
%TO.N,unconnected-(J5-Pin_16-Pad16)*%
X84500000Y-72468000D03*
%TO.P,J5,17,Pin_17_17*%
%TO.N,unconnected-(J5-Pin_17-Pad17)*%
X84500000Y-75008000D03*
%TO.P,J5,18,Pin_18_18*%
%TO.N,GND*%
X84500000Y-77548000D03*
%TO.P,J5,19,Pin_19_19*%
%TO.N,unconnected-(J5-Pin_19-Pad19)*%
X84500000Y-80088000D03*
%TO.P,J5,20,Pin_20_20*%
%TO.N,unconnected-(J5-Pin_20-Pad20)*%
X84500000Y-82628000D03*
%TD*%
D10*
%TO.P,J1,1,Pin_1_1*%
%TO.N,GND*%
X64920000Y-39270000D03*
D11*
%TO.P,J1,2,Pin_2_2*%
X64920000Y-36730000D03*
%TO.P,J1,3,Pin_3_3*%
%TO.N,/INDEX_N*%
X67460000Y-39270000D03*
%TO.P,J1,4,Pin_4_4*%
%TO.N,/INDEX*%
X67460000Y-36730000D03*
%TO.P,J1,5,Pin_5_5*%
%TO.N,/A_N*%
X70000000Y-39270000D03*
%TO.P,J1,6,Pin_6_6*%
%TO.N,/A*%
X70000000Y-36730000D03*
%TO.P,J1,7,Pin_7_7*%
%TO.N,+5V_E*%
X72540000Y-39270000D03*
%TO.P,J1,8,Pin_8_8*%
X72540000Y-36730000D03*
%TO.P,J1,9,Pin_9_9*%
%TO.N,/B_N*%
X75080000Y-39270000D03*
%TO.P,J1,10,Pin_10_10*%
%TO.N,/B*%
X75080000Y-36730000D03*
%TD*%
D12*
%TO.N,/INDEX_N*%
X63873000Y-44100000D03*
X63200000Y-61500000D03*
%TO.N,GND*%
X70400000Y-59800000D03*
X82400000Y-51000000D03*
X69100000Y-63200000D03*
X55800000Y-56100000D03*
X96500000Y-81000000D03*
X59600000Y-32700000D03*
X74900000Y-57100000D03*
X96500000Y-41000000D03*
X106500000Y-51000000D03*
X115250000Y-63000000D03*
X86500000Y-41000000D03*
X96500000Y-61000000D03*
X97000000Y-71000000D03*
X107800000Y-68700000D03*
X86500000Y-61000000D03*
X78900000Y-64700000D03*
X107850000Y-71300000D03*
X115500000Y-78750000D03*
X55700000Y-37100000D03*
X107900000Y-73900000D03*
X62500000Y-39400000D03*
X86500000Y-80250000D03*
X106800000Y-40800000D03*
X60500000Y-83400000D03*
X86500000Y-51000000D03*
X82400000Y-40500000D03*
X106500000Y-81000000D03*
X66800000Y-43400000D03*
X86500000Y-71000000D03*
X55900000Y-74300000D03*
X76650000Y-72300000D03*
X106500000Y-61000000D03*
X82500000Y-43500000D03*
X77200000Y-83300000D03*
X82450000Y-46150000D03*
X97000000Y-51000000D03*
X115450000Y-71100000D03*
%TO.N,/A_N*%
X70000000Y-41700000D03*
X70000000Y-49500000D03*
%TO.N,/INDEX*%
X66200000Y-41800000D03*
X64500000Y-55800000D03*
%TO.N,/A*%
X68710000Y-41700000D03*
X66600000Y-52200000D03*
%TO.N,/A_3V3*%
X69900000Y-54400000D03*
X76900000Y-45900000D03*
%TO.N,/INDEX_3V3*%
X70900000Y-56800000D03*
X76900000Y-47000000D03*
%TO.N,/B_N*%
X74317600Y-64542769D03*
%TO.N,/B*%
X78500000Y-57400000D03*
%TD*%
%TO.N,/INDEX_N*%
D13*
X61400000Y-65700000D02*
X71855000Y-76155000D01*
X62600000Y-45200000D02*
X62600000Y-60900000D01*
X63700000Y-44100000D02*
X62600000Y-45200000D01*
X71855000Y-76155000D02*
X71855000Y-76825000D01*
X67460000Y-39270000D02*
X61400000Y-45330000D01*
X63873000Y-44100000D02*
X63700000Y-44100000D01*
X61400000Y-45330000D02*
X61400000Y-65700000D01*
X62600000Y-60900000D02*
X63200000Y-61500000D01*
%TO.N,/A_N*%
X70000000Y-39270000D02*
X68710000Y-37980000D01*
X59600000Y-37400000D02*
X59600000Y-67110000D01*
X68710000Y-37980000D02*
X68710000Y-35510000D01*
X67600000Y-34400000D02*
X62600000Y-34400000D01*
X68710000Y-35510000D02*
X67600000Y-34400000D01*
X70000000Y-41700000D02*
X70000000Y-49500000D01*
X59600000Y-67110000D02*
X69315000Y-76825000D01*
X62600000Y-34400000D02*
X59600000Y-37400000D01*
%TO.N,/INDEX*%
X60800000Y-66542233D02*
X70605000Y-76347233D01*
X64500000Y-55800000D02*
X64500000Y-43500000D01*
X63100000Y-35100000D02*
X60800000Y-37400000D01*
X70605000Y-78115000D02*
X71855000Y-79365000D01*
X70605000Y-76347233D02*
X70605000Y-78115000D01*
X60800000Y-37400000D02*
X60800000Y-66542233D01*
X65830000Y-35100000D02*
X63100000Y-35100000D01*
X67460000Y-36730000D02*
X65830000Y-35100000D01*
X64500000Y-43500000D02*
X66200000Y-41800000D01*
%TO.N,/A*%
X66257233Y-78075000D02*
X68025000Y-78075000D01*
X68710000Y-41700000D02*
X68710000Y-50090000D01*
X62500000Y-33700000D02*
X59000000Y-37200000D01*
X59000000Y-37200000D02*
X59000000Y-69500000D01*
X68025000Y-78075000D02*
X69315000Y-79365000D01*
X70000000Y-35400000D02*
X68300000Y-33700000D01*
X70000000Y-36730000D02*
X70000000Y-35400000D01*
X65525000Y-77342767D02*
X66257233Y-78075000D01*
X65525000Y-76025000D02*
X65525000Y-77342767D01*
X68300000Y-33700000D02*
X62500000Y-33700000D01*
X68710000Y-50090000D02*
X66600000Y-52200000D01*
X59000000Y-69500000D02*
X65525000Y-76025000D01*
%TO.N,/A_3V3*%
X84203000Y-41691000D02*
X84500000Y-41988000D01*
X69900000Y-54400000D02*
X69900000Y-52900000D01*
X69900000Y-52900000D02*
X76900000Y-45900000D01*
%TO.N,/INDEX_3V3*%
X70900000Y-56800000D02*
X70900000Y-53000000D01*
X70900000Y-53000000D02*
X76900000Y-47000000D01*
%TO.N,/B_N*%
X62500000Y-32600000D02*
X58100000Y-37000000D01*
X75357231Y-64542769D02*
X74317600Y-64542769D01*
X75080000Y-39270000D02*
X73790000Y-37980000D01*
X58100000Y-70690000D02*
X64235000Y-76825000D01*
X70600000Y-32600000D02*
X62500000Y-32600000D01*
X58100000Y-37000000D02*
X58100000Y-70690000D01*
X77700000Y-62200000D02*
X75357231Y-64542769D01*
X77700000Y-41890000D02*
X77700000Y-62200000D01*
X73790000Y-37980000D02*
X73790000Y-35790000D01*
X73790000Y-35790000D02*
X70600000Y-32600000D01*
X75080000Y-39270000D02*
X77700000Y-41890000D01*
%TO.N,/B*%
X75080000Y-35655000D02*
X71425000Y-32000000D01*
X71425000Y-32000000D02*
X62300000Y-32000000D01*
X62300000Y-32000000D02*
X57500000Y-36800000D01*
X75080000Y-36730000D02*
X78500000Y-40150000D01*
X57500000Y-72630000D02*
X64235000Y-79365000D01*
X78500000Y-40150000D02*
X78500000Y-57400000D01*
X75080000Y-36730000D02*
X75080000Y-35655000D01*
X57500000Y-36800000D02*
X57500000Y-72630000D01*
%TD*%
%TA.AperFunction,Conductor*%
%TO.N,GND*%
G36*
X112299075Y-73240993D02*
G01*
X112364901Y-73355007D01*
X112457993Y-73448099D01*
X112572007Y-73513925D01*
X112635591Y-73530962D01*
X112034971Y-74131581D01*
X112113711Y-74248895D01*
X112114920Y-74252729D01*
X112117844Y-74255491D01*
X112125343Y-74285778D01*
X112134727Y-74315529D01*
X112133671Y-74319408D01*
X112134638Y-74323312D01*
X112124573Y-74352844D01*
X112116383Y-74382947D01*
X112113397Y-74385640D01*
X112112100Y-74389447D01*
X112067051Y-74428483D01*
X112057440Y-74433380D01*
X112003282Y-74472727D01*
X112003282Y-74472728D01*
X112635591Y-75105037D01*
X112572007Y-75122075D01*
X112457993Y-75187901D01*
X112364901Y-75280993D01*
X112299075Y-75395007D01*
X112282037Y-75458591D01*
X111649728Y-74826282D01*
X111649727Y-74826282D01*
X111610380Y-74880440D01*
X111610376Y-74880446D01*
X111605760Y-74889505D01*
X111557781Y-74940297D01*
X111489959Y-74957087D01*
X111423826Y-74934543D01*
X111384794Y-74889493D01*
X111380051Y-74880184D01*
X111380049Y-74880181D01*
X111380048Y-74880179D01*
X111255109Y-74708213D01*
X111104786Y-74557890D01*
X110932820Y-74432951D01*
X110932115Y-74432591D01*
X110924054Y-74428485D01*
X110873259Y-74380512D01*
X110856463Y-74312692D01*
X110878999Y-74246556D01*
X110924054Y-74207515D01*
X110932816Y-74203051D01*
X111031187Y-74131581D01*
X111104786Y-74078109D01*
X111104788Y-74078106D01*
X111104792Y-74078104D01*
X111255104Y-73927792D01*
X111255106Y-73927788D01*
X111255109Y-73927786D01*
X111340890Y-73809717D01*
X111380051Y-73755816D01*
X111384793Y-73746508D01*
X111432763Y-73695711D01*
X111500583Y-73678911D01*
X111566719Y-73701445D01*
X111605763Y-73746500D01*
X111610373Y-73755547D01*
X111649728Y-73809716D01*
X112282037Y-73177408D01*
X112299075Y-73240993D01*
G37*
%TD.AperFunction*%
%TA.AperFunction,Conductor*%
G36*
X112299075Y-70700993D02*
G01*
X112364901Y-70815007D01*
X112457993Y-70908099D01*
X112572007Y-70973925D01*
X112635591Y-70990962D01*
X112034971Y-71591581D01*
X112113711Y-71708895D01*
X112114920Y-71712729D01*
X112117844Y-71715491D01*
X112125343Y-71745778D01*
X112134727Y-71775529D01*
X112133671Y-71779408D01*
X112134638Y-71783312D01*
X112124573Y-71812844D01*
X112116383Y-71842947D01*
X112113397Y-71845640D01*
X112112100Y-71849447D01*
X112067051Y-71888483D01*
X112057440Y-71893380D01*
X112003282Y-71932727D01*
X112003282Y-71932728D01*
X112635591Y-72565037D01*
X112572007Y-72582075D01*
X112457993Y-72647901D01*
X112364901Y-72740993D01*
X112299075Y-72855007D01*
X112282037Y-72918591D01*
X111649728Y-72286282D01*
X111649727Y-72286282D01*
X111610380Y-72340440D01*
X111610376Y-72340446D01*
X111605760Y-72349505D01*
X111557781Y-72400297D01*
X111489959Y-72417087D01*
X111423826Y-72394543D01*
X111384794Y-72349493D01*
X111380051Y-72340184D01*
X111380049Y-72340181D01*
X111380048Y-72340179D01*
X111255109Y-72168213D01*
X111104786Y-72017890D01*
X110932820Y-71892951D01*
X110932115Y-71892591D01*
X110924054Y-71888485D01*
X110873259Y-71840512D01*
X110856463Y-71772692D01*
X110878999Y-71706556D01*
X110924054Y-71667515D01*
X110932816Y-71663051D01*
X111031187Y-71591581D01*
X111104786Y-71538109D01*
X111104788Y-71538106D01*
X111104792Y-71538104D01*
X111255104Y-71387792D01*
X111255106Y-71387788D01*
X111255109Y-71387786D01*
X111340890Y-71269717D01*
X111380051Y-71215816D01*
X111384793Y-71206508D01*
X111432763Y-71155711D01*
X111500583Y-71138911D01*
X111566719Y-71161445D01*
X111605763Y-71206500D01*
X111610373Y-71215547D01*
X111649728Y-71269716D01*
X112282037Y-70637408D01*
X112299075Y-70700993D01*
G37*
%TD.AperFunction*%
%TA.AperFunction,Conductor*%
G36*
X112299075Y-68160993D02*
G01*
X112364901Y-68275007D01*
X112457993Y-68368099D01*
X112572007Y-68433925D01*
X112635591Y-68450962D01*
X112034971Y-69051581D01*
X112113711Y-69168895D01*
X112134727Y-69235529D01*
X112116383Y-69302947D01*
X112067051Y-69348483D01*
X112057440Y-69353380D01*
X112003282Y-69392727D01*
X112003282Y-69392728D01*
X112635591Y-70025037D01*
X112572007Y-70042075D01*
X112457993Y-70107901D01*
X112364901Y-70200993D01*
X112299075Y-70315007D01*
X112282037Y-70378591D01*
X111649728Y-69746282D01*
X111649727Y-69746282D01*
X111610380Y-69800440D01*
X111610376Y-69800446D01*
X111605760Y-69809505D01*
X111557781Y-69860297D01*
X111489959Y-69877087D01*
X111423826Y-69854543D01*
X111384794Y-69809493D01*
X111380051Y-69800184D01*
X111380049Y-69800181D01*
X111380048Y-69800179D01*
X111255109Y-69628213D01*
X111141569Y-69514673D01*
X111108084Y-69453350D01*
X111113068Y-69383658D01*
X111154940Y-69327725D01*
X111185915Y-69310810D01*
X111317331Y-69261796D01*
X111432546Y-69175546D01*
X111518796Y-69060331D01*
X111569091Y-68925483D01*
X111575500Y-68865873D01*
X111575499Y-68841979D01*
X111578330Y-68828963D01*
X111588940Y-68809525D01*
X111595179Y-68788275D01*
X111611803Y-68767643D01*
X111611808Y-68767636D01*
X111611811Y-68767634D01*
X111611818Y-68767626D01*
X112282037Y-68097408D01*
X112299075Y-68160993D01*
G37*
%TD.AperFunction*%
%TA.AperFunction,Conductor*%
G36*
X114754043Y-31500765D02*
G01*
X114871004Y-31508431D01*
X114936612Y-31532458D01*
X114978816Y-31588142D01*
X114984215Y-31657803D01*
X114951095Y-31719324D01*
X114889973Y-31753173D01*
X114862894Y-31756166D01*
X112811000Y-31756166D01*
X112811000Y-35312166D01*
X116367000Y-35312166D01*
X116367000Y-32807443D01*
X116371308Y-32792770D01*
X116370672Y-32777492D01*
X116380951Y-32759928D01*
X116386685Y-32740404D01*
X116398240Y-32730391D01*
X116405966Y-32717192D01*
X116424111Y-32707973D01*
X116439489Y-32694649D01*
X116454623Y-32692472D01*
X116468258Y-32685546D01*
X116488504Y-32687601D01*
X116508647Y-32684705D01*
X116522557Y-32691057D01*
X116537771Y-32692602D01*
X116553691Y-32705275D01*
X116572203Y-32713730D01*
X116581297Y-32727252D01*
X116592434Y-32736119D01*
X116608416Y-32767577D01*
X116678759Y-32974804D01*
X116682954Y-32990461D01*
X116730807Y-33231035D01*
X116732925Y-33247116D01*
X116749235Y-33495956D01*
X116749500Y-33504066D01*
X116749500Y-82245933D01*
X116749235Y-82254043D01*
X116732925Y-82502883D01*
X116730807Y-82518964D01*
X116682954Y-82759538D01*
X116678756Y-82775205D01*
X116599911Y-83007476D01*
X116593704Y-83022462D01*
X116485212Y-83242460D01*
X116437906Y-83293880D01*
X116370311Y-83311561D01*
X116303887Y-83289891D01*
X116259723Y-83235749D01*
X116250000Y-83187616D01*
X116250000Y-80194000D01*
X112694000Y-80194000D01*
X112694000Y-83750000D01*
X115687618Y-83750000D01*
X115694520Y-83752026D01*
X115701606Y-83750792D01*
X115727597Y-83761739D01*
X115754657Y-83769685D01*
X115759366Y-83775120D01*
X115765997Y-83777913D01*
X115781944Y-83801176D01*
X115800412Y-83822489D01*
X115801435Y-83829608D01*
X115805503Y-83835542D01*
X115806342Y-83863731D01*
X115810356Y-83891647D01*
X115807367Y-83898189D01*
X115807582Y-83905380D01*
X115793047Y-83929547D01*
X115781331Y-83955203D01*
X115774399Y-83960554D01*
X115771572Y-83965256D01*
X115742462Y-83985212D01*
X115522462Y-84093704D01*
X115507476Y-84099911D01*
X115275205Y-84178756D01*
X115259538Y-84182954D01*
X115018964Y-84230807D01*
X115002883Y-84232925D01*
X114754043Y-84249235D01*
X114745933Y-84249500D01*
X56504067Y-84249500D01*
X56495957Y-84249235D01*
X56247116Y-84232925D01*
X56231035Y-84230807D01*
X55990461Y-84182954D01*
X55974804Y-84178759D01*
X55914879Y-84158418D01*
X55857728Y-84118231D01*
X55831374Y-84053522D01*
X55844188Y-83984837D01*
X55892102Y-83933984D01*
X55954740Y-83917000D01*
X58528000Y-83917000D01*
X58528000Y-80361000D01*
X54972000Y-80361000D01*
X54972000Y-83130840D01*
X54969973Y-83137740D01*
X54971209Y-83144828D01*
X54960259Y-83170823D01*
X54952315Y-83197879D01*
X54946879Y-83202588D01*
X54944087Y-83209219D01*
X54920821Y-83225168D01*
X54899511Y-83243634D01*
X54892392Y-83244657D01*
X54886459Y-83248725D01*
X54858267Y-83249564D01*
X54830353Y-83253578D01*
X54823810Y-83250589D01*
X54816620Y-83250804D01*
X54792449Y-83236268D01*
X54766797Y-83224553D01*
X54761446Y-83217623D01*
X54756744Y-83214795D01*
X54736788Y-83185684D01*
X54656295Y-83022462D01*
X54650088Y-83007476D01*
X54571241Y-82775199D01*
X54567045Y-82759538D01*
X54519190Y-82518953D01*
X54517075Y-82502895D01*
X54500765Y-82254043D01*
X54500500Y-82245933D01*
X54500500Y-33504066D01*
X54500765Y-33495956D01*
X54507394Y-33394819D01*
X54517075Y-33247102D01*
X54519190Y-33231048D01*
X54567047Y-32990451D01*
X54571240Y-32974804D01*
X54650091Y-32742515D01*
X54656291Y-32727544D01*
X54736788Y-32564314D01*
X54784094Y-32512895D01*
X54851689Y-32495214D01*
X54918113Y-32516884D01*
X54962277Y-32571026D01*
X54972000Y-32619159D01*
X54972000Y-35412166D01*
X58125317Y-35412166D01*
X58192356Y-35431851D01*
X58238111Y-35484655D01*
X58248055Y-35553813D01*
X58219030Y-35617369D01*
X58212998Y-35623847D01*
X57237936Y-36598908D01*
X57237934Y-36598911D01*
X57194819Y-36673589D01*
X57194819Y-36673590D01*
X57172500Y-36756884D01*
X57172500Y-72586884D01*
X57172500Y-72673116D01*
X57188213Y-72731757D01*
X57194819Y-72756410D01*
X57237934Y-72831088D01*
X57237936Y-72831091D01*
X63010870Y-78604025D01*
X63044355Y-78665348D01*
X63039371Y-78735040D01*
X63033674Y-78748000D01*
X62983445Y-78846582D01*
X62917753Y-79048760D01*
X62884500Y-79258713D01*
X62884500Y-79471286D01*
X62917735Y-79681127D01*
X62917754Y-79681243D01*
X62983380Y-79883219D01*
X62983444Y-79883414D01*
X63079951Y-80072820D01*
X63204890Y-80244786D01*
X63355213Y-80395109D01*
X63527179Y-80520048D01*
X63527181Y-80520049D01*
X63527184Y-80520051D01*
X63716588Y-80616557D01*
X63918757Y-80682246D01*
X64128713Y-80715500D01*
X64128714Y-80715500D01*
X64341286Y-80715500D01*
X64341287Y-80715500D01*
X64551243Y-80682246D01*
X64753412Y-80616557D01*
X64942816Y-80520051D01*
X64997572Y-80480269D01*
X65114786Y-80395109D01*
X65114788Y-80395106D01*
X65114792Y-80395104D01*
X65265104Y-80244792D01*
X65265106Y-80244788D01*
X65265109Y-80244786D01*
X65390048Y-80072820D01*
X65390047Y-80072820D01*
X65390051Y-80072816D01*
X65394514Y-80064054D01*
X65442488Y-80013259D01*
X65510308Y-79996463D01*
X65576444Y-80018999D01*
X65615486Y-80064056D01*
X65619951Y-80072820D01*
X65744890Y-80244786D01*
X65895213Y-80395109D01*
X66067179Y-80520048D01*
X66067181Y-80520049D01*
X66067184Y-80520051D01*
X66256588Y-80616557D01*
X66458757Y-80682246D01*
X66668713Y-80715500D01*
X66668714Y-80715500D01*
X66881286Y-80715500D01*
X66881287Y-80715500D01*
X67091243Y-80682246D01*
X67293412Y-80616557D01*
X67482816Y-80520051D01*
X67537572Y-80480269D01*
X67654786Y-80395109D01*
X67654788Y-80395106D01*
X67654792Y-80395104D01*
X67805104Y-80244792D01*
X67805106Y-80244788D01*
X67805109Y-80244786D01*
X67930048Y-80072820D01*
X67930047Y-80072820D01*
X67930051Y-80072816D01*
X67934514Y-80064054D01*
X67982488Y-80013259D01*
X68050308Y-79996463D01*
X68116444Y-80018999D01*
X68155486Y-80064056D01*
X68159951Y-80072820D01*
X68284890Y-80244786D01*
X68435213Y-80395109D01*
X68607179Y-80520048D01*
X68607181Y-80520049D01*
X68607184Y-80520051D01*
X68796588Y-80616557D01*
X68998757Y-80682246D01*
X69208713Y-80715500D01*
X69208714Y-80715500D01*
X69421286Y-80715500D01*
X69421287Y-80715500D01*
X69631243Y-80682246D01*
X69833412Y-80616557D01*
X70022816Y-80520051D01*
X70077572Y-80480269D01*
X70194786Y-80395109D01*
X70194788Y-80395106D01*
X70194792Y-80395104D01*
X70345104Y-80244792D01*
X70345106Y-80244788D01*
X70345109Y-80244786D01*
X70470048Y-80072820D01*
X70470047Y-80072820D01*
X70470051Y-80072816D01*
X70474514Y-80064054D01*
X70522488Y-80013259D01*
X70590308Y-79996463D01*
X70656444Y-80018999D01*
X70695486Y-80064056D01*
X70699951Y-80072820D01*
X70824890Y-80244786D01*
X70975213Y-80395109D01*
X71147179Y-80520048D01*
X71147181Y-80520049D01*
X71147184Y-80520051D01*
X71336588Y-80616557D01*
X71538757Y-80682246D01*
X71748713Y-80715500D01*
X71748714Y-80715500D01*
X71961286Y-80715500D01*
X71961287Y-80715500D01*
X72171243Y-80682246D01*
X72373412Y-80616557D01*
X72562816Y-80520051D01*
X72617572Y-80480269D01*
X72734786Y-80395109D01*
X72734788Y-80395106D01*
X72734792Y-80395104D01*
X72885104Y-80244792D01*
X72885106Y-80244788D01*
X72885109Y-80244786D01*
X72970890Y-80126717D01*
X73010051Y-80072816D01*
X73014793Y-80063508D01*
X73062763Y-80012711D01*
X73130583Y-79995911D01*
X73196719Y-80018445D01*
X73235763Y-80063500D01*
X73240373Y-80072547D01*
X73279728Y-80126716D01*
X73912037Y-79494408D01*
X73929075Y-79557993D01*
X73994901Y-79672007D01*
X74087993Y-79765099D01*
X74202007Y-79830925D01*
X74265590Y-79847962D01*
X73633282Y-80480269D01*
X73633282Y-80480270D01*
X73687449Y-80519624D01*
X73876782Y-80616095D01*
X74078870Y-80681757D01*
X74288754Y-80715000D01*
X74501246Y-80715000D01*
X74711127Y-80681757D01*
X74711130Y-80681757D01*
X74913217Y-80616095D01*
X75102554Y-80519622D01*
X75156716Y-80480270D01*
X75156717Y-80480270D01*
X74524408Y-79847962D01*
X74587993Y-79830925D01*
X74702007Y-79765099D01*
X74795099Y-79672007D01*
X74860925Y-79557993D01*
X74877962Y-79494408D01*
X75510270Y-80126717D01*
X75510270Y-80126716D01*
X75549622Y-80072554D01*
X75627075Y-79920546D01*
X75627076Y-79920544D01*
X75646094Y-79883219D01*
X75711757Y-79681130D01*
X75711757Y-79681127D01*
X75745000Y-79471246D01*
X75745000Y-79258753D01*
X75711757Y-79048872D01*
X75711757Y-79048869D01*
X75646095Y-78846782D01*
X75549624Y-78657449D01*
X75510270Y-78603282D01*
X75510269Y-78603282D01*
X74877962Y-79235590D01*
X74860925Y-79172007D01*
X74795099Y-79057993D01*
X74702007Y-78964901D01*
X74587993Y-78899075D01*
X74524409Y-78882037D01*
X75193802Y-78212642D01*
X75255125Y-78179157D01*
X75269833Y-78180078D01*
X75269556Y-78177501D01*
X75352375Y-78168598D01*
X75487086Y-78118354D01*
X75487093Y-78118350D01*
X75602187Y-78032190D01*
X75602190Y-78032187D01*
X75688350Y-77917093D01*
X75688354Y-77917086D01*
X75738596Y-77782379D01*
X75738598Y-77782372D01*
X75744999Y-77722844D01*
X75745000Y-77722827D01*
X75745000Y-77075000D01*
X74828012Y-77075000D01*
X74860925Y-77017993D01*
X74895000Y-76890826D01*
X74895000Y-76759174D01*
X74860925Y-76632007D01*
X74828012Y-76575000D01*
X75745000Y-76575000D01*
X75745000Y-75927172D01*
X75744999Y-75927155D01*
X75738598Y-75867627D01*
X75738596Y-75867620D01*
X75688354Y-75732913D01*
X75688350Y-75732906D01*
X75602190Y-75617812D01*
X75602187Y-75617809D01*
X75487093Y-75531649D01*
X75487086Y-75531645D01*
X75352379Y-75481403D01*
X75352372Y-75481401D01*
X75292844Y-75475000D01*
X74645000Y-75475000D01*
X74645000Y-76391988D01*
X74587993Y-76359075D01*
X74460826Y-76325000D01*
X74329174Y-76325000D01*
X74202007Y-76359075D01*
X74145000Y-76391988D01*
X74145000Y-75475000D01*
X73497155Y-75475000D01*
X73437627Y-75481401D01*
X73437620Y-75481403D01*
X73302913Y-75531645D01*
X73302906Y-75531649D01*
X73187812Y-75617809D01*
X73187809Y-75617812D01*
X73101649Y-75732906D01*
X73101646Y-75732912D01*
X73052577Y-75864471D01*
X73010705Y-75920404D01*
X72945241Y-75944821D01*
X72876968Y-75929969D01*
X72848714Y-75908818D01*
X72734786Y-75794890D01*
X72562820Y-75669951D01*
X72373414Y-75573444D01*
X72373413Y-75573443D01*
X72373412Y-75573443D01*
X72171243Y-75507754D01*
X72171241Y-75507753D01*
X72171240Y-75507753D01*
X72006828Y-75481713D01*
X71961287Y-75474500D01*
X71748713Y-75474500D01*
X71748712Y-75474500D01*
X71715240Y-75479801D01*
X71645947Y-75470845D01*
X71608163Y-75445008D01*
X61763819Y-65600664D01*
X61730334Y-65539341D01*
X61727500Y-65512983D01*
X61727500Y-45517017D01*
X61747185Y-45449978D01*
X61763819Y-45429336D01*
X62060819Y-45132336D01*
X62122142Y-45098851D01*
X62191834Y-45103835D01*
X62247767Y-45145707D01*
X62272184Y-45211171D01*
X62272500Y-45220017D01*
X62272500Y-60856884D01*
X62272500Y-60943116D01*
X62292983Y-61019557D01*
X62294819Y-61026410D01*
X62337934Y-61101088D01*
X62337936Y-61101091D01*
X62395521Y-61158676D01*
X62429006Y-61219999D01*
X62429457Y-61270548D01*
X62399500Y-61421153D01*
X62399500Y-61578846D01*
X62430261Y-61733489D01*
X62430264Y-61733501D01*
X62490602Y-61879172D01*
X62490609Y-61879185D01*
X62578210Y-62010288D01*
X62578213Y-62010292D01*
X62689707Y-62121786D01*
X62689711Y-62121789D01*
X62820814Y-62209390D01*
X62820827Y-62209397D01*
X62966498Y-62269735D01*
X62966503Y-62269737D01*
X63121153Y-62300499D01*
X63121156Y-62300500D01*
X63121158Y-62300500D01*
X63278844Y-62300500D01*
X63278845Y-62300499D01*
X63433497Y-62269737D01*
X63579179Y-62209394D01*
X63710289Y-62121789D01*
X63821789Y-62010289D01*
X63909394Y-61879179D01*
X63969737Y-61733497D01*
X64000500Y-61578842D01*
X64000500Y-61421158D01*
X64000500Y-61421155D01*
X64000499Y-61421153D01*
X63972002Y-61277890D01*
X63969737Y-61266503D01*
X63922702Y-61152949D01*
X63909397Y-61120827D01*
X63909390Y-61120814D01*
X63821789Y-60989711D01*
X63821786Y-60989707D01*
X63710292Y-60878213D01*
X63710288Y-60878210D01*
X63579185Y-60790609D01*
X63579172Y-60790602D01*
X63433501Y-60730264D01*
X63433489Y-60730261D01*
X63278845Y-60699500D01*
X63278842Y-60699500D01*
X63121158Y-60699500D01*
X63121153Y-60699500D01*
X63075691Y-60708543D01*
X63006099Y-60702316D01*
X62950922Y-60659452D01*
X62927678Y-60593562D01*
X62927500Y-60586926D01*
X62927500Y-45387016D01*
X62947185Y-45319977D01*
X62963815Y-45299339D01*
X63406907Y-44856246D01*
X63468230Y-44822762D01*
X63537922Y-44827746D01*
X63542040Y-44829367D01*
X63589024Y-44848828D01*
X63639503Y-44869737D01*
X63794153Y-44900499D01*
X63794156Y-44900500D01*
X63794158Y-44900500D01*
X63951843Y-44900500D01*
X63967564Y-44897372D01*
X64024309Y-44886085D01*
X64093899Y-44892312D01*
X64149077Y-44935174D01*
X64172322Y-45001063D01*
X64172500Y-45007702D01*
X64172500Y-54989795D01*
X64152815Y-55056834D01*
X64117391Y-55092897D01*
X63989711Y-55178210D01*
X63989707Y-55178213D01*
X63878213Y-55289707D01*
X63878210Y-55289711D01*
X63790609Y-55420814D01*
X63790602Y-55420827D01*
X63730264Y-55566498D01*
X63730261Y-55566510D01*
X63699500Y-55721153D01*
X63699500Y-55878846D01*
X63730261Y-56033489D01*
X63730264Y-56033501D01*
X63790602Y-56179172D01*
X63790609Y-56179185D01*
X63878210Y-56310288D01*
X63878213Y-56310292D01*
X63989707Y-56421786D01*
X63989711Y-56421789D01*
X64120814Y-56509390D01*
X64120827Y-56509397D01*
X64258683Y-56566498D01*
X64266503Y-56569737D01*
X64367341Y-56589795D01*
X64421153Y-56600499D01*
X64421156Y-56600500D01*
X64421158Y-56600500D01*
X64578844Y-56600500D01*
X64578845Y-56600499D01*
X64733497Y-56569737D01*
X64879179Y-56509394D01*
X65010289Y-56421789D01*
X65121789Y-56310289D01*
X65209394Y-56179179D01*
X65269737Y-56033497D01*
X65300500Y-55878842D01*
X65300500Y-55721158D01*
X65300500Y-55721155D01*
X65300499Y-55721153D01*
X65269737Y-55566503D01*
X65261018Y-55545454D01*
X65209397Y-55420827D01*
X65209390Y-55420814D01*
X65121789Y-55289711D01*
X65121786Y-55289707D01*
X65010292Y-55178213D01*
X65010288Y-55178210D01*
X64882609Y-55092897D01*
X64837804Y-55039285D01*
X64827500Y-54989795D01*
X64827500Y-52121153D01*
X65799500Y-52121153D01*
X65799500Y-52278846D01*
X65830261Y-52433489D01*
X65830264Y-52433501D01*
X65890602Y-52579172D01*
X65890609Y-52579185D01*
X65978210Y-52710288D01*
X65978213Y-52710292D01*
X66089707Y-52821786D01*
X66089711Y-52821789D01*
X66220814Y-52909390D01*
X66220827Y-52909397D01*
X66366498Y-52969735D01*
X66366503Y-52969737D01*
X66468452Y-52990016D01*
X66521153Y-53000499D01*
X66521156Y-53000500D01*
X66521158Y-53000500D01*
X66678844Y-53000500D01*
X66678845Y-53000499D01*
X66833497Y-52969737D01*
X66979179Y-52909394D01*
X67110289Y-52821789D01*
X67221789Y-52710289D01*
X67309394Y-52579179D01*
X67369737Y-52433497D01*
X67400500Y-52278842D01*
X67400500Y-52121158D01*
X67400500Y-52121155D01*
X67400499Y-52121153D01*
X67370542Y-51970547D01*
X67376769Y-51900956D01*
X67404476Y-51858678D01*
X68972065Y-50291090D01*
X69015181Y-50216410D01*
X69037500Y-50133116D01*
X69037500Y-50046884D01*
X69037500Y-49891517D01*
X69057185Y-49824478D01*
X69109989Y-49778723D01*
X69179147Y-49768779D01*
X69242703Y-49797804D01*
X69276061Y-49844065D01*
X69290602Y-49879172D01*
X69290609Y-49879185D01*
X69378210Y-50010288D01*
X69378213Y-50010292D01*
X69489707Y-50121786D01*
X69489711Y-50121789D01*
X69620814Y-50209390D01*
X69620827Y-50209397D01*
X69766498Y-50269735D01*
X69766503Y-50269737D01*
X69921153Y-50300499D01*
X69921156Y-50300500D01*
X69921158Y-50300500D01*
X70078844Y-50300500D01*
X70078845Y-50300499D01*
X70233497Y-50269737D01*
X70379179Y-50209394D01*
X70510289Y-50121789D01*
X70621789Y-50010289D01*
X70709394Y-49879179D01*
X70769737Y-49733497D01*
X70800500Y-49578842D01*
X70800500Y-49421158D01*
X70800500Y-49421155D01*
X70800499Y-49421153D01*
X70769737Y-49266503D01*
X70769735Y-49266498D01*
X70709397Y-49120827D01*
X70709390Y-49120814D01*
X70621789Y-48989711D01*
X70621786Y-48989707D01*
X70510292Y-48878213D01*
X70510288Y-48878210D01*
X70382609Y-48792897D01*
X70337804Y-48739285D01*
X70327500Y-48689795D01*
X70327500Y-42510204D01*
X70347185Y-42443165D01*
X70382609Y-42407102D01*
X70510289Y-42321789D01*
X70621786Y-42210292D01*
X70621789Y-42210289D01*
X70709394Y-42079179D01*
X70710037Y-42077628D01*
X70769735Y-41933501D01*
X70769737Y-41933497D01*
X70800500Y-41778842D01*
X70800500Y-41621158D01*
X70800500Y-41621155D01*
X70800499Y-41621153D01*
X70770630Y-41470993D01*
X70769737Y-41466503D01*
X70768935Y-41464566D01*
X70709397Y-41320827D01*
X70709390Y-41320814D01*
X70621789Y-41189711D01*
X70621786Y-41189707D01*
X70510292Y-41078213D01*
X70510288Y-41078210D01*
X70379185Y-40990609D01*
X70379172Y-40990602D01*
X70233501Y-40930264D01*
X70233489Y-40930261D01*
X70078845Y-40899500D01*
X70078842Y-40899500D01*
X69921158Y-40899500D01*
X69921155Y-40899500D01*
X69766510Y-40930261D01*
X69766498Y-40930264D01*
X69620827Y-40990602D01*
X69620814Y-40990609D01*
X69489711Y-41078210D01*
X69489707Y-41078213D01*
X69442681Y-41125240D01*
X69381358Y-41158725D01*
X69311666Y-41153741D01*
X69267319Y-41125240D01*
X69220292Y-41078213D01*
X69220288Y-41078210D01*
X69089185Y-40990609D01*
X69089172Y-40990602D01*
X68943501Y-40930264D01*
X68943489Y-40930261D01*
X68788845Y-40899500D01*
X68788842Y-40899500D01*
X68631158Y-40899500D01*
X68631155Y-40899500D01*
X68476510Y-40930261D01*
X68476498Y-40930264D01*
X68330827Y-40990602D01*
X68330814Y-40990609D01*
X68199711Y-41078210D01*
X68199707Y-41078213D01*
X68088213Y-41189707D01*
X68088210Y-41189711D01*
X68000609Y-41320814D01*
X68000602Y-41320827D01*
X67940264Y-41466498D01*
X67940261Y-41466510D01*
X67909500Y-41621153D01*
X67909500Y-41778846D01*
X67940261Y-41933489D01*
X67940264Y-41933501D01*
X68000602Y-42079172D01*
X68000609Y-42079185D01*
X68088210Y-42210288D01*
X68088213Y-42210292D01*
X68199710Y-42321789D01*
X68327391Y-42407102D01*
X68372196Y-42460714D01*
X68382500Y-42510204D01*
X68382500Y-49902982D01*
X68362815Y-49970021D01*
X68346181Y-49990663D01*
X66941322Y-51395521D01*
X66879999Y-51429006D01*
X66829450Y-51429457D01*
X66678846Y-51399500D01*
X66678842Y-51399500D01*
X66521158Y-51399500D01*
X66521155Y-51399500D01*
X66366510Y-51430261D01*
X66366498Y-51430264D01*
X66220827Y-51490602D01*
X66220814Y-51490609D01*
X66089711Y-51578210D01*
X66089707Y-51578213D01*
X65978213Y-51689707D01*
X65978210Y-51689711D01*
X65890609Y-51820814D01*
X65890602Y-51820827D01*
X65830264Y-51966498D01*
X65830261Y-51966510D01*
X65799500Y-52121153D01*
X64827500Y-52121153D01*
X64827500Y-43687016D01*
X64847185Y-43619977D01*
X64863814Y-43599339D01*
X65858677Y-42604476D01*
X65919998Y-42570993D01*
X65970547Y-42570542D01*
X66121153Y-42600499D01*
X66121156Y-42600500D01*
X66121158Y-42600500D01*
X66278844Y-42600500D01*
X66278845Y-42600499D01*
X66433497Y-42569737D01*
X66546166Y-42523067D01*
X66579172Y-42509397D01*
X66579172Y-42509396D01*
X66579179Y-42509394D01*
X66710289Y-42421789D01*
X66821789Y-42310289D01*
X66909394Y-42179179D01*
X66969737Y-42033497D01*
X67000500Y-41878842D01*
X67000500Y-41721158D01*
X67000500Y-41721155D01*
X67000499Y-41721153D01*
X66994085Y-41688910D01*
X66969737Y-41566503D01*
X66927514Y-41464566D01*
X66909397Y-41420827D01*
X66909390Y-41420814D01*
X66821789Y-41289711D01*
X66821786Y-41289707D01*
X66710292Y-41178213D01*
X66710288Y-41178210D01*
X66579185Y-41090609D01*
X66579172Y-41090602D01*
X66433501Y-41030264D01*
X66427665Y-41028494D01*
X66428154Y-41026881D01*
X66373395Y-40998229D01*
X66338828Y-40937509D01*
X66342576Y-40867740D01*
X66371824Y-40821330D01*
X66699027Y-40494126D01*
X66760348Y-40460643D01*
X66830040Y-40465627D01*
X66842997Y-40471322D01*
X66941588Y-40521557D01*
X67143757Y-40587246D01*
X67353713Y-40620500D01*
X67353714Y-40620500D01*
X67566286Y-40620500D01*
X67566287Y-40620500D01*
X67776243Y-40587246D01*
X67978412Y-40521557D01*
X68167816Y-40425051D01*
X68254471Y-40362093D01*
X68339786Y-40300109D01*
X68339788Y-40300106D01*
X68339792Y-40300104D01*
X68490104Y-40149792D01*
X68490106Y-40149788D01*
X68490109Y-40149786D01*
X68615048Y-39977820D01*
X68615047Y-39977820D01*
X68615051Y-39977816D01*
X68619514Y-39969054D01*
X68667488Y-39918259D01*
X68735308Y-39901463D01*
X68801444Y-39923999D01*
X68840484Y-39969054D01*
X68844591Y-39977115D01*
X68844951Y-39977820D01*
X68969890Y-40149786D01*
X69120213Y-40300109D01*
X69292179Y-40425048D01*
X69292181Y-40425049D01*
X69292184Y-40425051D01*
X69481588Y-40521557D01*
X69683757Y-40587246D01*
X69893713Y-40620500D01*
X69893714Y-40620500D01*
X70106286Y-40620500D01*
X70106287Y-40620500D01*
X70316243Y-40587246D01*
X70518412Y-40521557D01*
X70707816Y-40425051D01*
X70794471Y-40362093D01*
X70879786Y-40300109D01*
X70879788Y-40300106D01*
X70879792Y-40300104D01*
X71030104Y-40149792D01*
X71030106Y-40149788D01*
X71030109Y-40149786D01*
X71155048Y-39977820D01*
X71155047Y-39977820D01*
X71155051Y-39977816D01*
X71159514Y-39969054D01*
X71207488Y-39918259D01*
X71275308Y-39901463D01*
X71341444Y-39923999D01*
X71380484Y-39969054D01*
X71384591Y-39977115D01*
X71384951Y-39977820D01*
X71509890Y-40149786D01*
X71660213Y-40300109D01*
X71832179Y-40425048D01*
X71832181Y-40425049D01*
X71832184Y-40425051D01*
X72021588Y-40521557D01*
X72223757Y-40587246D01*
X72433713Y-40620500D01*
X72433714Y-40620500D01*
X72646286Y-40620500D01*
X72646287Y-40620500D01*
X72856243Y-40587246D01*
X73058412Y-40521557D01*
X73247816Y-40425051D01*
X73334471Y-40362093D01*
X73419786Y-40300109D01*
X73419788Y-40300106D01*
X73419792Y-40300104D01*
X73570104Y-40149792D01*
X73570106Y-40149788D01*
X73570109Y-40149786D01*
X73695048Y-39977820D01*
X73695047Y-39977820D01*
X73695051Y-39977816D01*
X73699514Y-39969054D01*
X73747488Y-39918259D01*
X73815308Y-39901463D01*
X73881444Y-39923999D01*
X73920484Y-39969054D01*
X73924591Y-39977115D01*
X73924951Y-39977820D01*
X74049890Y-40149786D01*
X74200213Y-40300109D01*
X74372179Y-40425048D01*
X74372181Y-40425049D01*
X74372184Y-40425051D01*
X74561588Y-40521557D01*
X74763757Y-40587246D01*
X74973713Y-40620500D01*
X74973714Y-40620500D01*
X75186286Y-40620500D01*
X75186287Y-40620500D01*
X75396243Y-40587246D01*
X75598412Y-40521557D01*
X75697000Y-40471323D01*
X75765666Y-40458428D01*
X75830406Y-40484704D01*
X75840973Y-40494128D01*
X77336181Y-41989336D01*
X77369666Y-42050659D01*
X77372500Y-42077017D01*
X77372500Y-45043681D01*
X77352815Y-45110720D01*
X77300011Y-45156475D01*
X77230853Y-45166419D01*
X77201049Y-45158243D01*
X77157714Y-45140293D01*
X77133497Y-45130263D01*
X77133493Y-45130262D01*
X77133489Y-45130261D01*
X76978845Y-45099500D01*
X76978842Y-45099500D01*
X76821158Y-45099500D01*
X76821155Y-45099500D01*
X76666510Y-45130261D01*
X76666498Y-45130264D01*
X76520827Y-45190602D01*
X76520814Y-45190609D01*
X76389711Y-45278210D01*
X76389707Y-45278213D01*
X76278213Y-45389707D01*
X76278210Y-45389711D01*
X76190609Y-45520814D01*
X76190602Y-45520827D01*
X76130264Y-45666498D01*
X76130261Y-45666510D01*
X76099500Y-45821153D01*
X76099500Y-45978846D01*
X76129457Y-46129450D01*
X76123230Y-46199041D01*
X76095521Y-46241322D01*
X69698910Y-52637935D01*
X69637936Y-52698908D01*
X69637934Y-52698911D01*
X69594819Y-52773589D01*
X69594819Y-52773590D01*
X69572857Y-52855554D01*
X69572500Y-52856885D01*
X69572500Y-53589795D01*
X69552815Y-53656834D01*
X69517391Y-53692897D01*
X69389711Y-53778210D01*
X69389707Y-53778213D01*
X69278213Y-53889707D01*
X69278210Y-53889711D01*
X69190609Y-54020814D01*
X69190602Y-54020827D01*
X69130264Y-54166498D01*
X69130261Y-54166510D01*
X69099500Y-54321153D01*
X69099500Y-54478846D01*
X69130261Y-54633489D01*
X69130264Y-54633501D01*
X69190602Y-54779172D01*
X69190609Y-54779185D01*
X69266077Y-54892130D01*
X69261826Y-54885768D01*
X69200000Y-60200000D01*
X65900000Y-60200000D01*
X65900000Y-64200000D01*
X70200000Y-64200000D01*
X70195250Y-60200006D01*
X76804761Y-60190992D01*
X76800000Y-56700000D01*
X76799903Y-53978217D01*
X71227500Y-53978415D01*
X71227500Y-53187016D01*
X71247185Y-53119977D01*
X71263814Y-53099340D01*
X76558677Y-47804476D01*
X76619998Y-47770993D01*
X76670547Y-47770542D01*
X76821153Y-47800499D01*
X76821156Y-47800500D01*
X76821158Y-47800500D01*
X76978844Y-47800500D01*
X76978845Y-47800499D01*
X77133497Y-47769737D01*
X77185176Y-47748331D01*
X77201048Y-47741757D01*
X77270517Y-47734288D01*
X77332996Y-47765563D01*
X77368648Y-47825652D01*
X77372500Y-47856318D01*
X77372500Y-62012983D01*
X77352815Y-62080022D01*
X77336181Y-62100664D01*
X75257895Y-64178950D01*
X75230967Y-64193653D01*
X75205149Y-64210246D01*
X75198948Y-64211137D01*
X75196572Y-64212435D01*
X75170214Y-64215269D01*
X75127805Y-64215269D01*
X75060766Y-64195584D01*
X75024703Y-64160160D01*
X74939389Y-64032480D01*
X74939386Y-64032476D01*
X74827892Y-63920982D01*
X74827888Y-63920979D01*
X74696785Y-63833378D01*
X74696772Y-63833371D01*
X74551101Y-63773033D01*
X74551089Y-63773030D01*
X74396445Y-63742269D01*
X74396442Y-63742269D01*
X74238758Y-63742269D01*
X74238755Y-63742269D01*
X74084110Y-63773030D01*
X74084098Y-63773033D01*
X73938427Y-63833371D01*
X73938414Y-63833378D01*
X73807311Y-63920979D01*
X73807307Y-63920982D01*
X73695813Y-64032476D01*
X73695810Y-64032480D01*
X73608209Y-64163583D01*
X73608202Y-64163596D01*
X73547864Y-64309267D01*
X73547861Y-64309279D01*
X73517100Y-64463922D01*
X73517100Y-64621615D01*
X73547861Y-64776258D01*
X73547864Y-64776270D01*
X73608202Y-64921941D01*
X73608209Y-64921954D01*
X73695810Y-65053057D01*
X73695813Y-65053061D01*
X73807307Y-65164555D01*
X73807311Y-65164558D01*
X73938414Y-65252159D01*
X73938427Y-65252166D01*
X74084098Y-65312504D01*
X74084103Y-65312506D01*
X74238753Y-65343268D01*
X74238756Y-65343269D01*
X74238758Y-65343269D01*
X74396444Y-65343269D01*
X74396445Y-65343268D01*
X74551097Y-65312506D01*
X74696779Y-65252163D01*
X74827889Y-65164558D01*
X74939389Y-65053058D01*
X75003618Y-64956933D01*
X75024703Y-64925378D01*
X75078315Y-64880573D01*
X75127805Y-64870269D01*
X75400345Y-64870269D01*
X75400347Y-64870269D01*
X75483641Y-64847950D01*
X75558321Y-64804834D01*
X77962065Y-62401090D01*
X78005181Y-62326410D01*
X78027500Y-62243116D01*
X78027500Y-62156884D01*
X78027500Y-58256318D01*
X78047185Y-58189279D01*
X78099989Y-58143524D01*
X78169147Y-58133580D01*
X78198952Y-58141757D01*
X78266498Y-58169735D01*
X78266503Y-58169737D01*
X78364747Y-58189279D01*
X78421153Y-58200499D01*
X78421156Y-58200500D01*
X78421158Y-58200500D01*
X78578844Y-58200500D01*
X78578845Y-58200499D01*
X78733497Y-58169737D01*
X78879179Y-58109394D01*
X79010289Y-58021789D01*
X79121789Y-57910289D01*
X79209394Y-57779179D01*
X79269737Y-57633497D01*
X79300500Y-57478842D01*
X79300500Y-57321158D01*
X79300500Y-57321155D01*
X79300499Y-57321153D01*
X79298338Y-57310288D01*
X79269737Y-57166503D01*
X79251185Y-57121713D01*
X79209397Y-57020827D01*
X79209390Y-57020814D01*
X79121789Y-56889711D01*
X79121786Y-56889707D01*
X79010292Y-56778213D01*
X79010288Y-56778210D01*
X78882609Y-56692897D01*
X78837804Y-56639285D01*
X78827500Y-56589795D01*
X78827500Y-40106885D01*
X78827500Y-40106884D01*
X78805181Y-40023590D01*
X78762065Y-39948910D01*
X78701090Y-39887935D01*
X76304128Y-37490973D01*
X76270643Y-37429650D01*
X76275627Y-37359958D01*
X76281317Y-37347011D01*
X76331557Y-37248412D01*
X76397246Y-37046243D01*
X76430500Y-36836287D01*
X76430500Y-36623713D01*
X76397246Y-36413757D01*
X76331557Y-36211588D01*
X76235051Y-36022184D01*
X76235049Y-36022181D01*
X76235048Y-36022179D01*
X76110109Y-35850213D01*
X75959786Y-35699890D01*
X75787820Y-35574951D01*
X75598414Y-35478444D01*
X75598413Y-35478443D01*
X75598412Y-35478443D01*
X75396243Y-35412754D01*
X75396240Y-35412753D01*
X75322758Y-35401114D01*
X75259624Y-35371184D01*
X75254477Y-35366322D01*
X73358290Y-33470135D01*
X83149500Y-33470135D01*
X83149500Y-35265870D01*
X83149501Y-35265876D01*
X83155908Y-35325483D01*
X83206202Y-35460328D01*
X83206206Y-35460335D01*
X83292452Y-35575544D01*
X83292455Y-35575547D01*
X83407664Y-35661793D01*
X83407671Y-35661797D01*
X83539082Y-35710810D01*
X83595016Y-35752681D01*
X83619433Y-35818145D01*
X83604582Y-35886418D01*
X83583431Y-35914673D01*
X83469889Y-36028215D01*
X83344951Y-36200179D01*
X83248444Y-36389585D01*
X83182753Y-36591760D01*
X83177686Y-36623753D01*
X83149500Y-36801713D01*
X83149500Y-37014287D01*
X83154561Y-37046239D01*
X83178741Y-37198910D01*
X83182754Y-37224243D01*
X83232618Y-37377709D01*
X83248444Y-37426414D01*
X83344951Y-37615820D01*
X83469890Y-37787786D01*
X83620213Y-37938109D01*
X83792179Y-38063048D01*
X83792181Y-38063049D01*
X83792184Y-38063051D01*
X83801493Y-38067794D01*
X83852290Y-38115766D01*
X83869087Y-38183587D01*
X83846552Y-38249722D01*
X83801505Y-38288760D01*
X83792446Y-38293376D01*
X83792440Y-38293380D01*
X83738282Y-38332727D01*
X83738282Y-38332728D01*
X84370591Y-38965037D01*
X84307007Y-38982075D01*
X84192993Y-39047901D01*
X84099901Y-39140993D01*
X84034075Y-39255007D01*
X84017037Y-39318591D01*
X83384728Y-38686282D01*
X83384727Y-38686282D01*
X83345380Y-38740439D01*
X83248904Y-38929782D01*
X83183242Y-39131869D01*
X83183242Y-39131872D01*
X83150000Y-39341753D01*
X83150000Y-39554246D01*
X83183242Y-39764127D01*
X83183242Y-39764130D01*
X83248904Y-39966217D01*
X83345375Y-40155550D01*
X83384728Y-40209716D01*
X84017037Y-39577408D01*
X84034075Y-39640993D01*
X84099901Y-39755007D01*
X84192993Y-39848099D01*
X84307007Y-39913925D01*
X84370590Y-39930962D01*
X83738282Y-40563269D01*
X83738282Y-40563270D01*
X83792452Y-40602626D01*
X83792451Y-40602626D01*
X83801495Y-40607234D01*
X83852292Y-40655208D01*
X83869087Y-40723029D01*
X83846550Y-40789164D01*
X83801499Y-40828202D01*
X83792182Y-40832949D01*
X83620213Y-40957890D01*
X83469890Y-41108213D01*
X83344951Y-41280179D01*
X83248444Y-41469585D01*
X83248443Y-41469587D01*
X83248443Y-41469588D01*
X83216955Y-41566498D01*
X83182753Y-41671760D01*
X83163447Y-41793655D01*
X83149500Y-41881713D01*
X83149500Y-42094287D01*
X83156574Y-42138951D01*
X83176362Y-42263890D01*
X83182754Y-42304243D01*
X83241663Y-42485546D01*
X83248444Y-42506414D01*
X83344951Y-42695820D01*
X83469890Y-42867786D01*
X83620213Y-43018109D01*
X83792182Y-43143050D01*
X83800946Y-43147516D01*
X83851742Y-43195491D01*
X83868536Y-43263312D01*
X83845998Y-43329447D01*
X83800946Y-43368484D01*
X83792182Y-43372949D01*
X83620213Y-43497890D01*
X83469890Y-43648213D01*
X83344951Y-43820179D01*
X83248444Y-44009585D01*
X83182753Y-44211760D01*
X83149500Y-44421713D01*
X83149500Y-44634287D01*
X83159534Y-44697644D01*
X83182461Y-44842397D01*
X83182754Y-44844243D01*
X83235865Y-45007702D01*
X83248444Y-45046414D01*
X83344951Y-45235820D01*
X83469890Y-45407786D01*
X83620213Y-45558109D01*
X83792182Y-45683050D01*
X83800946Y-45687516D01*
X83851742Y-45735491D01*
X83868536Y-45803312D01*
X83845998Y-45869447D01*
X83800946Y-45908484D01*
X83792182Y-45912949D01*
X83620213Y-46037890D01*
X83469890Y-46188213D01*
X83344951Y-46360179D01*
X83248444Y-46549585D01*
X83182753Y-46751760D01*
X83149500Y-46961713D01*
X83149500Y-47174287D01*
X83158878Y-47233497D01*
X83182753Y-47384239D01*
X83248444Y-47586414D01*
X83344951Y-47775820D01*
X83469890Y-47947786D01*
X83620213Y-48098109D01*
X83792182Y-48223050D01*
X83800946Y-48227516D01*
X83851742Y-48275491D01*
X83868536Y-48343312D01*
X83845998Y-48409447D01*
X83800946Y-48448484D01*
X83792182Y-48452949D01*
X83620213Y-48577890D01*
X83469890Y-48728213D01*
X83344951Y-48900179D01*
X83248444Y-49089585D01*
X83182753Y-49291760D01*
X83162259Y-49421155D01*
X83149500Y-49501713D01*
X83149500Y-49714287D01*
X83152541Y-49733489D01*
X83179386Y-49902982D01*
X83182754Y-49924243D01*
X83204335Y-49990663D01*
X83248444Y-50126414D01*
X83344951Y-50315820D01*
X83469890Y-50487786D01*
X83620213Y-50638109D01*
X83792179Y-50763048D01*
X83792181Y-50763049D01*
X83792184Y-50763051D01*
X83801493Y-50767794D01*
X83852290Y-50815766D01*
X83869087Y-50883587D01*
X83846552Y-50949722D01*
X83801505Y-50988760D01*
X83792446Y-50993376D01*
X83792440Y-50993380D01*
X83738282Y-51032727D01*
X83738282Y-51032728D01*
X84370591Y-51665037D01*
X84307007Y-51682075D01*
X84192993Y-51747901D01*
X84099901Y-51840993D01*
X84034075Y-51955007D01*
X84017037Y-52018591D01*
X83384728Y-51386282D01*
X83384727Y-51386282D01*
X83345380Y-51440439D01*
X83248904Y-51629782D01*
X83183242Y-51831869D01*
X83183242Y-51831872D01*
X83150000Y-52041753D01*
X83150000Y-52254246D01*
X83183242Y-52464127D01*
X83183242Y-52464130D01*
X83248904Y-52666217D01*
X83345375Y-52855550D01*
X83384728Y-52909716D01*
X84017037Y-52277408D01*
X84034075Y-52340993D01*
X84099901Y-52455007D01*
X84192993Y-52548099D01*
X84307007Y-52613925D01*
X84370590Y-52630962D01*
X83738282Y-53263269D01*
X83738282Y-53263270D01*
X83792452Y-53302626D01*
X83792451Y-53302626D01*
X83801495Y-53307234D01*
X83852292Y-53355208D01*
X83869087Y-53423029D01*
X83846550Y-53489164D01*
X83801499Y-53528202D01*
X83792182Y-53532949D01*
X83620213Y-53657890D01*
X83469890Y-53808213D01*
X83344951Y-53980179D01*
X83248444Y-54169585D01*
X83182753Y-54371760D01*
X83149500Y-54581713D01*
X83149500Y-54794287D01*
X83155852Y-54834394D01*
X83180465Y-54989795D01*
X83182754Y-55004243D01*
X83216918Y-55109390D01*
X83248444Y-55206414D01*
X83344951Y-55395820D01*
X83469890Y-55567786D01*
X83620213Y-55718109D01*
X83792182Y-55843050D01*
X83800946Y-55847516D01*
X83851742Y-55895491D01*
X83868536Y-55963312D01*
X83845998Y-56029447D01*
X83800946Y-56068484D01*
X83792182Y-56072949D01*
X83620213Y-56197890D01*
X83469890Y-56348213D01*
X83344951Y-56520179D01*
X83248444Y-56709585D01*
X83182753Y-56911760D01*
X83149500Y-57121713D01*
X83149500Y-57334287D01*
X83182754Y-57544243D01*
X83217401Y-57650876D01*
X83248444Y-57746414D01*
X83344951Y-57935820D01*
X83469890Y-58107786D01*
X83620213Y-58258109D01*
X83792182Y-58383050D01*
X83800946Y-58387516D01*
X83851742Y-58435491D01*
X83868536Y-58503312D01*
X83845998Y-58569447D01*
X83800946Y-58608484D01*
X83792182Y-58612949D01*
X83620213Y-58737890D01*
X83469890Y-58888213D01*
X83344951Y-59060179D01*
X83248444Y-59249585D01*
X83182753Y-59451760D01*
X83159273Y-59600007D01*
X83149500Y-59661713D01*
X83149500Y-59874287D01*
X83159534Y-59937644D01*
X83182753Y-60084239D01*
X83248444Y-60286414D01*
X83344951Y-60475820D01*
X83469890Y-60647786D01*
X83620213Y-60798109D01*
X83792182Y-60923050D01*
X83800946Y-60927516D01*
X83851742Y-60975491D01*
X83868536Y-61043312D01*
X83845998Y-61109447D01*
X83800946Y-61148484D01*
X83792182Y-61152949D01*
X83620213Y-61277890D01*
X83469890Y-61428213D01*
X83344951Y-61600179D01*
X83248444Y-61789585D01*
X83182753Y-61991760D01*
X83162159Y-62121786D01*
X83149500Y-62201713D01*
X83149500Y-62414287D01*
X83159534Y-62477644D01*
X83182753Y-62624239D01*
X83248444Y-62826414D01*
X83344951Y-63015820D01*
X83469890Y-63187786D01*
X83620213Y-63338109D01*
X83792179Y-63463048D01*
X83792181Y-63463049D01*
X83792184Y-63463051D01*
X83801493Y-63467794D01*
X83852290Y-63515766D01*
X83869087Y-63583587D01*
X83846552Y-63649722D01*
X83801505Y-63688760D01*
X83792446Y-63693376D01*
X83792440Y-63693380D01*
X83738282Y-63732727D01*
X83738282Y-63732728D01*
X84370591Y-64365037D01*
X84307007Y-64382075D01*
X84192993Y-64447901D01*
X84099901Y-64540993D01*
X84034075Y-64655007D01*
X84017037Y-64718591D01*
X83384728Y-64086282D01*
X83384727Y-64086282D01*
X83345380Y-64140439D01*
X83248904Y-64329782D01*
X83183242Y-64531869D01*
X83183242Y-64531872D01*
X83150000Y-64741753D01*
X83150000Y-64954246D01*
X83183242Y-65164127D01*
X83183242Y-65164130D01*
X83248904Y-65366217D01*
X83345375Y-65555550D01*
X83384728Y-65609716D01*
X84017037Y-64977408D01*
X84034075Y-65040993D01*
X84099901Y-65155007D01*
X84192993Y-65248099D01*
X84307007Y-65313925D01*
X84370590Y-65330962D01*
X83738282Y-65963269D01*
X83738282Y-65963270D01*
X83792452Y-66002626D01*
X83792451Y-66002626D01*
X83801495Y-66007234D01*
X83852292Y-66055208D01*
X83869087Y-66123029D01*
X83846550Y-66189164D01*
X83801499Y-66228202D01*
X83792182Y-66232949D01*
X83620213Y-66357890D01*
X83469890Y-66508213D01*
X83344951Y-66680179D01*
X83248444Y-66869585D01*
X83182753Y-67071760D01*
X83161447Y-67206282D01*
X83149500Y-67281713D01*
X83149500Y-67494287D01*
X83150734Y-67502075D01*
X83174458Y-67651869D01*
X83182754Y-67704243D01*
X83233932Y-67861753D01*
X83248444Y-67906414D01*
X83344951Y-68095820D01*
X83469890Y-68267786D01*
X83620213Y-68418109D01*
X83792182Y-68543050D01*
X83800946Y-68547516D01*
X83851742Y-68595491D01*
X83868536Y-68663312D01*
X83845998Y-68729447D01*
X83800946Y-68768484D01*
X83792182Y-68772949D01*
X83620213Y-68897890D01*
X83469890Y-69048213D01*
X83344951Y-69220179D01*
X83248444Y-69409585D01*
X83182753Y-69611760D01*
X83161447Y-69746282D01*
X83149500Y-69821713D01*
X83149500Y-70034287D01*
X83150734Y-70042075D01*
X83174458Y-70191869D01*
X83182754Y-70244243D01*
X83233932Y-70401753D01*
X83248444Y-70446414D01*
X83344951Y-70635820D01*
X83469890Y-70807786D01*
X83620213Y-70958109D01*
X83792182Y-71083050D01*
X83800946Y-71087516D01*
X83851742Y-71135491D01*
X83868536Y-71203312D01*
X83845998Y-71269447D01*
X83800946Y-71308484D01*
X83792182Y-71312949D01*
X83620213Y-71437890D01*
X83469890Y-71588213D01*
X83344951Y-71760179D01*
X83248444Y-71949585D01*
X83182753Y-72151760D01*
X83161447Y-72286282D01*
X83149500Y-72361713D01*
X83149500Y-72574287D01*
X83150734Y-72582075D01*
X83178345Y-72756410D01*
X83182754Y-72784243D01*
X83233932Y-72941753D01*
X83248444Y-72986414D01*
X83344951Y-73175820D01*
X83469890Y-73347786D01*
X83620213Y-73498109D01*
X83792182Y-73623050D01*
X83800946Y-73627516D01*
X83851742Y-73675491D01*
X83868536Y-73743312D01*
X83845998Y-73809447D01*
X83800946Y-73848484D01*
X83792182Y-73852949D01*
X83620213Y-73977890D01*
X83469890Y-74128213D01*
X83344951Y-74300179D01*
X83248444Y-74489585D01*
X83182753Y-74691760D01*
X83161447Y-74826282D01*
X83149500Y-74901713D01*
X83149500Y-75114287D01*
X83150734Y-75122075D01*
X83174458Y-75271869D01*
X83182754Y-75324243D01*
X83242380Y-75507753D01*
X83248444Y-75526414D01*
X83344951Y-75715820D01*
X83469890Y-75887786D01*
X83620213Y-76038109D01*
X83792179Y-76163048D01*
X83792181Y-76163049D01*
X83792184Y-76163051D01*
X83801493Y-76167794D01*
X83852290Y-76215766D01*
X83869087Y-76283587D01*
X83846552Y-76349722D01*
X83801505Y-76388760D01*
X83792446Y-76393376D01*
X83792440Y-76393380D01*
X83738282Y-76432727D01*
X83738282Y-76432728D01*
X84370591Y-77065037D01*
X84307007Y-77082075D01*
X84192993Y-77147901D01*
X84099901Y-77240993D01*
X84034075Y-77355007D01*
X84017037Y-77418591D01*
X83384728Y-76786282D01*
X83384727Y-76786282D01*
X83345380Y-76840439D01*
X83248904Y-77029782D01*
X83183242Y-77231869D01*
X83183242Y-77231872D01*
X83150000Y-77441753D01*
X83150000Y-77654246D01*
X83183242Y-77864127D01*
X83183242Y-77864130D01*
X83248904Y-78066217D01*
X83345375Y-78255550D01*
X83384728Y-78309716D01*
X84017037Y-77677408D01*
X84034075Y-77740993D01*
X84099901Y-77855007D01*
X84192993Y-77948099D01*
X84307007Y-78013925D01*
X84370590Y-78030962D01*
X83738282Y-78663269D01*
X83738282Y-78663270D01*
X83792452Y-78702626D01*
X83792451Y-78702626D01*
X83801495Y-78707234D01*
X83852292Y-78755208D01*
X83869087Y-78823029D01*
X83846550Y-78889164D01*
X83801499Y-78928202D01*
X83792182Y-78932949D01*
X83620213Y-79057890D01*
X83469890Y-79208213D01*
X83344951Y-79380179D01*
X83248444Y-79569585D01*
X83182753Y-79771760D01*
X83165100Y-79883219D01*
X83149500Y-79981713D01*
X83149500Y-80194287D01*
X83157498Y-80244786D01*
X83181306Y-80395105D01*
X83182754Y-80404243D01*
X83220382Y-80520051D01*
X83248444Y-80606414D01*
X83344951Y-80795820D01*
X83469890Y-80967786D01*
X83620213Y-81118109D01*
X83792182Y-81243050D01*
X83800946Y-81247516D01*
X83851742Y-81295491D01*
X83868536Y-81363312D01*
X83845998Y-81429447D01*
X83800946Y-81468484D01*
X83792182Y-81472949D01*
X83620213Y-81597890D01*
X83469890Y-81748213D01*
X83344951Y-81920179D01*
X83248444Y-82109585D01*
X83182753Y-82311760D01*
X83157092Y-82473780D01*
X83149500Y-82521713D01*
X83149500Y-82734287D01*
X83150400Y-82739968D01*
X83174862Y-82894419D01*
X83182754Y-82944243D01*
X83247928Y-83144828D01*
X83248444Y-83146414D01*
X83344951Y-83335820D01*
X83469890Y-83507786D01*
X83620213Y-83658109D01*
X83792179Y-83783048D01*
X83792181Y-83783049D01*
X83792184Y-83783051D01*
X83981588Y-83879557D01*
X84183757Y-83945246D01*
X84393713Y-83978500D01*
X84393714Y-83978500D01*
X84606286Y-83978500D01*
X84606287Y-83978500D01*
X84816243Y-83945246D01*
X85018412Y-83879557D01*
X85207816Y-83783051D01*
X85269752Y-83738052D01*
X85379786Y-83658109D01*
X85379788Y-83658106D01*
X85379792Y-83658104D01*
X85530104Y-83507792D01*
X85530106Y-83507788D01*
X85530109Y-83507786D01*
X85655048Y-83335820D01*
X85655047Y-83335820D01*
X85655051Y-83335816D01*
X85751557Y-83146412D01*
X85817246Y-82944243D01*
X85850500Y-82734287D01*
X85850500Y-82521713D01*
X85817246Y-82311757D01*
X85751557Y-82109588D01*
X85655051Y-81920184D01*
X85553483Y-81780387D01*
X87059500Y-81780387D01*
X87059500Y-81955612D01*
X87093681Y-82127450D01*
X87093684Y-82127462D01*
X87160732Y-82289331D01*
X87160734Y-82289334D01*
X87160735Y-82289336D01*
X87176542Y-82312992D01*
X87176886Y-82313508D01*
X87176983Y-82313724D01*
X87177578Y-82314543D01*
X87178920Y-82316552D01*
X87258079Y-82435023D01*
X87258081Y-82435025D01*
X87276894Y-82453837D01*
X87283796Y-82460739D01*
X87286525Y-82464495D01*
X87296837Y-82473780D01*
X87381977Y-82558920D01*
X87418492Y-82583319D01*
X87425020Y-82589197D01*
X87441715Y-82598835D01*
X87445092Y-82601092D01*
X87527659Y-82656262D01*
X87527660Y-82656262D01*
X87527664Y-82656265D01*
X87575515Y-82676085D01*
X87586415Y-82682379D01*
X87606333Y-82688850D01*
X87689542Y-82723317D01*
X87748509Y-82735046D01*
X87763657Y-82739968D01*
X87783996Y-82742105D01*
X87861392Y-82757500D01*
X87930457Y-82757500D01*
X87949000Y-82759449D01*
X87967543Y-82757500D01*
X88036607Y-82757500D01*
X88036608Y-82757500D01*
X88114004Y-82742104D01*
X88134343Y-82739968D01*
X88149485Y-82735047D01*
X88208458Y-82723317D01*
X88291678Y-82688846D01*
X88311585Y-82682379D01*
X88322484Y-82676085D01*
X88370336Y-82656265D01*
X88456295Y-82598828D01*
X88472980Y-82589197D01*
X88479505Y-82583320D01*
X88516023Y-82558920D01*
X88601172Y-82473770D01*
X88611475Y-82464495D01*
X88614200Y-82460742D01*
X88639920Y-82435023D01*
X88720432Y-82314527D01*
X88721017Y-82313724D01*
X88721111Y-82313511D01*
X88737265Y-82289336D01*
X88804317Y-82127458D01*
X88838500Y-81955608D01*
X88838500Y-81780392D01*
X88838499Y-81780387D01*
X98459500Y-81780387D01*
X98459500Y-81955612D01*
X98493681Y-82127450D01*
X98493684Y-82127462D01*
X98560732Y-82289331D01*
X98560734Y-82289334D01*
X98560735Y-82289336D01*
X98576542Y-82312992D01*
X98576886Y-82313508D01*
X98576983Y-82313724D01*
X98577578Y-82314543D01*
X98578920Y-82316552D01*
X98658079Y-82435023D01*
X98658081Y-82435025D01*
X98676894Y-82453837D01*
X98683796Y-82460739D01*
X98686525Y-82464495D01*
X98696837Y-82473780D01*
X98781977Y-82558920D01*
X98818492Y-82583319D01*
X98825020Y-82589197D01*
X98841715Y-82598835D01*
X98845092Y-82601092D01*
X98927659Y-82656262D01*
X98927660Y-82656262D01*
X98927664Y-82656265D01*
X98975515Y-82676085D01*
X98986415Y-82682379D01*
X99006333Y-82688850D01*
X99089542Y-82723317D01*
X99148509Y-82735046D01*
X99163657Y-82739968D01*
X99183996Y-82742105D01*
X99261392Y-82757500D01*
X99330457Y-82757500D01*
X99349000Y-82759449D01*
X99367543Y-82757500D01*
X99436607Y-82757500D01*
X99436608Y-82757500D01*
X99514004Y-82742104D01*
X99534343Y-82739968D01*
X99549485Y-82735047D01*
X99608458Y-82723317D01*
X99691678Y-82688846D01*
X99711585Y-82682379D01*
X99722484Y-82676085D01*
X99770336Y-82656265D01*
X99856295Y-82598828D01*
X99872980Y-82589197D01*
X99879505Y-82583320D01*
X99916023Y-82558920D01*
X100001172Y-82473770D01*
X100011475Y-82464495D01*
X100014200Y-82460742D01*
X100039920Y-82435023D01*
X100120432Y-82314527D01*
X100121017Y-82313724D01*
X100121111Y-82313511D01*
X100137265Y-82289336D01*
X100204317Y-82127458D01*
X100238500Y-81955608D01*
X100238500Y-81780392D01*
X100204317Y-81608542D01*
X100176346Y-81541014D01*
X100137267Y-81446668D01*
X100137265Y-81446665D01*
X100137265Y-81446664D01*
X100121111Y-81422488D01*
X100121017Y-81422276D01*
X100120429Y-81421468D01*
X100039920Y-81300977D01*
X100039918Y-81300974D01*
X100021107Y-81282164D01*
X100014203Y-81275260D01*
X100011475Y-81271505D01*
X100001162Y-81262219D01*
X99998877Y-81259934D01*
X99916023Y-81177080D01*
X99916022Y-81177079D01*
X99916021Y-81177078D01*
X99886943Y-81157649D01*
X99886943Y-81157648D01*
X99879506Y-81152679D01*
X99872980Y-81146803D01*
X99856282Y-81137162D01*
X99852920Y-81134916D01*
X99770336Y-81079735D01*
X99770332Y-81079733D01*
X99729995Y-81063025D01*
X99722486Y-81059915D01*
X99711585Y-81053621D01*
X99691663Y-81047147D01*
X99608458Y-81012683D01*
X99608456Y-81012682D01*
X99608451Y-81012680D01*
X99556660Y-81002379D01*
X99556658Y-81002379D01*
X99549486Y-81000952D01*
X99534343Y-80996032D01*
X99514009Y-80993894D01*
X99508440Y-80992787D01*
X99508432Y-80992786D01*
X99453553Y-80981870D01*
X99436608Y-80978500D01*
X99367534Y-80978500D01*
X99349000Y-80976552D01*
X99330466Y-80978500D01*
X99261392Y-80978500D01*
X99189568Y-80992785D01*
X99189567Y-80992784D01*
X99183973Y-80993896D01*
X99163657Y-80996032D01*
X99148527Y-81000947D01*
X99141348Y-81002376D01*
X99141342Y-81002378D01*
X99089546Y-81012681D01*
X99010834Y-81045283D01*
X99010835Y-81045284D01*
X99006327Y-81047150D01*
X98986415Y-81053621D01*
X98975513Y-81059914D01*
X98968003Y-81063026D01*
X98968001Y-81063026D01*
X98927661Y-81079736D01*
X98845084Y-81134909D01*
X98845085Y-81134910D01*
X98841689Y-81137178D01*
X98825020Y-81146803D01*
X98818499Y-81152673D01*
X98811069Y-81157639D01*
X98811063Y-81157644D01*
X98781974Y-81177082D01*
X98781969Y-81177086D01*
X98699119Y-81259935D01*
X98696806Y-81262247D01*
X98686525Y-81271505D01*
X98683804Y-81275249D01*
X98658084Y-81300970D01*
X98658077Y-81300980D01*
X98578896Y-81419478D01*
X98578897Y-81419479D01*
X98577547Y-81421499D01*
X98576983Y-81422276D01*
X98576892Y-81422479D01*
X98574431Y-81426164D01*
X98574429Y-81426164D01*
X98574428Y-81426168D01*
X98560735Y-81446662D01*
X98560733Y-81446665D01*
X98493684Y-81608537D01*
X98493681Y-81608549D01*
X98459500Y-81780387D01*
X88838499Y-81780387D01*
X88804317Y-81608542D01*
X88776346Y-81541014D01*
X88737267Y-81446668D01*
X88737265Y-81446665D01*
X88737265Y-81446664D01*
X88721111Y-81422488D01*
X88721017Y-81422276D01*
X88720429Y-81421468D01*
X88639920Y-81300977D01*
X88639918Y-81300974D01*
X88621107Y-81282164D01*
X88614203Y-81275260D01*
X88611475Y-81271505D01*
X88601162Y-81262219D01*
X88598877Y-81259934D01*
X88516023Y-81177080D01*
X88516022Y-81177079D01*
X88516021Y-81177078D01*
X88486943Y-81157649D01*
X88486943Y-81157648D01*
X88479506Y-81152679D01*
X88472980Y-81146803D01*
X88456282Y-81137162D01*
X88452920Y-81134916D01*
X88370336Y-81079735D01*
X88370332Y-81079733D01*
X88329995Y-81063025D01*
X88322486Y-81059915D01*
X88311585Y-81053621D01*
X88291663Y-81047147D01*
X88208458Y-81012683D01*
X88208456Y-81012682D01*
X88208451Y-81012680D01*
X88156660Y-81002379D01*
X88156658Y-81002379D01*
X88149486Y-81000952D01*
X88134343Y-80996032D01*
X88114009Y-80993894D01*
X88108440Y-80992787D01*
X88108432Y-80992786D01*
X88053553Y-80981870D01*
X88036608Y-80978500D01*
X87967534Y-80978500D01*
X87949000Y-80976552D01*
X87930466Y-80978500D01*
X87861392Y-80978500D01*
X87789568Y-80992785D01*
X87789567Y-80992784D01*
X87783973Y-80993896D01*
X87763657Y-80996032D01*
X87748527Y-81000947D01*
X87741348Y-81002376D01*
X87741342Y-81002378D01*
X87689546Y-81012681D01*
X87610834Y-81045283D01*
X87610835Y-81045284D01*
X87606327Y-81047150D01*
X87586415Y-81053621D01*
X87575513Y-81059914D01*
X87568003Y-81063026D01*
X87568001Y-81063026D01*
X87527661Y-81079736D01*
X87445084Y-81134909D01*
X87445085Y-81134910D01*
X87441689Y-81137178D01*
X87425020Y-81146803D01*
X87418499Y-81152673D01*
X87411069Y-81157639D01*
X87411063Y-81157644D01*
X87381974Y-81177082D01*
X87381969Y-81177086D01*
X87299119Y-81259935D01*
X87296806Y-81262247D01*
X87286525Y-81271505D01*
X87283804Y-81275249D01*
X87258084Y-81300970D01*
X87258077Y-81300980D01*
X87178896Y-81419478D01*
X87178897Y-81419479D01*
X87177547Y-81421499D01*
X87176983Y-81422276D01*
X87176892Y-81422479D01*
X87174431Y-81426164D01*
X87174429Y-81426164D01*
X87174428Y-81426168D01*
X87160735Y-81446662D01*
X87160733Y-81446665D01*
X87093684Y-81608537D01*
X87093681Y-81608549D01*
X87059500Y-81780387D01*
X85553483Y-81780387D01*
X85530104Y-81748208D01*
X85379792Y-81597896D01*
X85379786Y-81597890D01*
X85207820Y-81472951D01*
X85207115Y-81472591D01*
X85199054Y-81468485D01*
X85148259Y-81420512D01*
X85131463Y-81352692D01*
X85153999Y-81286556D01*
X85199054Y-81247515D01*
X85207816Y-81243051D01*
X85298610Y-81177086D01*
X85379786Y-81118109D01*
X85379788Y-81118106D01*
X85379792Y-81118104D01*
X85530104Y-80967792D01*
X85530106Y-80967788D01*
X85530109Y-80967786D01*
X85655048Y-80795820D01*
X85655047Y-80795820D01*
X85655051Y-80795816D01*
X85751557Y-80606412D01*
X85817246Y-80404243D01*
X85850500Y-80194287D01*
X85850500Y-79981713D01*
X85817246Y-79771757D01*
X85751557Y-79569588D01*
X85655051Y-79380184D01*
X85655049Y-79380181D01*
X85655048Y-79380179D01*
X85530109Y-79208213D01*
X85379786Y-79057890D01*
X85207817Y-78932949D01*
X85198504Y-78928204D01*
X85147707Y-78880230D01*
X85130912Y-78812409D01*
X85153449Y-78746274D01*
X85198507Y-78707232D01*
X85207555Y-78702622D01*
X85261716Y-78663270D01*
X85261717Y-78663270D01*
X84629408Y-78030962D01*
X84692993Y-78013925D01*
X84807007Y-77948099D01*
X84900099Y-77855007D01*
X84965925Y-77740993D01*
X84982962Y-77677408D01*
X85615270Y-78309717D01*
X85615270Y-78309716D01*
X85654622Y-78255554D01*
X85751095Y-78066217D01*
X85816757Y-77864130D01*
X85816757Y-77864127D01*
X85850000Y-77654246D01*
X85850000Y-77441753D01*
X85819484Y-77249085D01*
X85819484Y-77249084D01*
X85816758Y-77231874D01*
X85816757Y-77231869D01*
X85751095Y-77029782D01*
X85654624Y-76840449D01*
X85615270Y-76786282D01*
X85615269Y-76786282D01*
X84982962Y-77418590D01*
X84965925Y-77355007D01*
X84900099Y-77240993D01*
X84807007Y-77147901D01*
X84692993Y-77082075D01*
X84629409Y-77065037D01*
X85261716Y-76432728D01*
X85207547Y-76393373D01*
X85207547Y-76393372D01*
X85198500Y-76388763D01*
X85147706Y-76340788D01*
X85130912Y-76272966D01*
X85153451Y-76206832D01*
X85198508Y-76167793D01*
X85207816Y-76163051D01*
X85311116Y-76088000D01*
X85379786Y-76038109D01*
X85379788Y-76038106D01*
X85379792Y-76038104D01*
X85530104Y-75887792D01*
X85530106Y-75887788D01*
X85530109Y-75887786D01*
X85655048Y-75715820D01*
X85655047Y-75715820D01*
X85655051Y-75715816D01*
X85751557Y-75526412D01*
X85817246Y-75324243D01*
X85850500Y-75114287D01*
X85850500Y-74901713D01*
X85817246Y-74691757D01*
X85751557Y-74489588D01*
X85655051Y-74300184D01*
X85655049Y-74300181D01*
X85655048Y-74300179D01*
X85530109Y-74128213D01*
X85379786Y-73977890D01*
X85207820Y-73852951D01*
X85207115Y-73852591D01*
X85199054Y-73848485D01*
X85148259Y-73800512D01*
X85131463Y-73732692D01*
X85153999Y-73666556D01*
X85199054Y-73627515D01*
X85207816Y-73623051D01*
X85285771Y-73566414D01*
X85379786Y-73498109D01*
X85379788Y-73498106D01*
X85379792Y-73498104D01*
X85530104Y-73347792D01*
X85530106Y-73347788D01*
X85530109Y-73347786D01*
X85655048Y-73175820D01*
X85655047Y-73175820D01*
X85655051Y-73175816D01*
X85751557Y-72986412D01*
X85817246Y-72784243D01*
X85850500Y-72574287D01*
X85850500Y-72361713D01*
X85817246Y-72151757D01*
X85751557Y-71949588D01*
X85655051Y-71760184D01*
X85655049Y-71760181D01*
X85655048Y-71760179D01*
X85530109Y-71588213D01*
X85379786Y-71437890D01*
X85207820Y-71312951D01*
X85207115Y-71312591D01*
X85199054Y-71308485D01*
X85148259Y-71260512D01*
X85131463Y-71192692D01*
X85153999Y-71126556D01*
X85199054Y-71087515D01*
X85207816Y-71083051D01*
X85285771Y-71026414D01*
X85379786Y-70958109D01*
X85379788Y-70958106D01*
X85379792Y-70958104D01*
X85530104Y-70807792D01*
X85530106Y-70807788D01*
X85530109Y-70807786D01*
X85655048Y-70635820D01*
X85655047Y-70635820D01*
X85655051Y-70635816D01*
X85751557Y-70446412D01*
X85817246Y-70244243D01*
X85850500Y-70034287D01*
X85850500Y-69821713D01*
X85817246Y-69611757D01*
X85751557Y-69409588D01*
X85655051Y-69220184D01*
X85655049Y-69220181D01*
X85655048Y-69220179D01*
X85530109Y-69048213D01*
X85379786Y-68897890D01*
X85207820Y-68772951D01*
X85207115Y-68772591D01*
X85199054Y-68768485D01*
X85148259Y-68720512D01*
X85131463Y-68652692D01*
X85153999Y-68586556D01*
X85199054Y-68547515D01*
X85207816Y-68543051D01*
X85286042Y-68486217D01*
X85379786Y-68418109D01*
X85379788Y-68418106D01*
X85379792Y-68418104D01*
X85530104Y-68267792D01*
X85530106Y-68267788D01*
X85530109Y-68267786D01*
X85655048Y-68095820D01*
X85655047Y-68095820D01*
X85655051Y-68095816D01*
X85751557Y-67906412D01*
X85817246Y-67704243D01*
X85850500Y-67494287D01*
X85850500Y-67281713D01*
X85817246Y-67071757D01*
X85751557Y-66869588D01*
X85655051Y-66680184D01*
X85655049Y-66680181D01*
X85655048Y-66680179D01*
X85530109Y-66508213D01*
X85379786Y-66357890D01*
X85207817Y-66232949D01*
X85198504Y-66228204D01*
X85147707Y-66180230D01*
X85130912Y-66112409D01*
X85153449Y-66046274D01*
X85198507Y-66007232D01*
X85207555Y-66002622D01*
X85261716Y-65963270D01*
X85261717Y-65963270D01*
X84629408Y-65330962D01*
X84692993Y-65313925D01*
X84807007Y-65248099D01*
X84900099Y-65155007D01*
X84965925Y-65040993D01*
X84982962Y-64977408D01*
X85615270Y-65609717D01*
X85615270Y-65609716D01*
X85654622Y-65555554D01*
X85751095Y-65366217D01*
X85816757Y-65164130D01*
X85816757Y-65164127D01*
X85850000Y-64954246D01*
X85850000Y-64741753D01*
X85819484Y-64549085D01*
X85819484Y-64549084D01*
X85816758Y-64531874D01*
X85816757Y-64531869D01*
X85751095Y-64329782D01*
X85654624Y-64140449D01*
X85615270Y-64086282D01*
X85615269Y-64086282D01*
X84982962Y-64718590D01*
X84965925Y-64655007D01*
X84900099Y-64540993D01*
X84807007Y-64447901D01*
X84692993Y-64382075D01*
X84629409Y-64365037D01*
X85261716Y-63732728D01*
X85207547Y-63693373D01*
X85207547Y-63693372D01*
X85198500Y-63688763D01*
X85147706Y-63640788D01*
X85130912Y-63572966D01*
X85153451Y-63506832D01*
X85198508Y-63467793D01*
X85207816Y-63463051D01*
X85287007Y-63405515D01*
X85379786Y-63338109D01*
X85379788Y-63338106D01*
X85379792Y-63338104D01*
X85530104Y-63187792D01*
X85530106Y-63187788D01*
X85530109Y-63187786D01*
X85655048Y-63015820D01*
X85655047Y-63015820D01*
X85655051Y-63015816D01*
X85751557Y-62826412D01*
X85817246Y-62624243D01*
X85850500Y-62414287D01*
X85850500Y-62201713D01*
X85817246Y-61991757D01*
X85751557Y-61789588D01*
X85655051Y-61600184D01*
X85655049Y-61600181D01*
X85655048Y-61600179D01*
X85530109Y-61428213D01*
X85379786Y-61277890D01*
X85207820Y-61152951D01*
X85207115Y-61152591D01*
X85199054Y-61148485D01*
X85148259Y-61100512D01*
X85131463Y-61032692D01*
X85153999Y-60966556D01*
X85199054Y-60927515D01*
X85207816Y-60923051D01*
X85269531Y-60878213D01*
X85379786Y-60798109D01*
X85379788Y-60798106D01*
X85379792Y-60798104D01*
X85530104Y-60647792D01*
X85530106Y-60647788D01*
X85530109Y-60647786D01*
X85655048Y-60475820D01*
X85655047Y-60475820D01*
X85655051Y-60475816D01*
X85751557Y-60286412D01*
X85817246Y-60084243D01*
X85850500Y-59874287D01*
X85850500Y-59661713D01*
X85817246Y-59451757D01*
X85751557Y-59249588D01*
X85655051Y-59060184D01*
X85655049Y-59060181D01*
X85655048Y-59060179D01*
X85530109Y-58888213D01*
X85379786Y-58737890D01*
X85207820Y-58612951D01*
X85207115Y-58612591D01*
X85199054Y-58608485D01*
X85148259Y-58560512D01*
X85131463Y-58492692D01*
X85153999Y-58426556D01*
X85199054Y-58387515D01*
X85207816Y-58383051D01*
X85248740Y-58353318D01*
X85379786Y-58258109D01*
X85379788Y-58258106D01*
X85379792Y-58258104D01*
X85530104Y-58107792D01*
X85530106Y-58107788D01*
X85530109Y-58107786D01*
X85655048Y-57935820D01*
X85655047Y-57935820D01*
X85655051Y-57935816D01*
X85751557Y-57746412D01*
X85817246Y-57544243D01*
X85850500Y-57334287D01*
X85850500Y-57121713D01*
X85817246Y-56911757D01*
X85751557Y-56709588D01*
X85655051Y-56520184D01*
X85655049Y-56520181D01*
X85655048Y-56520179D01*
X85530109Y-56348213D01*
X85379786Y-56197890D01*
X85207820Y-56072951D01*
X85207115Y-56072591D01*
X85199054Y-56068485D01*
X85148259Y-56020512D01*
X85131463Y-55952692D01*
X85153999Y-55886556D01*
X85199054Y-55847515D01*
X85207816Y-55843051D01*
X85260577Y-55804718D01*
X85379786Y-55718109D01*
X85379788Y-55718106D01*
X85379792Y-55718104D01*
X85530104Y-55567792D01*
X85530106Y-55567788D01*
X85530109Y-55567786D01*
X85655048Y-55395820D01*
X85655047Y-55395820D01*
X85655051Y-55395816D01*
X85751557Y-55206412D01*
X85817246Y-55004243D01*
X85850500Y-54794287D01*
X85850500Y-54581713D01*
X85817246Y-54371757D01*
X85751557Y-54169588D01*
X85655051Y-53980184D01*
X85655049Y-53980181D01*
X85655048Y-53980179D01*
X85530109Y-53808213D01*
X85379786Y-53657890D01*
X85207817Y-53532949D01*
X85198504Y-53528204D01*
X85147707Y-53480230D01*
X85130912Y-53412409D01*
X85153449Y-53346274D01*
X85198507Y-53307232D01*
X85207555Y-53302622D01*
X85261716Y-53263270D01*
X85261717Y-53263270D01*
X84629408Y-52630962D01*
X84692993Y-52613925D01*
X84807007Y-52548099D01*
X84900099Y-52455007D01*
X84965925Y-52340993D01*
X84982962Y-52277408D01*
X85615270Y-52909717D01*
X85615270Y-52909716D01*
X85654622Y-52855554D01*
X85751095Y-52666217D01*
X85816757Y-52464130D01*
X85816757Y-52464127D01*
X85850000Y-52254246D01*
X85850000Y-52041753D01*
X85819484Y-51849085D01*
X85819484Y-51849084D01*
X85816758Y-51831874D01*
X85816757Y-51831869D01*
X85751095Y-51629782D01*
X85654624Y-51440449D01*
X85615270Y-51386282D01*
X85615269Y-51386282D01*
X84982962Y-52018590D01*
X84965925Y-51955007D01*
X84900099Y-51840993D01*
X84807007Y-51747901D01*
X84692993Y-51682075D01*
X84629409Y-51665037D01*
X85261716Y-51032728D01*
X85207547Y-50993373D01*
X85207547Y-50993372D01*
X85198500Y-50988763D01*
X85147706Y-50940788D01*
X85130912Y-50872966D01*
X85153451Y-50806832D01*
X85198508Y-50767793D01*
X85207816Y-50763051D01*
X85287007Y-50705515D01*
X85379786Y-50638109D01*
X85379788Y-50638106D01*
X85379792Y-50638104D01*
X85530104Y-50487792D01*
X85530106Y-50487788D01*
X85530109Y-50487786D01*
X85655048Y-50315820D01*
X85655047Y-50315820D01*
X85655051Y-50315816D01*
X85751557Y-50126412D01*
X85817246Y-49924243D01*
X85850500Y-49714287D01*
X85850500Y-49501713D01*
X85817246Y-49291757D01*
X85751557Y-49089588D01*
X85655051Y-48900184D01*
X85655049Y-48900181D01*
X85655048Y-48900179D01*
X85530109Y-48728213D01*
X85379786Y-48577890D01*
X85207820Y-48452951D01*
X85207115Y-48452591D01*
X85199054Y-48448485D01*
X85148259Y-48400512D01*
X85131463Y-48332692D01*
X85153999Y-48266556D01*
X85199054Y-48227515D01*
X85207816Y-48223051D01*
X85248740Y-48193318D01*
X85379786Y-48098109D01*
X85379788Y-48098106D01*
X85379792Y-48098104D01*
X85530104Y-47947792D01*
X85530106Y-47947788D01*
X85530109Y-47947786D01*
X85655048Y-47775820D01*
X85655047Y-47775820D01*
X85655051Y-47775816D01*
X85751557Y-47586412D01*
X85817246Y-47384243D01*
X85850500Y-47174287D01*
X85850500Y-46961713D01*
X85817246Y-46751757D01*
X85751557Y-46549588D01*
X85655051Y-46360184D01*
X85655049Y-46360181D01*
X85655048Y-46360179D01*
X85530109Y-46188213D01*
X85379786Y-46037890D01*
X85207820Y-45912951D01*
X85207115Y-45912591D01*
X85199054Y-45908485D01*
X85148259Y-45860512D01*
X85131463Y-45792692D01*
X85153999Y-45726556D01*
X85199054Y-45687515D01*
X85207816Y-45683051D01*
X85248740Y-45653318D01*
X85379786Y-45558109D01*
X85379788Y-45558106D01*
X85379792Y-45558104D01*
X85530104Y-45407792D01*
X85530106Y-45407788D01*
X85530109Y-45407786D01*
X85639086Y-45257789D01*
X85655051Y-45235816D01*
X85751557Y-45046412D01*
X85817246Y-44844243D01*
X85850500Y-44634287D01*
X85850500Y-44421713D01*
X85817246Y-44211757D01*
X85751557Y-44009588D01*
X85655051Y-43820184D01*
X85655049Y-43820181D01*
X85655048Y-43820179D01*
X85530109Y-43648213D01*
X85379786Y-43497890D01*
X85207820Y-43372951D01*
X85207115Y-43372591D01*
X85199054Y-43368485D01*
X85148259Y-43320512D01*
X85131463Y-43252692D01*
X85153999Y-43186556D01*
X85199054Y-43147515D01*
X85207816Y-43143051D01*
X85248740Y-43113318D01*
X85379786Y-43018109D01*
X85379788Y-43018106D01*
X85379792Y-43018104D01*
X85530104Y-42867792D01*
X85530106Y-42867788D01*
X85530109Y-42867786D01*
X85655048Y-42695820D01*
X85655047Y-42695820D01*
X85655051Y-42695816D01*
X85751557Y-42506412D01*
X85817246Y-42304243D01*
X85850500Y-42094287D01*
X85850500Y-41881713D01*
X85817246Y-41671757D01*
X85751557Y-41469588D01*
X85655051Y-41280184D01*
X85655049Y-41280181D01*
X85655048Y-41280179D01*
X85530109Y-41108213D01*
X85379786Y-40957890D01*
X85207817Y-40832949D01*
X85198504Y-40828204D01*
X85147707Y-40780230D01*
X85130912Y-40712409D01*
X85153449Y-40646274D01*
X85198507Y-40607232D01*
X85207555Y-40602622D01*
X85261716Y-40563270D01*
X85261717Y-40563270D01*
X84629408Y-39930962D01*
X84692993Y-39913925D01*
X84807007Y-39848099D01*
X84900099Y-39755007D01*
X84965925Y-39640993D01*
X84982962Y-39577408D01*
X85615270Y-40209717D01*
X85615270Y-40209716D01*
X85654622Y-40155554D01*
X85751095Y-39966217D01*
X85816757Y-39764130D01*
X85816757Y-39764127D01*
X85850000Y-39554246D01*
X85850000Y-39341753D01*
X85819484Y-39149085D01*
X85819484Y-39149084D01*
X85816758Y-39131874D01*
X85816757Y-39131869D01*
X85751095Y-38929782D01*
X85654624Y-38740449D01*
X85615270Y-38686282D01*
X85615269Y-38686282D01*
X84982962Y-39318590D01*
X84965925Y-39255007D01*
X84900099Y-39140993D01*
X84807007Y-39047901D01*
X84692993Y-38982075D01*
X84629409Y-38965037D01*
X85261716Y-38332728D01*
X85207547Y-38293373D01*
X85207547Y-38293372D01*
X85198500Y-38288763D01*
X85147706Y-38240788D01*
X85130912Y-38172966D01*
X85153451Y-38106832D01*
X85198508Y-38067793D01*
X85207816Y-38063051D01*
X85326739Y-37976649D01*
X85379786Y-37938109D01*
X85379788Y-37938106D01*
X85379792Y-37938104D01*
X85530104Y-37787792D01*
X85530106Y-37787788D01*
X85530109Y-37787786D01*
X85655048Y-37615820D01*
X85655047Y-37615820D01*
X85655051Y-37615816D01*
X85751557Y-37426412D01*
X85817246Y-37224243D01*
X85850500Y-37014287D01*
X85850500Y-36801713D01*
X85817246Y-36591757D01*
X85751557Y-36389588D01*
X85655051Y-36200184D01*
X85655049Y-36200181D01*
X85655048Y-36200179D01*
X85530109Y-36028213D01*
X85416569Y-35914673D01*
X85383084Y-35853350D01*
X85388068Y-35783658D01*
X85429940Y-35727725D01*
X85460915Y-35710810D01*
X85592331Y-35661796D01*
X85707546Y-35575546D01*
X85793796Y-35460331D01*
X85844091Y-35325483D01*
X85850500Y-35265873D01*
X85850499Y-34780387D01*
X87059500Y-34780387D01*
X87059500Y-34955612D01*
X87093681Y-35127450D01*
X87093684Y-35127462D01*
X87160732Y-35289331D01*
X87160734Y-35289334D01*
X87160735Y-35289336D01*
X87175990Y-35312166D01*
X87176886Y-35313508D01*
X87176983Y-35313724D01*
X87177578Y-35314543D01*
X87178920Y-35316552D01*
X87258079Y-35435023D01*
X87258081Y-35435025D01*
X87276894Y-35453837D01*
X87283796Y-35460739D01*
X87286525Y-35464495D01*
X87296837Y-35473780D01*
X87381977Y-35558920D01*
X87418492Y-35583319D01*
X87425020Y-35589197D01*
X87441715Y-35598835D01*
X87445092Y-35601092D01*
X87527659Y-35656262D01*
X87527660Y-35656262D01*
X87527664Y-35656265D01*
X87575515Y-35676085D01*
X87586415Y-35682379D01*
X87606333Y-35688850D01*
X87689542Y-35723317D01*
X87748509Y-35735046D01*
X87763657Y-35739968D01*
X87783996Y-35742105D01*
X87861392Y-35757500D01*
X87930457Y-35757500D01*
X87949000Y-35759449D01*
X87967543Y-35757500D01*
X88036607Y-35757500D01*
X88036608Y-35757500D01*
X88114004Y-35742104D01*
X88134343Y-35739968D01*
X88149485Y-35735047D01*
X88208458Y-35723317D01*
X88291678Y-35688846D01*
X88311585Y-35682379D01*
X88322484Y-35676085D01*
X88370336Y-35656265D01*
X88456295Y-35598828D01*
X88472980Y-35589197D01*
X88479505Y-35583320D01*
X88516023Y-35558920D01*
X88601172Y-35473770D01*
X88611475Y-35464495D01*
X88614200Y-35460742D01*
X88639920Y-35435023D01*
X88720432Y-35314527D01*
X88721017Y-35313724D01*
X88721111Y-35313511D01*
X88737265Y-35289336D01*
X88804317Y-35127458D01*
X88838500Y-34955608D01*
X88838500Y-34780392D01*
X88838499Y-34780387D01*
X98459500Y-34780387D01*
X98459500Y-34955612D01*
X98493681Y-35127450D01*
X98493684Y-35127462D01*
X98560732Y-35289331D01*
X98560734Y-35289334D01*
X98560735Y-35289336D01*
X98575990Y-35312166D01*
X98576886Y-35313508D01*
X98576983Y-35313724D01*
X98577578Y-35314543D01*
X98578920Y-35316552D01*
X98658079Y-35435023D01*
X98658081Y-35435025D01*
X98676894Y-35453837D01*
X98683796Y-35460739D01*
X98686525Y-35464495D01*
X98696837Y-35473780D01*
X98781977Y-35558920D01*
X98818492Y-35583319D01*
X98825020Y-35589197D01*
X98841715Y-35598835D01*
X98845092Y-35601092D01*
X98927659Y-35656262D01*
X98927660Y-35656262D01*
X98927664Y-35656265D01*
X98975515Y-35676085D01*
X98986415Y-35682379D01*
X99006333Y-35688850D01*
X99089542Y-35723317D01*
X99148509Y-35735046D01*
X99163657Y-35739968D01*
X99183996Y-35742105D01*
X99261392Y-35757500D01*
X99330457Y-35757500D01*
X99349000Y-35759449D01*
X99367543Y-35757500D01*
X99436607Y-35757500D01*
X99436608Y-35757500D01*
X99514004Y-35742104D01*
X99534343Y-35739968D01*
X99549485Y-35735047D01*
X99608458Y-35723317D01*
X99691678Y-35688846D01*
X99711585Y-35682379D01*
X99722484Y-35676085D01*
X99770336Y-35656265D01*
X99856295Y-35598828D01*
X99872980Y-35589197D01*
X99879505Y-35583320D01*
X99916023Y-35558920D01*
X100001172Y-35473770D01*
X100011475Y-35464495D01*
X100014200Y-35460742D01*
X100039920Y-35435023D01*
X100120432Y-35314527D01*
X100121017Y-35313724D01*
X100121111Y-35313511D01*
X100137265Y-35289336D01*
X100204317Y-35127458D01*
X100238500Y-34955608D01*
X100238500Y-34780392D01*
X100204317Y-34608542D01*
X100137265Y-34446664D01*
X100121111Y-34422488D01*
X100121017Y-34422276D01*
X100120429Y-34421468D01*
X100039920Y-34300977D01*
X100039918Y-34300974D01*
X100021107Y-34282164D01*
X100014203Y-34275260D01*
X100011475Y-34271505D01*
X100001162Y-34262219D01*
X99998877Y-34259934D01*
X99916023Y-34177080D01*
X99916022Y-34177079D01*
X99916021Y-34177078D01*
X99886943Y-34157649D01*
X99886943Y-34157648D01*
X99879506Y-34152679D01*
X99872980Y-34146803D01*
X99856282Y-34137162D01*
X99852920Y-34134916D01*
X99770336Y-34079735D01*
X99770332Y-34079733D01*
X99729995Y-34063025D01*
X99722486Y-34059915D01*
X99711585Y-34053621D01*
X99691663Y-34047147D01*
X99608458Y-34012683D01*
X99608456Y-34012682D01*
X99608451Y-34012680D01*
X99556660Y-34002379D01*
X99556658Y-34002379D01*
X99549486Y-34000952D01*
X99534343Y-33996032D01*
X99514009Y-33993894D01*
X99508440Y-33992787D01*
X99508432Y-33992786D01*
X99453553Y-33981870D01*
X99436608Y-33978500D01*
X99367534Y-33978500D01*
X99349000Y-33976552D01*
X99330466Y-33978500D01*
X99261392Y-33978500D01*
X99189568Y-33992785D01*
X99189567Y-33992784D01*
X99183973Y-33993896D01*
X99163657Y-33996032D01*
X99148527Y-34000947D01*
X99141348Y-34002376D01*
X99141342Y-34002378D01*
X99089546Y-34012681D01*
X99010834Y-34045283D01*
X99010835Y-34045284D01*
X99006327Y-34047150D01*
X98986415Y-34053621D01*
X98975513Y-34059914D01*
X98968003Y-34063026D01*
X98968001Y-34063026D01*
X98927661Y-34079736D01*
X98845084Y-34134909D01*
X98845085Y-34134910D01*
X98841689Y-34137178D01*
X98825020Y-34146803D01*
X98818499Y-34152673D01*
X98811069Y-34157639D01*
X98811063Y-34157644D01*
X98781974Y-34177082D01*
X98781969Y-34177086D01*
X98699119Y-34259935D01*
X98696806Y-34262247D01*
X98686525Y-34271505D01*
X98683804Y-34275249D01*
X98658084Y-34300970D01*
X98658077Y-34300980D01*
X98578896Y-34419478D01*
X98578897Y-34419479D01*
X98577547Y-34421499D01*
X98576983Y-34422276D01*
X98576892Y-34422479D01*
X98574431Y-34426164D01*
X98574429Y-34426164D01*
X98574428Y-34426168D01*
X98560735Y-34446662D01*
X98560733Y-34446665D01*
X98493684Y-34608537D01*
X98493681Y-34608549D01*
X98459500Y-34780387D01*
X88838499Y-34780387D01*
X88804317Y-34608542D01*
X88737265Y-34446664D01*
X88721111Y-34422488D01*
X88721017Y-34422276D01*
X88720429Y-34421468D01*
X88639920Y-34300977D01*
X88639918Y-34300974D01*
X88621107Y-34282164D01*
X88614203Y-34275260D01*
X88611475Y-34271505D01*
X88601162Y-34262219D01*
X88598877Y-34259934D01*
X88516023Y-34177080D01*
X88516022Y-34177079D01*
X88516021Y-34177078D01*
X88486943Y-34157649D01*
X88486943Y-34157648D01*
X88479506Y-34152679D01*
X88472980Y-34146803D01*
X88456282Y-34137162D01*
X88452920Y-34134916D01*
X88370336Y-34079735D01*
X88370332Y-34079733D01*
X88329995Y-34063025D01*
X88322486Y-34059915D01*
X88311585Y-34053621D01*
X88291663Y-34047147D01*
X88208458Y-34012683D01*
X88208456Y-34012682D01*
X88208451Y-34012680D01*
X88156660Y-34002379D01*
X88156658Y-34002379D01*
X88149486Y-34000952D01*
X88134343Y-33996032D01*
X88114009Y-33993894D01*
X88108440Y-33992787D01*
X88108432Y-33992786D01*
X88053553Y-33981870D01*
X88036608Y-33978500D01*
X87967534Y-33978500D01*
X87949000Y-33976552D01*
X87930466Y-33978500D01*
X87861392Y-33978500D01*
X87789568Y-33992785D01*
X87789567Y-33992784D01*
X87783973Y-33993896D01*
X87763657Y-33996032D01*
X87748527Y-34000947D01*
X87741348Y-34002376D01*
X87741342Y-34002378D01*
X87689546Y-34012681D01*
X87610834Y-34045283D01*
X87610835Y-34045284D01*
X87606327Y-34047150D01*
X87586415Y-34053621D01*
X87575513Y-34059914D01*
X87568003Y-34063026D01*
X87568001Y-34063026D01*
X87527661Y-34079736D01*
X87445084Y-34134909D01*
X87445085Y-34134910D01*
X87441689Y-34137178D01*
X87425020Y-34146803D01*
X87418499Y-34152673D01*
X87411069Y-34157639D01*
X87411063Y-34157644D01*
X87381974Y-34177082D01*
X87381969Y-34177086D01*
X87299119Y-34259935D01*
X87296806Y-34262247D01*
X87286525Y-34271505D01*
X87283804Y-34275249D01*
X87258084Y-34300970D01*
X87258077Y-34300980D01*
X87178896Y-34419478D01*
X87178897Y-34419479D01*
X87177547Y-34421499D01*
X87176983Y-34422276D01*
X87176892Y-34422479D01*
X87174431Y-34426164D01*
X87174429Y-34426164D01*
X87174428Y-34426168D01*
X87160735Y-34446662D01*
X87160733Y-34446665D01*
X87093684Y-34608537D01*
X87093681Y-34608549D01*
X87059500Y-34780387D01*
X85850499Y-34780387D01*
X85850499Y-34304342D01*
X85850499Y-33470129D01*
X85850498Y-33470123D01*
X85850497Y-33470116D01*
X85844091Y-33410517D01*
X85829912Y-33372500D01*
X85803970Y-33302945D01*
X85793796Y-33275669D01*
X85793793Y-33275664D01*
X85784269Y-33262941D01*
X101267122Y-33262941D01*
X101267122Y-35058676D01*
X101267123Y-35058682D01*
X101273530Y-35118289D01*
X101323824Y-35253134D01*
X101323828Y-35253141D01*
X101410074Y-35368350D01*
X101410077Y-35368353D01*
X101525286Y-35454599D01*
X101525293Y-35454603D01*
X101656704Y-35503616D01*
X101712638Y-35545487D01*
X101737055Y-35610951D01*
X101722204Y-35679224D01*
X101701053Y-35707479D01*
X101587511Y-35821021D01*
X101462573Y-35992985D01*
X101366066Y-36182391D01*
X101300375Y-36384566D01*
X101267122Y-36594519D01*
X101267122Y-36807092D01*
X101299938Y-37014287D01*
X101300376Y-37017049D01*
X101359466Y-37198910D01*
X101366066Y-37219220D01*
X101462573Y-37408626D01*
X101587512Y-37580592D01*
X101737835Y-37730915D01*
X101909801Y-37855854D01*
X101909803Y-37855855D01*
X101909806Y-37855857D01*
X101919115Y-37860600D01*
X101969912Y-37908572D01*
X101986709Y-37976393D01*
X101964174Y-38042528D01*
X101919127Y-38081566D01*
X101910068Y-38086182D01*
X101910062Y-38086186D01*
X101855904Y-38125533D01*
X101855904Y-38125534D01*
X102488213Y-38757843D01*
X102424629Y-38774881D01*
X102310615Y-38840707D01*
X102217523Y-38933799D01*
X102151697Y-39047813D01*
X102134659Y-39111397D01*
X101502350Y-38479088D01*
X101502349Y-38479088D01*
X101463002Y-38533245D01*
X101366526Y-38722588D01*
X101300864Y-38924675D01*
X101300864Y-38924678D01*
X101267622Y-39134559D01*
X101267622Y-39347052D01*
X101300864Y-39556933D01*
X101300864Y-39556936D01*
X101366526Y-39759023D01*
X101462997Y-39948356D01*
X101502350Y-40002522D01*
X102134659Y-39370214D01*
X102151697Y-39433799D01*
X102217523Y-39547813D01*
X102310615Y-39640905D01*
X102424629Y-39706731D01*
X102488212Y-39723768D01*
X101855904Y-40356075D01*
X101855904Y-40356076D01*
X101910074Y-40395432D01*
X101910073Y-40395432D01*
X101919117Y-40400040D01*
X101969914Y-40448014D01*
X101986709Y-40515835D01*
X101964172Y-40581970D01*
X101919121Y-40621008D01*
X101909804Y-40625755D01*
X101737835Y-40750696D01*
X101587512Y-40901019D01*
X101462573Y-41072985D01*
X101366066Y-41262391D01*
X101300375Y-41464566D01*
X101267122Y-41674519D01*
X101267122Y-41887092D01*
X101299938Y-42094287D01*
X101300376Y-42097049D01*
X101354586Y-42263890D01*
X101366066Y-42299220D01*
X101462573Y-42488626D01*
X101587512Y-42660592D01*
X101737835Y-42810915D01*
X101909804Y-42935856D01*
X101918568Y-42940322D01*
X101969364Y-42988297D01*
X101986158Y-43056118D01*
X101963620Y-43122253D01*
X101918568Y-43161290D01*
X101909804Y-43165755D01*
X101737835Y-43290696D01*
X101587512Y-43441019D01*
X101462573Y-43612985D01*
X101366066Y-43802391D01*
X101300375Y-44004566D01*
X101267122Y-44214519D01*
X101267122Y-44427092D01*
X101299938Y-44634287D01*
X101300376Y-44637049D01*
X101362864Y-44829367D01*
X101366066Y-44839220D01*
X101462573Y-45028626D01*
X101587512Y-45200592D01*
X101737835Y-45350915D01*
X101909804Y-45475856D01*
X101918568Y-45480322D01*
X101969364Y-45528297D01*
X101986158Y-45596118D01*
X101963620Y-45662253D01*
X101918568Y-45701290D01*
X101909804Y-45705755D01*
X101737835Y-45830696D01*
X101587512Y-45981019D01*
X101462573Y-46152985D01*
X101366066Y-46342391D01*
X101300375Y-46544566D01*
X101267122Y-46754519D01*
X101267122Y-46967092D01*
X101300375Y-47177045D01*
X101366066Y-47379220D01*
X101462573Y-47568626D01*
X101587512Y-47740592D01*
X101737835Y-47890915D01*
X101909804Y-48015856D01*
X101918568Y-48020322D01*
X101969364Y-48068297D01*
X101986158Y-48136118D01*
X101963620Y-48202253D01*
X101918568Y-48241290D01*
X101909804Y-48245755D01*
X101737835Y-48370696D01*
X101587512Y-48521019D01*
X101462573Y-48692985D01*
X101366066Y-48882391D01*
X101300375Y-49084566D01*
X101267122Y-49294519D01*
X101267122Y-49507092D01*
X101299938Y-49714287D01*
X101300376Y-49717049D01*
X101357064Y-49891517D01*
X101366066Y-49919220D01*
X101462573Y-50108626D01*
X101587512Y-50280592D01*
X101737835Y-50430915D01*
X101909801Y-50555854D01*
X101909803Y-50555855D01*
X101909806Y-50555857D01*
X101919115Y-50560600D01*
X101969912Y-50608572D01*
X101986709Y-50676393D01*
X101964174Y-50742528D01*
X101919127Y-50781566D01*
X101910068Y-50786182D01*
X101910062Y-50786186D01*
X101855904Y-50825533D01*
X101855904Y-50825534D01*
X102488213Y-51457843D01*
X102424629Y-51474881D01*
X102310615Y-51540707D01*
X102217523Y-51633799D01*
X102151697Y-51747813D01*
X102134659Y-51811397D01*
X101502350Y-51179088D01*
X101502349Y-51179088D01*
X101463002Y-51233245D01*
X101366526Y-51422588D01*
X101300864Y-51624675D01*
X101300864Y-51624678D01*
X101267622Y-51834559D01*
X101267622Y-52047052D01*
X101300864Y-52256933D01*
X101300864Y-52256936D01*
X101366526Y-52459023D01*
X101462997Y-52648356D01*
X101502350Y-52702522D01*
X102134659Y-52070214D01*
X102151697Y-52133799D01*
X102217523Y-52247813D01*
X102310615Y-52340905D01*
X102424629Y-52406731D01*
X102488212Y-52423768D01*
X101855904Y-53056075D01*
X101855904Y-53056076D01*
X101910074Y-53095432D01*
X101910073Y-53095432D01*
X101919117Y-53100040D01*
X101969914Y-53148014D01*
X101986709Y-53215835D01*
X101964172Y-53281970D01*
X101919121Y-53321008D01*
X101909804Y-53325755D01*
X101737835Y-53450696D01*
X101587512Y-53601019D01*
X101462573Y-53772985D01*
X101366066Y-53962391D01*
X101300375Y-54164566D01*
X101267122Y-54374519D01*
X101267122Y-54587092D01*
X101299938Y-54794287D01*
X101300376Y-54797049D01*
X101363003Y-54989795D01*
X101366066Y-54999220D01*
X101462573Y-55188626D01*
X101587512Y-55360592D01*
X101737835Y-55510915D01*
X101909804Y-55635856D01*
X101918568Y-55640322D01*
X101969364Y-55688297D01*
X101986158Y-55756118D01*
X101963620Y-55822253D01*
X101918568Y-55861290D01*
X101909804Y-55865755D01*
X101737835Y-55990696D01*
X101587512Y-56141019D01*
X101462573Y-56312985D01*
X101366066Y-56502391D01*
X101300375Y-56704566D01*
X101267122Y-56914519D01*
X101267122Y-57127092D01*
X101299938Y-57334287D01*
X101300376Y-57337049D01*
X101356373Y-57509390D01*
X101366066Y-57539220D01*
X101462573Y-57728626D01*
X101587512Y-57900592D01*
X101737835Y-58050915D01*
X101909804Y-58175856D01*
X101918568Y-58180322D01*
X101969364Y-58228297D01*
X101986158Y-58296118D01*
X101963620Y-58362253D01*
X101918568Y-58401290D01*
X101909804Y-58405755D01*
X101737835Y-58530696D01*
X101587512Y-58681019D01*
X101462573Y-58852985D01*
X101366066Y-59042391D01*
X101300375Y-59244566D01*
X101267122Y-59454519D01*
X101267122Y-59667092D01*
X101299938Y-59874287D01*
X101300376Y-59877049D01*
X101340505Y-60000554D01*
X101366066Y-60079220D01*
X101462573Y-60268626D01*
X101587512Y-60440592D01*
X101737835Y-60590915D01*
X101909804Y-60715856D01*
X101918568Y-60720322D01*
X101969364Y-60768297D01*
X101986158Y-60836118D01*
X101963620Y-60902253D01*
X101918568Y-60941290D01*
X101909804Y-60945755D01*
X101737835Y-61070696D01*
X101587512Y-61221019D01*
X101462573Y-61392985D01*
X101366066Y-61582391D01*
X101300375Y-61784566D01*
X101299580Y-61789588D01*
X101267122Y-61994519D01*
X101267122Y-62207093D01*
X101267487Y-62209397D01*
X101300375Y-62417045D01*
X101366066Y-62619220D01*
X101462573Y-62808626D01*
X101587512Y-62980592D01*
X101737835Y-63130915D01*
X101909801Y-63255854D01*
X101909803Y-63255855D01*
X101909806Y-63255857D01*
X101919115Y-63260600D01*
X101969912Y-63308572D01*
X101986709Y-63376393D01*
X101964174Y-63442528D01*
X101919127Y-63481566D01*
X101910068Y-63486182D01*
X101910062Y-63486186D01*
X101855904Y-63525533D01*
X101855904Y-63525534D01*
X102488213Y-64157843D01*
X102424629Y-64174881D01*
X102310615Y-64240707D01*
X102217523Y-64333799D01*
X102151697Y-64447813D01*
X102134659Y-64511397D01*
X101502350Y-63879088D01*
X101502349Y-63879088D01*
X101463002Y-63933245D01*
X101366526Y-64122588D01*
X101300864Y-64324675D01*
X101300864Y-64324678D01*
X101267622Y-64534559D01*
X101267622Y-64747052D01*
X101300864Y-64956933D01*
X101300864Y-64956936D01*
X101366526Y-65159023D01*
X101462997Y-65348356D01*
X101502350Y-65402522D01*
X102134659Y-64770214D01*
X102151697Y-64833799D01*
X102217523Y-64947813D01*
X102310615Y-65040905D01*
X102424629Y-65106731D01*
X102488212Y-65123768D01*
X101855904Y-65756075D01*
X101855904Y-65756076D01*
X101910074Y-65795432D01*
X101910073Y-65795432D01*
X101919117Y-65800040D01*
X101969914Y-65848014D01*
X101986709Y-65915835D01*
X101964172Y-65981970D01*
X101919121Y-66021008D01*
X101909804Y-66025755D01*
X101737835Y-66150696D01*
X101587512Y-66301019D01*
X101462573Y-66472985D01*
X101366066Y-66662391D01*
X101300375Y-66864566D01*
X101267122Y-67074519D01*
X101267122Y-67287092D01*
X101299938Y-67494287D01*
X101300376Y-67497049D01*
X101350681Y-67651872D01*
X101366066Y-67699220D01*
X101462573Y-67888626D01*
X101587512Y-68060592D01*
X101737835Y-68210915D01*
X101909804Y-68335856D01*
X101918568Y-68340322D01*
X101969364Y-68388297D01*
X101986158Y-68456118D01*
X101963620Y-68522253D01*
X101918568Y-68561290D01*
X101909804Y-68565755D01*
X101737835Y-68690696D01*
X101587512Y-68841019D01*
X101462573Y-69012985D01*
X101366066Y-69202391D01*
X101300375Y-69404566D01*
X101267122Y-69614519D01*
X101267122Y-69827092D01*
X101299938Y-70034287D01*
X101300376Y-70037049D01*
X101350681Y-70191872D01*
X101366066Y-70239220D01*
X101462573Y-70428626D01*
X101587512Y-70600592D01*
X101737835Y-70750915D01*
X101909804Y-70875856D01*
X101918568Y-70880322D01*
X101969364Y-70928297D01*
X101986158Y-70996118D01*
X101963620Y-71062253D01*
X101918568Y-71101290D01*
X101909804Y-71105755D01*
X101737835Y-71230696D01*
X101587512Y-71381019D01*
X101462573Y-71552985D01*
X101366066Y-71742391D01*
X101300375Y-71944566D01*
X101267122Y-72154519D01*
X101267122Y-72367092D01*
X101299938Y-72574287D01*
X101300376Y-72577049D01*
X101358654Y-72756410D01*
X101366066Y-72779220D01*
X101462573Y-72968626D01*
X101587512Y-73140592D01*
X101737835Y-73290915D01*
X101909804Y-73415856D01*
X101918568Y-73420322D01*
X101969364Y-73468297D01*
X101986158Y-73536118D01*
X101963620Y-73602253D01*
X101918568Y-73641290D01*
X101909804Y-73645755D01*
X101737835Y-73770696D01*
X101587512Y-73921019D01*
X101462573Y-74092985D01*
X101366066Y-74282391D01*
X101300375Y-74484566D01*
X101267122Y-74694519D01*
X101267122Y-74907092D01*
X101299938Y-75114287D01*
X101300376Y-75117049D01*
X101357922Y-75294158D01*
X101366066Y-75319220D01*
X101462573Y-75508626D01*
X101587512Y-75680592D01*
X101737835Y-75830915D01*
X101909801Y-75955854D01*
X101909803Y-75955855D01*
X101909806Y-75955857D01*
X101919115Y-75960600D01*
X101969912Y-76008572D01*
X101986709Y-76076393D01*
X101964174Y-76142528D01*
X101919127Y-76181566D01*
X101910068Y-76186182D01*
X101910062Y-76186186D01*
X101855904Y-76225533D01*
X101855904Y-76225534D01*
X102488213Y-76857843D01*
X102424629Y-76874881D01*
X102310615Y-76940707D01*
X102217523Y-77033799D01*
X102151697Y-77147813D01*
X102134659Y-77211397D01*
X101502350Y-76579088D01*
X101502349Y-76579088D01*
X101463002Y-76633245D01*
X101366526Y-76822588D01*
X101300864Y-77024675D01*
X101300864Y-77024678D01*
X101267622Y-77234559D01*
X101267622Y-77447052D01*
X101300864Y-77656933D01*
X101300864Y-77656936D01*
X101366526Y-77859023D01*
X101462997Y-78048356D01*
X101502350Y-78102522D01*
X102134659Y-77470214D01*
X102151697Y-77533799D01*
X102217523Y-77647813D01*
X102310615Y-77740905D01*
X102424629Y-77806731D01*
X102488212Y-77823768D01*
X101855904Y-78456075D01*
X101855904Y-78456076D01*
X101910074Y-78495432D01*
X101910073Y-78495432D01*
X101919117Y-78500040D01*
X101969914Y-78548014D01*
X101986709Y-78615835D01*
X101964172Y-78681970D01*
X101919121Y-78721008D01*
X101909804Y-78725755D01*
X101737835Y-78850696D01*
X101587512Y-79001019D01*
X101462573Y-79172985D01*
X101366066Y-79362391D01*
X101300375Y-79564566D01*
X101275986Y-79718554D01*
X101267122Y-79774519D01*
X101267122Y-79987093D01*
X101277156Y-80050450D01*
X101299938Y-80194287D01*
X101300376Y-80197049D01*
X101364728Y-80395104D01*
X101366066Y-80399220D01*
X101462573Y-80588626D01*
X101587512Y-80760592D01*
X101737835Y-80910915D01*
X101909804Y-81035856D01*
X101918568Y-81040322D01*
X101969364Y-81088297D01*
X101986158Y-81156118D01*
X101963620Y-81222253D01*
X101918568Y-81261290D01*
X101909804Y-81265755D01*
X101737835Y-81390696D01*
X101587512Y-81541019D01*
X101462573Y-81712985D01*
X101366066Y-81902391D01*
X101300375Y-82104566D01*
X101271507Y-82286836D01*
X101267122Y-82314519D01*
X101267122Y-82527093D01*
X101272163Y-82558920D01*
X101299938Y-82734287D01*
X101300376Y-82737049D01*
X101307654Y-82759449D01*
X101366066Y-82939220D01*
X101462573Y-83128626D01*
X101587512Y-83300592D01*
X101737835Y-83450915D01*
X101909801Y-83575854D01*
X101909803Y-83575855D01*
X101909806Y-83575857D01*
X102099210Y-83672363D01*
X102301379Y-83738052D01*
X102511335Y-83771306D01*
X102511336Y-83771306D01*
X102723908Y-83771306D01*
X102723909Y-83771306D01*
X102933865Y-83738052D01*
X103136034Y-83672363D01*
X103325438Y-83575857D01*
X103383452Y-83533708D01*
X103497408Y-83450915D01*
X103497410Y-83450912D01*
X103497414Y-83450910D01*
X103647726Y-83300598D01*
X103647728Y-83300594D01*
X103647731Y-83300592D01*
X103766806Y-83136697D01*
X103772673Y-83128622D01*
X103869179Y-82939218D01*
X103934868Y-82737049D01*
X103968122Y-82527093D01*
X103968122Y-82314519D01*
X103934868Y-82104563D01*
X103869179Y-81902394D01*
X103772673Y-81712990D01*
X103772671Y-81712987D01*
X103772670Y-81712985D01*
X103647731Y-81541019D01*
X103497408Y-81390696D01*
X103325442Y-81265757D01*
X103324737Y-81265397D01*
X103316676Y-81261291D01*
X103265881Y-81213318D01*
X103249085Y-81145498D01*
X103271621Y-81079362D01*
X103316676Y-81040321D01*
X103325438Y-81035857D01*
X103350348Y-81017759D01*
X103497408Y-80910915D01*
X103497410Y-80910912D01*
X103497414Y-80910910D01*
X103647726Y-80760598D01*
X103647728Y-80760594D01*
X103647731Y-80760592D01*
X103772670Y-80588626D01*
X103772669Y-80588626D01*
X103772673Y-80588622D01*
X103869179Y-80399218D01*
X103934868Y-80197049D01*
X103968122Y-79987093D01*
X103968122Y-79774519D01*
X103934868Y-79564563D01*
X103869179Y-79362394D01*
X103772673Y-79172990D01*
X103772671Y-79172987D01*
X103772670Y-79172985D01*
X103647731Y-79001019D01*
X103497408Y-78850696D01*
X103325439Y-78725755D01*
X103316126Y-78721010D01*
X103265329Y-78673036D01*
X103248534Y-78605215D01*
X103271071Y-78539080D01*
X103316129Y-78500038D01*
X103325177Y-78495428D01*
X103379338Y-78456076D01*
X103379339Y-78456076D01*
X102747030Y-77823768D01*
X102810615Y-77806731D01*
X102924629Y-77740905D01*
X103017721Y-77647813D01*
X103083547Y-77533799D01*
X103100584Y-77470215D01*
X103732892Y-78102523D01*
X103732892Y-78102522D01*
X103772244Y-78048360D01*
X103868717Y-77859023D01*
X103934379Y-77656936D01*
X103934379Y-77656933D01*
X103967622Y-77447052D01*
X103967622Y-77234559D01*
X103934379Y-77024678D01*
X103934379Y-77024675D01*
X103868717Y-76822588D01*
X103772246Y-76633255D01*
X103732892Y-76579088D01*
X103732891Y-76579088D01*
X103100584Y-77211396D01*
X103083547Y-77147813D01*
X103017721Y-77033799D01*
X102924629Y-76940707D01*
X102810615Y-76874881D01*
X102747031Y-76857843D01*
X103379338Y-76225534D01*
X103325169Y-76186179D01*
X103325169Y-76186178D01*
X103316122Y-76181569D01*
X103265328Y-76133594D01*
X103248534Y-76065772D01*
X103271073Y-75999638D01*
X103316130Y-75960599D01*
X103325438Y-75955857D01*
X103451221Y-75864471D01*
X103497408Y-75830915D01*
X103497410Y-75830912D01*
X103497414Y-75830910D01*
X103647726Y-75680598D01*
X103647728Y-75680594D01*
X103647731Y-75680592D01*
X103772670Y-75508626D01*
X103772669Y-75508626D01*
X103772673Y-75508622D01*
X103869179Y-75319218D01*
X103934868Y-75117049D01*
X103968122Y-74907093D01*
X103968122Y-74694519D01*
X103934868Y-74484563D01*
X103869179Y-74282394D01*
X103772673Y-74092990D01*
X103772671Y-74092987D01*
X103772670Y-74092985D01*
X103647731Y-73921019D01*
X103497408Y-73770696D01*
X103325442Y-73645757D01*
X103324737Y-73645397D01*
X103316676Y-73641291D01*
X103265881Y-73593318D01*
X103249085Y-73525498D01*
X103271621Y-73459362D01*
X103316676Y-73420321D01*
X103325438Y-73415857D01*
X103396639Y-73364127D01*
X103497408Y-73290915D01*
X103497410Y-73290912D01*
X103497414Y-73290910D01*
X103647726Y-73140598D01*
X103647728Y-73140594D01*
X103647731Y-73140592D01*
X103772670Y-72968626D01*
X103772669Y-72968626D01*
X103772673Y-72968622D01*
X103869179Y-72779218D01*
X103934868Y-72577049D01*
X103968122Y-72367093D01*
X103968122Y-72154519D01*
X103934868Y-71944563D01*
X103869179Y-71742394D01*
X103772673Y-71552990D01*
X103772671Y-71552987D01*
X103772670Y-71552985D01*
X103647731Y-71381019D01*
X103497408Y-71230696D01*
X103325442Y-71105757D01*
X103324737Y-71105397D01*
X103316676Y-71101291D01*
X103265881Y-71053318D01*
X103249085Y-70985498D01*
X103271621Y-70919362D01*
X103316676Y-70880321D01*
X103325438Y-70875857D01*
X103396639Y-70824127D01*
X103497408Y-70750915D01*
X103497410Y-70750912D01*
X103497414Y-70750910D01*
X103647726Y-70600598D01*
X103647728Y-70600594D01*
X103647731Y-70600592D01*
X103772670Y-70428626D01*
X103772669Y-70428626D01*
X103772673Y-70428622D01*
X103869179Y-70239218D01*
X103934868Y-70037049D01*
X103968122Y-69827093D01*
X103968122Y-69614519D01*
X103934868Y-69404563D01*
X103869179Y-69202394D01*
X103772673Y-69012990D01*
X103772671Y-69012987D01*
X103772670Y-69012985D01*
X103647731Y-68841019D01*
X103497408Y-68690696D01*
X103325442Y-68565757D01*
X103324737Y-68565397D01*
X103316676Y-68561291D01*
X103265881Y-68513318D01*
X103249085Y-68445498D01*
X103271621Y-68379362D01*
X103316676Y-68340321D01*
X103325438Y-68335857D01*
X103396639Y-68284127D01*
X103497408Y-68210915D01*
X103497410Y-68210912D01*
X103497414Y-68210910D01*
X103647726Y-68060598D01*
X103647728Y-68060594D01*
X103647731Y-68060592D01*
X103772670Y-67888626D01*
X103772669Y-67888626D01*
X103772673Y-67888622D01*
X103869179Y-67699218D01*
X103934868Y-67497049D01*
X103968122Y-67287093D01*
X103968122Y-67074519D01*
X103967428Y-67070135D01*
X108874500Y-67070135D01*
X108874500Y-68865870D01*
X108874501Y-68865876D01*
X108880908Y-68925483D01*
X108931202Y-69060328D01*
X108931206Y-69060335D01*
X109017452Y-69175544D01*
X109017455Y-69175547D01*
X109132664Y-69261793D01*
X109132671Y-69261797D01*
X109264082Y-69310810D01*
X109320016Y-69352681D01*
X109344433Y-69418145D01*
X109329582Y-69486418D01*
X109308431Y-69514673D01*
X109194889Y-69628215D01*
X109069951Y-69800179D01*
X108973444Y-69989585D01*
X108907753Y-70191760D01*
X108874500Y-70401713D01*
X108874500Y-70614286D01*
X108907735Y-70824127D01*
X108907754Y-70824243D01*
X108967866Y-71009249D01*
X108973444Y-71026414D01*
X109069951Y-71215820D01*
X109194890Y-71387786D01*
X109345213Y-71538109D01*
X109517182Y-71663050D01*
X109525946Y-71667516D01*
X109576742Y-71715491D01*
X109593536Y-71783312D01*
X109570998Y-71849447D01*
X109525946Y-71888484D01*
X109517182Y-71892949D01*
X109345213Y-72017890D01*
X109194890Y-72168213D01*
X109069951Y-72340179D01*
X108973444Y-72529585D01*
X108907753Y-72731760D01*
X108874500Y-72941713D01*
X108874500Y-73154286D01*
X108907735Y-73364127D01*
X108907754Y-73364243D01*
X108967866Y-73549249D01*
X108973444Y-73566414D01*
X109069951Y-73755820D01*
X109194890Y-73927786D01*
X109345213Y-74078109D01*
X109517182Y-74203050D01*
X109525946Y-74207516D01*
X109576742Y-74255491D01*
X109593536Y-74323312D01*
X109570998Y-74389447D01*
X109525946Y-74428484D01*
X109517182Y-74432949D01*
X109345213Y-74557890D01*
X109194890Y-74708213D01*
X109069951Y-74880179D01*
X108973444Y-75069585D01*
X108907753Y-75271760D01*
X108874500Y-75481713D01*
X108874500Y-75694286D01*
X108907735Y-75904127D01*
X108907754Y-75904243D01*
X108963689Y-76076393D01*
X108973444Y-76106414D01*
X109069951Y-76295820D01*
X109194890Y-76467786D01*
X109345213Y-76618109D01*
X109517179Y-76743048D01*
X109517181Y-76743049D01*
X109517184Y-76743051D01*
X109706588Y-76839557D01*
X109908757Y-76905246D01*
X110118713Y-76938500D01*
X110118714Y-76938500D01*
X110331286Y-76938500D01*
X110331287Y-76938500D01*
X110541243Y-76905246D01*
X110743412Y-76839557D01*
X110932816Y-76743051D01*
X110990695Y-76701000D01*
X111104786Y-76618109D01*
X111104788Y-76618106D01*
X111104792Y-76618104D01*
X111255104Y-76467792D01*
X111255106Y-76467788D01*
X111255109Y-76467786D01*
X111340890Y-76349717D01*
X111380051Y-76295816D01*
X111384793Y-76286508D01*
X111432763Y-76235711D01*
X111500583Y-76218911D01*
X111566719Y-76241445D01*
X111605763Y-76286500D01*
X111610373Y-76295547D01*
X111649728Y-76349716D01*
X112282037Y-75717408D01*
X112299075Y-75780993D01*
X112364901Y-75895007D01*
X112457993Y-75988099D01*
X112572007Y-76053925D01*
X112635590Y-76070962D01*
X112003282Y-76703269D01*
X112003282Y-76703270D01*
X112057449Y-76742624D01*
X112246782Y-76839095D01*
X112448870Y-76904757D01*
X112658754Y-76938000D01*
X112871246Y-76938000D01*
X113081127Y-76904757D01*
X113081130Y-76904757D01*
X113283217Y-76839095D01*
X113472554Y-76742622D01*
X113526716Y-76703270D01*
X113526717Y-76703270D01*
X112894408Y-76070962D01*
X112957993Y-76053925D01*
X113072007Y-75988099D01*
X113165099Y-75895007D01*
X113230925Y-75780993D01*
X113247962Y-75717408D01*
X113880270Y-76349717D01*
X113880270Y-76349716D01*
X113919622Y-76295554D01*
X114016095Y-76106217D01*
X114081757Y-75904130D01*
X114081757Y-75904127D01*
X114115000Y-75694246D01*
X114115000Y-75481753D01*
X114081757Y-75271872D01*
X114081757Y-75271869D01*
X114016095Y-75069782D01*
X113919624Y-74880449D01*
X113880270Y-74826282D01*
X113880269Y-74826282D01*
X113247962Y-75458590D01*
X113230925Y-75395007D01*
X113165099Y-75280993D01*
X113072007Y-75187901D01*
X112957993Y-75122075D01*
X112894409Y-75105037D01*
X113526716Y-74472728D01*
X113472550Y-74433375D01*
X113462954Y-74428486D01*
X113412157Y-74380512D01*
X113395361Y-74312692D01*
X113417897Y-74246556D01*
X113462954Y-74207514D01*
X113472554Y-74202622D01*
X113526716Y-74163270D01*
X113526717Y-74163270D01*
X112894408Y-73530962D01*
X112957993Y-73513925D01*
X113072007Y-73448099D01*
X113165099Y-73355007D01*
X113230925Y-73240993D01*
X113247962Y-73177408D01*
X113880270Y-73809717D01*
X113880270Y-73809716D01*
X113919622Y-73755554D01*
X114016095Y-73566217D01*
X114081757Y-73364130D01*
X114081757Y-73364127D01*
X114115000Y-73154246D01*
X114115000Y-72941753D01*
X114081757Y-72731872D01*
X114081757Y-72731869D01*
X114016095Y-72529782D01*
X113919624Y-72340449D01*
X113880270Y-72286282D01*
X113880269Y-72286282D01*
X113247962Y-72918590D01*
X113230925Y-72855007D01*
X113165099Y-72740993D01*
X113072007Y-72647901D01*
X112957993Y-72582075D01*
X112894409Y-72565037D01*
X113526716Y-71932728D01*
X113472550Y-71893375D01*
X113462954Y-71888486D01*
X113412157Y-71840512D01*
X113395361Y-71772692D01*
X113417897Y-71706556D01*
X113462954Y-71667514D01*
X113472554Y-71662622D01*
X113526716Y-71623270D01*
X113526717Y-71623270D01*
X112894408Y-70990962D01*
X112957993Y-70973925D01*
X113072007Y-70908099D01*
X113165099Y-70815007D01*
X113230925Y-70700993D01*
X113247962Y-70637408D01*
X113880270Y-71269717D01*
X113880270Y-71269716D01*
X113919622Y-71215554D01*
X114016095Y-71026217D01*
X114081757Y-70824130D01*
X114081757Y-70824127D01*
X114115000Y-70614246D01*
X114115000Y-70401753D01*
X114081757Y-70191872D01*
X114081757Y-70191869D01*
X114016095Y-69989782D01*
X113919624Y-69800449D01*
X113880270Y-69746282D01*
X113880269Y-69746282D01*
X113247962Y-70378590D01*
X113230925Y-70315007D01*
X113165099Y-70200993D01*
X113072007Y-70107901D01*
X112957993Y-70042075D01*
X112894409Y-70025037D01*
X113526716Y-69392728D01*
X113472550Y-69353375D01*
X113462954Y-69348486D01*
X113412157Y-69300512D01*
X113395361Y-69232692D01*
X113417897Y-69166556D01*
X113462954Y-69127514D01*
X113472554Y-69122622D01*
X113526716Y-69083270D01*
X113526717Y-69083270D01*
X112894408Y-68450962D01*
X112957993Y-68433925D01*
X113072007Y-68368099D01*
X113165099Y-68275007D01*
X113230925Y-68160993D01*
X113247962Y-68097408D01*
X113880270Y-68729717D01*
X113880270Y-68729716D01*
X113919622Y-68675554D01*
X114016095Y-68486217D01*
X114081757Y-68284130D01*
X114081757Y-68284127D01*
X114115000Y-68074246D01*
X114115000Y-67861753D01*
X114081757Y-67651872D01*
X114081757Y-67651869D01*
X114016095Y-67449782D01*
X113919624Y-67260449D01*
X113880270Y-67206282D01*
X113880269Y-67206282D01*
X113247962Y-67838590D01*
X113230925Y-67775007D01*
X113165099Y-67660993D01*
X113072007Y-67567901D01*
X112957993Y-67502075D01*
X112894409Y-67485037D01*
X113526716Y-66852728D01*
X113472550Y-66813375D01*
X113283217Y-66716904D01*
X113081129Y-66651242D01*
X112871246Y-66618000D01*
X112658754Y-66618000D01*
X112448872Y-66651242D01*
X112448869Y-66651242D01*
X112246782Y-66716904D01*
X112057439Y-66813380D01*
X112003282Y-66852727D01*
X112003282Y-66852728D01*
X112635591Y-67485037D01*
X112572007Y-67502075D01*
X112457993Y-67567901D01*
X112364901Y-67660993D01*
X112299075Y-67775007D01*
X112282037Y-67838591D01*
X111611818Y-67168372D01*
X111578333Y-67107049D01*
X111578330Y-67107036D01*
X111575499Y-67094015D01*
X111575499Y-67070128D01*
X111569091Y-67010517D01*
X111536443Y-66922983D01*
X111518798Y-66875673D01*
X111518793Y-66875664D01*
X111432547Y-66760455D01*
X111432544Y-66760452D01*
X111317335Y-66674206D01*
X111317328Y-66674202D01*
X111182482Y-66623908D01*
X111182483Y-66623908D01*
X111122883Y-66617501D01*
X111122881Y-66617500D01*
X111122873Y-66617500D01*
X111122864Y-66617500D01*
X109327129Y-66617500D01*
X109327123Y-66617501D01*
X109267516Y-66623908D01*
X109132671Y-66674202D01*
X109132664Y-66674206D01*
X109017455Y-66760452D01*
X109017452Y-66760455D01*
X108931206Y-66875664D01*
X108931202Y-66875671D01*
X108880908Y-67010517D01*
X108874501Y-67070116D01*
X108874500Y-67070135D01*
X103967428Y-67070135D01*
X103934868Y-66864563D01*
X103869179Y-66662394D01*
X103772673Y-66472990D01*
X103772671Y-66472987D01*
X103772670Y-66472985D01*
X103647731Y-66301019D01*
X103497408Y-66150696D01*
X103325439Y-66025755D01*
X103316126Y-66021010D01*
X103265329Y-65973036D01*
X103248534Y-65905215D01*
X103271071Y-65839080D01*
X103316129Y-65800038D01*
X103325177Y-65795428D01*
X103379338Y-65756076D01*
X103379339Y-65756076D01*
X102747030Y-65123768D01*
X102810615Y-65106731D01*
X102924629Y-65040905D01*
X103017721Y-64947813D01*
X103083547Y-64833799D01*
X103100584Y-64770215D01*
X103732892Y-65402523D01*
X103732892Y-65402522D01*
X103772244Y-65348360D01*
X103868717Y-65159023D01*
X103934379Y-64956936D01*
X103934379Y-64956933D01*
X103967622Y-64747052D01*
X103967622Y-64534559D01*
X103934379Y-64324678D01*
X103934379Y-64324675D01*
X103868717Y-64122588D01*
X103772246Y-63933255D01*
X103732892Y-63879088D01*
X103732891Y-63879088D01*
X103100584Y-64511396D01*
X103083547Y-64447813D01*
X103017721Y-64333799D01*
X102924629Y-64240707D01*
X102810615Y-64174881D01*
X102747031Y-64157843D01*
X103379338Y-63525534D01*
X103325169Y-63486179D01*
X103325169Y-63486178D01*
X103316122Y-63481569D01*
X103265328Y-63433594D01*
X103248534Y-63365772D01*
X103271073Y-63299638D01*
X103316130Y-63260599D01*
X103325438Y-63255857D01*
X103419130Y-63187786D01*
X103497408Y-63130915D01*
X103497410Y-63130912D01*
X103497414Y-63130910D01*
X103647726Y-62980598D01*
X103647728Y-62980594D01*
X103647731Y-62980592D01*
X103772670Y-62808626D01*
X103772669Y-62808626D01*
X103772673Y-62808622D01*
X103869179Y-62619218D01*
X103934868Y-62417049D01*
X103968122Y-62207093D01*
X103968122Y-61994519D01*
X103934868Y-61784563D01*
X103869179Y-61582394D01*
X103772673Y-61392990D01*
X103772671Y-61392987D01*
X103772670Y-61392985D01*
X103647731Y-61221019D01*
X103497408Y-61070696D01*
X103325442Y-60945757D01*
X103324737Y-60945397D01*
X103316676Y-60941291D01*
X103265881Y-60893318D01*
X103249085Y-60825498D01*
X103271621Y-60759362D01*
X103316676Y-60720321D01*
X103325438Y-60715857D01*
X103347952Y-60699500D01*
X103497408Y-60590915D01*
X103497410Y-60590912D01*
X103497414Y-60590910D01*
X103647726Y-60440598D01*
X103772673Y-60268622D01*
X103869179Y-60079218D01*
X103934868Y-59877049D01*
X103968122Y-59667093D01*
X103968122Y-59454519D01*
X103934868Y-59244563D01*
X103869179Y-59042394D01*
X103772673Y-58852990D01*
X103772671Y-58852987D01*
X103772670Y-58852985D01*
X103647731Y-58681019D01*
X103497408Y-58530696D01*
X103325442Y-58405757D01*
X103324737Y-58405397D01*
X103316676Y-58401291D01*
X103265881Y-58353318D01*
X103249085Y-58285498D01*
X103271621Y-58219362D01*
X103316676Y-58180321D01*
X103325438Y-58175857D01*
X103416913Y-58109397D01*
X103497408Y-58050915D01*
X103497410Y-58050912D01*
X103497414Y-58050910D01*
X103647726Y-57900598D01*
X103647728Y-57900594D01*
X103647731Y-57900592D01*
X103772670Y-57728626D01*
X103772669Y-57728626D01*
X103772673Y-57728622D01*
X103869179Y-57539218D01*
X103934868Y-57337049D01*
X103968122Y-57127093D01*
X103968122Y-56914519D01*
X103934868Y-56704563D01*
X103869179Y-56502394D01*
X103772673Y-56312990D01*
X103772671Y-56312987D01*
X103772670Y-56312985D01*
X103647731Y-56141019D01*
X103497412Y-55990700D01*
X103497407Y-55990696D01*
X103445189Y-55952758D01*
X103445166Y-55952742D01*
X103325438Y-55865755D01*
X103308949Y-55857353D01*
X103305781Y-55855135D01*
X113149500Y-55855135D01*
X113149500Y-57650870D01*
X113149501Y-57650876D01*
X113155908Y-57710483D01*
X113206202Y-57845328D01*
X113206206Y-57845335D01*
X113292452Y-57960544D01*
X113292455Y-57960547D01*
X113407664Y-58046793D01*
X113407671Y-58046797D01*
X113452618Y-58063561D01*
X113542517Y-58097091D01*
X113602127Y-58103500D01*
X113612685Y-58103499D01*
X113679723Y-58123179D01*
X113700372Y-58139818D01*
X114370591Y-58810037D01*
X114307007Y-58827075D01*
X114192993Y-58892901D01*
X114099901Y-58985993D01*
X114034075Y-59100007D01*
X114017037Y-59163591D01*
X113384728Y-58531282D01*
X113384727Y-58531282D01*
X113345380Y-58585439D01*
X113248904Y-58774782D01*
X113183242Y-58976869D01*
X113183242Y-58976872D01*
X113150000Y-59186753D01*
X113150000Y-59399246D01*
X113183242Y-59609127D01*
X113183242Y-59609130D01*
X113248904Y-59811217D01*
X113345375Y-60000550D01*
X113384728Y-60054716D01*
X114017037Y-59422408D01*
X114034075Y-59485993D01*
X114099901Y-59600007D01*
X114192993Y-59693099D01*
X114307007Y-59758925D01*
X114370590Y-59775962D01*
X113738282Y-60408269D01*
X113738282Y-60408270D01*
X113792449Y-60447624D01*
X113981782Y-60544095D01*
X114183870Y-60609757D01*
X114393754Y-60643000D01*
X114606246Y-60643000D01*
X114816127Y-60609757D01*
X114816130Y-60609757D01*
X115018217Y-60544095D01*
X115207554Y-60447622D01*
X115261716Y-60408270D01*
X115261717Y-60408270D01*
X114629408Y-59775962D01*
X114692993Y-59758925D01*
X114807007Y-59693099D01*
X114900099Y-59600007D01*
X114965925Y-59485993D01*
X114982962Y-59422409D01*
X115615270Y-60054717D01*
X115615270Y-60054716D01*
X115654622Y-60000554D01*
X115751095Y-59811217D01*
X115816757Y-59609130D01*
X115816757Y-59609127D01*
X115850000Y-59399246D01*
X115850000Y-59186753D01*
X115816757Y-58976872D01*
X115816757Y-58976869D01*
X115751095Y-58774782D01*
X115654624Y-58585449D01*
X115615270Y-58531282D01*
X115615269Y-58531282D01*
X114982962Y-59163590D01*
X114965925Y-59100007D01*
X114900099Y-58985993D01*
X114807007Y-58892901D01*
X114692993Y-58827075D01*
X114629409Y-58810037D01*
X115299627Y-58139818D01*
X115360950Y-58106333D01*
X115387307Y-58103499D01*
X115397872Y-58103499D01*
X115457483Y-58097091D01*
X115592331Y-58046796D01*
X115707546Y-57960546D01*
X115793796Y-57845331D01*
X115844091Y-57710483D01*
X115850500Y-57650873D01*
X115850499Y-55855128D01*
X115844091Y-55795517D01*
X115793796Y-55660669D01*
X115793795Y-55660668D01*
X115793793Y-55660664D01*
X115707547Y-55545455D01*
X115707544Y-55545452D01*
X115592335Y-55459206D01*
X115592328Y-55459202D01*
X115457482Y-55408908D01*
X115457483Y-55408908D01*
X115397883Y-55402501D01*
X115397881Y-55402500D01*
X115397873Y-55402500D01*
X115397864Y-55402500D01*
X113602129Y-55402500D01*
X113602123Y-55402501D01*
X113542516Y-55408908D01*
X113407671Y-55459202D01*
X113407664Y-55459206D01*
X113292455Y-55545452D01*
X113292452Y-55545455D01*
X113206206Y-55660664D01*
X113206202Y-55660671D01*
X113155908Y-55795517D01*
X113149501Y-55855116D01*
X113149501Y-55855123D01*
X113149500Y-55855135D01*
X103305781Y-55855135D01*
X103301844Y-55852378D01*
X103285231Y-55831592D01*
X103265881Y-55813318D01*
X103263751Y-55804718D01*
X103258221Y-55797799D01*
X103255482Y-55771328D01*
X103249085Y-55745498D01*
X103251941Y-55737113D01*
X103251030Y-55728301D01*
X103263038Y-55704549D01*
X103271621Y-55679362D01*
X103279009Y-55672959D01*
X103282555Y-55665947D01*
X103296699Y-55657631D01*
X103316676Y-55640321D01*
X103325438Y-55635857D01*
X103347411Y-55619892D01*
X103497408Y-55510915D01*
X103497410Y-55510912D01*
X103497414Y-55510910D01*
X103647726Y-55360598D01*
X103647728Y-55360594D01*
X103647731Y-55360592D01*
X103772670Y-55188626D01*
X103772669Y-55188626D01*
X103772673Y-55188622D01*
X103869179Y-54999218D01*
X103934868Y-54797049D01*
X103968122Y-54587093D01*
X103968122Y-54374519D01*
X103934868Y-54164563D01*
X103869179Y-53962394D01*
X103772673Y-53772990D01*
X103772671Y-53772987D01*
X103772670Y-53772985D01*
X103647731Y-53601019D01*
X103497408Y-53450696D01*
X103325439Y-53325755D01*
X103316126Y-53321010D01*
X103265329Y-53273036D01*
X103248534Y-53205215D01*
X103271071Y-53139080D01*
X103316129Y-53100038D01*
X103325177Y-53095428D01*
X103379338Y-53056076D01*
X103379339Y-53056076D01*
X102747030Y-52423768D01*
X102810615Y-52406731D01*
X102924629Y-52340905D01*
X103017721Y-52247813D01*
X103083547Y-52133799D01*
X103100584Y-52070215D01*
X103732892Y-52702523D01*
X103732892Y-52702522D01*
X103772244Y-52648360D01*
X103868717Y-52459023D01*
X103934379Y-52256936D01*
X103934379Y-52256933D01*
X103967622Y-52047052D01*
X103967622Y-51834559D01*
X103934379Y-51624678D01*
X103934379Y-51624675D01*
X103868717Y-51422588D01*
X103772246Y-51233255D01*
X103732892Y-51179088D01*
X103732891Y-51179088D01*
X103100584Y-51811396D01*
X103083547Y-51747813D01*
X103017721Y-51633799D01*
X102924629Y-51540707D01*
X102810615Y-51474881D01*
X102747031Y-51457843D01*
X103379338Y-50825534D01*
X103325169Y-50786179D01*
X103325169Y-50786178D01*
X103316122Y-50781569D01*
X103265328Y-50733594D01*
X103248534Y-50665772D01*
X103271073Y-50599638D01*
X103316130Y-50560599D01*
X103325438Y-50555857D01*
X103419130Y-50487786D01*
X103497408Y-50430915D01*
X103497410Y-50430912D01*
X103497414Y-50430910D01*
X103647726Y-50280598D01*
X103647728Y-50280594D01*
X103647731Y-50280592D01*
X103772670Y-50108626D01*
X103772669Y-50108626D01*
X103772673Y-50108622D01*
X103869179Y-49919218D01*
X103934868Y-49717049D01*
X103968122Y-49507093D01*
X103968122Y-49294519D01*
X103934868Y-49084563D01*
X103869179Y-48882394D01*
X103772673Y-48692990D01*
X103772671Y-48692987D01*
X103772670Y-48692985D01*
X103647731Y-48521019D01*
X103497408Y-48370696D01*
X103325442Y-48245757D01*
X103324737Y-48245397D01*
X103316676Y-48241291D01*
X103265881Y-48193318D01*
X103249085Y-48125498D01*
X103271621Y-48059362D01*
X103316676Y-48020321D01*
X103325438Y-48015857D01*
X103347411Y-47999892D01*
X103497408Y-47890915D01*
X103497410Y-47890912D01*
X103497414Y-47890910D01*
X103647726Y-47740598D01*
X103647728Y-47740594D01*
X103647731Y-47740592D01*
X103772670Y-47568626D01*
X103772669Y-47568626D01*
X103772673Y-47568622D01*
X103869179Y-47379218D01*
X103934868Y-47177049D01*
X103968122Y-46967093D01*
X103968122Y-46754519D01*
X103934868Y-46544563D01*
X103869179Y-46342394D01*
X103772673Y-46152990D01*
X103772671Y-46152987D01*
X103772670Y-46152985D01*
X103647731Y-45981019D01*
X103497408Y-45830696D01*
X103325442Y-45705757D01*
X103324737Y-45705397D01*
X103316676Y-45701291D01*
X103265881Y-45653318D01*
X103249085Y-45585498D01*
X103271621Y-45519362D01*
X103316676Y-45480321D01*
X103325438Y-45475857D01*
X103389469Y-45429336D01*
X103497408Y-45350915D01*
X103497410Y-45350912D01*
X103497414Y-45350910D01*
X103647726Y-45200598D01*
X103647728Y-45200594D01*
X103647731Y-45200592D01*
X103772670Y-45028626D01*
X103772669Y-45028626D01*
X103772673Y-45028622D01*
X103869179Y-44839218D01*
X103934868Y-44637049D01*
X103968122Y-44427093D01*
X103968122Y-44214519D01*
X103934868Y-44004563D01*
X103869179Y-43802394D01*
X103772673Y-43612990D01*
X103772671Y-43612987D01*
X103772670Y-43612985D01*
X103647731Y-43441019D01*
X103497408Y-43290696D01*
X103325442Y-43165757D01*
X103324737Y-43165397D01*
X103316676Y-43161291D01*
X103265881Y-43113318D01*
X103249085Y-43045498D01*
X103271621Y-42979362D01*
X103316676Y-42940321D01*
X103325438Y-42935857D01*
X103347411Y-42919892D01*
X103497408Y-42810915D01*
X103497410Y-42810912D01*
X103497414Y-42810910D01*
X103647726Y-42660598D01*
X103647728Y-42660594D01*
X103647731Y-42660592D01*
X103772670Y-42488626D01*
X103772669Y-42488626D01*
X103772673Y-42488622D01*
X103869179Y-42299218D01*
X103934868Y-42097049D01*
X103968122Y-41887093D01*
X103968122Y-41674519D01*
X103934868Y-41464563D01*
X103869179Y-41262394D01*
X103869176Y-41262388D01*
X103849198Y-41223177D01*
X103849197Y-41223176D01*
X103822995Y-41171753D01*
X110610000Y-41171753D01*
X110610000Y-41384246D01*
X110643242Y-41594127D01*
X110643242Y-41594130D01*
X110708904Y-41796217D01*
X110805375Y-41985550D01*
X110844728Y-42039716D01*
X111477037Y-41407408D01*
X111494075Y-41470993D01*
X111559901Y-41585007D01*
X111652993Y-41678099D01*
X111767007Y-41743925D01*
X111830590Y-41760962D01*
X111198282Y-42393269D01*
X111198282Y-42393270D01*
X111252449Y-42432624D01*
X111441782Y-42529095D01*
X111643870Y-42594757D01*
X111853754Y-42628000D01*
X112066246Y-42628000D01*
X112276127Y-42594757D01*
X112276130Y-42594757D01*
X112478217Y-42529095D01*
X112667554Y-42432622D01*
X112721716Y-42393270D01*
X112721717Y-42393270D01*
X112089408Y-41760962D01*
X112152993Y-41743925D01*
X112267007Y-41678099D01*
X112360099Y-41585007D01*
X112425925Y-41470993D01*
X112442962Y-41407408D01*
X113113181Y-42077628D01*
X113146666Y-42138951D01*
X113149500Y-42165300D01*
X113149500Y-42175865D01*
X113149501Y-42175876D01*
X113155908Y-42235483D01*
X113206202Y-42370328D01*
X113206206Y-42370335D01*
X113292452Y-42485544D01*
X113292455Y-42485547D01*
X113407664Y-42571793D01*
X113407671Y-42571797D01*
X113542517Y-42622091D01*
X113542516Y-42622091D01*
X113549444Y-42622835D01*
X113602127Y-42628500D01*
X115397872Y-42628499D01*
X115457483Y-42622091D01*
X115592331Y-42571796D01*
X115707546Y-42485546D01*
X115793796Y-42370331D01*
X115844091Y-42235483D01*
X115850500Y-42175873D01*
X115850499Y-40380128D01*
X115844091Y-40320517D01*
X115840414Y-40310659D01*
X115793797Y-40185671D01*
X115793793Y-40185664D01*
X115707547Y-40070455D01*
X115707544Y-40070452D01*
X115592335Y-39984206D01*
X115592328Y-39984202D01*
X115457482Y-39933908D01*
X115457483Y-39933908D01*
X115397883Y-39927501D01*
X115397881Y-39927500D01*
X115397873Y-39927500D01*
X115397864Y-39927500D01*
X113602129Y-39927500D01*
X113602123Y-39927501D01*
X113542516Y-39933908D01*
X113407671Y-39984202D01*
X113407664Y-39984206D01*
X113292455Y-40070452D01*
X113292452Y-40070455D01*
X113206206Y-40185664D01*
X113206202Y-40185671D01*
X113155908Y-40320517D01*
X113151439Y-40362093D01*
X113149501Y-40380123D01*
X113149500Y-40380135D01*
X113149500Y-40390690D01*
X113129815Y-40457729D01*
X113113181Y-40478371D01*
X112442962Y-41148590D01*
X112425925Y-41085007D01*
X112360099Y-40970993D01*
X112267007Y-40877901D01*
X112152993Y-40812075D01*
X112089409Y-40795037D01*
X112721716Y-40162728D01*
X112667550Y-40123375D01*
X112478217Y-40026904D01*
X112276129Y-39961242D01*
X112066246Y-39928000D01*
X111853754Y-39928000D01*
X111643872Y-39961242D01*
X111643869Y-39961242D01*
X111441782Y-40026904D01*
X111252439Y-40123380D01*
X111198282Y-40162727D01*
X111198282Y-40162728D01*
X111830591Y-40795037D01*
X111767007Y-40812075D01*
X111652993Y-40877901D01*
X111559901Y-40970993D01*
X111494075Y-41085007D01*
X111477037Y-41148591D01*
X110844728Y-40516282D01*
X110844727Y-40516282D01*
X110805380Y-40570439D01*
X110708904Y-40759782D01*
X110643242Y-40961869D01*
X110643242Y-40961872D01*
X110610000Y-41171753D01*
X103822995Y-41171753D01*
X103816357Y-41158725D01*
X103772673Y-41072990D01*
X103741631Y-41030264D01*
X103647731Y-40901019D01*
X103497408Y-40750696D01*
X103325439Y-40625755D01*
X103316126Y-40621010D01*
X103265329Y-40573036D01*
X103248534Y-40505215D01*
X103271071Y-40439080D01*
X103316129Y-40400038D01*
X103325177Y-40395428D01*
X103379338Y-40356076D01*
X103379339Y-40356076D01*
X103320931Y-40297668D01*
X102747030Y-39723768D01*
X102810615Y-39706731D01*
X102924629Y-39640905D01*
X103017721Y-39547813D01*
X103083547Y-39433799D01*
X103100584Y-39370215D01*
X103732892Y-40002523D01*
X103732892Y-40002522D01*
X103772244Y-39948360D01*
X103868717Y-39759023D01*
X103934379Y-39556936D01*
X103934379Y-39556933D01*
X103967622Y-39347052D01*
X103967622Y-39134559D01*
X103934379Y-38924678D01*
X103934379Y-38924675D01*
X103868717Y-38722588D01*
X103772246Y-38533255D01*
X103732892Y-38479088D01*
X103732891Y-38479088D01*
X103100584Y-39111396D01*
X103083547Y-39047813D01*
X103017721Y-38933799D01*
X102924629Y-38840707D01*
X102810615Y-38774881D01*
X102747031Y-38757843D01*
X103379338Y-38125534D01*
X103325169Y-38086179D01*
X103325169Y-38086178D01*
X103316122Y-38081569D01*
X103265328Y-38033594D01*
X103248534Y-37965772D01*
X103271073Y-37899638D01*
X103316130Y-37860599D01*
X103325438Y-37855857D01*
X103457232Y-37760104D01*
X103497408Y-37730915D01*
X103497410Y-37730912D01*
X103497414Y-37730910D01*
X103647726Y-37580598D01*
X103647728Y-37580594D01*
X103647731Y-37580592D01*
X103772670Y-37408626D01*
X103772669Y-37408626D01*
X103772673Y-37408622D01*
X103869179Y-37219218D01*
X103934868Y-37017049D01*
X103968122Y-36807093D01*
X103968122Y-36594519D01*
X103934868Y-36384563D01*
X103869179Y-36182394D01*
X103772673Y-35992990D01*
X103772671Y-35992987D01*
X103772670Y-35992985D01*
X103647731Y-35821019D01*
X103534191Y-35707479D01*
X103500706Y-35646156D01*
X103505690Y-35576464D01*
X103547562Y-35520531D01*
X103578537Y-35503616D01*
X103709953Y-35454602D01*
X103825168Y-35368352D01*
X103911418Y-35253137D01*
X103961713Y-35118289D01*
X103968122Y-35058679D01*
X103968121Y-33262934D01*
X103961713Y-33203323D01*
X103948276Y-33167297D01*
X103911419Y-33068477D01*
X103911415Y-33068470D01*
X103825169Y-32953261D01*
X103825166Y-32953258D01*
X103709957Y-32867012D01*
X103709950Y-32867008D01*
X103575104Y-32816714D01*
X103575105Y-32816714D01*
X103515505Y-32810307D01*
X103515503Y-32810306D01*
X103515495Y-32810306D01*
X103515486Y-32810306D01*
X101719751Y-32810306D01*
X101719745Y-32810307D01*
X101660138Y-32816714D01*
X101525293Y-32867008D01*
X101525286Y-32867012D01*
X101410077Y-32953258D01*
X101410074Y-32953261D01*
X101323828Y-33068470D01*
X101323824Y-33068477D01*
X101273530Y-33203323D01*
X101267123Y-33262922D01*
X101267123Y-33262929D01*
X101267122Y-33262941D01*
X85784269Y-33262941D01*
X85707547Y-33160455D01*
X85707544Y-33160452D01*
X85592335Y-33074206D01*
X85592328Y-33074202D01*
X85457482Y-33023908D01*
X85457483Y-33023908D01*
X85397883Y-33017501D01*
X85397881Y-33017500D01*
X85397873Y-33017500D01*
X85397864Y-33017500D01*
X83602129Y-33017500D01*
X83602123Y-33017501D01*
X83542516Y-33023908D01*
X83407671Y-33074202D01*
X83407664Y-33074206D01*
X83292455Y-33160452D01*
X83292452Y-33160455D01*
X83206206Y-33275664D01*
X83206202Y-33275671D01*
X83155908Y-33410517D01*
X83149501Y-33470116D01*
X83149501Y-33470123D01*
X83149500Y-33470135D01*
X73358290Y-33470135D01*
X71626091Y-31737936D01*
X71626090Y-31737935D01*
X71615615Y-31731887D01*
X71567400Y-31681321D01*
X71554176Y-31612714D01*
X71580144Y-31547849D01*
X71637058Y-31507320D01*
X71677615Y-31500500D01*
X114745933Y-31500500D01*
X114754043Y-31500765D01*
G37*
%TD.AperFunction*%
%TA.AperFunction,Conductor*%
G36*
X72979728Y-77712680D02*
G01*
X73035662Y-77754551D01*
X73052577Y-77785528D01*
X73101646Y-77917088D01*
X73101649Y-77917093D01*
X73187809Y-78032187D01*
X73187812Y-78032190D01*
X73302906Y-78118350D01*
X73302913Y-78118354D01*
X73437620Y-78168596D01*
X73437619Y-78168596D01*
X73520444Y-78177501D01*
X73520116Y-78180550D01*
X73537014Y-78179642D01*
X73596196Y-78212642D01*
X74265591Y-78882037D01*
X74202007Y-78899075D01*
X74087993Y-78964901D01*
X73994901Y-79057993D01*
X73929075Y-79172007D01*
X73912037Y-79235591D01*
X73279728Y-78603282D01*
X73279727Y-78603282D01*
X73240380Y-78657440D01*
X73240376Y-78657446D01*
X73235760Y-78666505D01*
X73187781Y-78717297D01*
X73119959Y-78734087D01*
X73053826Y-78711543D01*
X73014794Y-78666493D01*
X73010051Y-78657184D01*
X73010049Y-78657181D01*
X73010048Y-78657179D01*
X72885109Y-78485213D01*
X72734786Y-78334890D01*
X72562820Y-78209951D01*
X72562115Y-78209591D01*
X72554054Y-78205485D01*
X72503259Y-78157512D01*
X72486463Y-78089692D01*
X72508999Y-78023556D01*
X72554054Y-77984515D01*
X72562816Y-77980051D01*
X72649478Y-77917088D01*
X72734784Y-77855110D01*
X72734784Y-77855109D01*
X72734792Y-77855104D01*
X72848717Y-77741178D01*
X72910036Y-77707696D01*
X72979728Y-77712680D01*
G37*
%TD.AperFunction*%
%TA.AperFunction,Conductor*%
G36*
X64105914Y-35447185D02*
G01*
X64151669Y-35499989D01*
X64162493Y-35561229D01*
X64158282Y-35614728D01*
X64790591Y-36247037D01*
X64727007Y-36264075D01*
X64612993Y-36329901D01*
X64519901Y-36422993D01*
X64454075Y-36537007D01*
X64437037Y-36600591D01*
X63804728Y-35968282D01*
X63804727Y-35968282D01*
X63765380Y-36022439D01*
X63668904Y-36211782D01*
X63603242Y-36413869D01*
X63603242Y-36413872D01*
X63570000Y-36623753D01*
X63570000Y-36836246D01*
X63603242Y-37046127D01*
X63603242Y-37046130D01*
X63668904Y-37248217D01*
X63765375Y-37437550D01*
X63804728Y-37491716D01*
X64437037Y-36859408D01*
X64454075Y-36922993D01*
X64519901Y-37037007D01*
X64612993Y-37130099D01*
X64727007Y-37195925D01*
X64790590Y-37212962D01*
X64121195Y-37882356D01*
X64059872Y-37915841D01*
X64045167Y-37914924D01*
X64045444Y-37917497D01*
X63962626Y-37926401D01*
X63962619Y-37926403D01*
X63827913Y-37976645D01*
X63827906Y-37976649D01*
X63712812Y-38062809D01*
X63712809Y-38062812D01*
X63626649Y-38177906D01*
X63626645Y-38177913D01*
X63576403Y-38312620D01*
X63576401Y-38312627D01*
X63570000Y-38372155D01*
X63570000Y-39020000D01*
X64486988Y-39020000D01*
X64454075Y-39077007D01*
X64420000Y-39204174D01*
X64420000Y-39335826D01*
X64454075Y-39462993D01*
X64486988Y-39520000D01*
X63570000Y-39520000D01*
X63570000Y-40167844D01*
X63576401Y-40227372D01*
X63576403Y-40227379D01*
X63626645Y-40362086D01*
X63626649Y-40362093D01*
X63712809Y-40477187D01*
X63712812Y-40477190D01*
X63827906Y-40563350D01*
X63827913Y-40563354D01*
X63962620Y-40613596D01*
X63962627Y-40613598D01*
X64022155Y-40619999D01*
X64022172Y-40620000D01*
X64670000Y-40620000D01*
X64670000Y-39703012D01*
X64727007Y-39735925D01*
X64854174Y-39770000D01*
X64985826Y-39770000D01*
X65112993Y-39735925D01*
X65170000Y-39703012D01*
X65170000Y-40620000D01*
X65347482Y-40620000D01*
X65414521Y-40639685D01*
X65460276Y-40692489D01*
X65470220Y-40761647D01*
X65441195Y-40825203D01*
X65435163Y-40831681D01*
X61339181Y-44927663D01*
X61277858Y-44961148D01*
X61208166Y-44956164D01*
X61152233Y-44914292D01*
X61127816Y-44848828D01*
X61127500Y-44839982D01*
X61127500Y-37587017D01*
X61147185Y-37519978D01*
X61163819Y-37499336D01*
X63199336Y-35463819D01*
X63260659Y-35430334D01*
X63287017Y-35427500D01*
X64038875Y-35427500D01*
X64105914Y-35447185D01*
G37*
%TD.AperFunction*%
%TA.AperFunction,Conductor*%
G36*
X66035270Y-37491717D02*
G01*
X66035270Y-37491716D01*
X66074622Y-37437555D01*
X66079232Y-37428507D01*
X66127205Y-37377709D01*
X66195025Y-37360912D01*
X66261161Y-37383447D01*
X66300204Y-37428504D01*
X66304949Y-37437817D01*
X66429890Y-37609786D01*
X66580213Y-37760109D01*
X66752182Y-37885050D01*
X66760946Y-37889516D01*
X66811742Y-37937491D01*
X66828536Y-38005312D01*
X66805998Y-38071447D01*
X66760946Y-38110484D01*
X66752182Y-38114949D01*
X66580215Y-38239889D01*
X66466285Y-38353819D01*
X66404962Y-38387303D01*
X66335270Y-38382319D01*
X66279337Y-38340447D01*
X66262422Y-38309470D01*
X66213354Y-38177913D01*
X66213350Y-38177906D01*
X66127190Y-38062812D01*
X66127187Y-38062809D01*
X66012093Y-37976649D01*
X66012086Y-37976645D01*
X65877380Y-37926403D01*
X65877373Y-37926401D01*
X65794555Y-37917497D01*
X65794884Y-37914431D01*
X65777875Y-37915330D01*
X65718803Y-37882356D01*
X65049408Y-37212962D01*
X65112993Y-37195925D01*
X65227007Y-37130099D01*
X65320099Y-37037007D01*
X65385925Y-36922993D01*
X65402962Y-36859408D01*
X66035270Y-37491717D01*
G37*
%TD.AperFunction*%
%TA.AperFunction,Conductor*%
G36*
X62114424Y-31520185D02*
G01*
X62160179Y-31572989D01*
X62170123Y-31642147D01*
X62141098Y-31705703D01*
X62109384Y-31731888D01*
X62098911Y-31737934D01*
X62098908Y-31737936D01*
X58739681Y-35097164D01*
X58678358Y-35130649D01*
X58608666Y-35125665D01*
X58552733Y-35083793D01*
X58528316Y-35018329D01*
X58528000Y-35009483D01*
X58528000Y-31856166D01*
X55886495Y-31856166D01*
X55871824Y-31851858D01*
X55856545Y-31852495D01*
X55838979Y-31842213D01*
X55819456Y-31836481D01*
X55809443Y-31824926D01*
X55796245Y-31817201D01*
X55787025Y-31799054D01*
X55773701Y-31783677D01*
X55771525Y-31768543D01*
X55764598Y-31754909D01*
X55766653Y-31734660D01*
X55763757Y-31714519D01*
X55770108Y-31700610D01*
X55771653Y-31685396D01*
X55784328Y-31669474D01*
X55792782Y-31650963D01*
X55806304Y-31641869D01*
X55815170Y-31630733D01*
X55846634Y-31614747D01*
X55974808Y-31571238D01*
X55990451Y-31567047D01*
X56231048Y-31519190D01*
X56247102Y-31517075D01*
X56495957Y-31500765D01*
X56504067Y-31500500D01*
X62047385Y-31500500D01*
X62114424Y-31520185D01*
G37*
%TD.AperFunction*%
%TD*%
%TA.AperFunction,Conductor*%
%TO.N,GND*%
G36*
X76800000Y-56700000D02*
G01*
X76804761Y-60190992D01*
X70195250Y-60200006D01*
X70200000Y-64200000D01*
X65900000Y-64200000D01*
X65900000Y-60200000D01*
X69200000Y-60200000D01*
X69261826Y-54885768D01*
X69278213Y-54910292D01*
X69389707Y-55021786D01*
X69389711Y-55021789D01*
X69520814Y-55109390D01*
X69520827Y-55109397D01*
X69607726Y-55145391D01*
X69666503Y-55169737D01*
X69821153Y-55200499D01*
X69821156Y-55200500D01*
X69821158Y-55200500D01*
X69978844Y-55200500D01*
X69978845Y-55200499D01*
X70133497Y-55169737D01*
X70279179Y-55109394D01*
X70379609Y-55042289D01*
X70446286Y-55021411D01*
X70513667Y-55039895D01*
X70560357Y-55091874D01*
X70572500Y-55145391D01*
X70572500Y-55989795D01*
X70552815Y-56056834D01*
X70517391Y-56092897D01*
X70389711Y-56178210D01*
X70389707Y-56178213D01*
X70278213Y-56289707D01*
X70278210Y-56289711D01*
X70190609Y-56420814D01*
X70190602Y-56420827D01*
X70130264Y-56566498D01*
X70130261Y-56566510D01*
X70099500Y-56721153D01*
X70099500Y-56878846D01*
X70130261Y-57033489D01*
X70130264Y-57033501D01*
X70190602Y-57179172D01*
X70190609Y-57179185D01*
X70278210Y-57310288D01*
X70278213Y-57310292D01*
X70389707Y-57421786D01*
X70389711Y-57421789D01*
X70520814Y-57509390D01*
X70520827Y-57509397D01*
X70666498Y-57569735D01*
X70666503Y-57569737D01*
X70821153Y-57600499D01*
X70821156Y-57600500D01*
X70821158Y-57600500D01*
X70978844Y-57600500D01*
X70978845Y-57600499D01*
X71133497Y-57569737D01*
X71279179Y-57509394D01*
X71410289Y-57421789D01*
X71521789Y-57310289D01*
X71609394Y-57179179D01*
X71669737Y-57033497D01*
X71700500Y-56878842D01*
X71700500Y-56721158D01*
X71700500Y-56721155D01*
X71700499Y-56721153D01*
X71669738Y-56566510D01*
X71669737Y-56566503D01*
X71669735Y-56566498D01*
X71609397Y-56420827D01*
X71609390Y-56420814D01*
X71521789Y-56289711D01*
X71521786Y-56289707D01*
X71410292Y-56178213D01*
X71410288Y-56178210D01*
X71282609Y-56092897D01*
X71237804Y-56039285D01*
X71227500Y-55989795D01*
X71227500Y-53978415D01*
X76799903Y-53978217D01*
X76800000Y-56700000D01*
G37*
%TD.AperFunction*%
%TD*%
M02*
